<svg width="200" height="40" viewBox="0 0 200 40" fill="none" xmlns="http://www.w3.org/2000/svg">
<path d="M0.543887 29.9778C0.181296 29.9778 0 29.8711 0 29.6578C0 29.6152 0.0319933 29.4659 0.09598 29.2099C0.181296 28.8687 0.266611 28.6767 0.351927 28.634C0.437242 28.5914 0.682525 28.5594 1.08777 28.5381C1.66365 28.5381 2.30352 28.5061 3.00737 28.4421C3.30598 28.3781 3.5086 28.2501 3.61525 28.0582C3.65791 27.9515 4.41508 24.9548 5.88678 19.068C7.35847 13.1812 8.10498 10.1952 8.12631 10.1099C8.12631 9.96059 8.08365 9.88593 7.99834 9.88593C7.82771 9.82195 7.26249 9.76863 6.30269 9.72597H5.3109C5.18292 9.59799 5.11894 9.51268 5.11894 9.47002C5.11894 9.42736 5.14026 9.24607 5.18292 8.92613C5.26824 8.56354 5.37488 8.33959 5.50286 8.25427H22.7473C22.8966 8.33959 22.9712 8.4569 22.9712 8.6062C22.9712 8.71284 22.8326 9.90726 22.5553 12.1895C22.278 14.4716 22.1287 15.6447 22.1074 15.7087C22.0647 15.858 21.8515 15.9327 21.4675 15.9327H21.0836C20.9343 15.826 20.8597 15.6874 20.8597 15.5168C20.8597 15.4954 20.8917 15.2395 20.9556 14.7489C21.0196 14.2584 21.0516 13.6931 21.0516 13.0533C21.0516 12.4134 20.977 11.8909 20.8277 11.4856C20.6784 11.0804 20.4757 10.7498 20.2198 10.4938C19.9638 10.2379 19.5693 10.0672 19.036 9.98191C18.5028 9.8966 17.9589 9.82195 17.4044 9.75796C16.8498 9.69397 16.082 9.68331 15.1009 9.72597H14.365C12.616 9.7473 11.6882 9.77929 11.5816 9.82195C11.4749 9.86461 11.4003 9.94992 11.3576 10.0779C11.3363 10.0992 10.9737 11.4963 10.2699 14.269L9.24608 18.3962H11.0057C11.0697 18.3962 11.315 18.3962 11.7416 18.3962C12.1681 18.3962 12.4667 18.3855 12.6374 18.3642C12.808 18.3428 13.0426 18.3108 13.3412 18.2682C13.6398 18.2255 13.8958 18.1509 14.1091 18.0442C14.3224 17.9376 14.5037 17.8096 14.653 17.6603C14.9302 17.4044 15.1648 17.0524 15.3568 16.6045C15.5488 16.1566 15.6874 15.7514 15.7727 15.3888C15.858 15.0262 15.9114 14.8342 15.9327 14.8129C15.9967 14.7063 16.1993 14.6529 16.5406 14.6529H16.9245C17.0738 14.7596 17.1484 14.8662 17.1484 14.9729C17.1484 15.0369 16.8178 16.4339 16.1566 19.164C15.4954 21.8941 15.1329 23.3018 15.0689 23.3871C15.0262 23.5364 14.8129 23.6111 14.429 23.6111H14.0451C13.8958 23.4831 13.8211 23.3551 13.8211 23.2272C13.8211 23.1632 13.8744 22.9286 13.9811 22.5233C14.0877 22.1181 14.1411 21.6915 14.1411 21.2436C14.1411 20.625 13.9278 20.2411 13.5012 20.0918C13.0746 19.9425 12.1255 19.8679 10.6538 19.8679H8.89415L7.87036 23.931C7.18784 26.5758 6.84658 27.9622 6.84658 28.0901C6.84658 28.3888 7.79571 28.5381 9.69398 28.5381H10.4938C10.6218 28.666 10.6858 28.7407 10.6858 28.762C10.6858 28.7833 10.6644 28.9966 10.6218 29.4019C10.5365 29.6792 10.4298 29.8818 10.3019 30.0098H9.75797C8.88349 29.9671 7.27315 29.9458 4.92698 29.9458C3.5406 29.9458 2.48482 29.9458 1.75963 29.9458C1.03445 29.9458 0.629203 29.9564 0.543887 29.9778Z" fill="black"/>
<path d="M20.0549 28.317C20.0549 28.1059 20.168 27.744 20.3942 27.2313C20.6204 26.7186 20.9823 26.1833 21.4799 25.6253C21.9776 25.0674 22.5355 24.7959 23.1538 24.811C23.772 24.811 24.2697 24.9844 24.6466 25.3313C25.0236 25.6781 25.2197 26.1606 25.2347 26.7789C25.2046 27.0654 25.182 27.2237 25.1669 27.2539C25.1669 27.2991 25.0463 27.646 24.805 28.2944C24.5637 28.9428 24.3149 29.6742 24.0585 30.4885C23.8022 31.3028 23.6816 31.9512 23.6966 32.4337C23.6966 33.0821 23.8022 33.5345 24.0133 33.7909C24.2244 34.0472 24.5411 34.183 24.9633 34.198C25.3101 34.198 25.6344 34.1151 25.9359 33.9492C26.2375 33.7833 26.4713 33.6099 26.6371 33.429C26.803 33.248 27.0066 32.9992 27.2479 32.6825C27.2479 32.6675 27.2856 32.5167 27.361 32.2302C27.4364 31.9436 27.5419 31.4988 27.6776 30.8956C27.8133 30.2924 27.9566 29.7345 28.1074 29.2218C28.6804 26.9599 28.9971 25.7761 29.0574 25.6706C29.2534 25.2634 29.5777 25.0598 30.03 25.0598C30.2261 25.0598 30.3844 25.1126 30.505 25.2182C30.6257 25.3237 30.7086 25.4142 30.7539 25.4896C30.7991 25.565 30.8142 25.6329 30.7991 25.6932C30.7991 25.8892 30.4296 27.4726 29.6908 30.4432C28.9519 33.4139 28.5296 35.0425 28.4241 35.329C28.0018 36.5806 27.2705 37.5758 26.23 38.3147C25.1895 39.0536 24.149 39.4306 23.1085 39.4457C22.43 39.4457 21.8343 39.2798 21.3216 38.9481C20.8089 38.6163 20.5526 38.1187 20.5526 37.4552C20.5526 37.1235 20.6053 36.8445 20.7109 36.6183C20.8164 36.3921 20.9597 36.2262 21.1407 36.1207C21.3216 36.0151 21.4724 35.9397 21.593 35.8945C21.7137 35.8492 21.8419 35.8266 21.9776 35.8266C22.6411 35.8266 22.9728 36.1433 22.9728 36.7766C22.9728 37.0782 22.8823 37.3421 22.7014 37.5683C22.5204 37.7945 22.347 37.9453 22.1811 38.0207C22.0153 38.0961 21.9173 38.1338 21.8871 38.1338L21.8192 38.1564C21.8494 38.2318 21.9927 38.3223 22.249 38.4278C22.5054 38.5334 22.7617 38.5862 23.0181 38.5862H23.199C23.4554 38.5862 23.6514 38.5711 23.7871 38.5409C24.2847 38.4052 24.7447 38.1187 25.1669 37.6814C25.5891 37.2441 25.9133 36.7766 26.1395 36.279C26.3657 35.7814 26.5391 35.3592 26.6598 35.0123C26.7804 34.6655 26.8407 34.4393 26.8407 34.3337L26.705 34.4242C26.6145 34.4845 26.4713 34.5675 26.2752 34.673C26.0792 34.7786 25.8832 34.8691 25.6871 34.9445C25.3855 35.0199 25.0915 35.0576 24.805 35.0576C24.1113 35.0576 23.5006 34.8917 22.9728 34.5599C22.445 34.2282 22.0982 33.6929 21.9323 32.954C21.9173 32.8484 21.9097 32.6147 21.9097 32.2528C21.9097 31.3932 22.1736 30.2698 22.7014 28.8825C23.2292 27.4952 23.4931 26.613 23.4931 26.236C23.4931 26.221 23.4931 26.2059 23.4931 26.1908C23.4931 26.0551 23.4931 25.9646 23.4931 25.9194C23.4931 25.8741 23.4629 25.8214 23.4026 25.761C23.3423 25.7007 23.2593 25.6706 23.1538 25.6706H23.0633C22.7165 25.6706 22.3998 25.8138 22.1133 26.1003C21.8268 26.3868 21.6006 26.696 21.4347 27.0277C21.2688 27.3595 21.1407 27.6761 21.0502 27.9777C20.9597 28.2793 20.8994 28.4452 20.8692 28.4753C20.8391 28.5055 20.7184 28.5206 20.5073 28.5206H20.1906C20.1002 28.4301 20.0549 28.3623 20.0549 28.317Z" fill="black"/>
<path d="M42.9447 18.9081C42.9447 18.6308 43.094 18.4175 43.3926 18.2682H63.7724C64.0923 18.4388 64.2523 18.6521 64.2523 18.9081C64.2523 19.1427 64.103 19.3453 63.8044 19.5159L53.6305 19.5479H43.4566C43.1153 19.4413 42.9447 19.228 42.9447 18.9081ZM42.9447 25.1148C42.9447 24.7948 43.1153 24.5815 43.4566 24.4749H63.8044C64.103 24.6882 64.2523 24.9015 64.2523 25.1148C64.2523 25.392 64.0923 25.6053 63.7724 25.7546H43.3926C43.094 25.6053 42.9447 25.392 42.9447 25.1148Z" fill="black"/>
<path d="M79.3755 37.9761H79.3115C79.0556 37.9761 78.8636 37.8268 78.7357 37.5282V21.9794L78.7677 6.43065C78.9809 6.15337 79.1836 6.01473 79.3755 6.01473C79.6528 6.01473 79.8661 6.1747 80.0154 6.49463V37.5282C79.8448 37.8268 79.6528 37.9761 79.4395 37.9761H79.3755Z" fill="black"/>
<path d="M85.3583 29.9778C84.9957 29.9778 84.8144 29.8711 84.8144 29.6578C84.8144 29.6152 84.8464 29.4659 84.9104 29.2099C84.9957 28.8687 85.081 28.6767 85.1663 28.634C85.2516 28.5914 85.4969 28.5594 85.9022 28.5381C86.478 28.5381 87.1179 28.5061 87.8218 28.4421C88.1204 28.3781 88.323 28.2501 88.4296 28.0582C88.4723 27.9515 89.2295 24.9548 90.7012 19.068C92.1729 13.1812 92.9194 10.1952 92.9407 10.1099C92.9407 9.96059 92.898 9.88593 92.8127 9.88593C92.6421 9.82195 92.0769 9.76863 91.1171 9.72597H90.1253C89.9973 9.59799 89.9333 9.51268 89.9333 9.47002C89.9333 9.42736 89.9547 9.24607 89.9973 8.92613C90.0826 8.56354 90.1893 8.33959 90.3172 8.25427H107.562C107.711 8.33959 107.786 8.4569 107.786 8.6062C107.786 8.71284 107.647 9.90726 107.37 12.1895C107.092 14.4716 106.943 15.6447 106.922 15.7087C106.879 15.858 106.666 15.9327 106.282 15.9327H105.898C105.749 15.826 105.674 15.6874 105.674 15.5168C105.674 15.4954 105.706 15.2395 105.77 14.7489C105.834 14.2584 105.866 13.6931 105.866 13.0533C105.866 12.4134 105.791 11.8909 105.642 11.4856C105.493 11.0804 105.29 10.7498 105.034 10.4938C104.778 10.2379 104.384 10.0672 103.85 9.98191C103.317 9.8966 102.773 9.82195 102.219 9.75796C101.664 9.69397 100.896 9.68331 99.9153 9.72597H99.1794C97.4304 9.7473 96.5026 9.77929 96.396 9.82195C96.2893 9.86461 96.2147 9.94992 96.172 10.0779C96.1507 10.0992 95.7881 11.4963 95.0843 14.269L94.0605 18.3962H95.8201C95.8841 18.3962 96.1294 18.3962 96.556 18.3962C96.9825 18.3962 97.2811 18.3855 97.4518 18.3642C97.6224 18.3428 97.857 18.3108 98.1556 18.2682C98.4542 18.2255 98.7102 18.1509 98.9235 18.0442C99.1367 17.9376 99.318 17.8096 99.4673 17.6603C99.7446 17.4044 99.9792 17.0524 100.171 16.6045C100.363 16.1566 100.502 15.7514 100.587 15.3888C100.672 15.0262 100.726 14.8342 100.747 14.8129C100.811 14.7063 101.014 14.6529 101.355 14.6529H101.739C101.888 14.7596 101.963 14.8662 101.963 14.9729C101.963 15.0369 101.632 16.4339 100.971 19.164C100.31 21.8941 99.9472 23.3018 99.8833 23.3871C99.8406 23.5364 99.6273 23.6111 99.2434 23.6111H98.8595C98.7102 23.4831 98.6355 23.3551 98.6355 23.2272C98.6355 23.1632 98.6888 22.9286 98.7955 22.5233C98.9021 22.1181 98.9555 21.6915 98.9555 21.2436C98.9555 20.625 98.7422 20.2411 98.3156 20.0918C97.889 19.9425 96.9399 19.8679 95.4682 19.8679H93.7085L92.6848 23.931C92.0022 26.5758 91.661 27.9622 91.661 28.0901C91.661 28.3888 92.6101 28.5381 94.5084 28.5381H95.3082C95.4362 28.666 95.5002 28.7407 95.5002 28.762C95.5002 28.7833 95.4788 28.9966 95.4362 29.4019C95.3509 29.6792 95.2442 29.8818 95.1163 30.0098H94.5724C93.6979 29.9671 92.0875 29.9458 89.7414 29.9458C88.355 29.9458 87.2992 29.9458 86.574 29.9458C85.8488 29.9458 85.4436 29.9564 85.3583 29.9778Z" fill="black"/>
<path d="M105.076 0.639856C105.076 0.469225 105.129 0.319922 105.236 0.191949C105.342 0.0639755 105.502 -1.11759e-05 105.716 -1.11759e-05C105.865 -1.11759e-05 105.993 0.0533111 106.1 0.159956C106.206 0.245271 106.313 0.447896 106.419 0.767829C106.633 1.557 107.07 2.16487 107.731 2.59145C107.966 2.74075 108.083 2.93271 108.083 3.16733C108.083 3.35929 108.051 3.48726 107.987 3.55125C107.923 3.61524 107.774 3.71122 107.539 3.83919C106.622 4.30843 105.822 4.98029 105.14 5.85477C105.097 5.89743 105.044 5.96142 104.98 6.04673C104.916 6.13205 104.862 6.19603 104.82 6.23869C104.777 6.28135 104.724 6.30268 104.66 6.30268C104.596 6.30268 104.521 6.31334 104.436 6.33467C104.287 6.33467 104.148 6.28135 104.02 6.1747C103.892 6.06806 103.817 5.90809 103.796 5.6948C103.796 5.28956 104.297 4.66035 105.3 3.8072H99.8289L94.358 3.7752C94.0807 3.58324 93.9421 3.38062 93.9421 3.16733C93.9421 3.01803 94.0807 2.80474 94.358 2.52746H105.844C105.332 1.71696 105.076 1.08776 105.076 0.639856Z" fill="black"/>
<path d="M113.458 37.9761H113.394C113.138 37.9761 112.946 37.8268 112.818 37.5282V21.9794L112.85 6.43065C113.063 6.15337 113.266 6.01473 113.458 6.01473C113.735 6.01473 113.949 6.1747 114.098 6.49463V37.5282C113.927 37.8268 113.735 37.9761 113.522 37.9761H113.458Z" fill="black"/>
<path d="M122.096 20.7637C122.096 20.0812 122.267 19.388 122.608 18.6841C122.949 17.9803 123.547 17.3297 124.4 16.7325C125.253 16.1353 126.287 15.8474 127.503 15.8687C128.825 15.8687 129.785 16.1566 130.382 16.7325C130.98 17.3084 131.289 17.9483 131.31 18.6521C131.31 19.3346 131.129 19.8359 130.766 20.1558C130.404 20.4757 129.999 20.6464 129.551 20.6677C129.273 20.6677 129.017 20.5824 128.783 20.4118C128.548 20.2411 128.42 19.9638 128.399 19.5799C128.399 19.2387 128.495 18.9401 128.687 18.6841C128.879 18.4282 129.06 18.2362 129.231 18.1082C129.401 17.9803 129.54 17.9163 129.647 17.9163C129.668 17.9163 129.679 17.9056 129.679 17.8843C129.679 17.8203 129.604 17.7243 129.455 17.5963C129.305 17.4684 129.039 17.3511 128.655 17.2444C128.271 17.1378 127.855 17.0738 127.407 17.0525C126.383 17.0525 125.637 17.3297 125.168 17.8843C124.698 18.4388 124.453 19.004 124.432 19.5799C124.432 20.1131 124.634 20.4864 125.04 20.6997C125.445 20.913 126.031 21.0943 126.799 21.2436C127.567 21.3929 128.122 21.5528 128.463 21.7235C129.871 22.342 130.574 23.3658 130.574 24.7948C130.574 25.392 130.457 25.9893 130.222 26.5865C129.988 27.1837 129.636 27.7809 129.167 28.3781C128.697 28.9753 128.026 29.4445 127.151 29.7858C126.277 30.1271 125.274 30.3084 124.144 30.3297C122.501 30.3297 121.339 30.0204 120.656 29.4019C119.974 28.7833 119.622 28.0582 119.601 27.2263C119.601 26.3945 119.825 25.7973 120.273 25.4347C120.72 25.0721 121.19 24.8908 121.68 24.8908C122 24.8908 122.299 24.9868 122.576 25.1788C122.853 25.3707 123.003 25.7013 123.024 26.1706C123.024 26.7251 122.832 27.1943 122.448 27.5783C122.064 27.9622 121.734 28.1541 121.456 28.1541C121.414 28.1755 121.382 28.1861 121.36 28.1861C121.339 28.1861 121.328 28.2075 121.328 28.2501C121.35 28.3141 121.435 28.3994 121.584 28.5061C121.734 28.6127 122.064 28.7514 122.576 28.922C123.088 29.0926 123.675 29.1673 124.336 29.1459C125.104 29.1459 125.765 29.0286 126.319 28.794C126.874 28.5594 127.279 28.2608 127.535 27.8982C127.791 27.5356 127.972 27.205 128.079 26.9064C128.186 26.6078 128.239 26.3412 128.239 26.1066C128.239 25.5094 128.015 25.0615 127.567 24.7628C127.119 24.4642 126.607 24.2829 126.031 24.219C125.455 24.155 124.826 23.995 124.144 23.7391C123.461 23.4831 122.96 23.1099 122.64 22.6193C122.277 22.0861 122.096 21.4675 122.096 20.7637Z" fill="black"/>
<path d="M138.797 10.8137C138.797 10.3018 138.999 9.85394 139.405 9.47002C139.81 9.0861 140.279 8.88348 140.812 8.86215C141.196 8.86215 141.516 8.99012 141.772 9.24607C142.028 9.50202 142.167 9.82195 142.188 10.2059C142.188 10.6964 141.975 11.1443 141.548 11.5496C141.122 11.9548 140.652 12.1681 140.14 12.1895C139.82 12.1895 139.522 12.0828 139.245 11.8695C138.967 11.6562 138.818 11.3043 138.797 10.8137ZM133.582 20.8277C133.582 20.657 133.678 20.3264 133.87 19.8359C134.062 19.3453 134.318 18.8014 134.638 18.2042C134.958 17.607 135.427 17.0631 136.045 16.5725C136.664 16.082 137.304 15.8474 137.965 15.8687C138.797 15.8687 139.49 16.114 140.044 16.6045C140.599 17.0951 140.887 17.7563 140.908 18.5881C140.908 18.9507 140.759 19.5479 140.46 20.3798C140.162 21.2116 139.735 22.3313 139.181 23.7391C138.626 25.1468 138.178 26.3518 137.837 27.3543C137.73 27.8235 137.677 28.1648 137.677 28.3781C137.677 28.9113 137.858 29.1779 138.221 29.1779C138.413 29.1779 138.615 29.1459 138.829 29.0819C139.042 29.018 139.287 28.8687 139.565 28.634C139.842 28.3994 140.13 28.0262 140.428 27.5143C140.727 27.0024 140.994 26.3732 141.228 25.6267C141.292 25.3707 141.346 25.2214 141.388 25.1788C141.431 25.1361 141.612 25.1148 141.932 25.1148C142.359 25.1148 142.572 25.2214 142.572 25.4347C142.572 25.6053 142.476 25.9359 142.284 26.4265C142.092 26.9171 141.825 27.4609 141.484 28.0582C141.143 28.6554 140.663 29.1886 140.044 29.6578C139.426 30.1271 138.765 30.3617 138.061 30.3617C137.378 30.3617 136.749 30.1377 136.173 29.6898C135.597 29.2419 135.299 28.5594 135.277 27.6422C135.277 27.2797 135.331 26.9384 135.437 26.6185C135.544 26.2985 136.003 25.0828 136.813 22.9712C137.624 20.817 138.093 19.5266 138.221 19.1C138.349 18.6734 138.423 18.2575 138.445 17.8523C138.445 17.3404 138.263 17.0844 137.901 17.0844H137.837C137.197 17.0844 136.61 17.4364 136.077 18.1402C135.544 18.8441 135.139 19.7399 134.862 20.8277C134.84 20.849 134.819 20.881 134.798 20.9236C134.776 20.9663 134.766 20.9983 134.766 21.0196C134.766 21.041 134.744 21.0623 134.702 21.0836C134.659 21.1049 134.627 21.1156 134.606 21.1156C134.584 21.1156 134.542 21.1156 134.478 21.1156C134.414 21.1156 134.328 21.1156 134.222 21.1156H133.774C133.646 20.9876 133.582 20.8916 133.582 20.8277Z" fill="black"/>
<path d="M144.62 20.8277C144.641 20.6997 144.673 20.5291 144.715 20.3158C144.758 20.1025 144.886 19.6972 145.099 19.1C145.313 18.5028 145.526 18.0016 145.739 17.5963C145.953 17.1911 146.304 16.7965 146.795 16.4126C147.286 16.0287 147.776 15.8474 148.267 15.8687C149.035 15.8687 149.674 16.0607 150.186 16.4446C150.698 16.8285 151.018 17.1911 151.146 17.5323C151.274 17.8736 151.338 18.0976 151.338 18.2042C151.338 18.2469 151.349 18.2682 151.37 18.2682L151.722 17.9163C153.023 16.5512 154.505 15.8687 156.169 15.8687C157.321 15.8687 158.249 16.1566 158.953 16.7325C159.656 17.3084 160.019 18.1509 160.04 19.26C160.062 20.3691 159.656 22.0434 158.825 24.2829C157.993 26.5225 157.587 27.8769 157.609 28.3461C157.609 28.9006 157.79 29.1779 158.153 29.1779C158.281 29.1779 158.377 29.1673 158.441 29.1459C159.059 29.0393 159.614 28.634 160.104 27.9302C160.595 27.2263 160.968 26.3732 161.224 25.3707C161.267 25.2001 161.48 25.1148 161.864 25.1148C162.29 25.1148 162.504 25.2001 162.504 25.3707C162.504 25.392 162.461 25.552 162.376 25.8506C162.205 26.4692 161.971 27.077 161.672 27.6742C161.373 28.2714 160.883 28.8687 160.2 29.4659C159.518 30.0631 158.782 30.351 157.993 30.3297C156.99 30.3297 156.265 30.0417 155.817 29.4659C155.369 28.89 155.145 28.2928 155.145 27.6742C155.145 27.269 155.529 25.9893 156.297 23.835C157.065 21.6808 157.46 20.0598 157.481 18.972C157.481 17.7136 157.012 17.0844 156.073 17.0844H155.913C154.079 17.0844 152.533 18.1616 151.274 20.3158L151.05 20.6997L149.994 24.9868C149.291 27.7809 148.885 29.2846 148.779 29.4979C148.501 30.0737 148.043 30.3617 147.403 30.3617C147.126 30.3617 146.902 30.2977 146.731 30.1697C146.56 30.0417 146.443 29.9138 146.379 29.7858C146.315 29.6578 146.294 29.5512 146.315 29.4659C146.315 29.1886 146.72 27.4503 147.531 24.251C148.341 21.0516 148.768 19.3133 148.811 19.036C148.832 18.9294 148.843 18.6841 148.843 18.3002C148.843 17.4684 148.587 17.0524 148.075 17.0524C147.264 17.0524 146.592 18.1189 146.059 20.2518C145.931 20.6784 145.867 20.9023 145.867 20.9236C145.825 21.0516 145.622 21.1156 145.259 21.1156H144.811C144.683 20.9876 144.62 20.8916 144.62 20.8277Z" fill="black"/>
<path d="M166.151 22.0114C166.151 20.5397 166.258 19.1427 166.471 17.8203C166.684 16.4979 166.93 15.3568 167.207 14.397C167.484 13.4372 167.879 12.4987 168.391 11.5816C168.902 10.6644 169.308 9.94992 169.606 9.43803C169.905 8.92614 170.353 8.37159 170.95 7.77438C171.547 7.17717 171.899 6.81458 172.006 6.6866C172.112 6.55863 172.379 6.33468 172.806 6.01474H173.222H173.35C173.648 6.01474 173.797 6.11072 173.797 6.30268C173.797 6.36667 173.616 6.59062 173.254 6.97454C172.891 7.35846 172.454 7.92368 171.942 8.67019C171.43 9.4167 170.907 10.3338 170.374 11.4216C169.841 12.5094 169.393 13.9811 169.03 15.8367C168.668 17.6923 168.487 19.7506 168.487 22.0114C168.487 24.2723 168.668 26.3199 169.03 28.1541C169.393 29.9884 169.83 31.4708 170.342 32.6012C170.854 33.7316 171.377 34.6488 171.91 35.3526C172.443 36.0565 172.891 36.6217 173.254 37.0483C173.616 37.4749 173.797 37.6988 173.797 37.7201C173.797 37.9121 173.638 38.0081 173.318 38.0081H173.222H172.806L171.91 37.2402C169.905 35.4273 168.444 33.1664 167.527 30.4577C166.61 27.7489 166.151 24.9335 166.151 22.0114Z" fill="black"/>
<path d="M176.709 23.6111C176.709 21.4355 177.125 19.1427 177.957 16.7325C178.788 14.3224 179.919 12.2428 181.348 10.4938C182.777 8.74484 184.259 7.74239 185.795 7.48644C185.816 7.48644 185.902 7.48644 186.051 7.48644C186.2 7.48644 186.328 7.47577 186.435 7.45445C187.587 7.53976 188.482 8.06232 189.122 9.02212C189.954 10.3019 190.37 12.0188 190.37 14.173C190.37 16.6259 189.89 19.1214 188.93 21.6595C187.971 24.1976 186.744 26.2772 185.251 27.8982C183.758 29.5192 182.329 30.3297 180.964 30.3297H180.74C179.972 30.3297 179.311 30.1164 178.756 29.6898C178.202 29.2632 177.786 28.698 177.509 27.9942C177.231 27.2903 177.029 26.5758 176.901 25.8506C176.773 25.1254 176.709 24.3789 176.709 23.6111ZM187.843 11.9015C187.843 9.72597 187.277 8.6382 186.147 8.6382C185.379 8.6382 184.633 9.1181 183.907 10.0779C183.182 11.0377 182.585 12.1255 182.116 13.3412C181.647 14.557 181.284 15.6234 181.028 16.5406C180.772 17.4577 180.633 17.9909 180.612 18.1402C181.657 18.1616 182.692 18.1722 183.715 18.1722L186.819 18.1402C186.84 18.1189 186.925 17.767 187.075 17.0844C187.224 16.4019 187.395 15.5488 187.587 14.525C187.779 13.5012 187.864 12.6267 187.843 11.9015ZM179.204 25.7866C179.204 28.0475 179.77 29.1779 180.9 29.1779C181.22 29.1779 181.561 29.0713 181.924 28.858C182.286 28.6447 182.724 28.2395 183.236 27.6422C183.747 27.045 184.259 26.1172 184.771 24.8588C185.283 23.6004 185.795 22.0434 186.307 20.1878L186.467 19.6439H180.228C180.228 19.7079 180.132 20.1131 179.94 20.8597C179.748 21.6062 179.578 22.438 179.428 23.3551C179.279 24.2723 179.204 25.0828 179.204 25.7866Z" fill="black"/>
<path d="M192.514 6.04674L192.642 6.01474C192.748 6.01474 192.855 6.01474 192.961 6.01474H193.345L194.241 6.78258C196.246 8.59554 197.707 10.8564 198.624 13.5652C199.541 16.2739 200 19.0894 200 22.0114C200 23.4618 199.893 24.8588 199.68 26.2025C199.467 27.5463 199.221 28.6874 198.944 29.6258C198.667 30.5643 198.272 31.5028 197.76 32.4412C197.249 33.3797 196.843 34.0942 196.545 34.5848C196.246 35.0754 195.809 35.6193 195.233 36.2165C194.657 36.8137 194.316 37.1656 194.209 37.2722C194.103 37.3789 193.857 37.5815 193.473 37.8801C193.409 37.9441 193.367 37.9868 193.345 38.0081H192.961C192.791 38.0081 192.674 38.0081 192.61 38.0081C192.546 38.0081 192.492 37.9761 192.45 37.9121C192.407 37.8481 192.375 37.7521 192.354 37.6242C192.375 37.6028 192.492 37.4642 192.706 37.2083C196.011 33.7743 197.664 28.7087 197.664 22.0114C197.664 15.3141 196.011 10.2485 192.706 6.81458C192.492 6.55863 192.375 6.41999 192.354 6.39866C192.354 6.22803 192.407 6.11072 192.514 6.04674Z" fill="black"/>
</svg>
