<svg width="202" height="42" viewBox="0 0 202 42" fill="none" xmlns="http://www.w3.org/2000/svg">
<rect x="117" y="1" width="85" height="41" rx="4" fill="#EF224B" fill-opacity="0.65"/>
<path d="M0.546246 30.1078C0.182082 30.1078 0 30.0007 0 29.7865C0 29.7437 0.0321321 29.5937 0.0963964 29.3367C0.182082 28.9939 0.267768 28.8011 0.353453 28.7583C0.439139 28.7154 0.685485 28.6833 1.09249 28.6619C1.67087 28.6619 2.31351 28.6297 3.02042 28.5655C3.32032 28.5012 3.52382 28.3727 3.63093 28.1799C3.67377 28.0728 4.43423 25.0631 5.91231 19.1508C7.39039 13.2385 8.14014 10.2395 8.16156 10.1538C8.16156 10.0038 8.11872 9.92885 8.03303 9.92885C7.86166 9.86458 7.29399 9.81103 6.33003 9.76819H5.33393C5.2054 9.63966 5.14114 9.55397 5.14114 9.51113C5.14114 9.46829 5.16256 9.2862 5.2054 8.96488C5.29109 8.60072 5.3982 8.37579 5.52673 8.29011H22.8459C22.9959 8.37579 23.0709 8.49361 23.0709 8.64356C23.0709 8.75067 22.9316 9.95027 22.6531 12.2424C22.3747 14.5345 22.2247 15.7126 22.2033 15.7769C22.1605 15.9268 21.9462 16.0018 21.5607 16.0018H21.1751C21.0251 15.8947 20.9501 15.7555 20.9501 15.5841C20.9501 15.5627 20.9823 15.3056 21.0465 14.8129C21.1108 14.3202 21.1429 13.7526 21.1429 13.1099C21.1429 12.4673 21.068 11.9425 20.918 11.5355C20.7681 11.1284 20.5646 10.7964 20.3075 10.5394C20.0504 10.2823 19.6542 10.1109 19.1186 10.0252C18.5831 9.93956 18.0368 9.86458 17.4799 9.80032C16.9229 9.73605 16.1517 9.72534 15.1664 9.76819H14.4273C12.6708 9.78961 11.7389 9.82174 11.6318 9.86458C11.5247 9.90742 11.4497 9.99311 11.4069 10.1216C11.3855 10.1431 11.0213 11.5462 10.3144 14.3309L9.28618 18.476H11.0535C11.1177 18.476 11.3641 18.476 11.7925 18.476C12.2209 18.476 12.5208 18.4653 12.6922 18.4439C12.8636 18.4224 13.0992 18.3903 13.3991 18.3475C13.699 18.3046 13.9561 18.2296 14.1703 18.1225C14.3845 18.0154 14.5666 17.8869 14.7165 17.737C14.995 17.4799 15.2306 17.1264 15.4234 16.6766C15.6162 16.2267 15.7555 15.8197 15.8411 15.4556C15.9268 15.0914 15.9804 14.8986 16.0018 14.8772C16.0661 14.7701 16.2696 14.7165 16.6123 14.7165H16.9979C17.1478 14.8236 17.2228 14.9307 17.2228 15.0379C17.2228 15.1021 16.8908 16.5052 16.2267 19.2472C15.5627 21.9891 15.1985 23.4029 15.1342 23.4886C15.0914 23.6386 14.8772 23.7135 14.4916 23.7135H14.106C13.9561 23.585 13.8811 23.4565 13.8811 23.3279C13.8811 23.2637 13.9346 23.028 14.0417 22.621C14.1488 22.214 14.2024 21.7856 14.2024 21.3358C14.2024 20.7145 13.9882 20.3289 13.5598 20.179C13.1313 20.029 12.1781 19.9541 10.7 19.9541H8.93273L7.9045 24.0348C7.21902 26.6911 6.87628 28.0835 6.87628 28.212C6.87628 28.5119 7.82953 28.6619 9.73603 28.6619H10.5393C10.6679 28.7904 10.7321 28.8654 10.7321 28.8868C10.7321 28.9082 10.7107 29.1224 10.6679 29.5294C10.5822 29.8079 10.4751 30.0114 10.3465 30.14H9.8003C8.92202 30.0971 7.3047 30.0757 4.94835 30.0757C3.55596 30.0757 2.4956 30.0757 1.76727 30.0757C1.03894 30.0757 0.631932 30.0864 0.546246 30.1078Z" fill="black"/>
<path d="M20.1419 28.4399C20.1419 28.2278 20.2555 27.8643 20.4827 27.3494C20.7099 26.8345 21.0733 26.2968 21.5731 25.7365C22.0729 25.1761 22.6333 24.9035 23.2542 24.9187C23.8752 24.9187 24.3749 25.0928 24.7536 25.4412C25.1322 25.7895 25.3291 26.2741 25.3442 26.8951C25.3139 27.1828 25.2912 27.3418 25.2761 27.3721C25.2761 27.4176 25.1549 27.7659 24.9126 28.4171C24.6703 29.0684 24.4204 29.8029 24.1629 30.6207C23.9054 31.4386 23.7843 32.0898 23.7994 32.5744C23.7994 33.2257 23.9054 33.68 24.1175 33.9375C24.3295 34.1949 24.6475 34.3312 25.0716 34.3464C25.4199 34.3464 25.7456 34.2631 26.0484 34.0965C26.3513 33.9299 26.5861 33.7557 26.7527 33.574C26.9193 33.3922 27.1237 33.1424 27.3661 32.8243C27.3661 32.8092 27.4039 32.6577 27.4796 32.37C27.5554 32.0822 27.6614 31.6354 27.7977 31.0296C27.934 30.4238 28.0779 29.8635 28.2293 29.3485C28.8048 27.0768 29.1229 25.8879 29.1835 25.7819C29.3803 25.373 29.706 25.1685 30.1603 25.1685C30.3572 25.1685 30.5162 25.2216 30.6374 25.3276C30.7585 25.4336 30.8418 25.5245 30.8873 25.6002C30.9327 25.6759 30.9478 25.7441 30.9327 25.8046C30.9327 26.0015 30.5616 27.5917 29.8195 30.5753C29.0774 33.5588 28.6534 35.1945 28.5474 35.4823C28.1233 36.7393 27.3888 37.7388 26.3438 38.481C25.2988 39.2231 24.2538 39.6017 23.2088 39.6168C22.5273 39.6168 21.929 39.4502 21.4141 39.117C20.8992 38.7838 20.6417 38.2841 20.6417 37.6177C20.6417 37.2845 20.6947 37.0043 20.8007 36.7771C20.9067 36.55 21.0506 36.3834 21.2324 36.2774C21.4141 36.1713 21.5655 36.0956 21.6867 36.0502C21.8079 36.0048 21.9366 35.982 22.0729 35.982C22.7393 35.982 23.0725 36.3001 23.0725 36.9362C23.0725 37.2391 22.9816 37.5041 22.7999 37.7313C22.6181 37.9585 22.444 38.1099 22.2774 38.1856C22.1108 38.2613 22.0123 38.2992 21.982 38.2992L21.9139 38.3219C21.9442 38.3977 22.088 38.4885 22.3455 38.5945C22.603 38.7006 22.8604 38.7536 23.1179 38.7536H23.2996C23.5571 38.7536 23.754 38.7384 23.8903 38.7081C24.3901 38.5718 24.852 38.2841 25.2761 37.8449C25.7001 37.4057 26.0257 36.9362 26.2529 36.4364C26.4801 35.9366 26.6542 35.5125 26.7754 35.1642C26.8966 34.8159 26.9571 34.5887 26.9571 34.4827L26.8208 34.5736C26.73 34.6341 26.5861 34.7174 26.3892 34.8234C26.1923 34.9295 25.9954 35.0203 25.7986 35.0961C25.4957 35.1718 25.2003 35.2096 24.9126 35.2096C24.2159 35.2096 23.6025 35.043 23.0725 34.7099C22.5424 34.3767 22.1941 33.839 22.0275 33.0969C22.0123 32.9909 22.0047 32.7562 22.0047 32.3927C22.0047 31.5294 22.2698 30.4011 22.7999 29.0078C23.3299 27.6145 23.595 26.7285 23.595 26.3499C23.595 26.3347 23.595 26.3196 23.595 26.3044C23.595 26.1681 23.595 26.0772 23.595 26.0318C23.595 25.9864 23.5647 25.9334 23.5041 25.8728C23.4435 25.8122 23.3602 25.7819 23.2542 25.7819H23.1633C22.815 25.7819 22.497 25.9258 22.2092 26.2135C21.9215 26.5013 21.6943 26.8118 21.5277 27.145C21.3611 27.4781 21.2324 27.7962 21.1415 28.0991C21.0506 28.402 20.99 28.5686 20.9597 28.5989C20.9295 28.6292 20.8083 28.6443 20.5963 28.6443H20.2782C20.1874 28.5534 20.1419 28.4853 20.1419 28.4399Z" fill="black"/>
<path d="M43.131 18.9901C43.131 18.7116 43.2809 18.4974 43.5808 18.3474H64.049C64.3703 18.5188 64.5309 18.733 64.5309 18.9901C64.5309 19.2257 64.381 19.4292 64.0811 19.6006L53.8631 19.6327H43.6451C43.3023 19.5256 43.131 19.3114 43.131 18.9901ZM43.131 25.2237C43.131 24.9024 43.3023 24.6882 43.6451 24.581H64.0811C64.381 24.7953 64.5309 25.0095 64.5309 25.2237C64.5309 25.5022 64.3703 25.7164 64.049 25.8663H43.5808C43.2809 25.7164 43.131 25.5022 43.131 25.2237Z" fill="black"/>
<path d="M79.7198 38.1408H79.6555C79.3985 38.1408 79.2057 37.9909 79.0771 37.691V22.0747L79.1093 6.45853C79.3235 6.18005 79.527 6.04081 79.7198 6.04081C79.9983 6.04081 80.2125 6.20147 80.3624 6.5228V37.691C80.1911 37.9909 79.9983 38.1408 79.7841 38.1408H79.7198Z" fill="black"/>
<path d="M85.7285 30.1078C85.3643 30.1078 85.1823 30.0007 85.1823 29.7865C85.1823 29.7437 85.2144 29.5937 85.2786 29.3367C85.3643 28.9939 85.45 28.8011 85.5357 28.7583C85.6214 28.7154 85.8677 28.6833 86.2747 28.6619C86.8531 28.6619 87.4958 28.6297 88.2027 28.5655C88.5026 28.5012 88.7061 28.3727 88.8132 28.1799C88.856 28.0728 89.6165 25.0631 91.0946 19.1508C92.5726 13.2385 93.3224 10.2395 93.3438 10.1538C93.3438 10.0038 93.301 9.92885 93.2153 9.92885C93.0439 9.86458 92.4762 9.81103 91.5123 9.76819H90.5162C90.3877 9.63966 90.3234 9.55397 90.3234 9.51113C90.3234 9.46829 90.3448 9.2862 90.3877 8.96488C90.4733 8.60072 90.5804 8.37579 90.709 8.29011H108.028C108.178 8.37579 108.253 8.49361 108.253 8.64356C108.253 8.75067 108.114 9.95027 107.835 12.2424C107.557 14.5345 107.407 15.7126 107.386 15.7769C107.343 15.9268 107.128 16.0018 106.743 16.0018H106.357C106.207 15.8947 106.132 15.7555 106.132 15.5841C106.132 15.5627 106.165 15.3056 106.229 14.8129C106.293 14.3202 106.325 13.7526 106.325 13.1099C106.325 12.4673 106.25 11.9425 106.1 11.5355C105.95 11.1284 105.747 10.7964 105.49 10.5394C105.233 10.2823 104.836 10.1109 104.301 10.0252C103.765 9.93956 103.219 9.86458 102.662 9.80032C102.105 9.73605 101.334 9.72534 100.349 9.76819H99.6096C97.853 9.78961 96.9212 9.82174 96.8141 9.86458C96.707 9.90742 96.632 9.99311 96.5892 10.1216C96.5677 10.1431 96.2036 11.5462 95.4967 14.3309L94.4684 18.476H96.2357C96.3 18.476 96.5463 18.476 96.9747 18.476C97.4032 18.476 97.7031 18.4653 97.8744 18.4439C98.0458 18.4224 98.2814 18.3903 98.5813 18.3475C98.8812 18.3046 99.1383 18.2296 99.3525 18.1225C99.5667 18.0154 99.7488 17.8869 99.8988 17.737C100.177 17.4799 100.413 17.1264 100.606 16.6766C100.798 16.2267 100.938 15.8197 101.023 15.4556C101.109 15.0914 101.163 14.8986 101.184 14.8772C101.248 14.7701 101.452 14.7165 101.795 14.7165H102.18C102.33 14.8236 102.405 14.9307 102.405 15.0379C102.405 15.1021 102.073 16.5052 101.409 19.2472C100.745 21.9891 100.381 23.4029 100.316 23.4886C100.274 23.6386 100.059 23.7135 99.6738 23.7135H99.2883C99.1383 23.585 99.0633 23.4565 99.0633 23.3279C99.0633 23.2637 99.1169 23.028 99.224 22.621C99.3311 22.214 99.3847 21.7856 99.3847 21.3358C99.3847 20.7145 99.1704 20.3289 98.742 20.179C98.3136 20.029 97.3603 19.9541 95.8822 19.9541H94.115L93.0868 24.0348C92.4013 26.6911 92.0585 28.0835 92.0585 28.212C92.0585 28.5119 93.0118 28.6619 94.9183 28.6619H95.7216C95.8501 28.7904 95.9144 28.8654 95.9144 28.8868C95.9144 28.9082 95.893 29.1224 95.8501 29.5294C95.7644 29.8079 95.6573 30.0114 95.5288 30.14H94.9825C94.1043 30.0971 92.487 30.0757 90.1306 30.0757C88.7382 30.0757 87.6778 30.0757 86.9495 30.0757C86.2212 30.0757 85.8142 30.0864 85.7285 30.1078Z" fill="black"/>
<path d="M105.532 0.642664C105.532 0.471293 105.585 0.321343 105.692 0.192814C105.799 0.0642858 105.96 2.15918e-05 106.174 2.15918e-05C106.324 2.15918e-05 106.453 0.0535751 106.56 0.160682C106.667 0.246368 106.774 0.449871 106.881 0.771193C107.095 1.56379 107.534 2.1743 108.198 2.60272C108.434 2.75267 108.552 2.94547 108.552 3.1811C108.552 3.37389 108.52 3.50242 108.456 3.56669C108.391 3.63095 108.241 3.72735 108.006 3.85588C107.085 4.32715 106.281 5.00192 105.596 5.8802C105.553 5.92304 105.499 5.98731 105.435 6.07299C105.371 6.15868 105.317 6.22294 105.274 6.26579C105.232 6.30863 105.178 6.33005 105.114 6.33005C105.05 6.33005 104.975 6.34076 104.889 6.36218C104.739 6.36218 104.6 6.30863 104.471 6.20152C104.343 6.09441 104.268 5.93375 104.246 5.71954C104.246 5.31253 104.75 4.6806 105.756 3.82374H100.262L94.7673 3.79161C94.4888 3.59882 94.3495 3.39532 94.3495 3.1811C94.3495 3.03115 94.4888 2.81694 94.7673 2.53846H106.303C105.789 1.72445 105.532 1.09251 105.532 0.642664Z" fill="black"/>
<path d="M113.95 38.1408H113.886C113.629 38.1408 113.436 37.9909 113.308 37.691V22.0747L113.34 6.45853C113.554 6.18005 113.757 6.04081 113.95 6.04081C114.229 6.04081 114.443 6.20147 114.593 6.5228V37.691C114.421 37.9909 114.229 38.1408 114.014 38.1408H113.95Z" fill="black"/>
<path d="M119.509 25.0309C119.509 22.696 120.43 20.5967 122.272 18.733C124.115 16.8694 126.107 15.9375 128.249 15.9375C129.449 15.9375 130.391 16.1946 131.077 16.7087C131.762 17.2228 132.116 17.8976 132.137 18.733C132.137 19.3542 131.933 19.8791 131.526 20.3075C131.119 20.7359 130.605 20.9609 129.984 20.9823C129.577 20.9823 129.256 20.8752 129.02 20.661C128.785 20.4467 128.667 20.1254 128.667 19.697C128.667 19.2686 128.785 18.9044 129.02 18.6045C129.256 18.3046 129.491 18.0797 129.727 17.9297C129.963 17.7798 130.113 17.7155 130.177 17.7369H130.209C130.209 17.6941 130.145 17.6298 130.016 17.5441C129.888 17.4585 129.663 17.3728 129.341 17.2871C129.02 17.2014 128.656 17.1586 128.249 17.1586C127.606 17.1586 126.996 17.3085 126.417 17.6084C125.968 17.8012 125.507 18.1332 125.036 18.6045C124.093 19.547 123.408 20.8752 122.979 22.5889C122.551 24.3026 122.326 25.545 122.305 26.3162C122.305 27.3016 122.583 28.0406 123.14 28.5333C123.611 29.0474 124.232 29.3045 125.004 29.3045H125.132C127.531 29.3045 129.513 28.3941 131.077 26.5733C131.269 26.3591 131.398 26.2519 131.462 26.2519C131.548 26.2519 131.687 26.3483 131.88 26.5411C132.073 26.7339 132.18 26.8839 132.201 26.991C132.223 27.0981 132.126 27.2588 131.912 27.473C131.698 27.6872 131.387 27.9871 130.98 28.3727C130.573 28.7582 130.091 29.0796 129.534 29.3366C128.977 29.5937 128.292 29.8615 127.478 30.1399C126.664 30.4184 125.807 30.5362 124.907 30.4934C123.301 30.4934 122.005 29.9793 121.019 28.951C120.034 27.9228 119.53 26.6161 119.509 25.0309Z" fill="black"/>
<path d="M138.788 30.4934C137.182 30.4934 135.886 29.9686 134.9 28.9189C133.915 27.8693 133.422 26.6054 133.422 25.1273C133.422 23.735 133.744 22.4175 134.386 21.1751C135.029 19.9326 135.907 18.8509 137.021 17.9297C138.649 16.623 140.309 15.9697 142.002 15.9697C142.687 15.9697 143.115 15.9804 143.287 16.0018C143.565 16.0661 143.844 16.1411 144.122 16.2267C144.401 16.3124 144.776 16.4838 145.247 16.7409C145.718 16.9979 146.104 17.3192 146.404 17.7048C146.704 18.0904 146.982 18.6152 147.239 19.2793C147.496 19.9434 147.625 20.6931 147.625 21.5285C147.625 23.8206 146.704 25.8878 144.861 27.73C143.019 29.5723 140.995 30.4934 138.788 30.4934ZM136.218 26.2841C136.218 27.3552 136.496 28.1263 137.053 28.5976C137.61 29.0689 138.242 29.3045 138.949 29.3045C139.892 29.3045 140.78 28.9618 141.616 28.2763C142.451 27.5908 143.115 26.6911 143.608 25.5772C143.801 25.1273 144.047 24.3348 144.347 23.1994C144.647 22.0641 144.797 21.0787 144.797 20.2433C144.797 19.3007 144.604 18.5831 144.219 18.0904C143.705 17.4478 143.019 17.1264 142.162 17.1264C140.813 17.1264 139.624 17.7477 138.596 18.9901C137.803 19.9326 137.214 21.1858 136.828 22.7496C136.443 24.3133 136.239 25.4915 136.218 26.2841Z" fill="black"/>
<path d="M152.123 20.8537C152.123 20.1683 152.294 19.4721 152.637 18.7651C152.98 18.0582 153.58 17.4049 154.437 16.8051C155.293 16.2053 156.332 15.9161 157.553 15.9375C158.882 15.9375 159.846 16.2267 160.445 16.8051C161.045 17.3835 161.356 18.0261 161.377 18.733C161.377 19.4185 161.195 19.9219 160.831 20.2432C160.467 20.5645 160.06 20.7359 159.61 20.7573C159.331 20.7573 159.074 20.6717 158.839 20.5003C158.603 20.3289 158.475 20.0504 158.453 19.6648C158.453 19.3221 158.55 19.0222 158.742 18.7651C158.935 18.5081 159.117 18.3153 159.289 18.1868C159.46 18.0582 159.599 17.994 159.706 17.994C159.728 17.994 159.738 17.9833 159.738 17.9618C159.738 17.8976 159.663 17.8012 159.514 17.6727C159.364 17.5441 159.096 17.4263 158.71 17.3192C158.325 17.2121 157.907 17.1478 157.457 17.1264C156.429 17.1264 155.679 17.4049 155.208 17.9618C154.737 18.5188 154.49 19.0865 154.469 19.6648C154.469 20.2004 154.672 20.5753 155.079 20.7895C155.486 21.0037 156.075 21.1858 156.847 21.3357C157.618 21.4857 158.175 21.6463 158.517 21.8177C159.931 22.4389 160.638 23.4671 160.638 24.9024C160.638 25.5022 160.52 26.102 160.285 26.7018C160.049 27.3016 159.696 27.9014 159.224 28.5012C158.753 29.101 158.078 29.5723 157.2 29.915C156.322 30.2577 155.315 30.4398 154.18 30.4612C152.53 30.4612 151.363 30.1506 150.677 29.5294C149.992 28.9082 149.638 28.1799 149.617 27.3444C149.617 26.509 149.842 25.9092 150.292 25.545C150.741 25.1809 151.213 24.9988 151.705 24.9988C152.027 24.9988 152.327 25.0952 152.605 25.288C152.884 25.4808 153.034 25.8128 153.055 26.2841C153.055 26.841 152.862 27.3123 152.477 27.6979C152.091 28.0835 151.759 28.2763 151.48 28.2763C151.438 28.2977 151.406 28.3084 151.384 28.3084C151.363 28.3084 151.352 28.3298 151.352 28.3727C151.373 28.4369 151.459 28.5226 151.609 28.6297C151.759 28.7368 152.091 28.8761 152.605 29.0474C153.119 29.2188 153.708 29.2938 154.372 29.2724C155.144 29.2724 155.808 29.1545 156.365 28.9189C156.922 28.6833 157.329 28.3834 157.586 28.0192C157.843 27.655 158.025 27.323 158.132 27.0231C158.239 26.7232 158.292 26.4554 158.292 26.2198C158.292 25.62 158.068 25.1702 157.618 24.8703C157.168 24.5704 156.654 24.3883 156.075 24.324C155.497 24.2597 154.865 24.0991 154.18 23.842C153.494 23.585 152.991 23.2101 152.669 22.7174C152.305 22.1819 152.123 21.5606 152.123 20.8537Z" fill="black"/>
<path d="M166.004 22.1069C166.004 20.6288 166.111 19.2257 166.326 17.8976C166.54 16.5695 166.786 15.4234 167.065 14.4595C167.343 13.4955 167.739 12.553 168.253 11.6318C168.768 10.7107 169.175 9.9931 169.474 9.47898C169.774 8.96487 170.224 8.40791 170.824 7.80811C171.424 7.20831 171.777 6.84415 171.884 6.71562C171.991 6.58709 172.259 6.36217 172.688 6.04085H173.105H173.234C173.534 6.04085 173.684 6.13724 173.684 6.33004C173.684 6.3943 173.502 6.61923 173.138 7.00481C172.773 7.3904 172.334 7.95806 171.82 8.70781C171.306 9.45756 170.781 10.3787 170.246 11.4712C169.71 12.5637 169.26 14.0417 168.896 15.9054C168.532 17.7691 168.35 19.8362 168.35 22.1069C168.35 24.3776 168.532 26.434 168.896 28.2763C169.26 30.1185 169.699 31.6073 170.214 32.7426C170.728 33.878 171.252 34.7991 171.788 35.506C172.324 36.2129 172.773 36.7806 173.138 37.209C173.502 37.6374 173.684 37.8624 173.684 37.8838C173.684 38.0766 173.523 38.173 173.202 38.173H173.105H172.688L171.788 37.4018C169.774 35.581 168.307 33.3103 167.386 30.5898C166.465 27.8693 166.004 25.0416 166.004 22.1069Z" fill="black"/>
<path d="M176.608 23.7135C176.608 21.5285 177.026 19.2257 177.861 16.8051C178.696 14.3845 179.832 12.2959 181.267 10.5393C182.702 8.78277 184.191 7.77596 185.733 7.5189C185.755 7.5189 185.84 7.5189 185.99 7.5189C186.14 7.5189 186.269 7.50819 186.376 7.48677C187.533 7.57246 188.432 8.09728 189.075 9.06125C189.91 10.3465 190.328 12.071 190.328 14.2345C190.328 16.698 189.846 19.2043 188.882 21.7534C187.918 24.3026 186.687 26.3912 185.187 28.0192C183.688 29.6472 182.252 30.4612 180.881 30.4612H180.656C179.885 30.4612 179.221 30.247 178.664 29.8186C178.107 29.3902 177.69 28.8225 177.411 28.1156C177.133 27.4087 176.929 26.6911 176.801 25.9627C176.672 25.2344 176.608 24.4847 176.608 23.7135ZM187.79 11.9531C187.79 9.76815 187.222 8.67566 186.087 8.67566C185.316 8.67566 184.566 9.15764 183.838 10.1216C183.109 11.0856 182.509 12.1781 182.038 13.3991C181.567 14.6201 181.203 15.6912 180.946 16.6123C180.689 17.5334 180.549 18.069 180.528 18.2189C181.578 18.2403 182.616 18.251 183.645 18.251L186.762 18.2189C186.783 18.1975 186.869 17.844 187.019 17.1585C187.169 16.4731 187.34 15.6162 187.533 14.588C187.726 13.5597 187.811 12.6815 187.79 11.9531ZM179.114 25.8985C179.114 28.1692 179.682 29.3045 180.817 29.3045C181.138 29.3045 181.481 29.1974 181.845 28.9832C182.209 28.769 182.649 28.3619 183.163 27.7621C183.677 27.1623 184.191 26.2305 184.705 24.9666C185.219 23.7028 185.733 22.139 186.247 20.2754L186.408 19.7291H180.142C180.142 19.7934 180.046 20.2004 179.853 20.9501C179.66 21.6999 179.489 22.5353 179.339 23.4564C179.189 24.3776 179.114 25.1916 179.114 25.8985Z" fill="black"/>
<path d="M192.481 6.07298L192.61 6.04085C192.717 6.04085 192.824 6.04085 192.931 6.04085H193.317L194.216 6.81202C196.23 8.63284 197.697 10.9035 198.618 13.624C199.539 16.3445 200 19.1722 200 22.1069C200 23.5636 199.893 24.9667 199.679 26.3162C199.464 27.6658 199.218 28.8118 198.94 29.7544C198.661 30.6969 198.265 31.6394 197.751 32.582C197.237 33.5245 196.83 34.2421 196.53 34.7348C196.23 35.2275 195.791 35.7738 195.212 36.3736C194.634 36.9734 194.291 37.3268 194.184 37.4339C194.077 37.541 193.831 37.7445 193.445 38.0444C193.381 38.1087 193.338 38.1516 193.317 38.173H192.931C192.76 38.173 192.642 38.173 192.577 38.173C192.513 38.173 192.46 38.1408 192.417 38.0766C192.374 38.0123 192.342 37.9159 192.32 37.7874C192.342 37.766 192.46 37.6267 192.674 37.3697C195.994 33.9208 197.654 28.8332 197.654 22.1069C197.654 15.3806 195.994 10.293 192.674 6.84415C192.46 6.58709 192.342 6.44785 192.32 6.42643C192.32 6.25506 192.374 6.13724 192.481 6.07298Z" fill="black"/>
</svg>
