<svg width="1080" height="906" viewBox="0 0 1080 906" fill="none" xmlns="http://www.w3.org/2000/svg">
<path d="M1002.12 584.121C1003.29 582.95 1003.29 581.05 1002.12 579.879L983.029 560.787C981.858 559.615 979.958 559.615 978.787 560.787C977.615 561.958 977.615 563.858 978.787 565.029L995.757 582L978.787 598.971C977.615 600.142 977.615 602.042 978.787 603.213C979.958 604.385 981.858 604.385 983.029 603.213L1002.12 584.121ZM0 585H1000V579H0V585Z" fill="black"/>
<path d="M502.121 79.8787C500.95 78.7071 499.05 78.7071 497.879 79.8787L478.787 98.9706C477.615 100.142 477.615 102.042 478.787 103.213C479.958 104.385 481.858 104.385 483.029 103.213L500 86.2426L516.971 103.213C518.142 104.385 520.042 104.385 521.213 103.213C522.385 102.042 522.385 100.142 521.213 98.9706L502.121 79.8787ZM503 903L503 82H497L497 903H503Z" fill="black"/>
<path d="M976 754L931.343 701.03L907.799 766.189L976 754ZM497.961 587.643L923.175 741.292L927.253 730.006L502.039 576.357L497.961 587.643Z" fill="#6C63FF"/>
<path d="M500 222L465.359 282H534.641L500 222ZM506 583V276H494V583H506Z" fill="#20861E"/>
<path d="M824 644.965C824 639.448 825.339 633.635 828.019 627.525C830.698 621.413 834.339 616.14 838.941 611.707C843.543 607.273 848.319 604.73 853.264 604.081C853.333 604.081 853.609 604.081 854.089 604.081C854.57 604.081 854.982 604.054 855.325 604C859.034 604.217 861.921 605.542 863.981 607.975C866.661 611.219 868 615.573 868 621.035C868 627.254 866.454 633.58 863.364 640.017C860.271 646.452 856.322 651.724 851.513 655.834C846.704 659.944 842.102 662 837.705 662H836.984C834.512 662 832.381 661.459 830.596 660.378C828.809 659.296 827.47 657.861 826.575 656.078C825.684 654.293 825.03 652.481 824.619 650.644C824.207 648.804 824 646.911 824 644.965ZM859.86 615.276C859.86 609.76 858.04 607.001 854.398 607.001C851.925 607.001 849.521 608.218 847.185 610.652C844.85 613.085 842.926 615.843 841.415 618.926C839.903 622.008 838.736 624.712 837.911 627.038C837.087 629.363 836.64 630.715 836.572 631.093C839.937 631.148 843.269 631.175 846.568 631.175L856.561 631.093C856.63 631.039 856.906 630.147 857.387 628.416C857.868 626.686 858.417 624.523 859.034 621.926C859.653 619.331 859.929 617.114 859.86 615.276ZM832.037 650.481C832.037 656.213 833.857 659.079 837.499 659.079C838.529 659.079 839.629 658.808 840.796 658.267C841.964 657.728 843.372 656.699 845.022 655.185C846.67 653.671 848.319 651.319 849.967 648.129C851.616 644.938 853.264 640.99 854.913 636.284L855.428 634.905H835.334C835.334 635.068 835.026 636.095 834.407 637.989C833.789 639.881 833.24 641.99 832.759 644.315C832.278 646.641 832.037 648.696 832.037 650.481Z" fill="black"/>
<path d="M391.122 818.467C390.374 818.467 390 818.246 390 817.807C390 817.719 390.066 817.411 390.198 816.883C390.374 816.179 390.551 815.783 390.726 815.695C390.902 815.607 391.408 815.54 392.245 815.497C393.433 815.497 394.753 815.43 396.204 815.299C396.821 815.166 397.239 814.903 397.458 814.507C397.547 814.286 399.109 808.104 402.145 795.959C405.182 783.814 406.721 777.654 406.766 777.477C406.766 777.17 406.678 777.015 406.501 777.015C406.15 776.883 404.983 776.773 403.003 776.685H400.957C400.693 776.421 400.56 776.246 400.56 776.158C400.56 776.07 400.605 775.695 400.693 775.035C400.868 774.287 401.089 773.825 401.353 773.648H436.929C437.237 773.825 437.392 774.068 437.392 774.375C437.392 774.595 437.106 777.06 436.533 781.767C435.962 786.477 435.654 788.896 435.61 789.028C435.521 789.336 435.082 789.49 434.29 789.49H433.498C433.19 789.271 433.035 788.985 433.035 788.632C433.035 788.589 433.102 788.06 433.233 787.048C433.365 786.036 433.431 784.869 433.431 783.55C433.431 782.23 433.278 781.152 432.97 780.316C432.661 779.479 432.243 778.797 431.716 778.27C431.188 777.742 430.373 777.389 429.273 777.213C428.173 777.038 427.051 776.883 425.906 776.752C424.763 776.619 423.179 776.597 421.155 776.685H419.636C416.028 776.729 414.114 776.795 413.895 776.883C413.674 776.971 413.52 777.148 413.432 777.411C413.387 777.456 412.64 780.338 411.187 786.058L409.076 794.573H412.706C412.838 794.573 413.344 794.573 414.224 794.573C415.104 794.573 415.72 794.551 416.072 794.506C416.424 794.463 416.908 794.396 417.524 794.308C418.14 794.221 418.669 794.067 419.108 793.847C419.548 793.627 419.922 793.363 420.23 793.055C420.802 792.526 421.287 791.8 421.683 790.877C422.079 789.953 422.365 789.116 422.541 788.369C422.716 787.62 422.826 787.224 422.871 787.181C423.002 786.96 423.42 786.85 424.124 786.85H424.916C425.225 787.071 425.379 787.291 425.379 787.51C425.379 787.642 424.696 790.524 423.333 796.157C421.969 801.79 421.22 804.694 421.089 804.87C421 805.178 420.561 805.331 419.769 805.331H418.977C418.669 805.068 418.514 804.804 418.514 804.539C418.514 804.408 418.624 803.923 418.844 803.088C419.065 802.251 419.175 801.371 419.175 800.447C419.175 799.171 418.734 798.379 417.854 798.071C416.975 797.763 415.016 797.61 411.979 797.61H408.35L406.237 805.992C404.829 811.448 404.125 814.309 404.125 814.572C404.125 815.189 406.083 815.497 409.999 815.497H411.65C411.914 815.76 412.046 815.915 412.046 815.958C412.046 816.003 412.001 816.442 411.914 817.279C411.738 817.85 411.518 818.269 411.254 818.532H410.132C408.327 818.444 405.005 818.401 400.164 818.401C397.305 818.401 395.127 818.401 393.631 818.401C392.134 818.401 391.298 818.423 391.122 818.467Z" fill="#D46FA0"/>
<path d="M431.801 757.939C431.801 757.588 431.911 757.28 432.131 757.016C432.352 756.751 432.681 756.62 433.121 756.62C433.43 756.62 433.693 756.73 433.913 756.949C434.134 757.126 434.354 757.543 434.573 758.204C435.013 759.831 435.916 761.086 437.279 761.966C437.763 762.274 438.006 762.67 438.006 763.154C438.006 763.551 437.94 763.814 437.808 763.947C437.675 764.078 437.367 764.276 436.883 764.541C434.991 765.509 433.342 766.894 431.933 768.699C431.846 768.787 431.735 768.919 431.603 769.095C431.471 769.27 431.362 769.403 431.273 769.491C431.185 769.578 431.075 769.623 430.944 769.623C430.811 769.623 430.658 769.645 430.481 769.689C430.173 769.689 429.887 769.578 429.623 769.358C429.36 769.139 429.205 768.809 429.162 768.368C429.162 767.533 430.195 766.235 432.264 764.474H420.976L409.69 764.408C409.118 764.012 408.831 763.594 408.831 763.154C408.831 762.847 409.118 762.406 409.69 761.835H433.385C432.329 760.162 431.801 758.864 431.801 757.939Z" fill="#D46FA0"/>
<path d="M454.433 826.426C453.966 826.832 453.281 827.267 452.379 827.734C451.477 828.2 450.528 828.434 449.532 828.434C447.573 828.434 446.002 827.734 444.819 826.334C443.638 824.933 443.031 823.145 443 820.967C443 817.701 444.198 814.698 446.593 811.961C448.989 809.223 451.648 807.838 454.573 807.808C456.035 807.808 457.388 808.554 458.633 810.047L458.773 809.86C458.836 809.768 458.913 809.674 459.006 809.581C459.1 809.487 459.24 809.362 459.426 809.208C459.613 809.052 459.815 808.943 460.033 808.881C460.25 808.818 460.5 808.772 460.779 808.741C461.215 808.741 461.573 808.881 461.853 809.16C462.133 809.441 462.289 809.737 462.32 810.047C462.32 810.514 461.433 814.278 459.659 821.34C457.886 828.402 456.953 832.012 456.859 832.166C456.299 833.847 455.102 835.232 453.266 836.319C451.431 837.409 449.33 837.969 446.966 838C442.58 838 440.387 836.942 440.387 834.826C440.387 834.018 440.666 833.303 441.226 832.68C441.786 832.058 442.503 831.747 443.373 831.747C443.84 831.747 444.275 831.887 444.679 832.166C445.084 832.447 445.302 832.929 445.333 833.614C445.333 833.924 445.302 834.22 445.24 834.501C445.177 834.78 445.069 834.998 444.913 835.153C444.758 835.309 444.633 835.465 444.54 835.62C444.446 835.776 444.338 835.9 444.213 835.994L444.119 836.086H444.167C444.477 836.18 445.411 836.227 446.966 836.227C448.149 836.227 449.082 836.04 449.766 835.667C450.482 835.324 451.151 834.811 451.773 834.126C452.396 833.443 452.831 832.712 453.079 831.933C453.266 831.342 453.515 830.377 453.827 829.04C454.231 827.547 454.433 826.676 454.433 826.426ZM457.84 813.127L457.653 812.613C457.559 812.272 457.482 812.038 457.42 811.914C457.357 811.789 457.264 811.572 457.14 811.261C457.015 810.949 456.859 810.732 456.674 810.607C456.486 810.483 456.284 810.312 456.066 810.093C455.849 809.876 455.568 809.737 455.226 809.674C454.885 809.612 454.541 809.564 454.2 809.534C452.831 809.534 451.509 810.358 450.234 812.007C449.299 813.221 448.522 815.071 447.899 817.56C447.278 820.049 446.966 821.854 446.966 822.973C446.966 825.431 447.931 826.66 449.859 826.66C451.602 826.66 453.313 825.572 454.993 823.394L455.366 822.927L457.84 813.127Z" fill="#D46FA0"/>
<path d="M203.278 450.476C202.427 450.476 202 450.226 202 449.725C202 449.624 202.076 449.273 202.225 448.672C202.427 447.869 202.627 447.417 202.828 447.318C203.028 447.217 203.604 447.142 204.557 447.091C205.911 447.091 207.416 447.017 209.07 446.866C209.773 446.717 210.248 446.415 210.5 445.964C210.599 445.714 212.38 438.668 215.84 424.828C219.299 410.988 221.055 403.968 221.105 403.768C221.105 403.417 221.004 403.242 220.804 403.242C220.403 403.091 219.074 402.965 216.818 402.866H214.486C214.185 402.565 214.034 402.364 214.034 402.263C214.034 402.164 214.085 401.737 214.185 400.985C214.385 400.133 214.636 399.606 214.937 399.406H255.478C255.829 399.606 256.005 399.883 256.005 400.234C256.005 400.484 255.678 403.291 255.026 408.657C254.374 414.022 254.023 416.78 253.974 416.931C253.874 417.282 253.371 417.457 252.469 417.457H251.567C251.216 417.207 251.04 416.881 251.04 416.48C251.04 416.429 251.115 415.828 251.266 414.674C251.416 413.521 251.492 412.192 251.492 410.688C251.492 409.184 251.317 407.954 250.966 407.002C250.615 406.049 250.138 405.272 249.536 404.67C248.935 404.069 248.006 403.667 246.753 403.467C245.5 403.266 244.221 403.091 242.918 402.94C241.614 402.79 239.808 402.765 237.502 402.866H235.772C231.659 402.915 229.479 402.99 229.228 403.091C228.977 403.192 228.802 403.392 228.701 403.693C228.651 403.743 227.799 407.027 226.144 413.546L223.737 423.249H227.875C228.024 423.249 228.601 423.249 229.603 423.249C230.606 423.249 231.308 423.224 231.71 423.174C232.111 423.123 232.662 423.048 233.364 422.948C234.067 422.848 234.668 422.672 235.17 422.421C235.671 422.171 236.098 421.87 236.449 421.519C237.1 420.918 237.651 420.09 238.103 419.036C238.555 417.983 238.881 417.031 239.081 416.179C239.282 415.326 239.407 414.875 239.457 414.825C239.608 414.574 240.084 414.449 240.887 414.449H241.789C242.14 414.699 242.315 414.949 242.315 415.201C242.315 415.351 241.538 418.635 239.983 425.054C238.429 431.472 237.577 434.781 237.426 434.983C237.326 435.334 236.825 435.509 235.923 435.509H235.019C234.668 435.208 234.493 434.907 234.493 434.607C234.493 434.456 234.618 433.904 234.869 432.952C235.12 431.999 235.246 430.997 235.246 429.943C235.246 428.489 234.744 427.587 233.741 427.235C232.738 426.884 230.507 426.708 227.047 426.708H222.909L220.503 436.261C218.898 442.479 218.096 445.738 218.096 446.04C218.096 446.74 220.327 447.091 224.79 447.091H226.67C226.971 447.392 227.122 447.568 227.122 447.619C227.122 447.669 227.072 448.17 226.971 449.122C226.771 449.774 226.521 450.251 226.22 450.552H224.94C222.885 450.451 219.099 450.401 213.583 450.401C210.324 450.401 207.842 450.401 206.137 450.401C204.432 450.401 203.48 450.426 203.278 450.476Z" fill="#EF224B"/>
<path d="M254.307 470.449C254.377 470.449 254.484 470.485 254.626 470.555C254.768 470.626 254.963 470.679 255.21 470.715C255.459 470.75 255.671 470.768 255.849 470.768C256.31 470.768 256.735 470.538 257.125 470.077C257.515 469.616 257.799 469.102 257.976 468.535C258.33 467.577 258.933 464.865 259.783 460.399C260.635 455.932 261.45 451.678 262.23 447.636C263.009 443.594 263.4 441.556 263.4 441.521V441.36H260.9C259.235 441.36 258.349 441.326 258.241 441.254C258.1 441.148 258.029 440.971 258.029 440.723L258.402 439.234C258.472 439.057 258.614 438.968 258.827 438.968C259.039 438.968 259.872 438.951 261.326 438.915C263.028 438.915 263.878 438.898 263.878 438.862C263.878 438.79 264.037 437.904 264.357 436.203C264.676 434.501 264.889 433.473 264.995 433.119C266.307 427.269 268.895 424.345 272.758 424.345C274.071 424.415 275.152 424.804 276.003 425.515C276.853 426.223 277.279 427.163 277.279 428.332C277.279 429.608 276.906 430.53 276.162 431.097C275.417 431.666 274.673 431.966 273.93 432.002C272.369 432.002 271.589 431.258 271.589 429.768C271.589 429.094 271.785 428.51 272.174 428.013C272.564 427.518 272.989 427.145 273.45 426.896L273.93 426.631C273.361 426.418 272.83 426.312 272.333 426.312C271.908 426.312 271.5 426.49 271.11 426.843C270.721 427.198 270.455 427.694 270.313 428.332C270.065 429.36 269.782 430.744 269.462 432.48C269.143 434.217 268.86 435.689 268.612 436.895C268.363 438.099 268.24 438.737 268.24 438.809C268.24 438.879 269.213 438.915 271.163 438.915C272.758 438.915 273.681 438.932 273.93 438.968C274.177 439.004 274.372 439.11 274.514 439.287C274.55 439.429 274.514 439.73 274.408 440.191C274.302 440.652 274.213 440.935 274.142 441.042C274.071 441.219 273.911 441.307 273.663 441.307C273.416 441.307 272.458 441.326 270.791 441.36H267.813L266.59 447.848C264.889 456.641 263.701 462.136 263.028 464.334C262.07 467.346 260.83 469.58 259.305 471.034C257.994 472.168 256.699 472.736 255.424 472.736C254.288 472.736 253.26 472.399 252.339 471.725C251.417 471.052 250.956 470.094 250.956 468.854C250.956 467.542 251.329 466.585 252.073 465.982C252.818 465.379 253.562 465.078 254.307 465.078C255.866 465.078 256.646 465.823 256.646 467.312C256.646 467.985 256.452 468.57 256.061 469.066C255.671 469.563 255.246 469.935 254.785 470.183L254.307 470.449Z" fill="#EF224B"/>
<path d="M278.638 445.486C278.638 445.235 278.688 444.947 278.788 444.621C278.888 444.295 279.039 444.132 279.239 444.132C279.265 444.132 280.167 444.07 281.946 443.945C283.725 443.819 284.641 443.744 284.691 443.719C284.992 443.719 285.141 443.819 285.141 444.019C285.141 444.195 284.515 446.815 283.261 451.878C282.008 456.841 281.382 459.409 281.382 459.584C281.858 459.334 282.221 459.095 282.472 458.87C283.075 458.418 283.938 457.63 285.067 456.501C286.195 455.374 287.072 454.61 287.698 454.208C288.701 453.531 289.654 453.193 290.556 453.193C291.308 453.193 291.896 453.432 292.323 453.908C292.748 454.383 292.975 455.06 293 455.937C293 456.564 292.911 457.091 292.736 457.516C292.56 457.943 292.323 458.255 292.022 458.457C291.722 458.657 291.458 458.795 291.233 458.87C291.006 458.946 290.781 458.983 290.556 458.983C290.055 458.983 289.654 458.845 289.353 458.569C289.052 458.294 288.901 457.931 288.901 457.479C288.901 456.853 289.102 456.339 289.503 455.937C289.904 455.537 290.305 455.273 290.705 455.149L291.308 455.035C291.006 454.734 290.705 454.585 290.405 454.585H290.255C289.452 454.66 288.664 454.973 287.886 455.524C287.11 456.076 286.195 456.878 285.141 457.931C284.089 458.983 283.261 459.747 282.66 460.224C282.71 460.249 282.898 460.286 283.224 460.337C283.55 460.387 283.851 460.461 284.127 460.562C284.402 460.663 284.728 460.762 285.104 460.863C285.48 460.963 285.818 461.138 286.119 461.389C286.42 461.64 286.695 461.866 286.947 462.066C287.197 462.267 287.411 462.593 287.586 463.043C287.76 463.495 287.836 463.908 287.811 464.285C287.811 464.71 287.749 465.224 287.623 465.825C287.498 466.427 287.423 466.929 287.397 467.329C287.397 468.332 287.737 468.833 288.412 468.833C289.615 468.833 290.593 467.342 291.345 464.359C291.396 464.159 291.646 464.058 292.096 464.058H292.248C292.649 464.058 292.849 464.171 292.849 464.397C292.849 464.522 292.812 464.698 292.736 464.923C291.708 468.458 290.23 470.224 288.3 470.224C287.172 470.224 286.257 469.899 285.556 469.247C284.854 468.596 284.503 467.655 284.503 466.427C284.503 465.976 284.54 465.587 284.615 465.261C284.691 464.935 284.728 464.634 284.728 464.359C284.728 463.808 284.553 463.332 284.202 462.931C283.851 462.529 283.412 462.242 282.887 462.066C282.359 461.891 281.934 461.753 281.608 461.652C281.282 461.552 281.057 461.515 280.931 461.54H280.856C280.555 462.593 280.291 463.608 280.066 464.585C279.841 465.562 279.666 466.289 279.54 466.766C279.414 467.242 279.302 467.705 279.201 468.157C279.102 468.607 279.014 468.908 278.939 469.059C278.863 469.209 278.776 469.372 278.675 469.548C278.576 469.723 278.437 469.836 278.262 469.886C277.936 470.111 277.585 470.224 277.208 470.224C276.783 470.224 276.457 470.099 276.232 469.849C276.006 469.597 275.893 469.385 275.893 469.209C275.893 468.959 276.357 466.953 277.284 463.194C278.211 459.435 279.127 455.737 280.029 452.103L281.42 446.652C281.445 446.326 281.358 446.126 281.156 446.05C280.956 445.975 280.467 445.912 279.69 445.862H279.503C279.251 445.862 279.088 445.862 279.014 445.862C278.939 445.862 278.851 445.825 278.751 445.749C278.65 445.674 278.613 445.587 278.638 445.486Z" fill="#EF224B"/>
<path d="M249.81 381.504C249.81 381.104 249.935 380.752 250.185 380.452C250.437 380.151 250.813 380 251.314 380C251.665 380 251.966 380.126 252.216 380.376C252.468 380.576 252.718 381.053 252.969 381.806C253.471 383.66 254.498 385.09 256.053 386.093C256.604 386.444 256.88 386.894 256.88 387.447C256.88 387.897 256.805 388.198 256.654 388.349C256.503 388.5 256.154 388.725 255.601 389.026C253.446 390.129 251.564 391.709 249.96 393.765C249.859 393.865 249.735 394.015 249.584 394.215C249.434 394.416 249.308 394.566 249.208 394.667C249.108 394.767 248.982 394.818 248.831 394.818C248.682 394.818 248.506 394.843 248.305 394.892C247.954 394.892 247.629 394.767 247.328 394.517C247.027 394.265 246.851 393.889 246.802 393.388C246.802 392.436 247.98 390.956 250.336 388.95H237.474L224.613 388.875C223.961 388.424 223.635 387.947 223.635 387.447C223.635 387.096 223.961 386.593 224.613 385.942H251.615C250.412 384.037 249.81 382.557 249.81 381.504Z" fill="#EF224B"/>
<path d="M529.154 236.635C528.384 236.635 528 236.408 528 235.956C528 235.865 528.069 235.548 528.204 235.004C528.384 234.28 528.566 233.873 528.747 233.783C528.928 233.692 529.448 233.625 530.309 233.579C531.532 233.579 532.89 233.51 534.384 233.375C535.018 233.239 535.448 232.968 535.674 232.561C535.765 232.334 537.372 225.972 540.495 213.477C543.62 200.98 545.204 194.642 545.25 194.461C545.25 194.144 545.16 193.985 544.979 193.985C544.616 193.849 543.416 193.736 541.379 193.646H539.274C539.002 193.374 538.866 193.193 538.866 193.102C538.866 193.012 538.912 192.627 539.002 191.948C539.183 191.178 539.41 190.703 539.681 190.522H576.286C576.603 190.703 576.762 190.952 576.762 191.269C576.762 191.495 576.468 194.031 575.879 198.875C575.291 203.719 574.974 206.21 574.928 206.346C574.838 206.663 574.385 206.821 573.57 206.821H572.754C572.439 206.594 572.28 206.3 572.28 205.937C572.28 205.893 572.347 205.349 572.483 204.308C572.619 203.267 572.687 202.067 572.687 200.709C572.687 199.35 572.529 198.241 572.212 197.381C571.895 196.521 571.465 195.819 570.922 195.276C570.378 194.732 569.541 194.37 568.408 194.189C567.277 194.008 566.122 193.849 564.945 193.714C563.768 193.578 562.138 193.555 560.055 193.646H558.494C554.78 193.691 552.811 193.759 552.585 193.849C552.358 193.94 552.2 194.121 552.11 194.393C552.064 194.438 551.294 197.404 549.8 203.289L547.627 212.05H551.363C551.498 212.05 552.018 212.05 552.924 212.05C553.829 212.05 554.463 212.027 554.826 211.983C555.187 211.937 555.686 211.869 556.32 211.779C556.954 211.687 557.497 211.53 557.95 211.303C558.402 211.077 558.788 210.805 559.105 210.488C559.693 209.945 560.19 209.198 560.599 208.247C561.006 207.296 561.3 206.436 561.482 205.666C561.663 204.896 561.776 204.489 561.821 204.443C561.957 204.218 562.387 204.105 563.111 204.105H563.927C564.244 204.331 564.402 204.558 564.402 204.783C564.402 204.919 563.7 207.885 562.296 213.68C560.893 219.475 560.123 222.463 559.988 222.645C559.896 222.962 559.444 223.12 558.629 223.12H557.814C557.497 222.849 557.338 222.577 557.338 222.305C557.338 222.169 557.451 221.672 557.678 220.811C557.904 219.951 558.018 219.045 558.018 218.094C558.018 216.782 557.565 215.966 556.66 215.649C555.754 215.332 553.739 215.174 550.616 215.174H546.88L544.707 223.8C543.258 229.413 542.533 232.356 542.533 232.628C542.533 233.262 544.549 233.579 548.578 233.579H550.276C550.547 233.85 550.683 234.009 550.683 234.055C550.683 234.099 550.637 234.552 550.547 235.413C550.366 236.001 550.14 236.431 549.869 236.702H548.713C546.857 236.612 543.439 236.567 538.459 236.567C535.515 236.567 533.274 236.567 531.735 236.567C530.195 236.567 529.335 236.59 529.154 236.635Z" fill="#20861E"/>
<path d="M571.009 174.358C571.009 173.996 571.122 173.679 571.349 173.407C571.576 173.136 571.915 173 572.367 173C572.685 173 572.956 173.113 573.183 173.34C573.409 173.521 573.636 173.951 573.861 174.63C574.314 176.305 575.242 177.595 576.646 178.501C577.145 178.818 577.393 179.225 577.393 179.723C577.393 180.131 577.326 180.403 577.189 180.538C577.053 180.674 576.736 180.878 576.239 181.15C574.293 182.146 572.595 183.572 571.145 185.428C571.055 185.519 570.942 185.655 570.806 185.836C570.669 186.017 570.556 186.153 570.466 186.243C570.375 186.334 570.262 186.379 570.127 186.379C569.991 186.379 569.832 186.402 569.651 186.447C569.334 186.447 569.04 186.334 568.768 186.107C568.497 185.881 568.338 185.541 568.293 185.089C568.293 184.228 569.357 182.893 571.485 181.082H559.872L548.259 181.014C547.669 180.606 547.375 180.176 547.375 179.723C547.375 179.407 547.669 178.954 548.259 178.365H572.639C571.553 176.645 571.009 175.309 571.009 174.358Z" fill="#20861E"/>
<path d="M590.598 216.305C590.503 216.305 590.374 216.305 590.214 216.305C589.415 216.305 588.934 216.289 588.774 216.256C588.614 216.224 588.533 216.048 588.533 215.728C588.533 214.863 588.709 214.335 589.063 214.143C589.126 214.112 590.679 214.096 593.719 214.096C596.184 214.096 597.592 214.096 597.944 214.096C598.297 214.096 598.52 214.192 598.617 214.384C605.371 230.261 608.813 238.407 608.94 238.824L611.533 228.596C613.23 221.843 614.078 218.241 614.078 217.793C614.078 216.928 613.054 216.432 611.005 216.305C610.237 216.305 609.852 216.129 609.852 215.777C609.852 215.712 609.885 215.52 609.948 215.2C610.077 214.687 610.172 214.384 610.237 214.288C610.3 214.192 610.461 214.127 610.716 214.096C610.813 214.096 611.309 214.112 612.205 214.143C613.101 214.175 614.43 214.208 616.191 214.24C617.791 214.24 619.007 214.224 619.84 214.192C620.671 214.159 621.152 214.143 621.28 214.143C621.76 214.143 622 214.304 622 214.624C622 215.328 621.872 215.808 621.616 216.064C621.553 216.224 621.199 216.305 620.56 216.305C618.287 216.432 616.863 217.073 616.286 218.225L609.132 246.554C609.068 246.778 608.732 246.89 608.123 246.89C607.676 246.89 607.403 246.858 607.308 246.794C607.211 246.698 605.146 241.848 601.113 232.245L595.015 217.889L591.895 230.372C589.814 238.567 588.774 242.808 588.774 243.097C588.934 244.153 590.086 244.681 592.23 244.681H592.711C592.903 244.841 592.999 244.969 592.999 245.065C592.999 245.161 592.967 245.466 592.904 245.978C592.775 246.394 592.615 246.698 592.423 246.89H591.799C590.806 246.825 589.077 246.794 586.613 246.794C585.717 246.794 584.901 246.794 584.164 246.794C583.428 246.794 582.836 246.794 582.388 246.794C581.94 246.794 581.668 246.809 581.571 246.841C581.092 246.841 580.851 246.698 580.851 246.41C580.851 246.281 580.9 246.026 580.995 245.642C581.092 245.258 581.171 245.033 581.236 244.969C581.3 244.777 581.668 244.681 582.34 244.681C584.516 244.584 585.926 243.961 586.565 242.808C586.693 242.616 587.829 238.183 589.975 229.508L593.239 216.449C593.175 216.416 592.295 216.368 590.598 216.305Z" fill="#20861E"/>
<path d="M989.262 813.514C988.421 813.514 988 813.267 988 812.771C988 812.673 988.074 812.326 988.223 811.732C988.421 810.939 988.618 810.494 988.817 810.395C989.015 810.297 989.584 810.222 990.524 810.173C991.861 810.173 993.346 810.098 994.979 809.95C995.672 809.801 996.142 809.504 996.39 809.059C996.489 808.812 998.246 801.857 1001.66 788.196C1005.08 774.534 1006.81 767.604 1006.86 767.406C1006.86 767.06 1006.76 766.886 1006.56 766.886C1006.17 766.738 1004.85 766.615 1002.63 766.515H1000.33C1000.03 766.218 999.88 766.021 999.88 765.921C999.88 765.822 999.929 765.401 1000.03 764.659C1000.23 763.818 1000.47 763.298 1000.77 763.099H1040.79C1041.14 763.298 1041.31 763.571 1041.31 763.916C1041.31 764.165 1040.99 766.936 1040.34 772.232C1039.7 777.528 1039.35 780.251 1039.31 780.4C1039.21 780.747 1038.71 780.919 1037.82 780.919H1036.93C1036.58 780.672 1036.41 780.35 1036.41 779.954C1036.41 779.904 1036.48 779.31 1036.63 778.172C1036.78 777.034 1036.86 775.722 1036.86 774.237C1036.86 772.752 1036.68 771.54 1036.34 770.599C1035.99 769.659 1035.52 768.891 1034.92 768.297C1034.33 767.703 1033.41 767.307 1032.18 767.109C1030.94 766.912 1029.68 766.738 1028.39 766.589C1027.1 766.441 1025.32 766.416 1023.04 766.515H1021.34C1017.28 766.565 1015.13 766.639 1014.88 766.738C1014.63 766.838 1014.46 767.035 1014.36 767.332C1014.31 767.382 1013.47 770.624 1011.83 777.058L1009.46 786.637H1013.54C1013.69 786.637 1014.26 786.637 1015.25 786.637C1016.24 786.637 1016.93 786.611 1017.33 786.562C1017.72 786.512 1018.27 786.438 1018.96 786.34C1019.65 786.24 1020.25 786.067 1020.74 785.82C1021.24 785.571 1021.66 785.274 1022.01 784.929C1022.65 784.335 1023.19 783.518 1023.64 782.479C1024.08 781.439 1024.41 780.498 1024.6 779.657C1024.8 778.816 1024.93 778.371 1024.98 778.321C1025.12 778.074 1025.59 777.949 1026.39 777.949H1027.28C1027.62 778.196 1027.8 778.445 1027.8 778.692C1027.8 778.84 1027.03 782.083 1025.49 788.419C1023.96 794.754 1023.12 798.021 1022.97 798.218C1022.87 798.565 1022.38 798.738 1021.49 798.738H1020.59C1020.25 798.441 1020.07 798.144 1020.07 797.847C1020.07 797.699 1020.2 797.154 1020.45 796.214C1020.69 795.274 1020.82 794.284 1020.82 793.245C1020.82 791.808 1020.32 790.917 1019.33 790.572C1018.34 790.225 1016.14 790.052 1012.72 790.052H1008.64L1006.26 799.481C1004.68 805.619 1003.89 808.836 1003.89 809.133C1003.89 809.826 1006.09 810.173 1010.5 810.173H1012.35C1012.65 810.47 1012.8 810.642 1012.8 810.692C1012.8 810.742 1012.75 811.236 1012.65 812.177C1012.45 812.821 1012.2 813.291 1011.91 813.588H1010.64C1008.62 813.489 1004.88 813.44 999.434 813.44C996.216 813.44 993.767 813.44 992.084 813.44C990.4 813.44 989.461 813.464 989.262 813.514Z" fill="#6C63FF"/>
<path d="M1035.02 745.429C1035.02 745.034 1035.14 744.687 1035.39 744.39C1035.64 744.093 1036.01 743.944 1036.51 743.944C1036.85 743.944 1037.15 744.068 1037.4 744.315C1037.64 744.514 1037.89 744.984 1038.14 745.726C1038.63 747.558 1039.65 748.968 1041.18 749.958C1041.73 750.304 1042 750.75 1042 751.295C1042 751.74 1041.93 752.037 1041.78 752.186C1041.63 752.334 1041.28 752.557 1040.74 752.854C1038.61 753.942 1036.75 755.502 1035.17 757.532C1035.07 757.631 1034.95 757.779 1034.8 757.977C1034.65 758.175 1034.53 758.323 1034.43 758.423C1034.33 758.522 1034.2 758.571 1034.06 758.571C1033.91 758.571 1033.73 758.596 1033.54 758.646C1033.19 758.646 1032.87 758.522 1032.57 758.274C1032.27 758.026 1032.1 757.655 1032.05 757.161C1032.05 756.22 1033.21 754.759 1035.54 752.78H1022.84L1010.15 752.706C1009.5 752.26 1009.18 751.789 1009.18 751.295C1009.18 750.948 1009.5 750.453 1010.15 749.81H1036.8C1035.61 747.928 1035.02 746.469 1035.02 745.429Z" fill="#6C63FF"/>
<path d="M255 495L300.331 547.394L323.04 481.939L255 495ZM501.967 574.331L307.983 507.031L304.05 518.368L498.033 585.669L501.967 574.331Z" fill="#EF224B"/>
<path d="M500 829L534.641 769H465.359L500 829ZM494 587V775H506V587H494Z" fill="#DF46FA"/>
<circle cx="500" cy="582" r="8.5" fill="black" stroke="black"/>
<path d="M1027.89 572.29C1028.4 569.308 1030.4 565.866 1033.87 561.962C1037.35 558.058 1041.63 556.071 1046.74 556C1049.32 556 1051.69 556.639 1053.83 557.916C1055.98 559.194 1057.56 560.791 1058.6 562.707C1061.7 558.236 1065.44 556 1069.8 556C1072.53 556 1074.9 556.781 1076.9 558.342C1078.89 559.904 1079.93 561.998 1080 564.624C1080 566.682 1079.48 568.35 1078.45 569.628C1077.41 570.906 1076.41 571.686 1075.45 571.97C1074.49 572.254 1073.64 572.396 1072.9 572.396C1071.5 572.396 1070.35 572.006 1069.47 571.225C1068.58 570.444 1068.14 569.415 1068.14 568.137C1068.14 564.872 1069.98 562.636 1073.68 561.43C1072.87 560.507 1071.39 560.046 1069.24 560.046C1068.28 560.046 1067.58 560.117 1067.14 560.259C1064.33 561.394 1062.26 563.737 1060.93 567.286C1056.49 582.972 1054.28 592.128 1054.28 594.754C1054.28 596.742 1054.87 598.161 1056.05 599.013C1057.23 599.865 1058.53 600.291 1059.93 600.291C1062.67 600.291 1065.36 599.12 1068.02 596.777C1070.69 594.435 1072.5 591.56 1073.46 588.153C1073.68 587.444 1073.9 587.053 1074.12 586.982C1074.34 586.911 1074.94 586.84 1075.9 586.769H1076.34C1077.45 586.769 1078 587.053 1078 587.621C1078 587.692 1077.93 588.082 1077.78 588.792C1076.6 592.838 1074.31 596.422 1070.91 599.545C1067.51 602.668 1063.55 604.23 1059.04 604.23C1053.87 604.23 1049.95 601.994 1047.29 597.522C1044.26 601.923 1040.78 604.124 1036.87 604.124H1036.2C1032.58 604.124 1029.99 603.201 1028.44 601.355C1026.89 599.51 1026.07 597.558 1026 595.5C1026 593.228 1026.7 591.383 1028.11 589.963C1029.51 588.544 1031.17 587.834 1033.1 587.834C1036.28 587.834 1037.86 589.324 1037.86 592.306C1037.86 593.725 1037.42 594.967 1036.53 596.032C1035.65 597.097 1034.8 597.806 1033.98 598.161C1033.17 598.516 1032.69 598.694 1032.54 598.694L1032.21 598.8C1032.21 598.871 1032.43 599.013 1032.87 599.226C1033.32 599.439 1033.91 599.687 1034.65 599.971C1035.39 600.255 1036.09 600.362 1036.76 600.291C1039.42 600.291 1041.71 598.694 1043.63 595.5C1044.3 594.364 1045.15 591.951 1046.18 588.26C1047.22 584.569 1048.25 580.736 1049.29 576.761C1050.32 572.786 1050.91 570.444 1051.06 569.734C1051.43 567.818 1051.61 566.434 1051.61 565.582C1051.61 563.595 1051.06 562.175 1049.95 561.323C1048.84 560.472 1047.59 560.046 1046.18 560.046C1043.22 560.046 1040.45 561.181 1037.86 563.453C1035.28 565.724 1033.47 568.634 1032.43 572.183C1032.28 572.822 1032.1 573.177 1031.88 573.248C1031.66 573.319 1031.06 573.39 1030.1 573.461H1028.55C1028.11 573.035 1027.89 572.644 1027.89 572.29Z" fill="black"/>
<path d="M477 14.7353C477 13.8482 477.473 12.3273 478.42 10.1729C479.367 8.0184 480.882 5.76888 482.965 3.42431C485.048 1.07974 487.384 -0.060866 489.972 0.00250079C492.56 0.00250079 494.643 0.731219 496.221 2.18866C497.8 3.64609 498.62 5.67383 498.683 8.27187C498.557 9.47584 498.462 10.1412 498.399 10.2679C498.399 10.458 497.894 11.9155 496.884 14.6402C495.874 17.365 494.833 20.4383 493.76 23.8601C492.686 27.2819 492.181 30.0067 492.245 32.0344C492.245 34.7592 492.686 36.6602 493.57 37.7374C494.454 38.8147 495.78 39.385 497.547 39.4483C498.999 39.4483 500.356 39.0998 501.619 38.4028C502.881 37.7058 503.86 36.977 504.554 36.2166C505.248 35.4562 506.1 34.4107 507.11 33.08C507.11 33.0166 507.268 32.3829 507.584 31.179C507.9 29.975 508.341 28.1057 508.91 25.571C509.478 23.0363 510.077 20.6918 510.709 18.5373C513.107 9.03227 514.433 4.05798 514.685 3.61441C515.506 1.90351 516.863 1.04805 518.757 1.04805C519.578 1.04805 520.24 1.26984 520.745 1.7134C521.25 2.15697 521.598 2.53717 521.787 2.85401C521.976 3.17084 522.039 3.45599 521.976 3.70946C521.976 4.53323 520.43 11.1867 517.337 23.67C514.244 36.1533 512.476 42.9969 512.034 44.2009C510.267 49.4603 507.205 53.6425 502.85 56.7475C498.494 59.8525 494.138 61.4366 489.783 61.5C486.942 61.5 484.449 60.803 482.302 59.4089C480.156 58.0148 479.083 55.9237 479.083 53.1356C479.083 51.7415 479.304 50.5692 479.746 49.6187C480.188 48.6682 480.787 47.9712 481.545 47.5276C482.302 47.084 482.934 46.7672 483.439 46.5771C483.944 46.387 484.48 46.292 485.048 46.292C487.826 46.292 489.215 47.6227 489.215 50.2841C489.215 51.5514 488.836 52.6603 488.078 53.6108C487.321 54.5613 486.595 55.195 485.901 55.5118C485.206 55.8287 484.796 55.9871 484.67 55.9871L484.386 56.0821C484.512 56.399 485.112 56.7792 486.185 57.2227C487.258 57.6663 488.331 57.8881 489.404 57.8881H490.161C491.235 57.8881 492.055 57.8247 492.623 57.698C494.706 57.1277 496.632 55.9237 498.399 54.0861C500.167 52.2484 501.524 50.2841 502.471 48.193C503.418 46.1019 504.144 44.3276 504.649 42.8702C505.154 41.4127 505.406 40.4622 505.406 40.0186L504.838 40.3988C504.459 40.6523 503.86 41.0008 503.039 41.4444C502.218 41.888 501.398 42.2682 500.577 42.585C499.315 42.9018 498.084 43.0603 496.884 43.0603C493.981 43.0603 491.424 42.3632 489.215 40.9692C487.005 39.5751 485.553 37.3256 484.859 34.2206C484.796 33.777 484.764 32.7948 484.764 31.274C484.764 27.6621 485.869 22.9413 488.078 17.1115C490.288 11.2818 491.392 7.57484 491.392 5.99067C491.392 5.9273 491.392 5.86393 491.392 5.80056C491.392 5.23026 491.392 4.85006 491.392 4.65996C491.392 4.46986 491.266 4.24808 491.014 3.99461C490.761 3.74114 490.414 3.61441 489.972 3.61441H489.593C488.142 3.61441 486.816 4.21639 485.617 5.42036C484.417 6.62433 483.47 7.92335 482.776 9.31742C482.082 10.7115 481.545 12.0422 481.166 13.3095C480.787 14.5769 480.535 15.2739 480.409 15.4006C480.282 15.5274 479.777 15.5907 478.894 15.5907H477.568C477.189 15.2105 477 14.9254 477 14.7353Z" fill="black"/>
</svg>
