<svg width="1080" height="1077" viewBox="0 0 1080 1077" fill="none" xmlns="http://www.w3.org/2000/svg">
<path d="M1002.12 584.121C1003.29 582.95 1003.29 581.05 1002.12 579.879L983.029 560.787C981.858 559.615 979.958 559.615 978.787 560.787C977.615 561.958 977.615 563.858 978.787 565.029L995.757 582L978.787 598.971C977.615 600.142 977.615 602.042 978.787 603.213C979.958 604.385 981.858 604.385 983.029 603.213L1002.12 584.121ZM0 585H1000V579H0V585Z" fill="black"/>
<path d="M502.121 79.8787C500.95 78.7071 499.05 78.7071 497.879 79.8787L478.787 98.9706C477.615 100.142 477.615 102.042 478.787 103.213C479.958 104.385 481.858 104.385 483.029 103.213L500 86.2426L516.971 103.213C518.142 104.385 520.042 104.385 521.213 103.213C522.385 102.042 522.385 100.142 521.213 98.9706L502.121 79.8787ZM503 1077L503 82H497L497 1077H503Z" fill="black"/>
<path d="M873 582.001L813 547.36L813 616.642L873 582.001ZM500 588.001L686.5 588.001L686.5 576.001L500 576.001L500 588.001ZM686.5 588.001L819 588.001L819 576.001L686.5 576.001L686.5 588.001Z" fill="#6C63FF"/>
<path d="M500 173L534.641 233H465.359L500 173ZM494 583V227H506V583H494Z" fill="#20861E"/>
<path d="M391.122 818.467C390.374 818.467 390 818.246 390 817.807C390 817.719 390.066 817.411 390.198 816.883C390.374 816.179 390.551 815.783 390.726 815.695C390.902 815.607 391.408 815.54 392.245 815.497C393.433 815.497 394.753 815.43 396.204 815.299C396.821 815.166 397.239 814.903 397.458 814.507C397.547 814.286 399.109 808.104 402.145 795.959C405.182 783.814 406.721 777.654 406.766 777.477C406.766 777.17 406.678 777.015 406.501 777.015C406.15 776.883 404.983 776.773 403.003 776.685H400.957C400.693 776.421 400.56 776.246 400.56 776.158C400.56 776.07 400.605 775.695 400.693 775.035C400.868 774.287 401.089 773.825 401.353 773.648H436.929C437.237 773.825 437.392 774.068 437.392 774.375C437.392 774.595 437.106 777.06 436.533 781.767C435.962 786.477 435.654 788.896 435.61 789.028C435.521 789.336 435.082 789.49 434.29 789.49H433.498C433.19 789.271 433.035 788.985 433.035 788.632C433.035 788.589 433.102 788.06 433.233 787.048C433.365 786.036 433.431 784.869 433.431 783.55C433.431 782.23 433.278 781.152 432.97 780.316C432.661 779.479 432.243 778.797 431.716 778.27C431.188 777.742 430.373 777.389 429.273 777.213C428.173 777.038 427.051 776.883 425.906 776.752C424.763 776.619 423.179 776.597 421.155 776.685H419.636C416.028 776.729 414.114 776.795 413.895 776.883C413.674 776.971 413.52 777.148 413.432 777.411C413.387 777.456 412.64 780.338 411.187 786.058L409.076 794.573H412.706C412.838 794.573 413.344 794.573 414.224 794.573C415.104 794.573 415.72 794.551 416.072 794.506C416.424 794.463 416.908 794.396 417.524 794.308C418.14 794.221 418.669 794.067 419.108 793.847C419.548 793.627 419.922 793.363 420.23 793.055C420.802 792.526 421.287 791.8 421.683 790.877C422.079 789.953 422.365 789.116 422.541 788.369C422.716 787.62 422.826 787.224 422.871 787.181C423.002 786.96 423.42 786.85 424.124 786.85H424.916C425.225 787.071 425.379 787.291 425.379 787.51C425.379 787.642 424.696 790.524 423.333 796.157C421.969 801.79 421.22 804.694 421.089 804.87C421 805.178 420.561 805.331 419.769 805.331H418.977C418.669 805.068 418.514 804.804 418.514 804.539C418.514 804.408 418.624 803.923 418.844 803.088C419.065 802.251 419.175 801.371 419.175 800.447C419.175 799.171 418.734 798.379 417.854 798.071C416.975 797.763 415.016 797.61 411.979 797.61H408.35L406.237 805.992C404.829 811.448 404.125 814.309 404.125 814.572C404.125 815.189 406.083 815.497 409.999 815.497H411.65C411.914 815.76 412.046 815.915 412.046 815.958C412.046 816.003 412.001 816.442 411.914 817.279C411.738 817.85 411.518 818.269 411.254 818.532H410.132C408.327 818.444 405.005 818.401 400.164 818.401C397.305 818.401 395.127 818.401 393.631 818.401C392.134 818.401 391.298 818.423 391.122 818.467Z" fill="#D46FA0"/>
<path d="M431.801 757.939C431.801 757.588 431.911 757.28 432.131 757.016C432.352 756.751 432.681 756.62 433.121 756.62C433.43 756.62 433.693 756.73 433.913 756.949C434.134 757.126 434.354 757.543 434.573 758.204C435.013 759.831 435.916 761.086 437.279 761.966C437.763 762.274 438.006 762.67 438.006 763.154C438.006 763.551 437.94 763.814 437.808 763.947C437.675 764.078 437.367 764.276 436.883 764.541C434.991 765.509 433.342 766.894 431.933 768.699C431.846 768.787 431.735 768.919 431.603 769.095C431.471 769.27 431.362 769.403 431.273 769.491C431.185 769.578 431.075 769.623 430.944 769.623C430.811 769.623 430.658 769.645 430.481 769.689C430.173 769.689 429.887 769.578 429.623 769.358C429.36 769.139 429.205 768.809 429.162 768.368C429.162 767.533 430.195 766.235 432.264 764.474H420.976L409.69 764.408C409.118 764.012 408.831 763.594 408.831 763.154C408.831 762.847 409.118 762.406 409.69 761.835H433.385C432.329 760.162 431.801 758.864 431.801 757.939Z" fill="#D46FA0"/>
<path d="M454.433 826.426C453.966 826.832 453.281 827.267 452.379 827.734C451.477 828.2 450.528 828.434 449.532 828.434C447.573 828.434 446.002 827.734 444.819 826.334C443.638 824.933 443.031 823.145 443 820.967C443 817.701 444.198 814.698 446.593 811.961C448.989 809.223 451.648 807.838 454.573 807.808C456.035 807.808 457.388 808.554 458.633 810.047L458.773 809.86C458.836 809.768 458.913 809.674 459.006 809.581C459.1 809.487 459.24 809.362 459.426 809.208C459.613 809.052 459.815 808.943 460.033 808.881C460.25 808.818 460.5 808.772 460.779 808.741C461.215 808.741 461.573 808.881 461.853 809.16C462.133 809.441 462.289 809.737 462.32 810.047C462.32 810.514 461.433 814.278 459.659 821.34C457.886 828.402 456.953 832.012 456.859 832.166C456.299 833.847 455.102 835.232 453.266 836.319C451.431 837.409 449.33 837.969 446.966 838C442.58 838 440.387 836.942 440.387 834.826C440.387 834.018 440.666 833.303 441.226 832.68C441.786 832.058 442.503 831.747 443.373 831.747C443.84 831.747 444.275 831.887 444.679 832.166C445.084 832.447 445.302 832.929 445.333 833.614C445.333 833.924 445.302 834.22 445.24 834.501C445.177 834.78 445.069 834.998 444.913 835.153C444.758 835.309 444.633 835.465 444.54 835.62C444.446 835.776 444.338 835.9 444.213 835.994L444.119 836.086H444.167C444.477 836.18 445.411 836.227 446.966 836.227C448.149 836.227 449.082 836.04 449.766 835.667C450.482 835.324 451.151 834.811 451.773 834.126C452.396 833.443 452.831 832.712 453.079 831.933C453.266 831.342 453.515 830.377 453.827 829.04C454.231 827.547 454.433 826.676 454.433 826.426ZM457.84 813.127L457.653 812.613C457.559 812.272 457.482 812.038 457.42 811.914C457.357 811.789 457.264 811.572 457.14 811.261C457.015 810.949 456.859 810.732 456.674 810.607C456.486 810.483 456.284 810.312 456.066 810.093C455.849 809.876 455.568 809.737 455.226 809.674C454.885 809.612 454.541 809.564 454.2 809.534C452.831 809.534 451.509 810.358 450.234 812.007C449.299 813.221 448.522 815.071 447.899 817.56C447.278 820.049 446.966 821.854 446.966 822.973C446.966 825.431 447.931 826.66 449.859 826.66C451.602 826.66 453.313 825.572 454.993 823.394L455.366 822.927L457.84 813.127Z" fill="#D46FA0"/>
<path d="M301.278 506.476C300.427 506.476 300 506.226 300 505.725C300 505.624 300.076 505.273 300.225 504.672C300.427 503.869 300.627 503.417 300.828 503.318C301.028 503.217 301.604 503.142 302.557 503.091C303.911 503.091 305.416 503.017 307.07 502.866C307.773 502.717 308.248 502.415 308.5 501.964C308.599 501.714 310.38 494.668 313.84 480.828C317.299 466.988 319.055 459.968 319.105 459.768C319.105 459.417 319.004 459.242 318.804 459.242C318.403 459.091 317.074 458.965 314.818 458.866H312.486C312.185 458.565 312.034 458.364 312.034 458.263C312.034 458.164 312.085 457.737 312.185 456.985C312.385 456.133 312.636 455.606 312.937 455.406H353.478C353.829 455.606 354.005 455.883 354.005 456.234C354.005 456.484 353.678 459.291 353.026 464.657C352.374 470.022 352.023 472.78 351.974 472.931C351.874 473.282 351.371 473.457 350.469 473.457H349.567C349.216 473.207 349.04 472.881 349.04 472.48C349.04 472.429 349.115 471.828 349.266 470.674C349.416 469.521 349.492 468.192 349.492 466.688C349.492 465.184 349.317 463.954 348.966 463.002C348.615 462.049 348.138 461.272 347.536 460.67C346.935 460.069 346.006 459.667 344.753 459.467C343.5 459.266 342.221 459.091 340.918 458.94C339.614 458.79 337.808 458.765 335.502 458.866H333.772C329.659 458.915 327.479 458.99 327.228 459.091C326.977 459.192 326.802 459.392 326.701 459.693C326.651 459.743 325.799 463.027 324.144 469.546L321.737 479.249H325.875C326.024 479.249 326.601 479.249 327.603 479.249C328.606 479.249 329.308 479.224 329.71 479.174C330.111 479.123 330.662 479.048 331.364 478.948C332.067 478.848 332.668 478.672 333.17 478.421C333.671 478.171 334.098 477.87 334.449 477.519C335.1 476.918 335.651 476.09 336.103 475.036C336.555 473.983 336.881 473.031 337.081 472.179C337.282 471.326 337.407 470.875 337.457 470.825C337.608 470.574 338.084 470.449 338.887 470.449H339.789C340.14 470.699 340.315 470.949 340.315 471.201C340.315 471.351 339.538 474.635 337.983 481.054C336.429 487.472 335.577 490.781 335.426 490.983C335.326 491.334 334.825 491.509 333.923 491.509H333.019C332.668 491.208 332.493 490.907 332.493 490.607C332.493 490.456 332.618 489.904 332.869 488.952C333.12 487.999 333.246 486.997 333.246 485.943C333.246 484.489 332.744 483.587 331.741 483.235C330.738 482.884 328.507 482.708 325.047 482.708H320.909L318.503 492.261C316.898 498.479 316.096 501.738 316.096 502.04C316.096 502.74 318.327 503.091 322.79 503.091H324.67C324.971 503.392 325.122 503.568 325.122 503.619C325.122 503.669 325.072 504.17 324.971 505.122C324.771 505.774 324.521 506.251 324.22 506.552H322.94C320.885 506.451 317.099 506.401 311.583 506.401C308.324 506.401 305.842 506.401 304.137 506.401C302.432 506.401 301.48 506.426 301.278 506.476Z" fill="#EF224B"/>
<path d="M352.307 526.449C352.377 526.449 352.484 526.485 352.626 526.555C352.768 526.626 352.963 526.679 353.21 526.715C353.459 526.75 353.671 526.768 353.849 526.768C354.31 526.768 354.735 526.538 355.125 526.077C355.515 525.616 355.799 525.102 355.976 524.535C356.33 523.577 356.933 520.865 357.783 516.399C358.635 511.932 359.45 507.678 360.23 503.636C361.009 499.594 361.4 497.556 361.4 497.521V497.36H358.9C357.235 497.36 356.349 497.326 356.241 497.254C356.1 497.148 356.029 496.971 356.029 496.723L356.402 495.234C356.472 495.057 356.614 494.968 356.827 494.968C357.039 494.968 357.872 494.951 359.326 494.915C361.028 494.915 361.878 494.898 361.878 494.862C361.878 494.79 362.037 493.904 362.357 492.203C362.676 490.501 362.889 489.473 362.995 489.119C364.307 483.269 366.895 480.345 370.758 480.345C372.071 480.415 373.152 480.804 374.003 481.515C374.853 482.223 375.279 483.163 375.279 484.332C375.279 485.608 374.906 486.53 374.162 487.097C373.417 487.666 372.673 487.966 371.93 488.002C370.369 488.002 369.589 487.258 369.589 485.768C369.589 485.094 369.785 484.51 370.174 484.013C370.564 483.518 370.989 483.145 371.45 482.896L371.93 482.631C371.361 482.418 370.83 482.312 370.333 482.312C369.908 482.312 369.5 482.49 369.11 482.843C368.721 483.198 368.455 483.694 368.313 484.332C368.065 485.36 367.782 486.744 367.462 488.48C367.143 490.217 366.86 491.689 366.612 492.895C366.363 494.099 366.24 494.737 366.24 494.809C366.24 494.879 367.213 494.915 369.163 494.915C370.758 494.915 371.681 494.932 371.93 494.968C372.177 495.004 372.372 495.11 372.514 495.287C372.55 495.429 372.514 495.73 372.408 496.191C372.302 496.652 372.213 496.935 372.142 497.042C372.071 497.219 371.911 497.307 371.663 497.307C371.416 497.307 370.458 497.326 368.791 497.36H365.813L364.59 503.848C362.889 512.641 361.701 518.136 361.028 520.334C360.07 523.346 358.83 525.58 357.305 527.034C355.994 528.168 354.699 528.735 353.424 528.735C352.288 528.735 351.26 528.399 350.339 527.725C349.417 527.052 348.956 526.094 348.956 524.854C348.956 523.542 349.329 522.584 350.073 521.982C350.818 521.379 351.562 521.078 352.307 521.078C353.866 521.078 354.646 521.823 354.646 523.312C354.646 523.985 354.452 524.57 354.061 525.066C353.671 525.563 353.246 525.935 352.785 526.183L352.307 526.449Z" fill="#EF224B"/>
<path d="M376.638 501.486C376.638 501.235 376.688 500.947 376.788 500.621C376.888 500.295 377.039 500.132 377.239 500.132C377.265 500.132 378.167 500.07 379.946 499.945C381.725 499.819 382.641 499.744 382.691 499.719C382.992 499.719 383.141 499.819 383.141 500.019C383.141 500.195 382.515 502.815 381.261 507.878C380.008 512.841 379.382 515.409 379.382 515.584C379.858 515.334 380.221 515.095 380.472 514.87C381.075 514.418 381.938 513.63 383.067 512.501C384.195 511.374 385.072 510.61 385.698 510.208C386.701 509.531 387.654 509.193 388.556 509.193C389.308 509.193 389.896 509.432 390.323 509.908C390.748 510.383 390.975 511.06 391 511.937C391 512.564 390.911 513.091 390.736 513.516C390.56 513.943 390.323 514.255 390.022 514.457C389.722 514.657 389.458 514.795 389.233 514.87C389.006 514.946 388.781 514.983 388.556 514.983C388.055 514.983 387.654 514.845 387.353 514.569C387.052 514.294 386.901 513.931 386.901 513.479C386.901 512.853 387.102 512.339 387.503 511.937C387.904 511.537 388.305 511.273 388.705 511.149L389.308 511.035C389.006 510.734 388.705 510.585 388.405 510.585H388.255C387.452 510.66 386.664 510.973 385.886 511.524C385.11 512.076 384.195 512.878 383.141 513.931C382.089 514.983 381.261 515.747 380.66 516.224C380.71 516.249 380.898 516.286 381.224 516.337C381.55 516.387 381.851 516.461 382.127 516.562C382.402 516.663 382.728 516.762 383.104 516.863C383.48 516.963 383.818 517.138 384.119 517.389C384.42 517.64 384.695 517.866 384.947 518.066C385.197 518.267 385.411 518.593 385.586 519.043C385.76 519.495 385.836 519.908 385.811 520.285C385.811 520.71 385.749 521.224 385.623 521.825C385.498 522.427 385.423 522.929 385.397 523.329C385.397 524.332 385.737 524.833 386.412 524.833C387.615 524.833 388.593 523.342 389.345 520.359C389.396 520.159 389.646 520.058 390.096 520.058H390.248C390.649 520.058 390.849 520.171 390.849 520.397C390.849 520.522 390.812 520.698 390.736 520.923C389.708 524.458 388.23 526.224 386.3 526.224C385.172 526.224 384.257 525.899 383.556 525.247C382.854 524.596 382.503 523.655 382.503 522.427C382.503 521.976 382.54 521.587 382.615 521.261C382.691 520.935 382.728 520.634 382.728 520.359C382.728 519.808 382.553 519.332 382.202 518.931C381.851 518.529 381.412 518.242 380.887 518.066C380.359 517.891 379.934 517.753 379.608 517.652C379.282 517.552 379.057 517.515 378.931 517.54H378.856C378.555 518.593 378.291 519.608 378.066 520.585C377.841 521.562 377.666 522.289 377.54 522.766C377.414 523.242 377.302 523.705 377.201 524.157C377.102 524.607 377.014 524.908 376.939 525.059C376.863 525.209 376.776 525.372 376.675 525.548C376.576 525.723 376.437 525.836 376.262 525.886C375.936 526.111 375.585 526.224 375.208 526.224C374.783 526.224 374.457 526.099 374.232 525.849C374.006 525.597 373.893 525.385 373.893 525.209C373.893 524.959 374.357 522.953 375.284 519.194C376.211 515.435 377.127 511.737 378.029 508.103L379.42 502.652C379.445 502.326 379.358 502.126 379.156 502.05C378.956 501.975 378.467 501.912 377.69 501.862H377.503C377.251 501.862 377.088 501.862 377.014 501.862C376.939 501.862 376.851 501.825 376.751 501.749C376.65 501.674 376.613 501.587 376.638 501.486Z" fill="#EF224B"/>
<path d="M347.81 437.504C347.81 437.104 347.935 436.752 348.185 436.452C348.437 436.151 348.813 436 349.314 436C349.665 436 349.966 436.126 350.216 436.376C350.468 436.576 350.718 437.053 350.969 437.806C351.471 439.66 352.498 441.09 354.053 442.093C354.604 442.444 354.88 442.894 354.88 443.447C354.88 443.897 354.805 444.198 354.654 444.349C354.503 444.5 354.154 444.725 353.601 445.026C351.446 446.129 349.564 447.709 347.96 449.765C347.859 449.865 347.735 450.015 347.584 450.215C347.434 450.416 347.308 450.566 347.208 450.667C347.108 450.767 346.982 450.818 346.831 450.818C346.682 450.818 346.506 450.843 346.305 450.892C345.954 450.892 345.629 450.767 345.328 450.517C345.027 450.265 344.851 449.889 344.802 449.388C344.802 448.436 345.98 446.956 348.336 444.95H335.474L322.613 444.875C321.961 444.424 321.635 443.947 321.635 443.447C321.635 443.096 321.961 442.593 322.613 441.942H349.615C348.412 440.037 347.81 438.557 347.81 437.504Z" fill="#EF224B"/>
<path d="M368.154 236.635C367.384 236.635 367 236.408 367 235.956C367 235.865 367.069 235.548 367.204 235.004C367.384 234.28 367.566 233.873 367.747 233.783C367.928 233.692 368.448 233.625 369.309 233.579C370.532 233.579 371.89 233.51 373.384 233.375C374.018 233.239 374.448 232.968 374.674 232.561C374.765 232.334 376.372 225.972 379.495 213.477C382.62 200.98 384.204 194.642 384.25 194.461C384.25 194.144 384.16 193.985 383.979 193.985C383.616 193.849 382.416 193.736 380.379 193.646H378.274C378.002 193.374 377.866 193.193 377.866 193.102C377.866 193.012 377.912 192.627 378.002 191.948C378.183 191.178 378.41 190.703 378.681 190.522H415.286C415.603 190.703 415.762 190.952 415.762 191.269C415.762 191.495 415.468 194.031 414.879 198.875C414.291 203.719 413.974 206.21 413.928 206.346C413.838 206.663 413.385 206.821 412.57 206.821H411.754C411.439 206.594 411.28 206.3 411.28 205.937C411.28 205.893 411.347 205.349 411.483 204.308C411.619 203.267 411.687 202.067 411.687 200.709C411.687 199.35 411.529 198.241 411.212 197.381C410.895 196.521 410.465 195.819 409.922 195.276C409.378 194.732 408.541 194.37 407.408 194.189C406.277 194.008 405.122 193.849 403.945 193.714C402.768 193.578 401.138 193.555 399.055 193.646H397.494C393.78 193.691 391.811 193.759 391.585 193.849C391.358 193.94 391.2 194.121 391.11 194.393C391.064 194.438 390.294 197.404 388.8 203.289L386.627 212.05H390.363C390.498 212.05 391.018 212.05 391.924 212.05C392.829 212.05 393.463 212.027 393.826 211.983C394.187 211.937 394.686 211.869 395.32 211.779C395.954 211.687 396.497 211.53 396.95 211.303C397.402 211.077 397.788 210.805 398.105 210.488C398.693 209.945 399.19 209.198 399.599 208.247C400.006 207.296 400.3 206.436 400.482 205.666C400.663 204.896 400.776 204.489 400.821 204.443C400.957 204.218 401.387 204.105 402.111 204.105H402.927C403.244 204.331 403.402 204.558 403.402 204.783C403.402 204.919 402.7 207.885 401.296 213.68C399.893 219.475 399.123 222.463 398.988 222.645C398.896 222.962 398.444 223.12 397.629 223.12H396.814C396.497 222.849 396.338 222.577 396.338 222.305C396.338 222.169 396.451 221.672 396.678 220.811C396.904 219.951 397.018 219.045 397.018 218.094C397.018 216.782 396.565 215.966 395.66 215.649C394.754 215.332 392.739 215.174 389.616 215.174H385.88L383.707 223.8C382.258 229.413 381.533 232.356 381.533 232.628C381.533 233.262 383.549 233.579 387.578 233.579H389.276C389.547 233.85 389.683 234.009 389.683 234.055C389.683 234.099 389.637 234.552 389.547 235.413C389.366 236.001 389.14 236.431 388.869 236.702H387.713C385.857 236.612 382.439 236.567 377.459 236.567C374.515 236.567 372.274 236.567 370.735 236.567C369.195 236.567 368.335 236.59 368.154 236.635Z" fill="#20861E"/>
<path d="M410.009 174.358C410.009 173.996 410.122 173.679 410.349 173.407C410.576 173.136 410.915 173 411.368 173C411.685 173 411.956 173.113 412.183 173.34C412.409 173.521 412.636 173.951 412.861 174.63C413.314 176.305 414.242 177.595 415.646 178.501C416.145 178.818 416.393 179.225 416.393 179.723C416.393 180.131 416.326 180.403 416.189 180.538C416.053 180.674 415.736 180.878 415.239 181.15C413.293 182.146 411.595 183.572 410.145 185.428C410.055 185.519 409.942 185.655 409.806 185.836C409.669 186.017 409.557 186.153 409.467 186.243C409.375 186.334 409.262 186.379 409.127 186.379C408.991 186.379 408.832 186.402 408.651 186.447C408.334 186.447 408.04 186.334 407.768 186.107C407.497 185.881 407.339 185.541 407.293 185.089C407.293 184.228 408.357 182.893 410.485 181.082H398.872L387.259 181.014C386.669 180.606 386.375 180.176 386.375 179.723C386.375 179.407 386.669 178.954 387.259 178.365H411.639C410.553 176.645 410.009 175.309 410.009 174.358Z" fill="#20861E"/>
<path d="M429.598 216.305C429.503 216.305 429.374 216.305 429.214 216.305C428.415 216.305 427.934 216.289 427.774 216.256C427.614 216.224 427.533 216.048 427.533 215.728C427.533 214.863 427.709 214.335 428.063 214.143C428.126 214.112 429.679 214.096 432.719 214.096C435.184 214.096 436.592 214.096 436.944 214.096C437.297 214.096 437.52 214.192 437.617 214.384C444.371 230.261 447.813 238.407 447.94 238.824L450.533 228.596C452.23 221.843 453.078 218.241 453.078 217.793C453.078 216.928 452.054 216.432 450.005 216.305C449.237 216.305 448.853 216.129 448.853 215.777C448.853 215.712 448.885 215.52 448.948 215.2C449.077 214.687 449.172 214.384 449.237 214.288C449.3 214.192 449.461 214.127 449.716 214.096C449.813 214.096 450.309 214.112 451.205 214.143C452.101 214.175 453.43 214.208 455.191 214.24C456.791 214.24 458.007 214.224 458.84 214.192C459.671 214.159 460.152 214.143 460.28 214.143C460.76 214.143 461 214.304 461 214.624C461 215.328 460.872 215.808 460.616 216.064C460.553 216.224 460.199 216.305 459.56 216.305C457.287 216.432 455.863 217.073 455.286 218.225L448.132 246.554C448.068 246.778 447.732 246.89 447.124 246.89C446.676 246.89 446.403 246.858 446.308 246.794C446.211 246.698 444.146 241.848 440.113 232.245L434.015 217.889L430.895 230.372C428.814 238.567 427.774 242.808 427.774 243.097C427.934 244.153 429.086 244.681 431.23 244.681H431.711C431.904 244.841 431.999 244.969 431.999 245.065C431.999 245.161 431.967 245.466 431.904 245.978C431.775 246.394 431.615 246.698 431.423 246.89H430.799C429.806 246.825 428.077 246.794 425.613 246.794C424.717 246.794 423.901 246.794 423.164 246.794C422.428 246.794 421.836 246.794 421.388 246.794C420.94 246.794 420.668 246.809 420.572 246.841C420.092 246.841 419.851 246.698 419.851 246.41C419.851 246.281 419.9 246.026 419.995 245.642C420.092 245.258 420.171 245.033 420.236 244.969C420.3 244.777 420.668 244.681 421.34 244.681C423.516 244.584 424.926 243.961 425.565 242.808C425.693 242.616 426.829 238.183 428.975 229.508L432.239 216.449C432.175 216.416 431.295 216.368 429.598 216.305Z" fill="#20861E"/>
<path d="M792.262 508.57C791.421 508.57 791 508.323 791 507.827C791 507.729 791.074 507.382 791.223 506.788C791.421 505.995 791.618 505.55 791.817 505.451C792.015 505.353 792.584 505.278 793.524 505.228C794.861 505.228 796.346 505.154 797.979 505.006C798.672 504.857 799.142 504.56 799.39 504.115C799.489 503.868 801.246 496.912 804.662 483.252C808.077 469.59 809.81 462.66 809.858 462.462C809.858 462.116 809.76 461.942 809.561 461.942C809.166 461.793 807.855 461.671 805.627 461.571H803.326C803.029 461.274 802.88 461.077 802.88 460.977C802.88 460.878 802.929 460.457 803.028 459.714C803.226 458.873 803.474 458.354 803.771 458.155H843.79C844.136 458.354 844.31 458.626 844.31 458.972C844.31 459.22 843.987 461.992 843.345 467.288C842.701 472.584 842.354 475.307 842.305 475.455C842.206 475.802 841.711 475.975 840.82 475.975H839.929C839.582 475.728 839.41 475.405 839.41 475.01C839.41 474.96 839.484 474.366 839.632 473.228C839.781 472.09 839.855 470.778 839.855 469.293C839.855 467.808 839.681 466.595 839.335 465.654C838.988 464.715 838.519 463.947 837.925 463.353C837.331 462.759 836.414 462.363 835.177 462.165C833.939 461.968 832.677 461.793 831.391 461.645C830.104 461.496 828.322 461.472 826.045 461.571H824.337C820.279 461.621 818.126 461.695 817.877 461.793C817.63 461.893 817.457 462.09 817.357 462.387C817.309 462.437 816.466 465.68 814.833 472.114L812.457 481.692H816.541C816.689 481.692 817.259 481.692 818.248 481.692C819.239 481.692 819.932 481.667 820.327 481.618C820.724 481.568 821.268 481.494 821.961 481.395C822.653 481.296 823.247 481.123 823.743 480.876C824.238 480.627 824.658 480.33 825.005 479.985C825.649 479.391 826.193 478.574 826.639 477.534C827.084 476.495 827.405 475.554 827.604 474.713C827.802 473.872 827.925 473.426 827.975 473.376C828.124 473.129 828.593 473.005 829.386 473.005H830.277C830.624 473.252 830.797 473.501 830.797 473.748C830.797 473.896 830.03 477.139 828.495 483.474C826.96 489.81 826.119 493.077 825.97 493.274C825.872 493.621 825.376 493.794 824.485 493.794H823.594C823.247 493.497 823.075 493.2 823.075 492.903C823.075 492.754 823.199 492.21 823.446 491.269C823.693 490.33 823.817 489.34 823.817 488.301C823.817 486.864 823.322 485.973 822.332 485.628C821.343 485.281 819.139 485.108 815.724 485.108H811.64L809.264 494.536C807.681 500.675 806.89 503.892 806.89 504.189C806.89 504.881 809.091 505.228 813.496 505.228H815.353C815.65 505.525 815.798 505.698 815.798 505.748C815.798 505.798 815.75 506.292 815.65 507.233C815.453 507.877 815.204 508.347 814.907 508.644H813.645C811.616 508.545 807.879 508.495 802.434 508.495C799.216 508.495 796.767 508.495 795.084 508.495C793.4 508.495 792.461 508.52 792.262 508.57Z" fill="#6C63FF"/>
<path d="M838.02 440.485C838.02 440.089 838.145 439.743 838.392 439.446C838.64 439.149 839.011 439 839.505 439C839.852 439 840.149 439.124 840.397 439.371C840.644 439.57 840.892 440.04 841.139 440.782C841.634 442.614 842.648 444.023 844.183 445.014C844.727 445.36 845 445.805 845 446.351C845 446.796 844.926 447.093 844.777 447.242C844.629 447.39 844.282 447.613 843.738 447.91C841.609 448.998 839.753 450.557 838.169 452.588C838.07 452.686 837.946 452.835 837.798 453.033C837.649 453.23 837.526 453.379 837.426 453.479C837.328 453.577 837.204 453.627 837.055 453.627C836.907 453.627 836.734 453.652 836.535 453.702C836.19 453.702 835.867 453.577 835.57 453.33C835.273 453.082 835.1 452.711 835.05 452.217C835.05 451.276 836.214 449.815 838.54 447.836H825.845L813.148 447.762C812.504 447.316 812.183 446.845 812.183 446.351C812.183 446.004 812.504 445.508 813.148 444.866H839.803C838.615 442.984 838.02 441.525 838.02 440.485Z" fill="#6C63FF"/>
<path d="M305 582L365 616.641V547.359L305 582ZM501 576H359V588H501V576Z" fill="#EF224B"/>
<path d="M500 985L534.641 925H465.359L500 985ZM494 587V931H506V587H494Z" fill="#DF46FA"/>
<circle cx="500" cy="582" r="8.5" fill="black" stroke="black"/>
<path d="M1027.89 572.29C1028.4 569.308 1030.4 565.866 1033.87 561.962C1037.35 558.058 1041.63 556.071 1046.74 556C1049.32 556 1051.69 556.639 1053.83 557.916C1055.98 559.194 1057.56 560.791 1058.6 562.707C1061.7 558.236 1065.44 556 1069.8 556C1072.53 556 1074.9 556.781 1076.9 558.342C1078.89 559.904 1079.93 561.998 1080 564.624C1080 566.682 1079.48 568.35 1078.45 569.628C1077.41 570.906 1076.41 571.686 1075.45 571.97C1074.49 572.254 1073.64 572.396 1072.9 572.396C1071.5 572.396 1070.35 572.006 1069.47 571.225C1068.58 570.444 1068.14 569.415 1068.14 568.137C1068.14 564.872 1069.98 562.636 1073.68 561.43C1072.87 560.507 1071.39 560.046 1069.24 560.046C1068.28 560.046 1067.58 560.117 1067.14 560.259C1064.33 561.394 1062.26 563.737 1060.93 567.286C1056.49 582.972 1054.28 592.128 1054.28 594.754C1054.28 596.742 1054.87 598.161 1056.05 599.013C1057.23 599.865 1058.53 600.291 1059.93 600.291C1062.67 600.291 1065.36 599.12 1068.02 596.777C1070.69 594.435 1072.5 591.56 1073.46 588.153C1073.68 587.444 1073.9 587.053 1074.12 586.982C1074.34 586.911 1074.94 586.84 1075.9 586.769H1076.34C1077.45 586.769 1078 587.053 1078 587.621C1078 587.692 1077.93 588.082 1077.78 588.792C1076.6 592.838 1074.31 596.422 1070.91 599.545C1067.51 602.668 1063.55 604.23 1059.04 604.23C1053.87 604.23 1049.95 601.994 1047.29 597.522C1044.26 601.923 1040.78 604.124 1036.87 604.124H1036.2C1032.58 604.124 1029.99 603.201 1028.44 601.355C1026.89 599.51 1026.07 597.558 1026 595.5C1026 593.228 1026.7 591.383 1028.11 589.963C1029.51 588.544 1031.17 587.834 1033.1 587.834C1036.28 587.834 1037.86 589.324 1037.86 592.306C1037.86 593.725 1037.42 594.967 1036.53 596.032C1035.65 597.097 1034.8 597.806 1033.98 598.161C1033.17 598.516 1032.69 598.694 1032.54 598.694L1032.21 598.8C1032.21 598.871 1032.43 599.013 1032.87 599.226C1033.32 599.439 1033.91 599.687 1034.65 599.971C1035.39 600.255 1036.09 600.362 1036.76 600.291C1039.42 600.291 1041.71 598.694 1043.63 595.5C1044.3 594.364 1045.15 591.951 1046.18 588.26C1047.22 584.569 1048.25 580.736 1049.29 576.761C1050.32 572.786 1050.91 570.444 1051.06 569.734C1051.43 567.818 1051.61 566.434 1051.61 565.582C1051.61 563.595 1051.06 562.175 1049.95 561.323C1048.84 560.472 1047.59 560.046 1046.18 560.046C1043.22 560.046 1040.45 561.181 1037.86 563.453C1035.28 565.724 1033.47 568.634 1032.43 572.183C1032.28 572.822 1032.1 573.177 1031.88 573.248C1031.66 573.319 1031.06 573.39 1030.1 573.461H1028.55C1028.11 573.035 1027.89 572.644 1027.89 572.29Z" fill="black"/>
<path d="M477 14.7353C477 13.8482 477.473 12.3273 478.42 10.1729C479.367 8.0184 480.882 5.76888 482.965 3.42431C485.048 1.07974 487.384 -0.060866 489.972 0.00250079C492.56 0.00250079 494.643 0.731219 496.221 2.18866C497.8 3.64609 498.62 5.67383 498.683 8.27187C498.557 9.47584 498.462 10.1412 498.399 10.2679C498.399 10.458 497.894 11.9155 496.884 14.6402C495.874 17.365 494.833 20.4383 493.76 23.8601C492.686 27.2819 492.181 30.0067 492.245 32.0344C492.245 34.7592 492.686 36.6602 493.57 37.7374C494.454 38.8147 495.78 39.385 497.547 39.4483C498.999 39.4483 500.356 39.0998 501.619 38.4028C502.881 37.7058 503.86 36.977 504.554 36.2166C505.248 35.4562 506.1 34.4107 507.11 33.08C507.11 33.0166 507.268 32.3829 507.584 31.179C507.9 29.975 508.341 28.1057 508.91 25.571C509.478 23.0363 510.077 20.6918 510.709 18.5373C513.107 9.03227 514.433 4.05798 514.685 3.61441C515.506 1.90351 516.863 1.04805 518.757 1.04805C519.578 1.04805 520.24 1.26984 520.745 1.7134C521.25 2.15697 521.598 2.53717 521.787 2.85401C521.976 3.17084 522.039 3.45599 521.976 3.70946C521.976 4.53323 520.43 11.1867 517.337 23.67C514.244 36.1533 512.476 42.9969 512.034 44.2009C510.267 49.4603 507.205 53.6425 502.85 56.7475C498.494 59.8525 494.138 61.4366 489.783 61.5C486.942 61.5 484.449 60.803 482.302 59.4089C480.156 58.0148 479.083 55.9237 479.083 53.1356C479.083 51.7415 479.304 50.5692 479.746 49.6187C480.188 48.6682 480.787 47.9712 481.545 47.5276C482.302 47.084 482.934 46.7672 483.439 46.5771C483.944 46.387 484.48 46.292 485.048 46.292C487.826 46.292 489.215 47.6227 489.215 50.2841C489.215 51.5514 488.836 52.6603 488.078 53.6108C487.321 54.5613 486.595 55.195 485.901 55.5118C485.206 55.8287 484.796 55.9871 484.67 55.9871L484.386 56.0821C484.512 56.399 485.112 56.7792 486.185 57.2227C487.258 57.6663 488.331 57.8881 489.404 57.8881H490.161C491.235 57.8881 492.055 57.8247 492.623 57.698C494.706 57.1277 496.632 55.9237 498.399 54.0861C500.167 52.2484 501.524 50.2841 502.471 48.193C503.418 46.1019 504.144 44.3276 504.649 42.8702C505.154 41.4127 505.406 40.4622 505.406 40.0186L504.838 40.3988C504.459 40.6523 503.86 41.0008 503.039 41.4444C502.218 41.888 501.398 42.2682 500.577 42.585C499.315 42.9018 498.084 43.0603 496.884 43.0603C493.981 43.0603 491.424 42.3632 489.215 40.9692C487.005 39.5751 485.553 37.3256 484.859 34.2206C484.796 33.777 484.764 32.7948 484.764 31.274C484.764 27.6621 485.869 22.9413 488.078 17.1115C490.288 11.2818 491.392 7.57484 491.392 5.99067C491.392 5.9273 491.392 5.86393 491.392 5.80056C491.392 5.23026 491.392 4.85006 491.392 4.65996C491.392 4.46986 491.266 4.24808 491.014 3.99461C490.761 3.74114 490.414 3.61441 489.972 3.61441H489.593C488.142 3.61441 486.816 4.21639 485.617 5.42036C484.417 6.62433 483.47 7.92335 482.776 9.31742C482.082 10.7115 481.545 12.0422 481.166 13.3095C480.787 14.5769 480.535 15.2739 480.409 15.4006C480.282 15.5274 479.777 15.5907 478.894 15.5907H477.568C477.189 15.2105 477 14.9254 477 14.7353Z" fill="black"/>
</svg>
