<svg width="584" height="911" viewBox="0 0 584 911" fill="none" xmlns="http://www.w3.org/2000/svg">
<path d="M503.121 584.121C504.293 582.95 504.293 581.05 503.121 579.879L484.029 560.787C482.858 559.615 480.958 559.615 479.787 560.787C478.615 561.958 478.615 563.858 479.787 565.029L496.757 582L479.787 598.971C478.615 600.142 478.615 602.042 479.787 603.213C480.958 604.385 482.858 604.385 484.029 603.213L503.121 584.121ZM0 585H501V579H0V585Z" fill="black"/>
<path d="M259.121 79.8787C257.95 78.7071 256.05 78.7071 254.879 79.8787L235.787 98.9706C234.615 100.142 234.615 102.042 235.787 103.213C236.958 104.385 238.858 104.385 240.029 103.213L257 86.2426L273.971 103.213C275.142 104.385 277.042 104.385 278.213 103.213C279.385 102.042 279.385 100.142 278.213 98.9706L259.121 79.8787ZM260 911L260 82H254L254 911H260Z" fill="black"/>
<path d="M257 173L291.641 233H222.359L257 173ZM251 583L251 227H263V583H251Z" fill="#20861E"/>
<path d="M148.122 793.467C147.374 793.467 147 793.246 147 792.807C147 792.719 147.066 792.411 147.198 791.883C147.374 791.179 147.551 790.783 147.726 790.695C147.902 790.607 148.408 790.54 149.245 790.497C150.433 790.497 151.753 790.43 153.204 790.299C153.821 790.166 154.239 789.903 154.458 789.507C154.547 789.286 156.109 783.104 159.145 770.959C162.182 758.814 163.721 752.654 163.766 752.477C163.766 752.17 163.678 752.015 163.501 752.015C163.15 751.883 161.983 751.773 160.003 751.685H157.957C157.693 751.421 157.56 751.246 157.56 751.158C157.56 751.07 157.605 750.695 157.693 750.035C157.868 749.287 158.089 748.825 158.353 748.648H193.929C194.237 748.825 194.392 749.068 194.392 749.375C194.392 749.595 194.106 752.06 193.533 756.767C192.962 761.477 192.654 763.896 192.61 764.028C192.521 764.336 192.082 764.49 191.29 764.49H190.498C190.19 764.271 190.035 763.985 190.035 763.632C190.035 763.589 190.102 763.06 190.233 762.048C190.365 761.036 190.431 759.869 190.431 758.55C190.431 757.23 190.278 756.152 189.97 755.316C189.661 754.479 189.243 753.797 188.716 753.27C188.188 752.742 187.373 752.389 186.273 752.213C185.173 752.038 184.051 751.883 182.906 751.752C181.763 751.619 180.179 751.597 178.155 751.685H176.636C173.028 751.729 171.114 751.795 170.895 751.883C170.674 751.971 170.52 752.148 170.432 752.411C170.387 752.456 169.64 755.338 168.187 761.058L166.076 769.573H169.706C169.838 769.573 170.344 769.573 171.224 769.573C172.104 769.573 172.72 769.551 173.072 769.506C173.424 769.463 173.908 769.396 174.524 769.308C175.14 769.221 175.669 769.067 176.108 768.847C176.548 768.627 176.922 768.363 177.23 768.055C177.802 767.526 178.287 766.8 178.683 765.877C179.079 764.953 179.365 764.116 179.541 763.369C179.716 762.62 179.826 762.224 179.871 762.181C180.002 761.96 180.42 761.85 181.124 761.85H181.916C182.225 762.071 182.379 762.291 182.379 762.51C182.379 762.642 181.696 765.524 180.333 771.157C178.969 776.79 178.22 779.694 178.089 779.87C178 780.178 177.561 780.331 176.769 780.331H175.977C175.669 780.068 175.514 779.804 175.514 779.539C175.514 779.408 175.624 778.923 175.844 778.088C176.065 777.251 176.175 776.371 176.175 775.447C176.175 774.171 175.734 773.379 174.854 773.071C173.975 772.763 172.016 772.61 168.979 772.61H165.35L163.237 780.992C161.829 786.448 161.125 789.309 161.125 789.572C161.125 790.189 163.083 790.497 166.999 790.497H168.65C168.914 790.76 169.046 790.915 169.046 790.958C169.046 791.003 169.001 791.442 168.914 792.279C168.738 792.85 168.518 793.269 168.254 793.532H167.132C165.327 793.444 162.005 793.401 157.164 793.401C154.305 793.401 152.127 793.401 150.631 793.401C149.134 793.401 148.298 793.423 148.122 793.467Z" fill="#D46FA0"/>
<path d="M188.801 732.939C188.801 732.588 188.911 732.28 189.131 732.016C189.352 731.751 189.681 731.62 190.121 731.62C190.43 731.62 190.693 731.73 190.913 731.949C191.134 732.126 191.354 732.543 191.573 733.204C192.013 734.831 192.916 736.086 194.279 736.966C194.763 737.274 195.006 737.67 195.006 738.154C195.006 738.551 194.94 738.814 194.808 738.947C194.675 739.078 194.367 739.276 193.883 739.541C191.991 740.509 190.342 741.894 188.933 743.699C188.846 743.787 188.735 743.919 188.603 744.095C188.471 744.27 188.362 744.403 188.273 744.491C188.185 744.578 188.075 744.623 187.944 744.623C187.811 744.623 187.658 744.645 187.481 744.689C187.173 744.689 186.887 744.578 186.623 744.358C186.36 744.139 186.205 743.809 186.162 743.368C186.162 742.533 187.195 741.235 189.264 739.474H177.976L166.69 739.408C166.118 739.012 165.831 738.594 165.831 738.154C165.831 737.847 166.118 737.406 166.69 736.835H190.385C189.329 735.162 188.801 733.864 188.801 732.939Z" fill="#D46FA0"/>
<path d="M211.433 801.426C210.966 801.832 210.281 802.267 209.379 802.734C208.477 803.2 207.528 803.434 206.532 803.434C204.573 803.434 203.002 802.734 201.819 801.334C200.638 799.933 200.031 798.145 200 795.967C200 792.701 201.198 789.698 203.593 786.961C205.989 784.223 208.648 782.838 211.573 782.808C213.035 782.808 214.388 783.554 215.633 785.047L215.773 784.86C215.836 784.768 215.913 784.674 216.006 784.581C216.1 784.487 216.24 784.362 216.426 784.208C216.613 784.052 216.815 783.943 217.033 783.881C217.25 783.818 217.5 783.772 217.779 783.741C218.215 783.741 218.573 783.881 218.853 784.16C219.133 784.441 219.289 784.737 219.32 785.047C219.32 785.514 218.433 789.278 216.659 796.34C214.886 803.402 213.953 807.012 213.859 807.166C213.299 808.847 212.102 810.232 210.266 811.319C208.431 812.409 206.33 812.969 203.966 813C199.58 813 197.387 811.942 197.387 809.826C197.387 809.018 197.666 808.303 198.226 807.68C198.786 807.058 199.503 806.747 200.373 806.747C200.84 806.747 201.275 806.887 201.679 807.166C202.084 807.447 202.302 807.929 202.333 808.614C202.333 808.924 202.302 809.22 202.24 809.501C202.177 809.78 202.069 809.998 201.913 810.153C201.758 810.309 201.633 810.465 201.54 810.62C201.446 810.776 201.338 810.9 201.213 810.994L201.119 811.086H201.167C201.477 811.18 202.411 811.227 203.966 811.227C205.149 811.227 206.082 811.04 206.766 810.667C207.482 810.324 208.151 809.811 208.773 809.126C209.396 808.443 209.831 807.712 210.079 806.933C210.266 806.342 210.515 805.377 210.827 804.04C211.231 802.547 211.433 801.676 211.433 801.426ZM214.84 788.127L214.653 787.613C214.559 787.272 214.482 787.038 214.42 786.914C214.357 786.789 214.264 786.572 214.14 786.261C214.015 785.949 213.859 785.732 213.674 785.607C213.486 785.483 213.284 785.312 213.066 785.093C212.849 784.876 212.568 784.737 212.226 784.674C211.885 784.612 211.541 784.564 211.2 784.534C209.831 784.534 208.509 785.358 207.234 787.007C206.299 788.221 205.522 790.071 204.899 792.56C204.278 795.049 203.966 796.854 203.966 797.973C203.966 800.431 204.931 801.66 206.859 801.66C208.602 801.66 210.313 800.572 211.993 798.394L212.366 797.927L214.84 788.127Z" fill="#D46FA0"/>
<path d="M125.154 236.635C124.384 236.635 124 236.408 124 235.956C124 235.865 124.069 235.548 124.204 235.004C124.384 234.28 124.566 233.873 124.747 233.783C124.928 233.692 125.448 233.625 126.309 233.579C127.532 233.579 128.89 233.51 130.384 233.375C131.018 233.239 131.448 232.968 131.674 232.561C131.765 232.334 133.372 225.972 136.495 213.477C139.62 200.98 141.204 194.642 141.25 194.461C141.25 194.144 141.16 193.985 140.979 193.985C140.616 193.849 139.416 193.736 137.379 193.646H135.274C135.002 193.374 134.866 193.193 134.866 193.102C134.866 193.012 134.912 192.627 135.002 191.948C135.183 191.178 135.41 190.703 135.681 190.522H172.286C172.603 190.703 172.762 190.952 172.762 191.269C172.762 191.495 172.468 194.031 171.879 198.875C171.291 203.719 170.974 206.21 170.928 206.346C170.838 206.663 170.385 206.821 169.57 206.821H168.754C168.439 206.594 168.28 206.3 168.28 205.937C168.28 205.893 168.347 205.349 168.483 204.308C168.619 203.267 168.687 202.067 168.687 200.709C168.687 199.35 168.529 198.241 168.212 197.381C167.895 196.521 167.465 195.819 166.922 195.276C166.378 194.732 165.541 194.37 164.408 194.189C163.277 194.008 162.122 193.849 160.945 193.714C159.768 193.578 158.138 193.555 156.055 193.646H154.494C150.78 193.691 148.811 193.759 148.585 193.849C148.358 193.94 148.2 194.121 148.11 194.393C148.064 194.438 147.294 197.404 145.8 203.289L143.627 212.05H147.363C147.498 212.05 148.018 212.05 148.924 212.05C149.829 212.05 150.463 212.027 150.826 211.983C151.187 211.937 151.686 211.869 152.32 211.779C152.954 211.687 153.497 211.53 153.95 211.303C154.402 211.077 154.788 210.805 155.105 210.488C155.693 209.945 156.19 209.198 156.599 208.247C157.006 207.296 157.3 206.436 157.482 205.666C157.663 204.896 157.776 204.489 157.821 204.443C157.957 204.218 158.387 204.105 159.111 204.105H159.927C160.244 204.331 160.402 204.558 160.402 204.783C160.402 204.919 159.7 207.885 158.296 213.68C156.893 219.475 156.123 222.463 155.988 222.645C155.896 222.962 155.444 223.12 154.629 223.12H153.814C153.497 222.849 153.338 222.577 153.338 222.305C153.338 222.169 153.451 221.672 153.678 220.811C153.904 219.951 154.018 219.045 154.018 218.094C154.018 216.782 153.565 215.966 152.66 215.649C151.754 215.332 149.739 215.174 146.616 215.174H142.88L140.707 223.8C139.258 229.413 138.533 232.356 138.533 232.628C138.533 233.262 140.549 233.579 144.578 233.579H146.276C146.547 233.85 146.683 234.009 146.683 234.055C146.683 234.099 146.637 234.552 146.547 235.413C146.366 236.001 146.14 236.431 145.869 236.702H144.713C142.857 236.612 139.439 236.567 134.459 236.567C131.515 236.567 129.274 236.567 127.735 236.567C126.195 236.567 125.335 236.59 125.154 236.635Z" fill="#20861E"/>
<path d="M167.009 174.358C167.009 173.996 167.122 173.679 167.349 173.407C167.576 173.136 167.915 173 168.368 173C168.685 173 168.956 173.113 169.183 173.34C169.409 173.521 169.636 173.951 169.861 174.63C170.314 176.305 171.242 177.595 172.646 178.501C173.145 178.818 173.393 179.225 173.393 179.723C173.393 180.131 173.326 180.403 173.189 180.538C173.053 180.674 172.736 180.878 172.239 181.15C170.293 182.146 168.595 183.572 167.145 185.428C167.055 185.519 166.942 185.655 166.806 185.836C166.669 186.017 166.557 186.153 166.467 186.243C166.375 186.334 166.262 186.379 166.127 186.379C165.991 186.379 165.832 186.402 165.651 186.447C165.334 186.447 165.04 186.334 164.768 186.107C164.497 185.881 164.339 185.541 164.293 185.089C164.293 184.228 165.357 182.893 167.485 181.082H155.872L144.259 181.014C143.669 180.606 143.375 180.176 143.375 179.723C143.375 179.407 143.669 178.954 144.259 178.365H168.639C167.553 176.645 167.009 175.309 167.009 174.358Z" fill="#20861E"/>
<path d="M186.598 216.305C186.503 216.305 186.374 216.305 186.214 216.305C185.415 216.305 184.934 216.289 184.774 216.256C184.614 216.224 184.533 216.048 184.533 215.728C184.533 214.863 184.709 214.335 185.063 214.143C185.126 214.112 186.679 214.096 189.719 214.096C192.184 214.096 193.592 214.096 193.944 214.096C194.297 214.096 194.52 214.192 194.617 214.384C201.371 230.261 204.813 238.407 204.94 238.824L207.533 228.596C209.23 221.843 210.078 218.241 210.078 217.793C210.078 216.928 209.054 216.432 207.005 216.305C206.237 216.305 205.853 216.129 205.853 215.777C205.853 215.712 205.885 215.52 205.948 215.2C206.077 214.687 206.172 214.384 206.237 214.288C206.3 214.192 206.461 214.127 206.716 214.096C206.813 214.096 207.309 214.112 208.205 214.143C209.101 214.175 210.43 214.208 212.191 214.24C213.791 214.24 215.007 214.224 215.84 214.192C216.671 214.159 217.152 214.143 217.28 214.143C217.76 214.143 218 214.304 218 214.624C218 215.328 217.872 215.808 217.616 216.064C217.553 216.224 217.199 216.305 216.56 216.305C214.287 216.432 212.863 217.073 212.286 218.225L205.132 246.554C205.068 246.778 204.732 246.89 204.124 246.89C203.676 246.89 203.403 246.858 203.308 246.794C203.211 246.698 201.146 241.848 197.113 232.245L191.015 217.889L187.895 230.372C185.814 238.567 184.774 242.808 184.774 243.097C184.934 244.153 186.086 244.681 188.23 244.681H188.711C188.904 244.841 188.999 244.969 188.999 245.065C188.999 245.161 188.967 245.466 188.904 245.978C188.775 246.394 188.615 246.698 188.423 246.89H187.799C186.806 246.825 185.077 246.794 182.613 246.794C181.717 246.794 180.901 246.794 180.164 246.794C179.428 246.794 178.836 246.794 178.388 246.794C177.94 246.794 177.668 246.809 177.572 246.841C177.092 246.841 176.851 246.698 176.851 246.41C176.851 246.281 176.9 246.026 176.995 245.642C177.092 245.258 177.171 245.033 177.236 244.969C177.3 244.777 177.668 244.681 178.34 244.681C180.516 244.584 181.926 243.961 182.565 242.808C182.693 242.616 183.829 238.183 185.975 229.508L189.239 216.449C189.175 216.416 188.295 216.368 186.598 216.305Z" fill="#20861E"/>
<path d="M257 819L291.641 759H222.359L257 819ZM251 587V765H263V587H251Z" fill="#DF46FA"/>
<circle cx="257" cy="582" r="8.5" fill="black" stroke="black"/>
<path d="M531.885 572.29C532.402 569.308 534.398 565.866 537.873 561.962C541.347 558.058 545.634 556.071 550.735 556C553.322 556 555.688 556.639 557.832 557.916C559.975 559.194 561.565 560.791 562.6 562.707C565.704 558.236 569.437 556 573.799 556C576.534 556 578.899 556.781 580.895 558.342C582.891 559.904 583.926 561.998 584 564.624C584 566.682 583.483 568.35 582.448 569.628C581.413 570.906 580.415 571.686 579.454 571.97C578.493 572.254 577.643 572.396 576.903 572.396C575.499 572.396 574.353 572.006 573.466 571.225C572.579 570.444 572.136 569.415 572.136 568.137C572.136 564.872 573.984 562.636 577.68 561.43C576.867 560.507 575.388 560.046 573.244 560.046C572.283 560.046 571.581 560.117 571.138 560.259C568.329 561.394 566.259 563.737 564.928 567.286C560.493 582.972 558.275 592.128 558.275 594.754C558.275 596.742 558.867 598.161 560.049 599.013C561.232 599.865 562.526 600.291 563.93 600.291C566.665 600.291 569.363 599.12 572.025 596.777C574.686 594.435 576.497 591.56 577.458 588.153C577.68 587.444 577.901 587.053 578.123 586.982C578.345 586.911 578.936 586.84 579.897 586.769H580.341C581.45 586.769 582.004 587.053 582.004 587.621C582.004 587.692 581.93 588.082 581.782 588.792C580.6 592.838 578.308 596.422 574.908 599.545C571.507 602.668 567.552 604.23 563.043 604.23C557.869 604.23 553.951 601.994 551.29 597.522C548.259 601.923 544.784 604.124 540.867 604.124H540.201C536.579 604.124 533.992 603.201 532.439 601.355C530.887 599.51 530.074 597.558 530 595.5C530 593.228 530.702 591.383 532.107 589.963C533.511 588.544 535.175 587.834 537.097 587.834C540.275 587.834 541.864 589.324 541.864 592.306C541.864 593.725 541.421 594.967 540.534 596.032C539.647 597.097 538.797 597.806 537.984 598.161C537.17 598.516 536.69 598.694 536.542 598.694L536.209 598.8C536.209 598.871 536.431 599.013 536.875 599.226C537.318 599.439 537.91 599.687 538.649 599.971C539.388 600.255 540.09 600.362 540.756 600.291C543.417 600.291 545.708 598.694 547.63 595.5C548.296 594.364 549.146 591.951 550.181 588.26C551.216 584.569 552.251 580.736 553.285 576.761C554.32 572.786 554.912 570.444 555.06 569.734C555.429 567.818 555.614 566.434 555.614 565.582C555.614 563.595 555.06 562.175 553.951 561.323C552.842 560.472 551.585 560.046 550.181 560.046C547.224 560.046 544.452 561.181 541.864 563.453C539.277 565.724 537.466 568.634 536.431 572.183C536.283 572.822 536.099 573.177 535.877 573.248C535.655 573.319 535.064 573.39 534.103 573.461H532.55C532.107 573.035 531.885 572.644 531.885 572.29Z" fill="black"/>
<path d="M234 14.7353C234 13.8482 234.473 12.3273 235.42 10.1729C236.367 8.0184 237.882 5.76888 239.965 3.42431C242.048 1.07974 244.384 -0.060866 246.972 0.00250079C249.56 0.00250079 251.643 0.731219 253.221 2.18866C254.8 3.64609 255.62 5.67383 255.683 8.27187C255.557 9.47584 255.462 10.1412 255.399 10.2679C255.399 10.458 254.894 11.9155 253.884 14.6402C252.874 17.365 251.833 20.4383 250.76 23.8601C249.686 27.2819 249.181 30.0067 249.245 32.0344C249.245 34.7592 249.686 36.6602 250.57 37.7374C251.454 38.8147 252.78 39.385 254.547 39.4483C255.999 39.4483 257.356 39.0998 258.619 38.4028C259.881 37.7058 260.86 36.977 261.554 36.2166C262.248 35.4562 263.1 34.4107 264.11 33.08C264.11 33.0166 264.268 32.3829 264.584 31.179C264.9 29.975 265.341 28.1057 265.91 25.571C266.478 23.0363 267.077 20.6918 267.709 18.5373C270.107 9.03227 271.433 4.05798 271.685 3.61441C272.506 1.90351 273.863 1.04805 275.757 1.04805C276.578 1.04805 277.24 1.26984 277.745 1.7134C278.25 2.15697 278.598 2.53717 278.787 2.85401C278.976 3.17084 279.039 3.45599 278.976 3.70946C278.976 4.53323 277.43 11.1867 274.337 23.67C271.244 36.1533 269.476 42.9969 269.034 44.2009C267.267 49.4603 264.205 53.6425 259.85 56.7475C255.494 59.8525 251.138 61.4366 246.783 61.5C243.942 61.5 241.449 60.803 239.302 59.4089C237.156 58.0148 236.083 55.9237 236.083 53.1356C236.083 51.7415 236.304 50.5692 236.746 49.6187C237.188 48.6682 237.787 47.9712 238.545 47.5276C239.302 47.084 239.934 46.7672 240.439 46.5771C240.944 46.387 241.48 46.292 242.048 46.292C244.826 46.292 246.215 47.6227 246.215 50.2841C246.215 51.5514 245.836 52.6603 245.078 53.6108C244.321 54.5613 243.595 55.195 242.901 55.5118C242.206 55.8287 241.796 55.9871 241.67 55.9871L241.386 56.0821C241.512 56.399 242.112 56.7792 243.185 57.2227C244.258 57.6663 245.331 57.8881 246.404 57.8881H247.161C248.235 57.8881 249.055 57.8247 249.623 57.698C251.706 57.1277 253.632 55.9237 255.399 54.0861C257.167 52.2484 258.524 50.2841 259.471 48.193C260.418 46.1019 261.144 44.3276 261.649 42.8702C262.154 41.4127 262.406 40.4622 262.406 40.0186L261.838 40.3988C261.459 40.6523 260.86 41.0008 260.039 41.4444C259.218 41.888 258.398 42.2682 257.577 42.585C256.315 42.9018 255.084 43.0603 253.884 43.0603C250.981 43.0603 248.424 42.3632 246.215 40.9692C244.005 39.5751 242.553 37.3256 241.859 34.2206C241.796 33.777 241.764 32.7948 241.764 31.274C241.764 27.6621 242.869 22.9413 245.078 17.1115C247.288 11.2818 248.392 7.57484 248.392 5.99067C248.392 5.9273 248.392 5.86393 248.392 5.80056C248.392 5.23026 248.392 4.85006 248.392 4.65996C248.392 4.46986 248.266 4.24808 248.014 3.99461C247.761 3.74114 247.414 3.61441 246.972 3.61441H246.593C245.142 3.61441 243.816 4.21639 242.617 5.42036C241.417 6.62433 240.47 7.92335 239.776 9.31742C239.082 10.7115 238.545 12.0422 238.166 13.3095C237.787 14.5769 237.535 15.2739 237.409 15.4006C237.282 15.5274 236.777 15.5907 235.894 15.5907H234.568C234.189 15.2105 234 14.9254 234 14.7353Z" fill="black"/>
</svg>
