<svg width="159" height="31" viewBox="0 0 159 31" fill="none" xmlns="http://www.w3.org/2000/svg">
<path d="M52.6797 4.9375L58.2578 18.8594L63.8359 4.9375H66.7539V22H64.5039V15.3555L64.7148 8.18359L59.1133 22H57.3906L51.8008 8.21875L52.0234 15.3555V22H49.7734V4.9375H52.6797ZM74.5352 18.8242L77.4883 9.32031H79.8086L74.7109 23.957C73.9219 26.0664 72.668 27.1211 70.9492 27.1211L70.5391 27.0859L69.7305 26.9336V25.1758L70.3164 25.2227C71.0508 25.2227 71.6211 25.0742 72.0273 24.7773C72.4414 24.4805 72.7812 23.9375 73.0469 23.1484L73.5273 21.8594L69.0039 9.32031H71.3711L74.5352 18.8242ZM101.16 22H98.8984V14.1133H90.2969V22H88.0469V4.9375H90.2969V12.2734H98.8984V4.9375H101.16V22ZM104.242 15.543C104.242 14.3008 104.484 13.1836 104.969 12.1914C105.461 11.1992 106.141 10.4336 107.008 9.89453C107.883 9.35547 108.879 9.08594 109.996 9.08594C111.723 9.08594 113.117 9.68359 114.18 10.8789C115.25 12.0742 115.785 13.6641 115.785 15.6484V15.8008C115.785 17.0352 115.547 18.1445 115.07 19.1289C114.602 20.1055 113.926 20.8672 113.043 21.4141C112.168 21.9609 111.16 22.2344 110.02 22.2344C108.301 22.2344 106.906 21.6367 105.836 20.4414C104.773 19.2461 104.242 17.6641 104.242 15.6953V15.543ZM106.422 15.8008C106.422 17.207 106.746 18.3359 107.395 19.1875C108.051 20.0391 108.926 20.4648 110.02 20.4648C111.121 20.4648 111.996 20.0352 112.645 19.1758C113.293 18.3086 113.617 17.0977 113.617 15.543C113.617 14.1523 113.285 13.0273 112.621 12.168C111.965 11.3008 111.09 10.8672 109.996 10.8672C108.926 10.8672 108.062 11.293 107.406 12.1445C106.75 12.9961 106.422 14.2148 106.422 15.8008ZM126.332 20.7461C125.488 21.7383 124.25 22.2344 122.617 22.2344C121.266 22.2344 120.234 21.8438 119.523 21.0625C118.82 20.2734 118.465 19.1094 118.457 17.5703V9.32031H120.625V17.5117C120.625 19.4336 121.406 20.3945 122.969 20.3945C124.625 20.3945 125.727 19.7773 126.273 18.543V9.32031H128.441V22H126.379L126.332 20.7461ZM139.129 18.6367C139.129 18.0508 138.906 17.5977 138.461 17.2773C138.023 16.9492 137.254 16.668 136.152 16.4336C135.059 16.1992 134.188 15.918 133.539 15.5898C132.898 15.2617 132.422 14.8711 132.109 14.418C131.805 13.9648 131.652 13.4258 131.652 12.8008C131.652 11.7617 132.09 10.8828 132.965 10.1641C133.848 9.44531 134.973 9.08594 136.34 9.08594C137.777 9.08594 138.941 9.45703 139.832 10.1992C140.73 10.9414 141.18 11.8906 141.18 13.0469H139C139 12.4531 138.746 11.9414 138.238 11.5117C137.738 11.082 137.105 10.8672 136.34 10.8672C135.551 10.8672 134.934 11.0391 134.488 11.3828C134.043 11.7266 133.82 12.1758 133.82 12.7305C133.82 13.2539 134.027 13.6484 134.441 13.9141C134.855 14.1797 135.602 14.4336 136.68 14.6758C137.766 14.918 138.645 15.207 139.316 15.543C139.988 15.8789 140.484 16.2852 140.805 16.7617C141.133 17.2305 141.297 17.8047 141.297 18.4844C141.297 19.6172 140.844 20.5273 139.938 21.2148C139.031 21.8945 137.855 22.2344 136.41 22.2344C135.395 22.2344 134.496 22.0547 133.715 21.6953C132.934 21.3359 132.32 20.8359 131.875 20.1953C131.438 19.5469 131.219 18.8477 131.219 18.0977H133.387C133.426 18.8242 133.715 19.4023 134.254 19.832C134.801 20.2539 135.52 20.4648 136.41 20.4648C137.23 20.4648 137.887 20.3008 138.379 19.9727C138.879 19.6367 139.129 19.1914 139.129 18.6367ZM149.383 22.2344C147.664 22.2344 146.266 21.6719 145.188 20.5469C144.109 19.4141 143.57 17.9023 143.57 16.0117V15.6133C143.57 14.3555 143.809 13.2344 144.285 12.25C144.77 11.2578 145.441 10.4844 146.301 9.92969C147.168 9.36719 148.105 9.08594 149.113 9.08594C150.762 9.08594 152.043 9.62891 152.957 10.7148C153.871 11.8008 154.328 13.3555 154.328 15.3789V16.2812H145.738C145.77 17.5312 146.133 18.543 146.828 19.3164C147.531 20.082 148.422 20.4648 149.5 20.4648C150.266 20.4648 150.914 20.3086 151.445 19.9961C151.977 19.6836 152.441 19.2695 152.84 18.7539L154.164 19.7852C153.102 21.418 151.508 22.2344 149.383 22.2344ZM149.113 10.8672C148.238 10.8672 147.504 11.1875 146.91 11.8281C146.316 12.4609 145.949 13.3516 145.809 14.5H152.16V14.3359C152.098 13.2344 151.801 12.3828 151.27 11.7812C150.738 11.1719 150.02 10.8672 149.113 10.8672Z" fill="black"/>
<circle cx="15" cy="16" r="15" fill="#6C63FF"/>
</svg>
