<svg width="38" height="63" viewBox="0 0 38 63" fill="none" xmlns="http://www.w3.org/2000/svg">
<path d="M0 44.1434C0 38.1993 1.13636 31.9347 3.40909 25.3497C5.68182 18.7646 8.7704 13.0827 12.6748 8.3042C16.5793 3.52564 20.6294 0.786713 24.8252 0.0874138C24.8834 0.0874138 25.1166 0.0874138 25.5245 0.0874138C25.9324 0.0874138 26.2821 0.0582733 26.5734 0C29.7203 0.233101 32.1678 1.66084 33.9161 4.28321C36.1888 7.77972 37.3252 12.4709 37.3252 18.3566C37.3252 25.0583 36.014 31.8765 33.3916 38.8112C30.7692 45.7459 27.4184 51.4277 23.3392 55.8566C19.2599 60.2855 15.3555 62.5 11.6259 62.5H11.014C8.91608 62.5 7.10956 61.9172 5.59441 60.7517C4.07925 59.5862 2.94289 58.042 2.18531 56.1189C1.42774 54.1958 0.874126 52.2436 0.524476 50.2622C0.174825 48.2809 0 46.2413 0 44.1434ZM30.4196 12.1503C30.4196 6.2063 28.8753 3.23426 25.7867 3.23426C23.6888 3.23426 21.6492 4.54545 19.6678 7.16783C17.6865 9.79021 16.0548 12.7622 14.7727 16.0839C13.4907 19.4056 12.5 22.3193 11.8007 24.8252C11.1014 27.331 10.7226 28.7879 10.6643 29.1958C13.5198 29.2541 16.3462 29.2832 19.1434 29.2832L27.6224 29.1958C27.6807 29.1375 27.9138 28.176 28.3217 26.3112C28.7296 24.4464 29.1958 22.1154 29.7203 19.3182C30.2448 16.521 30.4779 14.1317 30.4196 12.1503ZM6.81818 50.0874C6.81818 56.2646 8.36247 59.3531 11.451 59.3531C12.3252 59.3531 13.2576 59.0618 14.2483 58.479C15.2389 57.8963 16.4336 56.789 17.8322 55.1573C19.2308 53.5256 20.6294 50.9907 22.028 47.5524C23.4266 44.1142 24.8252 39.8601 26.2238 34.7902L26.6608 33.3042H9.61539C9.61539 33.479 9.35315 34.5862 8.82867 36.6259C8.3042 38.6655 7.838 40.9382 7.43007 43.4441C7.02214 45.9499 6.81818 48.1643 6.81818 50.0874Z" fill="black"/>
</svg>
