<svg width="200" height="38" viewBox="0 0 200 38" fill="none" xmlns="http://www.w3.org/2000/svg">
<path d="M0.541203 29.8298C0.180401 29.8298 0 29.7237 0 29.5115C0 29.469 0.0318355 29.3205 0.0955064 29.0658C0.180401 28.7262 0.265296 28.5352 0.35019 28.4928C0.435085 28.4503 0.679157 28.4185 1.08241 28.3972C1.65544 28.3972 2.29215 28.3654 2.99253 28.3017C3.28967 28.2381 3.49129 28.1107 3.59741 27.9197C3.63986 27.8136 4.3933 24.8317 5.85773 18.9739C7.32216 13.1162 8.06499 10.1449 8.08621 10.06C8.08621 9.91145 8.04376 9.83716 7.95887 9.83716C7.78908 9.77349 7.22665 9.72043 6.27159 9.67799H5.28469C5.15735 9.55064 5.09368 9.46575 5.09368 9.4233C5.09368 9.38086 5.1149 9.20045 5.15735 8.8821C5.24224 8.5213 5.34836 8.29845 5.4757 8.21355H22.635C22.7836 8.29845 22.8579 8.41518 22.8579 8.56374C22.8579 8.66986 22.7199 9.85839 22.444 12.1293C22.1681 14.4002 22.0195 15.5675 21.9983 15.6312C21.9559 15.7798 21.7436 15.8541 21.3616 15.8541H20.9796C20.831 15.748 20.7567 15.61 20.7567 15.4402C20.7567 15.419 20.7886 15.1643 20.8522 14.6762C20.9159 14.188 20.9477 13.6256 20.9477 12.9889C20.9477 12.3522 20.8735 11.8322 20.7249 11.4289C20.5763 11.0257 20.3747 10.6967 20.12 10.442C19.8653 10.1874 19.4727 10.0176 18.9421 9.93267C18.4115 9.84778 17.8703 9.77349 17.3185 9.70982C16.7667 9.64615 16.0026 9.63554 15.0263 9.67799H14.2941C12.5538 9.69921 11.6306 9.73105 11.5244 9.77349C11.4183 9.81594 11.344 9.90083 11.3016 10.0282C11.2804 10.0494 10.9196 11.4395 10.2192 14.1986L9.20045 18.3054H10.9514C11.0151 18.3054 11.2591 18.3054 11.6836 18.3054C12.1081 18.3054 12.4052 18.2948 12.575 18.2736C12.7448 18.2523 12.9783 18.2205 13.2754 18.1781C13.5725 18.1356 13.8272 18.0613 14.0394 17.9552C14.2517 17.8491 14.4321 17.7218 14.5806 17.5732C14.8566 17.3185 15.09 16.9683 15.281 16.5226C15.472 16.0769 15.61 15.6737 15.6949 15.3129C15.7798 14.9521 15.8328 14.7611 15.8541 14.7398C15.9177 14.6337 16.1194 14.5806 16.4589 14.5806H16.841C16.9895 14.6868 17.0638 14.7929 17.0638 14.899C17.0638 14.9627 16.7348 16.3528 16.0769 19.0695C15.419 21.7861 15.0582 23.1868 14.9945 23.2717C14.9521 23.4203 14.7398 23.4946 14.3578 23.4946H13.9758C13.8272 23.3672 13.7529 23.2399 13.7529 23.1126C13.7529 23.0489 13.806 22.8154 13.9121 22.4122C14.0182 22.0089 14.0713 21.5845 14.0713 21.1388C14.0713 20.5233 13.859 20.1412 13.4346 19.9927C13.0101 19.8441 12.0656 19.7698 10.6012 19.7698H8.85026L7.83153 23.8129C7.15237 26.4447 6.81279 27.8242 6.81279 27.9516C6.81279 28.2487 7.75724 28.3972 9.64615 28.3972H10.442C10.5694 28.5246 10.633 28.5989 10.633 28.6201C10.633 28.6413 10.6118 28.8536 10.5694 29.2568C10.4845 29.5327 10.3784 29.7343 10.251 29.8617H9.70982C8.83965 29.8192 7.23727 29.798 4.90266 29.798C3.52313 29.798 2.47256 29.798 1.75095 29.798C1.02935 29.798 0.626098 29.8086 0.541203 29.8298Z" fill="black"/>
<path d="M20.6537 28.1323C20.7587 27.5021 21.1639 26.7743 21.8691 25.949C22.5743 25.1238 23.4446 24.7036 24.48 24.6886C25.0052 24.6886 25.4853 24.8236 25.9205 25.0937C26.3556 25.3638 26.6782 25.7014 26.8883 26.1066C27.5185 25.1613 28.2763 24.6886 29.1616 24.6886C29.7168 24.6886 30.1969 24.8537 30.6021 25.1838C31.0072 25.5139 31.2173 25.9565 31.2323 26.5117C31.2323 26.9469 31.1273 27.2995 30.9172 27.5696C30.7071 27.8397 30.5045 28.0047 30.3095 28.0648C30.1144 28.1248 29.9419 28.1548 29.7918 28.1548C29.5067 28.1548 29.2741 28.0723 29.0941 27.9072C28.914 27.7421 28.824 27.5246 28.824 27.2545C28.824 26.5642 29.1991 26.0916 29.9494 25.8365C29.7843 25.6414 29.4842 25.5439 29.0491 25.5439C28.854 25.5439 28.7114 25.5589 28.6214 25.5889C28.0512 25.829 27.6311 26.3242 27.361 27.0744C26.4607 30.3905 26.0105 32.3262 26.0105 32.8814C26.0105 33.3015 26.1306 33.6016 26.3706 33.7817C26.6107 33.9618 26.8733 34.0518 27.1584 34.0518C27.7136 34.0518 28.2613 33.8042 28.8015 33.309C29.3417 32.8139 29.7093 32.2062 29.9043 31.4859C29.9494 31.3359 29.9944 31.2533 30.0394 31.2383C30.0844 31.2233 30.2044 31.2083 30.3995 31.1933H30.4895C30.7146 31.1933 30.8272 31.2533 30.8272 31.3734C30.8272 31.3884 30.8122 31.4709 30.7821 31.621C30.5421 32.4763 30.0769 33.234 29.3867 33.8942C28.6964 34.5545 27.8937 34.8846 26.9783 34.8846C25.928 34.8846 25.1327 34.4119 24.5925 33.4666C23.9773 34.3969 23.2721 34.8621 22.4768 34.8621H22.3418C21.6065 34.8621 21.0813 34.667 20.7662 34.2769C20.4511 33.8867 20.2861 33.4741 20.2711 33.039C20.2711 32.5588 20.4136 32.1687 20.6987 31.8686C20.9838 31.5685 21.3214 31.4184 21.7115 31.4184C22.3568 31.4184 22.6794 31.7335 22.6794 32.3637C22.6794 32.6638 22.5893 32.9264 22.4093 33.1515C22.2292 33.3766 22.0567 33.5266 21.8916 33.6016C21.7266 33.6767 21.629 33.7142 21.599 33.7142L21.5315 33.7367C21.5315 33.7517 21.5765 33.7817 21.6665 33.8267C21.7566 33.8717 21.8766 33.9243 22.0267 33.9843C22.1767 34.0443 22.3193 34.0668 22.4543 34.0518C22.9945 34.0518 23.4596 33.7142 23.8498 33.039C23.9848 32.7989 24.1574 32.2887 24.3675 31.5084C24.5775 30.7282 24.7876 29.9179 24.9977 29.0776C25.2077 28.2373 25.3278 27.7421 25.3578 27.5921C25.4328 27.187 25.4703 26.8944 25.4703 26.7143C25.4703 26.2942 25.3578 25.994 25.1327 25.814C24.9076 25.6339 24.6526 25.5439 24.3675 25.5439C23.7673 25.5439 23.2046 25.784 22.6794 26.2641C22.1542 26.7443 21.7866 27.3595 21.5765 28.1098C21.5465 28.2448 21.509 28.3198 21.464 28.3348C21.4189 28.3499 21.2989 28.3649 21.1038 28.3799H20.7887C20.6987 28.2898 20.6537 28.2073 20.6537 28.1323Z" fill="black"/>
<path d="M44.576 18.8148C44.576 18.5388 44.7246 18.3266 45.0217 18.178H65.3009C65.6193 18.3478 65.7785 18.5601 65.7785 18.8148C65.7785 19.0482 65.6299 19.2498 65.3328 19.4196L55.2091 19.4515H45.0854C44.7458 19.3453 44.576 19.1331 44.576 18.8148ZM44.576 24.9908C44.576 24.6725 44.7458 24.4602 45.0854 24.3541H65.3328C65.6299 24.5664 65.7785 24.7786 65.7785 24.9908C65.7785 25.2667 65.6193 25.479 65.3009 25.6275H45.0217C44.7246 25.479 44.576 25.2667 44.576 24.9908Z" fill="black"/>
<path d="M80.8303 37.7887H80.7666C80.5119 37.7887 80.3209 37.6401 80.1935 37.343V21.871L80.2254 6.39893C80.4376 6.12303 80.6392 5.98507 80.8303 5.98507C81.1062 5.98507 81.3184 6.14425 81.467 6.46261V37.343C81.2972 37.6401 81.1062 37.7887 80.8939 37.7887H80.8303Z" fill="black"/>
<path d="M86.7835 29.8298C86.4227 29.8298 86.2423 29.7237 86.2423 29.5115C86.2423 29.469 86.2741 29.3205 86.3378 29.0658C86.4227 28.7262 86.5076 28.5352 86.5925 28.4928C86.6774 28.4503 86.9215 28.4185 87.3247 28.3972C87.8978 28.3972 88.5345 28.3654 89.2348 28.3017C89.532 28.2381 89.7336 28.1107 89.8397 27.9197C89.8822 27.8136 90.6356 24.8317 92.1 18.9739C93.5645 13.1162 94.3073 10.1449 94.3285 10.06C94.3285 9.91145 94.2861 9.83716 94.2012 9.83716C94.0314 9.77349 93.469 9.72043 92.5139 9.67799H91.527C91.3997 9.55064 91.336 9.46575 91.336 9.4233C91.336 9.38086 91.3572 9.20045 91.3997 8.8821C91.4846 8.5213 91.5907 8.29845 91.718 8.21355H108.877C109.026 8.29845 109.1 8.41518 109.1 8.56374C109.1 8.66986 108.962 9.85839 108.686 12.1293C108.41 14.4002 108.262 15.5675 108.241 15.6312C108.198 15.7798 107.986 15.8541 107.604 15.8541H107.222C107.073 15.748 106.999 15.61 106.999 15.4402C106.999 15.419 107.031 15.1643 107.095 14.6762C107.158 14.188 107.19 13.6256 107.19 12.9889C107.19 12.3522 107.116 11.8322 106.967 11.4289C106.819 11.0257 106.617 10.6967 106.362 10.442C106.108 10.1874 105.715 10.0176 105.184 9.93267C104.654 9.84778 104.113 9.77349 103.561 9.70982C103.009 9.64615 102.245 9.63554 101.269 9.67799H100.536C98.7961 9.69921 97.8729 9.73105 97.7668 9.77349C97.6606 9.81594 97.5864 9.90083 97.5439 10.0282C97.5227 10.0494 97.1619 11.4395 96.4615 14.1986L95.4428 18.3054H97.1937C97.2574 18.3054 97.5015 18.3054 97.9259 18.3054C98.3504 18.3054 98.6475 18.2948 98.8173 18.2736C98.9871 18.2523 99.2206 18.2205 99.5177 18.1781C99.8148 18.1356 100.07 18.0613 100.282 17.9552C100.494 17.8491 100.674 17.7218 100.823 17.5732C101.099 17.3185 101.332 16.9683 101.523 16.5226C101.714 16.0769 101.852 15.6737 101.937 15.3129C102.022 14.9521 102.075 14.7611 102.096 14.7398C102.16 14.6337 102.362 14.5806 102.701 14.5806H103.083C103.232 14.6868 103.306 14.7929 103.306 14.899C103.306 14.9627 102.977 16.3528 102.319 19.0695C101.661 21.7861 101.3 23.1868 101.237 23.2717C101.194 23.4203 100.982 23.4946 100.6 23.4946H100.218C100.07 23.3672 99.9952 23.2399 99.9952 23.1126C99.9952 23.0489 100.048 22.8154 100.154 22.4122C100.261 22.0089 100.314 21.5845 100.314 21.1388C100.314 20.5233 100.101 20.1412 99.6769 19.9927C99.2524 19.8441 98.308 19.7698 96.8435 19.7698H95.0926L94.0738 23.8129C93.3947 26.4447 93.0551 27.8242 93.0551 27.9516C93.0551 28.2487 93.9996 28.3972 95.8885 28.3972H96.6843C96.8117 28.5246 96.8754 28.5989 96.8754 28.6201C96.8754 28.6413 96.8541 28.8536 96.8117 29.2568C96.7268 29.5327 96.6207 29.7343 96.4933 29.8617H95.9521C95.082 29.8192 93.4796 29.798 91.145 29.798C89.7654 29.798 88.7149 29.798 87.9933 29.798C87.2717 29.798 86.8684 29.8086 86.7835 29.8298Z" fill="black"/>
<path d="M106.404 0.636721C106.404 0.466932 106.457 0.318366 106.563 0.191025C106.669 0.0636826 106.828 1.16751e-05 107.04 1.16751e-05C107.189 1.16751e-05 107.316 0.0530708 107.422 0.159189C107.529 0.244084 107.635 0.445708 107.741 0.764063C107.953 1.54934 108.388 2.15421 109.046 2.57869C109.28 2.72725 109.396 2.91826 109.396 3.15172C109.396 3.34274 109.364 3.47008 109.301 3.53375C109.237 3.59742 109.088 3.69293 108.855 3.82027C107.942 4.28719 107.147 4.95573 106.467 5.8259C106.425 5.86835 106.372 5.93202 106.308 6.01692C106.245 6.10181 106.191 6.16548 106.149 6.20793C106.107 6.25038 106.054 6.2716 105.99 6.2716C105.926 6.2716 105.852 6.28221 105.767 6.30344C105.618 6.30344 105.48 6.25038 105.353 6.14426C105.226 6.03814 105.152 5.87896 105.13 5.66673C105.13 5.26348 105.629 4.63738 106.627 3.78843H101.183L95.7388 3.7566C95.4629 3.56559 95.325 3.36396 95.325 3.15172C95.325 3.00316 95.4629 2.79092 95.7388 2.51501H107.168C106.658 1.70852 106.404 1.08242 106.404 0.636721Z" fill="black"/>
<path d="M114.745 37.7887H114.681C114.426 37.7887 114.235 37.6401 114.108 37.343V21.871L114.14 6.39893C114.352 6.12303 114.554 5.98507 114.745 5.98507C115.021 5.98507 115.233 6.14425 115.381 6.46261V37.343C115.212 37.6401 115.021 37.7887 114.808 37.7887H114.745Z" fill="black"/>
<path d="M120.252 24.7998C120.252 22.4865 121.165 20.4065 122.99 18.5601C124.815 16.7136 126.789 15.7904 128.911 15.7904C130.1 15.7904 131.034 16.0451 131.713 16.5544C132.392 17.0638 132.742 17.7324 132.763 18.5601C132.763 19.1756 132.562 19.6955 132.159 20.12C131.755 20.5445 131.246 20.7673 130.631 20.7886C130.227 20.7886 129.909 20.6824 129.675 20.4702C129.442 20.258 129.325 19.9396 129.325 19.5151C129.325 19.0907 129.442 18.7299 129.675 18.4327C129.909 18.1356 130.142 17.9128 130.376 17.7642C130.609 17.6156 130.758 17.552 130.822 17.5732H130.853C130.853 17.5307 130.79 17.4671 130.662 17.3822C130.535 17.2973 130.312 17.2124 129.994 17.1275C129.675 17.0426 129.315 17.0001 128.911 17.0001C128.275 17.0001 127.67 17.1487 127.097 17.4458C126.651 17.6368 126.195 17.9658 125.728 18.4327C124.794 19.3666 124.115 20.6824 123.69 22.3803C123.266 24.0782 123.043 25.3092 123.022 26.0733C123.022 27.0495 123.298 27.7818 123.85 28.2699C124.316 28.7793 124.932 29.034 125.696 29.034H125.823C128.2 29.034 130.164 28.1319 131.713 26.3279C131.904 26.1157 132.031 26.0096 132.095 26.0096C132.18 26.0096 132.318 26.1051 132.509 26.2961C132.7 26.4871 132.806 26.6357 132.827 26.7418C132.848 26.8479 132.753 27.0071 132.541 27.2193C132.328 27.4316 132.021 27.7287 131.617 28.1107C131.214 28.4927 130.737 28.8111 130.185 29.0658C129.633 29.3205 128.954 29.5858 128.147 29.8617C127.341 30.1376 126.492 30.2543 125.6 30.2119C124.009 30.2119 122.725 29.7025 121.748 28.6838C120.772 27.665 120.273 26.3704 120.252 24.7998Z" fill="black"/>
<path d="M139.353 30.2119C137.762 30.2119 136.478 29.6919 135.501 28.6519C134.525 27.612 134.037 26.3598 134.037 24.8953C134.037 23.5158 134.355 22.2106 134.992 20.9796C135.629 19.7486 136.499 18.6768 137.602 17.7642C139.215 16.4696 140.86 15.8222 142.537 15.8222C143.216 15.8222 143.641 15.8328 143.81 15.8541C144.086 15.9177 144.362 15.992 144.638 16.0769C144.914 16.1618 145.285 16.3316 145.752 16.5863C146.219 16.841 146.601 17.1593 146.898 17.5413C147.196 17.9234 147.471 18.4434 147.726 19.1013C147.981 19.7592 148.108 20.502 148.108 21.3298C148.108 23.6007 147.196 25.6488 145.37 27.474C143.545 29.2993 141.539 30.2119 139.353 30.2119ZM136.807 26.0414C136.807 27.1026 137.082 27.8667 137.634 28.3336C138.186 28.8005 138.812 29.034 139.513 29.034C140.446 29.034 141.327 28.6944 142.155 28.0152C142.983 27.3361 143.641 26.4447 144.129 25.341C144.32 24.8953 144.564 24.1101 144.861 22.9852C145.158 21.8604 145.307 20.8841 145.307 20.0564C145.307 19.1225 145.116 18.4115 144.734 17.9234C144.224 17.2867 143.545 16.9683 142.696 16.9683C141.359 16.9683 140.181 17.5838 139.162 18.8148C138.377 19.7486 137.793 20.9902 137.411 22.5395C137.029 24.0888 136.828 25.2561 136.807 26.0414Z" fill="black"/>
<path d="M152.565 20.6612C152.565 19.9821 152.735 19.2923 153.075 18.5919C153.414 17.8915 154.008 17.2442 154.857 16.6499C155.706 16.0557 156.736 15.7692 157.945 15.7904C159.261 15.7904 160.216 16.0769 160.811 16.6499C161.405 17.223 161.713 17.8597 161.734 18.5601C161.734 19.2392 161.553 19.738 161.193 20.0563C160.832 20.3747 160.429 20.5445 159.983 20.5657C159.707 20.5657 159.452 20.4808 159.219 20.311C158.985 20.1412 158.858 19.8653 158.837 19.4833C158.837 19.1437 158.932 18.8466 159.123 18.5919C159.314 18.3372 159.495 18.1462 159.664 18.0189C159.834 17.8915 159.972 17.8279 160.078 17.8279C160.1 17.8279 160.11 17.8172 160.11 17.796C160.11 17.7324 160.036 17.6368 159.887 17.5095C159.739 17.3822 159.473 17.2654 159.091 17.1593C158.709 17.0532 158.296 16.9895 157.85 16.9683C156.831 16.9683 156.088 17.2442 155.621 17.796C155.154 18.3478 154.91 18.9103 154.889 19.4833C154.889 20.0139 155.091 20.3853 155.494 20.5975C155.897 20.8098 156.481 20.9902 157.245 21.1387C158.009 21.2873 158.561 21.4465 158.9 21.6163C160.301 22.2318 161.002 23.2505 161.002 24.6725C161.002 25.2667 160.885 25.861 160.651 26.4553C160.418 27.0495 160.068 27.6438 159.601 28.2381C159.134 28.8323 158.465 29.2992 157.595 29.6388C156.725 29.9784 155.727 30.1588 154.603 30.18C152.968 30.18 151.812 29.8723 151.133 29.2568C150.453 28.6413 150.103 27.9197 150.082 27.092C150.082 26.2643 150.305 25.67 150.751 25.3092C151.196 24.9484 151.663 24.768 152.151 24.768C152.47 24.768 152.767 24.8635 153.043 25.0545C153.319 25.2455 153.467 25.5745 153.488 26.0414C153.488 26.5932 153.297 27.0601 152.915 27.4422C152.533 27.8242 152.204 28.0152 151.928 28.0152C151.886 28.0364 151.854 28.047 151.833 28.047C151.812 28.047 151.801 28.0683 151.801 28.1107C151.822 28.1744 151.907 28.2593 152.056 28.3654C152.204 28.4715 152.533 28.6095 153.043 28.7793C153.552 28.9491 154.136 29.0233 154.794 29.0021C155.558 29.0021 156.216 28.8854 156.767 28.6519C157.319 28.4185 157.722 28.1213 157.977 27.7605C158.232 27.3997 158.412 27.0708 158.518 26.7736C158.624 26.4765 158.678 26.2112 158.678 25.9777C158.678 25.3835 158.455 24.9378 158.009 24.6407C157.563 24.3435 157.054 24.1631 156.481 24.0994C155.908 24.0358 155.282 23.8766 154.603 23.6219C153.923 23.3672 153.425 22.9958 153.106 22.5077C152.746 21.9771 152.565 21.3616 152.565 20.6612Z" fill="black"/>
<path d="M166.318 21.9028C166.318 20.4384 166.424 19.0482 166.636 17.7324C166.849 16.4165 167.093 15.281 167.369 14.326C167.645 13.3709 168.037 12.4371 168.547 11.5244C169.056 10.6118 169.459 9.90083 169.756 9.39146C170.053 8.88209 170.499 8.33028 171.093 7.73601C171.688 7.14175 172.038 6.78095 172.144 6.65361C172.25 6.52627 172.515 6.30342 172.94 5.98506H173.354H173.481C173.778 5.98506 173.927 6.08057 173.927 6.27158C173.927 6.33525 173.746 6.5581 173.386 6.94013C173.025 7.32215 172.59 7.88458 172.08 8.62741C171.571 9.37024 171.051 10.2829 170.52 11.3653C169.99 12.4477 169.544 13.9121 169.183 15.7586C168.822 17.605 168.642 19.6531 168.642 21.9028C168.642 24.1525 168.822 26.19 169.183 28.0152C169.544 29.8404 169.979 31.3155 170.489 32.4403C170.998 33.5652 171.518 34.4778 172.048 35.1782C172.579 35.8786 173.025 36.441 173.386 36.8655C173.746 37.29 173.927 37.5128 173.927 37.534C173.927 37.725 173.768 37.8205 173.449 37.8205H173.354H172.94L172.048 37.0565C170.053 35.2525 168.6 33.0028 167.687 30.3074C166.774 27.612 166.318 24.8104 166.318 21.9028Z" fill="black"/>
<path d="M176.824 23.4946C176.824 21.3298 177.238 19.0482 178.065 16.6499C178.893 14.2517 180.018 12.1824 181.44 10.442C182.862 8.70169 184.337 7.70418 185.865 7.44949C185.886 7.44949 185.971 7.44949 186.12 7.44949C186.268 7.44949 186.396 7.43888 186.502 7.41766C187.648 7.50255 188.539 8.02253 189.176 8.97759C190.004 10.251 190.417 11.9595 190.417 14.1031C190.417 16.5438 189.94 19.027 188.985 21.5526C188.03 24.0782 186.809 26.1475 185.324 27.7605C183.838 29.3735 182.416 30.18 181.058 30.18H180.835C180.071 30.18 179.413 29.9678 178.861 29.5433C178.309 29.1188 177.896 28.5564 177.62 27.856C177.344 27.1557 177.142 26.4447 177.015 25.7231C176.887 25.0015 176.824 24.2586 176.824 23.4946ZM187.902 11.8428C187.902 9.67798 187.34 8.59557 186.215 8.59557C185.451 8.59557 184.708 9.0731 183.987 10.0282C183.265 10.9832 182.671 12.0656 182.204 13.2754C181.737 14.4851 181.376 15.5463 181.122 16.4589C180.867 17.3715 180.729 17.9021 180.708 18.0507C181.748 18.0719 182.777 18.0825 183.796 18.0825L186.884 18.0507C186.905 18.0295 186.99 17.6793 187.138 17.0001C187.287 16.321 187.457 15.472 187.648 14.4533C187.839 13.4346 187.924 12.5644 187.902 11.8428ZM179.307 25.6594C179.307 27.9091 179.869 29.0339 180.994 29.0339C181.313 29.0339 181.652 28.9278 182.013 28.7156C182.374 28.5034 182.809 28.1001 183.318 27.5058C183.828 26.9116 184.337 25.9884 184.846 24.7362C185.356 23.484 185.865 21.9346 186.374 20.0882L186.534 19.547H180.326C180.326 19.6106 180.23 20.0139 180.039 20.7567C179.848 21.4995 179.678 22.3273 179.53 23.2399C179.381 24.1525 179.307 24.959 179.307 25.6594Z" fill="black"/>
<path d="M192.55 6.0169L192.678 5.98506C192.784 5.98506 192.89 5.98506 192.996 5.98506H193.378L194.27 6.74912C196.265 8.55313 197.718 10.8028 198.631 13.4982C199.544 16.1936 200 18.9952 200 21.9028C200 23.346 199.894 24.7362 199.682 26.0733C199.469 27.4103 199.225 28.5458 198.949 29.4796C198.673 30.4135 198.281 31.3473 197.771 32.2812C197.262 33.215 196.859 33.926 196.562 34.4141C196.265 34.9023 195.83 35.4435 195.256 36.0378C194.683 36.632 194.344 36.9822 194.238 37.0883C194.132 37.1944 193.888 37.3961 193.506 37.6932C193.442 37.7569 193.399 37.7993 193.378 37.8205H192.996C192.826 37.8205 192.71 37.8205 192.646 37.8205C192.582 37.8205 192.529 37.7887 192.487 37.725C192.444 37.6614 192.413 37.5659 192.391 37.4385C192.413 37.4173 192.529 37.2793 192.741 37.0247C196.031 33.6076 197.676 28.567 197.676 21.9028C197.676 15.2386 196.031 10.198 192.741 6.78095C192.529 6.52627 192.413 6.38831 192.391 6.36709C192.391 6.1973 192.444 6.08057 192.55 6.0169Z" fill="black"/>
</svg>
