<svg width="413" height="324" viewBox="0 0 413 324" fill="none" xmlns="http://www.w3.org/2000/svg">
<path d="M145 204.662C145 198.648 146.15 192.31 148.449 185.647C150.749 178.985 153.873 173.236 157.824 168.402C161.774 163.567 165.872 160.796 170.117 160.088C170.176 160.088 170.412 160.088 170.824 160.088C171.237 160.088 171.591 160.059 171.886 160C175.069 160.236 177.546 161.68 179.315 164.334C181.614 167.871 182.764 172.617 182.764 178.572C182.764 185.353 181.437 192.251 178.784 199.267C176.131 206.283 172.741 212.032 168.613 216.513C164.486 220.994 160.536 223.234 156.762 223.234H156.143C154.021 223.234 152.193 222.645 150.66 221.465C149.127 220.286 147.977 218.724 147.211 216.778C146.445 214.832 145.884 212.857 145.531 210.853C145.177 208.848 145 206.784 145 204.662ZM175.777 172.293C175.777 166.279 174.214 163.272 171.09 163.272C168.967 163.272 166.903 164.599 164.899 167.252C162.894 169.905 161.243 172.912 159.946 176.273C158.649 179.634 157.647 182.582 156.939 185.117C156.232 187.652 155.849 189.126 155.79 189.539C158.679 189.598 161.538 189.627 164.368 189.627L172.947 189.539C173.006 189.48 173.242 188.507 173.654 186.62C174.067 184.734 174.539 182.375 175.069 179.545C175.6 176.715 175.836 174.298 175.777 172.293ZM151.898 210.676C151.898 216.926 153.461 220.05 156.586 220.05C157.47 220.05 158.413 219.756 159.416 219.166C160.418 218.576 161.627 217.456 163.042 215.805C164.457 214.154 165.872 211.59 167.287 208.111C168.702 204.632 170.117 200.328 171.532 195.199L171.974 193.695H154.728C154.728 193.872 154.463 194.993 153.932 197.056C153.402 199.12 152.93 201.419 152.517 203.954C152.105 206.49 151.898 208.73 151.898 210.676Z" fill="#6C63FF"/>
<path d="M137.213 312.448C136.404 312.448 136 312.21 136 311.734C136 311.639 136.071 311.306 136.214 310.735C136.404 309.974 136.595 309.546 136.785 309.451C136.975 309.356 137.522 309.285 138.426 309.237C139.71 309.237 141.137 309.166 142.707 309.023C143.373 308.88 143.825 308.595 144.063 308.167C144.158 307.929 145.847 301.246 149.129 288.117C152.411 274.988 154.076 268.329 154.123 268.138C154.123 267.805 154.028 267.639 153.838 267.639C153.457 267.496 152.197 267.377 150.056 267.282H147.844C147.559 266.997 147.416 266.806 147.416 266.711C147.416 266.616 147.464 266.212 147.559 265.498C147.749 264.69 147.987 264.19 148.273 264H186.731C187.064 264.19 187.231 264.452 187.231 264.785C187.231 265.023 186.921 267.686 186.303 272.776C185.685 277.866 185.352 280.482 185.304 280.625C185.209 280.958 184.733 281.124 183.877 281.124H183.021C182.688 280.887 182.521 280.577 182.521 280.197C182.521 280.149 182.593 279.578 182.735 278.484C182.878 277.39 182.95 276.13 182.95 274.703C182.95 273.276 182.783 272.11 182.45 271.207C182.117 270.303 181.665 269.565 181.094 268.995C180.524 268.424 179.644 268.043 178.454 267.853C177.265 267.663 176.052 267.496 174.815 267.354C173.579 267.211 171.866 267.187 169.678 267.282H168.037C164.136 267.33 162.067 267.401 161.829 267.496C161.592 267.591 161.425 267.782 161.33 268.067C161.282 268.115 160.474 271.23 158.904 277.414L156.621 286.619H160.545C160.688 286.619 161.235 286.619 162.186 286.619C163.137 286.619 163.803 286.595 164.184 286.547C164.565 286.5 165.088 286.428 165.754 286.333C166.42 286.238 166.99 286.071 167.466 285.834C167.942 285.596 168.346 285.31 168.679 284.977C169.298 284.407 169.821 283.622 170.249 282.623C170.677 281.624 170.986 280.72 171.176 279.911C171.367 279.103 171.486 278.675 171.533 278.627C171.676 278.389 172.128 278.27 172.889 278.27H173.745C174.078 278.508 174.245 278.746 174.245 278.984C174.245 279.127 173.507 282.242 172.033 288.331C170.558 294.42 169.749 297.559 169.607 297.749C169.512 298.082 169.036 298.249 168.18 298.249H167.323C166.99 297.963 166.824 297.678 166.824 297.393C166.824 297.25 166.943 296.727 167.181 295.823C167.419 294.919 167.538 293.968 167.538 292.969C167.538 291.589 167.062 290.733 166.11 290.4C165.159 290.067 163.042 289.901 159.76 289.901H155.836L153.553 298.962C152.03 304.861 151.269 307.953 151.269 308.238C151.269 308.904 153.386 309.237 157.62 309.237H159.403C159.689 309.522 159.832 309.689 159.832 309.737C159.832 309.784 159.784 310.26 159.689 311.164C159.499 311.782 159.261 312.234 158.975 312.519H157.762C155.812 312.424 152.221 312.377 146.988 312.377C143.896 312.377 141.542 312.377 139.924 312.377C138.307 312.377 137.403 312.4 137.213 312.448Z" fill="black"/>
<path d="M182.291 308.643C182.526 307.231 183.434 305.6 185.015 303.75C186.595 301.9 188.546 300.959 190.866 300.925C192.043 300.925 193.12 301.228 194.095 301.833C195.07 302.438 195.793 303.195 196.264 304.103C197.676 301.984 199.375 300.925 201.359 300.925C202.603 300.925 203.679 301.295 204.588 302.035C205.496 302.775 205.966 303.767 206 305.011C206 305.986 205.765 306.777 205.294 307.382C204.823 307.987 204.369 308.357 203.932 308.492C203.495 308.626 203.108 308.694 202.771 308.694C202.132 308.694 201.611 308.509 201.208 308.139C200.804 307.769 200.602 307.281 200.602 306.676C200.602 305.129 201.443 304.069 203.125 303.498C202.755 303.061 202.082 302.842 201.107 302.842C200.67 302.842 200.35 302.876 200.148 302.943C198.87 303.481 197.929 304.591 197.323 306.272C195.306 313.705 194.297 318.043 194.297 319.287C194.297 320.229 194.566 320.902 195.104 321.305C195.642 321.709 196.23 321.91 196.869 321.91C198.114 321.91 199.341 321.356 200.552 320.246C201.763 319.136 202.587 317.774 203.024 316.16C203.125 315.823 203.225 315.638 203.326 315.605C203.427 315.571 203.696 315.537 204.134 315.504H204.335C204.84 315.504 205.092 315.638 205.092 315.907C205.092 315.941 205.058 316.126 204.991 316.462C204.453 318.379 203.41 320.078 201.863 321.557C200.316 323.037 198.517 323.777 196.466 323.777C194.112 323.777 192.329 322.718 191.119 320.599C189.74 322.684 188.159 323.726 186.377 323.726H186.074C184.426 323.726 183.249 323.289 182.543 322.415C181.836 321.54 181.467 320.616 181.433 319.64C181.433 318.564 181.752 317.69 182.391 317.017C183.03 316.345 183.787 316.008 184.661 316.008C186.108 316.008 186.831 316.715 186.831 318.127C186.831 318.8 186.629 319.388 186.225 319.893C185.822 320.397 185.435 320.733 185.065 320.902C184.695 321.07 184.476 321.154 184.409 321.154L184.258 321.204C184.258 321.238 184.359 321.305 184.561 321.406C184.762 321.507 185.031 321.625 185.368 321.759C185.704 321.894 186.023 321.944 186.326 321.91C187.537 321.91 188.579 321.154 189.454 319.64C189.756 319.102 190.143 317.959 190.614 316.21C191.085 314.461 191.556 312.645 192.027 310.762C192.497 308.879 192.766 307.769 192.834 307.432C193.002 306.524 193.086 305.869 193.086 305.465C193.086 304.523 192.834 303.851 192.329 303.447C191.825 303.044 191.253 302.842 190.614 302.842C189.269 302.842 188.008 303.38 186.831 304.456C185.654 305.532 184.83 306.911 184.359 308.593C184.292 308.895 184.207 309.064 184.107 309.097C184.006 309.131 183.737 309.164 183.299 309.198H182.593C182.391 308.996 182.291 308.811 182.291 308.643Z" fill="black"/>
<path d="M344.236 165.364C343.412 165.364 343 165.122 343 164.637C343 164.54 343.073 164.201 343.218 163.619C343.412 162.844 343.606 162.407 343.8 162.311C343.994 162.214 344.551 162.141 345.472 162.092C346.78 162.092 348.234 162.02 349.834 161.874C350.512 161.729 350.973 161.438 351.215 161.002C351.312 160.76 353.033 153.95 356.377 140.573C359.721 127.196 361.418 120.411 361.466 120.217C361.466 119.877 361.369 119.708 361.175 119.708C360.787 119.562 359.503 119.441 357.322 119.344H355.068C354.778 119.053 354.632 118.86 354.632 118.763C354.632 118.666 354.681 118.254 354.778 117.527C354.971 116.703 355.214 116.194 355.505 116H394.69C395.03 116.194 395.199 116.46 395.199 116.8C395.199 117.042 394.884 119.756 394.254 124.942C393.624 130.128 393.285 132.794 393.236 132.939C393.139 133.279 392.655 133.448 391.782 133.448H390.91C390.571 133.206 390.401 132.891 390.401 132.503C390.401 132.455 390.474 131.873 390.619 130.758C390.765 129.644 390.837 128.359 390.837 126.905C390.837 125.451 390.668 124.264 390.328 123.343C389.989 122.422 389.529 121.671 388.947 121.089C388.365 120.507 387.469 120.12 386.257 119.926C385.045 119.732 383.809 119.562 382.549 119.417C381.289 119.272 379.544 119.247 377.315 119.344H375.643C371.668 119.393 369.56 119.465 369.318 119.562C369.075 119.659 368.906 119.853 368.809 120.144C368.76 120.192 367.936 123.367 366.337 129.668L364.011 139.046H368.009C368.155 139.046 368.712 139.046 369.681 139.046C370.651 139.046 371.329 139.022 371.717 138.974C372.105 138.925 372.638 138.852 373.316 138.755C373.995 138.658 374.576 138.489 375.061 138.246C375.546 138.004 375.958 137.713 376.297 137.374C376.927 136.792 377.46 135.993 377.896 134.975C378.333 133.957 378.648 133.036 378.842 132.212C379.035 131.388 379.157 130.952 379.205 130.904C379.35 130.661 379.811 130.54 380.586 130.54H381.459C381.798 130.783 381.968 131.025 381.968 131.267C381.968 131.413 381.216 134.587 379.714 140.791C378.211 146.995 377.388 150.194 377.242 150.388C377.145 150.727 376.661 150.896 375.788 150.896H374.916C374.576 150.606 374.407 150.315 374.407 150.024C374.407 149.879 374.528 149.346 374.77 148.425C375.013 147.504 375.134 146.534 375.134 145.517C375.134 144.111 374.649 143.239 373.68 142.899C372.71 142.56 370.554 142.39 367.209 142.39H363.211L360.884 151.623C359.333 157.633 358.558 160.784 358.558 161.075C358.558 161.753 360.715 162.092 365.028 162.092H366.846C367.137 162.383 367.282 162.553 367.282 162.601C367.282 162.65 367.234 163.134 367.137 164.055C366.943 164.685 366.701 165.146 366.41 165.437H365.174C363.187 165.34 359.527 165.291 354.196 165.291C351.046 165.291 348.646 165.291 346.999 165.291C345.351 165.291 344.43 165.315 344.236 165.364Z" fill="black"/>
<path d="M388.572 161.59C388.572 161.11 388.829 160.288 389.343 159.123C389.857 157.958 390.68 156.741 391.811 155.474C392.941 154.206 394.209 153.589 395.614 153.623C397.019 153.623 398.15 154.017 399.006 154.805C399.863 155.593 400.309 156.69 400.343 158.095C400.274 158.746 400.223 159.106 400.189 159.174C400.189 159.277 399.915 160.065 399.366 161.539C398.818 163.012 398.253 164.674 397.67 166.524C397.088 168.375 396.813 169.848 396.848 170.945C396.848 172.418 397.088 173.446 397.567 174.029C398.047 174.611 398.767 174.92 399.726 174.954C400.514 174.954 401.251 174.766 401.936 174.389C402.622 174.012 403.153 173.618 403.53 173.206C403.907 172.795 404.369 172.23 404.917 171.51C404.917 171.476 405.003 171.133 405.174 170.482C405.346 169.831 405.586 168.82 405.894 167.45C406.202 166.079 406.528 164.811 406.871 163.646C408.173 158.506 408.892 155.816 409.029 155.576C409.475 154.651 410.212 154.189 411.24 154.189C411.685 154.189 412.045 154.309 412.319 154.548C412.593 154.788 412.782 154.994 412.884 155.165C412.987 155.336 413.021 155.491 412.987 155.628C412.987 156.073 412.148 159.671 410.469 166.422C408.79 173.172 407.83 176.873 407.59 177.524C406.631 180.368 404.969 182.63 402.604 184.309C400.24 185.988 397.876 186.844 395.511 186.879C393.969 186.879 392.616 186.502 391.451 185.748C390.286 184.994 389.703 183.863 389.703 182.356C389.703 181.602 389.823 180.968 390.063 180.454C390.303 179.94 390.628 179.563 391.04 179.323C391.451 179.083 391.793 178.912 392.068 178.809C392.342 178.706 392.633 178.655 392.941 178.655C394.449 178.655 395.203 179.374 395.203 180.814C395.203 181.499 394.997 182.099 394.586 182.613C394.175 183.127 393.781 183.469 393.404 183.641C393.027 183.812 392.804 183.898 392.736 183.898L392.582 183.949C392.65 184.12 392.976 184.326 393.558 184.566C394.141 184.806 394.723 184.926 395.306 184.926H395.717C396.299 184.926 396.745 184.891 397.053 184.823C398.184 184.514 399.229 183.863 400.189 182.87C401.148 181.876 401.885 180.814 402.399 179.683C402.913 178.552 403.307 177.593 403.581 176.804C403.855 176.016 403.992 175.502 403.992 175.262L403.684 175.468C403.478 175.605 403.153 175.794 402.707 176.033C402.262 176.273 401.816 176.479 401.371 176.65C400.686 176.822 400.017 176.907 399.366 176.907C397.79 176.907 396.402 176.53 395.203 175.776C394.004 175.023 393.215 173.806 392.839 172.127C392.804 171.887 392.787 171.356 392.787 170.534C392.787 168.58 393.387 166.028 394.586 162.875C395.785 159.723 396.385 157.718 396.385 156.861C396.385 156.827 396.385 156.793 396.385 156.759C396.385 156.45 396.385 156.245 396.385 156.142C396.385 156.039 396.317 155.919 396.179 155.782C396.042 155.645 395.854 155.576 395.614 155.576H395.408C394.62 155.576 393.901 155.902 393.25 156.553C392.599 157.204 392.085 157.906 391.708 158.66C391.331 159.414 391.04 160.134 390.834 160.819C390.628 161.504 390.491 161.881 390.423 161.95C390.354 162.018 390.08 162.053 389.6 162.053H388.881C388.675 161.847 388.572 161.693 388.572 161.59Z" fill="black"/>
<path d="M314.5 234.5L15.1404 234.5L314.5 39.3062V234.5Z" stroke="#6C63FF" stroke-width="9"/>
<path d="M88.6466 97.7264H88.482C87.8233 97.7264 87.3293 97.3422 87 96.5738V56.5611L87.0823 16.5485C87.6312 15.8349 88.1526 15.4782 88.6466 15.4782C89.3601 15.4782 89.909 15.8898 90.2932 16.7131V96.5738C89.8541 97.3422 89.3601 97.7264 88.8113 97.7264H88.6466Z" fill="#6C63FF"/>
<path d="M104.042 77.1437C103.109 77.1437 102.643 76.8693 102.643 76.3204C102.643 76.2107 102.725 75.8265 102.89 75.1678C103.109 74.2896 103.329 73.7956 103.548 73.6859C103.768 73.5761 104.399 73.4938 105.442 73.4389C106.924 73.4389 108.571 73.3565 110.382 73.1919C111.15 73.0272 111.672 72.6979 111.946 72.2039C112.056 71.9295 114.004 64.2178 117.792 49.069C121.579 33.9202 123.5 26.236 123.555 26.0165C123.555 25.6322 123.445 25.4401 123.225 25.4401C122.786 25.2755 121.332 25.1383 118.862 25.0285H116.31C115.98 24.6992 115.816 24.4796 115.816 24.3698C115.816 24.2601 115.871 23.7935 115.98 22.9702C116.2 22.0371 116.474 21.4608 116.804 21.2413H161.18C161.564 21.4608 161.756 21.7627 161.756 22.1469C161.756 22.4213 161.399 25.495 160.686 31.3679C159.972 37.2409 159.588 40.2596 159.533 40.4243C159.423 40.8085 158.875 41.0006 157.887 41.0006H156.899C156.514 40.7262 156.322 40.3694 156.322 39.9303C156.322 39.8754 156.405 39.2168 156.569 37.9544C156.734 36.692 156.816 35.2375 156.816 33.5909C156.816 31.9443 156.624 30.5995 156.24 29.5567C155.856 28.5138 155.334 27.6631 154.676 27.0044C154.017 26.3458 153.002 25.9067 151.63 25.6871C150.257 25.4676 148.858 25.2755 147.431 25.1108C146.004 24.9462 144.028 24.9187 141.503 25.0285H139.609C135.109 25.0834 132.721 25.1657 132.446 25.2755C132.172 25.3852 131.98 25.6048 131.87 25.9341C131.815 25.989 130.882 29.5841 129.071 36.7194L126.436 47.3401H130.965C131.129 47.3401 131.76 47.3401 132.858 47.3401C133.956 47.3401 134.724 47.3126 135.163 47.2577C135.602 47.2029 136.206 47.1205 136.975 47.0107C137.743 46.901 138.402 46.7089 138.951 46.4344C139.499 46.16 139.966 45.8307 140.35 45.4465C141.064 44.7878 141.668 43.8822 142.162 42.7296C142.655 41.5769 143.012 40.5341 143.232 39.601C143.451 38.6679 143.589 38.1739 143.643 38.119C143.808 37.8446 144.33 37.7074 145.208 37.7074H146.196C146.58 37.9818 146.772 38.2563 146.772 38.5307C146.772 38.6954 145.921 42.2905 144.22 49.316C142.518 56.3415 141.585 59.9641 141.421 60.1836C141.311 60.5679 140.762 60.76 139.774 60.76H138.786C138.402 60.4306 138.21 60.1013 138.21 59.772C138.21 59.6073 138.347 59.0036 138.621 57.9607C138.896 56.9179 139.033 55.8201 139.033 54.6675C139.033 53.0758 138.484 52.0878 137.386 51.7036C136.289 51.3194 133.846 51.1273 130.059 51.1273H125.531L122.896 61.5833C121.14 68.3893 120.262 71.9569 120.262 72.2862C120.262 73.0547 122.704 73.4389 127.589 73.4389H129.647C129.977 73.7682 130.141 73.9603 130.141 74.0152C130.141 74.0701 130.086 74.6189 129.977 75.6618C129.757 76.3753 129.483 76.8968 129.153 77.2261H127.754C125.503 77.1163 121.359 77.0614 115.322 77.0614C111.754 77.0614 109.037 77.0614 107.171 77.0614C105.305 77.0614 104.262 77.0889 104.042 77.1437Z" fill="#6C63FF"/>
<path d="M154.783 1.64661C154.783 1.20751 154.92 0.823303 155.194 0.49398C155.469 0.164658 155.881 -3.09944e-06 156.429 -3.09944e-06C156.814 -3.09944e-06 157.143 0.137215 157.417 0.41165C157.692 0.631198 157.966 1.15263 158.241 1.97593C158.79 4.00675 159.915 5.57103 161.616 6.66877C162.22 7.05298 162.522 7.54697 162.522 8.15072C162.522 8.64471 162.44 8.97403 162.275 9.13869C162.11 9.30335 161.726 9.55034 161.122 9.87967C158.762 11.0872 156.704 12.8161 154.947 15.0665C154.838 15.1763 154.7 15.3409 154.536 15.5605C154.371 15.78 154.234 15.9447 154.124 16.0545C154.014 16.1642 153.877 16.2191 153.712 16.2191C153.548 16.2191 153.356 16.2466 153.136 16.3015C152.752 16.3015 152.395 16.1642 152.066 15.8898C151.737 15.6154 151.544 15.2037 151.49 14.6548C151.49 13.612 152.779 11.9928 155.359 9.79734H141.281L127.202 9.71501C126.488 9.22102 126.132 8.6996 126.132 8.15072C126.132 7.76652 126.488 7.21764 127.202 6.50411H156.759C155.441 4.4184 154.783 2.79924 154.783 1.64661Z" fill="#6C63FF"/>
<path d="M176.353 97.7264H176.189C175.53 97.7264 175.036 97.3422 174.707 96.5738V56.5611L174.789 16.5485C175.338 15.8349 175.859 15.4782 176.353 15.4782C177.067 15.4782 177.616 15.8898 178 16.7131V96.5738C177.561 97.3422 177.067 97.7264 176.518 97.7264H176.353Z" fill="#6C63FF"/>
</svg>
