<svg width="805" height="541" viewBox="0 0 805 541" fill="none" xmlns="http://www.w3.org/2000/svg">
<path d="M666.286 208.858C665.429 208.858 665 208.606 665 208.102C665 208.001 665.076 207.648 665.227 207.043C665.429 206.236 665.63 205.783 665.832 205.682C666.034 205.581 666.613 205.505 667.571 205.455C668.932 205.455 670.445 205.379 672.108 205.228C672.814 205.077 673.293 204.774 673.545 204.321C673.646 204.069 675.436 196.985 678.914 183.071C682.393 169.156 684.158 162.098 684.208 161.897C684.208 161.544 684.107 161.367 683.906 161.367C683.502 161.216 682.166 161.09 679.898 160.989H677.553C677.251 160.687 677.1 160.485 677.1 160.384C677.1 160.283 677.15 159.855 677.251 159.099C677.452 158.242 677.705 157.712 678.007 157.511H718.767C719.12 157.712 719.297 157.989 719.297 158.342C719.297 158.594 718.969 161.418 718.314 166.812C717.658 172.206 717.305 174.979 717.255 175.13C717.154 175.483 716.65 175.66 715.742 175.66H714.835C714.482 175.408 714.306 175.08 714.306 174.677C714.306 174.626 714.381 174.021 714.533 172.862C714.684 171.702 714.759 170.366 714.759 168.854C714.759 167.341 714.583 166.106 714.23 165.148C713.877 164.19 713.398 163.409 712.793 162.804C712.188 162.199 711.256 161.796 709.995 161.594C708.735 161.392 707.449 161.216 706.138 161.065C704.828 160.914 703.013 160.888 700.694 160.989H698.954C694.82 161.04 692.627 161.115 692.375 161.216C692.123 161.317 691.947 161.518 691.846 161.821C691.795 161.871 690.938 165.174 689.275 171.727L686.855 181.483H691.014C691.165 181.483 691.745 181.483 692.753 181.483C693.762 181.483 694.467 181.458 694.871 181.407C695.274 181.357 695.829 181.281 696.534 181.18C697.24 181.079 697.845 180.903 698.349 180.651C698.854 180.399 699.282 180.096 699.635 179.743C700.29 179.138 700.845 178.307 701.299 177.248C701.752 176.189 702.08 175.231 702.282 174.374C702.483 173.517 702.609 173.063 702.66 173.013C702.811 172.761 703.29 172.635 704.097 172.635H705.004C705.357 172.887 705.533 173.139 705.533 173.391C705.533 173.542 704.752 176.845 703.189 183.298C701.626 189.751 700.769 193.078 700.618 193.28C700.517 193.633 700.013 193.809 699.106 193.809H698.198C697.845 193.507 697.669 193.204 697.669 192.902C697.669 192.75 697.795 192.196 698.047 191.238C698.299 190.28 698.425 189.272 698.425 188.213C698.425 186.751 697.921 185.844 696.913 185.491C695.904 185.138 693.661 184.961 690.182 184.961H686.023L683.603 194.565C681.99 200.817 681.183 204.094 681.183 204.396C681.183 205.102 683.427 205.455 687.914 205.455H689.804C690.107 205.757 690.258 205.934 690.258 205.984C690.258 206.035 690.207 206.539 690.107 207.497C689.905 208.152 689.653 208.631 689.35 208.934H688.065C685.998 208.833 682.191 208.782 676.646 208.782C673.369 208.782 670.873 208.782 669.159 208.782C667.445 208.782 666.487 208.808 666.286 208.858Z" fill="#6C63FF"/>
<path d="M712.892 139.512C712.892 139.109 713.018 138.756 713.27 138.454C713.522 138.151 713.9 138 714.404 138C714.757 138 715.059 138.126 715.311 138.378C715.564 138.58 715.816 139.059 716.068 139.815C716.572 141.68 717.605 143.117 719.168 144.125C719.723 144.478 720 144.932 720 145.487C720 145.94 719.924 146.243 719.773 146.394C719.622 146.545 719.269 146.772 718.714 147.075C716.547 148.184 714.656 149.772 713.043 151.839C712.942 151.94 712.816 152.091 712.665 152.293C712.513 152.494 712.387 152.645 712.287 152.746C712.186 152.847 712.06 152.898 711.908 152.898C711.757 152.898 711.581 152.923 711.379 152.973C711.026 152.973 710.698 152.847 710.396 152.595C710.094 152.343 709.917 151.965 709.867 151.461C709.867 150.503 711.051 149.016 713.421 146.999H700.489L687.558 146.923C686.903 146.47 686.575 145.991 686.575 145.487C686.575 145.134 686.903 144.629 687.558 143.974H714.706C713.497 142.058 712.892 140.571 712.892 139.512Z" fill="#6C63FF"/>
<path d="M683.008 242.458L642.659 244.755L664.823 278.55L683.008 242.458ZM376.927 447.384L658.587 262.66L654.748 256.806L373.089 441.531L376.927 447.384Z" fill="#6C63FF"/>
<path d="M751.061 445.518C751.646 444.933 751.646 443.983 751.061 443.397L741.515 433.851C740.929 433.265 739.979 433.265 739.393 433.851C738.808 434.437 738.808 435.387 739.393 435.972L747.879 444.458L739.393 452.943C738.808 453.529 738.808 454.479 739.393 455.064C739.979 455.65 740.929 455.65 741.515 455.064L751.061 445.518ZM0 445.958H750V442.958H0V445.958Z" fill="black"/>
<path d="M376.061 64.3971C375.475 63.8113 374.525 63.8113 373.939 64.3971L364.393 73.943C363.808 74.5288 363.808 75.4786 364.393 76.0644C364.979 76.6502 365.929 76.6502 366.515 76.0644L375 67.5791L383.485 76.0644C384.071 76.6502 385.021 76.6502 385.607 76.0644C386.192 75.4786 386.192 74.5288 385.607 73.943L376.061 64.3971ZM376.5 540.458L376.5 65.4578H373.5L373.5 540.458H376.5Z" fill="black"/>
<path d="M765.404 436.817C765.788 434.517 767.266 431.862 769.84 428.85C772.413 425.838 775.589 424.305 779.367 424.25C781.284 424.25 783.036 424.743 784.624 425.729C786.212 426.714 787.389 427.946 788.156 429.425C790.456 425.975 793.221 424.25 796.452 424.25C798.478 424.25 800.23 424.853 801.708 426.057C803.187 427.262 803.953 428.877 804.008 430.903C804.008 432.491 803.625 433.778 802.858 434.764C802.091 435.749 801.352 436.352 800.64 436.571C799.929 436.79 799.299 436.899 798.751 436.899C797.711 436.899 796.862 436.598 796.205 435.996C795.548 435.393 795.219 434.599 795.219 433.614C795.219 431.095 796.588 429.37 799.326 428.439C798.724 427.727 797.629 427.372 796.041 427.372C795.329 427.372 794.809 427.426 794.48 427.536C792.4 428.412 790.866 430.219 789.881 432.957C786.595 445.058 784.953 452.122 784.953 454.148C784.953 455.681 785.391 456.776 786.267 457.433C787.143 458.09 788.101 458.419 789.141 458.419C791.167 458.419 793.166 457.515 795.137 455.708C797.109 453.901 798.45 451.684 799.162 449.055C799.326 448.508 799.491 448.207 799.655 448.152C799.819 448.097 800.257 448.042 800.969 447.988H801.298C802.119 447.988 802.53 448.207 802.53 448.645C802.53 448.699 802.475 449.001 802.365 449.548C801.489 452.669 799.792 455.434 797.273 457.844C794.754 460.253 791.825 461.458 788.484 461.458C784.651 461.458 781.749 459.733 779.778 456.283C777.533 459.678 774.959 461.376 772.057 461.376H771.564C768.881 461.376 766.965 460.664 765.815 459.24C764.665 457.816 764.063 456.311 764.008 454.723C764.008 452.97 764.528 451.547 765.569 450.452C766.609 449.356 767.841 448.809 769.265 448.809C771.619 448.809 772.796 449.959 772.796 452.259C772.796 453.354 772.468 454.312 771.811 455.133C771.154 455.955 770.524 456.502 769.922 456.776C769.319 457.05 768.964 457.187 768.854 457.187L768.608 457.269C768.608 457.324 768.772 457.433 769.1 457.597C769.429 457.762 769.867 457.953 770.415 458.172C770.962 458.391 771.482 458.474 771.975 458.419C773.946 458.419 775.644 457.187 777.068 454.723C777.56 453.847 778.19 451.985 778.957 449.137C779.723 446.29 780.49 443.333 781.256 440.267C782.023 437.2 782.461 435.393 782.571 434.846C782.844 433.367 782.981 432.3 782.981 431.643C782.981 430.109 782.571 429.014 781.749 428.357C780.928 427.7 779.997 427.372 778.957 427.372C776.766 427.372 774.713 428.248 772.796 430C770.88 431.752 769.538 433.997 768.772 436.735C768.662 437.228 768.525 437.502 768.361 437.556C768.197 437.611 767.759 437.666 767.047 437.721H765.897C765.569 437.392 765.404 437.091 765.404 436.817Z" fill="black"/>
<path d="M356.008 13.048C356.008 12.2624 356.429 10.9158 357.27 9.008C358.112 7.10023 359.459 5.1083 361.31 3.0322C363.162 0.956098 365.238 -0.0538972 367.539 0.00221366C369.839 0.00221366 371.691 0.647488 373.094 1.93804C374.497 3.22859 375.226 5.02413 375.282 7.32468C375.17 8.39078 375.086 8.97994 375.03 9.09217C375.03 9.2605 374.581 10.551 373.683 12.9638C372.785 15.3766 371.859 18.098 370.905 21.1279C369.952 24.1579 369.503 26.5707 369.559 28.3662C369.559 30.779 369.952 32.4623 370.737 33.4162C371.523 34.3701 372.701 34.8751 374.272 34.9312C375.563 34.9312 376.769 34.6226 377.891 34.0054C379.013 33.3882 379.883 32.7429 380.5 32.0695C381.118 31.3962 381.875 30.4704 382.773 29.2921C382.773 29.236 382.913 28.6748 383.194 27.6087C383.474 26.5426 383.867 24.8874 384.372 22.6429C384.877 20.3985 385.41 18.3224 385.971 16.4146C388.103 7.99801 389.282 3.59331 389.506 3.20053C390.236 1.68554 391.442 0.928042 393.125 0.928042C393.855 0.928042 394.444 1.12443 394.893 1.51721C395.342 1.90998 395.65 2.24665 395.819 2.5272C395.987 2.80775 396.043 3.06025 395.987 3.2847C395.987 4.01414 394.612 9.90577 391.863 20.9596C389.113 32.0134 387.542 38.0734 387.15 39.1395C385.578 43.7967 382.857 47.5 378.985 50.2495C375.114 52.9989 371.242 54.4017 367.37 54.4578C364.845 54.4578 362.629 53.8405 360.721 52.6061C358.814 51.3717 357.86 49.52 357.86 47.0511C357.86 45.8167 358.056 44.7786 358.449 43.937C358.842 43.0953 359.375 42.4781 360.048 42.0853C360.721 41.6926 361.282 41.412 361.731 41.2437C362.18 41.0753 362.657 40.9912 363.162 40.9912C365.631 40.9912 366.865 42.1695 366.865 44.5261C366.865 45.6484 366.529 46.6303 365.855 47.472C365.182 48.3136 364.537 48.8747 363.92 49.1553C363.302 49.4358 362.938 49.5761 362.825 49.5761L362.573 49.6603C362.685 49.9408 363.218 50.2775 364.172 50.6703C365.126 51.0631 366.08 51.2594 367.034 51.2594H367.707C368.661 51.2594 369.39 51.2033 369.895 51.0911C371.747 50.5861 373.458 49.52 375.03 47.8928C376.601 46.2656 377.807 44.5261 378.649 42.6745C379.49 40.8228 380.136 39.2517 380.585 37.9612C381.033 36.6706 381.258 35.829 381.258 35.4362L380.753 35.7729C380.416 35.9973 379.883 36.3059 379.154 36.6987C378.424 37.0915 377.695 37.4281 376.965 37.7087C375.843 37.9892 374.749 38.1295 373.683 38.1295C371.102 38.1295 368.829 37.5123 366.865 36.2779C364.902 35.0434 363.611 33.0515 362.994 30.3021C362.938 29.9093 362.91 29.0396 362.91 27.6929C362.91 24.4946 363.892 20.3143 365.855 15.1521C367.819 9.98994 368.801 6.70746 368.801 5.30469C368.801 5.24858 368.801 5.19246 368.801 5.13635C368.801 4.63136 368.801 4.29469 368.801 4.12636C368.801 3.95803 368.689 3.76164 368.465 3.5372C368.24 3.31275 367.932 3.20053 367.539 3.20053H367.202C365.912 3.20053 364.733 3.73358 363.667 4.79969C362.601 5.86579 361.759 7.01607 361.142 8.2505C360.525 9.48494 360.048 10.6633 359.711 11.7855C359.375 12.9077 359.15 13.5249 359.038 13.6371C358.926 13.7494 358.477 13.8055 357.691 13.8055H356.513C356.176 13.4688 356.008 13.2163 356.008 13.048Z" fill="black"/>
<path d="M498 411.97C498 407.192 498.913 402.157 500.74 396.864C502.567 391.571 505.049 387.005 508.187 383.164C511.326 379.323 514.581 377.122 517.953 376.56C518 376.56 518.187 376.56 518.515 376.56C518.843 376.56 519.124 376.536 519.358 376.489C521.888 376.677 523.855 377.824 525.26 379.932C527.087 382.742 528 386.513 528 391.244C528 396.63 526.946 402.11 524.838 407.684C522.731 413.258 520.037 417.824 516.759 421.384C513.48 424.944 510.342 426.724 507.344 426.724H506.852C505.166 426.724 503.714 426.255 502.496 425.318C501.279 424.382 500.365 423.14 499.756 421.595C499.148 420.049 498.703 418.48 498.422 416.888C498.141 415.295 498 413.656 498 411.97ZM522.45 386.255C522.45 381.478 521.208 379.089 518.726 379.089C517.04 379.089 515.4 380.143 513.808 382.251C512.215 384.358 510.904 386.747 509.874 389.417C508.843 392.087 508.047 394.429 507.485 396.443C506.923 398.457 506.618 399.628 506.571 399.955C508.867 400.002 511.138 400.026 513.386 400.026L520.201 399.955C520.248 399.909 520.436 399.136 520.763 397.637C521.091 396.138 521.466 394.265 521.888 392.016C522.309 389.768 522.496 387.848 522.45 386.255ZM503.48 416.747C503.48 421.712 504.721 424.194 507.204 424.194C507.906 424.194 508.656 423.96 509.452 423.492C510.248 423.023 511.208 422.133 512.333 420.822C513.457 419.511 514.581 417.473 515.705 414.71C516.829 411.946 517.953 408.527 519.077 404.452L519.429 403.258H505.728C505.728 403.398 505.518 404.288 505.096 405.927C504.674 407.567 504.3 409.393 503.972 411.407C503.644 413.422 503.48 415.201 503.48 416.747Z" fill="#6C63FF"/>
</svg>
