<svg width="200" height="56" viewBox="0 0 200 56" fill="none" xmlns="http://www.w3.org/2000/svg">
<path d="M0.922424 55.3915H0.830182C0.461212 55.3915 0.184485 55.1763 0 54.7458V32.3309L0.0461212 9.91603C0.353596 9.51632 0.645697 9.31646 0.922424 9.31646C1.32214 9.31646 1.62962 9.54707 1.84485 10.0083V54.7458C1.59887 55.1763 1.32214 55.3915 1.01467 55.3915H0.922424Z" fill="black"/>
<path d="M24.2136 12.4066C24.2444 12.4066 25.3513 12.3297 27.5344 12.176C29.7174 12.0223 30.8397 11.93 30.9012 11.8993C31.2702 11.8993 31.4547 12.0223 31.4547 12.2682C31.4547 12.4835 30.3324 17.1263 28.0878 26.1968C25.8432 35.2673 24.6902 39.8948 24.6287 40.0793C24.5672 40.2638 24.5519 40.4944 24.5826 40.7711C24.5826 42.0625 25.0131 42.7082 25.874 42.7082C26.1507 42.6775 26.4582 42.5391 26.7964 42.2931C27.4421 41.6782 28.0724 40.2023 28.6874 37.8655C28.8719 37.2506 29.0256 36.9277 29.1486 36.897C29.2101 36.8662 29.3638 36.8508 29.6098 36.8508H29.7943H29.9788C30.44 36.8508 30.6706 36.9738 30.6706 37.2198C30.6706 37.3735 30.6245 37.6195 30.5322 37.9577C30.1325 39.4951 29.6713 40.7404 29.1486 41.6936C28.6259 42.6467 28.1954 43.2617 27.8572 43.5384C27.519 43.8151 27.0885 44.0611 26.5658 44.2763C26.3198 44.3378 25.9509 44.3686 25.4589 44.3686C24.4135 44.3686 23.5372 44.138 22.83 43.6768C22.1228 43.2156 21.6616 42.739 21.4464 42.247L21.1696 41.5552C21.1389 41.5245 21.0774 41.5398 20.9851 41.6013C20.9237 41.6628 20.8622 41.7243 20.8007 41.7858C18.9866 43.5077 17.1417 44.3686 15.2661 44.3686C13.575 44.3686 12.0838 43.7536 10.7924 42.5237C9.50097 41.2938 8.85527 39.3414 8.85527 36.6663C8.85527 35.1905 9.16275 33.6838 9.77769 32.1465C10.3926 30.6091 11.1306 29.287 11.9915 28.18C13.4366 26.4274 14.8818 25.2129 16.3269 24.5365C17.772 23.86 19.0788 23.5218 20.2472 23.5218C21.9691 23.5218 23.2605 24.1675 24.1214 25.4589C24.2751 25.6434 24.352 25.7049 24.352 25.6434C24.3827 25.5204 24.7978 23.8447 25.5973 20.6162C26.3967 17.3877 26.8272 15.6812 26.8887 15.4967C26.8887 15.097 26.781 14.851 26.5658 14.7588C26.3506 14.6665 25.751 14.5897 24.7671 14.5282H23.7985C23.6141 14.3437 23.5218 14.2207 23.5218 14.1592C23.5218 14.0977 23.5526 13.8056 23.6141 13.2829C23.7678 12.6987 23.9677 12.4066 24.2136 12.4066ZM23.5679 28.8719C22.8607 26.4428 21.7077 25.2283 20.1088 25.2283C19.0327 25.2283 18.0026 25.7049 17.0187 26.658C16.0348 27.6112 15.2661 28.8565 14.7127 30.3939C13.821 32.8229 13.1907 35.3442 12.8217 37.9577C12.8217 38.05 12.8217 38.2191 12.8217 38.4651C12.8217 38.7111 12.8063 38.8955 12.7756 39.0185C12.7756 40.4022 13.0523 41.3553 13.6058 41.878C14.1592 42.4008 14.8203 42.6775 15.589 42.7082C17.2493 42.7082 18.9558 41.6013 20.7084 39.3875L21.0774 38.8802L23.5679 28.8719Z" fill="black"/>
<path d="M32.8844 0.922445C32.8844 0.676465 32.9613 0.461233 33.115 0.276748C33.2688 0.0922634 33.4994 2.09659e-05 33.8068 2.09659e-05C34.0221 2.09659e-05 34.2066 0.0768896 34.3603 0.230627C34.514 0.353617 34.6678 0.645718 34.8215 1.10693C35.129 2.24459 35.7593 3.12089 36.7125 3.73584C37.0507 3.95107 37.2198 4.2278 37.2198 4.56602C37.2198 4.84275 37.1737 5.02723 37.0814 5.11947C36.9892 5.21172 36.774 5.35008 36.4357 5.53457C35.1136 6.21101 33.9606 7.17955 32.9767 8.4402C32.9152 8.5017 32.8383 8.59394 32.7461 8.71693C32.6538 8.83992 32.5769 8.93216 32.5154 8.99366C32.454 9.05515 32.3771 9.0859 32.2848 9.0859C32.1926 9.0859 32.085 9.10127 31.962 9.13202C31.7468 9.13202 31.5469 9.05515 31.3624 8.90141C31.1779 8.74768 31.0703 8.51707 31.0396 8.20959C31.0396 7.62539 31.7621 6.71834 33.2073 5.48844H25.3205L17.4338 5.44232C17.0341 5.1656 16.8342 4.87349 16.8342 4.56602C16.8342 4.35079 17.0341 4.04331 17.4338 3.6436H33.9913C33.2534 2.47519 32.8844 1.56814 32.8844 0.922445Z" fill="black"/>
<path d="M44.9682 55.3915H44.8759C44.507 55.3915 44.2302 55.1763 44.0457 54.7458V32.3309L44.0919 9.91603C44.3993 9.51632 44.6914 9.31646 44.9682 9.31646C45.3679 9.31646 45.6754 9.54707 45.8906 10.0083V54.7458C45.6446 55.1763 45.3679 55.3915 45.0604 55.3915H44.9682Z" fill="black"/>
<path d="M66.7743 27.9033C66.7743 27.5036 66.9895 27.1961 67.42 26.9809H96.7992C97.2604 27.2269 97.491 27.5343 97.491 27.9033C97.491 28.2415 97.2758 28.5336 96.8453 28.7796L82.1788 28.8257H67.5122C67.0203 28.672 66.7743 28.3645 66.7743 27.9033ZM66.7743 36.8508C66.7743 36.3896 67.0203 36.0821 67.5122 35.9284H96.8453C97.2758 36.2359 97.491 36.5434 97.491 36.8508C97.491 37.2505 97.2604 37.558 96.7992 37.7733H67.42C66.9895 37.558 66.7743 37.2505 66.7743 36.8508Z" fill="black"/>
<path d="M117.913 24.1214C117.083 24.1214 116.422 23.8446 115.93 23.2912C115.438 22.7377 115.192 22.0613 115.192 21.2618C115.192 19.0788 116.007 17.1878 117.637 15.5889C119.266 13.9901 121.296 13.1906 123.725 13.1906C126.523 13.1906 128.86 14.0516 130.735 15.7734C132.611 17.4953 133.564 19.7245 133.595 22.461C133.595 23.7831 133.287 25.0438 132.672 26.2429C132.057 27.4421 131.319 28.4875 130.458 29.3792C129.598 30.2708 128.368 31.4085 126.769 32.7921C125.662 33.7453 124.124 35.1597 122.157 37.0353L119.435 39.6181L122.941 39.6642C127.768 39.6642 130.335 39.5873 130.643 39.4336C130.858 39.3721 131.227 38.0038 131.75 35.3288V35.1904H133.595V35.3288C133.564 35.421 133.364 36.8201 132.995 39.5258C132.626 42.2316 132.396 43.646 132.303 43.769V43.9073H115.192V43.031V42.4776C115.192 42.2624 115.285 42.0318 115.469 41.7858C115.654 41.5398 116.115 41.0017 116.853 40.1715C117.744 39.1876 118.513 38.3267 119.159 37.5887C119.435 37.2813 119.958 36.7124 120.727 35.8823C121.496 35.0521 122.018 34.4832 122.295 34.1758C122.572 33.8683 123.018 33.361 123.633 32.6538C124.247 31.9466 124.678 31.4239 124.924 31.0857C125.17 30.7474 125.523 30.2862 125.985 29.702C126.446 29.1178 126.769 28.6259 126.953 28.2261C127.138 27.8264 127.368 27.3806 127.645 26.8886C127.922 26.3967 128.122 25.9047 128.245 25.4127C128.368 24.9208 128.475 24.4596 128.567 24.0291C128.66 23.5986 128.706 23.0913 128.706 22.5071C128.706 20.57 128.183 18.8943 127.138 17.4799C126.092 16.0655 124.601 15.3583 122.664 15.3583C121.649 15.3583 120.758 15.6197 119.989 16.1424C119.22 16.6651 118.682 17.1724 118.375 17.6644C118.067 18.1563 117.913 18.4484 117.913 18.5407C117.913 18.5714 117.99 18.5868 118.144 18.5868C118.698 18.5868 119.266 18.802 119.851 19.2325C120.435 19.663 120.727 20.3702 120.727 21.3541C120.727 22.1228 120.481 22.7685 119.989 23.2912C119.497 23.8139 118.805 24.0906 117.913 24.1214Z" fill="black"/>
<path d="M146.546 30.6706C146.576 30.4861 146.622 30.2401 146.684 29.9326C146.745 29.6251 146.93 29.0409 147.237 28.18C147.545 27.3191 147.852 26.5965 148.16 26.0123C148.467 25.4281 148.959 24.8593 149.636 24.3058C150.312 23.7524 150.989 23.491 151.665 23.5218C152.341 23.5525 153.002 23.6601 153.648 23.8446C154.294 24.0291 154.755 24.3058 155.032 24.6748C155.309 25.0438 155.555 25.382 155.77 25.6895C155.985 25.9969 156.108 26.289 156.139 26.5658L156.231 26.8886C156.231 26.9501 156.246 26.9809 156.277 26.9809L156.784 26.4735C158.629 24.5057 160.797 23.5218 163.287 23.5218C163.81 23.5218 164.287 23.5525 164.717 23.614C165.148 23.6755 165.547 23.7831 165.916 23.9369C166.285 24.0906 166.577 24.2443 166.793 24.3981C167.008 24.5518 167.239 24.7363 167.485 24.9515C167.731 25.1668 167.884 25.3666 167.946 25.5511C168.007 25.7356 168.13 25.9354 168.315 26.1507C168.499 26.3659 168.561 26.5504 168.499 26.7041C168.438 26.8579 168.484 26.9962 168.638 27.1192C168.791 27.2422 168.822 27.3498 168.73 27.4421L169.099 26.9809C171.036 24.6748 173.327 23.5218 175.971 23.5218C177.631 23.5218 178.969 23.9369 179.983 24.767C180.998 25.5972 181.521 26.8117 181.551 28.4106C181.551 29.9787 180.967 32.4078 179.799 35.6978C178.63 38.9877 178.046 40.9556 178.046 41.6013C178.077 42.0317 178.154 42.3238 178.277 42.4776C178.4 42.6313 178.63 42.7082 178.969 42.7082C179.83 42.7082 180.629 42.247 181.367 41.3246C182.105 40.4021 182.705 39.1415 183.166 37.5426C183.258 37.2044 183.35 37.0045 183.442 36.943C183.535 36.8815 183.781 36.8508 184.18 36.8508C184.795 36.8508 185.103 36.9738 185.103 37.2198C185.103 37.2505 185.041 37.4811 184.918 37.9116C184.672 38.8033 184.334 39.6796 183.904 40.5405C183.473 41.4014 182.766 42.2624 181.782 43.1233C180.798 43.9842 179.737 44.3993 178.6 44.3686C177.155 44.3686 176.109 43.9535 175.463 43.1233C174.818 42.2931 174.495 41.4322 174.495 40.5405C174.495 39.9563 175.048 38.1114 176.155 35.0059C177.262 31.9005 177.831 29.5636 177.862 27.9955C177.862 26.1814 177.185 25.2744 175.832 25.2744H175.602C172.958 25.2744 170.728 26.8271 168.914 29.9326L168.591 30.4861L167.069 36.6663C166.055 40.6942 165.471 42.8619 165.317 43.1694C164.917 43.9996 164.256 44.4147 163.334 44.4147C162.934 44.4147 162.611 44.3071 162.365 44.0918C162.119 43.8766 161.95 43.6921 161.858 43.5384C161.765 43.3846 161.719 43.2309 161.719 43.0772C161.719 42.7389 162.242 40.5405 163.287 36.4818L164.948 29.7481C165.04 29.2869 165.086 28.7027 165.086 27.9955C165.086 26.1814 164.41 25.2744 163.057 25.2744H162.826C160.182 25.2744 157.953 26.8271 156.139 29.9326L155.816 30.4861L154.294 36.6663C153.279 40.6942 152.695 42.8619 152.541 43.1694C152.142 43.9996 151.48 44.4147 150.558 44.4147C150.158 44.4147 149.835 44.3224 149.59 44.1379C149.344 43.9535 149.174 43.769 149.082 43.5845C148.99 43.4 148.959 43.2463 148.99 43.1233C148.99 42.7236 149.574 40.2023 150.743 35.5594C151.942 30.8243 152.541 28.3491 152.541 28.1339C152.634 27.6727 152.68 27.2576 152.68 26.8886C152.68 25.7817 152.295 25.2283 151.527 25.2283C150.85 25.2283 150.281 25.6587 149.82 26.5196C149.359 27.3806 149.005 28.3184 148.759 29.333C148.513 30.3477 148.329 30.9012 148.206 30.9934C148.144 31.0549 147.898 31.0856 147.468 31.0856H146.822C146.638 30.9012 146.546 30.7628 146.546 30.6706Z" fill="black"/>
<path d="M194.558 16.2346C194.558 15.4967 194.85 14.851 195.434 14.2975C196.018 13.7441 196.695 13.452 197.463 13.4212C198.017 13.4212 198.478 13.6057 198.847 13.9747C199.216 14.3436 199.416 14.8049 199.447 15.3583C199.447 16.0655 199.139 16.7112 198.524 17.2954C197.909 17.8796 197.233 18.1871 196.495 18.2178C196.034 18.2178 195.603 18.0641 195.203 17.7566C194.804 17.4491 194.588 16.9418 194.558 16.2346ZM187.04 30.6706C187.04 30.4246 187.178 29.948 187.455 29.2408C187.732 28.5336 188.101 27.7495 188.562 26.8886C189.023 26.0277 189.7 25.2436 190.591 24.5364C191.483 23.8292 192.405 23.491 193.359 23.5218C194.558 23.5218 195.557 23.8754 196.356 24.5826C197.156 25.2897 197.571 26.2429 197.602 27.4421C197.602 27.9648 197.386 28.8257 196.956 30.0249C196.526 31.224 195.911 32.8383 195.111 34.8676C194.312 36.8969 193.666 38.6341 193.174 40.0793C193.02 40.7557 192.943 41.2477 192.943 41.5552C192.943 42.3238 193.205 42.7082 193.727 42.7082C194.004 42.7082 194.296 42.6621 194.604 42.5698C194.911 42.4776 195.265 42.2624 195.665 41.9241C196.064 41.5859 196.479 41.0478 196.91 40.3099C197.34 39.5719 197.725 38.6649 198.063 37.5887C198.155 37.2198 198.232 37.0045 198.293 36.943C198.355 36.8815 198.616 36.8508 199.078 36.8508C199.693 36.8508 200 37.0045 200 37.312C200 37.558 199.862 38.0346 199.585 38.7418C199.308 39.449 198.924 40.233 198.432 41.0939C197.94 41.9549 197.248 42.7236 196.356 43.4C195.465 44.0765 194.512 44.4147 193.497 44.4147C192.513 44.4147 191.606 44.0918 190.776 43.4461C189.946 42.8004 189.515 41.8165 189.484 40.4944C189.484 39.9717 189.561 39.4797 189.715 39.0185C189.869 38.5573 190.53 36.8047 191.698 33.7607C192.867 30.6552 193.543 28.795 193.727 28.18C193.912 27.5651 194.02 26.9655 194.05 26.3813C194.05 25.6433 193.789 25.2744 193.266 25.2744H193.174C192.252 25.2744 191.406 25.7817 190.637 26.7964C189.869 27.811 189.284 29.1024 188.885 30.6706C188.854 30.7013 188.823 30.7474 188.793 30.8089C188.762 30.8704 188.746 30.9165 188.746 30.9473C188.746 30.978 188.716 31.0088 188.654 31.0395C188.593 31.0703 188.547 31.0856 188.516 31.0856C188.485 31.0856 188.424 31.0856 188.331 31.0856C188.239 31.0856 188.116 31.0856 187.962 31.0856H187.317C187.132 30.9012 187.04 30.7628 187.04 30.6706Z" fill="black"/>
</svg>
