<svg width="30" height="51" viewBox="0 0 30 51" fill="none" xmlns="http://www.w3.org/2000/svg">
<path d="M0 36.2459C0 31.4684 0.913349 26.4333 2.74005 21.1405C4.56674 15.8478 7.04918 11.281 10.1874 7.44029C13.3255 3.59954 16.5808 1.39813 19.9532 0.836071C20 0.836071 20.1874 0.836071 20.5152 0.836071C20.8431 0.836071 21.1241 0.812651 21.3583 0.765813C23.8876 0.953167 25.8548 2.10071 27.26 4.20844C29.0867 7.01874 30 10.7892 30 15.5199C30 20.9063 28.9461 26.3864 26.8384 31.9602C24.7307 37.534 22.0375 42.1007 18.7588 45.6604C15.4801 49.2201 12.3419 51 9.34426 51H8.85246C7.16628 51 5.71429 50.5316 4.49649 49.5948C3.27869 48.6581 2.36534 47.4169 1.75644 45.8712C1.14754 44.3255 0.702576 42.7564 0.421546 41.1639C0.140515 39.5714 0 37.9321 0 36.2459ZM24.4496 10.5316C24.4496 5.7541 23.2084 3.36534 20.726 3.36534C19.0398 3.36534 17.4005 4.41921 15.808 6.52694C14.2155 8.63466 12.904 11.0234 11.8735 13.6932C10.8431 16.363 10.0468 18.7049 9.48478 20.719C8.92272 22.733 8.61827 23.904 8.57143 24.2319C10.8665 24.2787 13.1382 24.3021 15.3864 24.3021L22.2014 24.2319C22.2482 24.185 22.4356 23.4122 22.7635 21.9134C23.0913 20.4145 23.466 18.541 23.8876 16.2927C24.3091 14.0445 24.4965 12.1241 24.4496 10.5316ZM5.48009 41.0234C5.48009 45.9883 6.72131 48.4707 9.20375 48.4707C9.90632 48.4707 10.6557 48.2365 11.452 47.7682C12.2482 47.2998 13.2084 46.4098 14.3326 45.0984C15.4567 43.7869 16.5808 41.7494 17.7049 38.9859C18.829 36.2225 19.9532 32.8033 21.0773 28.7283L21.4286 27.534H7.72834C7.72834 27.6745 7.51756 28.5644 7.09602 30.2037C6.67447 31.8431 6.29977 33.6698 5.9719 35.6838C5.64403 37.6979 5.48009 39.4778 5.48009 41.0234Z" fill="#6C63FF"/>
</svg>
