<svg width="189" height="404" viewBox="0 0 189 404" fill="none" xmlns="http://www.w3.org/2000/svg">
<rect x="156" y="147" width="8" height="13" transform="rotate(-30 156 147)" fill="#C4C4C4"/>
<rect x="171.766" y="236" width="12" height="24" transform="rotate(35 171.766 236)" fill="#C4C4C4"/>
<rect x="177" y="185" width="12" height="24" fill="#C4C4C4"/>
<rect x="158" y="139.359" width="12" height="24" transform="rotate(-32 158 139.359)" fill="#C4C4C4"/>
<path d="M35.8462 97H42V122.667L22 139L28.6667 119.75L35.8462 97Z" fill="#C4C4C4"/>
<path d="M139.154 96H133V121.667L153 138L146.333 118.75L139.154 96Z" fill="#C4C4C4"/>
<g filter="url(#filter0_dd_1_66)">
<rect x="42" width="92" height="108" fill="#764740"/>
</g>
<path d="M139.154 295H133V269.333L153 253L146.333 272.25L139.154 295Z" fill="#C4C4C4"/>
<path d="M35.8462 295H42V269.333L22 253L28.6667 272.25L35.8462 295Z" fill="#C4C4C4"/>
<circle cx="88.5" cy="197.5" r="88.5" fill="black"/>
<circle cx="88.5" cy="197.5" r="79.5" fill="#3A3025"/>
<g filter="url(#filter1_dd_1_66)">
<rect x="42" y="288" width="92" height="108" fill="#6B3B36"/>
</g>
<path d="M74.456 125.928V124.944H81.2V125.928L79.088 126.168L82.16 131.304L85.352 126.216L83.312 125.928V124.944H88.808V125.928L86.696 126.192L82.76 132.288L87.272 139.776L89.336 140.016V141H82.544V140.016L84.752 139.752L81.392 134.184L77.864 139.752L79.736 140.016V141H74.24V140.016L76.52 139.728L80.816 133.224L76.568 126.168L74.456 125.928ZM90.6185 125.928V124.944H97.4105V125.928L95.2025 126.192C95.1865 127.2 95.1705 128.224 95.1545 129.264C95.1545 130.304 95.1545 131.344 95.1545 132.384V133.56C95.1545 134.584 95.1545 135.616 95.1545 136.656C95.1705 137.68 95.1865 138.712 95.2025 139.752L97.4105 140.016V141H90.6185V140.016L92.8265 139.752C92.8585 138.744 92.8745 137.72 92.8745 136.68C92.8745 135.64 92.8745 134.6 92.8745 133.56V132.384C92.8745 131.344 92.8745 130.312 92.8745 129.288C92.8745 128.248 92.8585 127.216 92.8265 126.192L90.6185 125.928ZM99.5248 125.928V124.944H106.317V125.928L104.109 126.192C104.093 127.2 104.077 128.224 104.061 129.264C104.061 130.304 104.061 131.344 104.061 132.384V133.56C104.061 134.584 104.061 135.616 104.061 136.656C104.077 137.68 104.093 138.712 104.109 139.752L106.317 140.016V141H99.5248V140.016L101.733 139.752C101.765 138.744 101.781 137.72 101.781 136.68C101.781 135.64 101.781 134.6 101.781 133.56V132.384C101.781 131.344 101.781 130.312 101.781 129.288C101.781 128.248 101.765 127.216 101.733 126.192L99.5248 125.928Z" fill="#C9B994"/>
<path d="M75.36 250.928V249.944H81.912V251.024L79.608 251.24L83.64 262.736L87.528 251.264L85.416 251.024V249.944H90.96V250.928L88.872 251.216L83.808 266.168H82.752L77.16 251.144L75.36 250.928ZM92.2279 250.928V249.944H99.0199V250.928L96.8119 251.192C96.7959 252.2 96.7799 253.224 96.7639 254.264C96.7639 255.304 96.7639 256.344 96.7639 257.384V258.56C96.7639 259.584 96.7639 260.616 96.7639 261.656C96.7799 262.68 96.7959 263.712 96.8119 264.752L99.0199 265.016V266H92.2279V265.016L94.4359 264.752C94.4679 263.744 94.4839 262.72 94.4839 261.68C94.4839 260.64 94.4839 259.6 94.4839 258.56V257.384C94.4839 256.344 94.4839 255.312 94.4839 254.288C94.4839 253.248 94.4679 252.216 94.4359 251.192L92.2279 250.928Z" fill="#C9B994"/>
<rect x="122.388" y="134" width="3" height="16" transform="rotate(27.5 122.388 134)" fill="#C9B994"/>
<rect x="147.419" y="160" width="3" height="16" transform="rotate(57 147.419 160)" fill="#C9B994"/>
<rect x="143" y="198" width="3" height="16" transform="rotate(-90 143 198)" fill="#C9B994"/>
<rect x="134" y="224.458" width="3" height="16" transform="rotate(-55 134 224.458)" fill="#C9B994"/>
<rect x="58.388" y="242" width="3" height="16" transform="rotate(27.5 58.388 242)" fill="#C9B994"/>
<rect x="115" y="246.5" width="3" height="16" transform="rotate(-30 115 246.5)" fill="#C9B994"/>
<rect x="51" y="134.5" width="3" height="16" transform="rotate(-30 51 134.5)" fill="#C9B994"/>
<rect x="25" y="160.458" width="3" height="16" transform="rotate(-55 25 160.458)" fill="#C9B994"/>
<rect x="37.4187" y="222" width="3" height="16" transform="rotate(57 37.4187 222)" fill="#C9B994"/>
<rect x="17" y="198" width="3" height="16" transform="rotate(-90 17 198)" fill="#C9B994"/>
<line y1="-0.5" x2="12" y2="-0.5" transform="matrix(1 0 0 -1 177 189)" stroke="black"/>
<line y1="-0.5" x2="12" y2="-0.5" transform="matrix(1 0 0 -1 177 207)" stroke="black"/>
<line y1="-0.5" x2="12" y2="-0.5" transform="matrix(1 0 0 -1 177 204)" stroke="black"/>
<line y1="-0.5" x2="12" y2="-0.5" transform="matrix(1 0 0 -1 177 201)" stroke="black"/>
<line y1="-0.5" x2="12" y2="-0.5" transform="matrix(1 0 0 -1 177 198)" stroke="black"/>
<line y1="-0.5" x2="12" y2="-0.5" transform="matrix(1 0 0 -1 177 195)" stroke="black"/>
<line y1="-0.5" x2="12" y2="-0.5" transform="matrix(1 0 0 -1 177 192)" stroke="black"/>
<line y1="-0.5" x2="12" y2="-0.5" transform="matrix(1 0 0 -1 177 186)" stroke="black"/>
<path d="M48.4963 168.96L59.518 186.247L85.518 200.747L89.9114 195.445L68.018 173.747L48.4963 168.96Z" fill="#C4C4C4"/>
<path d="M133.581 145.922L112.358 161.722L88.2972 194.072L91.9025 198.087L121.551 169.07L133.581 145.922Z" fill="#C4C4C4"/>
<circle cx="88.5" cy="197.5" r="4" fill="#C4C4C4" stroke="black"/>
<defs>
<filter id="filter0_dd_1_66" x="38" y="0" width="100" height="116" filterUnits="userSpaceOnUse" color-interpolation-filters="sRGB">
<feFlood flood-opacity="0" result="BackgroundImageFix"/>
<feColorMatrix in="SourceAlpha" type="matrix" values="0 0 0 0 0 0 0 0 0 0 0 0 0 0 0 0 0 0 127 0" result="hardAlpha"/>
<feOffset dy="4"/>
<feGaussianBlur stdDeviation="2"/>
<feComposite in2="hardAlpha" operator="out"/>
<feColorMatrix type="matrix" values="0 0 0 0 0 0 0 0 0 0 0 0 0 0 0 0 0 0 0.25 0"/>
<feBlend mode="normal" in2="BackgroundImageFix" result="effect1_dropShadow_1_66"/>
<feColorMatrix in="SourceAlpha" type="matrix" values="0 0 0 0 0 0 0 0 0 0 0 0 0 0 0 0 0 0 127 0" result="hardAlpha"/>
<feOffset dy="4"/>
<feGaussianBlur stdDeviation="2"/>
<feComposite in2="hardAlpha" operator="out"/>
<feColorMatrix type="matrix" values="0 0 0 0 0 0 0 0 0 0 0 0 0 0 0 0 0 0 0.25 0"/>
<feBlend mode="normal" in2="effect1_dropShadow_1_66" result="effect2_dropShadow_1_66"/>
<feBlend mode="normal" in="SourceGraphic" in2="effect2_dropShadow_1_66" result="shape"/>
</filter>
<filter id="filter1_dd_1_66" x="38" y="288" width="100" height="116" filterUnits="userSpaceOnUse" color-interpolation-filters="sRGB">
<feFlood flood-opacity="0" result="BackgroundImageFix"/>
<feColorMatrix in="SourceAlpha" type="matrix" values="0 0 0 0 0 0 0 0 0 0 0 0 0 0 0 0 0 0 127 0" result="hardAlpha"/>
<feOffset dy="4"/>
<feGaussianBlur stdDeviation="2"/>
<feComposite in2="hardAlpha" operator="out"/>
<feColorMatrix type="matrix" values="0 0 0 0 0 0 0 0 0 0 0 0 0 0 0 0 0 0 0.25 0"/>
<feBlend mode="normal" in2="BackgroundImageFix" result="effect1_dropShadow_1_66"/>
<feColorMatrix in="SourceAlpha" type="matrix" values="0 0 0 0 0 0 0 0 0 0 0 0 0 0 0 0 0 0 127 0" result="hardAlpha"/>
<feOffset dy="4"/>
<feGaussianBlur stdDeviation="2"/>
<feComposite in2="hardAlpha" operator="out"/>
<feColorMatrix type="matrix" values="0 0 0 0 0 0 0 0 0 0 0 0 0 0 0 0 0 0 0.25 0"/>
<feBlend mode="normal" in2="effect1_dropShadow_1_66" result="effect2_dropShadow_1_66"/>
<feBlend mode="normal" in="SourceGraphic" in2="effect2_dropShadow_1_66" result="shape"/>
</filter>
</defs>
</svg>
