<svg width="1080" height="906" viewBox="0 0 1080 906" fill="none" xmlns="http://www.w3.org/2000/svg">
<path d="M1002.12 584.121C1003.29 582.95 1003.29 581.05 1002.12 579.879L983.029 560.787C981.858 559.615 979.958 559.615 978.787 560.787C977.615 561.958 977.615 563.858 978.787 565.029L995.757 582L978.787 598.971C977.615 600.142 977.615 602.042 978.787 603.213C979.958 604.385 981.858 604.385 983.029 603.213L1002.12 584.121ZM0 585H1000V579H0V585Z" fill="black"/>
<path d="M502.121 79.8787C500.95 78.7071 499.05 78.7071 497.879 79.8787L478.787 98.9706C477.615 100.142 477.615 102.042 478.787 103.213C479.958 104.385 481.858 104.385 483.029 103.213L500 86.2426L516.971 103.213C518.142 104.385 520.042 104.385 521.213 103.213C522.385 102.042 522.385 100.142 521.213 98.9706L502.121 79.8787ZM503 903L503 82H497L497 903H503Z" fill="black"/>
<path d="M976 754L931.343 701.03L907.799 766.189L976 754ZM497.961 587.643L923.175 741.292L927.253 730.006L502.039 576.357L497.961 587.643Z" fill="#6C63FF"/>
<path d="M500 146L465.359 206H534.641L500 146ZM506 582V200H494V582H506Z" fill="#20861E"/>
<path d="M824 644.965C824 639.448 825.339 633.635 828.019 627.525C830.698 621.413 834.339 616.14 838.941 611.707C843.543 607.273 848.319 604.73 853.264 604.081C853.333 604.081 853.609 604.081 854.089 604.081C854.57 604.081 854.982 604.054 855.325 604C859.034 604.217 861.921 605.542 863.981 607.975C866.661 611.219 868 615.573 868 621.035C868 627.254 866.454 633.58 863.364 640.017C860.271 646.452 856.322 651.724 851.513 655.834C846.704 659.944 842.102 662 837.705 662H836.984C834.512 662 832.381 661.459 830.596 660.378C828.809 659.296 827.47 657.861 826.575 656.078C825.684 654.293 825.03 652.481 824.619 650.644C824.207 648.804 824 646.911 824 644.965ZM859.86 615.276C859.86 609.76 858.04 607.001 854.398 607.001C851.925 607.001 849.521 608.218 847.185 610.652C844.85 613.085 842.926 615.843 841.415 618.926C839.903 622.008 838.736 624.712 837.911 627.038C837.087 629.363 836.64 630.715 836.572 631.093C839.937 631.148 843.269 631.175 846.568 631.175L856.561 631.093C856.63 631.039 856.906 630.147 857.387 628.416C857.868 626.686 858.417 624.523 859.034 621.926C859.653 619.331 859.929 617.114 859.86 615.276ZM832.037 650.481C832.037 656.213 833.857 659.079 837.499 659.079C838.529 659.079 839.629 658.808 840.796 658.267C841.964 657.728 843.372 656.699 845.022 655.185C846.67 653.671 848.319 651.319 849.967 648.129C851.616 644.938 853.264 640.99 854.913 636.284L855.428 634.905H835.334C835.334 635.068 835.026 636.095 834.407 637.989C833.789 639.881 833.24 641.99 832.759 644.315C832.278 646.641 832.037 648.696 832.037 650.481Z" fill="black"/>
<path d="M391.122 818.467C390.374 818.467 390 818.246 390 817.807C390 817.719 390.066 817.411 390.198 816.883C390.374 816.179 390.551 815.783 390.726 815.695C390.902 815.607 391.408 815.54 392.245 815.497C393.433 815.497 394.753 815.43 396.204 815.299C396.821 815.166 397.239 814.903 397.458 814.507C397.547 814.286 399.109 808.104 402.145 795.959C405.182 783.814 406.721 777.654 406.766 777.477C406.766 777.17 406.678 777.015 406.501 777.015C406.15 776.883 404.983 776.773 403.003 776.685H400.957C400.693 776.421 400.56 776.246 400.56 776.158C400.56 776.07 400.605 775.695 400.693 775.035C400.868 774.287 401.089 773.825 401.353 773.648H436.929C437.237 773.825 437.392 774.068 437.392 774.375C437.392 774.595 437.106 777.06 436.533 781.767C435.962 786.477 435.654 788.896 435.61 789.028C435.521 789.336 435.082 789.49 434.29 789.49H433.498C433.19 789.271 433.035 788.985 433.035 788.632C433.035 788.589 433.102 788.06 433.233 787.048C433.365 786.036 433.431 784.869 433.431 783.55C433.431 782.23 433.278 781.152 432.97 780.316C432.661 779.479 432.243 778.797 431.716 778.27C431.188 777.742 430.373 777.389 429.273 777.213C428.173 777.038 427.051 776.883 425.906 776.752C424.763 776.619 423.179 776.597 421.155 776.685H419.636C416.028 776.729 414.114 776.795 413.895 776.883C413.674 776.971 413.52 777.148 413.432 777.411C413.387 777.456 412.64 780.338 411.187 786.058L409.076 794.573H412.706C412.838 794.573 413.344 794.573 414.224 794.573C415.104 794.573 415.72 794.551 416.072 794.506C416.424 794.463 416.908 794.396 417.524 794.308C418.14 794.221 418.669 794.067 419.108 793.847C419.548 793.627 419.922 793.363 420.23 793.055C420.802 792.526 421.287 791.8 421.683 790.877C422.079 789.953 422.365 789.116 422.541 788.369C422.716 787.62 422.826 787.224 422.871 787.181C423.002 786.96 423.42 786.85 424.124 786.85H424.916C425.225 787.071 425.379 787.291 425.379 787.51C425.379 787.642 424.696 790.524 423.333 796.157C421.969 801.79 421.22 804.694 421.089 804.87C421 805.178 420.561 805.331 419.769 805.331H418.977C418.669 805.068 418.514 804.804 418.514 804.539C418.514 804.408 418.624 803.923 418.844 803.088C419.065 802.251 419.175 801.371 419.175 800.447C419.175 799.171 418.734 798.379 417.854 798.071C416.975 797.763 415.016 797.61 411.979 797.61H408.35L406.237 805.992C404.829 811.448 404.125 814.309 404.125 814.572C404.125 815.189 406.083 815.497 409.999 815.497H411.65C411.914 815.76 412.046 815.915 412.046 815.958C412.046 816.003 412.001 816.442 411.914 817.279C411.738 817.85 411.518 818.269 411.254 818.532H410.132C408.327 818.444 405.005 818.401 400.164 818.401C397.305 818.401 395.127 818.401 393.631 818.401C392.134 818.401 391.298 818.423 391.122 818.467Z" fill="#D46FA0"/>
<path d="M431.801 757.939C431.801 757.588 431.911 757.28 432.131 757.016C432.352 756.751 432.681 756.62 433.121 756.62C433.43 756.62 433.693 756.73 433.913 756.949C434.134 757.126 434.354 757.543 434.573 758.204C435.013 759.831 435.916 761.086 437.279 761.966C437.763 762.274 438.006 762.67 438.006 763.154C438.006 763.551 437.94 763.814 437.808 763.947C437.675 764.078 437.367 764.276 436.883 764.541C434.991 765.509 433.342 766.894 431.933 768.699C431.846 768.787 431.735 768.919 431.603 769.095C431.471 769.27 431.362 769.403 431.273 769.491C431.185 769.578 431.075 769.623 430.944 769.623C430.811 769.623 430.658 769.645 430.481 769.689C430.173 769.689 429.887 769.578 429.623 769.358C429.36 769.139 429.205 768.809 429.162 768.368C429.162 767.533 430.195 766.235 432.264 764.474H420.976L409.69 764.408C409.118 764.012 408.831 763.594 408.831 763.154C408.831 762.847 409.118 762.406 409.69 761.835H433.385C432.329 760.162 431.801 758.864 431.801 757.939Z" fill="#D46FA0"/>
<path d="M454.433 826.426C453.966 826.832 453.281 827.267 452.379 827.734C451.477 828.2 450.528 828.434 449.532 828.434C447.573 828.434 446.002 827.734 444.819 826.334C443.638 824.933 443.031 823.145 443 820.967C443 817.701 444.198 814.698 446.593 811.961C448.989 809.223 451.648 807.838 454.573 807.808C456.035 807.808 457.388 808.554 458.633 810.047L458.773 809.86C458.836 809.768 458.913 809.674 459.006 809.581C459.1 809.487 459.24 809.362 459.426 809.208C459.613 809.052 459.815 808.943 460.033 808.881C460.25 808.818 460.5 808.772 460.779 808.741C461.215 808.741 461.573 808.881 461.853 809.16C462.133 809.441 462.289 809.737 462.32 810.047C462.32 810.514 461.433 814.278 459.659 821.34C457.886 828.402 456.953 832.012 456.859 832.166C456.299 833.847 455.102 835.232 453.266 836.319C451.431 837.409 449.33 837.969 446.966 838C442.58 838 440.387 836.942 440.387 834.826C440.387 834.018 440.666 833.303 441.226 832.68C441.786 832.058 442.503 831.747 443.373 831.747C443.84 831.747 444.275 831.887 444.679 832.166C445.084 832.447 445.302 832.929 445.333 833.614C445.333 833.924 445.302 834.22 445.24 834.501C445.177 834.78 445.069 834.998 444.913 835.153C444.758 835.309 444.633 835.465 444.54 835.62C444.446 835.776 444.338 835.9 444.213 835.994L444.119 836.086H444.167C444.477 836.18 445.411 836.227 446.966 836.227C448.149 836.227 449.082 836.04 449.766 835.667C450.482 835.324 451.151 834.811 451.773 834.126C452.396 833.443 452.831 832.712 453.079 831.933C453.266 831.342 453.515 830.377 453.827 829.04C454.231 827.547 454.433 826.676 454.433 826.426ZM457.84 813.127L457.653 812.613C457.559 812.272 457.482 812.038 457.42 811.914C457.357 811.789 457.264 811.572 457.14 811.261C457.015 810.949 456.859 810.732 456.674 810.607C456.486 810.483 456.284 810.312 456.066 810.093C455.849 809.876 455.568 809.737 455.226 809.674C454.885 809.612 454.541 809.564 454.2 809.534C452.831 809.534 451.509 810.358 450.234 812.007C449.299 813.221 448.522 815.071 447.899 817.56C447.278 820.049 446.966 821.854 446.966 822.973C446.966 825.431 447.931 826.66 449.859 826.66C451.602 826.66 453.313 825.572 454.993 823.394L455.366 822.927L457.84 813.127Z" fill="#D46FA0"/>
<path d="M257.278 536.476C256.427 536.476 256 536.226 256 535.725C256 535.624 256.076 535.273 256.225 534.672C256.427 533.869 256.627 533.417 256.828 533.318C257.028 533.217 257.604 533.142 258.557 533.091C259.911 533.091 261.416 533.017 263.07 532.866C263.773 532.717 264.248 532.415 264.5 531.964C264.599 531.714 266.38 524.668 269.84 510.828C273.299 496.988 275.055 489.968 275.105 489.768C275.105 489.417 275.004 489.242 274.804 489.242C274.403 489.091 273.074 488.965 270.818 488.866H268.486C268.185 488.565 268.034 488.364 268.034 488.263C268.034 488.164 268.085 487.737 268.185 486.985C268.385 486.133 268.636 485.606 268.937 485.406H309.478C309.829 485.606 310.005 485.883 310.005 486.234C310.005 486.484 309.678 489.291 309.026 494.657C308.374 500.022 308.023 502.78 307.974 502.931C307.874 503.282 307.371 503.457 306.469 503.457H305.567C305.216 503.207 305.04 502.881 305.04 502.48C305.04 502.429 305.115 501.828 305.266 500.674C305.416 499.521 305.492 498.192 305.492 496.688C305.492 495.184 305.317 493.954 304.966 493.002C304.615 492.049 304.138 491.272 303.536 490.67C302.935 490.069 302.006 489.667 300.753 489.467C299.5 489.266 298.221 489.091 296.918 488.94C295.614 488.79 293.808 488.765 291.502 488.866H289.772C285.659 488.915 283.479 488.99 283.228 489.091C282.977 489.192 282.802 489.392 282.701 489.693C282.651 489.743 281.799 493.027 280.144 499.546L277.737 509.249H281.875C282.024 509.249 282.601 509.249 283.603 509.249C284.606 509.249 285.308 509.224 285.71 509.174C286.111 509.123 286.662 509.048 287.364 508.948C288.067 508.848 288.668 508.672 289.17 508.421C289.671 508.171 290.098 507.87 290.449 507.519C291.1 506.918 291.651 506.09 292.103 505.036C292.555 503.983 292.881 503.031 293.081 502.179C293.282 501.326 293.407 500.875 293.457 500.825C293.608 500.574 294.084 500.449 294.887 500.449H295.789C296.14 500.699 296.315 500.949 296.315 501.201C296.315 501.351 295.538 504.635 293.983 511.054C292.429 517.472 291.577 520.781 291.426 520.983C291.326 521.334 290.825 521.509 289.923 521.509H289.019C288.668 521.208 288.493 520.907 288.493 520.607C288.493 520.456 288.618 519.904 288.869 518.952C289.12 517.999 289.246 516.997 289.246 515.943C289.246 514.489 288.744 513.587 287.741 513.235C286.738 512.884 284.507 512.708 281.047 512.708H276.909L274.503 522.261C272.898 528.479 272.096 531.738 272.096 532.04C272.096 532.74 274.327 533.091 278.79 533.091H280.67C280.971 533.392 281.122 533.568 281.122 533.619C281.122 533.669 281.072 534.17 280.971 535.122C280.771 535.774 280.521 536.251 280.22 536.552H278.94C276.885 536.451 273.099 536.401 267.583 536.401C264.324 536.401 261.842 536.401 260.137 536.401C258.432 536.401 257.48 536.426 257.278 536.476Z" fill="#EF224B"/>
<path d="M308.307 556.449C308.377 556.449 308.484 556.485 308.626 556.555C308.768 556.626 308.963 556.679 309.21 556.715C309.459 556.75 309.671 556.768 309.849 556.768C310.31 556.768 310.735 556.538 311.125 556.077C311.515 555.616 311.799 555.102 311.976 554.535C312.33 553.577 312.933 550.865 313.783 546.399C314.635 541.932 315.45 537.678 316.23 533.636C317.009 529.594 317.4 527.556 317.4 527.521V527.36H314.9C313.235 527.36 312.349 527.326 312.241 527.254C312.1 527.148 312.029 526.971 312.029 526.723L312.402 525.234C312.472 525.057 312.614 524.968 312.827 524.968C313.039 524.968 313.872 524.951 315.326 524.915C317.028 524.915 317.878 524.898 317.878 524.862C317.878 524.79 318.037 523.904 318.357 522.203C318.676 520.501 318.889 519.473 318.995 519.119C320.307 513.269 322.895 510.345 326.758 510.345C328.071 510.415 329.152 510.804 330.003 511.515C330.853 512.223 331.279 513.163 331.279 514.332C331.279 515.608 330.906 516.53 330.162 517.097C329.417 517.666 328.673 517.966 327.93 518.002C326.369 518.002 325.589 517.258 325.589 515.768C325.589 515.094 325.785 514.51 326.174 514.013C326.564 513.518 326.989 513.145 327.45 512.896L327.93 512.631C327.361 512.418 326.83 512.312 326.333 512.312C325.908 512.312 325.5 512.49 325.11 512.843C324.721 513.198 324.455 513.694 324.313 514.332C324.065 515.36 323.782 516.744 323.462 518.48C323.143 520.217 322.86 521.689 322.612 522.895C322.363 524.099 322.24 524.737 322.24 524.809C322.24 524.879 323.213 524.915 325.163 524.915C326.758 524.915 327.681 524.932 327.93 524.968C328.177 525.004 328.372 525.11 328.514 525.287C328.55 525.429 328.514 525.73 328.408 526.191C328.302 526.652 328.213 526.935 328.142 527.042C328.071 527.219 327.911 527.307 327.663 527.307C327.416 527.307 326.458 527.326 324.791 527.36H321.813L320.59 533.848C318.889 542.641 317.701 548.136 317.028 550.334C316.07 553.346 314.83 555.58 313.305 557.034C311.994 558.168 310.699 558.735 309.424 558.735C308.288 558.735 307.26 558.399 306.339 557.725C305.417 557.052 304.956 556.094 304.956 554.854C304.956 553.542 305.329 552.584 306.073 551.982C306.818 551.379 307.562 551.078 308.307 551.078C309.866 551.078 310.646 551.823 310.646 553.312C310.646 553.985 310.452 554.57 310.061 555.066C309.671 555.563 309.246 555.935 308.785 556.183L308.307 556.449Z" fill="#EF224B"/>
<path d="M332.638 531.486C332.638 531.235 332.688 530.947 332.788 530.621C332.888 530.295 333.039 530.132 333.239 530.132C333.265 530.132 334.167 530.07 335.946 529.945C337.725 529.819 338.641 529.744 338.691 529.719C338.992 529.719 339.141 529.819 339.141 530.019C339.141 530.195 338.515 532.815 337.261 537.878C336.008 542.841 335.382 545.409 335.382 545.584C335.858 545.334 336.221 545.095 336.472 544.87C337.075 544.418 337.938 543.63 339.067 542.501C340.195 541.374 341.072 540.61 341.698 540.208C342.701 539.531 343.654 539.193 344.556 539.193C345.308 539.193 345.896 539.432 346.323 539.908C346.748 540.383 346.975 541.06 347 541.937C347 542.564 346.911 543.091 346.736 543.516C346.56 543.943 346.323 544.255 346.022 544.457C345.722 544.657 345.458 544.795 345.233 544.87C345.006 544.946 344.781 544.983 344.556 544.983C344.055 544.983 343.654 544.845 343.353 544.569C343.052 544.294 342.901 543.931 342.901 543.479C342.901 542.853 343.102 542.339 343.503 541.937C343.904 541.537 344.305 541.273 344.705 541.149L345.308 541.035C345.006 540.734 344.705 540.585 344.405 540.585H344.255C343.452 540.66 342.664 540.973 341.886 541.524C341.11 542.076 340.195 542.878 339.141 543.931C338.089 544.983 337.261 545.747 336.66 546.224C336.71 546.249 336.898 546.286 337.224 546.337C337.55 546.387 337.851 546.461 338.127 546.562C338.402 546.663 338.728 546.762 339.104 546.863C339.48 546.963 339.818 547.138 340.119 547.389C340.42 547.64 340.695 547.866 340.947 548.066C341.197 548.267 341.411 548.593 341.586 549.043C341.76 549.495 341.836 549.908 341.811 550.285C341.811 550.71 341.749 551.224 341.623 551.825C341.498 552.427 341.423 552.929 341.397 553.329C341.397 554.332 341.737 554.833 342.412 554.833C343.615 554.833 344.593 553.342 345.345 550.359C345.396 550.159 345.646 550.058 346.096 550.058H346.248C346.649 550.058 346.849 550.171 346.849 550.397C346.849 550.522 346.812 550.698 346.736 550.923C345.708 554.458 344.23 556.224 342.3 556.224C341.172 556.224 340.257 555.899 339.556 555.247C338.854 554.596 338.503 553.655 338.503 552.427C338.503 551.976 338.54 551.587 338.615 551.261C338.691 550.935 338.728 550.634 338.728 550.359C338.728 549.808 338.553 549.332 338.202 548.931C337.851 548.529 337.412 548.242 336.887 548.066C336.359 547.891 335.934 547.753 335.608 547.652C335.282 547.552 335.057 547.515 334.931 547.54H334.856C334.555 548.593 334.291 549.608 334.066 550.585C333.841 551.562 333.666 552.289 333.54 552.766C333.414 553.242 333.302 553.705 333.201 554.157C333.102 554.607 333.014 554.908 332.939 555.059C332.863 555.209 332.776 555.372 332.675 555.548C332.576 555.723 332.437 555.836 332.262 555.886C331.936 556.111 331.585 556.224 331.208 556.224C330.783 556.224 330.457 556.099 330.232 555.849C330.006 555.597 329.893 555.385 329.893 555.209C329.893 554.959 330.357 552.953 331.284 549.194C332.211 545.435 333.127 541.737 334.029 538.103L335.42 532.652C335.445 532.326 335.358 532.126 335.156 532.05C334.956 531.975 334.467 531.912 333.69 531.862H333.503C333.251 531.862 333.088 531.862 333.014 531.862C332.939 531.862 332.851 531.825 332.751 531.749C332.65 531.674 332.613 531.587 332.638 531.486Z" fill="#EF224B"/>
<path d="M303.81 467.504C303.81 467.104 303.935 466.752 304.185 466.452C304.437 466.151 304.813 466 305.314 466C305.665 466 305.966 466.126 306.216 466.376C306.468 466.576 306.718 467.053 306.969 467.806C307.471 469.66 308.498 471.09 310.053 472.093C310.604 472.444 310.88 472.894 310.88 473.447C310.88 473.897 310.805 474.198 310.654 474.349C310.503 474.5 310.154 474.725 309.601 475.026C307.446 476.129 305.564 477.709 303.96 479.765C303.859 479.865 303.735 480.015 303.584 480.215C303.434 480.416 303.308 480.566 303.208 480.667C303.108 480.767 302.982 480.818 302.831 480.818C302.682 480.818 302.506 480.843 302.305 480.892C301.954 480.892 301.629 480.767 301.328 480.517C301.027 480.265 300.851 479.889 300.802 479.388C300.802 478.436 301.98 476.956 304.336 474.95H291.474L278.613 474.875C277.961 474.424 277.635 473.947 277.635 473.447C277.635 473.096 277.961 472.593 278.613 471.942H305.615C304.412 470.037 303.81 468.557 303.81 467.504Z" fill="#EF224B"/>
<path d="M525.154 162.635C524.384 162.635 524 162.408 524 161.956C524 161.865 524.069 161.548 524.204 161.004C524.384 160.28 524.566 159.873 524.747 159.783C524.928 159.692 525.448 159.625 526.309 159.579C527.532 159.579 528.89 159.51 530.384 159.375C531.018 159.239 531.448 158.968 531.674 158.561C531.765 158.334 533.372 151.972 536.495 139.477C539.62 126.98 541.204 120.642 541.25 120.461C541.25 120.144 541.16 119.985 540.979 119.985C540.616 119.849 539.416 119.736 537.379 119.646H535.274C535.002 119.374 534.866 119.193 534.866 119.102C534.866 119.012 534.912 118.627 535.002 117.948C535.183 117.178 535.41 116.703 535.681 116.522H572.286C572.603 116.703 572.762 116.952 572.762 117.269C572.762 117.495 572.468 120.031 571.879 124.875C571.291 129.719 570.974 132.21 570.928 132.346C570.838 132.663 570.385 132.821 569.57 132.821H568.754C568.439 132.594 568.28 132.3 568.28 131.937C568.28 131.893 568.347 131.349 568.483 130.308C568.619 129.267 568.687 128.067 568.687 126.709C568.687 125.35 568.529 124.241 568.212 123.381C567.895 122.521 567.465 121.819 566.922 121.276C566.378 120.732 565.541 120.37 564.408 120.189C563.277 120.008 562.122 119.849 560.945 119.714C559.768 119.578 558.138 119.555 556.055 119.646H554.494C550.78 119.691 548.811 119.759 548.585 119.849C548.358 119.94 548.2 120.121 548.11 120.393C548.064 120.438 547.294 123.404 545.8 129.289L543.627 138.05H547.363C547.498 138.05 548.018 138.05 548.924 138.05C549.829 138.05 550.463 138.027 550.826 137.983C551.187 137.937 551.686 137.869 552.32 137.779C552.954 137.687 553.497 137.53 553.95 137.303C554.402 137.077 554.788 136.805 555.105 136.488C555.693 135.945 556.19 135.198 556.599 134.247C557.006 133.296 557.3 132.436 557.482 131.666C557.663 130.896 557.776 130.489 557.821 130.443C557.957 130.218 558.387 130.105 559.111 130.105H559.927C560.244 130.331 560.402 130.558 560.402 130.783C560.402 130.919 559.7 133.885 558.296 139.68C556.893 145.475 556.123 148.463 555.988 148.645C555.896 148.962 555.444 149.12 554.629 149.12H553.814C553.497 148.849 553.338 148.577 553.338 148.305C553.338 148.169 553.451 147.672 553.678 146.811C553.904 145.951 554.018 145.045 554.018 144.094C554.018 142.782 553.565 141.966 552.66 141.649C551.754 141.332 549.739 141.174 546.616 141.174H542.88L540.707 149.8C539.258 155.413 538.533 158.356 538.533 158.628C538.533 159.262 540.549 159.579 544.578 159.579H546.276C546.547 159.85 546.683 160.009 546.683 160.055C546.683 160.099 546.637 160.552 546.547 161.413C546.366 162.001 546.14 162.431 545.869 162.702H544.713C542.857 162.612 539.439 162.567 534.459 162.567C531.515 162.567 529.274 162.567 527.735 162.567C526.195 162.567 525.335 162.59 525.154 162.635Z" fill="#20861E"/>
<path d="M567.009 100.358C567.009 99.996 567.122 99.6791 567.349 99.4075C567.576 99.1358 567.915 99 568.367 99C568.685 99 568.956 99.1131 569.183 99.3396C569.409 99.5207 569.636 99.9508 569.861 100.63C570.314 102.305 571.242 103.595 572.646 104.501C573.145 104.818 573.393 105.225 573.393 105.723C573.393 106.131 573.326 106.403 573.189 106.538C573.053 106.674 572.736 106.878 572.239 107.15C570.293 108.146 568.595 109.572 567.145 111.428C567.055 111.519 566.942 111.655 566.806 111.836C566.669 112.017 566.556 112.153 566.466 112.243C566.375 112.334 566.262 112.379 566.127 112.379C565.991 112.379 565.832 112.402 565.651 112.447C565.334 112.447 565.04 112.334 564.768 112.107C564.497 111.881 564.338 111.541 564.293 111.089C564.293 110.228 565.357 108.893 567.485 107.082H555.872L544.259 107.014C543.669 106.606 543.375 106.176 543.375 105.723C543.375 105.407 543.669 104.954 544.259 104.365H568.639C567.553 102.645 567.009 101.309 567.009 100.358Z" fill="#20861E"/>
<path d="M586.598 142.305C586.503 142.305 586.374 142.305 586.214 142.305C585.415 142.305 584.934 142.289 584.774 142.256C584.614 142.224 584.533 142.048 584.533 141.728C584.533 140.863 584.709 140.335 585.063 140.143C585.126 140.112 586.679 140.096 589.719 140.096C592.184 140.096 593.592 140.096 593.944 140.096C594.297 140.096 594.52 140.192 594.617 140.384C601.371 156.261 604.813 164.407 604.94 164.824L607.533 154.596C609.23 147.843 610.078 144.241 610.078 143.793C610.078 142.928 609.054 142.432 607.005 142.305C606.237 142.305 605.852 142.129 605.852 141.777C605.852 141.712 605.885 141.52 605.948 141.2C606.077 140.687 606.172 140.384 606.237 140.288C606.3 140.192 606.461 140.127 606.716 140.096C606.813 140.096 607.309 140.112 608.205 140.143C609.101 140.175 610.43 140.208 612.191 140.24C613.791 140.24 615.007 140.224 615.84 140.192C616.671 140.159 617.152 140.143 617.28 140.143C617.76 140.143 618 140.304 618 140.624C618 141.328 617.872 141.808 617.616 142.064C617.553 142.224 617.199 142.305 616.56 142.305C614.287 142.432 612.863 143.073 612.286 144.225L605.132 172.554C605.068 172.778 604.732 172.89 604.123 172.89C603.676 172.89 603.403 172.858 603.308 172.794C603.211 172.698 601.146 167.848 597.113 158.245L591.015 143.889L587.895 156.372C585.814 164.567 584.774 168.808 584.774 169.097C584.934 170.153 586.086 170.681 588.23 170.681H588.711C588.903 170.841 588.999 170.969 588.999 171.065C588.999 171.161 588.967 171.466 588.904 171.978C588.775 172.394 588.615 172.698 588.423 172.89H587.799C586.806 172.825 585.077 172.794 582.613 172.794C581.717 172.794 580.901 172.794 580.164 172.794C579.428 172.794 578.836 172.794 578.388 172.794C577.94 172.794 577.668 172.809 577.571 172.841C577.092 172.841 576.851 172.698 576.851 172.41C576.851 172.281 576.9 172.026 576.995 171.642C577.092 171.258 577.171 171.033 577.236 170.969C577.3 170.777 577.668 170.681 578.34 170.681C580.516 170.584 581.926 169.961 582.565 168.808C582.693 168.616 583.829 164.183 585.975 155.508L589.239 142.449C589.175 142.416 588.295 142.368 586.598 142.305Z" fill="#20861E"/>
<path d="M989.262 813.514C988.421 813.514 988 813.267 988 812.771C988 812.673 988.074 812.326 988.223 811.732C988.421 810.939 988.618 810.494 988.817 810.395C989.015 810.297 989.584 810.222 990.524 810.173C991.861 810.173 993.346 810.098 994.979 809.95C995.672 809.801 996.142 809.504 996.39 809.059C996.489 808.812 998.246 801.857 1001.66 788.196C1005.08 774.534 1006.81 767.604 1006.86 767.406C1006.86 767.06 1006.76 766.886 1006.56 766.886C1006.17 766.738 1004.85 766.615 1002.63 766.515H1000.33C1000.03 766.218 999.88 766.021 999.88 765.921C999.88 765.822 999.929 765.401 1000.03 764.659C1000.23 763.818 1000.47 763.298 1000.77 763.099H1040.79C1041.14 763.298 1041.31 763.571 1041.31 763.916C1041.31 764.165 1040.99 766.936 1040.34 772.232C1039.7 777.528 1039.35 780.251 1039.31 780.4C1039.21 780.747 1038.71 780.919 1037.82 780.919H1036.93C1036.58 780.672 1036.41 780.35 1036.41 779.954C1036.41 779.904 1036.48 779.31 1036.63 778.172C1036.78 777.034 1036.86 775.722 1036.86 774.237C1036.86 772.752 1036.68 771.54 1036.34 770.599C1035.99 769.659 1035.52 768.891 1034.92 768.297C1034.33 767.703 1033.41 767.307 1032.18 767.109C1030.94 766.912 1029.68 766.738 1028.39 766.589C1027.1 766.441 1025.32 766.416 1023.04 766.515H1021.34C1017.28 766.565 1015.13 766.639 1014.88 766.738C1014.63 766.838 1014.46 767.035 1014.36 767.332C1014.31 767.382 1013.47 770.624 1011.83 777.058L1009.46 786.637H1013.54C1013.69 786.637 1014.26 786.637 1015.25 786.637C1016.24 786.637 1016.93 786.611 1017.33 786.562C1017.72 786.512 1018.27 786.438 1018.96 786.34C1019.65 786.24 1020.25 786.067 1020.74 785.82C1021.24 785.571 1021.66 785.274 1022.01 784.929C1022.65 784.335 1023.19 783.518 1023.64 782.479C1024.08 781.439 1024.41 780.498 1024.6 779.657C1024.8 778.816 1024.93 778.371 1024.98 778.321C1025.12 778.074 1025.59 777.949 1026.39 777.949H1027.28C1027.62 778.196 1027.8 778.445 1027.8 778.692C1027.8 778.84 1027.03 782.083 1025.49 788.419C1023.96 794.754 1023.12 798.021 1022.97 798.218C1022.87 798.565 1022.38 798.738 1021.49 798.738H1020.59C1020.25 798.441 1020.07 798.144 1020.07 797.847C1020.07 797.699 1020.2 797.154 1020.45 796.214C1020.69 795.274 1020.82 794.284 1020.82 793.245C1020.82 791.808 1020.32 790.917 1019.33 790.572C1018.34 790.225 1016.14 790.052 1012.72 790.052H1008.64L1006.26 799.481C1004.68 805.619 1003.89 808.836 1003.89 809.133C1003.89 809.826 1006.09 810.173 1010.5 810.173H1012.35C1012.65 810.47 1012.8 810.642 1012.8 810.692C1012.8 810.742 1012.75 811.236 1012.65 812.177C1012.45 812.821 1012.2 813.291 1011.91 813.588H1010.64C1008.62 813.489 1004.88 813.44 999.434 813.44C996.216 813.44 993.767 813.44 992.084 813.44C990.4 813.44 989.461 813.464 989.262 813.514Z" fill="#6C63FF"/>
<path d="M1035.02 745.429C1035.02 745.034 1035.14 744.687 1035.39 744.39C1035.64 744.093 1036.01 743.944 1036.51 743.944C1036.85 743.944 1037.15 744.068 1037.4 744.315C1037.64 744.514 1037.89 744.984 1038.14 745.726C1038.63 747.558 1039.65 748.968 1041.18 749.958C1041.73 750.304 1042 750.75 1042 751.295C1042 751.74 1041.93 752.037 1041.78 752.186C1041.63 752.334 1041.28 752.557 1040.74 752.854C1038.61 753.942 1036.75 755.502 1035.17 757.532C1035.07 757.631 1034.95 757.779 1034.8 757.977C1034.65 758.175 1034.53 758.323 1034.43 758.423C1034.33 758.522 1034.2 758.571 1034.06 758.571C1033.91 758.571 1033.73 758.596 1033.54 758.646C1033.19 758.646 1032.87 758.522 1032.57 758.274C1032.27 758.026 1032.1 757.655 1032.05 757.161C1032.05 756.22 1033.21 754.759 1035.54 752.78H1022.84L1010.15 752.706C1009.5 752.26 1009.18 751.789 1009.18 751.295C1009.18 750.948 1009.5 750.453 1010.15 749.81H1036.8C1035.61 747.928 1035.02 746.469 1035.02 745.429Z" fill="#6C63FF"/>
<path d="M330 582L390 616.641V547.359L330 582ZM500 576H384V588H500V576Z" fill="#EF224B"/>
<path d="M500 829L534.641 769H465.359L500 829ZM494 587V775H506V587H494Z" fill="#DF46FA"/>
<circle cx="500" cy="582" r="8.5" fill="black" stroke="black"/>
<path d="M1027.89 572.29C1028.4 569.308 1030.4 565.866 1033.87 561.962C1037.35 558.058 1041.63 556.071 1046.74 556C1049.32 556 1051.69 556.639 1053.83 557.916C1055.98 559.194 1057.56 560.791 1058.6 562.707C1061.7 558.236 1065.44 556 1069.8 556C1072.53 556 1074.9 556.781 1076.9 558.342C1078.89 559.904 1079.93 561.998 1080 564.624C1080 566.682 1079.48 568.35 1078.45 569.628C1077.41 570.906 1076.41 571.686 1075.45 571.97C1074.49 572.254 1073.64 572.396 1072.9 572.396C1071.5 572.396 1070.35 572.006 1069.47 571.225C1068.58 570.444 1068.14 569.415 1068.14 568.137C1068.14 564.872 1069.98 562.636 1073.68 561.43C1072.87 560.507 1071.39 560.046 1069.24 560.046C1068.28 560.046 1067.58 560.117 1067.14 560.259C1064.33 561.394 1062.26 563.737 1060.93 567.286C1056.49 582.972 1054.28 592.128 1054.28 594.754C1054.28 596.742 1054.87 598.161 1056.05 599.013C1057.23 599.865 1058.53 600.291 1059.93 600.291C1062.67 600.291 1065.36 599.12 1068.02 596.777C1070.69 594.435 1072.5 591.56 1073.46 588.153C1073.68 587.444 1073.9 587.053 1074.12 586.982C1074.34 586.911 1074.94 586.84 1075.9 586.769H1076.34C1077.45 586.769 1078 587.053 1078 587.621C1078 587.692 1077.93 588.082 1077.78 588.792C1076.6 592.838 1074.31 596.422 1070.91 599.545C1067.51 602.668 1063.55 604.23 1059.04 604.23C1053.87 604.23 1049.95 601.994 1047.29 597.522C1044.26 601.923 1040.78 604.124 1036.87 604.124H1036.2C1032.58 604.124 1029.99 603.201 1028.44 601.355C1026.89 599.51 1026.07 597.558 1026 595.5C1026 593.228 1026.7 591.383 1028.11 589.963C1029.51 588.544 1031.17 587.834 1033.1 587.834C1036.28 587.834 1037.86 589.324 1037.86 592.306C1037.86 593.725 1037.42 594.967 1036.53 596.032C1035.65 597.097 1034.8 597.806 1033.98 598.161C1033.17 598.516 1032.69 598.694 1032.54 598.694L1032.21 598.8C1032.21 598.871 1032.43 599.013 1032.87 599.226C1033.32 599.439 1033.91 599.687 1034.65 599.971C1035.39 600.255 1036.09 600.362 1036.76 600.291C1039.42 600.291 1041.71 598.694 1043.63 595.5C1044.3 594.364 1045.15 591.951 1046.18 588.26C1047.22 584.569 1048.25 580.736 1049.29 576.761C1050.32 572.786 1050.91 570.444 1051.06 569.734C1051.43 567.818 1051.61 566.434 1051.61 565.582C1051.61 563.595 1051.06 562.175 1049.95 561.323C1048.84 560.472 1047.59 560.046 1046.18 560.046C1043.22 560.046 1040.45 561.181 1037.86 563.453C1035.28 565.724 1033.47 568.634 1032.43 572.183C1032.28 572.822 1032.1 573.177 1031.88 573.248C1031.66 573.319 1031.06 573.39 1030.1 573.461H1028.55C1028.11 573.035 1027.89 572.644 1027.89 572.29Z" fill="black"/>
<path d="M477 14.7353C477 13.8482 477.473 12.3273 478.42 10.1729C479.367 8.0184 480.882 5.76888 482.965 3.42431C485.048 1.07974 487.384 -0.060866 489.972 0.00250079C492.56 0.00250079 494.643 0.731219 496.221 2.18866C497.8 3.64609 498.62 5.67383 498.683 8.27187C498.557 9.47584 498.462 10.1412 498.399 10.2679C498.399 10.458 497.894 11.9155 496.884 14.6402C495.874 17.365 494.833 20.4383 493.76 23.8601C492.686 27.2819 492.181 30.0067 492.245 32.0344C492.245 34.7592 492.686 36.6602 493.57 37.7374C494.454 38.8147 495.78 39.385 497.547 39.4483C498.999 39.4483 500.356 39.0998 501.619 38.4028C502.881 37.7058 503.86 36.977 504.554 36.2166C505.248 35.4562 506.1 34.4107 507.11 33.08C507.11 33.0166 507.268 32.3829 507.584 31.179C507.9 29.975 508.341 28.1057 508.91 25.571C509.478 23.0363 510.077 20.6918 510.709 18.5373C513.107 9.03227 514.433 4.05798 514.685 3.61441C515.506 1.90351 516.863 1.04805 518.757 1.04805C519.578 1.04805 520.24 1.26984 520.745 1.7134C521.25 2.15697 521.598 2.53717 521.787 2.85401C521.976 3.17084 522.039 3.45599 521.976 3.70946C521.976 4.53323 520.43 11.1867 517.337 23.67C514.244 36.1533 512.476 42.9969 512.034 44.2009C510.267 49.4603 507.205 53.6425 502.85 56.7475C498.494 59.8525 494.138 61.4366 489.783 61.5C486.942 61.5 484.449 60.803 482.302 59.4089C480.156 58.0148 479.083 55.9237 479.083 53.1356C479.083 51.7415 479.304 50.5692 479.746 49.6187C480.188 48.6682 480.787 47.9712 481.545 47.5276C482.302 47.084 482.934 46.7672 483.439 46.5771C483.944 46.387 484.48 46.292 485.048 46.292C487.826 46.292 489.215 47.6227 489.215 50.2841C489.215 51.5514 488.836 52.6603 488.078 53.6108C487.321 54.5613 486.595 55.195 485.901 55.5118C485.206 55.8287 484.796 55.9871 484.67 55.9871L484.386 56.0821C484.512 56.399 485.112 56.7792 486.185 57.2227C487.258 57.6663 488.331 57.8881 489.404 57.8881H490.161C491.235 57.8881 492.055 57.8247 492.623 57.698C494.706 57.1277 496.632 55.9237 498.399 54.0861C500.167 52.2484 501.524 50.2841 502.471 48.193C503.418 46.1019 504.144 44.3276 504.649 42.8702C505.154 41.4127 505.406 40.4622 505.406 40.0186L504.838 40.3988C504.459 40.6523 503.86 41.0008 503.039 41.4444C502.218 41.888 501.398 42.2682 500.577 42.585C499.315 42.9018 498.084 43.0603 496.884 43.0603C493.981 43.0603 491.424 42.3632 489.215 40.9692C487.005 39.5751 485.553 37.3256 484.859 34.2206C484.796 33.777 484.764 32.7948 484.764 31.274C484.764 27.6621 485.869 22.9413 488.078 17.1115C490.288 11.2818 491.392 7.57484 491.392 5.99067C491.392 5.9273 491.392 5.86393 491.392 5.80056C491.392 5.23026 491.392 4.85006 491.392 4.65996C491.392 4.46986 491.266 4.24808 491.014 3.99461C490.761 3.74114 490.414 3.61441 489.972 3.61441H489.593C488.142 3.61441 486.816 4.21639 485.617 5.42036C484.417 6.62433 483.47 7.92335 482.776 9.31742C482.082 10.7115 481.545 12.0422 481.166 13.3095C480.787 14.5769 480.535 15.2739 480.409 15.4006C480.282 15.5274 479.777 15.5907 478.894 15.5907H477.568C477.189 15.2105 477 14.9254 477 14.7353Z" fill="black"/>
</svg>
