<svg width="200" height="69" viewBox="0 0 200 69" fill="none" xmlns="http://www.w3.org/2000/svg">
<path d="M2.67554 28.4467C2.67554 27.715 2.85848 26.9718 3.22437 26.2171C3.59025 25.4625 4.23055 24.765 5.14527 24.1247C6.05998 23.4844 7.16907 23.1757 8.47254 23.1986C9.89035 23.1986 10.9194 23.5073 11.5597 24.1247C12.2 24.7421 12.5316 25.4282 12.5545 26.1828C12.5545 26.9146 12.3601 27.452 11.9713 27.795C11.5826 28.138 11.1481 28.321 10.6679 28.3438C10.3706 28.3438 10.0962 28.2524 9.84461 28.0694C9.59307 27.8865 9.45586 27.5892 9.43299 27.1776C9.43299 26.8117 9.5359 26.4915 9.74171 26.2171C9.94752 25.9427 10.1419 25.7369 10.3248 25.5997C10.5078 25.4625 10.6564 25.3939 10.7708 25.3939C10.7936 25.3939 10.8051 25.3824 10.8051 25.3596C10.8051 25.291 10.725 25.1881 10.565 25.0509C10.4049 24.9137 10.119 24.7879 9.70741 24.6735C9.29578 24.5592 8.84986 24.4906 8.36964 24.4677C7.27198 24.4677 6.4716 24.765 5.96851 25.3596C5.46542 25.9541 5.20244 26.5601 5.17957 27.1776C5.17957 27.7493 5.39681 28.1495 5.8313 28.3781C6.26579 28.6068 6.89466 28.8012 7.7179 28.9613C8.54115 29.1213 9.13571 29.2928 9.5016 29.4758C11.0109 30.139 11.7655 31.2366 11.7655 32.7688C11.7655 33.4091 11.6397 34.0494 11.3882 34.6897C11.1366 35.33 10.7593 35.9703 10.2562 36.6106C9.75314 37.2509 9.0328 37.754 8.09522 38.1198C7.15764 38.4857 6.08285 38.6801 4.87085 38.703C3.11003 38.703 1.86373 38.3714 1.13196 37.7082C0.400187 37.0451 0.0228679 36.2675 0 35.3757C0 34.4839 0.240113 33.8436 0.720338 33.4548C1.20056 33.066 1.70366 32.8717 2.22962 32.8717C2.57263 32.8717 2.89278 32.9746 3.19007 33.1804C3.48735 33.3862 3.64742 33.7406 3.67029 34.2437C3.67029 34.8383 3.46448 35.3414 3.05286 35.753C2.64124 36.1646 2.28679 36.3705 1.9895 36.3705C1.94377 36.3933 1.90947 36.4048 1.8866 36.4048C1.86373 36.4048 1.8523 36.4276 1.8523 36.4734C1.87516 36.542 1.96664 36.6334 2.12671 36.7478C2.28679 36.8621 2.64124 37.0108 3.19007 37.1937C3.73889 37.3766 4.36776 37.4567 5.07666 37.4338C5.89991 37.4338 6.60881 37.308 7.20338 37.0565C7.79794 36.8049 8.23243 36.4848 8.50684 36.096C8.78126 35.7073 8.97563 35.3528 9.08997 35.0327C9.20431 34.7125 9.26148 34.4267 9.26148 34.1751C9.26148 33.5348 9.02137 33.0546 8.54115 32.7345C8.06092 32.4143 7.51209 32.2199 6.89466 32.1513C6.27723 32.0827 5.60263 31.9112 4.87085 31.6368C4.13908 31.3624 3.60169 30.9622 3.25867 30.4362C2.86992 29.8645 2.67554 29.2014 2.67554 28.4467Z" fill="black"/>
<path d="M20.5811 17.7789C20.5811 17.2301 20.7983 16.7498 21.2328 16.3382C21.6673 15.9266 22.1704 15.7093 22.7421 15.6865C23.1537 15.6865 23.4967 15.8237 23.7711 16.0981C24.0455 16.3725 24.1942 16.7155 24.217 17.1271C24.217 17.6531 23.9884 18.1333 23.531 18.5678C23.0737 19.0023 22.5706 19.231 22.0217 19.2539C21.6787 19.2539 21.3586 19.1395 21.0613 18.9108C20.764 18.6822 20.6039 18.3048 20.5811 17.7789ZM14.9899 28.5153C14.9899 28.3324 15.0928 27.9779 15.2986 27.452C15.5044 26.926 15.7788 26.3429 16.1218 25.7026C16.4648 25.0623 16.9679 24.4792 17.6311 23.9532C18.2943 23.4272 18.9803 23.1757 19.6892 23.1986C20.5811 23.1986 21.3243 23.4615 21.9188 23.9875C22.5134 24.5135 22.8221 25.2224 22.845 26.1142C22.845 26.503 22.6849 27.1433 22.3648 28.0351C22.0446 28.927 21.5872 30.1275 20.9927 31.6368C20.3981 33.1461 19.9179 34.4381 19.552 35.5129C19.4377 36.016 19.3805 36.3819 19.3805 36.6106C19.3805 37.1823 19.5749 37.4681 19.9636 37.4681C20.1694 37.4681 20.3867 37.4338 20.6154 37.3652C20.844 37.2966 21.107 37.1365 21.4043 36.885C21.7016 36.6334 22.0103 36.2332 22.3305 35.6844C22.6506 35.1356 22.9364 34.461 23.188 33.6606C23.2566 33.3862 23.3138 33.2261 23.3595 33.1804C23.4052 33.1346 23.5996 33.1118 23.9426 33.1118C24.4 33.1118 24.6287 33.2261 24.6287 33.4548C24.6287 33.6377 24.5258 33.9922 24.32 34.5182C24.1141 35.0441 23.8283 35.6272 23.4624 36.2675C23.0965 36.9078 22.582 37.4795 21.9188 37.9826C21.2557 38.4857 20.5468 38.7373 19.7921 38.7373C19.0603 38.7373 18.3857 38.4972 17.7683 38.0169C17.1509 37.5367 16.8307 36.8049 16.8079 35.8216C16.8079 35.4329 16.865 35.067 16.9794 34.724C17.0937 34.3809 17.5854 33.0775 18.4543 30.8136C19.3233 28.5039 19.8264 27.1204 19.9636 26.663C20.1008 26.2057 20.1809 25.7598 20.2037 25.3253C20.2037 24.7764 20.0094 24.502 19.6206 24.502H19.552C18.866 24.502 18.2371 24.8794 17.6654 25.634C17.0937 26.3886 16.6592 27.3491 16.3619 28.5153C16.3391 28.5382 16.3162 28.5725 16.2933 28.6182C16.2705 28.664 16.259 28.6983 16.259 28.7212C16.259 28.744 16.2362 28.7669 16.1904 28.7898C16.1447 28.8126 16.1104 28.8241 16.0875 28.8241C16.0647 28.8241 16.0189 28.8241 15.9503 28.8241C15.8817 28.8241 15.7902 28.8241 15.6759 28.8241H15.1957C15.0585 28.6869 14.9899 28.5839 14.9899 28.5153Z" fill="black"/>
<path d="M26.824 28.5153C26.8468 28.3781 26.8811 28.1952 26.9269 27.9665C26.9726 27.7378 27.1098 27.3033 27.3385 26.663C27.5672 26.0227 27.7959 25.4854 28.0245 25.0509C28.2532 24.6164 28.6305 24.1933 29.1565 23.7817C29.6825 23.3701 30.2084 23.1757 30.7344 23.1986C31.5576 23.1986 32.2437 23.4044 32.7925 23.816C33.3413 24.2276 33.6843 24.6164 33.8215 24.9823C33.9587 25.3481 34.0273 25.5883 34.0273 25.7026C34.0273 25.7483 34.0388 25.7712 34.0617 25.7712L34.439 25.3939C35.8339 23.9303 37.4232 23.1986 39.2069 23.1986C40.4418 23.1986 41.4365 23.5073 42.1912 24.1247C42.9458 24.7421 43.3346 25.6454 43.3574 26.8346C43.3803 28.0237 42.9458 29.8188 42.054 32.2199C41.1621 34.6211 40.7276 36.0732 40.7505 36.5763C40.7505 37.1708 40.9449 37.4681 41.3336 37.4681C41.4708 37.4681 41.5737 37.4567 41.6423 37.4338C42.3055 37.3195 42.9001 36.885 43.426 36.1303C43.952 35.3757 44.3522 34.461 44.6266 33.3862C44.6723 33.2033 44.901 33.1118 45.3126 33.1118C45.77 33.1118 45.9987 33.2033 45.9987 33.3862C45.9987 33.4091 45.9529 33.5806 45.8615 33.9007C45.6785 34.5639 45.427 35.2156 45.1068 35.8559C44.7867 36.4962 44.2607 37.1365 43.5289 37.7768C42.7972 38.4171 42.0082 38.7258 41.1621 38.703C40.0873 38.703 39.3098 38.3943 38.8296 37.7768C38.3494 37.1594 38.1093 36.5191 38.1093 35.8559C38.1093 35.4214 38.5209 34.0494 39.3441 31.7397C40.1674 29.4301 40.5904 27.6921 40.6133 26.5258C40.6133 25.1766 40.1102 24.502 39.104 24.502H38.9325C36.9659 24.502 35.308 25.6569 33.9587 27.9665L33.7186 28.3781L32.5867 32.9746C31.832 35.9703 31.3975 37.5824 31.2832 37.8111C30.9859 38.4286 30.4943 38.7373 29.8082 38.7373C29.5109 38.7373 29.2708 38.6687 29.0879 38.5315C28.9049 38.3943 28.7792 38.257 28.7106 38.1198C28.642 37.9826 28.6191 37.8683 28.642 37.7768C28.642 37.4795 29.0765 35.6158 29.9454 32.1856C30.8144 28.7555 31.2718 26.8917 31.3175 26.5944C31.3404 26.4801 31.3518 26.2171 31.3518 25.8055C31.3518 24.9137 31.0774 24.4677 30.5286 24.4677C29.6596 24.4677 28.9393 25.6111 28.3676 27.8979C28.2303 28.3553 28.1617 28.5954 28.1617 28.6182C28.116 28.7555 27.8988 28.8241 27.51 28.8241H27.0298C26.8926 28.6869 26.824 28.5839 26.824 28.5153Z" fill="black"/>
<path d="M49.9091 29.7845C49.9091 28.2066 50.0235 26.7088 50.2521 25.291C50.4808 23.8732 50.7438 22.6497 51.0411 21.6207C51.3384 20.5916 51.7614 19.5854 52.3102 18.6021C52.8591 17.6188 53.2936 16.8527 53.6137 16.3039C53.9339 15.7551 54.4141 15.1605 55.0544 14.5202C55.6947 13.8799 56.072 13.4912 56.1863 13.354C56.3007 13.2167 56.5865 12.9766 57.0439 12.6336H57.4898H57.627C57.9472 12.6336 58.1072 12.7365 58.1072 12.9423C58.1072 13.0109 57.9129 13.251 57.5241 13.6627C57.1354 14.0743 56.6666 14.6803 56.1177 15.4807C55.5689 16.281 55.0087 17.2644 54.437 18.4306C53.8653 19.5969 53.385 21.1748 52.9963 23.1643C52.6075 25.1538 52.4131 27.3605 52.4131 29.7845C52.4131 32.2085 52.6075 34.4038 52.9963 36.3705C53.385 38.3371 53.8538 39.9264 54.4027 41.1384C54.9515 42.3504 55.5117 43.3337 56.0834 44.0884C56.6551 44.843 57.1354 45.449 57.5241 45.9063C57.9129 46.3637 58.1072 46.6038 58.1072 46.6267C58.1072 46.8325 57.9357 46.9354 57.5927 46.9354H57.4898H57.0439L56.0834 46.1122C53.9339 44.1684 52.3674 41.7444 51.3841 38.8402C50.4008 35.936 49.9091 32.9174 49.9091 29.7845Z" fill="black"/>
<path d="M61.2287 31.4996C61.2287 29.1671 61.6746 26.7088 62.5665 24.1247C63.4583 21.5406 64.6703 19.311 66.2025 17.4359C67.7346 15.5607 69.3239 14.4859 70.9704 14.2115C70.9933 14.2115 71.0847 14.2115 71.2448 14.2115C71.4049 14.2115 71.5421 14.2001 71.6564 14.1772C72.8913 14.2687 73.8518 14.8289 74.5378 15.858C75.4296 17.2301 75.8756 19.0709 75.8756 21.3806C75.8756 24.0104 75.361 26.6859 74.332 29.4072C73.3029 32.1285 71.988 34.3581 70.3873 36.096C68.7865 37.834 67.2544 38.703 65.7908 38.703H65.5507C64.7275 38.703 64.0186 38.4743 63.424 38.0169C62.8294 37.5596 62.3835 36.9536 62.0862 36.1989C61.789 35.4443 61.5717 34.6782 61.4345 33.9007C61.2973 33.1232 61.2287 32.3228 61.2287 31.4996ZM73.1657 18.9451C73.1657 16.6126 72.5597 15.4464 71.3477 15.4464C70.5245 15.4464 69.7241 15.9609 68.9466 16.9899C68.1691 18.019 67.5288 19.1853 67.0257 20.4887C66.5226 21.7922 66.1339 22.9356 65.8594 23.9189C65.585 24.9022 65.4364 25.4739 65.4135 25.634C66.534 25.6569 67.6431 25.6683 68.7408 25.6683L72.0681 25.634C72.0909 25.6111 72.1824 25.2338 72.3425 24.502C72.5026 23.7703 72.6855 22.8555 72.8913 21.7579C73.0971 20.6602 73.1886 19.7227 73.1657 18.9451ZM63.9042 33.8321C63.9042 36.2561 64.5102 37.4681 65.7222 37.4681C66.0653 37.4681 66.4311 37.3538 66.8199 37.1251C67.2086 36.8964 67.6774 36.4619 68.2263 35.8216C68.7751 35.1813 69.3239 34.1866 69.8727 32.8374C70.4216 31.4882 70.9704 29.8188 71.5192 27.8293L71.6907 27.2462H65.0019C65.0019 27.3148 64.899 27.7493 64.6932 28.5496C64.4874 29.35 64.3044 30.2419 64.1444 31.2252C63.9843 32.2085 63.9042 33.0775 63.9042 33.8321Z" fill="black"/>
<path d="M78.1738 12.6679L78.311 12.6336C78.4253 12.6336 78.5397 12.6336 78.654 12.6336H79.0656L80.0261 13.4569C82.1756 15.4006 83.7421 17.8246 84.7254 20.7288C85.7087 23.6331 86.2004 26.6516 86.2004 29.7845C86.2004 31.3395 86.086 32.8374 85.8574 34.278C85.6287 35.7187 85.3657 36.9421 85.0684 37.9483C84.7711 38.9545 84.3481 39.9607 83.7993 40.9669C83.2504 41.9731 82.8159 42.7392 82.4958 43.2651C82.1756 43.7911 81.7069 44.3742 81.0894 45.0145C80.472 45.6548 80.1061 46.0321 79.9918 46.1465C79.8774 46.2608 79.6144 46.478 79.2028 46.7982C79.1342 46.8668 79.0885 46.9125 79.0656 46.9354H78.654C78.471 46.9354 78.3453 46.9354 78.2767 46.9354C78.2081 46.9354 78.1509 46.9011 78.1052 46.8325C78.0594 46.7639 78.0251 46.661 78.0023 46.5238C78.0251 46.5009 78.1509 46.3523 78.3796 46.0779C81.9241 42.3961 83.6964 36.965 83.6964 29.7845C83.6964 22.604 81.9241 17.1729 78.3796 13.4912C78.1509 13.2167 78.0251 13.0681 78.0023 13.0452C78.0023 12.8623 78.0594 12.7365 78.1738 12.6679Z" fill="black"/>
<path d="M100.909 26.4572C100.909 26.16 101.069 25.9313 101.389 25.7712H123.239C123.582 25.9541 123.754 26.1828 123.754 26.4572C123.754 26.7088 123.594 26.926 123.274 27.109L112.366 27.1433H101.458C101.092 27.0289 100.909 26.8003 100.909 26.4572ZM100.909 33.1118C100.909 32.7688 101.092 32.5401 101.458 32.4257H123.274C123.594 32.6544 123.754 32.8831 123.754 33.1118C123.754 33.4091 123.582 33.6377 123.239 33.7978H101.389C101.069 33.6377 100.909 33.4091 100.909 33.1118Z" fill="black"/>
<path d="M150.983 15.5493C149.268 15.5493 147.884 14.989 146.832 13.8685C145.78 12.748 145.254 11.3987 145.254 9.82087C145.254 8.33445 145.597 6.92808 146.283 5.60175C146.969 4.27541 147.907 3.12058 149.096 2.13727C150.834 0.742326 152.606 0.044857 154.413 0.044857C155.145 0.044857 155.602 0.0562906 155.785 0.0791588C156.082 0.147762 156.38 0.227799 156.677 0.319271C156.974 0.410743 157.374 0.593685 157.877 0.868099C158.38 1.14251 158.792 1.48553 159.112 1.89715C159.432 2.30877 159.73 2.86904 160.004 3.57794C160.279 4.28684 160.416 5.08722 160.416 5.97906C160.416 8.42593 159.432 10.6327 157.466 12.5993C155.499 14.5659 153.338 15.5493 150.983 15.5493ZM148.239 11.0557C148.239 12.1991 148.536 13.0224 149.13 13.5255C149.725 14.0286 150.4 14.2801 151.154 14.2801C152.16 14.2801 153.109 13.9142 154.001 13.1824C154.893 12.4507 155.602 11.4902 156.128 10.3011C156.334 9.82087 156.597 8.97475 156.917 7.76276C157.237 6.55076 157.397 5.49884 157.397 4.60699C157.397 3.60081 157.191 2.83473 156.78 2.30877C156.231 1.62274 155.499 1.27972 154.584 1.27972C153.144 1.27972 151.875 1.94289 150.777 3.26922C149.931 4.27541 149.302 5.61318 148.89 7.28253C148.479 8.95189 148.261 10.2096 148.239 11.0557Z" fill="black"/>
<path d="M161.513 5.32733C161.536 5.25873 161.559 5.16726 161.582 5.05292C161.605 4.93858 161.662 4.68703 161.753 4.29828C161.845 3.90952 161.959 3.55507 162.096 3.23492C162.234 2.91477 162.405 2.53745 162.611 2.10296C162.817 1.66847 163.046 1.32546 163.297 1.07391C163.549 0.822365 163.846 0.570818 164.189 0.319271C164.532 0.0677242 164.909 -0.035181 165.321 0.0105553C167.036 0.0105553 168.134 0.742327 168.614 2.20587L168.957 1.89715C170.375 0.639421 171.724 0.0105553 173.004 0.0105553C174.491 0.0105553 175.657 0.547951 176.503 1.62274C177.349 2.69753 177.772 4.001 177.772 5.53314C177.772 8.00287 176.903 10.2782 175.165 12.3592C173.428 14.4402 171.461 15.4921 169.266 15.515C168.762 15.515 168.317 15.4464 167.928 15.3092C167.676 15.1948 167.413 15.0233 167.139 14.7946C166.864 14.5659 166.647 14.3716 166.487 14.2115L166.247 13.9371C166.224 13.9599 165.973 14.9547 165.492 16.9213C165.012 18.888 164.772 19.8827 164.772 19.9056C164.772 20.0428 164.864 20.1228 165.046 20.1457C165.229 20.1686 165.652 20.2029 166.316 20.2486H167.173C167.31 20.4087 167.379 20.5116 167.379 20.5573C167.379 20.6031 167.345 20.8089 167.276 21.1748C167.207 21.4492 167.139 21.6207 167.07 21.6893C167.002 21.7579 166.853 21.8036 166.624 21.8265C166.579 21.8265 166.453 21.8265 166.247 21.8265C166.041 21.8265 165.652 21.8151 165.081 21.7922C164.509 21.7693 163.8 21.7579 162.954 21.7579C161.353 21.7579 160.336 21.7808 159.901 21.8265H159.627C159.467 21.6664 159.387 21.5406 159.387 21.4492C159.432 20.8317 159.581 20.4316 159.833 20.2486H160.519C161.296 20.2257 161.742 20.0885 161.856 19.837C161.925 19.6998 162.622 16.9671 163.949 11.6389C165.275 6.31065 165.973 3.48647 166.041 3.16632C166.064 3.05198 166.076 2.8919 166.076 2.68609C166.076 1.74851 165.79 1.27972 165.218 1.27972C164.715 1.27972 164.292 1.59987 163.949 2.24017C163.606 2.88047 163.343 3.57794 163.16 4.33258C162.977 5.08722 162.84 5.49884 162.748 5.56745C162.702 5.61318 162.52 5.63605 162.199 5.63605H161.719C161.582 5.49884 161.513 5.39594 161.513 5.32733ZM166.83 11.6732C167.333 13.4111 168.179 14.2801 169.368 14.2801C170.055 14.2801 170.718 14.0171 171.358 13.4912C171.998 12.9652 172.524 12.302 172.936 11.5017C173.347 10.7241 173.759 9.48928 174.171 7.79706C174.582 6.10484 174.8 4.84711 174.822 4.02386V3.81805C174.822 2.12583 174.125 1.27972 172.73 1.27972C172.479 1.27972 172.227 1.31402 171.975 1.38263C171.724 1.45123 171.472 1.55414 171.221 1.69134C170.969 1.82855 170.741 1.97719 170.535 2.13727C170.329 2.29734 170.135 2.46885 169.952 2.65179C169.769 2.83474 169.597 3.00624 169.437 3.16632C169.277 3.3264 169.151 3.48647 169.06 3.64655C168.968 3.80662 168.877 3.92096 168.785 3.98956L168.682 4.12677C168.682 4.14964 168.648 4.30971 168.58 4.60699C168.511 4.90428 168.385 5.40737 168.202 6.11627C168.019 6.82518 167.859 7.41974 167.722 7.89997C167.127 10.324 166.83 11.5817 166.83 11.6732Z" fill="black"/>
<path d="M178.767 5.32733C178.79 5.25873 178.813 5.16726 178.836 5.05292C178.859 4.93858 178.916 4.68703 179.007 4.29828C179.099 3.90952 179.213 3.55507 179.35 3.23492C179.487 2.91477 179.659 2.53745 179.865 2.10296C180.071 1.66847 180.299 1.32546 180.551 1.07391C180.802 0.822365 181.1 0.570818 181.443 0.319271C181.786 0.0677242 182.163 -0.035181 182.575 0.0105553C184.29 0.0105553 185.387 0.742327 185.868 2.20587L186.211 1.89715C187.628 0.639421 188.978 0.0105553 190.258 0.0105553C191.745 0.0105553 192.911 0.547951 193.757 1.62274C194.603 2.69753 195.026 4.001 195.026 5.53314C195.026 8.00287 194.157 10.2782 192.419 12.3592C190.681 14.4402 188.715 15.4921 186.519 15.515C186.016 15.515 185.57 15.4464 185.182 15.3092C184.93 15.1948 184.667 15.0233 184.393 14.7946C184.118 14.5659 183.901 14.3716 183.741 14.2115L183.501 13.9371C183.478 13.9599 183.226 14.9547 182.746 16.9213C182.266 18.888 182.026 19.8827 182.026 19.9056C182.026 20.0428 182.117 20.1228 182.3 20.1457C182.483 20.1686 182.906 20.2029 183.569 20.2486H184.427C184.564 20.4087 184.633 20.5116 184.633 20.5573C184.633 20.6031 184.598 20.8089 184.53 21.1748C184.461 21.4492 184.393 21.6207 184.324 21.6893C184.255 21.7579 184.107 21.8036 183.878 21.8265C183.832 21.8265 183.707 21.8265 183.501 21.8265C183.295 21.8265 182.906 21.8151 182.335 21.7922C181.763 21.7693 181.054 21.7579 180.208 21.7579C178.607 21.7579 177.589 21.7808 177.155 21.8265H176.881C176.72 21.6664 176.64 21.5406 176.64 21.4492C176.686 20.8317 176.835 20.4316 177.086 20.2486H177.772C178.55 20.2257 178.996 20.0885 179.11 19.837C179.179 19.6998 179.876 16.9671 181.203 11.6389C182.529 6.31065 183.226 3.48647 183.295 3.16632C183.318 3.05198 183.329 2.8919 183.329 2.68609C183.329 1.74851 183.043 1.27972 182.472 1.27972C181.969 1.27972 181.546 1.59987 181.203 2.24017C180.86 2.88047 180.597 3.57794 180.414 4.33258C180.231 5.08722 180.093 5.49884 180.002 5.56745C179.956 5.61318 179.773 5.63605 179.453 5.63605H178.973C178.836 5.49884 178.767 5.39594 178.767 5.32733ZM184.084 11.6732C184.587 13.4111 185.433 14.2801 186.622 14.2801C187.308 14.2801 187.971 14.0171 188.612 13.4912C189.252 12.9652 189.778 12.302 190.19 11.5017C190.601 10.7241 191.013 9.48928 191.425 7.79706C191.836 6.10484 192.053 4.84711 192.076 4.02386V3.81805C192.076 2.12583 191.379 1.27972 189.984 1.27972C189.732 1.27972 189.481 1.31402 189.229 1.38263C188.978 1.45123 188.726 1.55414 188.475 1.69134C188.223 1.82855 187.994 1.97719 187.789 2.13727C187.583 2.29734 187.388 2.46885 187.205 2.65179C187.022 2.83474 186.851 3.00624 186.691 3.16632C186.531 3.3264 186.405 3.48647 186.314 3.64655C186.222 3.80662 186.131 3.92096 186.039 3.98956L185.936 4.12677C185.936 4.14964 185.902 4.30971 185.833 4.60699C185.765 4.90428 185.639 5.40737 185.456 6.11627C185.273 6.82518 185.113 7.41974 184.976 7.89997C184.381 10.324 184.084 11.5817 184.084 11.6732Z" fill="black"/>
<path d="M147.45 38.4629C147.473 38.4629 148.296 38.4057 149.919 38.2914C151.543 38.177 152.378 38.1084 152.423 38.0855C152.698 38.0855 152.835 38.1885 152.835 38.3943C152.835 38.6458 152.423 40.3723 151.6 43.5738C150.731 46.9583 150.297 48.6848 150.297 48.7534C150.297 48.7991 150.377 48.742 150.537 48.5819C151.932 47.347 153.418 46.7296 154.996 46.7296C156.231 46.7296 157.226 47.0383 157.98 47.6557C158.735 48.2732 159.124 49.1765 159.147 50.3656C159.147 51.5318 158.712 53.3384 157.843 55.7853C156.974 58.2321 156.54 59.6957 156.54 60.1759C156.562 60.496 156.62 60.7133 156.711 60.8276C156.803 60.942 156.974 60.9991 157.226 60.9991C157.866 60.9991 158.461 60.6561 159.009 59.9701C159.558 59.2841 160.004 58.3465 160.347 57.1573C160.416 56.9058 160.484 56.7572 160.553 56.7114C160.622 56.6657 160.804 56.6428 161.102 56.6428C161.559 56.6428 161.788 56.7343 161.788 56.9172C161.788 56.9401 161.742 57.1116 161.651 57.4318C161.285 58.781 160.702 59.89 159.901 60.759C159.124 61.7423 158.198 62.234 157.123 62.234H156.951C155.876 62.234 155.099 61.9253 154.619 61.3079C154.138 60.6904 153.898 60.0387 153.898 59.3527C153.898 58.9868 154.31 57.6376 155.133 55.305C155.956 52.9725 156.38 51.2231 156.402 50.0569C156.402 48.7077 155.899 48.0331 154.893 48.0331H154.722C152.824 48.0331 151.177 49.1536 149.782 51.3946L149.542 51.8406L148.376 56.4713C147.644 59.4441 147.221 61.0677 147.107 61.3422C146.809 61.9596 146.306 62.2683 145.597 62.2683C145.277 62.2683 145.003 62.1654 144.774 61.9596C144.545 61.7538 144.42 61.548 144.397 61.3422C144.397 61.022 145.231 57.5461 146.901 50.9144L149.439 40.7611C149.439 40.4638 149.359 40.2809 149.199 40.2123C149.039 40.1437 148.593 40.0865 147.861 40.0407H147.141C147.004 39.9035 146.935 39.8121 146.935 39.7663C146.935 39.7206 146.958 39.5034 147.004 39.1146C147.118 38.6801 147.267 38.4629 147.45 38.4629Z" fill="black"/>
<path d="M163.228 52.0464C163.228 51.7262 163.4 51.1774 163.743 50.3999C164.086 49.6224 164.635 48.8106 165.389 47.9645C166.144 47.1183 166.99 46.7067 167.928 46.7296C168.865 46.7296 169.62 46.9926 170.192 47.5185C170.763 48.0445 171.061 48.7763 171.084 49.7139C171.038 50.1483 171.004 50.3885 170.981 50.4342C170.981 50.5028 170.798 51.0288 170.432 52.0121C170.066 52.9954 169.689 54.1045 169.3 55.3393C168.911 56.5742 168.728 57.5575 168.751 58.2893C168.751 59.2726 168.911 59.9587 169.231 60.3474C169.551 60.7362 170.032 60.942 170.672 60.9648C171.198 60.9648 171.69 60.8391 172.147 60.5875C172.604 60.336 172.959 60.073 173.21 59.7986C173.462 59.5242 173.771 59.1468 174.136 58.6666C174.136 58.6437 174.194 58.4151 174.308 57.9806C174.422 57.5461 174.582 56.8715 174.788 55.9568C174.994 55.0421 175.211 54.196 175.44 53.4184C176.309 49.9883 176.789 48.1931 176.881 48.0331C177.178 47.4156 177.67 47.1069 178.356 47.1069C178.653 47.1069 178.893 47.187 179.076 47.347C179.259 47.5071 179.385 47.6443 179.453 47.7586C179.522 47.873 179.545 47.9759 179.522 48.0674C179.522 48.3646 178.962 50.7658 177.841 55.2707C176.72 59.7757 176.08 62.2454 175.92 62.6799C175.28 64.578 174.171 66.0872 172.593 67.2078C171.015 68.3283 169.437 68.9 167.859 68.9229C166.83 68.9229 165.927 68.6713 165.149 68.1682C164.372 67.6651 163.983 66.9105 163.983 65.9043C163.983 65.4012 164.063 64.9781 164.223 64.6351C164.383 64.2921 164.601 64.0406 164.875 63.8805C165.149 63.7204 165.378 63.6061 165.561 63.5375C165.744 63.4689 165.938 63.4346 166.144 63.4346C167.15 63.4346 167.653 63.9148 167.653 64.8752C167.653 65.3326 167.516 65.7328 167.242 66.0758C166.967 66.4188 166.704 66.6475 166.453 66.7618C166.201 66.8762 166.053 66.9333 166.007 66.9333L165.904 66.9676C165.95 67.082 166.167 67.2192 166.556 67.3793C166.944 67.5393 167.333 67.6194 167.722 67.6194H167.996C168.385 67.6194 168.682 67.5965 168.888 67.5508C169.643 67.345 170.34 66.9105 170.981 66.2473C171.621 65.5841 172.113 64.8752 172.456 64.1206C172.799 63.366 173.062 62.7257 173.245 62.1997C173.428 61.6737 173.519 61.3307 173.519 61.1706L173.313 61.3079C173.176 61.3993 172.959 61.5251 172.661 61.6852C172.364 61.8452 172.067 61.9825 171.77 62.0968C171.312 62.2111 170.866 62.2683 170.432 62.2683C169.38 62.2683 168.454 62.0168 167.653 61.5137C166.853 61.0106 166.327 60.1988 166.076 59.0782C166.053 58.9182 166.041 58.5637 166.041 58.0149C166.041 56.7114 166.441 55.0078 167.242 52.9039C168.042 50.8001 168.442 49.4623 168.442 48.8906C168.442 48.8677 168.442 48.8449 168.442 48.822C168.442 48.6162 168.442 48.479 168.442 48.4104C168.442 48.3418 168.397 48.2617 168.305 48.1703C168.214 48.0788 168.088 48.0331 167.928 48.0331H167.791C167.265 48.0331 166.784 48.2503 166.35 48.6848C165.915 49.1193 165.572 49.5881 165.321 50.0912C165.069 50.5943 164.875 51.0745 164.738 51.5318C164.601 51.9892 164.509 52.2407 164.463 52.2865C164.418 52.3322 164.235 52.3551 163.914 52.3551H163.434C163.297 52.2179 163.228 52.115 163.228 52.0464Z" fill="black"/>
<path d="M180.105 52.0464C180.128 51.9778 180.151 51.8863 180.174 51.772C180.196 51.6576 180.254 51.4061 180.345 51.0173C180.437 50.6286 180.551 50.2741 180.688 49.954C180.825 49.6338 180.997 49.2565 181.203 48.822C181.408 48.3875 181.637 48.0445 181.889 47.7929C182.14 47.5414 182.437 47.2899 182.78 47.0383C183.123 46.7868 183.501 46.6839 183.912 46.7296C185.628 46.7296 186.725 47.4614 187.205 48.9249L187.548 48.6162C188.966 47.3585 190.315 46.7296 191.596 46.7296C193.082 46.7296 194.249 47.267 195.095 48.3418C195.941 49.4166 196.364 50.72 196.364 52.2522C196.364 54.7219 195.495 56.9973 193.757 59.0782C192.019 61.1592 190.052 62.2111 187.857 62.234C187.354 62.234 186.908 62.1654 186.519 62.0282C186.268 61.9138 186.005 61.7423 185.73 61.5137C185.456 61.285 185.239 61.0906 185.079 60.9305L184.839 60.6561C184.816 60.679 184.564 61.6737 184.084 63.6404C183.604 65.607 183.364 66.6018 183.364 66.6246C183.364 66.7618 183.455 66.8419 183.638 66.8647C183.821 66.8876 184.244 66.9219 184.907 66.9676H185.765C185.902 67.1277 185.971 67.2306 185.971 67.2764C185.971 67.3221 185.936 67.5279 185.868 67.8938C185.799 68.1682 185.73 68.3397 185.662 68.4083C185.593 68.4769 185.445 68.5227 185.216 68.5455C185.17 68.5455 185.044 68.5455 184.839 68.5455C184.633 68.5455 184.244 68.5341 183.672 68.5112C183.101 68.4884 182.392 68.4769 181.546 68.4769C179.945 68.4769 178.927 68.4998 178.493 68.5455H178.218C178.058 68.3855 177.978 68.2597 177.978 68.1682C178.024 67.5508 178.173 67.1506 178.424 66.9676H179.11C179.888 66.9448 180.334 66.8076 180.448 66.556C180.517 66.4188 181.214 63.6861 182.54 58.3579C183.867 53.0297 184.564 50.2055 184.633 49.8854C184.656 49.771 184.667 49.6109 184.667 49.4051C184.667 48.4675 184.381 47.9988 183.81 47.9988C183.306 47.9988 182.883 48.3189 182.54 48.9592C182.197 49.5995 181.934 50.297 181.751 51.0516C181.568 51.8063 181.431 52.2179 181.34 52.2865C181.294 52.3322 181.111 52.3551 180.791 52.3551H180.311C180.174 52.2179 180.105 52.115 180.105 52.0464ZM185.422 58.3922C185.925 60.1302 186.771 60.9991 187.96 60.9991C188.646 60.9991 189.309 60.7362 189.95 60.2102C190.59 59.6842 191.116 59.0211 191.527 58.2207C191.939 57.4432 192.351 56.2083 192.762 54.5161C193.174 52.8239 193.391 51.5661 193.414 50.7429V50.5371C193.414 48.8449 192.717 47.9988 191.322 47.9988C191.07 47.9988 190.819 48.0331 190.567 48.1017C190.315 48.1703 190.064 48.2732 189.812 48.4104C189.561 48.5476 189.332 48.6962 189.126 48.8563C188.92 49.0164 188.726 49.1879 188.543 49.3708C188.36 49.5538 188.189 49.7253 188.029 49.8854C187.869 50.0454 187.743 50.2055 187.651 50.3656C187.56 50.5257 187.468 50.64 187.377 50.7086L187.274 50.8458C187.274 50.8687 187.24 51.0287 187.171 51.326C187.102 51.6233 186.977 52.1264 186.794 52.8353C186.611 53.5442 186.451 54.1388 186.314 54.619C185.719 57.043 185.422 58.3007 185.422 58.3922Z" fill="black"/>
<path d="M200 30.8136H139.32V28.7555H200V30.8136Z" fill="black"/>
</svg>
