<svg width="55" height="72" viewBox="0 0 55 72" fill="none" xmlns="http://www.w3.org/2000/svg">
<path d="M1.28558 71.2035C0.428526 71.2035 0 70.9514 0 70.4473C0 70.3464 0.0756222 69.9935 0.226866 69.3886C0.428526 68.5819 0.630185 68.1282 0.831844 68.0274C1.0335 67.9265 1.61327 67.8509 2.57115 67.8005C3.93235 67.8005 5.4448 67.7249 7.10848 67.5736C7.81429 67.4224 8.29323 67.1199 8.5453 66.6662C8.64613 66.4141 10.4359 59.3308 13.9145 45.4163C17.3931 31.5019 19.1576 24.4438 19.208 24.2421C19.208 23.8892 19.1072 23.7128 18.9055 23.7128C18.5022 23.5615 17.1662 23.4355 14.8976 23.3347H12.5533C12.2508 23.0322 12.0995 22.8305 12.0995 22.7297C12.0995 22.6289 12.15 22.2003 12.2508 21.4441C12.4524 20.5871 12.7045 20.0577 13.007 19.856H53.7674C54.1203 20.0577 54.2967 20.335 54.2967 20.6879C54.2967 20.94 53.969 23.7632 53.3136 29.1576C52.6582 34.5519 52.3053 37.3248 52.2549 37.476C52.1541 37.8289 51.6499 38.0054 50.7425 38.0054H49.835C49.4821 37.7533 49.3057 37.4256 49.3057 37.0223C49.3057 36.9719 49.3813 36.3669 49.5325 35.2073C49.6838 34.0478 49.7594 32.7118 49.7594 31.1994C49.7594 29.6869 49.5829 28.4518 49.23 27.4939C48.8771 26.536 48.3982 25.7546 47.7932 25.1496C47.1882 24.5446 46.2556 24.1413 44.9952 23.9396C43.7348 23.738 42.4492 23.5615 41.1385 23.4103C39.8277 23.259 38.0127 23.2338 35.6937 23.3347H33.9544C29.8203 23.3851 27.6273 23.4607 27.3752 23.5615C27.1231 23.6624 26.9467 23.864 26.8459 24.1665C26.7955 24.2169 25.9384 27.5191 24.2747 34.073L21.8548 43.8283H26.014C26.1653 43.8283 26.745 43.8283 27.7533 43.8283C28.7616 43.8283 29.4674 43.8031 29.8708 43.7526C30.2741 43.7022 30.8286 43.6266 31.5344 43.5258C32.2402 43.425 32.8452 43.2485 33.3494 42.9964C33.8535 42.7444 34.282 42.4419 34.635 42.089C35.2903 41.484 35.8449 40.6521 36.2986 39.5934C36.7524 38.5347 37.0801 37.5768 37.2817 36.7198C37.4834 35.8627 37.6094 35.409 37.6598 35.3586C37.8111 35.1065 38.29 34.9805 39.0967 34.9805H40.0041C40.357 35.2325 40.5335 35.4846 40.5335 35.7367C40.5335 35.8879 39.7521 39.1901 38.1892 45.6432C36.6263 52.0963 35.7693 55.4237 35.618 55.6253C35.5172 55.9782 35.0131 56.1547 34.1056 56.1547H33.1981C32.8452 55.8522 32.6688 55.5497 32.6688 55.2472C32.6688 55.096 32.7948 54.5414 33.0469 53.5835C33.299 52.6256 33.425 51.6174 33.425 50.5586C33.425 49.0966 32.9208 48.1891 31.9126 47.8362C30.9043 47.4833 28.6608 47.3069 25.1822 47.3069H21.023L18.6031 56.9109C16.9898 63.1623 16.1831 66.4393 16.1831 66.7418C16.1831 67.4476 18.4266 67.8005 22.9135 67.8005H24.8041C25.1066 68.103 25.2578 68.2794 25.2578 68.3298C25.2578 68.3803 25.2074 68.8844 25.1066 69.8423C24.9049 70.4977 24.6528 70.9766 24.3503 71.2791H23.0648C20.9978 71.1783 17.1914 71.1279 11.6458 71.1279C8.36885 71.1279 5.87332 71.1279 4.15922 71.1279C2.44512 71.1279 1.48724 71.1531 1.28558 71.2035Z" fill="#6C63FF"/>
<path d="M47.8915 1.85797C47.8915 1.45465 48.0175 1.10175 48.2696 0.799263C48.5217 0.496774 48.8998 0.34553 49.404 0.34553C49.7569 0.34553 50.0593 0.471566 50.3114 0.72364C50.5635 0.925299 50.8156 1.40424 51.0676 2.16046C51.5718 4.02581 52.6053 5.46263 54.1682 6.47092C54.7227 6.82383 55 7.27756 55 7.83212C55 8.28586 54.9244 8.58835 54.7731 8.73959C54.6219 8.89083 54.269 9.1177 53.7144 9.42019C51.5466 10.5293 49.656 12.1174 48.0428 14.1844C47.9419 14.2852 47.8159 14.4365 47.6646 14.6381C47.5134 14.8398 47.3874 14.991 47.2865 15.0919C47.1857 15.1927 47.0597 15.2431 46.9084 15.2431C46.7572 15.2431 46.5807 15.2683 46.3791 15.3187C46.0262 15.3187 45.6985 15.1927 45.396 14.9406C45.0935 14.6885 44.917 14.3104 44.8666 13.8063C44.8666 12.8484 46.0514 11.3612 48.4209 9.34457H35.4895L22.5581 9.26894C21.9027 8.81521 21.575 8.33627 21.575 7.83212C21.575 7.47922 21.9027 6.97507 22.5581 6.31968H49.7064C48.4965 4.40392 47.8915 2.91668 47.8915 1.85797Z" fill="#6C63FF"/>
</svg>
