<svg width="83" height="90" viewBox="0 0 83 90" fill="none" xmlns="http://www.w3.org/2000/svg">
<path d="M1.50185 89.1351H1.35167C0.750927 89.1351 0.300371 88.7846 0 88.0838V51.5887L0.0750927 15.0936C0.575711 14.4428 1.0513 14.1174 1.50185 14.1174C2.15266 14.1174 2.65328 14.4929 3.00371 15.2438V88.0838C2.60321 88.7846 2.15266 89.1351 1.65204 89.1351H1.50185Z" fill="#6C63FF"/>
<path d="M15.5442 70.3619C14.6931 70.3619 14.2676 70.1116 14.2676 69.611C14.2676 69.5108 14.3427 69.1604 14.4929 68.5597C14.6931 67.7587 14.8934 67.3081 15.0936 67.208C15.2939 67.1079 15.8696 67.0328 16.8208 66.9827C18.1724 66.9827 19.6743 66.9076 21.3263 66.7574C22.0272 66.6073 22.5028 66.3069 22.7531 65.8563C22.8532 65.606 24.6304 58.5723 28.0847 44.7553C31.539 30.9382 33.2911 23.9295 33.3412 23.7293C33.3412 23.3789 33.2411 23.2037 33.0408 23.2037C32.6403 23.0535 31.3137 22.9283 29.0609 22.8282H26.733C26.4326 22.5278 26.2825 22.3276 26.2825 22.2274C26.2825 22.1273 26.3325 21.7018 26.4326 20.9509C26.6329 20.0998 26.8832 19.5742 27.1836 19.3739H67.6586C68.009 19.5742 68.1842 19.8495 68.1842 20.1999C68.1842 20.4503 67.8588 23.2537 67.208 28.6103C66.5572 33.9669 66.2068 36.7203 66.1567 36.8705C66.0566 37.221 65.556 37.3962 64.6548 37.3962H63.7537C63.4033 37.1459 63.2281 36.8205 63.2281 36.42C63.2281 36.3699 63.3032 35.7692 63.4534 34.6177C63.6035 33.4663 63.6786 32.1397 63.6786 30.6378C63.6786 29.136 63.5034 27.9095 63.153 26.9583C62.8026 26.0071 62.327 25.2312 61.7262 24.6304C61.1255 24.0297 60.1993 23.6292 58.9478 23.4289C57.6963 23.2287 56.4197 23.0535 55.1181 22.9033C53.8165 22.7531 52.0142 22.7281 49.7114 22.8282H47.9843C43.8792 22.8783 41.7015 22.9533 41.4512 23.0535C41.2009 23.1536 41.0257 23.3538 40.9255 23.6542C40.8755 23.7043 40.0244 26.9833 38.3724 33.4914L35.9694 43.1783H40.0995C40.2497 43.1783 40.8254 43.1783 41.8267 43.1783C42.8279 43.1783 43.5288 43.1533 43.9293 43.1032C44.3297 43.0532 44.8804 42.9781 45.5813 42.8779C46.2822 42.7778 46.8829 42.6026 47.3835 42.3523C47.8841 42.102 48.3097 41.8016 48.6601 41.4512C49.3109 40.8504 49.8616 40.0244 50.3121 38.9731C50.7627 37.9218 51.0881 36.9707 51.2883 36.1196C51.4886 35.2686 51.6137 34.818 51.6638 34.7679C51.814 34.5176 52.2896 34.3925 53.0906 34.3925H53.9917C54.3421 34.6428 54.5173 34.8931 54.5173 35.1434C54.5173 35.2936 53.7414 38.5726 52.1895 44.9805C50.6375 51.3885 49.7865 54.6925 49.6363 54.8928C49.5362 55.2432 49.0356 55.4184 48.1344 55.4184H47.2333C46.8829 55.1181 46.7077 54.8177 46.7077 54.5173C46.7077 54.3671 46.8328 53.8165 47.0831 52.8653C47.3335 51.9141 47.4586 50.9129 47.4586 49.8616C47.4586 48.4098 46.958 47.5087 45.9568 47.1582C44.9555 46.8078 42.7278 46.6326 39.2735 46.6326H35.1434L32.7404 56.1694C31.1385 62.377 30.3375 65.631 30.3375 65.9314C30.3375 66.6323 32.5652 66.9827 37.0207 66.9827H38.898C39.1984 67.2831 39.3486 67.4583 39.3486 67.5084C39.3486 67.5584 39.2985 68.059 39.1984 69.0102C38.9982 69.661 38.7479 70.1366 38.4475 70.437H37.1709C35.1184 70.3369 31.3387 70.2868 25.8319 70.2868C22.5779 70.2868 20.0998 70.2868 18.3977 70.2868C16.6956 70.2868 15.7444 70.3118 15.5442 70.3619Z" fill="#6C63FF"/>
<path d="M61.8239 1.50186C61.8239 1.10136 61.949 0.750929 62.1993 0.450558C62.4496 0.150187 62.8251 1.3113e-06 63.3257 1.3113e-06C63.6762 1.3113e-06 63.9765 0.125156 64.2268 0.375465C64.4771 0.575712 64.7274 1.0513 64.9778 1.80223C65.4784 3.65451 66.5046 5.08128 68.0566 6.08251C68.6072 6.43295 68.8826 6.8835 68.8826 7.43418C68.8826 7.88474 68.8075 8.18511 68.6573 8.33529C68.5071 8.48548 68.1567 8.71076 67.606 9.01113C65.4533 10.1125 63.576 11.6894 61.974 13.742C61.8739 13.8421 61.7488 13.9923 61.5986 14.1925C61.4484 14.3928 61.3232 14.543 61.2231 14.6431C61.123 14.7432 60.9978 14.7933 60.8477 14.7933C60.6975 14.7933 60.5223 14.8183 60.322 14.8684C59.9716 14.8684 59.6462 14.7432 59.3458 14.4929C59.0454 14.2426 58.8702 13.8671 58.8202 13.3665C58.8202 12.4153 59.9966 10.9385 62.3495 8.93604H49.5087L36.6678 8.86094C36.017 8.41039 35.6916 7.9348 35.6916 7.43418C35.6916 7.08375 36.017 6.58313 36.6678 5.93233H63.6261C62.4246 4.02998 61.8239 2.55315 61.8239 1.50186Z" fill="#6C63FF"/>
<path d="M81.4982 89.1351H81.348C80.7472 89.1351 80.2967 88.7846 79.9963 88.0838V51.5887L80.0714 15.0936C80.572 14.4428 81.0476 14.1174 81.4982 14.1174C82.149 14.1174 82.6496 14.4929 83 15.2438V88.0838C82.5995 88.7846 82.149 89.1351 81.6483 89.1351H81.4982Z" fill="#6C63FF"/>
</svg>
