<svg width="402" height="335" viewBox="0 0 402 335" fill="none" xmlns="http://www.w3.org/2000/svg">
<path d="M131 199.662C131 193.648 132.15 187.31 134.449 180.647C136.749 173.985 139.873 168.236 143.824 163.402C147.774 158.567 151.872 155.796 156.117 155.088C156.176 155.088 156.412 155.088 156.824 155.088C157.237 155.088 157.591 155.059 157.886 155C161.069 155.236 163.546 156.68 165.314 159.334C167.614 162.871 168.764 167.617 168.764 173.572C168.764 180.353 167.437 187.251 164.784 194.267C162.131 201.283 158.741 207.032 154.613 211.513C150.486 215.994 146.536 218.234 142.762 218.234H142.143C140.021 218.234 138.193 217.645 136.66 216.465C135.127 215.286 133.977 213.724 133.211 211.778C132.445 209.832 131.884 207.857 131.531 205.853C131.177 203.848 131 201.784 131 199.662ZM161.777 167.293C161.777 161.279 160.214 158.272 157.09 158.272C154.967 158.272 152.903 159.599 150.899 162.252C148.894 164.905 147.243 167.912 145.946 171.273C144.649 174.634 143.647 177.582 142.939 180.117C142.232 182.652 141.849 184.126 141.79 184.539C144.679 184.598 147.538 184.627 150.368 184.627L158.947 184.539C159.006 184.48 159.242 183.507 159.654 181.62C160.067 179.734 160.539 177.375 161.069 174.545C161.6 171.715 161.836 169.298 161.777 167.293ZM137.898 205.676C137.898 211.926 139.461 215.05 142.586 215.05C143.47 215.05 144.413 214.756 145.416 214.166C146.418 213.576 147.627 212.456 149.042 210.805C150.457 209.154 151.872 206.59 153.287 203.111C154.702 199.632 156.117 195.328 157.532 190.199L157.974 188.695H140.728C140.728 188.872 140.463 189.993 139.932 192.056C139.402 194.12 138.93 196.419 138.517 198.954C138.105 201.49 137.898 203.73 137.898 205.676Z" fill="#6C63FF"/>
<path d="M333.213 173.448C332.404 173.448 332 173.21 332 172.734C332 172.639 332.071 172.306 332.214 171.735C332.404 170.974 332.595 170.546 332.785 170.451C332.975 170.356 333.522 170.285 334.426 170.237C335.71 170.237 337.137 170.166 338.707 170.023C339.373 169.88 339.825 169.595 340.063 169.167C340.158 168.929 341.847 162.246 345.129 149.117C348.411 135.988 350.076 129.329 350.123 129.138C350.123 128.805 350.028 128.639 349.838 128.639C349.457 128.496 348.197 128.377 346.056 128.282H343.844C343.559 127.997 343.416 127.806 343.416 127.711C343.416 127.616 343.464 127.212 343.559 126.498C343.749 125.69 343.987 125.19 344.273 125H382.731C383.064 125.19 383.231 125.452 383.231 125.785C383.231 126.023 382.921 128.686 382.303 133.776C381.685 138.866 381.352 141.482 381.304 141.625C381.209 141.958 380.733 142.124 379.877 142.124H379.021C378.688 141.887 378.521 141.577 378.521 141.197C378.521 141.149 378.593 140.578 378.735 139.484C378.878 138.39 378.95 137.13 378.95 135.703C378.95 134.276 378.783 133.11 378.45 132.207C378.117 131.303 377.665 130.565 377.094 129.995C376.524 129.424 375.644 129.043 374.454 128.853C373.265 128.663 372.052 128.496 370.815 128.354C369.579 128.211 367.866 128.187 365.678 128.282H364.037C360.136 128.33 358.067 128.401 357.829 128.496C357.592 128.591 357.425 128.782 357.33 129.067C357.282 129.115 356.474 132.23 354.904 138.414L352.621 147.619H356.545C356.688 147.619 357.235 147.619 358.186 147.619C359.137 147.619 359.803 147.595 360.184 147.547C360.565 147.5 361.088 147.428 361.754 147.333C362.42 147.238 362.99 147.071 363.466 146.834C363.942 146.596 364.346 146.31 364.679 145.977C365.298 145.407 365.821 144.622 366.249 143.623C366.677 142.624 366.986 141.72 367.176 140.911C367.367 140.103 367.486 139.675 367.533 139.627C367.676 139.389 368.128 139.27 368.889 139.27H369.745C370.078 139.508 370.245 139.746 370.245 139.984C370.245 140.127 369.507 143.242 368.033 149.331C366.558 155.42 365.749 158.559 365.607 158.749C365.512 159.082 365.036 159.249 364.18 159.249H363.323C362.99 158.963 362.824 158.678 362.824 158.393C362.824 158.25 362.943 157.727 363.181 156.823C363.419 155.919 363.538 154.968 363.538 153.969C363.538 152.589 363.062 151.733 362.11 151.4C361.159 151.067 359.042 150.901 355.76 150.901H351.836L349.553 159.962C348.03 165.861 347.269 168.953 347.269 169.238C347.269 169.904 349.386 170.237 353.62 170.237H355.403C355.689 170.522 355.832 170.689 355.832 170.737C355.832 170.784 355.784 171.26 355.689 172.164C355.499 172.782 355.261 173.234 354.975 173.519H353.762C351.812 173.424 348.221 173.377 342.988 173.377C339.896 173.377 337.542 173.377 335.924 173.377C334.307 173.377 333.403 173.4 333.213 173.448Z" fill="black"/>
<path d="M378.291 169.643C378.526 168.231 379.434 166.6 381.015 164.75C382.595 162.9 384.546 161.959 386.866 161.925C388.043 161.925 389.12 162.228 390.095 162.833C391.07 163.438 391.793 164.195 392.264 165.103C393.676 162.984 395.375 161.925 397.359 161.925C398.603 161.925 399.679 162.295 400.588 163.035C401.496 163.775 401.966 164.767 402 166.011C402 166.986 401.765 167.777 401.294 168.382C400.823 168.987 400.369 169.357 399.932 169.492C399.495 169.626 399.108 169.694 398.771 169.694C398.132 169.694 397.611 169.509 397.208 169.139C396.804 168.769 396.602 168.281 396.602 167.676C396.602 166.129 397.443 165.069 399.125 164.498C398.755 164.061 398.082 163.842 397.107 163.842C396.67 163.842 396.35 163.876 396.148 163.943C394.87 164.481 393.929 165.591 393.323 167.272C391.306 174.705 390.297 179.043 390.297 180.287C390.297 181.229 390.566 181.902 391.104 182.305C391.642 182.709 392.23 182.91 392.869 182.91C394.114 182.91 395.341 182.356 396.552 181.246C397.763 180.136 398.587 178.774 399.024 177.16C399.125 176.823 399.225 176.638 399.326 176.605C399.427 176.571 399.696 176.537 400.134 176.504H400.335C400.84 176.504 401.092 176.638 401.092 176.907C401.092 176.941 401.058 177.126 400.991 177.462C400.453 179.379 399.41 181.078 397.863 182.557C396.316 184.037 394.517 184.777 392.466 184.777C390.112 184.777 388.329 183.718 387.119 181.599C385.74 183.684 384.159 184.726 382.377 184.726H382.074C380.426 184.726 379.249 184.289 378.543 183.415C377.836 182.54 377.467 181.616 377.433 180.64C377.433 179.564 377.752 178.69 378.391 178.017C379.03 177.345 379.787 177.008 380.661 177.008C382.108 177.008 382.831 177.715 382.831 179.127C382.831 179.8 382.629 180.388 382.225 180.893C381.822 181.397 381.435 181.733 381.065 181.902C380.695 182.07 380.476 182.154 380.409 182.154L380.258 182.204C380.258 182.238 380.359 182.305 380.561 182.406C380.762 182.507 381.031 182.625 381.368 182.759C381.704 182.894 382.023 182.944 382.326 182.91C383.537 182.91 384.579 182.154 385.454 180.64C385.756 180.102 386.143 178.959 386.614 177.21C387.085 175.461 387.556 173.645 388.027 171.762C388.497 169.879 388.766 168.769 388.834 168.432C389.002 167.524 389.086 166.869 389.086 166.465C389.086 165.523 388.834 164.851 388.329 164.447C387.825 164.044 387.253 163.842 386.614 163.842C385.269 163.842 384.008 164.38 382.831 165.456C381.654 166.532 380.83 167.911 380.359 169.593C380.292 169.895 380.207 170.064 380.107 170.097C380.006 170.131 379.737 170.164 379.299 170.198H378.593C378.391 169.996 378.291 169.811 378.291 169.643Z" fill="black"/>
<path d="M149.236 313.364C148.412 313.364 148 313.122 148 312.637C148 312.54 148.073 312.201 148.218 311.619C148.412 310.844 148.606 310.407 148.8 310.31C148.994 310.214 149.551 310.141 150.472 310.092C151.78 310.092 153.234 310.02 154.834 309.874C155.512 309.729 155.973 309.438 156.215 309.002C156.312 308.759 158.033 301.95 161.377 288.573C164.721 275.196 166.418 268.41 166.466 268.217C166.466 267.877 166.369 267.708 166.175 267.708C165.787 267.562 164.503 267.441 162.322 267.344H160.068C159.778 267.053 159.632 266.86 159.632 266.763C159.632 266.666 159.681 266.254 159.778 265.527C159.971 264.703 160.214 264.194 160.505 264H199.69C200.03 264.194 200.199 264.46 200.199 264.8C200.199 265.042 199.884 267.756 199.254 272.942C198.624 278.128 198.285 280.794 198.236 280.939C198.139 281.279 197.655 281.448 196.782 281.448H195.91C195.571 281.206 195.401 280.891 195.401 280.503C195.401 280.455 195.474 279.873 195.619 278.758C195.765 277.643 195.837 276.359 195.837 274.905C195.837 273.451 195.668 272.264 195.328 271.343C194.989 270.422 194.529 269.671 193.947 269.089C193.365 268.507 192.469 268.12 191.257 267.926C190.045 267.732 188.809 267.562 187.549 267.417C186.289 267.271 184.544 267.247 182.315 267.344H180.643C176.668 267.393 174.56 267.465 174.318 267.562C174.075 267.659 173.906 267.853 173.809 268.144C173.76 268.192 172.936 271.367 171.337 277.668L169.011 287.046H173.009C173.155 287.046 173.712 287.046 174.681 287.046C175.651 287.046 176.329 287.022 176.717 286.973C177.105 286.925 177.638 286.852 178.316 286.755C178.995 286.658 179.576 286.489 180.061 286.246C180.546 286.004 180.958 285.713 181.297 285.374C181.927 284.792 182.46 283.993 182.896 282.975C183.333 281.957 183.648 281.036 183.842 280.212C184.035 279.388 184.157 278.952 184.205 278.904C184.35 278.661 184.811 278.54 185.586 278.54H186.459C186.798 278.782 186.968 279.025 186.968 279.267C186.968 279.413 186.216 282.587 184.714 288.791C183.211 294.995 182.388 298.194 182.242 298.387C182.145 298.727 181.661 298.896 180.788 298.896H179.916C179.576 298.606 179.407 298.315 179.407 298.024C179.407 297.879 179.528 297.345 179.77 296.425C180.013 295.504 180.134 294.534 180.134 293.517C180.134 292.111 179.649 291.239 178.68 290.899C177.71 290.56 175.554 290.39 172.209 290.39H168.211L165.884 299.623C164.333 305.633 163.558 308.784 163.558 309.075C163.558 309.753 165.715 310.092 170.028 310.092H171.846C172.137 310.383 172.282 310.553 172.282 310.601C172.282 310.65 172.234 311.134 172.137 312.055C171.943 312.685 171.701 313.146 171.41 313.437H170.174C168.187 313.34 164.527 313.291 159.196 313.291C156.046 313.291 153.646 313.291 151.999 313.291C150.351 313.291 149.43 313.315 149.236 313.364Z" fill="black"/>
<path d="M193.572 309.59C193.572 309.11 193.829 308.288 194.343 307.123C194.857 305.958 195.68 304.741 196.81 303.474C197.941 302.206 199.209 301.589 200.614 301.623C202.019 301.623 203.15 302.017 204.006 302.805C204.863 303.593 205.309 304.69 205.343 306.095C205.274 306.746 205.223 307.106 205.189 307.174C205.189 307.277 204.914 308.065 204.366 309.539C203.818 311.012 203.253 312.674 202.67 314.524C202.088 316.375 201.813 317.848 201.848 318.945C201.848 320.418 202.088 321.446 202.567 322.029C203.047 322.611 203.767 322.92 204.726 322.954C205.514 322.954 206.251 322.765 206.936 322.389C207.622 322.012 208.153 321.618 208.53 321.206C208.907 320.795 209.369 320.23 209.917 319.51C209.917 319.476 210.003 319.133 210.174 318.482C210.346 317.831 210.586 316.82 210.894 315.45C211.202 314.079 211.528 312.811 211.871 311.646C213.173 306.506 213.892 303.816 214.029 303.576C214.475 302.651 215.212 302.189 216.24 302.189C216.685 302.189 217.045 302.308 217.319 302.548C217.593 302.788 217.782 302.994 217.884 303.165C217.987 303.336 218.021 303.491 217.987 303.628C217.987 304.073 217.148 307.671 215.469 314.422C213.789 321.172 212.83 324.873 212.59 325.524C211.631 328.368 209.969 330.63 207.604 332.309C205.24 333.988 202.876 334.844 200.511 334.879C198.969 334.879 197.616 334.502 196.451 333.748C195.286 332.994 194.703 331.863 194.703 330.356C194.703 329.602 194.823 328.968 195.063 328.454C195.303 327.94 195.628 327.563 196.04 327.323C196.451 327.083 196.793 326.912 197.067 326.809C197.342 326.706 197.633 326.655 197.941 326.655C199.449 326.655 200.203 327.374 200.203 328.814C200.203 329.499 199.997 330.099 199.586 330.612C199.175 331.126 198.781 331.469 198.404 331.64C198.027 331.812 197.804 331.897 197.736 331.897L197.581 331.949C197.65 332.12 197.976 332.326 198.558 332.566C199.141 332.806 199.723 332.925 200.306 332.925H200.717C201.299 332.925 201.745 332.891 202.053 332.823C203.184 332.514 204.229 331.863 205.189 330.869C206.148 329.876 206.885 328.814 207.399 327.683C207.913 326.552 208.307 325.592 208.581 324.804C208.855 324.016 208.992 323.502 208.992 323.262L208.684 323.468C208.478 323.605 208.153 323.793 207.707 324.033C207.262 324.273 206.816 324.479 206.371 324.65C205.685 324.821 205.017 324.907 204.366 324.907C202.79 324.907 201.402 324.53 200.203 323.776C199.004 323.022 198.215 321.806 197.838 320.127C197.804 319.887 197.787 319.356 197.787 318.534C197.787 316.58 198.387 314.028 199.586 310.875C200.785 307.723 201.385 305.718 201.385 304.861C201.385 304.827 201.385 304.793 201.385 304.759C201.385 304.45 201.385 304.245 201.385 304.142C201.385 304.039 201.317 303.919 201.179 303.782C201.042 303.645 200.854 303.576 200.614 303.576H200.408C199.62 303.576 198.901 303.902 198.25 304.553C197.599 305.204 197.085 305.906 196.708 306.66C196.331 307.414 196.04 308.134 195.834 308.819C195.628 309.504 195.491 309.881 195.423 309.95C195.354 310.018 195.08 310.053 194.6 310.053H193.881C193.675 309.847 193.572 309.693 193.572 309.59Z" fill="black"/>
<path d="M314.5 234.5L15.1404 234.5L314.5 39.3063V234.5Z" stroke="#6C63FF" stroke-width="9"/>
<path d="M88.6466 97.7264H88.482C87.8233 97.7264 87.3293 97.3422 87 96.5738V56.5611L87.0823 16.5485C87.6312 15.8349 88.1526 15.4782 88.6466 15.4782C89.3601 15.4782 89.909 15.8898 90.2932 16.7131V96.5738C89.8541 97.3422 89.3601 97.7264 88.8113 97.7264H88.6466Z" fill="#6C63FF"/>
<path d="M104.042 77.1437C103.109 77.1437 102.643 76.8693 102.643 76.3204C102.643 76.2107 102.725 75.8265 102.89 75.1678C103.109 74.2896 103.329 73.7956 103.548 73.6859C103.768 73.5761 104.399 73.4938 105.442 73.4389C106.924 73.4389 108.571 73.3565 110.382 73.1919C111.15 73.0272 111.672 72.6979 111.946 72.2039C112.056 71.9295 114.004 64.2178 117.792 49.069C121.579 33.9202 123.5 26.236 123.555 26.0164C123.555 25.6322 123.445 25.4401 123.225 25.4401C122.786 25.2755 121.332 25.1383 118.862 25.0285H116.31C115.98 24.6992 115.816 24.4796 115.816 24.3698C115.816 24.2601 115.871 23.7935 115.98 22.9702C116.2 22.0371 116.474 21.4608 116.804 21.2413H161.18C161.564 21.4608 161.756 21.7627 161.756 22.1469C161.756 22.4213 161.399 25.495 160.686 31.3679C159.972 37.2409 159.588 40.2596 159.533 40.4243C159.423 40.8085 158.875 41.0006 157.887 41.0006H156.899C156.514 40.7262 156.322 40.3694 156.322 39.9303C156.322 39.8754 156.405 39.2168 156.569 37.9544C156.734 36.692 156.816 35.2375 156.816 33.5909C156.816 31.9443 156.624 30.5995 156.24 29.5567C155.856 28.5138 155.334 27.6631 154.676 27.0044C154.017 26.3458 153.002 25.9067 151.63 25.6871C150.257 25.4676 148.858 25.2755 147.431 25.1108C146.004 24.9462 144.028 24.9187 141.503 25.0285H139.609C135.109 25.0834 132.721 25.1657 132.446 25.2755C132.172 25.3853 131.98 25.6048 131.87 25.9341C131.815 25.989 130.882 29.5841 129.071 36.7194L126.436 47.3401H130.965C131.129 47.3401 131.76 47.3401 132.858 47.3401C133.956 47.3401 134.724 47.3126 135.163 47.2577C135.603 47.2029 136.206 47.1205 136.975 47.0107C137.743 46.901 138.402 46.7089 138.951 46.4344C139.499 46.16 139.966 45.8307 140.35 45.4465C141.064 44.7878 141.668 43.8822 142.162 42.7296C142.655 41.5769 143.012 40.5341 143.232 39.601C143.451 38.6679 143.589 38.1739 143.643 38.119C143.808 37.8446 144.33 37.7074 145.208 37.7074H146.196C146.58 37.9818 146.772 38.2563 146.772 38.5307C146.772 38.6954 145.921 42.2905 144.22 49.316C142.518 56.3415 141.585 59.9641 141.421 60.1836C141.311 60.5679 140.762 60.76 139.774 60.76H138.786C138.402 60.4306 138.21 60.1013 138.21 59.772C138.21 59.6073 138.347 59.0036 138.621 57.9607C138.896 56.9179 139.033 55.8201 139.033 54.6675C139.033 53.0758 138.484 52.0878 137.386 51.7036C136.289 51.3194 133.846 51.1273 130.059 51.1273H125.531L122.896 61.5833C121.14 68.3893 120.262 71.9569 120.262 72.2862C120.262 73.0547 122.704 73.4389 127.589 73.4389H129.647C129.977 73.7682 130.141 73.9603 130.141 74.0152C130.141 74.0701 130.086 74.6189 129.977 75.6618C129.757 76.3753 129.483 76.8968 129.153 77.2261H127.754C125.503 77.1163 121.359 77.0614 115.322 77.0614C111.754 77.0614 109.037 77.0614 107.171 77.0614C105.305 77.0614 104.262 77.0889 104.042 77.1437Z" fill="#6C63FF"/>
<path d="M154.783 1.64661C154.783 1.20751 154.92 0.823303 155.194 0.49398C155.469 0.164658 155.881 -3.8147e-06 156.429 -3.8147e-06C156.814 -3.8147e-06 157.143 0.137215 157.417 0.41165C157.692 0.631198 157.966 1.15263 158.241 1.97593C158.79 4.00675 159.915 5.57103 161.616 6.66877C162.22 7.05298 162.522 7.54697 162.522 8.15072C162.522 8.64471 162.44 8.97403 162.275 9.13869C162.11 9.30335 161.726 9.55034 161.122 9.87967C158.762 11.0872 156.704 12.8161 154.947 15.0665C154.838 15.1763 154.7 15.3409 154.536 15.5605C154.371 15.78 154.234 15.9447 154.124 16.0545C154.014 16.1642 153.877 16.2191 153.712 16.2191C153.548 16.2191 153.356 16.2466 153.136 16.3015C152.752 16.3015 152.395 16.1642 152.066 15.8898C151.737 15.6154 151.544 15.2037 151.49 14.6548C151.49 13.612 152.779 11.9928 155.359 9.79734H141.281L127.202 9.71501C126.488 9.22102 126.132 8.6996 126.132 8.15072C126.132 7.76652 126.488 7.21764 127.202 6.50411H156.759C155.441 4.4184 154.783 2.79924 154.783 1.64661Z" fill="#6C63FF"/>
<path d="M176.353 97.7264H176.189C175.53 97.7264 175.036 97.3422 174.707 96.5738V56.5611L174.789 16.5485C175.338 15.8349 175.859 15.4782 176.353 15.4782C177.067 15.4782 177.616 15.8898 178 16.7131V96.5738C177.561 97.3422 177.067 97.7264 176.518 97.7264H176.353Z" fill="#6C63FF"/>
</svg>
