<svg width="130" height="124" viewBox="0 0 130 124" fill="none" xmlns="http://www.w3.org/2000/svg">
<path d="M21.1006 78.7886C21.1006 80.7401 22.9707 81.8785 26.7111 82.2037C28.1747 82.2037 28.9065 82.6509 28.9065 83.5454C28.9065 83.6267 28.8252 84.1552 28.6626 85.1309C28.4187 86.2693 28.1747 87.0011 27.9308 87.3264C27.6869 87.6516 27.1583 87.8143 26.3452 87.8143C26.1826 87.8143 25.6947 87.8143 24.8816 87.8143C24.0685 87.8143 22.6861 87.7736 20.7347 87.6923C18.7832 87.611 16.1812 87.5703 12.9287 87.5703C7.15549 87.5703 3.45578 87.6516 1.82953 87.8143H0.85378C0.284593 87.2451 0 86.7979 0 86.4726C0.162625 84.2772 0.691155 82.8542 1.58559 82.2037H3.29315C8.98502 81.9598 13.1319 79.927 15.7339 76.1053C16.2218 75.6174 23.5806 63.2173 37.8102 38.9049C52.0399 14.5925 59.2767 2.27366 59.5206 1.94841C60.0898 0.972661 61.0656 0.484787 62.4479 0.484787H63.4236H65.4971C65.985 1.2166 66.2289 1.62316 66.2289 1.70447L69.644 41.1003C71.9208 67.3642 73.1405 80.6181 73.3031 80.862C73.7097 81.7565 76.3523 82.2037 81.231 82.2037C83.2639 82.2037 84.2803 82.6103 84.2803 83.4234C84.2803 83.586 84.1583 84.1552 83.9144 85.1309C83.6704 86.3506 83.4671 87.0824 83.3045 87.3264C83.1419 87.5703 82.5727 87.7329 81.597 87.8143C81.353 87.8143 80.7838 87.8143 79.8894 87.8143C78.995 87.8143 77.4094 87.7736 75.1326 87.6923C72.8559 87.611 69.888 87.5703 66.2289 87.5703C58.5856 87.5703 53.5848 87.6516 51.2268 87.8143H49.7632C49.2753 87.3264 49.0314 86.9605 49.0314 86.7165C49.0314 86.4726 49.1127 85.7408 49.2753 84.5211C49.6005 83.464 49.8445 82.8135 50.0071 82.5696L50.495 82.2037H52.9343C57.3252 81.9598 59.9272 81.2686 60.7403 80.1302L59.2767 61.835H30.2482L26.1013 68.9091C22.7675 74.5197 21.1006 77.8128 21.1006 78.7886ZM58.6669 56.1024C58.6669 55.208 58.179 48.8656 57.2032 37.0753C56.2275 25.2851 55.6583 19.3493 55.4957 19.2679L52.2025 24.5126C50.9015 26.708 48.3402 31.0582 44.5185 37.5632L33.5413 56.1024L46.1041 56.2244C54.4793 56.2244 58.6669 56.1837 58.6669 56.1024Z" fill="black"/>
<path d="M89.0183 81.361C89.0183 80.5562 89.4495 79.1765 90.3118 77.2219C91.1741 75.2673 92.5538 73.2265 94.4509 71.0994C96.348 68.9724 98.4751 67.9376 100.832 67.9951C103.189 67.9951 105.086 68.6562 106.523 69.9784C107.961 71.3006 108.708 73.1403 108.765 75.4973C108.65 76.5895 108.564 77.1931 108.507 77.3081C108.507 77.4806 108.047 78.8028 107.127 81.2748C106.207 83.7468 105.259 86.5349 104.281 89.6393C103.304 92.7436 102.844 95.2156 102.902 97.0552C102.902 99.5272 103.304 101.252 104.109 102.229C104.914 103.206 106.121 103.724 107.731 103.781C109.053 103.781 110.289 103.465 111.439 102.833C112.588 102.2 113.479 101.539 114.112 100.849C114.744 100.16 115.52 99.211 116.44 98.0037C116.44 97.9463 116.584 97.3714 116.871 96.2791C117.159 95.1868 117.561 93.4909 118.078 91.1914C118.596 88.8919 119.142 86.7649 119.717 84.8103C121.901 76.1871 123.109 71.6743 123.339 71.2719C124.086 69.7197 125.322 68.9436 127.047 68.9436C127.794 68.9436 128.398 69.1449 128.857 69.5473C129.317 69.9497 129.633 70.2946 129.806 70.582C129.978 70.8695 130.036 71.1282 129.978 71.3581C129.978 72.1055 128.57 78.1417 125.753 89.4668C122.936 100.792 121.327 107.001 120.924 108.093C119.314 112.864 116.526 116.659 112.56 119.475C108.593 122.292 104.626 123.73 100.66 123.787C98.0727 123.787 95.8019 123.155 93.8473 121.89C91.8927 120.625 90.9154 118.728 90.9154 116.199C90.9154 114.934 91.1166 113.87 91.5191 113.008C91.9215 112.146 92.4676 111.513 93.1575 111.111C93.8473 110.709 94.4222 110.421 94.8821 110.249C95.342 110.076 95.8306 109.99 96.348 109.99C98.8775 109.99 100.142 111.197 100.142 113.612C100.142 114.761 99.7973 115.767 99.1075 116.63C98.4176 117.492 97.7565 118.067 97.1241 118.354C96.4918 118.642 96.1181 118.786 96.0031 118.786L95.7444 118.872C95.8594 119.159 96.4055 119.504 97.3828 119.907C98.3601 120.309 99.3374 120.51 100.315 120.51H101.005C101.982 120.51 102.729 120.453 103.247 120.338C105.144 119.82 106.897 118.728 108.507 117.061C110.116 115.394 111.352 113.612 112.215 111.715C113.077 109.817 113.738 108.208 114.198 106.886C114.658 105.563 114.888 104.701 114.888 104.299L114.37 104.644C114.026 104.874 113.479 105.19 112.732 105.592C111.985 105.995 111.237 106.339 110.49 106.627C109.34 106.914 108.219 107.058 107.127 107.058C104.483 107.058 102.154 106.426 100.142 105.161C98.1302 103.896 96.8079 101.855 96.1756 99.0385C96.1181 98.6361 96.0893 97.745 96.0893 96.3653C96.0893 93.0885 97.0954 88.8057 99.1075 83.5168C101.12 78.2279 102.126 74.8649 102.126 73.4277C102.126 73.3702 102.126 73.3127 102.126 73.2552C102.126 72.7378 102.126 72.3929 102.126 72.2204C102.126 72.048 102.011 71.8468 101.781 71.6168C101.551 71.3869 101.235 71.2719 100.832 71.2719H100.487C99.1649 71.2719 97.9577 71.818 96.8654 72.9103C95.7732 74.0026 94.9108 75.1811 94.2785 76.4458C93.6461 77.7105 93.1575 78.9178 92.8125 80.0675C92.4676 81.2173 92.2377 81.8497 92.1227 81.9646C92.0077 82.0796 91.5478 82.1371 90.743 82.1371H89.5357C89.1908 81.7922 89.0183 81.5335 89.0183 81.361Z" fill="black"/>
</svg>
