<svg width="200" height="56" viewBox="0 0 200 56" fill="none" xmlns="http://www.w3.org/2000/svg">
<path d="M9.47945 35.1781C9.47945 36.0548 10.3196 36.5662 12 36.7123C12.6575 36.7123 12.9863 36.9132 12.9863 37.3151C12.9863 37.3516 12.9498 37.589 12.8767 38.0274C12.7671 38.5388 12.6575 38.8676 12.5479 39.0137C12.4384 39.1598 12.2009 39.2329 11.8356 39.2329C11.7626 39.2329 11.5434 39.2329 11.1781 39.2329C10.8128 39.2329 10.1918 39.2146 9.31507 39.1781C8.43836 39.1416 7.26941 39.1233 5.80822 39.1233C3.21461 39.1233 1.55251 39.1598 0.821918 39.2329H0.383562C0.127854 38.9772 0 38.7763 0 38.6301C0.0730594 37.6438 0.310502 37.0046 0.712329 36.7123H1.47945C4.03653 36.6027 5.89954 35.6895 7.06849 33.9726C7.28767 33.7534 10.5936 28.1827 16.9863 17.2603C23.379 6.3379 26.6301 0.803654 26.7397 0.657535C26.9954 0.219179 27.4338 5.51343e-07 28.0548 5.51343e-07H28.4932H29.4247C29.6438 0.328768 29.7534 0.511416 29.7534 0.547946L31.2877 18.2466C32.3105 30.0457 32.8585 36 32.9315 36.1096C33.1142 36.5114 34.3014 36.7123 36.4932 36.7123C37.4064 36.7123 37.863 36.895 37.863 37.2603C37.863 37.3333 37.8082 37.589 37.6986 38.0274C37.589 38.5753 37.4977 38.9041 37.4247 39.0137C37.3516 39.1233 37.0959 39.1963 36.6575 39.2329C36.5479 39.2329 36.2922 39.2329 35.8904 39.2329C35.4886 39.2329 34.7763 39.2146 33.7534 39.1781C32.7306 39.1416 31.3973 39.1233 29.7534 39.1233C26.3196 39.1233 24.0731 39.1598 23.0137 39.2329H22.3562C22.137 39.0137 22.0274 38.8493 22.0274 38.7397C22.0274 38.6301 22.0639 38.3014 22.137 37.7534C22.2831 37.2785 22.3927 36.9863 22.4658 36.8767L22.6849 36.7123H23.7808C25.7534 36.6027 26.9224 36.2922 27.2877 35.7808L26.6301 27.5616H13.589L11.726 30.7397C10.2283 33.2603 9.47945 34.7397 9.47945 35.1781ZM26.3562 24.9863C26.3562 24.5845 26.137 21.7352 25.6986 16.4384C25.2603 11.1416 25.0046 8.47489 24.9315 8.43836L23.4521 10.7945C22.8676 11.7808 21.7169 13.7352 20 16.6575L15.0685 24.9863L20.7123 25.0411C24.4749 25.0411 26.3562 25.0228 26.3562 24.9863Z" fill="black"/>
<path d="M39.9916 36.3338C39.9916 35.9722 40.1853 35.3524 40.5727 34.4743C40.9601 33.5962 41.5799 32.6793 42.4322 31.7237C43.2845 30.7682 44.2401 30.3033 45.299 30.3291C46.3578 30.3291 47.2101 30.6261 47.8558 31.2201C48.5014 31.8141 48.8372 32.6406 48.863 33.6995C48.8114 34.1902 48.7726 34.4613 48.7468 34.513C48.7468 34.5905 48.5402 35.1845 48.127 36.295C47.7137 37.4056 47.2876 38.6581 46.8485 40.0528C46.4095 41.4474 46.2029 42.5579 46.2287 43.3844C46.2287 44.4949 46.4095 45.2697 46.7711 45.7088C47.1326 46.1478 47.675 46.3803 48.3981 46.4061C48.9921 46.4061 49.5474 46.264 50.0639 45.98C50.5805 45.6959 50.9808 45.3989 51.2649 45.0889C51.549 44.779 51.8976 44.3529 52.3108 43.8105C52.3108 43.7847 52.3754 43.5264 52.5045 43.0357C52.6337 42.545 52.8145 41.7832 53.0469 40.7501C53.2793 39.717 53.5247 38.7615 53.783 37.8834C54.7644 34.0094 55.3067 31.982 55.41 31.8012C55.7458 31.1039 56.301 30.7552 57.0758 30.7552C57.4116 30.7552 57.6828 30.8456 57.8894 31.0264C58.096 31.2072 58.238 31.3622 58.3155 31.4913C58.393 31.6204 58.4188 31.7366 58.393 31.84C58.393 32.1757 57.7602 34.8875 56.4947 39.9753C55.2292 45.0631 54.5061 47.8524 54.3253 48.3431C53.6022 50.4867 52.3496 52.1912 50.5676 53.4567C48.7855 54.7222 47.0035 55.3679 45.2215 55.3937C44.0593 55.3937 43.0391 55.1096 42.161 54.5414C41.2829 53.9733 40.8439 53.121 40.8439 51.9846C40.8439 51.4164 40.9343 50.9386 41.1151 50.5512C41.2958 50.1638 41.5412 49.8798 41.8511 49.699C42.161 49.5182 42.4193 49.389 42.6259 49.3116C42.8325 49.2341 43.052 49.1954 43.2845 49.1954C44.4209 49.1954 44.989 49.7377 44.989 50.8224C44.989 51.3389 44.8341 51.7909 44.5242 52.1783C44.2142 52.5657 43.9172 52.824 43.6331 52.9531C43.3491 53.0822 43.1812 53.1468 43.1295 53.1468L43.0133 53.1855C43.065 53.3147 43.3103 53.4696 43.7494 53.6504C44.1884 53.8312 44.6275 53.9216 45.0665 53.9216H45.3764C45.8155 53.9216 46.1512 53.8958 46.3837 53.8441C47.2359 53.6117 48.0236 53.121 48.7468 52.372C49.4699 51.623 50.0252 50.8224 50.4126 49.9701C50.8 49.1179 51.097 48.3947 51.3036 47.8007C51.5102 47.2067 51.6135 46.8193 51.6135 46.6385L51.3811 46.7935C51.2261 46.8968 50.9808 47.0388 50.645 47.2196C50.3093 47.4004 49.9735 47.5554 49.6378 47.6845C49.1213 47.8136 48.6177 47.8782 48.127 47.8782C46.9389 47.8782 45.893 47.5941 44.989 47.0259C44.0851 46.4577 43.4911 45.5409 43.207 44.2754C43.1812 44.0946 43.1683 43.6943 43.1683 43.0745C43.1683 41.6024 43.6202 39.6783 44.5242 37.3023C45.4281 34.9262 45.88 33.4154 45.88 32.7697C45.88 32.7439 45.88 32.7181 45.88 32.6922C45.88 32.4598 45.88 32.3048 45.88 32.2274C45.88 32.1499 45.8284 32.0595 45.7251 31.9562C45.6218 31.8529 45.4797 31.8012 45.299 31.8012H45.144C44.55 31.8012 44.0076 32.0466 43.5169 32.5373C43.0262 33.028 42.6388 33.5574 42.3547 34.1256C42.0706 34.6938 41.8511 35.2361 41.6962 35.7527C41.5412 36.2692 41.4379 36.5533 41.3862 36.6049C41.3346 36.6566 41.128 36.6824 40.7664 36.6824H40.224C40.0691 36.5275 39.9916 36.4112 39.9916 36.3338Z" fill="black"/>
<path d="M79.1397 21.7534C79.1397 20.2557 79.4502 18.9041 80.0712 17.6986C80.6923 16.4931 81.4594 15.5616 82.3726 14.9041C83.2859 14.2466 84.1808 13.7352 85.0575 13.3699C85.9343 13.0046 86.7014 12.8219 87.3589 12.8219C87.432 12.8219 87.5781 12.8219 87.7973 12.8219C88.0165 12.8219 88.1991 12.8037 88.3452 12.7671C89.7699 12.7671 91.1032 13.0411 92.3452 13.589C93.5872 14.137 95.3589 15.1416 97.6603 16.6027L100.4 18.3562C102.555 19.6347 104.564 20.274 106.427 20.274C108.473 20.274 110.226 19.7443 111.688 18.6849C113.149 17.6256 113.971 16.1826 114.153 14.3562C114.153 13.9543 114.227 13.589 114.373 13.2603C114.519 12.9315 114.701 12.7671 114.921 12.7671C115.432 12.7671 115.688 13.3333 115.688 14.4658C115.688 16.8767 114.829 18.9589 113.112 20.7123C111.395 22.4658 109.204 23.3607 106.537 23.3973C105.039 23.3973 103.45 23.0137 101.77 22.2466C100.09 21.4795 98.6283 20.621 97.3863 19.6712C96.1443 18.7215 94.6831 17.863 93.0028 17.0959C91.3224 16.3288 89.7881 15.9269 88.4 15.8904C86.2082 15.8904 84.4 16.4931 82.9754 17.6986C81.5507 18.9041 80.7836 20.274 80.674 21.8082C80.6009 22.8676 80.3452 23.3973 79.9069 23.3973C79.3954 23.3973 79.1397 22.8493 79.1397 21.7534ZM79.1397 34.5753C79.1397 33.0776 79.4502 31.726 80.0712 30.5205C80.6923 29.3151 81.4594 28.3836 82.3726 27.726C83.2859 27.0685 84.1808 26.5571 85.0575 26.1918C85.9343 25.8265 86.7014 25.6438 87.3589 25.6438C87.432 25.6438 87.5781 25.6438 87.7973 25.6438C88.0165 25.6438 88.1991 25.6256 88.3452 25.589C89.7699 25.589 91.1032 25.863 92.3452 26.411C93.5872 26.9589 95.3589 27.9635 97.6603 29.4247L100.4 31.1781C102.555 32.4566 104.564 33.0959 106.427 33.0959C108.473 33.0959 110.226 32.5662 111.688 31.5068C113.149 30.4475 113.971 29.0046 114.153 27.1781C114.153 26.1187 114.409 25.589 114.921 25.589C115.432 25.589 115.688 26.1735 115.688 27.3425C115.688 29.6804 114.829 31.7443 113.112 33.5342C111.395 35.3242 109.204 36.2192 106.537 36.2192C105.039 36.2192 103.45 35.8356 101.77 35.0685C100.09 34.3014 98.6283 33.4429 97.3863 32.4931C96.1443 31.5434 94.6831 30.6849 93.0028 29.9178C91.3224 29.1507 89.7881 28.7489 88.4 28.7123C86.2082 28.7123 84.4 29.3151 82.9754 30.5205C81.5507 31.726 80.7836 33.0959 80.674 34.6301C80.5644 35.6895 80.3087 36.2192 79.9069 36.2192C79.3954 36.2192 79.1397 35.6712 79.1397 34.5753Z" fill="black"/>
<path d="M159.288 39.2329C158.63 39.1233 156.274 39.0685 152.219 39.0685C147.982 39.0685 145.534 39.1233 144.877 39.2329H144.384V36.7123H146.082C146.813 36.7123 147.306 36.7123 147.562 36.7123C147.817 36.7123 148.128 36.6758 148.493 36.6027C148.858 36.5297 149.114 36.4384 149.26 36.3288C149.406 36.2192 149.534 36.0731 149.644 35.8904C149.68 35.8174 149.699 34.8311 149.699 32.9315V30.1918H135.507V27.6712L143.781 15.0137C149.37 6.53881 152.201 2.28311 152.274 2.24658C152.347 2.17352 152.731 2.13699 153.425 2.13699H154.411L154.74 2.46575V27.6712H159.781V30.1918H154.74V32.9863C154.74 34.484 154.74 35.3607 154.74 35.6164C154.74 35.8721 154.849 36.0913 155.069 36.274C155.361 36.5297 156.402 36.6758 158.192 36.7123H159.781V39.2329H159.288ZM150.027 27.6712V9.36986L138.027 27.6164L144 27.6712H150.027Z" fill="black"/>
<path d="M165.644 35.9452C165.644 35.0685 165.954 34.3014 166.575 33.6438C167.196 32.9863 167.982 32.6575 168.932 32.6575C169.808 32.6575 170.575 32.9498 171.233 33.5342C171.89 34.1187 172.237 34.9041 172.274 35.8904C172.274 36.8037 171.963 37.589 171.342 38.2466C170.721 38.9041 169.936 39.2329 168.986 39.2329C168.037 39.2329 167.251 38.9224 166.63 38.3014C166.009 37.6804 165.68 36.895 165.644 35.9452Z" fill="black"/>
<path d="M188.274 7.56164L187.562 7.83562C187.05 8.01827 186.32 8.20091 185.37 8.38356C184.42 8.56621 183.361 8.69407 182.192 8.76712H181.151V6.24658H182.192C183.909 6.17352 185.498 5.89954 186.959 5.42466C188.42 4.94977 189.443 4.51142 190.027 4.10959C190.612 3.70776 191.123 3.30594 191.562 2.90411C191.635 2.79452 191.854 2.73973 192.219 2.73973C192.548 2.73973 192.858 2.84932 193.151 3.06849V19.4521L193.205 35.8904C193.461 36.1461 193.68 36.3105 193.863 36.3836C194.046 36.4566 194.484 36.5297 195.178 36.6027C195.872 36.6758 197.005 36.7123 198.575 36.7123H200V39.2329H199.397C198.63 39.1233 195.726 39.0685 190.685 39.0685C185.717 39.0685 182.849 39.1233 182.082 39.2329H181.425V36.7123H182.849C183.653 36.7123 184.347 36.7123 184.932 36.7123C185.516 36.7123 185.973 36.6941 186.301 36.6575C186.63 36.621 186.922 36.5662 187.178 36.4932C187.434 36.4201 187.58 36.3836 187.616 36.3836C187.653 36.3836 187.763 36.2922 187.945 36.1096C188.128 35.9269 188.237 35.8539 188.274 35.8904V7.56164Z" fill="black"/>
</svg>
