<svg width="79" height="109" viewBox="0 0 79 109" fill="none" xmlns="http://www.w3.org/2000/svg">
<path d="M19.3604 100.719C19.3604 102.509 21.0763 103.554 24.5082 103.852C25.8511 103.852 26.5226 104.262 26.5226 105.083C26.5226 105.158 26.448 105.643 26.2988 106.538C26.0749 107.582 25.8511 108.254 25.6273 108.552C25.4035 108.851 24.9185 109 24.1725 109C24.0233 109 23.5756 109 22.8296 109C22.0835 109 20.8152 108.963 19.0246 108.888C17.2341 108.813 14.8467 108.776 11.8624 108.776C6.56537 108.776 3.17077 108.851 1.67864 109H0.783368C0.261123 108.478 0 108.067 0 107.769C0.149213 105.755 0.634155 104.449 1.45483 103.852H3.02156C8.24401 103.628 12.0489 101.763 14.4363 98.2567C14.884 97.809 21.6359 86.4316 34.692 64.1242C47.7481 41.8169 54.3881 30.514 54.6119 30.2156C55.1342 29.3203 56.0294 28.8727 57.2977 28.8727H58.193H60.0955C60.5431 29.5442 60.7669 29.9172 60.7669 29.9918L63.9004 66.1386C65.9894 90.2365 67.1085 102.397 67.2577 102.621C67.6307 103.442 70.0554 103.852 74.5318 103.852C76.397 103.852 77.3296 104.225 77.3296 104.971C77.3296 105.12 77.2177 105.643 76.9938 106.538C76.77 107.657 76.5835 108.329 76.4343 108.552C76.2851 108.776 75.7628 108.925 74.8676 109C74.6437 109 74.1215 109 73.3008 109C72.4801 109 71.0253 108.963 68.9363 108.888C66.8474 108.813 64.1242 108.776 60.7669 108.776C53.7539 108.776 49.1656 108.851 47.0021 109H45.6591C45.2115 108.552 44.9877 108.217 44.9877 107.993C44.9877 107.769 45.0623 107.098 45.2115 105.978C45.5099 105.009 45.7337 104.412 45.883 104.188L46.3306 103.852H48.5688C52.5975 103.628 54.9849 102.994 55.731 101.95L54.3881 85.1632H27.7536L23.9487 91.654C20.8898 96.8018 19.3604 99.8234 19.3604 100.719ZM53.8285 79.9035C53.8285 79.0828 53.3809 73.2635 52.4856 62.4456C51.5903 51.6277 51.0681 46.1814 50.9189 46.1068L47.8973 50.9189C46.7036 52.9333 44.3535 56.9247 40.847 62.8932L30.7752 79.9035L42.3018 80.0154C49.9863 80.0154 53.8285 79.9781 53.8285 79.9035Z" fill="black"/>
<path d="M67.8172 2.2382C67.8172 1.64134 68.0038 1.1191 68.3768 0.671459C68.7498 0.223822 69.3094 1.90735e-06 70.0554 1.90735e-06C70.5777 1.90735e-06 71.0253 0.186518 71.3983 0.559551C71.7714 0.857977 72.1444 1.56674 72.5174 2.68583C73.2635 5.44627 74.7929 7.57255 77.1057 9.06468C77.9264 9.58693 78.3367 10.2584 78.3367 11.0791C78.3367 11.7505 78.2248 12.1982 78.001 12.422C77.7772 12.6458 77.255 12.9815 76.4343 13.4292C73.2262 15.0705 70.4285 17.4206 68.0411 20.4795C67.8918 20.6287 67.7053 20.8525 67.4815 21.1509C67.2577 21.4494 67.0712 21.6732 66.922 21.8224C66.7727 21.9716 66.5862 22.0462 66.3624 22.0462C66.1386 22.0462 65.8775 22.0835 65.579 22.1581C65.0568 22.1581 64.5719 21.9716 64.1242 21.5986C63.6766 21.2255 63.4155 20.666 63.3409 19.9199C63.3409 18.5024 65.0941 16.3015 68.6006 13.3173H49.4641L30.3275 13.2053C29.3576 12.5339 28.8727 11.8251 28.8727 11.0791C28.8727 10.5568 29.3576 9.81075 30.3275 8.84086H70.5031C68.7125 6.00582 67.8172 3.80493 67.8172 2.2382Z" fill="black"/>
</svg>
