<svg width="1102" height="756" viewBox="0 0 1102 756" fill="none" xmlns="http://www.w3.org/2000/svg">
<path d="M760.183 196L693.458 230.366L756.583 270.969L760.183 196ZM509.65 597.516L734.003 248.717L723.07 241.685L498.717 590.484L509.65 597.516Z" fill="#6C63FF"/>
<path d="M796.36 194.719C796.36 196.509 798.076 197.554 801.508 197.852C802.851 197.852 803.523 198.262 803.523 199.083C803.523 199.158 803.448 199.643 803.299 200.538C803.075 201.582 802.851 202.254 802.627 202.552C802.403 202.851 801.919 203 801.172 203C801.023 203 800.576 203 799.83 203C799.084 203 797.815 202.963 796.025 202.888C794.234 202.813 791.847 202.776 788.862 202.776C783.565 202.776 780.171 202.851 778.679 203H777.783C777.261 202.478 777 202.067 777 201.769C777.149 199.755 777.634 198.449 778.455 197.852H780.022C785.244 197.628 789.049 195.763 791.436 192.257C791.884 191.809 798.636 180.432 811.692 158.124C824.748 135.817 831.388 124.514 831.612 124.216C832.134 123.32 833.029 122.873 834.298 122.873H835.193H837.095C837.543 123.544 837.767 123.917 837.767 123.992L840.9 160.139C842.989 184.236 844.108 196.397 844.258 196.621C844.631 197.442 847.055 197.852 851.532 197.852C853.397 197.852 854.33 198.225 854.33 198.971C854.33 199.12 854.218 199.643 853.994 200.538C853.77 201.657 853.584 202.329 853.434 202.552C853.285 202.776 852.763 202.925 851.868 203C851.644 203 851.121 203 850.301 203C849.48 203 848.025 202.963 845.936 202.888C843.847 202.813 841.124 202.776 837.767 202.776C830.754 202.776 826.166 202.851 824.002 203H822.659C822.211 202.552 821.988 202.217 821.988 201.993C821.988 201.769 822.062 201.098 822.211 199.978C822.51 199.009 822.734 198.412 822.883 198.188L823.331 197.852H825.569C829.598 197.628 831.985 196.994 832.731 195.95L831.388 179.163H804.754L800.949 185.654C797.89 190.802 796.36 193.823 796.36 194.719ZM830.829 173.903C830.829 173.083 830.381 167.264 829.486 156.446C828.59 145.628 828.068 140.181 827.919 140.107L824.897 144.919C823.704 146.933 821.354 150.925 817.847 156.893L807.775 173.903L819.302 174.015C826.986 174.015 830.829 173.978 830.829 173.903Z" fill="black"/>
<path d="M844.817 96.2382C844.817 95.6413 845.004 95.1191 845.377 94.6715C845.75 94.2238 846.309 94 847.055 94C847.578 94 848.025 94.1865 848.398 94.5596C848.771 94.858 849.144 95.5667 849.517 96.6858C850.264 99.4463 851.793 101.573 854.106 103.065C854.926 103.587 855.337 104.258 855.337 105.079C855.337 105.751 855.225 106.198 855.001 106.422C854.777 106.646 854.255 106.982 853.434 107.429C850.226 109.071 847.428 111.421 845.041 114.479C844.892 114.629 844.705 114.852 844.482 115.151C844.258 115.449 844.071 115.673 843.922 115.822C843.773 115.972 843.586 116.046 843.362 116.046C843.139 116.046 842.877 116.084 842.579 116.158C842.057 116.158 841.572 115.972 841.124 115.599C840.677 115.226 840.415 114.666 840.341 113.92C840.341 112.502 842.094 110.302 845.601 107.317H826.464L807.328 107.205C806.358 106.534 805.873 105.825 805.873 105.079C805.873 104.557 806.358 103.811 807.328 102.841H847.503C845.713 100.006 844.817 97.8049 844.817 96.2382Z" fill="black"/>
<path d="M540 402.395C540 394.935 541.426 387.074 544.278 378.811C547.13 370.547 551.006 363.417 555.905 357.421C560.805 351.424 565.887 347.987 571.153 347.11C571.226 347.11 571.518 347.11 572.03 347.11C572.542 347.11 572.981 347.073 573.346 347C577.295 347.293 580.367 349.084 582.561 352.375C585.413 356.763 586.839 362.649 586.839 370.035C586.839 378.445 585.193 387.001 581.902 395.703C578.612 404.406 574.407 411.536 569.288 417.093C564.169 422.651 559.269 425.43 554.589 425.43H553.821C551.189 425.43 548.922 424.699 547.02 423.236C545.119 421.773 543.693 419.836 542.742 417.422C541.792 415.009 541.097 412.559 540.658 410.073C540.219 407.587 540 405.027 540 402.395ZM578.173 362.247C578.173 354.788 576.235 351.059 572.359 351.059C569.727 351.059 567.167 352.704 564.681 355.995C562.194 359.286 560.147 363.015 558.538 367.183C556.929 371.352 555.686 375.008 554.808 378.153C553.931 381.297 553.456 383.125 553.382 383.637C556.966 383.71 560.512 383.747 564.023 383.747L574.663 383.637C574.736 383.564 575.028 382.357 575.54 380.017C576.052 377.677 576.637 374.752 577.295 371.242C577.953 367.732 578.246 364.734 578.173 362.247ZM548.556 409.854C548.556 417.605 550.494 421.481 554.37 421.481C555.467 421.481 556.637 421.115 557.88 420.384C559.123 419.653 560.622 418.263 562.377 416.216C564.132 414.168 565.887 410.987 567.642 406.673C569.397 402.358 571.153 397.02 572.908 390.657L573.456 388.793H552.066C552.066 389.012 551.737 390.402 551.079 392.961C550.421 395.52 549.836 398.372 549.324 401.517C548.812 404.661 548.556 407.44 548.556 409.854Z" fill="black"/>
<g filter="url(#filter0_d_103_48)">
<path d="M1006.47 596.475C1007.84 595.108 1007.84 592.892 1006.47 591.525L984.201 569.251C982.834 567.884 980.618 567.884 979.251 569.251C977.884 570.618 977.884 572.834 979.251 574.201L999.05 594L979.251 613.799C977.884 615.166 977.884 617.382 979.251 618.749C980.618 620.116 982.834 620.116 984.201 618.749L1006.47 596.475ZM4 597.5H1004V590.5H4V597.5Z" fill="black"/>
</g>
<g filter="url(#filter1_d_103_48)">
<path d="M506.475 91.5251C505.108 90.1583 502.892 90.1583 501.525 91.5251L479.251 113.799C477.884 115.166 477.884 117.382 479.251 118.749C480.618 120.116 482.834 120.116 484.201 118.749L504 98.9498L523.799 118.749C525.166 120.116 527.382 120.116 528.749 118.749C530.116 117.382 530.116 115.166 528.749 113.799L506.475 91.5251ZM507.5 748L507.5 94H500.5L500.5 748H507.5Z" fill="black"/>
</g>
<path d="M1053.75 586.924C1054.22 583.834 1056.07 580.265 1059.29 576.218C1062.51 572.171 1066.48 570.111 1071.2 570.037C1073.59 570.037 1075.79 570.699 1077.77 572.024C1079.75 573.348 1081.23 575.004 1082.18 576.991C1085.06 572.355 1088.52 570.037 1092.55 570.037C1095.09 570.037 1097.28 570.846 1099.13 572.465C1100.97 574.084 1101.93 576.255 1102 578.977C1102 581.111 1101.52 582.841 1100.56 584.165C1099.6 585.49 1098.68 586.299 1097.79 586.593C1096.9 586.888 1096.11 587.035 1095.43 587.035C1094.13 587.035 1093.07 586.63 1092.25 585.821C1091.43 585.011 1091.01 583.944 1091.01 582.62C1091.01 579.235 1092.73 576.917 1096.15 575.666C1095.39 574.71 1094.03 574.231 1092.04 574.231C1091.15 574.231 1090.5 574.305 1090.09 574.452C1087.49 575.629 1085.57 578.058 1084.34 581.737C1080.23 597.999 1078.18 607.491 1078.18 610.214C1078.18 612.274 1078.73 613.746 1079.82 614.629C1080.92 615.512 1082.12 615.953 1083.42 615.953C1085.95 615.953 1088.45 614.739 1090.91 612.311C1093.38 609.882 1095.05 606.902 1095.94 603.37C1096.15 602.634 1096.35 602.23 1096.56 602.156C1096.76 602.083 1097.31 602.009 1098.2 601.935H1098.61C1099.64 601.935 1100.15 602.23 1100.15 602.818C1100.15 602.892 1100.08 603.297 1099.95 604.033C1098.85 608.227 1096.73 611.943 1093.58 615.18C1090.43 618.418 1086.77 620.037 1082.6 620.037C1077.8 620.037 1074.18 617.719 1071.71 613.083C1068.91 617.646 1065.69 619.927 1062.06 619.927H1061.45C1058.09 619.927 1055.7 618.97 1054.26 617.057C1052.82 615.144 1052.07 613.12 1052 610.986C1052 608.632 1052.65 606.718 1053.95 605.247C1055.25 603.775 1056.79 603.039 1058.57 603.039C1061.51 603.039 1062.99 604.584 1062.99 607.675C1062.99 609.147 1062.57 610.434 1061.75 611.538C1060.93 612.642 1060.15 613.378 1059.39 613.746C1058.64 614.114 1058.19 614.297 1058.06 614.297L1057.75 614.408C1057.75 614.481 1057.95 614.629 1058.37 614.849C1058.78 615.07 1059.32 615.328 1060.01 615.622C1060.69 615.916 1061.34 616.027 1061.96 615.953C1064.42 615.953 1066.54 614.297 1068.32 610.986C1068.94 609.809 1069.73 607.307 1070.69 603.481C1071.64 599.654 1072.6 595.681 1073.56 591.56C1074.52 587.439 1075.07 585.011 1075.2 584.275C1075.55 582.289 1075.72 580.854 1075.72 579.971C1075.72 577.91 1075.2 576.439 1074.18 575.556C1073.15 574.673 1071.99 574.231 1070.69 574.231C1067.95 574.231 1065.38 575.409 1062.99 577.763C1060.59 580.118 1058.91 583.135 1057.95 586.814C1057.82 587.476 1057.65 587.844 1057.44 587.918C1057.24 587.991 1056.69 588.065 1055.8 588.139H1054.36C1053.95 587.697 1053.75 587.292 1053.75 586.924Z" fill="black"/>
<path d="M479 17.9699C479 16.888 479.526 15.0333 480.578 12.4059C481.63 9.77854 483.314 7.03522 485.628 4.17598C487.943 1.31675 490.538 -0.0742289 493.413 0.00304774C496.289 0.00304774 498.604 0.891729 500.357 2.66909C502.111 4.44645 503.022 6.9193 503.093 10.0876C502.952 11.5559 502.847 12.3673 502.777 12.5219C502.777 12.7537 502.216 14.5311 501.094 17.8539C499.971 21.1768 498.814 24.9248 497.622 29.0977C496.429 33.2706 495.868 36.5935 495.938 39.0664C495.938 42.3893 496.429 44.7076 497.411 46.0213C498.393 47.335 499.866 48.0305 501.83 48.1077C503.443 48.1077 504.951 47.6827 506.354 46.8327C507.757 45.9826 508.844 45.094 509.615 44.1666C510.387 43.2393 511.334 41.9642 512.456 40.3414C512.456 40.2642 512.631 39.4914 512.982 38.0231C513.333 36.5549 513.824 34.2752 514.455 31.1842C515.086 28.0931 515.753 25.2339 516.454 22.6065C519.119 11.015 520.592 4.94875 520.873 4.40781C521.784 2.32135 523.292 1.27811 525.397 1.27811C526.308 1.27811 527.045 1.54858 527.606 2.08952C528.167 2.63045 528.553 3.09411 528.763 3.4805C528.974 3.86688 529.044 4.21462 528.974 4.52373C528.974 5.52833 527.255 13.6424 523.819 28.8659C520.382 44.0894 518.418 52.4352 517.927 53.9035C515.963 60.3174 512.561 65.4177 507.722 69.2043C502.882 72.9908 498.043 74.9227 493.203 75C490.047 75 487.276 74.15 484.892 72.4499C482.507 70.7498 481.315 68.1997 481.315 64.7995C481.315 63.0994 481.56 61.6698 482.051 60.5106C482.542 59.3515 483.208 58.5014 484.05 57.9605C484.892 57.4196 485.593 57.0332 486.154 56.8014C486.715 56.5695 487.311 56.4536 487.943 56.4536C491.029 56.4536 492.572 58.0764 492.572 61.322C492.572 62.8676 492.151 64.2199 491.309 65.3791C490.468 66.5382 489.661 67.311 488.89 67.6974C488.118 68.0837 487.662 68.2769 487.522 68.2769L487.206 68.3928C487.346 68.7792 488.013 69.2429 489.205 69.7838C490.398 70.3248 491.59 70.5952 492.782 70.5952H493.624C494.816 70.5952 495.728 70.518 496.359 70.3634C498.674 69.6679 500.813 68.1997 502.777 65.9586C504.741 63.7176 506.249 61.322 507.301 58.7719C508.353 56.2218 509.16 54.058 509.721 52.2807C510.282 50.5033 510.562 49.3442 510.562 48.8032L509.931 49.2669C509.51 49.576 508.844 50.001 507.932 50.542C507.02 51.0829 506.109 51.5465 505.197 51.9329C503.794 52.3193 502.426 52.5125 501.094 52.5125C497.867 52.5125 495.027 51.6625 492.572 49.9624C490.117 48.2623 488.504 45.519 487.732 41.7324C487.662 41.1915 487.627 39.9937 487.627 38.1391C487.627 33.7343 488.854 27.9772 491.309 20.8677C493.764 13.7583 494.992 9.2376 494.992 7.30569C494.992 7.22841 494.992 7.15113 494.992 7.07386C494.992 6.37837 494.992 5.91471 494.992 5.68288C494.992 5.45105 494.851 5.18058 494.571 4.87147C494.29 4.56237 493.904 4.40781 493.413 4.40781H492.993C491.379 4.40781 489.907 5.14194 488.574 6.6102C487.241 8.07845 486.189 9.66262 485.418 11.3627C484.646 13.0628 484.05 14.6856 483.629 16.2311C483.208 17.7767 482.928 18.6267 482.787 18.7813C482.647 18.9358 482.086 19.0131 481.104 19.0131H479.631C479.21 18.5494 479 18.2017 479 17.9699Z" fill="black"/>
<defs>
<filter id="filter0_d_103_48" x="0" y="568.226" width="1011.5" height="59.5477" filterUnits="userSpaceOnUse" color-interpolation-filters="sRGB">
<feFlood flood-opacity="0" result="BackgroundImageFix"/>
<feColorMatrix in="SourceAlpha" type="matrix" values="0 0 0 0 0 0 0 0 0 0 0 0 0 0 0 0 0 0 127 0" result="hardAlpha"/>
<feOffset dy="4"/>
<feGaussianBlur stdDeviation="2"/>
<feComposite in2="hardAlpha" operator="out"/>
<feColorMatrix type="matrix" values="0 0 0 0 0 0 0 0 0 0 0 0 0 0 0 0 0 0 0.25 0"/>
<feBlend mode="normal" in2="BackgroundImageFix" result="effect1_dropShadow_103_48"/>
<feBlend mode="normal" in="SourceGraphic" in2="effect1_dropShadow_103_48" result="shape"/>
</filter>
<filter id="filter1_d_103_48" x="474.226" y="90.5" width="59.5477" height="665.5" filterUnits="userSpaceOnUse" color-interpolation-filters="sRGB">
<feFlood flood-opacity="0" result="BackgroundImageFix"/>
<feColorMatrix in="SourceAlpha" type="matrix" values="0 0 0 0 0 0 0 0 0 0 0 0 0 0 0 0 0 0 127 0" result="hardAlpha"/>
<feOffset dy="4"/>
<feGaussianBlur stdDeviation="2"/>
<feComposite in2="hardAlpha" operator="out"/>
<feColorMatrix type="matrix" values="0 0 0 0 0 0 0 0 0 0 0 0 0 0 0 0 0 0 0.25 0"/>
<feBlend mode="normal" in2="BackgroundImageFix" result="effect1_dropShadow_103_48"/>
<feBlend mode="normal" in="SourceGraphic" in2="effect1_dropShadow_103_48" result="shape"/>
</filter>
</defs>
</svg>
