<svg width="805" height="541" viewBox="0 0 805 541" fill="none" xmlns="http://www.w3.org/2000/svg">
<path d="M752.053 446.061C752.638 445.475 752.638 444.525 752.053 443.939L742.507 434.393C741.921 433.808 740.971 433.808 740.385 434.393C739.8 434.979 739.8 435.929 740.385 436.515L748.871 445L740.385 453.485C739.8 454.071 739.8 455.021 740.385 455.607C740.971 456.192 741.921 456.192 742.507 455.607L752.053 446.061ZM0.992004 446.5H750.992V443.5H0.992004V446.5Z" fill="black"/>
<path d="M377.053 64.9393C376.467 64.3535 375.517 64.3535 374.931 64.9393L365.385 74.4853C364.8 75.0711 364.8 76.0208 365.385 76.6066C365.971 77.1924 366.921 77.1924 367.507 76.6066L375.992 68.1213L384.477 76.6066C385.063 77.1924 386.013 77.1924 386.599 76.6066C387.184 76.0208 387.184 75.0711 386.599 74.4853L377.053 64.9393ZM377.492 541L377.492 66H374.492L374.492 541H377.492Z" fill="black"/>
<path d="M766.396 437.359C766.78 435.06 768.258 432.404 770.832 429.392C773.405 426.381 776.581 424.847 780.359 424.793C782.276 424.793 784.028 425.285 785.616 426.271C787.204 427.257 788.381 428.489 789.148 429.967C791.448 426.517 794.213 424.793 797.444 424.793C799.47 424.793 801.222 425.395 802.7 426.6C804.179 427.804 804.945 429.42 805 431.446C805 433.034 804.617 434.32 803.85 435.306C803.084 436.292 802.344 436.894 801.632 437.113C800.921 437.332 800.291 437.441 799.743 437.441C798.703 437.441 797.854 437.14 797.197 436.538C796.54 435.936 796.211 435.142 796.211 434.156C796.211 431.637 797.58 429.912 800.318 428.982C799.716 428.27 798.621 427.914 797.033 427.914C796.321 427.914 795.801 427.969 795.472 428.078C793.392 428.954 791.858 430.761 790.873 433.499C787.587 445.6 785.945 452.664 785.945 454.69C785.945 456.223 786.383 457.318 787.259 457.975C788.135 458.632 789.093 458.961 790.133 458.961C792.159 458.961 794.158 458.057 796.129 456.251C798.101 454.444 799.442 452.226 800.154 449.598C800.318 449.05 800.483 448.749 800.647 448.694C800.811 448.639 801.249 448.585 801.961 448.53H802.29C803.111 448.53 803.522 448.749 803.522 449.187C803.522 449.242 803.467 449.543 803.357 450.09C802.481 453.211 800.784 455.977 798.265 458.386C795.746 460.795 792.817 462 789.476 462C785.643 462 782.741 460.275 780.77 456.825C778.525 460.22 775.951 461.918 773.049 461.918H772.556C769.873 461.918 767.957 461.206 766.807 459.782C765.657 458.359 765.055 456.853 765 455.265C765 453.513 765.52 452.089 766.561 450.994C767.601 449.899 768.833 449.351 770.257 449.351C772.611 449.351 773.789 450.501 773.789 452.801C773.789 453.896 773.46 454.854 772.803 455.676C772.146 456.497 771.516 457.044 770.914 457.318C770.311 457.592 769.956 457.729 769.846 457.729L769.6 457.811C769.6 457.866 769.764 457.975 770.092 458.14C770.421 458.304 770.859 458.496 771.407 458.715C771.954 458.934 772.474 459.016 772.967 458.961C774.938 458.961 776.636 457.729 778.06 455.265C778.552 454.389 779.182 452.527 779.949 449.68C780.715 446.832 781.482 443.875 782.248 440.809C783.015 437.743 783.453 435.936 783.563 435.388C783.836 433.91 783.973 432.842 783.973 432.185C783.973 430.652 783.563 429.556 782.741 428.899C781.92 428.242 780.989 427.914 779.949 427.914C777.758 427.914 775.705 428.79 773.789 430.542C771.872 432.294 770.53 434.539 769.764 437.277C769.654 437.77 769.517 438.044 769.353 438.099C769.189 438.153 768.751 438.208 768.039 438.263H766.889C766.561 437.934 766.396 437.633 766.396 437.359Z" fill="black"/>
<path d="M357 13.5902C357 12.8047 357.421 11.458 358.262 9.55024C359.104 7.64247 360.451 5.65053 362.302 3.57443C364.154 1.49833 366.23 0.488339 368.531 0.54445C370.831 0.54445 372.683 1.18972 374.086 2.48027C375.489 3.77082 376.218 5.56637 376.274 7.86691C376.162 8.93302 376.078 9.52218 376.022 9.6344C376.022 9.80274 375.573 11.0933 374.675 13.506C373.777 15.9188 372.851 18.6402 371.897 21.6702C370.944 24.7002 370.495 27.1129 370.551 28.9085C370.551 31.3212 370.944 33.0046 371.729 33.9584C372.515 34.9123 373.693 35.4173 375.264 35.4734C376.555 35.4734 377.761 35.1648 378.883 34.5476C380.005 33.9304 380.875 33.2851 381.492 32.6118C382.11 31.9385 382.867 31.0126 383.765 29.8343C383.765 29.7782 383.905 29.2171 384.186 28.151C384.466 27.0849 384.859 25.4296 385.364 23.1852C385.869 20.9407 386.402 18.8646 386.963 16.9569C389.095 8.54024 390.274 4.13554 390.498 3.74277C391.228 2.22777 392.434 1.47028 394.117 1.47028C394.847 1.47028 395.436 1.66667 395.885 2.05944C396.334 2.45222 396.642 2.78888 396.811 3.06944C396.979 3.34999 397.035 3.60249 396.979 3.82693C396.979 4.55637 395.604 10.448 392.855 21.5018C390.105 32.5557 388.534 38.6156 388.142 39.6817C386.57 44.3389 383.849 48.0423 379.977 50.7917C376.106 53.5411 372.234 54.9439 368.362 55C365.837 55 363.621 54.3828 361.713 53.1483C359.806 51.9139 358.852 50.0622 358.852 47.5934C358.852 46.3589 359.048 45.3209 359.441 44.4792C359.834 43.6376 360.367 43.0203 361.04 42.6276C361.713 42.2348 362.274 41.9542 362.723 41.7859C363.172 41.6176 363.649 41.5334 364.154 41.5334C366.623 41.5334 367.857 42.7117 367.857 45.0684C367.857 46.1906 367.521 47.1725 366.847 48.0142C366.174 48.8559 365.529 49.417 364.912 49.6975C364.294 49.9781 363.93 50.1184 363.817 50.1184L363.565 50.2025C363.677 50.4831 364.21 50.8197 365.164 51.2125C366.118 51.6053 367.072 51.8017 368.026 51.8017H368.699C369.653 51.8017 370.382 51.7456 370.887 51.6334C372.739 51.1284 374.45 50.0622 376.022 48.435C377.593 46.8078 378.799 45.0684 379.641 43.2167C380.482 41.3651 381.128 39.794 381.577 38.5034C382.025 37.2129 382.25 36.3712 382.25 35.9784L381.745 36.3151C381.408 36.5395 380.875 36.8482 380.146 37.2409C379.416 37.6337 378.687 37.9704 377.957 38.2509C376.835 38.5315 375.741 38.6718 374.675 38.6718C372.094 38.6718 369.821 38.0545 367.857 36.8201C365.894 35.5857 364.603 33.5937 363.986 30.8443C363.93 30.4515 363.902 29.5818 363.902 28.2351C363.902 25.0368 364.884 20.8566 366.847 15.6944C368.811 10.5322 369.793 7.24969 369.793 5.84692C369.793 5.79081 369.793 5.7347 369.793 5.67859C369.793 5.17359 369.793 4.83693 369.793 4.6686C369.793 4.50026 369.681 4.30387 369.457 4.07943C369.232 3.85499 368.924 3.74277 368.531 3.74277H368.194C366.904 3.74277 365.725 4.27582 364.659 5.34193C363.593 6.40803 362.751 7.5583 362.134 8.79274C361.517 10.0272 361.04 11.2055 360.703 12.3277C360.367 13.4499 360.142 14.0672 360.03 14.1794C359.918 14.2916 359.469 14.3477 358.683 14.3477H357.505C357.168 14.011 357 13.7585 357 13.5902Z" fill="black"/>
</svg>
