<svg width="200" height="26" viewBox="0 0 200 26" fill="none" xmlns="http://www.w3.org/2000/svg">
<path d="M0 15.1779C0 13.4545 0.648409 11.8164 1.94523 10.2636C3.24204 8.71087 4.70096 7.92595 6.32199 7.90889C7.19222 7.90889 7.96007 8.32694 8.62554 9.16305C8.89856 8.65114 9.29102 8.39519 9.80292 8.39519C10.0247 8.39519 10.221 8.46345 10.3916 8.59995C10.5622 8.73646 10.6476 8.9071 10.6476 9.11186C10.6476 9.33368 10.3319 10.6988 9.70054 13.2071C9.06919 15.7154 8.74499 17.1316 8.72792 17.4559C8.72792 17.8824 8.78765 18.164 8.90709 18.3005C9.02653 18.437 9.2057 18.5138 9.44459 18.5308C9.59816 18.5138 9.76879 18.437 9.95649 18.3005C10.3148 17.9592 10.6646 17.1402 11.0059 15.8434C11.1083 15.5021 11.1936 15.3229 11.2618 15.3059C11.296 15.2888 11.3813 15.2803 11.5178 15.2803H11.6202C11.9444 15.2803 12.1065 15.3571 12.1065 15.5106C12.1065 15.613 12.0638 15.8434 11.9785 16.2017C11.8932 16.56 11.7225 17.0207 11.4666 17.5838C11.2106 18.1469 10.9376 18.5735 10.6476 18.8636C10.4257 19.0854 10.1527 19.2646 9.82851 19.4011C9.69201 19.4352 9.48725 19.4523 9.21423 19.4523C8.63408 19.4523 8.14777 19.3243 7.75531 19.0683C7.36285 18.8124 7.1069 18.5479 6.98746 18.2749L6.83389 17.891C6.81682 17.8739 6.7827 17.8824 6.73151 17.9166C6.69738 17.9507 6.66325 17.9848 6.62913 18.0189C5.62239 18.9745 4.59858 19.4523 3.55772 19.4523C2.61923 19.4523 1.79166 19.111 1.07499 18.4285C0.358331 17.7459 0 16.6624 0 15.1779ZM8.13924 10.8011C8.13924 10.6988 8.09658 10.5111 8.01126 10.238C7.92594 9.96503 7.72972 9.66642 7.42257 9.34221C7.11543 9.01801 6.72298 8.84737 6.2452 8.83031C5.64798 8.83031 5.07636 9.09479 4.53033 9.62376C3.9843 10.1527 3.55772 10.8438 3.25058 11.697C2.75574 13.045 2.40594 14.4442 2.20118 15.8946C2.20118 15.9457 2.20118 16.0396 2.20118 16.1761C2.20118 16.3126 2.19265 16.415 2.17558 16.4832C2.17558 17.2511 2.32915 17.7801 2.63629 18.0701C2.94343 18.3602 3.3103 18.5138 3.73688 18.5308C4.38529 18.5308 5.02517 18.2493 5.65651 17.6862C6.28786 17.1231 6.66325 16.688 6.7827 16.3809C6.81682 16.3126 7.04718 15.3997 7.47377 13.6422C7.90035 11.8847 8.12217 10.9376 8.13924 10.8011Z" fill="black"/>
<path d="M22.063 1.71488C22.08 1.71488 22.6943 1.67222 23.9058 1.5869C25.1173 1.50158 25.7401 1.45039 25.7742 1.43333C25.979 1.43333 26.0814 1.50158 26.0814 1.63809C26.0814 1.75753 25.4586 4.33411 24.2129 9.36781C22.9673 14.4015 22.3274 16.9695 22.2933 17.0719C22.2592 17.1743 22.2507 17.3023 22.2677 17.4559C22.2677 18.1725 22.5066 18.5308 22.9844 18.5308C23.138 18.5138 23.3086 18.437 23.4963 18.3005C23.8546 17.9592 24.2044 17.1402 24.5457 15.8434C24.6481 15.5021 24.7334 15.3229 24.8016 15.3059C24.8358 15.2888 24.9211 15.2803 25.0576 15.2803H25.16H25.2623C25.5183 15.2803 25.6463 15.3485 25.6463 15.485C25.6463 15.5703 25.6207 15.7069 25.5695 15.8946C25.3477 16.7477 25.0917 17.4388 24.8016 17.9678C24.5116 18.4967 24.2727 18.838 24.085 18.9916C23.8973 19.1451 23.6584 19.2816 23.3683 19.4011C23.2318 19.4352 23.027 19.4523 22.754 19.4523C22.1739 19.4523 21.6876 19.3243 21.2951 19.0683C20.9026 18.8124 20.6467 18.5479 20.5273 18.2749L20.3737 17.891C20.3566 17.8739 20.3225 17.8824 20.2713 17.9166C20.2372 17.9507 20.203 17.9848 20.1689 18.0189C19.1622 18.9745 18.1384 19.4523 17.0975 19.4523C16.159 19.4523 15.3315 19.111 14.6148 18.4285C13.8981 17.7459 13.5398 16.6624 13.5398 15.1779C13.5398 14.3588 13.7104 13.5227 14.0517 12.6696C14.393 11.8164 14.8025 11.0827 15.2803 10.4684C16.0822 9.49578 16.8842 8.82178 17.6862 8.44638C18.4882 8.07099 19.2134 7.88329 19.8618 7.88329C20.8173 7.88329 21.534 8.24162 22.0118 8.95829C22.0971 9.06067 22.1397 9.09479 22.1397 9.06067C22.1568 8.99241 22.3872 8.06246 22.8308 6.2708C23.2745 4.47915 23.5133 3.53213 23.5475 3.42975C23.5475 3.20792 23.4878 3.07142 23.3683 3.02023C23.2489 2.96904 22.9161 2.92638 22.3701 2.89225H21.8326C21.7302 2.78987 21.679 2.72162 21.679 2.68749C21.679 2.65336 21.6961 2.49126 21.7302 2.20118C21.8155 1.87698 21.9265 1.71488 22.063 1.71488ZM21.7046 10.8523C21.3122 9.50431 20.6723 8.83031 19.785 8.83031C19.1878 8.83031 18.6162 9.09479 18.0701 9.62376C17.5241 10.1527 17.0975 10.8438 16.7904 11.697C16.2955 13.045 15.9457 14.4442 15.741 15.8946C15.741 15.9457 15.741 16.0396 15.741 16.1761C15.741 16.3126 15.7324 16.415 15.7154 16.4832C15.7154 17.2511 15.8689 17.7801 16.1761 18.0701C16.4832 18.3602 16.8501 18.5138 17.2767 18.5308C18.1981 18.5308 19.1451 17.9166 20.1177 16.688L20.3225 16.4065L21.7046 10.8523Z" fill="black"/>
<path d="M33.6063 3.94166C33.6063 3.41269 33.7855 3.00317 34.1438 2.71309C34.5022 2.42301 34.869 2.27798 35.2444 2.27798C35.5345 2.27798 35.7734 2.36329 35.9611 2.53393C36.1488 2.70456 36.2682 2.94345 36.3194 3.25059C36.3194 3.72836 36.1573 4.12935 35.8331 4.45356C35.5089 4.77776 35.1335 4.93986 34.7069 4.93986C34.3998 4.93986 34.1438 4.85455 33.9391 4.68391C33.7343 4.51328 33.6234 4.26586 33.6063 3.94166ZM33.376 9.57257C33.376 9.07774 33.1542 8.83032 32.7105 8.83032C32.3351 8.83032 31.9768 8.9327 31.6355 9.13746C31.2942 9.34222 30.9956 9.6067 30.7397 9.93091C30.4837 10.2551 30.279 10.5708 30.1254 10.8779C29.9718 11.1851 29.8268 11.4581 29.6903 11.697L29.5111 12.0553C29.477 12.0724 29.3405 12.0809 29.1016 12.0809H28.7433C28.6409 11.9785 28.5897 11.9103 28.5897 11.8761C28.5897 11.842 28.6238 11.7311 28.6921 11.5434C29.0504 10.7073 29.5538 9.92237 30.2022 9.18865C30.8506 8.45492 31.6014 8.02834 32.4546 7.90889C32.4716 7.90889 32.5399 7.90889 32.6593 7.90889C32.7788 7.90889 32.8811 7.90036 32.9665 7.8833C33.376 7.90036 33.7514 7.98568 34.0926 8.13925C34.5192 8.37814 34.8434 8.64262 35.0653 8.9327C35.2871 9.22278 35.398 9.67496 35.398 10.2892V10.6988L34.1438 15.7922C33.2736 19.2049 32.8129 20.9795 32.7617 21.116C32.4546 21.9691 31.8573 22.7284 30.97 23.3939C30.0827 24.0594 29.0675 24.4007 27.9242 24.4177C27.0711 24.4177 26.4909 24.2386 26.1838 23.8802C25.8766 23.5219 25.7145 23.1294 25.6974 22.7029C25.6974 22.2421 25.8596 21.8497 26.1838 21.5255C26.508 21.2013 26.9004 21.0306 27.3611 21.0136C27.6512 21.0136 27.8986 21.0989 28.1034 21.2695C28.3081 21.4402 28.4191 21.7046 28.4361 22.063C28.4361 22.6773 28.1631 23.1465 27.6171 23.4707C27.7195 23.4878 27.8389 23.4963 27.9754 23.4963C28.5556 23.4963 29.0845 23.2574 29.5623 22.7796C30.0401 22.3019 30.4069 21.7388 30.6629 21.0904L30.9444 20.0154C31.1321 19.2816 31.354 18.3943 31.6099 17.3535C31.8659 16.3126 32.1389 15.2462 32.429 14.1541C32.719 13.062 32.9494 12.115 33.12 11.313C33.2907 10.5111 33.3845 10.0248 33.4016 9.85412C33.4016 9.73468 33.393 9.64083 33.376 9.57257Z" fill="black"/>
<path d="M45.0934 10.3148C45.0934 10.093 45.2129 9.92237 45.4518 9.80293H61.7558C62.0118 9.93943 62.1398 10.1101 62.1398 10.3148C62.1398 10.5025 62.0203 10.6646 61.7814 10.8011L53.6422 10.8267H45.503C45.23 10.7414 45.0934 10.5708 45.0934 10.3148ZM45.0934 15.2803C45.0934 15.0243 45.23 14.8537 45.503 14.7684H61.7814C62.0203 14.939 62.1398 15.1096 62.1398 15.2803C62.1398 15.5021 62.0118 15.6727 61.7558 15.7922H45.4518C45.2129 15.6727 45.0934 15.5021 45.0934 15.2803Z" fill="black"/>
<path d="M74.1899 1.71489C74.207 1.71489 74.8213 1.67223 76.0328 1.58691C77.2443 1.50159 77.8671 1.4504 77.9012 1.43334C78.106 1.43334 78.2084 1.51013 78.2084 1.6637C78.2084 1.85139 77.9012 3.13968 77.287 5.52855C76.6385 8.05394 76.3143 9.34222 76.3143 9.39341C76.3143 9.42754 76.3741 9.38488 76.4935 9.26544C77.5344 8.34401 78.6435 7.8833 79.8209 7.8833C80.7423 7.8833 81.4845 8.11366 82.0476 8.57437C82.6107 9.03508 82.9008 9.70908 82.9179 10.5964C82.9179 11.4666 82.5937 12.8146 81.9453 14.6404C81.2969 16.4662 80.9726 17.5582 80.9726 17.9166C80.9897 18.1555 81.0324 18.3176 81.1006 18.4029C81.1689 18.4882 81.2969 18.5309 81.4845 18.5309C81.9623 18.5309 82.406 18.2749 82.8155 17.763C83.225 17.2511 83.5578 16.5515 83.8137 15.6642C83.8649 15.4765 83.9161 15.3656 83.9673 15.3315C84.0185 15.2973 84.155 15.2803 84.3768 15.2803C84.7181 15.2803 84.8887 15.3485 84.8887 15.485C84.8887 15.5021 84.8546 15.6301 84.7863 15.869C84.5133 16.8757 84.0782 17.7033 83.481 18.3517C82.9008 19.0854 82.2097 19.4523 81.4078 19.4523H81.2798C80.4778 19.4523 79.8977 19.2219 79.5393 18.7612C79.181 18.3005 79.0018 17.8142 79.0018 17.3023C79.0018 17.0293 79.309 16.0225 79.9232 14.2821C80.5375 12.5416 80.8532 11.2363 80.8703 10.366C80.8703 9.35928 80.4949 8.85591 79.7441 8.85591H79.6161C78.1998 8.85591 76.9713 9.69202 75.9304 11.3642L75.7513 11.697L74.881 15.1523C74.335 17.3705 74.0193 18.582 73.934 18.7868C73.7122 19.2475 73.3368 19.4779 72.8078 19.4779C72.5689 19.4779 72.3642 19.4011 72.1935 19.2475C72.0229 19.0939 71.9291 18.9404 71.912 18.7868C71.912 18.5479 72.5348 15.9543 73.7804 11.0059L75.6745 3.42976C75.6745 3.20793 75.6147 3.07143 75.4953 3.02024C75.3759 2.96905 75.0431 2.92639 74.4971 2.89226H73.9596C73.8572 2.78988 73.806 2.72163 73.806 2.6875C73.806 2.65337 73.8231 2.49127 73.8572 2.20119C73.9425 1.87699 74.0534 1.71489 74.1899 1.71489Z" fill="black"/>
<path d="M85.9637 11.8505C85.9637 11.6117 86.0917 11.2021 86.3476 10.622C86.6036 10.0418 87.0131 9.43608 87.5762 8.80473C88.1393 8.17339 88.7706 7.86625 89.4702 7.88331C90.1698 7.88331 90.7329 8.07954 91.1595 8.472C91.5861 8.86445 91.8079 9.41048 91.825 10.1101C91.7908 10.4343 91.7652 10.6135 91.7482 10.6476C91.7482 10.6988 91.6117 11.0912 91.3387 11.825C91.0656 12.5587 90.7841 13.3863 90.494 14.3077C90.2039 15.2291 90.0674 15.9628 90.0845 16.5089C90.0845 17.2426 90.2039 17.7545 90.4428 18.0446C90.6817 18.3346 91.04 18.4882 91.5178 18.5053C91.9103 18.5053 92.2771 18.4114 92.6184 18.2237C92.9597 18.036 93.2242 17.8398 93.4119 17.635C93.5996 17.4303 93.8299 17.1487 94.1029 16.7904C94.1029 16.7733 94.1456 16.6027 94.2309 16.2785C94.3162 15.9543 94.4357 15.4509 94.5892 14.7684C94.7428 14.0859 94.9049 13.4545 95.0755 12.8744C95.7239 10.3148 96.0823 8.97537 96.1505 8.85592C96.3724 8.39521 96.7392 8.16485 97.2511 8.16485C97.4729 8.16485 97.6521 8.22458 97.7886 8.34402C97.9251 8.46346 98.019 8.56584 98.0702 8.65116C98.1214 8.73648 98.1384 8.81326 98.1214 8.88152C98.1214 9.10334 97.7033 10.895 96.8672 14.2565C96.0311 17.618 95.5533 19.4608 95.4339 19.785C94.9561 21.2013 94.1285 22.3275 92.9511 23.1636C91.7738 23.9997 90.5964 24.4263 89.419 24.4433C88.6512 24.4433 87.9772 24.2556 87.397 23.8802C86.8169 23.5048 86.5268 22.9418 86.5268 22.191C86.5268 21.8156 86.5865 21.4999 86.7059 21.2439C86.8254 20.988 86.9875 20.8003 87.1922 20.6809C87.397 20.5614 87.5676 20.4761 87.7042 20.4249C87.8407 20.3737 87.9857 20.3481 88.1393 20.3481C88.8901 20.3481 89.2655 20.7064 89.2655 21.4231C89.2655 21.7644 89.1631 22.063 88.9583 22.3189C88.7535 22.5749 88.5573 22.7455 88.3696 22.8308C88.1819 22.9162 88.071 22.9588 88.0369 22.9588L87.9601 22.9844C87.9942 23.0697 88.1563 23.1721 88.4464 23.2916C88.7365 23.411 89.0266 23.4707 89.3166 23.4707H89.5214C89.8115 23.4707 90.0333 23.4537 90.1869 23.4195C90.75 23.266 91.2704 22.9418 91.7482 22.4469C92.2259 21.9521 92.5928 21.4231 92.8488 20.86C93.1047 20.2969 93.3009 19.8192 93.4374 19.4267C93.574 19.0342 93.6422 18.7783 93.6422 18.6588L93.4886 18.7612C93.3863 18.8295 93.2242 18.9233 93.0023 19.0428C92.7805 19.1622 92.5587 19.2646 92.3369 19.3499C91.9956 19.4352 91.6629 19.4779 91.3387 19.4779C90.5537 19.4779 89.8627 19.2902 89.2655 18.9148C88.6682 18.5394 88.2758 17.9336 88.0881 17.0975C88.071 16.9781 88.0625 16.7136 88.0625 16.3041C88.0625 15.3315 88.3611 14.0603 88.9583 12.4904C89.5555 10.9206 89.8541 9.92238 89.8541 9.4958C89.8541 9.47874 89.8541 9.46167 89.8541 9.44461C89.8541 9.29104 89.8541 9.18866 89.8541 9.13747C89.8541 9.08628 89.82 9.02656 89.7518 8.9583C89.6835 8.89005 89.5897 8.85592 89.4702 8.85592H89.3678C88.9754 8.85592 88.617 9.01802 88.2928 9.34223C87.9686 9.66643 87.7127 10.0162 87.525 10.3916C87.3373 10.767 87.1922 11.1254 87.0899 11.4666C86.9875 11.8079 86.9192 11.9956 86.8851 12.0297C86.851 12.0638 86.7145 12.0809 86.4756 12.0809H86.1173C86.0149 11.9785 85.9637 11.9017 85.9637 11.8505Z" fill="black"/>
<path d="M98.5564 11.8505C98.5735 11.7993 98.5906 11.7311 98.6076 11.6458C98.6247 11.5605 98.6674 11.3728 98.7356 11.0827C98.8039 10.7926 98.8892 10.5281 98.9916 10.2892C99.0939 10.0503 99.2219 9.7688 99.3755 9.4446C99.5291 9.12039 99.6997 8.86444 99.8874 8.67675C100.075 8.48905 100.297 8.30135 100.553 8.11365C100.809 7.92596 101.09 7.84917 101.397 7.8833C102.677 7.8833 103.496 8.42933 103.855 9.52138L104.111 9.29103C105.169 8.35254 106.175 7.8833 107.131 7.8833C108.24 7.8833 109.11 8.28429 109.741 9.08627C110.373 9.88825 110.689 10.8609 110.689 12.0041C110.689 13.847 110.04 15.5448 108.743 17.0975C107.446 18.6503 105.979 19.4352 104.341 19.4523C103.966 19.4523 103.633 19.4011 103.343 19.2987C103.155 19.2134 102.959 19.0854 102.754 18.9148C102.549 18.7441 102.387 18.5991 102.268 18.4797L102.089 18.2749C102.071 18.292 101.884 19.0342 101.525 20.5017C101.167 21.9691 100.988 22.7114 100.988 22.7284C100.988 22.8308 101.056 22.8906 101.193 22.9076C101.329 22.9247 101.645 22.9503 102.14 22.9844H102.78C102.882 23.1038 102.933 23.1806 102.933 23.2148C102.933 23.2489 102.908 23.4025 102.856 23.6755C102.805 23.8802 102.754 24.0082 102.703 24.0594C102.652 24.1106 102.541 24.1447 102.37 24.1618C102.336 24.1618 102.242 24.1618 102.089 24.1618C101.935 24.1618 101.645 24.1532 101.218 24.1362C100.792 24.1191 100.263 24.1106 99.6314 24.1106C98.437 24.1106 97.6777 24.1276 97.3535 24.1618H97.1487C97.0293 24.0423 96.9695 23.9485 96.9695 23.8802C97.0037 23.4195 97.1146 23.1209 97.3023 22.9844H97.8142C98.3943 22.9673 98.7271 22.865 98.8124 22.6773C98.8636 22.5749 99.384 20.5358 100.374 16.56C101.363 12.5843 101.884 10.4769 101.935 10.238C101.952 10.1527 101.961 10.0333 101.961 9.87971C101.961 9.18012 101.747 8.83032 101.321 8.83032C100.945 8.83032 100.63 9.0692 100.374 9.54698C100.118 10.0248 99.9215 10.5452 99.785 11.1083C99.6485 11.6714 99.5461 11.9785 99.4779 12.0297C99.4437 12.0638 99.3072 12.0809 99.0683 12.0809H98.71C98.6076 11.9785 98.5564 11.9017 98.5564 11.8505ZM102.524 16.5856C102.899 17.8824 103.53 18.5309 104.418 18.5309C104.93 18.5309 105.424 18.3346 105.902 17.9422C106.38 17.5497 106.772 17.0549 107.08 16.4577C107.387 15.8775 107.694 14.9561 108.001 13.6934C108.308 12.4307 108.47 11.4922 108.487 10.8779V10.7244C108.487 9.46166 107.967 8.83032 106.926 8.83032C106.738 8.83032 106.551 8.85591 106.363 8.9071C106.175 8.95829 105.988 9.03508 105.8 9.13746C105.612 9.23984 105.442 9.35075 105.288 9.47019C105.134 9.58964 104.989 9.71761 104.853 9.85412C104.716 9.99063 104.588 10.1186 104.469 10.238C104.349 10.3575 104.256 10.4769 104.187 10.5964C104.119 10.7158 104.051 10.8011 103.983 10.8523L103.906 10.9547C103.906 10.9718 103.88 11.0912 103.829 11.313C103.778 11.5349 103.684 11.9103 103.547 12.4392C103.411 12.9682 103.292 13.4118 103.189 13.7702C102.746 15.5789 102.524 16.5174 102.524 16.5856Z" fill="black"/>
<path d="M122.391 11.8761C122.169 9.58965 122.058 8.30989 122.058 8.03688C122.058 7.72974 122.263 7.49085 122.672 7.32021C122.689 7.32021 122.732 7.32021 122.8 7.32021C122.868 7.32021 122.92 7.31168 122.954 7.29462C123.158 7.31168 123.346 7.38847 123.517 7.52498C123.687 7.66148 123.773 7.83212 123.773 8.03688C123.773 8.32695 123.721 9.00949 123.619 10.0845C123.517 11.1595 123.457 11.7567 123.44 11.8761L124.924 10.8011C125.88 10.1015 126.4 9.72615 126.486 9.67496C126.571 9.62377 126.656 9.59818 126.742 9.59818C126.964 9.59818 127.168 9.68349 127.356 9.85413C127.544 10.0248 127.646 10.2551 127.663 10.5452C127.663 10.767 127.578 10.9632 127.407 11.1339C127.322 11.1851 126.742 11.4666 125.667 11.9785C124.592 12.4904 124.012 12.7634 123.926 12.7976L125.616 13.591L127.407 14.4868C127.561 14.6404 127.638 14.8366 127.638 15.0755C127.638 15.3315 127.561 15.5448 127.407 15.7154C127.254 15.886 127.049 15.9799 126.793 15.9969C126.656 15.9969 126.503 15.9458 126.332 15.8434C126.162 15.741 125.692 15.3997 124.924 14.8196L123.44 13.7446C123.662 16.0311 123.773 17.3108 123.773 17.5838C123.773 17.7545 123.713 17.9166 123.594 18.0702C123.474 18.2237 123.252 18.3005 122.928 18.3005C122.604 18.3005 122.382 18.2237 122.263 18.0702C122.143 17.9166 122.075 17.7545 122.058 17.5838C122.058 17.2938 122.109 16.6112 122.211 15.5362C122.314 14.4612 122.373 13.864 122.391 13.7446L120.906 14.8196C119.95 15.5192 119.43 15.8946 119.345 15.9458C119.276 15.9969 119.191 16.0225 119.089 16.0225C118.867 16.0225 118.662 15.9372 118.474 15.7666C118.287 15.596 118.184 15.3656 118.167 15.0755C118.167 14.9902 118.167 14.922 118.167 14.8708C118.167 14.8196 118.193 14.7684 118.244 14.7172C118.295 14.666 118.338 14.6148 118.372 14.5636C118.406 14.5124 118.483 14.4527 118.602 14.3845C118.722 14.3162 118.833 14.2565 118.935 14.2053C119.038 14.1541 119.2 14.0773 119.422 13.9749C119.643 13.8726 119.857 13.7787 120.061 13.6934C120.266 13.6081 120.539 13.4801 120.88 13.3095C121.222 13.1388 121.563 12.9682 121.904 12.7976L118.423 11.1339C118.27 10.9803 118.193 10.7841 118.193 10.5452C118.193 10.2892 118.27 10.076 118.423 9.90532C118.577 9.73468 118.782 9.64084 119.038 9.62377C119.174 9.62377 119.328 9.67496 119.498 9.77734C119.669 9.87972 120.138 10.221 120.906 10.8011L122.391 11.8761Z" fill="black"/>
<path d="M135.884 15.1267C135.884 13.2668 136.618 11.5946 138.085 10.1101C139.553 8.62554 141.14 7.88328 142.846 7.88328C143.802 7.88328 144.552 8.08804 145.099 8.49756C145.645 8.90708 145.926 9.44458 145.943 10.1101C145.943 10.6049 145.781 11.0229 145.457 11.3642C145.133 11.7055 144.723 11.8846 144.228 11.9017C143.904 11.9017 143.648 11.8164 143.46 11.6458C143.273 11.4751 143.179 11.2192 143.179 10.8779C143.179 10.5366 143.273 10.2466 143.46 10.0077C143.648 9.76879 143.836 9.58962 144.024 9.47018C144.211 9.35073 144.331 9.29954 144.382 9.31661H144.407C144.407 9.28248 144.356 9.23129 144.254 9.16304C144.151 9.09478 143.972 9.02653 143.716 8.95827C143.46 8.89002 143.17 8.85589 142.846 8.85589C142.334 8.85589 141.848 8.97534 141.387 9.21423C141.029 9.3678 140.662 9.63228 140.287 10.0077C139.536 10.7585 138.99 11.8164 138.649 13.1815C138.307 14.5465 138.128 15.5362 138.111 16.1505C138.111 16.9354 138.333 17.5241 138.777 17.9166C139.152 18.3261 139.647 18.5308 140.261 18.5308H140.363C142.275 18.5308 143.853 17.8056 145.099 16.3553C145.252 16.1846 145.354 16.0993 145.406 16.0993C145.474 16.0993 145.585 16.1761 145.738 16.3297C145.892 16.4832 145.977 16.6027 145.994 16.688C146.011 16.7733 145.935 16.9013 145.764 17.0719C145.593 17.2426 145.346 17.4814 145.022 17.7886C144.698 18.0957 144.314 18.3517 143.87 18.5564C143.426 18.7612 142.88 18.9745 142.232 19.1963C141.583 19.4181 140.901 19.512 140.184 19.4779C138.904 19.4779 137.872 19.0683 137.087 18.2493C136.302 17.4302 135.901 16.3894 135.884 15.1267Z" fill="black"/>
<path d="M151.241 19.4779C149.962 19.4779 148.929 19.0598 148.144 18.2237C147.359 17.3876 146.967 16.3809 146.967 15.2035C146.967 14.0944 147.223 13.045 147.735 12.0553C148.247 11.0656 148.946 10.2039 149.834 9.4702C151.13 8.42933 152.453 7.9089 153.801 7.9089C154.347 7.9089 154.688 7.91743 154.825 7.93449C155.046 7.98568 155.268 8.0454 155.49 8.11366C155.712 8.18191 156.011 8.31842 156.386 8.52318C156.761 8.72794 157.069 8.98389 157.307 9.29103C157.546 9.59817 157.768 10.0162 157.973 10.5452C158.178 11.0742 158.28 11.6714 158.28 12.3368C158.28 14.1626 157.546 15.8092 156.079 17.2767C154.611 18.7441 152.999 19.4779 151.241 19.4779ZM149.194 16.1249C149.194 16.9781 149.416 17.5924 149.859 17.9678C150.303 18.3432 150.806 18.5309 151.369 18.5309C152.12 18.5309 152.828 18.2578 153.494 17.7118C154.159 17.1658 154.688 16.4491 155.081 15.5618C155.234 15.2035 155.43 14.5722 155.669 13.6678C155.908 12.7634 156.028 11.9785 156.028 11.313C156.028 10.5623 155.874 9.99063 155.567 9.59817C155.157 9.08627 154.611 8.83032 153.929 8.83032C152.854 8.83032 151.907 9.32516 151.088 10.3148C150.456 11.0656 149.987 12.0638 149.68 13.3095C149.373 14.5551 149.211 15.4936 149.194 16.1249Z" fill="black"/>
<path d="M161.863 11.7993C161.863 11.2533 162 10.6988 162.273 10.1357C162.546 9.57257 163.024 9.05213 163.706 8.57436C164.389 8.09658 165.216 7.86623 166.189 7.88329C167.247 7.88329 168.015 8.11365 168.492 8.57436C168.97 9.03507 169.218 9.54697 169.235 10.1101C169.235 10.6561 169.09 11.0571 168.8 11.313C168.509 11.569 168.185 11.7055 167.827 11.7226C167.605 11.7226 167.4 11.6543 167.213 11.5178C167.025 11.3813 166.923 11.1595 166.906 10.8523C166.906 10.5793 166.982 10.3404 167.136 10.1357C167.289 9.9309 167.434 9.77733 167.571 9.67495C167.708 9.57257 167.818 9.52138 167.904 9.52138C167.921 9.52138 167.929 9.51285 167.929 9.49578C167.929 9.44459 167.87 9.36781 167.75 9.26543C167.631 9.16305 167.417 9.0692 167.11 8.98388C166.803 8.89856 166.47 8.84737 166.112 8.83031C165.293 8.83031 164.696 9.05213 164.32 9.49578C163.945 9.93943 163.749 10.3916 163.732 10.8523C163.732 11.2789 163.894 11.5775 164.218 11.7482C164.542 11.9188 165.011 12.0638 165.626 12.1833C166.24 12.3027 166.684 12.4307 166.957 12.5672C168.083 13.062 168.646 13.8811 168.646 15.0243C168.646 15.5021 168.552 15.9799 168.364 16.4576C168.177 16.9354 167.895 17.4132 167.52 17.891C167.144 18.3687 166.607 18.7441 165.907 19.0172C165.208 19.2902 164.406 19.4352 163.501 19.4523C162.188 19.4523 161.258 19.2049 160.712 18.71C160.165 18.2152 159.884 17.635 159.867 16.9695C159.867 16.3041 160.046 15.8263 160.404 15.5362C160.763 15.2461 161.138 15.1011 161.531 15.1011C161.787 15.1011 162.025 15.1779 162.247 15.3315C162.469 15.485 162.588 15.7495 162.606 16.1249C162.606 16.5686 162.452 16.944 162.145 17.2511C161.838 17.5582 161.573 17.7118 161.351 17.7118C161.317 17.7289 161.292 17.7374 161.275 17.7374C161.258 17.7374 161.249 17.7545 161.249 17.7886C161.266 17.8398 161.334 17.908 161.454 17.9934C161.573 18.0787 161.838 18.1896 162.247 18.3261C162.657 18.4626 163.126 18.5223 163.655 18.5053C164.269 18.5053 164.798 18.4114 165.242 18.2237C165.685 18.036 166.01 17.7971 166.214 17.507C166.419 17.217 166.564 16.9525 166.65 16.7136C166.735 16.4747 166.778 16.2614 166.778 16.0737C166.778 15.5959 166.598 15.2376 166.24 14.9987C165.882 14.7598 165.472 14.6148 165.011 14.5636C164.551 14.5124 164.047 14.3844 163.501 14.1797C162.955 13.9749 162.554 13.6763 162.298 13.2839C162.008 12.8573 161.863 12.3624 161.863 11.7993Z" fill="black"/>
<path d="M172.92 12.7975C172.92 11.6202 173.006 10.5025 173.176 9.44459C173.347 8.38666 173.543 7.47377 173.765 6.70592C173.987 5.93807 174.303 5.18728 174.712 4.45355C175.122 3.71982 175.446 3.1482 175.685 2.73868C175.924 2.32916 176.282 1.88551 176.76 1.40774C177.237 0.92996 177.519 0.639882 177.604 0.537502C177.69 0.435122 177.903 0.255956 178.244 5.21541e-06H178.577H178.679C178.918 5.21541e-06 179.038 0.0767905 179.038 0.230361C179.038 0.281551 178.893 0.460717 178.603 0.767858C178.312 1.075 177.963 1.52718 177.553 2.1244C177.144 2.72162 176.726 3.45534 176.299 4.32558C175.872 5.19581 175.514 6.37318 175.224 7.8577C174.934 9.34221 174.789 10.9888 174.789 12.7975C174.789 14.6063 174.934 16.2444 175.224 17.7118C175.514 19.1793 175.864 20.3652 176.273 21.2695C176.683 22.1739 177.101 22.9076 177.528 23.4707C177.954 24.0338 178.312 24.486 178.603 24.8272C178.893 25.1685 179.038 25.3477 179.038 25.3647C179.038 25.5183 178.91 25.5951 178.654 25.5951H178.577H178.244L177.528 24.9808C175.924 23.5304 174.755 21.7217 174.021 19.5547C173.287 17.3876 172.92 15.1352 172.92 12.7975Z" fill="black"/>
<path d="M181.367 14.0773C181.367 12.3368 181.699 10.5025 182.365 8.57436C183.03 6.6462 183.935 4.98252 185.078 3.58332C186.221 2.18412 187.407 1.38214 188.636 1.17738C188.653 1.17738 188.721 1.17738 188.841 1.17738C188.96 1.17738 189.062 1.16885 189.148 1.15178C190.069 1.22004 190.786 1.63809 191.298 2.40594C191.963 3.42975 192.296 4.80335 192.296 6.52675C192.296 8.48904 191.912 10.4855 191.144 12.516C190.376 14.5465 189.395 16.2102 188.201 17.507C187.006 18.8039 185.863 19.4523 184.771 19.4523H184.592C183.977 19.4523 183.448 19.2816 183.005 18.9404C182.561 18.5991 182.228 18.1469 182.007 17.5838C181.785 17.0207 181.623 16.4491 181.52 15.869C181.418 15.2888 181.367 14.6916 181.367 14.0773ZM190.274 4.7095C190.274 2.96904 189.822 2.0988 188.917 2.0988C188.303 2.0988 187.706 2.48273 187.126 3.25058C186.545 4.01843 186.068 4.88867 185.692 5.86128C185.317 6.83389 185.027 7.68706 184.822 8.42079C184.617 9.15451 184.506 9.5811 184.489 9.70054C185.325 9.71761 186.153 9.72614 186.972 9.72614L189.455 9.70054C189.472 9.68348 189.54 9.40193 189.66 8.85591C189.779 8.30988 189.916 7.62734 190.069 6.8083C190.223 5.98926 190.291 5.28966 190.274 4.7095ZM183.363 15.8178C183.363 17.6265 183.815 18.5308 184.72 18.5308C184.976 18.5308 185.249 18.4455 185.539 18.2749C185.829 18.1043 186.179 17.7801 186.588 17.3023C186.998 16.8245 187.407 16.0823 187.817 15.0755C188.226 14.0688 188.636 12.8231 189.045 11.3386L189.173 10.9035H184.182C184.182 10.9547 184.105 11.2789 183.952 11.8761C183.798 12.4733 183.662 13.1388 183.542 13.8725C183.423 14.6063 183.363 15.2547 183.363 15.8178Z" fill="black"/>
<path d="M194.011 0.0256003L194.113 5.21541e-06C194.198 5.21541e-06 194.284 5.21541e-06 194.369 5.21541e-06H194.676L195.393 0.614287C196.997 2.06468 198.166 3.8734 198.899 6.04045C199.633 8.2075 200 10.4599 200 12.7975C200 13.9579 199.915 15.0755 199.744 16.1505C199.573 17.2255 199.377 18.1384 199.155 18.8892C198.934 19.64 198.618 20.3908 198.208 21.1415C197.799 21.8923 197.475 22.464 197.236 22.8564C196.997 23.2489 196.647 23.684 196.186 24.1618C195.726 24.6395 195.453 24.9211 195.367 25.0064C195.282 25.0917 195.086 25.2538 194.779 25.4927C194.727 25.5439 194.693 25.578 194.676 25.5951H194.369C194.233 25.5951 194.139 25.5951 194.088 25.5951C194.036 25.5951 193.994 25.5695 193.96 25.5183C193.925 25.4671 193.9 25.3903 193.883 25.288C193.9 25.2709 193.994 25.16 194.164 24.9552C196.809 22.208 198.132 18.1555 198.132 12.7975C198.132 7.43964 196.809 3.38709 194.164 0.639882C193.994 0.435122 193.9 0.32421 193.883 0.307146C193.883 0.170639 193.925 0.0767905 194.011 0.0256003Z" fill="black"/>
</svg>
