<svg width="70" height="60" viewBox="0 0 70 60" fill="none" xmlns="http://www.w3.org/2000/svg">
<path d="M1.21298 48.671C0.404327 48.671 0 48.4331 0 47.9575C0 47.8623 0.0713518 47.5293 0.214056 46.9585C0.404327 46.1974 0.594599 45.7693 0.78487 45.6742C0.975142 45.5791 1.52217 45.5077 2.42596 45.4601C3.7103 45.4601 5.13733 45.3888 6.70707 45.2461C7.37302 45.1034 7.82492 44.818 8.06276 44.3899C8.15789 44.152 9.84655 37.4687 13.1287 24.34C16.4109 11.2113 18.0758 4.55176 18.1234 4.36148C18.1234 4.02851 18.0282 3.86202 17.838 3.86202C17.4574 3.71932 16.1969 3.6004 14.0563 3.50526H11.8444C11.559 3.21985 11.4163 3.02958 11.4163 2.93445C11.4163 2.83931 11.4639 2.43498 11.559 1.72147C11.7493 0.912812 11.9871 0.41335 12.2725 0.223078H50.7312C51.0641 0.41335 51.2306 0.674973 51.2306 1.00795C51.2306 1.24579 50.9214 3.90959 50.303 8.99935C49.6847 14.0891 49.3517 16.7054 49.3041 16.8481C49.209 17.181 48.7333 17.3475 47.8771 17.3475H47.0209C46.6879 17.1097 46.5214 16.8005 46.5214 16.4199C46.5214 16.3724 46.5928 15.8016 46.7355 14.7075C46.8782 13.6134 46.9495 12.3529 46.9495 10.9259C46.9495 9.49882 46.783 8.3334 46.45 7.42961C46.1171 6.52582 45.6652 5.78852 45.0944 5.21771C44.5235 4.64689 43.6435 4.26635 42.4543 4.07608C41.2651 3.88581 40.0522 3.71932 38.8154 3.57661C37.5786 3.43391 35.8662 3.41013 33.6781 3.50526H32.037C28.1364 3.55283 26.0672 3.62418 25.8294 3.71932C25.5915 3.81445 25.425 4.00473 25.3299 4.29013C25.2823 4.3377 24.4737 7.4534 22.9039 13.6372L20.6207 22.8416H24.545C24.6877 22.8416 25.2348 22.8416 26.1861 22.8416C27.1375 22.8416 27.8034 22.8178 28.184 22.7703C28.5645 22.7227 29.0878 22.6513 29.7537 22.5562C30.4197 22.4611 30.9905 22.2946 31.4662 22.0567C31.9418 21.8189 32.3462 21.5335 32.6791 21.2005C33.2975 20.6297 33.8208 19.8448 34.2489 18.8459C34.677 17.847 34.9862 16.9432 35.1765 16.1345C35.3667 15.3259 35.4856 14.8978 35.5332 14.8502C35.6759 14.6124 36.1278 14.4934 36.8889 14.4934H37.7451C38.0781 14.7313 38.2446 14.9691 38.2446 15.207C38.2446 15.3497 37.5073 18.4654 36.0327 24.5541C34.5581 30.6427 33.7494 33.7822 33.6067 33.9725C33.5116 34.3055 33.0359 34.472 32.1797 34.472H31.3235C30.9905 34.1866 30.824 33.9011 30.824 33.6157C30.824 33.473 30.9429 32.9498 31.1808 32.046C31.4186 31.1422 31.5375 30.1908 31.5375 29.1919C31.5375 27.8125 31.0618 26.9562 30.1105 26.6233C29.1591 26.2903 27.0423 26.1238 23.7602 26.1238H19.8358L17.5526 35.1855C16.0304 41.0839 15.2693 44.1758 15.2693 44.4612C15.2693 45.1272 17.3861 45.4601 21.6196 45.4601H23.4034C23.6888 45.7455 23.8315 45.912 23.8315 45.9596C23.8315 46.0072 23.7839 46.4829 23.6888 47.3866C23.4985 48.005 23.2607 48.4569 22.9753 48.7423H21.7623C19.812 48.6472 16.2207 48.5996 10.9882 48.5996C7.89627 48.5996 5.54166 48.5996 3.92435 48.5996C2.30704 48.5996 1.40325 48.6234 1.21298 48.671Z" fill="black"/>
<path d="M46.2905 44.8663C46.5259 43.4538 47.4339 41.8227 49.0146 39.973C50.5952 38.1234 52.5458 37.1817 54.8663 37.1481C56.0433 37.1481 57.1195 37.4508 58.0948 38.0561C59.0701 38.6614 59.7931 39.4181 60.264 40.3262C61.6765 38.2074 63.3748 37.1481 65.359 37.1481C66.6033 37.1481 67.6795 37.518 68.5875 38.2579C69.4955 38.9978 69.9664 39.9899 70 41.2342C70 42.2095 69.7646 42.9998 69.2938 43.6051C68.8229 44.2105 68.3689 44.5804 67.9317 44.7149C67.4945 44.8495 67.1078 44.9167 66.7715 44.9167C66.1325 44.9167 65.6112 44.7318 65.2077 44.3618C64.8041 43.9919 64.6023 43.5042 64.6023 42.8989C64.6023 41.3519 65.4431 40.2925 67.1246 39.7208C66.7547 39.2836 66.082 39.065 65.1068 39.065C64.6696 39.065 64.3501 39.0986 64.1483 39.1659C62.8703 39.704 61.9287 40.8138 61.3233 42.4953C59.3055 49.9277 58.2966 54.266 58.2966 55.5103C58.2966 56.452 58.5656 57.1246 59.1037 57.5282C59.6418 57.9317 60.2303 58.1335 60.8693 58.1335C62.1137 58.1335 63.3412 57.5786 64.5519 56.4688C65.7626 55.359 66.5865 53.997 67.0237 52.3827C67.1246 52.0464 67.2255 51.8614 67.3264 51.8278C67.4273 51.7942 67.6963 51.7605 68.1335 51.7269H68.3353C68.8398 51.7269 69.092 51.8614 69.092 52.1305C69.092 52.1641 69.0583 52.3491 68.9911 52.6854C68.453 54.6023 67.4105 56.3006 65.8635 57.7804C64.3164 59.2601 62.5172 60 60.4658 60C58.1116 60 56.3292 58.9406 55.1185 56.8219C53.7397 58.907 52.159 59.9496 50.3766 59.9496H50.0739C48.426 59.9496 47.249 59.5124 46.5427 58.638C45.8365 57.7636 45.4666 56.8387 45.4329 55.8634C45.4329 54.7873 45.7524 53.9129 46.3914 53.2403C47.0304 52.5677 47.7871 52.2314 48.6615 52.2314C50.1076 52.2314 50.8306 52.9376 50.8306 54.3501C50.8306 55.0227 50.6288 55.6112 50.2253 56.1157C49.8217 56.6201 49.435 56.9564 49.065 57.1246C48.6951 57.2927 48.4765 57.3768 48.4092 57.3768L48.2579 57.4273C48.2579 57.4609 48.3588 57.5282 48.5606 57.629C48.7623 57.7299 49.0314 57.8476 49.3677 57.9822C49.704 58.1167 50.0235 58.1671 50.3262 58.1335C51.5369 58.1335 52.5794 57.3768 53.4538 55.8634C53.7565 55.3254 54.1432 54.1819 54.614 52.4331C55.0849 50.6844 55.5557 48.8683 56.0265 46.985C56.4974 45.1017 56.7664 43.9919 56.8337 43.6556C57.0018 42.7476 57.0859 42.0918 57.0859 41.6882C57.0859 40.7465 56.8337 40.0739 56.3292 39.6704C55.8247 39.2668 55.253 39.065 54.614 39.065C53.2688 39.065 52.0077 39.6031 50.8306 40.6793C49.6536 41.7555 48.8296 43.1343 48.3588 44.8158C48.2915 45.1185 48.2074 45.2867 48.1065 45.3203C48.0057 45.3539 47.7366 45.3875 47.2994 45.4212H46.5932C46.3914 45.2194 46.2905 45.0344 46.2905 44.8663Z" fill="black"/>
</svg>
