<svg width="203" height="41" viewBox="0 0 203 41" fill="none" xmlns="http://www.w3.org/2000/svg">
<rect x="118" width="85" height="41" rx="4" fill="#20861E" fill-opacity="0.65"/>
<path d="M0.538887 29.7022C0.179629 29.7022 0 29.5965 0 29.3852C0 29.3429 0.0316992 29.195 0.0950977 28.9414C0.179629 28.6033 0.26416 28.4131 0.348692 28.3708C0.433223 28.3286 0.67625 28.2969 1.07777 28.2757C1.64836 28.2757 2.28235 28.244 2.97973 28.1806C3.27559 28.1172 3.47635 27.9904 3.58201 27.8002C3.62428 27.6946 4.37449 24.7254 5.83266 18.8927C7.29082 13.0601 8.03047 10.1015 8.05161 10.017C8.05161 9.86903 8.00934 9.79507 7.92481 9.79507C7.75575 9.73167 7.19573 9.67884 6.24475 9.63657H5.26207C5.13528 9.50978 5.07188 9.42524 5.07188 9.38298C5.07188 9.34071 5.09301 9.16108 5.13528 8.84409C5.21981 8.48483 5.32547 8.26294 5.45227 8.17841H22.5382C22.6861 8.26294 22.7601 8.37917 22.7601 8.5271C22.7601 8.63276 22.6227 9.8162 22.348 12.0774C22.0732 14.3386 21.9253 15.5009 21.9042 15.5643C21.8619 15.7123 21.6506 15.7862 21.2702 15.7862H20.8898C20.7419 15.6806 20.6679 15.5432 20.6679 15.3741C20.6679 15.353 20.6996 15.0994 20.763 14.6134C20.8264 14.1273 20.8581 13.5673 20.8581 12.9333C20.8581 12.2993 20.7841 11.7816 20.6362 11.38C20.4883 10.9785 20.2875 10.6509 20.0339 10.3974C19.7803 10.1438 19.3894 9.9747 18.861 9.89017C18.3327 9.80564 17.7938 9.73167 17.2444 9.66827C16.6949 9.60487 15.9341 9.59431 14.962 9.63657H14.233C12.5001 9.65771 11.5808 9.68941 11.4751 9.73167C11.3695 9.77394 11.2955 9.85847 11.2532 9.98526C11.2321 10.0064 10.8728 11.3906 10.1755 14.1379L9.16108 18.2271H10.9045C10.9679 18.2271 11.211 18.2271 11.6336 18.2271C12.0563 18.2271 12.3521 18.2165 12.5212 18.1954C12.6903 18.1742 12.9227 18.1425 13.2186 18.1003C13.5144 18.058 13.768 17.984 13.9794 17.8784C14.1907 17.7727 14.3703 17.6459 14.5183 17.498C14.793 17.2444 15.0254 16.8957 15.2156 16.4519C15.4058 16.0081 15.5432 15.6066 15.6277 15.2473C15.7123 14.8881 15.7651 14.6979 15.7862 14.6768C15.8496 14.5711 16.0504 14.5183 16.3885 14.5183H16.7689C16.9168 14.6239 16.9908 14.7296 16.9908 14.8352C16.9908 14.8986 16.6632 16.2828 16.0081 18.9878C15.353 21.6928 14.9937 23.0876 14.9303 23.1721C14.8881 23.3201 14.6767 23.394 14.2964 23.394H13.916C13.768 23.2672 13.6941 23.1404 13.6941 23.0136C13.6941 22.9503 13.7469 22.7178 13.8526 22.3163C13.9582 21.9147 14.0111 21.4921 14.0111 21.0483C14.0111 20.4354 13.7997 20.0551 13.3771 19.9071C12.9544 19.7592 12.014 19.6852 10.5558 19.6852H8.81239L7.79801 23.711C7.12176 26.3315 6.78364 27.7051 6.78364 27.8319C6.78364 28.1278 7.72405 28.2757 9.60487 28.2757H10.3973C10.5241 28.4025 10.5875 28.4765 10.5875 28.4976C10.5875 28.5187 10.5664 28.7301 10.5241 29.1316C10.4396 29.4063 10.334 29.6071 10.2072 29.7339H9.66827C8.80182 29.6916 7.20629 29.6705 4.88168 29.6705C3.50805 29.6705 2.46197 29.6705 1.74346 29.6705C1.02494 29.6705 0.623418 29.6811 0.538887 29.7022Z" fill="black"/>
<path d="M20.5653 28.0119C20.6699 27.3844 21.0733 26.6597 21.7755 25.838C22.4778 25.0162 23.3443 24.5979 24.3753 24.5829C24.8982 24.5829 25.3763 24.7174 25.8096 24.9863C26.2429 25.2553 26.5641 25.5915 26.7733 25.9949C27.4008 25.0536 28.1553 24.5829 29.0368 24.5829C29.5896 24.5829 30.0677 24.7473 30.4711 25.076C30.8745 25.4047 31.0837 25.8455 31.0987 26.3983C31.0987 26.8316 30.9941 27.1827 30.7849 27.4516C30.5757 27.7205 30.374 27.8849 30.1798 27.9446C29.9856 28.0044 29.8137 28.0343 29.6643 28.0343C29.3805 28.0343 29.1489 27.9521 28.9696 27.7878C28.7903 27.6234 28.7006 27.4068 28.7006 27.1378C28.7006 26.4506 29.0742 25.9799 29.8212 25.7259C29.6569 25.5317 29.358 25.4346 28.9248 25.4346C28.7305 25.4346 28.5886 25.4495 28.4989 25.4794C27.9312 25.7185 27.5128 26.2115 27.2439 26.9585C26.3475 30.2605 25.8992 32.1879 25.8992 32.7407C25.8992 33.159 26.0188 33.4578 26.2578 33.6371C26.4969 33.8164 26.7583 33.9061 27.0422 33.9061C27.595 33.9061 28.1404 33.6595 28.6782 33.1665C29.2161 32.6734 29.5822 32.0683 29.7764 31.3512C29.8212 31.2018 29.866 31.1196 29.9109 31.1047C29.9557 31.0897 30.0752 31.0748 30.2694 31.0598H30.3591C30.5832 31.0598 30.6953 31.1196 30.6953 31.2391C30.6953 31.2541 30.6803 31.3362 30.6504 31.4856C30.4114 32.3373 29.9482 33.0918 29.2609 33.7492C28.5736 34.4066 27.7743 34.7353 26.8629 34.7353C25.817 34.7353 25.0252 34.2647 24.4873 33.3234C23.8747 34.2497 23.1725 34.7129 22.3806 34.7129H22.2462C21.5141 34.7129 20.9911 34.5186 20.6774 34.1302C20.3636 33.7417 20.1993 33.3308 20.1843 32.8976C20.1843 32.4195 20.3263 32.031 20.6101 31.7322C20.894 31.4334 21.2302 31.2839 21.6187 31.2839C22.2611 31.2839 22.5823 31.5977 22.5823 32.2252C22.5823 32.524 22.4927 32.7855 22.3134 33.0096C22.1341 33.2337 21.9623 33.3831 21.7979 33.4578C21.6336 33.5325 21.5365 33.5699 21.5066 33.5699L21.4394 33.5923C21.4394 33.6073 21.4842 33.6371 21.5738 33.682C21.6635 33.7268 21.783 33.7791 21.9324 33.8388C22.0818 33.8986 22.2238 33.921 22.3582 33.9061C22.8961 33.9061 23.3593 33.5699 23.7477 32.8976C23.8822 32.6585 24.054 32.1505 24.2632 31.3736C24.4724 30.5967 24.6815 29.7899 24.8907 28.9532C25.0999 28.1165 25.2194 27.6234 25.2493 27.474C25.324 27.0706 25.3614 26.7793 25.3614 26.6C25.3614 26.1816 25.2493 25.8828 25.0252 25.7035C24.8011 25.5242 24.5471 25.4346 24.2632 25.4346C23.6656 25.4346 23.1053 25.6736 22.5823 26.1517C22.0594 26.6298 21.6934 27.2424 21.4842 27.9895C21.4543 28.1239 21.417 28.1986 21.3721 28.2136C21.3273 28.2285 21.2078 28.2435 21.0135 28.2584H20.6998C20.6101 28.1688 20.5653 28.0866 20.5653 28.0119Z" fill="black"/>
<path d="M44.3853 18.7342C44.3853 18.4595 44.5332 18.2482 44.8291 18.1003H65.0215C65.3385 18.2693 65.497 18.4807 65.497 18.7342C65.497 18.9667 65.349 19.1675 65.0532 19.3365L54.9728 19.3682H44.8925C44.5543 19.2626 44.3853 19.0512 44.3853 18.7342ZM44.3853 24.8839C44.3853 24.5669 44.5543 24.3556 44.8925 24.2499H65.0532C65.349 24.4612 65.497 24.6726 65.497 24.8839C65.497 25.1586 65.3385 25.37 65.0215 25.5179H44.8291C44.5332 25.37 44.3853 25.1586 44.3853 24.8839Z" fill="black"/>
<path d="M80.4844 37.627H80.421C80.1674 37.627 79.9772 37.4791 79.8504 37.1832V21.7774L79.8821 6.37157C80.0934 6.09684 80.2942 5.95948 80.4844 5.95948C80.7591 5.95948 80.9704 6.11797 81.1183 6.43497V37.1832C80.9493 37.4791 80.7591 37.627 80.5478 37.627H80.4844Z" fill="black"/>
<path d="M86.4121 29.7022C86.0529 29.7022 85.8732 29.5965 85.8732 29.3852C85.8732 29.3429 85.9049 29.195 85.9683 28.9414C86.0529 28.6033 86.1374 28.4131 86.2219 28.3708C86.3065 28.3286 86.5495 28.2969 86.951 28.2757C87.5216 28.2757 88.1556 28.244 88.853 28.1806C89.1488 28.1172 89.3496 27.9904 89.4552 27.8002C89.4975 27.6946 90.2477 24.7254 91.7059 18.8927C93.1641 13.0601 93.9037 10.1015 93.9248 10.017C93.9248 9.86903 93.8826 9.79507 93.798 9.79507C93.629 9.73167 93.069 9.67884 92.118 9.63657H91.1353C91.0085 9.50978 90.9451 9.42524 90.9451 9.38298C90.9451 9.34071 90.9662 9.16108 91.0085 8.84409C91.093 8.48483 91.1987 8.26294 91.3255 8.17841H108.411C108.559 8.26294 108.633 8.37917 108.633 8.5271C108.633 8.63276 108.496 9.8162 108.221 12.0774C107.946 14.3386 107.799 15.5009 107.777 15.5643C107.735 15.7123 107.524 15.7862 107.143 15.7862H106.763C106.615 15.6806 106.541 15.5432 106.541 15.3741C106.541 15.353 106.573 15.0994 106.636 14.6134C106.7 14.1273 106.731 13.5673 106.731 12.9333C106.731 12.2993 106.657 11.7816 106.509 11.38C106.362 10.9785 106.161 10.6509 105.907 10.3974C105.654 10.1438 105.263 9.9747 104.734 9.89017C104.206 9.80564 103.667 9.73167 103.118 9.66827C102.568 9.60487 101.807 9.59431 100.835 9.63657H100.106C98.3733 9.65771 97.454 9.68941 97.3484 9.73167C97.2427 9.77394 97.1687 9.85847 97.1265 9.98526C97.1053 10.0064 96.7461 11.3906 96.0487 14.1379L95.0343 18.2271H96.7778C96.8412 18.2271 97.0842 18.2271 97.5068 18.2271C97.9295 18.2271 98.2254 18.2165 98.3944 18.1954C98.5635 18.1742 98.796 18.1425 99.0918 18.1003C99.3877 18.058 99.6413 17.984 99.8526 17.8784C100.064 17.7727 100.244 17.6459 100.391 17.498C100.666 17.2444 100.899 16.8957 101.089 16.4519C101.279 16.0081 101.416 15.6066 101.501 15.2473C101.585 14.8881 101.638 14.6979 101.659 14.6768C101.723 14.5711 101.924 14.5183 102.262 14.5183H102.642C102.79 14.6239 102.864 14.7296 102.864 14.8352C102.864 14.8986 102.536 16.2828 101.881 18.9878C101.226 21.6928 100.867 23.0876 100.804 23.1721C100.761 23.3201 100.55 23.394 100.17 23.394H99.7892C99.6413 23.2672 99.5673 23.1404 99.5673 23.0136C99.5673 22.9503 99.6201 22.7178 99.7258 22.3163C99.8315 21.9147 99.8843 21.4921 99.8843 21.0483C99.8843 20.4354 99.673 20.0551 99.2503 19.9071C98.8277 19.7592 97.8872 19.6852 96.4291 19.6852H94.6856L93.6712 23.711C92.995 26.3315 92.6569 27.7051 92.6569 27.8319C92.6569 28.1278 93.5973 28.2757 95.4781 28.2757H96.2706C96.3974 28.4025 96.4608 28.4765 96.4608 28.4976C96.4608 28.5187 96.4396 28.7301 96.3974 29.1316C96.3128 29.4063 96.2072 29.6071 96.0804 29.7339H95.5415C94.6751 29.6916 93.0795 29.6705 90.7549 29.6705C89.3813 29.6705 88.3352 29.6705 87.6167 29.6705C86.8982 29.6705 86.4966 29.6811 86.4121 29.7022Z" fill="black"/>
<path d="M105.948 0.633964C105.948 0.464902 106.001 0.316972 106.107 0.190175C106.213 0.0633779 106.371 -2.06009e-05 106.582 -2.06009e-05C106.73 -2.06009e-05 106.857 0.0528115 106.963 0.158476C107.068 0.243007 107.174 0.443769 107.28 0.760761C107.491 1.54268 107.924 2.14496 108.579 2.56762C108.812 2.71555 108.928 2.90574 108.928 3.1382C108.928 3.3284 108.896 3.4552 108.833 3.51859C108.77 3.58199 108.622 3.67709 108.389 3.80389C107.48 4.26881 106.688 4.93449 106.012 5.80094C105.969 5.84321 105.917 5.9066 105.853 5.99114C105.79 6.07567 105.737 6.13906 105.695 6.18133C105.652 6.2236 105.6 6.24473 105.536 6.24473C105.473 6.24473 105.399 6.2553 105.314 6.27643C105.166 6.27643 105.029 6.2236 104.902 6.11793C104.775 6.01227 104.702 5.85377 104.68 5.64244C104.68 5.24092 105.177 4.6175 106.17 3.77219H100.75L95.3291 3.74049C95.0544 3.55029 94.917 3.34953 94.917 3.1382C94.917 2.99027 95.0544 2.77895 95.3291 2.50422H106.709C106.202 1.70117 105.948 1.07775 105.948 0.633964Z" fill="black"/>
<path d="M114.254 37.627H114.19C113.937 37.627 113.746 37.4791 113.62 37.1832V21.7774L113.651 6.37157C113.863 6.09684 114.063 5.95948 114.254 5.95948C114.528 5.95948 114.74 6.11797 114.888 6.43497V37.1832C114.718 37.4791 114.528 37.627 114.317 37.627H114.254Z" fill="black"/>
<path d="M122.812 20.5728C122.812 19.8966 122.981 19.2098 123.32 18.5124C123.658 17.815 124.249 17.1704 125.095 16.5787C125.94 15.987 126.965 15.7017 128.17 15.7228C129.48 15.7228 130.431 16.0081 131.022 16.5787C131.614 17.1493 131.921 17.7833 131.942 18.4807C131.942 19.1569 131.762 19.6536 131.403 19.9705C131.044 20.2875 130.642 20.4566 130.198 20.4777C129.924 20.4777 129.67 20.3932 129.437 20.2241C129.205 20.0551 129.078 19.7804 129.057 19.4C129.057 19.0618 129.152 18.766 129.342 18.5124C129.533 18.2588 129.712 18.0686 129.881 17.9418C130.05 17.815 130.188 17.7516 130.293 17.7516C130.315 17.7516 130.325 17.741 130.325 17.7199C130.325 17.6565 130.251 17.5614 130.103 17.4346C129.955 17.3078 129.691 17.1916 129.311 17.0859C128.93 16.9803 128.518 16.9169 128.074 16.8957C127.06 16.8957 126.32 17.1704 125.855 17.7199C125.391 18.2694 125.148 18.8294 125.126 19.4C125.126 19.9283 125.327 20.2981 125.729 20.5094C126.13 20.7208 126.711 20.9004 127.472 21.0483C128.233 21.1962 128.782 21.3547 129.121 21.5238C130.515 22.1367 131.213 23.151 131.213 24.5669C131.213 25.1587 131.096 25.7504 130.864 26.3421C130.631 26.9338 130.283 27.5255 129.818 28.1172C129.353 28.709 128.687 29.1739 127.821 29.512C126.954 29.8501 125.961 30.0298 124.841 30.0509C123.214 30.0509 122.062 29.7445 121.386 29.1316C120.71 28.5188 120.361 27.8003 120.34 26.9761C120.34 26.1519 120.562 25.5602 121.005 25.2009C121.449 24.8417 121.914 24.662 122.4 24.662C122.717 24.662 123.013 24.7571 123.288 24.9473C123.563 25.1375 123.71 25.4651 123.732 25.93C123.732 26.4795 123.541 26.9444 123.161 27.3248C122.781 27.7052 122.453 27.8954 122.178 27.8954C122.136 27.9165 122.104 27.9271 122.083 27.9271C122.062 27.9271 122.052 27.9482 122.052 27.9905C122.073 28.0539 122.157 28.1384 122.305 28.244C122.453 28.3497 122.781 28.4871 123.288 28.6561C123.795 28.8252 124.376 28.8992 125.031 28.878C125.792 28.878 126.447 28.7618 126.997 28.5293C127.546 28.2969 127.948 28.001 128.201 27.6418C128.455 27.2825 128.634 26.9549 128.74 26.6591C128.846 26.3632 128.899 26.0991 128.899 25.8666C128.899 25.2749 128.677 24.8311 128.233 24.5352C127.789 24.2394 127.282 24.0597 126.711 23.9963C126.141 23.933 125.517 23.7745 124.841 23.5209C124.165 23.2673 123.668 22.8974 123.351 22.4114C122.992 21.8831 122.812 21.2702 122.812 20.5728Z" fill="black"/>
<path d="M139.359 10.7143C139.359 10.2072 139.56 9.76337 139.962 9.38298C140.363 9.00259 140.828 8.80183 141.356 8.78069C141.737 8.78069 142.054 8.90749 142.307 9.16108C142.561 9.41468 142.698 9.73167 142.719 10.1121C142.719 10.5981 142.508 11.0419 142.085 11.4434C141.663 11.845 141.198 12.0563 140.691 12.0774C140.374 12.0774 140.078 11.9718 139.803 11.7604C139.528 11.5491 139.38 11.2004 139.359 10.7143ZM134.192 20.6362C134.192 20.4671 134.287 20.1396 134.478 19.6535C134.668 19.1675 134.921 18.6286 135.238 18.0369C135.555 17.4452 136.02 16.9063 136.633 16.4202C137.246 15.9342 137.88 15.7017 138.535 15.7228C139.359 15.7228 140.046 15.9659 140.596 16.4519C141.145 16.938 141.43 17.5931 141.452 18.4173C141.452 18.7765 141.304 19.3682 141.008 20.1924C140.712 21.0166 140.289 22.1261 139.74 23.5208C139.19 24.9156 138.747 26.1096 138.408 27.1029C138.303 27.5678 138.25 27.9059 138.25 28.1172C138.25 28.6455 138.43 28.9097 138.789 28.9097C138.979 28.9097 139.18 28.878 139.391 28.8146C139.602 28.7512 139.845 28.6033 140.12 28.3708C140.395 28.1384 140.68 27.7685 140.976 27.2613C141.272 26.7542 141.536 26.1307 141.769 25.3911C141.832 25.1375 141.885 24.9896 141.927 24.9473C141.969 24.905 142.149 24.8839 142.466 24.8839C142.889 24.8839 143.1 24.9896 143.1 25.2009C143.1 25.37 143.005 25.6975 142.815 26.1836C142.624 26.6696 142.36 27.2085 142.022 27.8002C141.684 28.392 141.208 28.9203 140.596 29.3852C139.983 29.8501 139.328 30.0826 138.63 30.0826C137.954 30.0826 137.331 29.8607 136.76 29.4169C136.189 28.9731 135.894 28.2969 135.872 27.3881C135.872 27.0289 135.925 26.6908 136.031 26.3738C136.137 26.0568 136.591 24.8522 137.394 22.7601C138.197 20.6256 138.662 19.3471 138.789 18.9244C138.916 18.5018 138.99 18.0897 139.011 17.6882C139.011 17.181 138.831 16.9274 138.472 16.9274H138.408C137.774 16.9274 137.193 17.2761 136.665 17.9735C136.137 18.6709 135.735 19.5584 135.46 20.6362C135.439 20.6573 135.418 20.689 135.397 20.7313C135.376 20.7736 135.365 20.8053 135.365 20.8264C135.365 20.8475 135.344 20.8687 135.302 20.8898C135.26 20.9109 135.228 20.9215 135.207 20.9215C135.186 20.9215 135.143 20.9215 135.08 20.9215C135.017 20.9215 134.932 20.9215 134.826 20.9215H134.383C134.256 20.7947 134.192 20.6996 134.192 20.6362Z" fill="black"/>
<path d="M145.129 20.6362C145.15 20.5094 145.181 20.3403 145.224 20.129C145.266 19.9177 145.393 19.5162 145.604 18.9244C145.815 18.3327 146.027 17.8361 146.238 17.4346C146.449 17.0331 146.798 16.6421 147.284 16.2617C147.77 15.8813 148.256 15.7017 148.742 15.7228C149.503 15.7228 150.137 15.913 150.644 16.2934C151.151 16.6738 151.468 17.0331 151.595 17.3712C151.722 17.7093 151.785 17.9312 151.785 18.0369C151.785 18.0791 151.796 18.1003 151.817 18.1003L152.166 17.7516C153.455 16.3991 154.924 15.7228 156.572 15.7228C157.713 15.7228 158.632 16.0081 159.33 16.5787C160.027 17.1493 160.387 17.984 160.408 19.0829C160.429 20.1819 160.027 21.8408 159.203 24.0597C158.379 26.2787 157.977 27.6206 157.998 28.0855C157.998 28.635 158.178 28.9097 158.537 28.9097C158.664 28.9097 158.759 28.8991 158.823 28.878C159.436 28.7723 159.985 28.3708 160.471 27.6734C160.957 26.9761 161.327 26.1307 161.581 25.1375C161.623 24.9684 161.834 24.8839 162.214 24.8839C162.637 24.8839 162.848 24.9684 162.848 25.1375C162.848 25.1586 162.806 25.3171 162.722 25.613C162.553 26.2258 162.32 26.8281 162.024 27.4198C161.728 28.0116 161.242 28.6033 160.566 29.195C159.89 29.7867 159.161 30.072 158.379 30.0509C157.386 30.0509 156.667 29.7656 156.223 29.195C155.78 28.6244 155.558 28.0327 155.558 27.4198C155.558 27.0183 155.938 25.7504 156.699 23.6159C157.46 21.4815 157.851 19.8754 157.872 18.7977C157.872 17.5508 157.407 16.9274 156.477 16.9274H156.318C154.501 16.9274 152.969 17.9946 151.722 20.129L151.5 20.5094L150.454 24.7571C149.757 27.5255 149.355 29.0154 149.25 29.2267C148.975 29.7973 148.52 30.0826 147.886 30.0826C147.612 30.0826 147.39 30.0192 147.221 29.8924C147.052 29.7656 146.935 29.6388 146.872 29.512C146.809 29.3852 146.788 29.2795 146.809 29.195C146.809 28.9203 147.21 27.198 148.013 24.028C148.816 20.8581 149.239 19.1358 149.281 18.8611C149.302 18.7554 149.313 18.5124 149.313 18.132C149.313 17.3078 149.059 16.8957 148.552 16.8957C147.749 16.8957 147.083 17.9523 146.555 20.0656C146.428 20.4883 146.365 20.7102 146.365 20.7313C146.323 20.8581 146.122 20.9215 145.763 20.9215H145.319C145.192 20.7947 145.129 20.6996 145.129 20.6362Z" fill="black"/>
<path d="M166.462 21.8091C166.462 20.3509 166.568 18.9667 166.779 17.6565C166.991 16.3462 167.234 15.2156 167.508 14.2647C167.783 13.3137 168.174 12.3838 168.681 11.4751C169.188 10.5664 169.59 9.85846 169.886 9.35127C170.182 8.84409 170.625 8.29463 171.217 7.70291C171.809 7.11119 172.158 6.75194 172.263 6.62514C172.369 6.49834 172.633 6.27645 173.056 5.95945H173.468H173.595C173.89 5.95945 174.038 6.05455 174.038 6.24475C174.038 6.30815 173.859 6.53004 173.499 6.91043C173.14 7.29082 172.707 7.85084 172.2 8.59049C171.693 9.33014 171.175 10.2389 170.647 11.3166C170.118 12.3944 169.674 13.8526 169.315 15.6911C168.956 17.5297 168.776 19.569 168.776 21.8091C168.776 24.0492 168.956 26.0779 169.315 27.8953C169.674 29.7127 170.108 31.1815 170.615 32.3015C171.122 33.4216 171.64 34.3303 172.168 35.0277C172.696 35.725 173.14 36.2851 173.499 36.7077C173.859 37.1304 174.038 37.3523 174.038 37.3734C174.038 37.5636 173.88 37.6587 173.563 37.6587H173.468H173.056L172.168 36.8979C170.182 35.1016 168.734 32.8615 167.825 30.1777C166.917 27.4938 166.462 24.7043 166.462 21.8091Z" fill="black"/>
<path d="M176.923 23.3941C176.923 21.2385 177.335 18.9667 178.159 16.5787C178.983 14.1907 180.103 12.1303 181.519 10.3974C182.935 8.66449 184.404 7.67124 185.926 7.41765C185.947 7.41765 186.031 7.41765 186.179 7.41765C186.327 7.41765 186.454 7.40708 186.56 7.38595C187.701 7.47048 188.588 7.98823 189.222 8.93921C190.046 10.2072 190.459 11.9084 190.459 14.0428C190.459 16.4731 189.983 18.9456 189.032 21.4604C188.081 23.9752 186.866 26.0357 185.387 27.6418C183.907 29.2479 182.491 30.0509 181.139 30.0509H180.917C180.156 30.0509 179.501 29.8396 178.952 29.4169C178.402 28.9943 177.99 28.4342 177.715 27.7369C177.441 27.0395 177.24 26.3315 177.113 25.613C176.986 24.8945 176.923 24.1548 176.923 23.3941ZM187.954 11.7921C187.954 9.6366 187.394 8.55882 186.274 8.55882C185.513 8.55882 184.774 9.03431 184.055 9.98529C183.337 10.9363 182.745 12.014 182.28 13.2186C181.815 14.4232 181.456 15.4798 181.202 16.3885C180.949 17.2972 180.811 17.8256 180.79 17.9735C181.826 17.9946 182.851 18.0052 183.865 18.0052L186.94 17.9735C186.961 17.9524 187.046 17.6037 187.193 16.9274C187.341 16.2512 187.51 15.4059 187.701 14.3915C187.891 13.3771 187.975 12.5107 187.954 11.7921ZM179.395 25.5496C179.395 27.7897 179.956 28.9097 181.076 28.9097C181.393 28.9097 181.731 28.8041 182.09 28.5927C182.449 28.3814 182.882 27.9799 183.39 27.3882C183.897 26.7964 184.404 25.8772 184.911 24.6303C185.418 23.3835 185.926 21.8408 186.433 20.0022L186.591 19.4634H180.41C180.41 19.5268 180.315 19.9283 180.125 20.6679C179.934 21.4076 179.765 22.2318 179.617 23.1405C179.469 24.0492 179.395 24.8522 179.395 25.5496Z" fill="black"/>
<path d="M192.582 5.99115L192.709 5.95945C192.815 5.95945 192.921 5.95945 193.026 5.95945H193.407L194.294 6.72024C196.281 8.51653 197.728 10.7566 198.637 13.4405C199.546 16.1243 200 18.9139 200 21.8091C200 23.2461 199.894 24.6303 199.683 25.9617C199.472 27.293 199.229 28.4236 198.954 29.3535C198.679 30.2833 198.288 31.2132 197.781 32.143C197.274 33.0729 196.872 33.7808 196.576 34.2669C196.281 34.7529 195.847 35.2918 195.277 35.8835C194.706 36.4753 194.368 36.8239 194.262 36.9296C194.157 37.0353 193.914 37.236 193.533 37.5319C193.47 37.5953 193.428 37.6376 193.407 37.6587H193.026C192.857 37.6587 192.741 37.6587 192.677 37.6587C192.614 37.6587 192.561 37.627 192.519 37.5636C192.477 37.5002 192.445 37.4051 192.424 37.2783C192.445 37.2572 192.561 37.1198 192.773 36.8662C196.048 33.4638 197.686 28.4448 197.686 21.8091C197.686 15.1734 196.048 10.1543 192.773 6.75194C192.561 6.49834 192.445 6.36098 192.424 6.33985C192.424 6.17078 192.477 6.05455 192.582 5.99115Z" fill="black"/>
</svg>
