<svg width="70" height="71" viewBox="0 0 70 71" fill="none" xmlns="http://www.w3.org/2000/svg">
<path d="M1.23592 49.4852C0.411972 49.4852 0 49.2429 0 48.7582C0 48.6613 0.0727009 48.322 0.218103 47.7404C0.411972 46.9649 0.605841 46.5287 0.79971 46.4318C0.993579 46.3349 1.55095 46.2622 2.47183 46.2137C3.78045 46.2137 5.23447 46.141 6.83389 45.9956C7.51243 45.8502 7.97287 45.5594 8.21521 45.1232C8.31214 44.8809 10.0327 38.0712 13.377 24.6942C16.7212 11.3173 18.4176 4.53184 18.466 4.33797C18.466 3.9987 18.3691 3.82906 18.1752 3.82906C17.7875 3.68366 16.5031 3.56249 14.3221 3.46556H12.0684C11.7776 3.17475 11.6321 2.98088 11.6321 2.88395C11.6321 2.78702 11.6806 2.37504 11.7776 1.64803C11.9714 0.824091 12.2138 0.315184 12.5046 0.121315H51.6904C52.0296 0.315184 52.1993 0.581754 52.1993 0.921025C52.1993 1.16336 51.8842 3.87753 51.2542 9.06353C50.6241 14.2495 50.2848 16.9152 50.2363 17.0606C50.1394 17.3999 49.6547 17.5695 48.7823 17.5695H47.9099C47.5706 17.3272 47.401 17.0122 47.401 16.6244C47.401 16.576 47.4737 15.9944 47.6191 14.8796C47.7645 13.7649 47.8372 12.4805 47.8372 11.0265C47.8372 9.57244 47.6676 8.38499 47.3283 7.46411C46.989 6.54323 46.5286 5.79199 45.947 5.21038C45.3654 4.62877 44.4687 4.24103 43.2571 4.04717C42.0454 3.8533 40.8095 3.68366 39.5493 3.53826C38.2892 3.39286 36.5443 3.36862 34.3148 3.46556H32.6427C28.6684 3.51403 26.5601 3.58673 26.3177 3.68366C26.0754 3.7806 25.9058 3.97446 25.8088 4.26527C25.7604 4.31374 24.9364 7.48834 23.337 13.7891L21.0106 23.1675H25.0091C25.1545 23.1675 25.7119 23.1675 26.6812 23.1675C27.6506 23.1675 28.3291 23.1433 28.7169 23.0948C29.1046 23.0463 29.6377 22.9736 30.3163 22.8767C30.9948 22.7798 31.5764 22.6101 32.0611 22.3678C32.5458 22.1255 32.9578 21.8347 33.297 21.4954C33.9271 20.9138 34.4602 20.1141 34.8964 19.0963C35.3327 18.0784 35.6477 17.1576 35.8416 16.3336C36.0354 15.5097 36.1566 15.0735 36.2051 15.025C36.3505 14.7827 36.8109 14.6615 37.5864 14.6615H38.4588C38.7981 14.9038 38.9677 15.1462 38.9677 15.3885C38.9677 15.5339 38.2165 18.7085 36.714 24.9123C35.2115 31.1161 34.3875 34.315 34.2421 34.5089C34.1452 34.8481 33.6605 35.0178 32.7881 35.0178H31.9157C31.5764 34.727 31.4068 34.4362 31.4068 34.1454C31.4068 33.9999 31.528 33.4668 31.7703 32.5459C32.0126 31.6251 32.1338 30.6557 32.1338 29.6379C32.1338 28.2323 31.6491 27.3599 30.6798 27.0207C29.7104 26.6814 27.5537 26.5118 24.2094 26.5118H20.2109L17.8844 35.7448C16.3335 41.7547 15.558 44.9051 15.558 45.1959C15.558 45.8744 17.7148 46.2137 22.0284 46.2137H23.8459C24.1367 46.5045 24.2821 46.6741 24.2821 46.7226C24.2821 46.7711 24.2336 47.2558 24.1367 48.1766C23.9428 48.8067 23.7005 49.2671 23.4097 49.5579H22.1738C20.1866 49.461 16.5273 49.4125 11.1959 49.4125C8.04557 49.4125 5.64644 49.4125 3.99855 49.4125C2.35066 49.4125 1.42979 49.4368 1.23592 49.4852Z" fill="black"/>
<path d="M45.5724 45.7114C45.5724 45.2317 45.8294 44.4093 46.3433 43.2442C46.8573 42.0792 47.6797 40.8627 48.8105 39.5949C49.9413 38.327 51.2092 37.7102 52.6141 37.7445C54.019 37.7445 55.1498 38.1385 56.0065 38.9267C56.8631 39.7148 57.3086 40.8113 57.3429 42.2162C57.2743 42.8673 57.2229 43.2271 57.1887 43.2956C57.1887 43.3984 56.9145 44.1866 56.3663 45.66C55.818 47.1335 55.2526 48.7954 54.6701 50.6458C54.0875 52.4962 53.8134 53.9696 53.8477 55.0661C53.8477 56.5396 54.0875 57.5676 54.5673 58.1501C55.047 58.7326 55.7666 59.041 56.7261 59.0753C57.5142 59.0753 58.2509 58.8868 58.9362 58.5099C59.6216 58.133 60.1527 57.7389 60.5296 57.3277C60.9066 56.9165 61.3692 56.3511 61.9174 55.6315C61.9174 55.5973 62.0031 55.2546 62.1744 54.6035C62.3457 53.9525 62.5856 52.9416 62.894 51.571C63.2024 50.2003 63.5279 48.9325 63.8706 47.7674C65.1727 42.6274 65.8923 39.9375 66.0294 39.6977C66.4748 38.7725 67.2116 38.3099 68.2396 38.3099C68.685 38.3099 69.0448 38.4298 69.3189 38.6697C69.5931 38.9095 69.7815 39.1151 69.8843 39.2865C69.9871 39.4578 70.0214 39.612 69.9871 39.7491C69.9871 40.1945 69.1476 43.7925 67.4686 50.543C65.7895 57.2935 64.8301 60.9942 64.5902 61.6453C63.6307 64.4894 61.9688 66.751 59.6044 68.43C57.2401 70.1091 54.8757 70.9657 52.5113 71C50.9693 71 49.6158 70.6231 48.4507 69.8692C47.2857 69.1153 46.7031 67.9846 46.7031 66.4768C46.7031 65.723 46.8231 65.0891 47.0629 64.5751C47.3028 64.0611 47.6283 63.6841 48.0395 63.4443C48.4507 63.2044 48.7934 63.0331 49.0675 62.9303C49.3417 62.8275 49.6329 62.7761 49.9413 62.7761C51.449 62.7761 52.2029 63.4957 52.2029 64.9349C52.2029 65.6202 51.9973 66.2198 51.5861 66.7338C51.1749 67.2478 50.7808 67.5905 50.4039 67.7618C50.027 67.9332 49.8043 68.0188 49.7357 68.0188L49.5815 68.0702C49.6501 68.2416 49.9756 68.4472 50.5581 68.687C51.1406 68.9269 51.7232 69.0468 52.3057 69.0468H52.7169C53.2994 69.0468 53.7449 69.0126 54.0533 68.944C55.1841 68.6356 56.2292 67.9846 57.1887 66.9908C58.1481 65.9971 58.8848 64.9349 59.3988 63.8041C59.9128 62.6733 60.3069 61.7138 60.581 60.9257C60.8552 60.1376 60.9922 59.6236 60.9922 59.3837L60.6838 59.5893C60.4782 59.7264 60.1527 59.9148 59.7072 60.1547C59.2618 60.3946 58.8163 60.6002 58.3708 60.7715C57.6855 60.9428 57.0173 61.0285 56.3663 61.0285C54.79 61.0285 53.4022 60.6516 52.2029 59.8977C51.0036 59.1438 50.2154 57.9274 49.8385 56.2483C49.8043 56.0085 49.7871 55.4773 49.7871 54.6549C49.7871 52.7018 50.3868 50.1489 51.5861 46.9964C52.7854 43.8439 53.3851 41.8393 53.3851 40.9827C53.3851 40.9484 53.3851 40.9141 53.3851 40.8799C53.3851 40.5715 53.3851 40.3659 53.3851 40.2631C53.3851 40.1603 53.3166 40.0403 53.1795 39.9033C53.0424 39.7662 52.854 39.6977 52.6141 39.6977H52.4085C51.6204 39.6977 50.9008 40.0232 50.2497 40.6743C49.5987 41.3253 49.0847 42.0278 48.7077 42.7816C48.3308 43.5355 48.0395 44.2551 47.8339 44.9404C47.6283 45.6258 47.4913 46.0027 47.4227 46.0712C47.3542 46.1397 47.0801 46.174 46.6003 46.174H45.8808C45.6752 45.9684 45.5724 45.8142 45.5724 45.7114Z" fill="black"/>
</svg>
