<svg width="805" height="541" viewBox="0 0 805 541" fill="none" xmlns="http://www.w3.org/2000/svg">
<path d="M678.5 243L374 443V243H678.5Z" fill="#343A40"/>
<path d="M657.286 208.858C656.429 208.858 656 208.606 656 208.102C656 208.001 656.076 207.648 656.227 207.043C656.429 206.236 656.63 205.783 656.832 205.682C657.034 205.581 657.613 205.505 658.571 205.455C659.932 205.455 661.445 205.379 663.108 205.228C663.814 205.077 664.293 204.774 664.545 204.321C664.646 204.069 666.436 196.985 669.914 183.071C673.393 169.156 675.158 162.098 675.208 161.897C675.208 161.544 675.107 161.367 674.906 161.367C674.502 161.216 673.166 161.09 670.898 160.989H668.553C668.251 160.687 668.1 160.485 668.1 160.384C668.1 160.283 668.15 159.855 668.251 159.099C668.452 158.242 668.705 157.712 669.007 157.511H709.767C710.12 157.712 710.297 157.989 710.297 158.342C710.297 158.594 709.969 161.418 709.314 166.812C708.658 172.206 708.305 174.979 708.255 175.13C708.154 175.483 707.65 175.66 706.742 175.66H705.835C705.482 175.408 705.306 175.08 705.306 174.677C705.306 174.626 705.381 174.021 705.533 172.862C705.684 171.702 705.759 170.366 705.759 168.854C705.759 167.341 705.583 166.106 705.23 165.148C704.877 164.19 704.398 163.409 703.793 162.804C703.188 162.199 702.256 161.796 700.995 161.594C699.735 161.392 698.449 161.216 697.138 161.065C695.828 160.914 694.013 160.888 691.694 160.989H689.954C685.82 161.04 683.627 161.115 683.375 161.216C683.123 161.317 682.947 161.518 682.846 161.821C682.795 161.871 681.938 165.174 680.275 171.727L677.855 181.483H682.014C682.165 181.483 682.745 181.483 683.753 181.483C684.762 181.483 685.467 181.458 685.871 181.407C686.274 181.357 686.829 181.281 687.534 181.18C688.24 181.079 688.845 180.903 689.349 180.651C689.854 180.399 690.282 180.096 690.635 179.743C691.29 179.138 691.845 178.307 692.299 177.248C692.752 176.189 693.08 175.231 693.282 174.374C693.483 173.517 693.609 173.063 693.66 173.013C693.811 172.761 694.29 172.635 695.097 172.635H696.004C696.357 172.887 696.533 173.139 696.533 173.391C696.533 173.542 695.752 176.845 694.189 183.298C692.626 189.751 691.769 193.078 691.618 193.28C691.517 193.633 691.013 193.809 690.106 193.809H689.198C688.845 193.507 688.669 193.204 688.669 192.902C688.669 192.75 688.795 192.196 689.047 191.238C689.299 190.28 689.425 189.272 689.425 188.213C689.425 186.751 688.921 185.844 687.913 185.491C686.904 185.138 684.661 184.961 681.182 184.961H677.023L674.603 194.565C672.99 200.817 672.183 204.094 672.183 204.396C672.183 205.102 674.427 205.455 678.914 205.455H680.804C681.107 205.757 681.258 205.934 681.258 205.984C681.258 206.035 681.207 206.539 681.107 207.497C680.905 208.152 680.653 208.631 680.35 208.934H679.065C676.998 208.833 673.191 208.782 667.646 208.782C664.369 208.782 661.873 208.782 660.159 208.782C658.445 208.782 657.487 208.808 657.286 208.858Z" fill="#6C63FF"/>
<path d="M703.891 139.512C703.891 139.109 704.018 138.756 704.27 138.454C704.522 138.151 704.9 138 705.404 138C705.757 138 706.059 138.126 706.311 138.378C706.563 138.58 706.816 139.059 707.068 139.815C707.572 141.68 708.605 143.117 710.168 144.125C710.723 144.478 711 144.932 711 145.487C711 145.94 710.924 146.243 710.773 146.394C710.622 146.545 710.269 146.772 709.714 147.075C707.547 148.184 705.656 149.772 704.043 151.839C703.942 151.94 703.816 152.091 703.665 152.293C703.513 152.494 703.387 152.645 703.286 152.746C703.186 152.847 703.06 152.898 702.908 152.898C702.757 152.898 702.581 152.923 702.379 152.973C702.026 152.973 701.698 152.847 701.396 152.595C701.093 152.343 700.917 151.965 700.867 151.461C700.867 150.503 702.051 149.016 704.421 146.999H691.489L678.558 146.923C677.903 146.47 677.575 145.991 677.575 145.487C677.575 145.134 677.903 144.629 678.558 143.974H705.706C704.496 142.058 703.891 140.571 703.891 139.512Z" fill="#6C63FF"/>
<path d="M683.008 242.458L642.659 244.755L664.823 278.55L683.008 242.458ZM376.927 447.384L658.587 262.66L654.748 256.806L373.089 441.531L376.927 447.384Z" fill="#6C63FF"/>
<path d="M751.061 445.518C751.646 444.933 751.646 443.983 751.061 443.397L741.515 433.851C740.929 433.265 739.979 433.265 739.393 433.851C738.808 434.437 738.808 435.387 739.393 435.972L747.879 444.458L739.393 452.943C738.808 453.529 738.808 454.479 739.393 455.064C739.979 455.65 740.929 455.65 741.515 455.064L751.061 445.518ZM0 445.958H750V442.958H0V445.958Z" fill="black"/>
<path d="M376.061 64.3971C375.475 63.8113 374.525 63.8113 373.939 64.3971L364.393 73.943C363.808 74.5288 363.808 75.4786 364.393 76.0644C364.979 76.6502 365.929 76.6502 366.515 76.0644L375 67.5791L383.485 76.0644C384.071 76.6502 385.021 76.6502 385.607 76.0644C386.192 75.4786 386.192 74.5288 385.607 73.943L376.061 64.3971ZM376.5 540.458L376.5 65.4578H373.5L373.5 540.458H376.5Z" fill="black"/>
<path d="M765.404 436.817C765.788 434.517 767.266 431.862 769.84 428.85C772.413 425.838 775.589 424.305 779.367 424.25C781.284 424.25 783.036 424.743 784.624 425.729C786.212 426.714 787.389 427.946 788.156 429.425C790.456 425.975 793.221 424.25 796.452 424.25C798.478 424.25 800.23 424.853 801.708 426.057C803.187 427.262 803.953 428.877 804.008 430.903C804.008 432.491 803.625 433.778 802.858 434.764C802.092 435.749 801.352 436.352 800.64 436.571C799.929 436.79 799.299 436.899 798.751 436.899C797.711 436.899 796.862 436.598 796.205 435.996C795.548 435.393 795.22 434.599 795.22 433.614C795.22 431.095 796.588 429.37 799.326 428.439C798.724 427.727 797.629 427.372 796.041 427.372C795.329 427.372 794.809 427.426 794.48 427.536C792.4 428.412 790.866 430.219 789.881 432.957C786.595 445.058 784.953 452.122 784.953 454.148C784.953 455.681 785.391 456.776 786.267 457.433C787.143 458.09 788.101 458.419 789.142 458.419C791.168 458.419 793.166 457.515 795.137 455.708C797.109 453.901 798.45 451.684 799.162 449.055C799.326 448.508 799.491 448.207 799.655 448.152C799.819 448.097 800.257 448.042 800.969 447.988H801.298C802.119 447.988 802.53 448.207 802.53 448.645C802.53 448.699 802.475 449.001 802.365 449.548C801.489 452.669 799.792 455.434 797.273 457.844C794.754 460.253 791.825 461.458 788.484 461.458C784.651 461.458 781.749 459.733 779.778 456.283C777.533 459.678 774.959 461.376 772.057 461.376H771.565C768.881 461.376 766.965 460.664 765.815 459.24C764.665 457.816 764.063 456.311 764.008 454.723C764.008 452.97 764.528 451.547 765.569 450.452C766.609 449.356 767.841 448.809 769.265 448.809C771.619 448.809 772.797 449.959 772.797 452.259C772.797 453.354 772.468 454.312 771.811 455.133C771.154 455.955 770.524 456.502 769.922 456.776C769.319 457.05 768.964 457.187 768.854 457.187L768.608 457.269C768.608 457.324 768.772 457.433 769.1 457.597C769.429 457.762 769.867 457.953 770.415 458.172C770.962 458.391 771.482 458.474 771.975 458.419C773.946 458.419 775.644 457.187 777.068 454.723C777.56 453.847 778.19 451.985 778.957 449.137C779.723 446.29 780.49 443.333 781.257 440.267C782.023 437.2 782.461 435.393 782.571 434.846C782.844 433.367 782.981 432.3 782.981 431.643C782.981 430.109 782.571 429.014 781.749 428.357C780.928 427.7 779.997 427.372 778.957 427.372C776.766 427.372 774.713 428.248 772.797 430C770.88 431.752 769.539 433.997 768.772 436.735C768.662 437.228 768.526 437.502 768.361 437.556C768.197 437.611 767.759 437.666 767.047 437.721H765.897C765.569 437.392 765.404 437.091 765.404 436.817Z" fill="black"/>
<path d="M356.008 13.048C356.008 12.2624 356.429 10.9158 357.27 9.008C358.112 7.10023 359.459 5.1083 361.31 3.0322C363.162 0.956098 365.238 -0.0538972 367.539 0.00221366C369.839 0.00221366 371.691 0.647488 373.094 1.93804C374.497 3.22859 375.226 5.02413 375.282 7.32468C375.17 8.39078 375.086 8.97994 375.03 9.09217C375.03 9.2605 374.581 10.551 373.683 12.9638C372.785 15.3766 371.859 18.098 370.905 21.1279C369.952 24.1579 369.503 26.5707 369.559 28.3662C369.559 30.779 369.952 32.4623 370.737 33.4162C371.523 34.3701 372.701 34.8751 374.272 34.9312C375.563 34.9312 376.769 34.6226 377.891 34.0054C379.013 33.3882 379.883 32.7429 380.5 32.0695C381.118 31.3962 381.875 30.4704 382.773 29.2921C382.773 29.236 382.913 28.6748 383.194 27.6087C383.474 26.5426 383.867 24.8874 384.372 22.6429C384.877 20.3985 385.41 18.3224 385.971 16.4146C388.103 7.99801 389.282 3.59331 389.506 3.20053C390.236 1.68554 391.442 0.928042 393.125 0.928042C393.855 0.928042 394.444 1.12443 394.893 1.51721C395.342 1.90998 395.65 2.24665 395.819 2.5272C395.987 2.80775 396.043 3.06025 395.987 3.2847C395.987 4.01414 394.612 9.90577 391.863 20.9596C389.113 32.0134 387.542 38.0734 387.15 39.1395C385.578 43.7967 382.857 47.5 378.985 50.2495C375.114 52.9989 371.242 54.4017 367.37 54.4578C364.845 54.4578 362.629 53.8405 360.721 52.6061C358.814 51.3717 357.86 49.52 357.86 47.0511C357.86 45.8167 358.056 44.7786 358.449 43.937C358.842 43.0953 359.375 42.4781 360.048 42.0853C360.721 41.6926 361.282 41.412 361.731 41.2437C362.18 41.0753 362.657 40.9912 363.162 40.9912C365.631 40.9912 366.865 42.1695 366.865 44.5261C366.865 45.6484 366.529 46.6303 365.855 47.472C365.182 48.3136 364.537 48.8747 363.92 49.1553C363.302 49.4358 362.938 49.5761 362.825 49.5761L362.573 49.6603C362.685 49.9408 363.218 50.2775 364.172 50.6703C365.126 51.0631 366.08 51.2594 367.034 51.2594H367.707C368.661 51.2594 369.39 51.2033 369.895 51.0911C371.747 50.5861 373.458 49.52 375.03 47.8928C376.601 46.2656 377.807 44.5261 378.649 42.6745C379.49 40.8228 380.136 39.2517 380.585 37.9612C381.033 36.6706 381.258 35.829 381.258 35.4362L380.753 35.7729C380.416 35.9973 379.883 36.3059 379.154 36.6987C378.424 37.0915 377.695 37.4281 376.965 37.7087C375.843 37.9892 374.749 38.1295 373.683 38.1295C371.102 38.1295 368.829 37.5123 366.865 36.2779C364.902 35.0434 363.611 33.0515 362.994 30.3021C362.938 29.9093 362.91 29.0396 362.91 27.6929C362.91 24.4946 363.892 20.3143 365.855 15.1521C367.819 9.98994 368.801 6.70746 368.801 5.30469C368.801 5.24858 368.801 5.19246 368.801 5.13635C368.801 4.63136 368.801 4.29469 368.801 4.12636C368.801 3.95803 368.689 3.76164 368.465 3.5372C368.24 3.31275 367.932 3.20053 367.539 3.20053H367.202C365.912 3.20053 364.733 3.73358 363.667 4.79969C362.601 5.86579 361.759 7.01607 361.142 8.2505C360.525 9.48494 360.048 10.6633 359.711 11.7855C359.375 12.9077 359.15 13.5249 359.038 13.6371C358.926 13.7494 358.477 13.8055 357.691 13.8055H356.513C356.176 13.4688 356.008 13.2163 356.008 13.048Z" fill="black"/>
<path d="M376.008 444.458V244" stroke="#6C63FF" stroke-width="6"/>
<g filter="url(#filter0_d_47_83)">
<path d="M683.008 242.458L376.008 242.458" stroke="black" stroke-width="3" stroke-dasharray="6 6"/>
</g>
<path d="M510 411.97C510 407.192 510.913 402.157 512.74 396.864C514.567 391.571 517.049 387.005 520.187 383.164C523.326 379.323 526.581 377.122 529.953 376.56C530 376.56 530.187 376.56 530.515 376.56C530.843 376.56 531.124 376.536 531.358 376.489C533.888 376.677 535.855 377.824 537.26 379.932C539.087 382.742 540 386.513 540 391.244C540 396.63 538.946 402.11 536.838 407.684C534.731 413.258 532.037 417.824 528.759 421.384C525.48 424.944 522.342 426.724 519.344 426.724H518.852C517.166 426.724 515.714 426.255 514.496 425.318C513.279 424.382 512.365 423.14 511.756 421.595C511.148 420.049 510.703 418.48 510.422 416.888C510.141 415.295 510 413.656 510 411.97ZM534.45 386.255C534.45 381.478 533.208 379.089 530.726 379.089C529.04 379.089 527.4 380.143 525.808 382.251C524.215 384.358 522.904 386.747 521.874 389.417C520.843 392.087 520.047 394.429 519.485 396.443C518.923 398.457 518.618 399.628 518.571 399.955C520.867 400.002 523.138 400.026 525.386 400.026L532.201 399.955C532.248 399.909 532.436 399.136 532.763 397.637C533.091 396.138 533.466 394.265 533.888 392.016C534.309 389.768 534.496 387.848 534.45 386.255ZM515.48 416.747C515.48 421.712 516.721 424.194 519.204 424.194C519.906 424.194 520.656 423.96 521.452 423.492C522.248 423.023 523.208 422.133 524.333 420.822C525.457 419.511 526.581 417.473 527.705 414.71C528.829 411.946 529.953 408.527 531.077 404.452L531.429 403.258H517.728C517.728 403.398 517.518 404.288 517.096 405.927C516.674 407.567 516.3 409.393 515.972 411.407C515.644 413.422 515.48 415.201 515.48 416.747Z" fill="#6C63FF"/>
<path d="M273.236 357.364C272.412 357.364 272 357.122 272 356.637C272 356.54 272.073 356.201 272.218 355.619C272.412 354.844 272.606 354.407 272.8 354.311C272.994 354.214 273.551 354.141 274.472 354.092C275.78 354.092 277.234 354.02 278.834 353.874C279.512 353.729 279.973 353.438 280.215 353.002C280.312 352.76 282.033 345.95 285.377 332.573C288.721 319.196 290.418 312.411 290.466 312.217C290.466 311.877 290.369 311.708 290.175 311.708C289.787 311.562 288.503 311.441 286.322 311.344H284.068C283.778 311.053 283.632 310.86 283.632 310.763C283.632 310.666 283.681 310.254 283.778 309.527C283.971 308.703 284.214 308.194 284.505 308H323.69C324.03 308.194 324.199 308.46 324.199 308.8C324.199 309.042 323.884 311.756 323.254 316.942C322.624 322.128 322.285 324.794 322.236 324.939C322.139 325.279 321.655 325.448 320.782 325.448H319.91C319.571 325.206 319.401 324.891 319.401 324.503C319.401 324.455 319.474 323.873 319.619 322.758C319.765 321.644 319.837 320.359 319.837 318.905C319.837 317.451 319.668 316.264 319.328 315.343C318.989 314.422 318.529 313.671 317.947 313.089C317.365 312.507 316.469 312.12 315.257 311.926C314.045 311.732 312.809 311.562 311.549 311.417C310.289 311.272 308.544 311.247 306.315 311.344H304.643C300.668 311.393 298.56 311.465 298.318 311.562C298.075 311.659 297.906 311.853 297.809 312.144C297.76 312.192 296.936 315.367 295.337 321.668L293.011 331.046H297.009C297.155 331.046 297.712 331.046 298.681 331.046C299.651 331.046 300.329 331.022 300.717 330.974C301.105 330.925 301.638 330.852 302.316 330.755C302.995 330.658 303.576 330.489 304.061 330.246C304.546 330.004 304.958 329.713 305.297 329.374C305.927 328.792 306.46 327.993 306.896 326.975C307.333 325.957 307.648 325.036 307.842 324.212C308.035 323.388 308.157 322.952 308.205 322.904C308.35 322.661 308.811 322.54 309.586 322.54H310.459C310.798 322.783 310.968 323.025 310.968 323.267C310.968 323.413 310.216 326.587 308.714 332.791C307.211 338.995 306.388 342.194 306.242 342.388C306.145 342.727 305.661 342.896 304.788 342.896H303.916C303.576 342.606 303.407 342.315 303.407 342.024C303.407 341.879 303.528 341.346 303.77 340.425C304.013 339.504 304.134 338.534 304.134 337.517C304.134 336.111 303.649 335.239 302.68 334.899C301.71 334.56 299.554 334.39 296.209 334.39H292.211L289.884 343.623C288.333 349.633 287.558 352.784 287.558 353.075C287.558 353.753 289.715 354.092 294.028 354.092H295.846C296.137 354.383 296.282 354.553 296.282 354.601C296.282 354.65 296.234 355.134 296.137 356.055C295.943 356.685 295.701 357.146 295.41 357.437H294.174C292.187 357.34 288.527 357.291 283.196 357.291C280.046 357.291 277.646 357.291 275.999 357.291C274.351 357.291 273.43 357.315 273.236 357.364Z" fill="#6C63FF"/>
<path d="M317.572 353.59C317.572 353.11 317.829 352.288 318.343 351.123C318.857 349.958 319.68 348.741 320.81 347.474C321.941 346.206 323.209 345.589 324.614 345.623C326.019 345.623 327.15 346.017 328.006 346.805C328.863 347.593 329.309 348.69 329.343 350.095C329.274 350.746 329.223 351.106 329.189 351.174C329.189 351.277 328.914 352.065 328.366 353.539C327.818 355.012 327.253 356.674 326.67 358.524C326.088 360.375 325.813 361.848 325.848 362.945C325.848 364.418 326.088 365.446 326.567 366.029C327.047 366.611 327.767 366.92 328.726 366.954C329.514 366.954 330.251 366.765 330.936 366.389C331.622 366.012 332.153 365.618 332.53 365.206C332.907 364.795 333.369 364.23 333.917 363.51C333.917 363.476 334.003 363.133 334.174 362.482C334.346 361.831 334.586 360.82 334.894 359.45C335.202 358.079 335.528 356.811 335.871 355.646C337.173 350.506 337.892 347.816 338.029 347.576C338.475 346.651 339.212 346.189 340.24 346.189C340.685 346.189 341.045 346.308 341.319 346.548C341.593 346.788 341.782 346.994 341.884 347.165C341.987 347.336 342.021 347.491 341.987 347.628C341.987 348.073 341.148 351.671 339.469 358.422C337.789 365.172 336.83 368.873 336.59 369.524C335.631 372.368 333.969 374.63 331.604 376.309C329.24 377.988 326.876 378.844 324.511 378.879C322.969 378.879 321.616 378.502 320.451 377.748C319.286 376.994 318.703 375.863 318.703 374.356C318.703 373.602 318.823 372.968 319.063 372.454C319.303 371.94 319.628 371.563 320.04 371.323C320.451 371.083 320.793 370.912 321.067 370.809C321.342 370.706 321.633 370.655 321.941 370.655C323.449 370.655 324.203 371.374 324.203 372.814C324.203 373.499 323.997 374.099 323.586 374.612C323.175 375.126 322.781 375.469 322.404 375.64C322.027 375.812 321.804 375.897 321.736 375.897L321.581 375.949C321.65 376.12 321.976 376.326 322.558 376.566C323.141 376.806 323.723 376.925 324.306 376.925H324.717C325.299 376.925 325.745 376.891 326.053 376.823C327.184 376.514 328.229 375.863 329.189 374.869C330.148 373.876 330.885 372.814 331.399 371.683C331.913 370.552 332.307 369.592 332.581 368.804C332.855 368.016 332.992 367.502 332.992 367.262L332.684 367.468C332.478 367.605 332.153 367.793 331.707 368.033C331.262 368.273 330.816 368.479 330.371 368.65C329.685 368.821 329.017 368.907 328.366 368.907C326.79 368.907 325.402 368.53 324.203 367.776C323.004 367.022 322.215 365.806 321.838 364.127C321.804 363.887 321.787 363.356 321.787 362.534C321.787 360.58 322.387 358.028 323.586 354.875C324.785 351.723 325.385 349.718 325.385 348.861C325.385 348.827 325.385 348.793 325.385 348.759C325.385 348.45 325.385 348.245 325.385 348.142C325.385 348.039 325.317 347.919 325.179 347.782C325.042 347.645 324.854 347.576 324.614 347.576H324.408C323.62 347.576 322.901 347.902 322.25 348.553C321.599 349.204 321.085 349.906 320.708 350.66C320.331 351.414 320.04 352.134 319.834 352.819C319.628 353.504 319.491 353.881 319.423 353.95C319.354 354.018 319.08 354.053 318.6 354.053H317.881C317.675 353.847 317.572 353.693 317.572 353.59Z" fill="#6C63FF"/>
<defs>
<filter id="filter0_d_47_83" x="372.008" y="240.958" width="315" height="11" filterUnits="userSpaceOnUse" color-interpolation-filters="sRGB">
<feFlood flood-opacity="0" result="BackgroundImageFix"/>
<feColorMatrix in="SourceAlpha" type="matrix" values="0 0 0 0 0 0 0 0 0 0 0 0 0 0 0 0 0 0 127 0" result="hardAlpha"/>
<feOffset dy="4"/>
<feGaussianBlur stdDeviation="2"/>
<feComposite in2="hardAlpha" operator="out"/>
<feColorMatrix type="matrix" values="0 0 0 0 0 0 0 0 0 0 0 0 0 0 0 0 0 0 0.25 0"/>
<feBlend mode="normal" in2="BackgroundImageFix" result="effect1_dropShadow_47_83"/>
<feBlend mode="normal" in="SourceGraphic" in2="effect1_dropShadow_47_83" result="shape"/>
</filter>
</defs>
</svg>
