<svg width="540" height="612" viewBox="0 0 540 612" fill="none" xmlns="http://www.w3.org/2000/svg">
<path d="M270 368.396C304.344 368.396 332.185 340.555 332.185 306.211C332.185 271.867 304.344 244.026 270 244.026C235.656 244.026 207.815 271.867 207.815 306.211C207.815 340.555 235.656 368.396 270 368.396Z" fill="#5278EB"/>
<path d="M498.101 337.23C490.213 326.926 481.368 316.557 471.684 306.211C481.369 295.866 490.213 285.497 498.101 275.192C516.643 250.971 529.132 228.138 535.223 207.326C540.123 190.586 543.218 166.198 530.139 145.083C512.458 116.537 476.376 110.545 449.221 110.545C426.389 110.545 400.313 114.546 372.272 122.087C369.505 112.953 366.524 104.167 363.327 95.794C352.45 67.307 339.58 44.637 325.074 28.518C308.346 9.932 289.123 0 269.483 0H269.357C244.52 0 225.449 15.665 213.825 28.67C199.373 44.837 186.586 67.606 175.818 96.145C172.716 104.366 169.826 112.983 167.141 121.932C139.322 114.494 113.452 110.549 90.779 110.549C63.623 110.549 27.541 116.544 9.86099 145.09C-3.21701 166.205 -0.12301 190.6 4.77699 207.34C10.868 228.152 23.358 251 41.899 275.22C49.783 285.518 58.622 295.884 68.301 306.225C58.622 316.564 49.783 326.928 41.899 337.226C23.358 361.447 10.868 384.28 4.77699 405.092C-0.12201 421.832 -3.21801 446.22 9.86099 467.335C27.542 495.881 63.624 501.873 90.779 501.873C113.62 501.873 139.705 497.868 167.759 490.323C170.518 499.419 173.488 508.17 176.674 516.514C187.55 545 200.421 567.564 214.926 583.683C231.652 602.272 250.874 612 270.513 612H270.643C295.481 612 314.551 596.532 326.176 583.528C340.628 567.361 353.415 544.789 364.182 516.25C367.269 508.066 370.147 499.49 372.823 490.583C400.654 498.036 426.538 501.992 449.221 501.992C449.224 501.992 449.224 501.992 449.227 501.992C476.381 501.992 512.46 495.94 530.139 467.396C543.217 446.281 540.123 421.836 535.223 405.095C529.133 384.283 516.643 361.451 498.101 337.23ZM449.221 145.319C464.22 145.319 490.836 147.667 500.578 163.394C511.588 181.17 500.341 215.062 470.491 254.055C463.484 263.208 455.634 272.432 447.053 281.653C430.844 266.5 412.969 251.56 393.765 237.121C391.119 208.506 386.865 181.13 381.122 155.747C406.553 148.889 429.693 145.319 449.221 145.319ZM348.282 446.482C347.989 446.378 347.697 446.278 347.403 446.174C334.739 441.686 321.799 436.529 308.724 430.775C318.115 425.487 327.504 419.944 336.857 414.151C343.363 410.122 349.772 406.019 356.08 401.854C353.993 417.319 351.384 432.241 348.282 446.482ZM318.546 384.59C302.541 394.503 286.264 403.742 269.981 412.183C253.71 403.736 237.446 394.495 221.453 384.59C206.953 375.609 192.967 366.27 179.599 356.681C178.451 340.272 177.84 323.466 177.805 306.405C177.769 289.265 178.314 272.375 179.403 255.882C192.83 246.244 206.882 236.858 221.454 227.832C237.449 217.925 253.716 208.691 269.989 200.254C286.27 208.696 302.544 217.934 318.548 227.846C333.051 236.829 347.038 246.169 360.408 255.76C361.552 272.149 362.161 288.931 362.197 305.964C362.233 323.126 361.687 340.033 360.595 356.541C347.167 366.18 333.117 375.565 318.546 384.59ZM192.186 446.26C189.074 432.186 186.441 417.445 184.315 402.175C190.496 406.25 196.774 410.265 203.143 414.21C212.461 419.982 221.815 425.505 231.171 430.777C218.131 436.504 205.225 441.642 192.596 446.117C192.459 446.164 192.323 446.211 192.186 446.26ZM143.397 328.843C134.355 321.374 125.731 313.815 117.561 306.211C125.705 298.629 134.303 291.094 143.315 283.647C143.113 291.199 143.015 298.804 143.032 306.452C143.048 313.96 143.171 321.427 143.397 328.843ZM191.686 165.994C191.99 166.101 192.292 166.205 192.596 166.313C205.242 170.794 218.165 175.939 231.222 181.677C221.849 186.956 212.478 192.489 203.143 198.271C196.634 202.303 190.221 206.408 183.909 210.575C185.99 195.128 188.592 180.221 191.686 165.994ZM347.838 166.154C350.952 180.254 353.584 195.022 355.709 210.322C349.521 206.242 343.235 202.222 336.858 198.272C327.519 192.488 318.145 186.953 308.768 181.672C321.829 175.934 334.755 170.788 347.405 166.305C347.548 166.254 347.692 166.205 347.838 166.154ZM396.605 283.601C405.641 291.067 414.261 298.622 422.425 306.222C414.284 313.8 405.69 321.332 396.682 328.776C396.886 321.206 396.983 313.583 396.967 305.917C396.952 298.435 396.83 290.993 396.605 283.601ZM208.352 108.433C225.687 62.487 248.519 35.031 269.482 34.987C290.387 34.987 313.325 62.35 330.841 108.226C333.771 115.902 336.506 123.965 339.049 132.355C316.701 140.119 293.497 149.834 269.997 161.299C246.295 149.735 222.896 139.955 200.371 132.159C202.844 123.915 205.502 115.986 208.352 108.433ZM39.422 163.394C49.163 147.667 75.78 145.319 90.779 145.319C110.181 145.319 133.146 148.845 158.384 155.619C152.699 181.095 148.524 208.581 145.976 237.316C126.87 251.695 109.083 266.568 92.948 281.653C84.367 272.432 76.518 263.208 69.511 254.055C39.659 215.063 28.412 181.171 39.422 163.394ZM90.778 467.103C75.779 467.103 49.163 464.755 39.422 449.028C28.412 431.252 39.659 397.359 69.509 358.366C76.51 349.22 84.354 340.003 92.927 330.789C109.144 345.956 127.03 360.91 146.247 375.363C148.897 403.957 153.153 431.308 158.899 456.669C133.459 463.531 110.313 467.103 90.778 467.103ZM331.647 503.885C314.312 549.831 291.48 577.227 270.57 577.227H270.521C249.613 577.227 226.674 549.935 209.158 504.06C206.241 496.421 203.519 488.398 200.986 480.054C223.301 472.3 246.468 462.601 269.931 451.157C293.638 462.733 317.044 472.526 339.576 480.336C337.118 488.516 334.477 496.385 331.647 503.885ZM500.578 449.086C490.837 464.813 464.225 467.219 449.227 467.219C449.226 467.219 449.224 467.219 449.223 467.219C429.814 467.219 406.841 463.666 381.594 456.873C387.287 431.378 391.468 403.869 394.02 375.11C413.122 360.734 430.906 345.864 447.04 330.782C455.626 340.009 463.481 349.238 470.491 358.396C500.341 397.388 511.588 431.309 500.578 449.086Z" fill="#5278EB"/>
</svg>
