<?xml version="1.0" encoding="UTF-8" standalone="no"?>
<svg
   xmlns:dc="http://purl.org/dc/elements/1.1/"
   xmlns:cc="http://creativecommons.org/ns#"
   xmlns:rdf="http://www.w3.org/1999/02/22-rdf-syntax-ns#"
   xmlns:svg="http://www.w3.org/2000/svg"
   xmlns="http://www.w3.org/2000/svg"
   xmlns:sodipodi="http://sodipodi.sourceforge.net/DTD/sodipodi-0.dtd"
   xmlns:inkscape="http://www.inkscape.org/namespaces/inkscape"
   width="296"
   height="158.41"
   viewBox="0 0 298 160.41"
   version="1.1"
   id="svg891"
   sodipodi:docname="Purdue_logo.svg"
   inkscape:version="1.0.1 (1.0.1+r73)">
  <metadata
     id="metadata897">
    <rdf:RDF>
      <cc:Work
         rdf:about="">
        <dc:format>image/svg+xml</dc:format>
        <dc:type
           rdf:resource="http://purl.org/dc/dcmitype/StillImage" />
        <dc:title></dc:title>
      </cc:Work>
    </rdf:RDF>
  </metadata>
  <defs
     id="defs895" />
  <sodipodi:namedview
     pagecolor="#ffffff"
     bordercolor="#666666"
     borderopacity="1"
     objecttolerance="10"
     gridtolerance="10"
     guidetolerance="10"
     inkscape:pageopacity="0"
     inkscape:pageshadow="2"
     inkscape:window-width="1920"
     inkscape:window-height="1016"
     id="namedview893"
     showgrid="false"
     inkscape:zoom="2.7939189"
     inkscape:cx="148"
     inkscape:cy="79.205002"
     inkscape:window-x="0"
     inkscape:window-y="27"
     inkscape:window-maximized="1"
     inkscape:current-layer="svg891" />
  <path
     id="Shape"
     d="M 0.8054,159.61509 25.5917,101.25462 H 57.58856 L 75.38963,59.56857 H 43.39277 L 68.17907,1.2081 H 244.1618 c 15.54777,0 37.17945,1.80264 47.54463,17.35041 10.36518,15.54777 2.47863,33.7995 -2.2533,44.84067 -12.61848,29.51823 -30.87021,49.12194 -78.64017,49.12194 h -33.12351 l -19.82904,47.09397 z"
     style="stroke-width:2.2533" />
  <path
     d="M 282.69323,24.64242 C 277.05998,16.07988 264.89216,12.24927 244.38713,12.24927 H 75.38963 L 59.84186,48.97806 h 31.77153 l -26.81427,63.0924 H 32.80226 l -15.54777,36.72879 h 133.39536 l 15.54777,-36.72879 h -32.22219 l 4.28127,-10.13985 h 72.55626 c 46.64331,0 59.26179,-20.2797 68.72565,-42.58737 5.18259,-12.16782 9.68919,-24.7863 3.15462,-34.70082 z M 160.7897,48.97806 h 53.40321 c 3.83061,0 5.63325,0.90132 6.08391,1.57731 0.45066,0.45066 0.22533,2.02797 -0.67599,4.5066 -2.70396,6.30924 -9.23853,10.36518 -17.12508,10.36518 h -48.67128 z"
     fill="#9d9795"
     id="path885"
     style="stroke-width:2.2533" />
  <path
     d="M 244.38713,17.88252 H 79.22024 L 68.4044,43.34481 h 31.77153 L 68.4044,117.70371 H 36.63287 L 25.81703,143.166 h 121.22754 l 10.81584,-25.46229 h -32.44752 l 9.23853,-21.40635 h 76.38687 c 43.71402,0 54.75519,-18.47706 63.54306,-39.20742 8.78787,-20.73036 13.5198,-39.20742 -30.19422,-39.20742 z m -41.91138,52.95255 h -57.00849 l 11.71716,-27.49026 h 57.00849 c 10.13985,0 14.19579,5.18259 10.59051,13.74513 -3.83061,8.56254 -12.16782,13.74513 -22.30767,13.74513 z"
     fill="#cfb991"
     id="path887"
     style="stroke-width:2.2533;fill:#6c63ff;fill-opacity:1" />
</svg>
