<svg width="200" height="47" viewBox="0 0 200 47" fill="none" xmlns="http://www.w3.org/2000/svg">
<path d="M9.25876 34.3591C9.25876 35.2154 10.0794 35.7149 11.7206 35.8576C12.3629 35.8576 12.684 36.0539 12.684 36.4463C12.684 36.482 12.6483 36.7139 12.5769 37.1421C12.4699 37.6416 12.3629 37.9627 12.2558 38.1054C12.1488 38.2481 11.9169 38.3195 11.5601 38.3195C11.4887 38.3195 11.2746 38.3195 10.9178 38.3195C10.5611 38.3195 9.95451 38.3017 9.09821 38.266C8.2419 38.2303 7.10017 38.2125 5.673 38.2125C3.13977 38.2125 1.51637 38.2481 0.802783 38.3195H0.374632C0.124877 38.0697 0 37.8735 0 37.7308C0.0713585 36.7675 0.303274 36.1431 0.695745 35.8576H1.44501C3.94256 35.7506 5.7622 34.8586 6.90393 33.1817C7.11801 32.9676 10.347 27.5265 16.5908 16.8584C22.8347 6.19035 26.0102 0.784942 26.1172 0.642225C26.367 0.214074 26.7951 -1.07288e-06 27.4017 -1.07288e-06H27.8298H28.7396C28.9537 0.321112 29.0607 0.499508 29.0607 0.535188L30.5593 17.8218C31.5583 29.3462 32.0935 35.1619 32.1648 35.2689C32.3432 35.6614 33.5028 35.8576 35.6436 35.8576C36.5355 35.8576 36.9815 36.036 36.9815 36.3928C36.9815 36.4642 36.928 36.7139 36.821 37.1421C36.7139 37.6773 36.6247 37.9984 36.5534 38.1054C36.482 38.2125 36.2323 38.2838 35.8041 38.3195C35.6971 38.3195 35.4473 38.3195 35.0549 38.3195C34.6624 38.3195 33.9666 38.3017 32.9676 38.266C31.9686 38.2303 30.6663 38.2125 29.0607 38.2125C25.7069 38.2125 23.5126 38.2481 22.4779 38.3195H21.8357C21.6216 38.1054 21.5146 37.9449 21.5146 37.8378C21.5146 37.7308 21.5503 37.4097 21.6216 36.8745C21.7643 36.4107 21.8714 36.1252 21.9427 36.0182L22.1568 35.8576H23.2272C25.1539 35.7506 26.2956 35.4473 26.6524 34.9478L26.0102 26.92H13.2727L11.453 30.0241C9.99019 32.4859 9.25876 33.931 9.25876 34.3591ZM25.7426 24.4046C25.7426 24.0121 25.5285 21.2291 25.1003 16.0557C24.6722 10.8822 24.4224 8.27758 24.3511 8.2419L22.9061 10.5432C22.3352 11.5066 21.2113 13.4154 19.5344 16.2697L14.7177 24.4046L20.2301 24.4581C23.9051 24.4581 25.7426 24.4403 25.7426 24.4046Z" fill="black"/>
<path d="M40.2336 35.4122C40.4102 34.3527 41.0912 33.1293 42.2768 31.7419C43.4624 30.3545 44.9255 29.6482 46.666 29.623C47.5489 29.623 48.3561 29.85 49.0876 30.3041C49.8192 30.7581 50.3615 31.3257 50.7147 32.0068C51.7741 30.4176 53.048 29.623 54.5363 29.623C55.4696 29.623 56.2768 29.9005 56.9579 30.4554C57.639 31.0104 57.9921 31.7545 58.0174 32.6879C58.0174 33.4194 57.8408 34.0122 57.4876 34.4663C57.1345 34.9203 56.7939 35.1978 56.466 35.2987C56.1381 35.3996 55.848 35.45 55.5957 35.45C55.1165 35.45 54.7255 35.3113 54.4228 35.0338C54.1201 34.7563 53.9687 34.3906 53.9687 33.9365C53.9687 32.7762 54.5993 31.9816 55.8606 31.5527C55.5831 31.2248 55.0786 31.0608 54.3471 31.0608C54.0192 31.0608 53.7795 31.0861 53.6282 31.1365C52.6696 31.5401 51.9633 32.3726 51.5092 33.6338C49.9957 39.2086 49.239 42.4626 49.239 43.396C49.239 44.1023 49.4408 44.6068 49.8444 44.9095C50.248 45.2122 50.6894 45.3635 51.1687 45.3635C52.102 45.3635 53.0228 44.9473 53.9309 44.1149C54.839 43.2825 55.457 42.2608 55.7849 41.05C55.8606 40.7978 55.9363 40.659 56.012 40.6338C56.0876 40.6086 56.2894 40.5834 56.6174 40.5581H56.7687C57.1471 40.5581 57.3363 40.659 57.3363 40.8608C57.3363 40.8861 57.3111 41.0248 57.2606 41.2771C56.857 42.7149 56.075 43.9888 54.9147 45.0987C53.7543 46.2086 52.4047 46.7635 50.866 46.7635C49.1002 46.7635 47.7633 45.969 46.8552 44.3798C45.821 45.9437 44.6354 46.7257 43.2984 46.7257H43.0714C41.8354 46.7257 40.9525 46.3978 40.4228 45.7419C39.893 45.0861 39.6156 44.3924 39.5903 43.6608C39.5903 42.8536 39.83 42.1978 40.3093 41.6933C40.7885 41.1888 41.3561 40.9365 42.012 40.9365C43.0966 40.9365 43.639 41.4663 43.639 42.5257C43.639 43.0302 43.4876 43.4717 43.1849 43.85C42.8822 44.2284 42.5921 44.4807 42.3147 44.6068C42.0372 44.7329 41.8732 44.796 41.8228 44.796L41.7093 44.8338C41.7093 44.859 41.7849 44.9095 41.9363 44.9852C42.0876 45.0608 42.2894 45.1491 42.5417 45.25C42.7939 45.3509 43.0336 45.3888 43.2606 45.3635C44.1687 45.3635 44.9507 44.796 45.6065 43.6608C45.8336 43.2572 46.1237 42.3996 46.4768 41.0879C46.83 39.7762 47.1831 38.414 47.5363 37.0014C47.8894 35.5888 48.0912 34.7563 48.1417 34.5041C48.2678 33.823 48.3309 33.3311 48.3309 33.0284C48.3309 32.3221 48.1417 31.8176 47.7633 31.5149C47.3849 31.2122 46.9561 31.0608 46.4768 31.0608C45.4678 31.0608 44.5219 31.4645 43.639 32.2717C42.7561 33.0789 42.1381 34.1131 41.7849 35.3744C41.7345 35.6014 41.6714 35.7275 41.5957 35.7527C41.5201 35.778 41.3183 35.8032 40.9903 35.8284H40.4606C40.3093 35.6771 40.2336 35.5383 40.2336 35.4122Z" fill="black"/>
<path d="M80.396 21.247C80.396 19.7841 80.6993 18.464 81.3058 17.2866C81.9124 16.1092 82.6616 15.1994 83.5536 14.5571C84.4456 13.9149 85.3197 13.4154 86.176 13.0586C87.0323 12.7018 87.7816 12.5234 88.4238 12.5234C88.4952 12.5234 88.6379 12.5234 88.852 12.5234C89.0661 12.5234 89.2444 12.5056 89.3872 12.4699C90.7787 12.4699 92.0809 12.7375 93.294 13.2727C94.5071 13.8079 96.2376 14.789 98.4854 16.2162L101.161 17.9288C103.266 19.1776 105.229 19.802 107.048 19.802C109.046 19.802 110.759 19.2846 112.186 18.2499C113.613 17.2152 114.416 15.8059 114.595 14.0219C114.595 13.6295 114.666 13.2727 114.809 12.9516C114.951 12.6304 115.13 12.4699 115.344 12.4699C115.843 12.4699 116.093 13.0229 116.093 14.129C116.093 16.4838 115.255 18.5175 113.578 20.2301C111.901 21.9427 109.76 22.8169 107.155 22.8525C105.693 22.8525 104.141 22.4779 102.499 21.7287C100.858 20.9794 99.4309 20.1409 98.2178 19.2133C97.0047 18.2856 95.5775 17.4471 93.9363 16.6979C92.295 15.9486 90.7965 15.5561 89.4407 15.5205C87.2999 15.5205 85.5338 16.1092 84.1423 17.2866C82.7508 18.464 82.0016 19.802 81.8945 21.3005C81.8232 22.3352 81.5734 22.8525 81.1453 22.8525C80.6458 22.8525 80.396 22.3174 80.396 21.247ZM80.396 33.7704C80.396 32.3075 80.6993 30.9874 81.3058 29.81C81.9124 28.6326 82.6616 27.7228 83.5536 27.0805C84.4456 26.4383 85.3197 25.9388 86.176 25.582C87.0323 25.2252 87.7816 25.0468 88.4238 25.0468C88.4952 25.0468 88.6379 25.0468 88.852 25.0468C89.0661 25.0468 89.2444 25.029 89.3872 24.9933C90.7787 24.9933 92.0809 25.2609 93.294 25.7961C94.5071 26.3313 96.2376 27.3125 98.4854 28.7396L101.161 30.4522C103.266 31.701 105.229 32.3254 107.048 32.3254C109.046 32.3254 110.759 31.808 112.186 30.7733C113.613 29.7386 114.416 28.3293 114.595 26.5453C114.595 25.5107 114.844 24.9933 115.344 24.9933C115.843 24.9933 116.093 25.5642 116.093 26.7059C116.093 28.9894 115.255 31.0053 113.578 32.7535C111.901 34.5018 109.76 35.376 107.155 35.376C105.693 35.376 104.141 35.0013 102.499 34.2521C100.858 33.5028 99.4309 32.6643 98.2178 31.7367C97.0047 30.809 95.5775 29.9706 93.9363 29.2213C92.295 28.472 90.7965 28.0796 89.4407 28.0439C87.2999 28.0439 85.5338 28.6326 84.1423 29.81C82.7508 30.9874 82.0016 32.3254 81.8945 33.8239C81.7875 34.8586 81.5377 35.376 81.1453 35.376C80.6458 35.376 80.396 34.8408 80.396 33.7704Z" fill="black"/>
<path d="M139.791 15.3599C138.828 15.3599 138.061 15.0388 137.49 14.3966C136.919 13.7543 136.634 12.9694 136.634 12.0417C136.634 9.50852 137.579 7.31425 139.47 5.45893C141.361 3.6036 143.716 2.67594 146.535 2.67594C149.781 2.67594 152.493 3.67496 154.67 5.673C156.846 7.67104 157.952 10.2578 157.988 13.4332C157.988 14.9674 157.631 16.4303 156.917 17.8218C156.204 19.2133 155.347 20.4264 154.348 21.4611C153.349 22.4958 151.922 23.8159 150.067 25.4215C148.782 26.5275 146.998 28.1688 144.715 30.3452L141.557 33.3423L145.625 33.3958C151.226 33.3958 154.206 33.3066 154.562 33.1282C154.812 33.0568 155.24 31.4691 155.847 28.365V28.2044H157.988V28.365C157.952 28.472 157.72 30.0954 157.292 33.2352C156.864 36.375 156.596 38.0162 156.489 38.1589V38.3195H136.634V37.3026V36.6604C136.634 36.4107 136.741 36.1431 136.955 35.8576C137.169 35.5722 137.704 34.9478 138.56 33.9845C139.595 32.8427 140.487 31.8437 141.236 30.9874C141.557 30.6306 142.164 29.9706 143.056 29.0072C143.948 28.0439 144.554 27.3838 144.876 27.027C145.197 26.6702 145.714 26.0815 146.428 25.2609C147.141 24.4403 147.641 23.8337 147.926 23.4413C148.212 23.0488 148.622 22.5136 149.157 21.8357C149.692 21.1578 150.067 20.5869 150.281 20.1231C150.495 19.6593 150.763 19.1419 151.084 18.571C151.405 18.0002 151.637 17.4293 151.78 16.8584C151.922 16.2876 152.047 15.7524 152.154 15.2529C152.261 14.7534 152.315 14.1647 152.315 13.4868C152.315 11.239 151.708 9.29444 150.495 7.6532C149.282 6.01195 147.552 5.19133 145.304 5.19133C144.126 5.19133 143.092 5.4946 142.2 6.10115C141.308 6.7077 140.683 7.29641 140.326 7.86727C139.97 8.43814 139.791 8.77709 139.791 8.88413C139.791 8.91981 139.88 8.93765 140.059 8.93765C140.701 8.93765 141.361 9.18741 142.039 9.68691C142.717 10.1864 143.056 11.007 143.056 12.1488C143.056 13.0408 142.77 13.79 142.2 14.3966C141.629 15.0031 140.826 15.3242 139.791 15.3599Z" fill="black"/>
<path d="M164.892 35.1084C164.892 34.2521 165.195 33.5028 165.801 32.8606C166.408 32.2184 167.175 31.8972 168.103 31.8972C168.959 31.8972 169.708 32.1827 170.351 32.7535C170.993 33.3244 171.332 34.0915 171.367 35.0549C171.367 35.9468 171.064 36.7139 170.458 37.3562C169.851 37.9984 169.084 38.3195 168.156 38.3195C167.229 38.3195 166.461 38.0162 165.855 37.4097C165.248 36.8031 164.927 36.036 164.892 35.1084Z" fill="black"/>
<path d="M194.434 22.9596C192.721 25.6712 190.581 27.027 188.012 27.027C185.229 27.027 182.945 25.9745 181.161 23.8694C179.377 21.7643 178.307 19.5165 177.95 17.126C177.879 16.5552 177.843 15.8416 177.843 14.9853V14.5571C177.843 11.239 179.074 8.34894 181.536 5.88707C183.677 3.74632 186.032 2.67594 188.6 2.67594C188.672 2.67594 188.779 2.67594 188.922 2.67594C189.064 2.67594 189.207 2.69378 189.35 2.72946H189.564C189.992 2.72946 190.438 2.76514 190.902 2.8365C191.366 2.90786 192.026 3.12193 192.882 3.47872C193.738 3.83552 194.577 4.40638 195.397 5.19133C196.218 5.97627 196.985 7.02881 197.699 8.34894C199.233 11.4887 200 15.5205 200 20.4442C200 25.4393 198.93 29.6673 196.789 33.1282C195.54 35.1262 194.042 36.6783 192.293 37.7843C190.545 38.8904 188.69 39.4612 186.727 39.4969C184.551 39.4969 182.767 38.9796 181.375 37.9449C179.984 36.9102 179.27 35.376 179.235 33.3422C179.199 31.3085 180.144 30.3095 182.071 30.3452C182.856 30.3452 183.516 30.5949 184.051 31.0945C184.587 31.594 184.854 32.2897 184.854 33.1817C184.854 33.8239 184.694 34.3769 184.372 34.8408C184.051 35.3046 183.766 35.59 183.516 35.6971C183.266 35.8041 183.034 35.8933 182.82 35.9647L182.606 36.0182C182.606 36.0896 182.731 36.1966 182.981 36.3393C183.231 36.482 183.695 36.6604 184.372 36.8745C185.05 37.0886 185.8 37.1778 186.62 37.1421H186.941C189.082 37.1421 190.884 36.0004 192.347 33.7169C193.738 31.7188 194.434 28.258 194.434 23.3342V22.9596ZM188.654 25.0468C190.367 25.0468 191.74 24.1727 192.775 22.4244C193.81 20.6761 194.345 18.3034 194.38 15.3064C194.38 12.5234 194.238 10.5254 193.952 9.31228C193.881 8.95549 193.774 8.59869 193.631 8.2419C193.488 7.88511 193.239 7.42128 192.882 6.85041C192.525 6.27954 191.99 5.79787 191.276 5.4054C190.563 5.01293 189.724 4.83454 188.761 4.87021C187.405 4.87021 186.246 5.35188 185.282 6.31522C184.533 7.10017 184.051 8.02783 183.837 9.0982C183.623 10.1686 183.498 12.0417 183.463 14.7177C183.463 17.6791 183.552 19.6771 183.73 20.7118C183.909 21.7465 184.265 22.585 184.801 23.2272C185.693 24.4403 186.977 25.0468 188.654 25.0468Z" fill="black"/>
</svg>
