<svg width="200" height="41" viewBox="0 0 200 41" fill="none" xmlns="http://www.w3.org/2000/svg">
<path d="M5.48858 28.5533C5.48858 29.0609 5.97504 29.357 6.94797 29.4416C7.32868 29.4416 7.51904 29.558 7.51904 29.7906C7.51904 29.8118 7.49789 29.9492 7.45558 30.203C7.39213 30.4992 7.32868 30.6895 7.26523 30.7741C7.20178 30.8587 7.0643 30.901 6.85279 30.901C6.81049 30.901 6.68359 30.901 6.47208 30.901C6.26058 30.901 5.90102 30.8904 5.3934 30.8693C4.88579 30.8481 4.20897 30.8376 3.36294 30.8376C1.86125 30.8376 0.8989 30.8587 0.475888 30.901H0.222081C0.0740271 30.753 0 30.6366 0 30.552C0.0423012 29.981 0.17978 29.6108 0.412437 29.4416H0.856599C2.33714 29.3782 3.41582 28.8494 4.09264 27.8553C4.21954 27.7284 6.13367 24.503 9.83503 18.1789C13.5364 11.8549 15.4188 8.65059 15.4822 8.56599C15.6303 8.31218 15.8841 8.18528 16.2437 8.18528H16.4975H17.0368C17.1637 8.37563 17.2272 8.48139 17.2272 8.50254L18.1155 18.75C18.7077 25.5816 19.025 29.0292 19.0673 29.0926C19.173 29.3253 19.8604 29.4416 21.1294 29.4416C21.6582 29.4416 21.9226 29.5474 21.9226 29.7589C21.9226 29.8012 21.8909 29.9492 21.8274 30.203C21.764 30.5203 21.7111 30.7107 21.6688 30.7741C21.6265 30.8376 21.4784 30.8799 21.2246 30.901C21.1612 30.901 21.0131 30.901 20.7805 30.901C20.5478 30.901 20.1354 30.8904 19.5431 30.8693C18.9509 30.8481 18.1789 30.8376 17.2272 30.8376C15.239 30.8376 13.9382 30.8587 13.3249 30.901H12.9442C12.8173 30.7741 12.7538 30.6789 12.7538 30.6155C12.7538 30.552 12.775 30.3617 12.8173 30.0444C12.9019 29.7695 12.9653 29.6003 13.0076 29.5368L13.1345 29.4416H13.769C14.9112 29.3782 15.588 29.1984 15.7995 28.9023L15.4188 24.1434H7.86802L6.78934 25.9835C5.92217 27.4429 5.48858 28.2995 5.48858 28.5533ZM15.2602 22.6523C15.2602 22.4196 15.1332 20.7699 14.8794 17.703C14.6256 14.6362 14.4776 13.0922 14.4353 13.0711L13.5787 14.4353C13.2403 15.0063 12.574 16.1379 11.58 17.8299L8.72462 22.6523L11.9924 22.684C14.1709 22.684 15.2602 22.6734 15.2602 22.6523Z" fill="black"/>
<path d="M23.155 29.2224C23.155 29.0131 23.2672 28.6542 23.4915 28.1458C23.7158 27.6374 24.0747 27.1065 24.5681 26.5532C25.0616 26 25.6149 25.7308 26.228 25.7457C26.8411 25.7457 27.3345 25.9177 27.7084 26.2616C28.0822 26.6056 28.2766 27.0841 28.2915 27.6972C28.2616 27.9813 28.2392 28.1383 28.2243 28.1682C28.2243 28.2131 28.1046 28.557 27.8654 29.2C27.6261 29.843 27.3794 30.5682 27.1252 31.3757C26.871 32.1832 26.7513 32.8262 26.7663 33.3047C26.7663 33.9477 26.871 34.3963 27.0803 34.6505C27.2897 34.9047 27.6037 35.0393 28.0224 35.0543C28.3663 35.0543 28.6878 34.972 28.9869 34.8075C29.286 34.6431 29.5177 34.4711 29.6822 34.2917C29.8467 34.1122 30.0486 33.8655 30.2878 33.5515C30.2878 33.5365 30.3252 33.387 30.4 33.1029C30.4748 32.8187 30.5794 32.3776 30.714 31.7795C30.8486 31.1813 30.9906 30.6281 31.1402 30.1196C31.7084 27.8766 32.0224 26.7028 32.0823 26.5981C32.2766 26.1943 32.5981 25.9925 33.0467 25.9925C33.2411 25.9925 33.3982 26.0448 33.5178 26.1495C33.6374 26.2542 33.7197 26.3439 33.7645 26.4187C33.8094 26.4934 33.8243 26.5607 33.8094 26.6205C33.8094 26.8149 33.443 28.385 32.7103 31.3309C31.9776 34.2767 31.5589 35.8917 31.4542 36.1758C31.0355 37.4169 30.3103 38.4039 29.2785 39.1366C28.2467 39.8693 27.2149 40.2431 26.1831 40.2581C25.5102 40.2581 24.9195 40.0936 24.4111 39.7646C23.9027 39.4356 23.6485 38.9422 23.6485 38.2842C23.6485 37.9553 23.7008 37.6786 23.8055 37.4543C23.9102 37.23 24.0522 37.0655 24.2317 36.9608C24.4111 36.8562 24.5607 36.7814 24.6803 36.7365C24.7999 36.6917 24.927 36.6693 25.0616 36.6693C25.7195 36.6693 26.0485 36.9833 26.0485 37.6113C26.0485 37.9104 25.9588 38.1721 25.7794 38.3964C25.5999 38.6207 25.428 38.7702 25.2635 38.845C25.099 38.9198 25.0018 38.9571 24.9719 38.9571L24.9046 38.9796C24.9345 39.0543 25.0766 39.1441 25.3308 39.2487C25.585 39.3534 25.8392 39.4057 26.0934 39.4057H26.2728C26.527 39.4057 26.7214 39.3908 26.856 39.3609C27.3495 39.2263 27.8056 38.9422 28.2243 38.5085C28.643 38.0749 28.9645 37.6113 29.1888 37.1179C29.4131 36.6244 29.585 36.2057 29.7046 35.8618C29.8243 35.5178 29.8841 35.2935 29.8841 35.1889L29.7495 35.2786C29.6598 35.3384 29.5177 35.4206 29.3233 35.5253C29.1289 35.63 28.9345 35.7197 28.7402 35.7945C28.4411 35.8692 28.1495 35.9066 27.8654 35.9066C27.1775 35.9066 26.5719 35.7421 26.0485 35.4132C25.5252 35.0842 25.1812 34.5533 25.0167 33.8206C25.0018 33.7159 24.9943 33.4842 24.9943 33.1253C24.9943 32.2729 25.256 31.1589 25.7794 29.7832C26.3027 28.4075 26.5644 27.5327 26.5644 27.1588C26.5644 27.1439 26.5644 27.1289 26.5644 27.114C26.5644 26.9794 26.5644 26.8897 26.5644 26.8448C26.5644 26.8 26.5345 26.7476 26.4747 26.6878C26.4149 26.628 26.3326 26.5981 26.228 26.5981H26.1382C25.7943 26.5981 25.4803 26.7401 25.1962 27.0243C24.9121 27.3084 24.6878 27.6149 24.5233 27.9439C24.3588 28.2729 24.2317 28.5869 24.142 28.886C24.0522 29.185 23.9924 29.3495 23.9625 29.3794C23.9326 29.4093 23.813 29.4243 23.6036 29.4243H23.2896C23.1999 29.3346 23.155 29.2673 23.155 29.2224Z" fill="black"/>
<path d="M45.8534 19.8921C45.8534 19.6172 46.0014 19.4057 46.2976 19.2576H66.5069C66.8242 19.4268 66.9828 19.6383 66.9828 19.8921C66.9828 20.1248 66.8348 20.3257 66.5387 20.4949L56.4498 20.5266H46.361C46.0226 20.4209 45.8534 20.2094 45.8534 19.8921ZM45.8534 26.047C45.8534 25.7297 46.0226 25.5182 46.361 25.4124H66.5387C66.8348 25.6239 66.9828 25.8354 66.9828 26.047C66.9828 26.3219 66.8242 26.5334 66.5069 26.6815H46.2976C46.0014 26.5334 45.8534 26.3219 45.8534 26.047Z" fill="black"/>
<path d="M81.9797 38.8008H81.9162C81.6624 38.8008 81.4721 38.6527 81.3452 38.3566V22.9378L81.3769 7.51903C81.5884 7.24407 81.7893 7.10659 81.9797 7.10659C82.2546 7.10659 82.4661 7.26522 82.6142 7.58248V38.3566C82.445 38.6527 82.2546 38.8008 82.0431 38.8008H81.9797Z" fill="black"/>
<path d="M92.9886 28.5533C92.9886 29.0609 93.475 29.357 94.448 29.4416C94.8287 29.4416 95.019 29.558 95.019 29.7906C95.019 29.8118 94.9979 29.9492 94.9556 30.203C94.8921 30.4992 94.8287 30.6895 94.7652 30.7741C94.7018 30.8587 94.5643 30.901 94.3528 30.901C94.3105 30.901 94.1836 30.901 93.9721 30.901C93.7606 30.901 93.401 30.8904 92.8934 30.8693C92.3858 30.8481 91.709 30.8376 90.8629 30.8376C89.3613 30.8376 88.3989 30.8587 87.9759 30.901H87.7221C87.574 30.753 87.5 30.6366 87.5 30.552C87.5423 29.981 87.6798 29.6108 87.9124 29.4416H88.3566C89.8371 29.3782 90.9158 28.8494 91.5926 27.8553C91.7195 27.7284 93.6337 24.503 97.335 18.1789C101.036 11.8549 102.919 8.65059 102.982 8.56599C103.13 8.31218 103.384 8.18528 103.744 8.18528H103.997H104.537C104.664 8.37563 104.727 8.48139 104.727 8.50254L105.615 18.75C106.208 25.5816 106.525 29.0292 106.567 29.0926C106.673 29.3253 107.36 29.4416 108.629 29.4416C109.158 29.4416 109.423 29.5474 109.423 29.7589C109.423 29.8012 109.391 29.9492 109.327 30.203C109.264 30.5203 109.211 30.7107 109.169 30.7741C109.126 30.8376 108.978 30.8799 108.725 30.901C108.661 30.901 108.513 30.901 108.28 30.901C108.048 30.901 107.635 30.8904 107.043 30.8693C106.451 30.8481 105.679 30.8376 104.727 30.8376C102.739 30.8376 101.438 30.8587 100.825 30.901H100.444C100.317 30.7741 100.254 30.6789 100.254 30.6155C100.254 30.552 100.275 30.3617 100.317 30.0444C100.402 29.7695 100.465 29.6003 100.508 29.5368L100.635 29.4416H101.269C102.411 29.3782 103.088 29.1984 103.299 28.9023L102.919 24.1434H95.368L94.2893 25.9835C93.4222 27.4429 92.9886 28.2995 92.9886 28.5533ZM102.76 22.6523C102.76 22.4196 102.633 20.7699 102.379 17.703C102.126 14.6362 101.978 13.0922 101.935 13.0711L101.079 14.4353C100.74 15.0063 100.074 16.1379 99.08 17.8299L96.2246 22.6523L99.4924 22.684C101.671 22.684 102.76 22.6734 102.76 22.6523Z" fill="black"/>
<path d="M106.726 0.63453C106.726 0.465325 106.779 0.317271 106.885 0.190367C106.99 0.0634637 107.149 1.18762e-05 107.36 1.18762e-05C107.508 1.18762e-05 107.635 0.0528884 107.741 0.158641C107.847 0.243244 107.953 0.444174 108.058 0.761433C108.27 1.54401 108.703 2.1468 109.359 2.56981C109.592 2.71786 109.708 2.90822 109.708 3.14088C109.708 3.33123 109.676 3.45813 109.613 3.52159C109.55 3.58504 109.401 3.68022 109.169 3.80712C108.259 4.27243 107.466 4.93868 106.789 5.80585C106.747 5.84815 106.694 5.9116 106.631 5.99621C106.567 6.08081 106.514 6.14426 106.472 6.18656C106.43 6.22886 106.377 6.25001 106.313 6.25001C106.25 6.25001 106.176 6.26059 106.091 6.28174C105.943 6.28174 105.806 6.22886 105.679 6.12311C105.552 6.01736 105.478 5.85873 105.457 5.64722C105.457 5.24536 105.954 4.62142 106.948 3.77539H101.523L96.0977 3.74367C95.8228 3.55331 95.6853 3.35238 95.6853 3.14088C95.6853 2.99282 95.8228 2.78131 96.0977 2.50636H107.487C106.98 1.70263 106.726 1.07869 106.726 0.63453Z" fill="black"/>
<path d="M115.038 38.8008H114.975C114.721 38.8008 114.53 38.6527 114.404 38.3566V22.9378L114.435 7.51903C114.647 7.24407 114.848 7.10659 115.038 7.10659C115.313 7.10659 115.525 7.26522 115.673 7.58248V38.3566C115.503 38.6527 115.313 38.8008 115.102 38.8008H115.038Z" fill="black"/>
<path d="M120.527 25.8566C120.527 23.5512 121.436 21.4784 123.255 19.6383C125.074 17.7982 127.041 16.8782 129.156 16.8782C130.341 16.8782 131.271 17.132 131.948 17.6396C132.625 18.1472 132.974 18.8134 132.995 19.6383C132.995 20.2517 132.794 20.7699 132.392 21.1929C131.99 21.6159 131.483 21.838 130.869 21.8591C130.467 21.8591 130.15 21.7534 129.918 21.5419C129.685 21.3304 129.569 21.0131 129.569 20.5901C129.569 20.1671 129.685 19.8075 129.918 19.5114C130.15 19.2153 130.383 18.9932 130.616 18.8452C130.848 18.6971 130.996 18.6337 131.06 18.6548H131.091C131.091 18.6125 131.028 18.5491 130.901 18.4645C130.774 18.3799 130.552 18.2953 130.235 18.2107C129.918 18.126 129.558 18.0837 129.156 18.0837C128.522 18.0837 127.919 18.2318 127.348 18.5279C126.904 18.7183 126.449 19.0461 125.984 19.5114C125.053 20.442 124.376 21.7534 123.953 23.4454C123.53 25.1375 123.308 26.3642 123.287 27.1256C123.287 28.0986 123.562 28.8283 124.112 29.3147C124.577 29.8223 125.19 30.0761 125.952 30.0761H126.079C128.448 30.0761 130.404 29.1772 131.948 27.3794C132.138 27.1679 132.265 27.0622 132.329 27.0622C132.413 27.0622 132.551 27.1574 132.741 27.3477C132.931 27.5381 133.037 27.6861 133.058 27.7919C133.08 27.8976 132.984 28.0563 132.773 28.2678C132.561 28.4793 132.255 28.7754 131.853 29.1561C131.451 29.5368 130.975 29.8541 130.425 30.1079C129.875 30.3617 129.198 30.6261 128.395 30.901C127.591 31.176 126.745 31.2923 125.857 31.25C124.27 31.25 122.991 30.7424 122.018 29.7272C121.045 28.7119 120.548 27.4217 120.527 25.8566Z" fill="black"/>
<path d="M139.562 31.25C137.976 31.25 136.696 30.7318 135.723 29.6954C134.75 28.6591 134.264 27.4112 134.264 25.9518C134.264 24.577 134.581 23.2762 135.216 22.0495C135.85 20.8228 136.717 19.7547 137.817 18.8452C139.425 17.555 141.064 16.9099 142.735 16.9099C143.412 16.9099 143.835 16.9205 144.004 16.9416C144.279 17.0051 144.554 17.0791 144.829 17.1637C145.104 17.2483 145.474 17.4175 145.939 17.6713C146.404 17.9251 146.785 18.2424 147.081 18.6231C147.377 19.0038 147.652 19.522 147.906 20.1777C148.16 20.8333 148.287 21.5736 148.287 22.3985C148.287 24.6616 147.377 26.7026 145.558 28.5216C143.739 30.3405 141.741 31.25 139.562 31.25ZM137.024 27.0939C137.024 28.1514 137.299 28.9129 137.849 29.3782C138.399 29.8435 139.023 30.0761 139.721 30.0761C140.651 30.0761 141.529 29.7377 142.354 29.0609C143.179 28.3841 143.835 27.4958 144.321 26.3959C144.511 25.9518 144.755 25.1692 145.051 24.0482C145.347 22.9272 145.495 21.9543 145.495 21.1294C145.495 20.1988 145.305 19.4903 144.924 19.0038C144.416 18.3693 143.739 18.052 142.893 18.052C141.561 18.052 140.387 18.6654 139.372 19.8921C138.589 20.8228 138.008 22.0601 137.627 23.6041C137.246 25.1481 137.045 26.3113 137.024 27.0939Z" fill="black"/>
<path d="M152.728 21.7322C152.728 21.0554 152.898 20.368 153.236 19.67C153.574 18.9721 154.167 18.327 155.013 17.7348C155.859 17.1425 156.884 16.857 158.09 16.8782C159.401 16.8782 160.353 17.1637 160.945 17.7348C161.538 18.3058 161.844 18.9403 161.865 19.6383C161.865 20.3151 161.686 20.8122 161.326 21.1294C160.967 21.4467 160.565 21.6159 160.121 21.637C159.846 21.637 159.592 21.5524 159.359 21.3832C159.126 21.214 159 20.9391 158.978 20.5584C158.978 20.22 159.074 19.9238 159.264 19.67C159.454 19.4162 159.634 19.2259 159.803 19.099C159.972 18.9721 160.11 18.9086 160.216 18.9086C160.237 18.9086 160.247 18.898 160.247 18.8769C160.247 18.8134 160.173 18.7183 160.025 18.5914C159.877 18.4645 159.613 18.3481 159.232 18.2424C158.851 18.1366 158.439 18.0732 157.995 18.052C156.98 18.052 156.239 18.327 155.774 18.8769C155.309 19.4268 155.066 19.9873 155.044 20.5584C155.044 21.0871 155.245 21.4573 155.647 21.6688C156.049 21.8803 156.631 22.0601 157.392 22.2081C158.154 22.3562 158.703 22.5148 159.042 22.684C160.438 23.2974 161.136 24.3126 161.136 25.7297C161.136 26.3219 161.019 26.9141 160.787 27.5063C160.554 28.0985 160.205 28.6908 159.74 29.283C159.275 29.8752 158.608 30.3405 157.741 30.6789C156.874 31.0173 155.88 31.1971 154.759 31.2183C153.13 31.2183 151.978 30.9116 151.301 30.2982C150.624 29.6848 150.275 28.9657 150.254 28.1409C150.254 27.316 150.476 26.7238 150.92 26.3642C151.364 26.0046 151.83 25.8249 152.316 25.8249C152.633 25.8249 152.929 25.92 153.204 26.1104C153.479 26.3007 153.627 26.6286 153.648 27.0939C153.648 27.6438 153.458 28.1091 153.077 28.4898C152.697 28.8705 152.369 29.0609 152.094 29.0609C152.052 29.0821 152.02 29.0926 151.999 29.0926C151.978 29.0926 151.967 29.1138 151.967 29.1561C151.988 29.2195 152.073 29.3041 152.221 29.4099C152.369 29.5156 152.697 29.6531 153.204 29.8223C153.712 29.9915 154.294 30.0656 154.949 30.0444C155.711 30.0444 156.366 29.9281 156.916 29.6954C157.466 29.4628 157.868 29.1667 158.122 28.8071C158.376 28.4475 158.555 28.1197 158.661 27.8236C158.767 27.5275 158.82 27.2631 158.82 27.0304C158.82 26.4382 158.598 25.9941 158.154 25.698C157.709 25.4018 157.202 25.2221 156.631 25.1586C156.06 25.0952 155.436 24.9365 154.759 24.6827C154.082 24.4289 153.585 24.0588 153.268 23.5723C152.908 23.0436 152.728 22.4302 152.728 21.7322Z" fill="black"/>
<path d="M166.434 22.9695C166.434 21.5102 166.54 20.1248 166.751 18.8135C166.963 17.5021 167.206 16.3706 167.481 15.4188C167.756 14.467 168.147 13.5364 168.655 12.6269C169.162 11.7174 169.564 11.0089 169.86 10.5013C170.157 9.99365 170.601 9.44374 171.193 8.85152C171.785 8.25931 172.134 7.89975 172.24 7.77284C172.346 7.64594 172.61 7.42386 173.033 7.1066H173.445H173.572C173.868 7.1066 174.017 7.20178 174.017 7.39213C174.017 7.45558 173.837 7.67766 173.477 8.05837C173.118 8.43909 172.684 8.99958 172.176 9.73985C171.669 10.4801 171.151 11.3896 170.622 12.4683C170.093 13.547 169.649 15.0063 169.289 16.8464C168.93 18.6865 168.75 20.7276 168.75 22.9695C168.75 25.2115 168.93 27.242 169.289 29.0609C169.649 30.8799 170.082 32.3498 170.59 33.4708C171.098 34.5918 171.616 35.5013 172.145 36.1992C172.673 36.8972 173.118 37.4577 173.477 37.8807C173.837 38.3037 174.017 38.5258 174.017 38.547C174.017 38.7373 173.858 38.8325 173.541 38.8325H173.445H173.033L172.145 38.0711C170.157 36.2733 168.708 34.0313 167.798 31.3452C166.889 28.6591 166.434 25.8672 166.434 22.9695Z" fill="black"/>
<path d="M176.904 24.5558C176.904 22.3985 177.316 20.1248 178.141 17.7348C178.966 15.3447 180.087 13.2826 181.504 11.5482C182.921 9.81386 184.391 8.81978 185.914 8.56598C185.935 8.56598 186.019 8.56598 186.168 8.56598C186.316 8.56598 186.442 8.5554 186.548 8.53425C187.69 8.61885 188.579 9.13704 189.213 10.0888C190.038 11.3579 190.451 13.0605 190.451 15.1967C190.451 17.629 189.975 20.1036 189.023 22.6205C188.071 25.1375 186.855 27.1996 185.374 28.8071C183.894 30.4145 182.477 31.2183 181.123 31.2183H180.901C180.14 31.2183 179.484 31.0068 178.934 30.5837C178.384 30.1607 177.972 29.6002 177.697 28.9023C177.422 28.2043 177.221 27.4958 177.094 26.7766C176.967 26.0575 176.904 25.3172 176.904 24.5558ZM187.944 12.9441C187.944 10.7868 187.384 9.70811 186.263 9.70811C185.501 9.70811 184.761 10.184 184.042 11.1358C183.323 12.0875 182.731 13.1662 182.265 14.3718C181.8 15.5774 181.44 16.6349 181.187 17.5444C180.933 18.4539 180.795 18.9826 180.774 19.1307C181.811 19.1518 182.836 19.1624 183.852 19.1624L186.929 19.1307C186.95 19.1095 187.035 18.7606 187.183 18.0837C187.331 17.4069 187.5 16.5609 187.69 15.5457C187.881 14.5304 187.965 13.6633 187.944 12.9441ZM179.378 26.7132C179.378 28.9551 179.939 30.0761 181.06 30.0761C181.377 30.0761 181.715 29.9704 182.075 29.7589C182.434 29.5474 182.868 29.1455 183.376 28.5533C183.883 27.9611 184.391 27.041 184.898 25.7931C185.406 24.5452 185.914 23.0013 186.421 21.1612L186.58 20.6218H180.393C180.393 20.6853 180.298 21.0871 180.108 21.8274C179.918 22.5677 179.748 23.3925 179.6 24.302C179.452 25.2115 179.378 26.0152 179.378 26.7132Z" fill="black"/>
<path d="M192.576 7.13832L192.703 7.1066C192.809 7.1066 192.915 7.1066 193.02 7.1066H193.401L194.289 7.86802C196.277 9.66582 197.726 11.9078 198.636 14.5939C199.545 17.28 200 20.0719 200 22.9695C200 24.4078 199.894 25.7931 199.683 27.1256C199.471 28.4581 199.228 29.5897 198.953 30.5203C198.678 31.4509 198.287 32.3816 197.779 33.3122C197.272 34.2428 196.87 34.9514 196.574 35.4378C196.277 35.9243 195.844 36.4636 195.273 37.0558C194.702 37.6481 194.363 37.997 194.258 38.1028C194.152 38.2085 193.909 38.4095 193.528 38.7056C193.464 38.769 193.422 38.8113 193.401 38.8325H193.02C192.851 38.8325 192.735 38.8325 192.671 38.8325C192.608 38.8325 192.555 38.8008 192.513 38.7373C192.47 38.6739 192.439 38.5787 192.417 38.4518C192.439 38.4306 192.555 38.2931 192.766 38.0393C196.045 34.6341 197.684 29.6108 197.684 22.9695C197.684 16.3283 196.045 11.305 192.766 7.89975C192.555 7.64594 192.439 7.50846 192.417 7.48731C192.417 7.3181 192.47 7.20178 192.576 7.13832Z" fill="black"/>
</svg>
