<svg width="47" height="79" viewBox="0 0 47 79" fill="none" xmlns="http://www.w3.org/2000/svg">
<path d="M0 55.3945C0 47.9355 1.426 40.0742 4.27799 31.8107C7.12999 23.5472 11.0058 16.4173 15.9054 10.4208C20.8049 4.42425 25.8873 0.987228 31.1526 0.109695C31.2257 0.109695 31.5182 0.109695 32.0301 0.109695C32.542 0.109695 32.9808 0.0731277 33.3464 0C37.2953 0.292511 40.3667 2.08415 42.5606 5.37492C45.4125 9.7626 46.8385 15.6494 46.8385 23.0353C46.8385 31.4451 45.1932 40.0011 41.9024 48.7033C38.6116 57.4055 34.4068 64.5355 29.2878 70.0933C24.1688 75.651 19.2693 78.4299 14.5891 78.4299H13.8212C11.1886 78.4299 8.92163 77.6986 7.0203 76.236C5.11897 74.7735 3.69297 72.8356 2.7423 70.4223C1.79164 68.0091 1.09692 65.5593 0.658153 63.073C0.219384 60.5866 0 58.0271 0 55.3945ZM38.1729 15.2472C38.1729 7.78814 36.235 4.05861 32.3592 4.05861C29.7266 4.05861 27.1671 5.70399 24.6807 8.99475C22.1944 12.2855 20.1468 16.015 18.538 20.1833C16.9292 24.3517 15.686 28.0081 14.8084 31.1526C13.9309 34.2971 13.4556 36.1253 13.3824 36.6372C16.9657 36.7103 20.5124 36.7469 24.0226 36.7469L34.6627 36.6372C34.7358 36.564 35.0284 35.3574 35.5403 33.0173C36.0522 30.6772 36.6372 27.7521 37.2953 24.242C37.9535 20.7318 38.246 17.7336 38.1729 15.2472ZM8.55599 62.8536C8.55599 70.6052 10.4939 74.481 14.3697 74.481C15.4666 74.481 16.6366 74.1153 17.8798 73.384C19.123 72.6528 20.6221 71.2633 22.3772 69.2157C24.1323 67.1681 25.8873 63.9871 27.6424 59.6725C29.3975 55.358 31.1526 50.0196 32.9076 43.6575L33.4561 41.7927H12.0661C12.0661 42.0121 11.7371 43.4015 11.0789 45.961C10.4208 48.5205 9.83573 51.3725 9.32383 54.517C8.81194 57.6615 8.55599 60.4404 8.55599 62.8536Z" fill="black"/>
</svg>
