<svg width="1102" height="756" viewBox="0 0 1102 756" fill="none" xmlns="http://www.w3.org/2000/svg">
<path d="M540 402.395C540 394.935 541.426 387.074 544.278 378.811C547.13 370.547 551.006 363.417 555.905 357.421C560.805 351.424 565.887 347.987 571.153 347.11C571.226 347.11 571.518 347.11 572.03 347.11C572.542 347.11 572.981 347.073 573.346 347C577.295 347.293 580.367 349.084 582.561 352.375C585.413 356.763 586.839 362.649 586.839 370.035C586.839 378.445 585.193 387.001 581.902 395.703C578.612 404.406 574.407 411.536 569.288 417.093C564.169 422.651 559.269 425.43 554.589 425.43H553.821C551.189 425.43 548.922 424.699 547.02 423.236C545.119 421.773 543.693 419.836 542.742 417.422C541.792 415.009 541.097 412.559 540.658 410.073C540.219 407.587 540 405.027 540 402.395ZM578.173 362.247C578.173 354.788 576.235 351.059 572.359 351.059C569.727 351.059 567.167 352.704 564.681 355.995C562.194 359.286 560.147 363.015 558.538 367.183C556.929 371.352 555.686 375.008 554.808 378.153C553.931 381.297 553.456 383.125 553.382 383.637C556.966 383.71 560.512 383.747 564.023 383.747L574.663 383.637C574.736 383.564 575.028 382.357 575.54 380.017C576.052 377.677 576.637 374.752 577.295 371.242C577.953 367.732 578.246 364.734 578.173 362.247ZM548.556 409.854C548.556 417.605 550.494 421.481 554.37 421.481C555.467 421.481 556.637 421.115 557.88 420.384C559.123 419.653 560.622 418.263 562.377 416.216C564.132 414.168 565.887 410.987 567.642 406.673C569.397 402.358 571.153 397.02 572.908 390.657L573.456 388.793H552.066C552.066 389.012 551.737 390.402 551.079 392.961C550.421 395.52 549.836 398.372 549.324 401.517C548.812 404.661 548.556 407.44 548.556 409.854Z" fill="black"/>
<g filter="url(#filter0_d_103_47)">
<path d="M1006.47 596.475C1007.84 595.108 1007.84 592.892 1006.47 591.525L984.201 569.251C982.834 567.884 980.618 567.884 979.251 569.251C977.884 570.618 977.884 572.834 979.251 574.201L999.05 594L979.251 613.799C977.884 615.166 977.884 617.382 979.251 618.749C980.618 620.116 982.834 620.116 984.201 618.749L1006.47 596.475ZM4 597.5H1004V590.5H4V597.5Z" fill="black"/>
</g>
<g filter="url(#filter1_d_103_47)">
<path d="M506.475 91.5251C505.108 90.1583 502.892 90.1583 501.525 91.5251L479.251 113.799C477.884 115.166 477.884 117.382 479.251 118.749C480.618 120.116 482.834 120.116 484.201 118.749L504 98.9498L523.799 118.749C525.166 120.116 527.382 120.116 528.749 118.749C530.116 117.382 530.116 115.166 528.749 113.799L506.475 91.5251ZM507.5 748L507.5 94H500.5L500.5 748H507.5Z" fill="black"/>
</g>
<path d="M1053.75 586.924C1054.22 583.834 1056.07 580.265 1059.29 576.218C1062.51 572.171 1066.48 570.111 1071.2 570.037C1073.59 570.037 1075.79 570.699 1077.77 572.024C1079.75 573.348 1081.23 575.004 1082.18 576.991C1085.06 572.355 1088.52 570.037 1092.55 570.037C1095.09 570.037 1097.28 570.846 1099.13 572.465C1100.97 574.084 1101.93 576.255 1102 578.977C1102 581.111 1101.52 582.841 1100.56 584.165C1099.6 585.49 1098.68 586.299 1097.79 586.593C1096.9 586.888 1096.11 587.035 1095.43 587.035C1094.13 587.035 1093.07 586.63 1092.25 585.821C1091.43 585.011 1091.01 583.944 1091.01 582.62C1091.01 579.235 1092.73 576.917 1096.15 575.666C1095.39 574.71 1094.03 574.231 1092.04 574.231C1091.15 574.231 1090.5 574.305 1090.09 574.452C1087.49 575.629 1085.57 578.058 1084.34 581.737C1080.23 597.999 1078.18 607.491 1078.18 610.214C1078.18 612.274 1078.73 613.746 1079.82 614.629C1080.92 615.512 1082.12 615.953 1083.42 615.953C1085.95 615.953 1088.45 614.739 1090.91 612.311C1093.38 609.882 1095.05 606.902 1095.94 603.37C1096.15 602.634 1096.35 602.23 1096.56 602.156C1096.76 602.083 1097.31 602.009 1098.2 601.935H1098.61C1099.64 601.935 1100.15 602.23 1100.15 602.818C1100.15 602.892 1100.08 603.297 1099.95 604.033C1098.85 608.227 1096.73 611.943 1093.58 615.18C1090.43 618.418 1086.77 620.037 1082.6 620.037C1077.8 620.037 1074.18 617.719 1071.71 613.083C1068.91 617.646 1065.69 619.927 1062.06 619.927H1061.45C1058.09 619.927 1055.7 618.97 1054.26 617.057C1052.82 615.144 1052.07 613.12 1052 610.986C1052 608.632 1052.65 606.718 1053.95 605.247C1055.25 603.775 1056.79 603.039 1058.57 603.039C1061.51 603.039 1062.99 604.584 1062.99 607.675C1062.99 609.147 1062.57 610.434 1061.75 611.538C1060.93 612.642 1060.15 613.378 1059.39 613.746C1058.64 614.114 1058.19 614.297 1058.06 614.297L1057.75 614.408C1057.75 614.481 1057.95 614.629 1058.37 614.849C1058.78 615.07 1059.32 615.328 1060.01 615.622C1060.69 615.916 1061.34 616.027 1061.96 615.953C1064.42 615.953 1066.54 614.297 1068.32 610.986C1068.94 609.809 1069.73 607.307 1070.69 603.481C1071.64 599.654 1072.6 595.681 1073.56 591.56C1074.52 587.439 1075.07 585.011 1075.2 584.275C1075.55 582.289 1075.72 580.854 1075.72 579.971C1075.72 577.91 1075.2 576.439 1074.18 575.556C1073.15 574.673 1071.99 574.231 1070.69 574.231C1067.95 574.231 1065.38 575.409 1062.99 577.763C1060.59 580.118 1058.91 583.135 1057.95 586.814C1057.82 587.476 1057.65 587.844 1057.44 587.918C1057.24 587.991 1056.69 588.065 1055.8 588.139H1054.36C1053.95 587.697 1053.75 587.292 1053.75 586.924Z" fill="black"/>
<path d="M479 17.9699C479 16.888 479.526 15.0333 480.578 12.4059C481.63 9.77854 483.314 7.03522 485.628 4.17598C487.943 1.31675 490.538 -0.0742289 493.413 0.00304774C496.289 0.00304774 498.604 0.891729 500.357 2.66909C502.111 4.44645 503.022 6.9193 503.093 10.0876C502.952 11.5559 502.847 12.3673 502.777 12.5219C502.777 12.7537 502.216 14.5311 501.094 17.8539C499.971 21.1768 498.814 24.9248 497.622 29.0977C496.429 33.2706 495.868 36.5935 495.938 39.0664C495.938 42.3893 496.429 44.7076 497.411 46.0213C498.393 47.335 499.866 48.0305 501.83 48.1077C503.443 48.1077 504.951 47.6827 506.354 46.8327C507.757 45.9826 508.844 45.094 509.615 44.1666C510.387 43.2393 511.334 41.9642 512.456 40.3414C512.456 40.2642 512.631 39.4914 512.982 38.0231C513.333 36.5549 513.824 34.2752 514.455 31.1842C515.086 28.0931 515.753 25.2339 516.454 22.6065C519.119 11.015 520.592 4.94875 520.873 4.40781C521.784 2.32135 523.292 1.27811 525.397 1.27811C526.308 1.27811 527.045 1.54858 527.606 2.08952C528.167 2.63045 528.553 3.09411 528.763 3.4805C528.974 3.86688 529.044 4.21462 528.974 4.52373C528.974 5.52833 527.255 13.6424 523.819 28.8659C520.382 44.0894 518.418 52.4352 517.927 53.9035C515.963 60.3174 512.561 65.4177 507.722 69.2043C502.882 72.9908 498.043 74.9227 493.203 75C490.047 75 487.276 74.15 484.892 72.4499C482.507 70.7498 481.315 68.1997 481.315 64.7995C481.315 63.0994 481.56 61.6698 482.051 60.5106C482.542 59.3515 483.208 58.5014 484.05 57.9605C484.892 57.4196 485.593 57.0332 486.154 56.8014C486.715 56.5695 487.311 56.4536 487.943 56.4536C491.029 56.4536 492.572 58.0764 492.572 61.322C492.572 62.8676 492.151 64.2199 491.309 65.3791C490.468 66.5382 489.661 67.311 488.89 67.6974C488.118 68.0837 487.662 68.2769 487.522 68.2769L487.206 68.3928C487.346 68.7792 488.013 69.2429 489.205 69.7838C490.398 70.3248 491.59 70.5952 492.782 70.5952H493.624C494.816 70.5952 495.728 70.518 496.359 70.3634C498.674 69.6679 500.813 68.1997 502.777 65.9586C504.741 63.7176 506.249 61.322 507.301 58.7719C508.353 56.2218 509.16 54.058 509.721 52.2807C510.282 50.5033 510.562 49.3442 510.562 48.8032L509.931 49.2669C509.51 49.576 508.844 50.001 507.932 50.542C507.02 51.0829 506.109 51.5465 505.197 51.9329C503.794 52.3193 502.426 52.5125 501.094 52.5125C497.867 52.5125 495.027 51.6625 492.572 49.9624C490.117 48.2623 488.504 45.519 487.732 41.7324C487.662 41.1915 487.627 39.9937 487.627 38.1391C487.627 33.7343 488.854 27.9772 491.309 20.8677C493.764 13.7583 494.992 9.2376 494.992 7.30569C494.992 7.22841 494.992 7.15113 494.992 7.07386C494.992 6.37837 494.992 5.91471 494.992 5.68288C494.992 5.45105 494.851 5.18058 494.571 4.87147C494.29 4.56237 493.904 4.40781 493.413 4.40781H492.993C491.379 4.40781 489.907 5.14194 488.574 6.6102C487.241 8.07845 486.189 9.66262 485.418 11.3627C484.646 13.0628 484.05 14.6856 483.629 16.2311C483.208 17.7767 482.928 18.6267 482.787 18.7813C482.647 18.9358 482.086 19.0131 481.104 19.0131H479.631C479.21 18.5494 479 18.2017 479 17.9699Z" fill="black"/>
<path d="M750.025 202.5L512.5 568.066V202.5L750.025 202.5Z" stroke="#6C63FF" stroke-width="13"/>
<path d="M583.15 153.067C583.15 154.838 584.848 155.871 588.242 156.166C589.571 156.166 590.235 156.572 590.235 157.384C590.235 157.458 590.161 157.937 590.013 158.823C589.792 159.856 589.571 160.52 589.349 160.815C589.128 161.11 588.648 161.258 587.91 161.258C587.763 161.258 587.32 161.258 586.582 161.258C585.844 161.258 584.589 161.221 582.818 161.147C581.047 161.074 578.686 161.037 575.734 161.037C570.494 161.037 567.136 161.11 565.66 161.258H564.775C564.258 160.741 564 160.336 564 160.04C564.148 158.048 564.627 156.756 565.439 156.166H566.989C572.155 155.945 575.918 154.1 578.28 150.631C578.723 150.188 585.401 138.934 598.316 116.869C611.23 94.8038 617.798 83.6235 618.019 83.3284C618.536 82.4428 619.422 82 620.676 82H621.562H623.444C623.886 82.6642 624.108 83.0332 624.108 83.107L627.207 118.862C629.274 142.698 630.38 154.727 630.528 154.948C630.897 155.76 633.295 156.166 637.723 156.166C639.568 156.166 640.491 156.535 640.491 157.273C640.491 157.421 640.38 157.937 640.159 158.823C639.937 159.93 639.753 160.594 639.605 160.815C639.457 161.037 638.941 161.184 638.055 161.258C637.834 161.258 637.317 161.258 636.506 161.258C635.694 161.258 634.255 161.221 632.188 161.147C630.122 161.074 627.429 161.037 624.108 161.037C617.171 161.037 612.632 161.11 610.492 161.258H609.164C608.721 160.815 608.5 160.483 608.5 160.262C608.5 160.04 608.573 159.376 608.721 158.269C609.016 157.31 609.238 156.72 609.385 156.498L609.828 156.166H612.042C616.027 155.945 618.388 155.317 619.126 154.284L617.798 137.68H591.453L587.689 144.1C584.663 149.192 583.15 152.181 583.15 153.067ZM617.245 132.477C617.245 131.665 616.802 125.909 615.916 115.209C615.031 104.508 614.514 99.1209 614.366 99.0471L611.378 103.807C610.197 105.8 607.872 109.748 604.404 115.651L594.441 132.477L605.843 132.588C613.444 132.588 617.245 132.551 617.245 132.477Z" fill="black"/>
<path d="M647.217 155.245C647.582 153.053 648.991 150.523 651.443 147.653C653.895 144.784 656.921 143.323 660.521 143.271C662.348 143.271 664.017 143.74 665.53 144.679C667.043 145.619 668.165 146.792 668.895 148.201C671.087 144.914 673.722 143.271 676.8 143.271C678.73 143.271 680.4 143.845 681.809 144.992C683.217 146.14 683.948 147.679 684 149.61C684 151.123 683.635 152.349 682.904 153.288C682.174 154.227 681.469 154.801 680.791 155.01C680.113 155.219 679.513 155.323 678.991 155.323C678 155.323 677.191 155.036 676.565 154.462C675.939 153.888 675.626 153.132 675.626 152.193C675.626 149.792 676.93 148.149 679.539 147.262C678.965 146.584 677.922 146.245 676.409 146.245C675.73 146.245 675.235 146.297 674.922 146.401C672.939 147.236 671.478 148.958 670.539 151.566C667.408 163.097 665.843 169.828 665.843 171.758C665.843 173.219 666.261 174.262 667.095 174.888C667.93 175.515 668.843 175.828 669.835 175.828C671.765 175.828 673.669 174.967 675.548 173.245C677.426 171.523 678.704 169.41 679.383 166.906C679.539 166.384 679.696 166.097 679.852 166.045C680.009 165.993 680.426 165.941 681.104 165.888H681.417C682.2 165.888 682.591 166.097 682.591 166.514C682.591 166.567 682.539 166.854 682.435 167.375C681.6 170.349 679.983 172.984 677.582 175.28C675.182 177.575 672.391 178.723 669.208 178.723C665.556 178.723 662.791 177.08 660.913 173.793C658.774 177.028 656.321 178.645 653.556 178.645H653.087C650.53 178.645 648.704 177.967 647.608 176.61C646.513 175.254 645.939 173.819 645.886 172.306C645.886 170.636 646.382 169.28 647.373 168.236C648.365 167.193 649.539 166.671 650.895 166.671C653.139 166.671 654.26 167.767 654.26 169.958C654.26 171.001 653.947 171.914 653.321 172.697C652.695 173.48 652.095 174.001 651.521 174.262C650.947 174.523 650.608 174.654 650.504 174.654L650.269 174.732C650.269 174.784 650.426 174.888 650.739 175.045C651.052 175.201 651.469 175.384 651.991 175.593C652.513 175.801 653.008 175.88 653.478 175.828C655.356 175.828 656.974 174.654 658.33 172.306C658.8 171.471 659.4 169.697 660.13 166.984C660.861 164.271 661.591 161.453 662.321 158.532C663.052 155.61 663.469 153.888 663.574 153.366C663.835 151.958 663.965 150.94 663.965 150.314C663.965 148.853 663.574 147.81 662.791 147.184C662.008 146.558 661.121 146.245 660.13 146.245C658.043 146.245 656.087 147.079 654.26 148.749C652.434 150.419 651.156 152.558 650.426 155.166C650.321 155.636 650.191 155.897 650.034 155.949C649.878 156.001 649.46 156.053 648.782 156.106H647.686C647.373 155.793 647.217 155.506 647.217 155.245Z" fill="black"/>
<path d="M360.101 395.789C360.101 397.74 361.971 398.878 365.711 399.204C367.175 399.204 367.907 399.651 367.907 400.545C367.907 400.627 367.825 401.155 367.663 402.131C367.419 403.269 367.175 404.001 366.931 404.326C366.687 404.652 366.158 404.814 365.345 404.814C365.183 404.814 364.695 404.814 363.882 404.814C363.068 404.814 361.686 404.774 359.735 404.692C357.783 404.611 355.181 404.57 351.929 404.57C346.155 404.57 342.456 404.652 340.83 404.814H339.854C339.285 404.245 339 403.798 339 403.473C339.163 401.277 339.691 399.854 340.586 399.204H342.293C347.985 398.96 352.132 396.927 354.734 393.105C355.222 392.617 362.581 380.217 376.81 355.905C391.04 331.592 398.277 319.274 398.521 318.948C399.09 317.973 400.066 317.485 401.448 317.485H402.424H404.497C404.985 318.217 405.229 318.623 405.229 318.704L408.644 358.1C410.921 384.364 412.14 397.618 412.303 397.862C412.71 398.756 415.352 399.204 420.231 399.204C422.264 399.204 423.28 399.61 423.28 400.423C423.28 400.586 423.158 401.155 422.914 402.131C422.67 403.351 422.467 404.082 422.305 404.326C422.142 404.57 421.573 404.733 420.597 404.814C420.353 404.814 419.784 404.814 418.889 404.814C417.995 404.814 416.409 404.774 414.133 404.692C411.856 404.611 408.888 404.57 405.229 404.57C397.586 404.57 392.585 404.652 390.227 404.814H388.763C388.275 404.326 388.031 403.96 388.031 403.717C388.031 403.473 388.113 402.741 388.275 401.521C388.601 400.464 388.844 399.814 389.007 399.57L389.495 399.204H391.934C396.325 398.96 398.927 398.269 399.74 397.13L398.277 378.835H369.248L365.101 385.909C361.767 391.52 360.101 394.813 360.101 395.789ZM397.667 373.102C397.667 372.208 397.179 365.866 396.203 354.075C395.227 342.285 394.658 336.349 394.496 336.268L391.203 341.513C389.902 343.708 387.34 348.058 383.519 354.563L372.541 373.102L385.104 373.224C393.479 373.224 397.667 373.184 397.667 373.102Z" fill="black"/>
<path d="M428.018 398.361C428.018 397.556 428.449 396.176 429.312 394.222C430.174 392.267 431.554 390.227 433.451 388.099C435.348 385.972 437.475 384.938 439.832 384.995C442.189 384.995 444.086 385.656 445.523 386.978C446.961 388.301 447.708 390.14 447.765 392.497C447.65 393.59 447.564 394.193 447.507 394.308C447.507 394.481 447.047 395.803 446.127 398.275C445.207 400.747 444.259 403.535 443.281 406.639C442.304 409.744 441.844 412.216 441.902 414.055C441.902 416.527 442.304 418.252 443.109 419.229C443.914 420.206 445.121 420.724 446.731 420.781C448.053 420.781 449.289 420.465 450.439 419.833C451.588 419.2 452.479 418.539 453.112 417.849C453.744 417.16 454.52 416.211 455.44 415.004C455.44 414.946 455.584 414.371 455.871 413.279C456.159 412.187 456.561 410.491 457.078 408.191C457.596 405.892 458.142 403.765 458.717 401.81C460.901 393.187 462.109 388.674 462.339 388.272C463.086 386.72 464.322 385.944 466.047 385.944C466.794 385.944 467.398 386.145 467.857 386.547C468.317 386.95 468.633 387.295 468.806 387.582C468.978 387.87 469.036 388.128 468.978 388.358C468.978 389.105 467.57 395.142 464.753 406.467C461.936 417.792 460.327 424.001 459.924 425.093C458.314 429.864 455.526 433.659 451.56 436.475C447.593 439.292 443.626 440.73 439.66 440.787C437.073 440.787 434.802 440.155 432.847 438.89C430.893 437.625 429.915 435.728 429.915 433.199C429.915 431.934 430.117 430.87 430.519 430.008C430.921 429.146 431.468 428.513 432.157 428.111C432.847 427.709 433.422 427.421 433.882 427.249C434.342 427.076 434.831 426.99 435.348 426.99C437.878 426.99 439.142 428.197 439.142 430.612C439.142 431.761 438.797 432.767 438.107 433.63C437.418 434.492 436.756 435.067 436.124 435.354C435.492 435.642 435.118 435.786 435.003 435.786L434.744 435.872C434.859 436.159 435.406 436.504 436.383 436.907C437.36 437.309 438.337 437.51 439.315 437.51H440.005C440.982 437.51 441.729 437.453 442.247 437.338C444.144 436.82 445.897 435.728 447.507 434.061C449.116 432.394 450.352 430.612 451.215 428.715C452.077 426.818 452.738 425.208 453.198 423.886C453.658 422.563 453.888 421.701 453.888 421.299L453.37 421.644C453.026 421.874 452.479 422.19 451.732 422.592C450.985 422.995 450.237 423.339 449.49 423.627C448.34 423.914 447.219 424.058 446.127 424.058C443.483 424.058 441.154 423.426 439.142 422.161C437.13 420.896 435.808 418.855 435.176 416.039C435.118 415.636 435.089 414.745 435.089 413.365C435.089 410.089 436.095 405.806 438.107 400.517C440.12 395.228 441.126 391.865 441.126 390.428C441.126 390.37 441.126 390.313 441.126 390.255C441.126 389.738 441.126 389.393 441.126 389.22C441.126 389.048 441.011 388.847 440.781 388.617C440.551 388.387 440.235 388.272 439.832 388.272H439.487C438.165 388.272 436.958 388.818 435.865 389.91C434.773 391.003 433.911 392.181 433.278 393.446C432.646 394.711 432.157 395.918 431.813 397.068C431.468 398.217 431.238 398.85 431.123 398.965C431.008 399.08 430.548 399.137 429.743 399.137H428.536C428.191 398.792 428.018 398.533 428.018 398.361Z" fill="black"/>
<path d="M699.403 482.941H699.163C698.201 482.941 697.481 482.38 697 481.259V422.867L697.12 364.475C697.921 363.434 698.682 362.913 699.403 362.913C700.444 362.913 701.245 363.514 701.806 364.715V481.259C701.165 482.38 700.444 482.941 699.643 482.941H699.403Z" fill="black"/>
<path d="M741.094 444.133C741.094 446.055 742.937 447.177 746.621 447.497C748.063 447.497 748.784 447.938 748.784 448.819C748.784 448.899 748.704 449.42 748.543 450.381C748.303 451.502 748.063 452.223 747.823 452.543C747.582 452.864 747.062 453.024 746.261 453.024C746.1 453.024 745.62 453.024 744.819 453.024C744.018 453.024 742.656 452.984 740.734 452.904C738.811 452.824 736.248 452.784 733.044 452.784C727.357 452.784 723.713 452.864 722.111 453.024H721.15C720.589 452.463 720.309 452.023 720.309 451.702C720.469 449.54 720.99 448.138 721.871 447.497H723.553C729.16 447.257 733.245 445.254 735.808 441.49C736.288 441.009 743.537 428.794 757.555 404.845C771.572 380.895 778.701 368.76 778.941 368.44C779.502 367.479 780.463 366.998 781.824 366.998H782.786H784.828C785.309 367.719 785.549 368.12 785.549 368.2L788.913 407.007C791.156 432.879 792.357 445.935 792.518 446.176C792.918 447.057 795.521 447.497 800.327 447.497C802.33 447.497 803.331 447.898 803.331 448.699C803.331 448.859 803.211 449.42 802.97 450.381C802.73 451.582 802.53 452.303 802.37 452.543C802.21 452.784 801.649 452.944 800.688 453.024C800.447 453.024 799.887 453.024 799.006 453.024C798.124 453.024 796.563 452.984 794.32 452.904C792.077 452.824 789.153 452.784 785.549 452.784C778.02 452.784 773.094 452.864 770.771 453.024H769.329C768.848 452.543 768.608 452.183 768.608 451.943C768.608 451.702 768.688 450.982 768.848 449.78C769.169 448.739 769.409 448.098 769.569 447.858L770.05 447.497H772.453C776.778 447.257 779.341 446.576 780.142 445.455L778.701 427.433H750.105L746.02 434.401C742.736 439.928 741.094 443.172 741.094 444.133ZM778.1 421.786C778.1 420.904 777.619 414.657 776.658 403.043C775.697 391.428 775.136 385.581 774.976 385.501L771.732 390.667C770.45 392.83 767.927 397.115 764.163 403.523L753.349 421.786L765.725 421.906C773.975 421.906 778.1 421.866 778.1 421.786Z" fill="black"/>
<path d="M793.118 338.403C793.118 337.762 793.319 337.201 793.719 336.721C794.12 336.24 794.72 336 795.521 336C796.082 336 796.563 336.2 796.963 336.601C797.364 336.921 797.764 337.682 798.164 338.884C798.965 341.847 800.607 344.13 803.091 345.732C803.972 346.293 804.412 347.014 804.412 347.895C804.412 348.616 804.292 349.096 804.052 349.336C803.811 349.577 803.251 349.937 802.37 350.418C798.925 352.18 795.922 354.703 793.359 357.987C793.198 358.147 792.998 358.388 792.758 358.708C792.518 359.028 792.317 359.269 792.157 359.429C791.997 359.589 791.797 359.669 791.556 359.669C791.316 359.669 791.036 359.709 790.715 359.789C790.155 359.789 789.634 359.589 789.153 359.189C788.673 358.788 788.392 358.187 788.312 357.386C788.312 355.864 790.195 353.502 793.959 350.298H773.414L752.869 350.177C751.827 349.457 751.307 348.696 751.307 347.895C751.307 347.334 751.827 346.533 752.869 345.492H796.002C794.079 342.448 793.118 340.085 793.118 338.403Z" fill="black"/>
<path d="M824.597 482.941H824.357C823.396 482.941 822.675 482.38 822.194 481.259V422.867L822.314 364.475C823.115 363.434 823.876 362.913 824.597 362.913C825.638 362.913 826.439 363.514 827 364.715V481.259C826.359 482.38 825.638 482.941 824.837 482.941H824.597Z" fill="black"/>
<defs>
<filter id="filter0_d_103_47" x="0" y="568.226" width="1011.5" height="59.5477" filterUnits="userSpaceOnUse" color-interpolation-filters="sRGB">
<feFlood flood-opacity="0" result="BackgroundImageFix"/>
<feColorMatrix in="SourceAlpha" type="matrix" values="0 0 0 0 0 0 0 0 0 0 0 0 0 0 0 0 0 0 127 0" result="hardAlpha"/>
<feOffset dy="4"/>
<feGaussianBlur stdDeviation="2"/>
<feComposite in2="hardAlpha" operator="out"/>
<feColorMatrix type="matrix" values="0 0 0 0 0 0 0 0 0 0 0 0 0 0 0 0 0 0 0.25 0"/>
<feBlend mode="normal" in2="BackgroundImageFix" result="effect1_dropShadow_103_47"/>
<feBlend mode="normal" in="SourceGraphic" in2="effect1_dropShadow_103_47" result="shape"/>
</filter>
<filter id="filter1_d_103_47" x="474.226" y="90.5" width="59.5477" height="665.5" filterUnits="userSpaceOnUse" color-interpolation-filters="sRGB">
<feFlood flood-opacity="0" result="BackgroundImageFix"/>
<feColorMatrix in="SourceAlpha" type="matrix" values="0 0 0 0 0 0 0 0 0 0 0 0 0 0 0 0 0 0 127 0" result="hardAlpha"/>
<feOffset dy="4"/>
<feGaussianBlur stdDeviation="2"/>
<feComposite in2="hardAlpha" operator="out"/>
<feColorMatrix type="matrix" values="0 0 0 0 0 0 0 0 0 0 0 0 0 0 0 0 0 0 0.25 0"/>
<feBlend mode="normal" in2="BackgroundImageFix" result="effect1_dropShadow_103_47"/>
<feBlend mode="normal" in="SourceGraphic" in2="effect1_dropShadow_103_47" result="shape"/>
</filter>
</defs>
</svg>
