<svg width="159" height="51" viewBox="0 0 159 51" fill="none" xmlns="http://www.w3.org/2000/svg">
<path d="M71.7344 14.4648H64.5742V22H62.3242V4.9375H72.8945V6.78906H64.5742V12.625H71.7344V14.4648ZM81.0742 11.2656C80.7461 11.2109 80.3906 11.1836 80.0078 11.1836C78.5859 11.1836 77.6211 11.7891 77.1133 13V22H74.9453V9.32031H77.0547L77.0898 10.7852C77.8008 9.65234 78.8086 9.08594 80.1133 9.08594C80.5352 9.08594 80.8555 9.14062 81.0742 9.25V11.2656ZM85.4336 22H83.2656V9.32031H85.4336V22ZM83.0898 5.95703C83.0898 5.60547 83.1953 5.30859 83.4062 5.06641C83.625 4.82422 83.9453 4.70312 84.3672 4.70312C84.7891 4.70312 85.1094 4.82422 85.3281 5.06641C85.5469 5.30859 85.6562 5.60547 85.6562 5.95703C85.6562 6.30859 85.5469 6.60156 85.3281 6.83594C85.1094 7.07031 84.7891 7.1875 84.3672 7.1875C83.9453 7.1875 83.625 7.07031 83.4062 6.83594C83.1953 6.60156 83.0898 6.30859 83.0898 5.95703ZM94.1758 22.2344C92.457 22.2344 91.0586 21.6719 89.9805 20.5469C88.9023 19.4141 88.3633 17.9023 88.3633 16.0117V15.6133C88.3633 14.3555 88.6016 13.2344 89.0781 12.25C89.5625 11.2578 90.2344 10.4844 91.0938 9.92969C91.9609 9.36719 92.8984 9.08594 93.9062 9.08594C95.5547 9.08594 96.8359 9.62891 97.75 10.7148C98.6641 11.8008 99.1211 13.3555 99.1211 15.3789V16.2812H90.5312C90.5625 17.5312 90.9258 18.543 91.6211 19.3164C92.3242 20.082 93.2148 20.4648 94.293 20.4648C95.0586 20.4648 95.707 20.3086 96.2383 19.9961C96.7695 19.6836 97.2344 19.2695 97.6328 18.7539L98.957 19.7852C97.8945 21.418 96.3008 22.2344 94.1758 22.2344ZM93.9062 10.8672C93.0312 10.8672 92.2969 11.1875 91.7031 11.8281C91.1094 12.4609 90.7422 13.3516 90.6016 14.5H96.9531V14.3359C96.8906 13.2344 96.5938 12.3828 96.0625 11.7812C95.5312 11.1719 94.8125 10.8672 93.9062 10.8672ZM103.691 9.32031L103.762 10.9141C104.73 9.69531 105.996 9.08594 107.559 9.08594C110.238 9.08594 111.59 10.5977 111.613 13.6211V22H109.445V13.6094C109.438 12.6953 109.227 12.0195 108.812 11.582C108.406 11.1445 107.77 10.9258 106.902 10.9258C106.199 10.9258 105.582 11.1133 105.051 11.4883C104.52 11.8633 104.105 12.3555 103.809 12.9648V22H101.641V9.32031H103.691ZM114.355 15.5547C114.355 13.6094 114.816 12.0469 115.738 10.8672C116.66 9.67969 117.867 9.08594 119.359 9.08594C120.844 9.08594 122.02 9.59375 122.887 10.6094V4H125.055V22H123.062L122.957 20.6406C122.09 21.7031 120.883 22.2344 119.336 22.2344C117.867 22.2344 116.668 21.6328 115.738 20.4297C114.816 19.2266 114.355 17.6562 114.355 15.7188V15.5547ZM116.523 15.8008C116.523 17.2383 116.82 18.3633 117.414 19.1758C118.008 19.9883 118.828 20.3945 119.875 20.3945C121.25 20.3945 122.254 19.7773 122.887 18.543V12.7188C122.238 11.5234 121.242 10.9258 119.898 10.9258C118.836 10.9258 118.008 11.3359 117.414 12.1562C116.82 12.9766 116.523 14.1914 116.523 15.8008ZM128.582 9.74219L127.352 8.89844C128.078 7.88281 128.453 6.8125 128.477 5.6875V4H130.621V5.52344C130.613 6.30469 130.418 7.08594 130.035 7.86719C129.66 8.64062 129.176 9.26562 128.582 9.74219ZM139.305 18.6367C139.305 18.0508 139.082 17.5977 138.637 17.2773C138.199 16.9492 137.43 16.668 136.328 16.4336C135.234 16.1992 134.363 15.918 133.715 15.5898C133.074 15.2617 132.598 14.8711 132.285 14.418C131.98 13.9648 131.828 13.4258 131.828 12.8008C131.828 11.7617 132.266 10.8828 133.141 10.1641C134.023 9.44531 135.148 9.08594 136.516 9.08594C137.953 9.08594 139.117 9.45703 140.008 10.1992C140.906 10.9414 141.355 11.8906 141.355 13.0469H139.176C139.176 12.4531 138.922 11.9414 138.414 11.5117C137.914 11.082 137.281 10.8672 136.516 10.8672C135.727 10.8672 135.109 11.0391 134.664 11.3828C134.219 11.7266 133.996 12.1758 133.996 12.7305C133.996 13.2539 134.203 13.6484 134.617 13.9141C135.031 14.1797 135.777 14.4336 136.855 14.6758C137.941 14.918 138.82 15.207 139.492 15.543C140.164 15.8789 140.66 16.2852 140.98 16.7617C141.309 17.2305 141.473 17.8047 141.473 18.4844C141.473 19.6172 141.02 20.5273 140.113 21.2148C139.207 21.8945 138.031 22.2344 136.586 22.2344C135.57 22.2344 134.672 22.0547 133.891 21.6953C133.109 21.3359 132.496 20.8359 132.051 20.1953C131.613 19.5469 131.395 18.8477 131.395 18.0977H133.562C133.602 18.8242 133.891 19.4023 134.43 19.832C134.977 20.2539 135.695 20.4648 136.586 20.4648C137.406 20.4648 138.062 20.3008 138.555 19.9727C139.055 19.6367 139.305 19.1914 139.305 18.6367ZM82.0234 50H79.7617V42.1133H71.1602V50H68.9102V32.9375H71.1602V40.2734H79.7617V32.9375H82.0234V50ZM85.1055 43.543C85.1055 42.3008 85.3477 41.1836 85.832 40.1914C86.3242 39.1992 87.0039 38.4336 87.8711 37.8945C88.7461 37.3555 89.7422 37.0859 90.8594 37.0859C92.5859 37.0859 93.9805 37.6836 95.043 38.8789C96.1133 40.0742 96.6484 41.6641 96.6484 43.6484V43.8008C96.6484 45.0352 96.4102 46.1445 95.9336 47.1289C95.4648 48.1055 94.7891 48.8672 93.9062 49.4141C93.0312 49.9609 92.0234 50.2344 90.8828 50.2344C89.1641 50.2344 87.7695 49.6367 86.6992 48.4414C85.6367 47.2461 85.1055 45.6641 85.1055 43.6953V43.543ZM87.2852 43.8008C87.2852 45.207 87.6094 46.3359 88.2578 47.1875C88.9141 48.0391 89.7891 48.4648 90.8828 48.4648C91.9844 48.4648 92.8594 48.0352 93.5078 47.1758C94.1562 46.3086 94.4805 45.0977 94.4805 43.543C94.4805 42.1523 94.1484 41.0273 93.4844 40.168C92.8281 39.3008 91.9531 38.8672 90.8594 38.8672C89.7891 38.8672 88.9258 39.293 88.2695 40.1445C87.6133 40.9961 87.2852 42.2148 87.2852 43.8008ZM107.195 48.7461C106.352 49.7383 105.113 50.2344 103.48 50.2344C102.129 50.2344 101.098 49.8438 100.387 49.0625C99.6836 48.2734 99.3281 47.1094 99.3203 45.5703V37.3203H101.488V45.5117C101.488 47.4336 102.27 48.3945 103.832 48.3945C105.488 48.3945 106.59 47.7773 107.137 46.543V37.3203H109.305V50H107.242L107.195 48.7461ZM119.992 46.6367C119.992 46.0508 119.77 45.5977 119.324 45.2773C118.887 44.9492 118.117 44.668 117.016 44.4336C115.922 44.1992 115.051 43.918 114.402 43.5898C113.762 43.2617 113.285 42.8711 112.973 42.418C112.668 41.9648 112.516 41.4258 112.516 40.8008C112.516 39.7617 112.953 38.8828 113.828 38.1641C114.711 37.4453 115.836 37.0859 117.203 37.0859C118.641 37.0859 119.805 37.457 120.695 38.1992C121.594 38.9414 122.043 39.8906 122.043 41.0469H119.863C119.863 40.4531 119.609 39.9414 119.102 39.5117C118.602 39.082 117.969 38.8672 117.203 38.8672C116.414 38.8672 115.797 39.0391 115.352 39.3828C114.906 39.7266 114.684 40.1758 114.684 40.7305C114.684 41.2539 114.891 41.6484 115.305 41.9141C115.719 42.1797 116.465 42.4336 117.543 42.6758C118.629 42.918 119.508 43.207 120.18 43.543C120.852 43.8789 121.348 44.2852 121.668 44.7617C121.996 45.2305 122.16 45.8047 122.16 46.4844C122.16 47.6172 121.707 48.5273 120.801 49.2148C119.895 49.8945 118.719 50.2344 117.273 50.2344C116.258 50.2344 115.359 50.0547 114.578 49.6953C113.797 49.3359 113.184 48.8359 112.738 48.1953C112.301 47.5469 112.082 46.8477 112.082 46.0977H114.25C114.289 46.8242 114.578 47.4023 115.117 47.832C115.664 48.2539 116.383 48.4648 117.273 48.4648C118.094 48.4648 118.75 48.3008 119.242 47.9727C119.742 47.6367 119.992 47.1914 119.992 46.6367ZM130.246 50.2344C128.527 50.2344 127.129 49.6719 126.051 48.5469C124.973 47.4141 124.434 45.9023 124.434 44.0117V43.6133C124.434 42.3555 124.672 41.2344 125.148 40.25C125.633 39.2578 126.305 38.4844 127.164 37.9297C128.031 37.3672 128.969 37.0859 129.977 37.0859C131.625 37.0859 132.906 37.6289 133.82 38.7148C134.734 39.8008 135.191 41.3555 135.191 43.3789V44.2812H126.602C126.633 45.5312 126.996 46.543 127.691 47.3164C128.395 48.082 129.285 48.4648 130.363 48.4648C131.129 48.4648 131.777 48.3086 132.309 47.9961C132.84 47.6836 133.305 47.2695 133.703 46.7539L135.027 47.7852C133.965 49.418 132.371 50.2344 130.246 50.2344ZM129.977 38.8672C129.102 38.8672 128.367 39.1875 127.773 39.8281C127.18 40.4609 126.812 41.3516 126.672 42.5H133.023V42.3359C132.961 41.2344 132.664 40.3828 132.133 39.7812C131.602 39.1719 130.883 38.8672 129.977 38.8672Z" fill="black"/>
<circle cx="15" cy="26" r="15" fill="#EF224B"/>
</svg>
