<svg width="386" height="382" viewBox="0 0 386 382" fill="none" xmlns="http://www.w3.org/2000/svg">
<path d="M331.828 354.828C333.391 353.266 333.391 350.734 331.828 349.172L306.373 323.716C304.81 322.154 302.278 322.154 300.716 323.716C299.154 325.278 299.154 327.81 300.716 329.373L323.343 352L300.716 374.627C299.154 376.19 299.154 378.722 300.716 380.284C302.278 381.846 304.81 381.846 306.373 380.284L331.828 354.828ZM29 356H329V348H29V356Z" fill="black"/>
<path d="M35.8284 48.1716C34.2663 46.6095 31.7337 46.6095 30.1716 48.1716L4.71573 73.6274C3.15363 75.1895 3.15363 77.7222 4.71573 79.2843C6.27783 80.8464 8.81049 80.8464 10.3726 79.2843L33 56.6569L55.6274 79.2843C57.1895 80.8464 59.7222 80.8464 61.2843 79.2843C62.8464 77.7222 62.8464 75.1895 61.2843 73.6274L35.8284 48.1716ZM37 351L37 51H29L29 351H37Z" fill="black"/>
<path d="M371.707 352.17H360.615V361.24H373.5V364H357.24V338.406H373.324V341.184H360.615V349.41H371.707V352.17Z" fill="black"/>
<path d="M42.3086 33H38.916L26.0312 13.2773V33H22.6387V7.40625H26.0312L38.9512 27.2168V7.40625H42.3086V33Z" fill="black"/>
</svg>
