<svg width="81" height="98" viewBox="0 0 81 98" fill="none" xmlns="http://www.w3.org/2000/svg">
<path d="M1.62814 97.7699H1.46533C0.81407 97.7699 0.325628 97.39 0 96.6302V57.0664L0.081407 17.5026C0.624121 16.797 1.1397 16.4443 1.62814 16.4443C2.33367 16.4443 2.87638 16.8513 3.25628 17.6654V96.6302C2.82211 97.39 2.33367 97.7699 1.79095 97.7699H1.62814Z" fill="black"/>
<path d="M42.7386 21.8985C42.7929 21.8985 44.7467 21.7628 48.5999 21.4915C52.4532 21.2201 54.4341 21.0573 54.5426 21.003C55.1939 21.003 55.5195 21.2201 55.5195 21.6543C55.5195 22.0342 53.5386 30.2292 49.5768 46.2392C45.615 62.2493 43.5798 70.4171 43.4713 70.7427C43.3627 71.0684 43.3356 71.4754 43.3899 71.9638C43.3899 74.2432 44.1497 75.3829 45.6693 75.3829C46.1577 75.3287 46.7004 75.0845 47.2974 74.6503C48.4371 73.5649 49.5497 70.9598 50.6351 66.8352C50.9607 65.7498 51.2321 65.1799 51.4492 65.1257C51.5577 65.0714 51.8291 65.0443 52.2632 65.0443H52.5889H52.9145C53.7286 65.0443 54.1356 65.2613 54.1356 65.6955C54.1356 65.9669 54.0542 66.401 53.8914 66.998C53.1858 69.7116 52.3718 71.9096 51.4492 73.592C50.5266 75.2744 49.7668 76.3598 49.1698 76.8483C48.5728 77.3367 47.813 77.7709 46.8904 78.1508C46.4562 78.2593 45.8049 78.3136 44.9366 78.3136C43.0914 78.3136 41.5446 77.9066 40.2964 77.0925C39.0482 76.2784 38.2341 75.4372 37.8542 74.5689L37.3657 73.3478C37.3115 73.2935 37.2029 73.3206 37.0401 73.4292C36.9316 73.5377 36.823 73.6463 36.7145 73.7548C33.5125 76.794 30.2562 78.3136 26.9456 78.3136C23.9607 78.3136 21.3286 77.2282 19.0492 75.0573C16.7698 72.8865 15.6301 69.4402 15.6301 64.7186C15.6301 62.1136 16.1728 59.4543 17.2582 56.7407C18.3436 54.0272 19.6461 51.6935 21.1657 49.7397C23.7165 46.6463 26.2673 44.5025 28.818 43.3086C31.3688 42.1146 33.6753 41.5176 35.7376 41.5176C38.7768 41.5176 41.0562 42.6573 42.5758 44.9367C42.8472 45.2623 42.9828 45.3709 42.9828 45.2623C43.0371 45.0453 43.7698 42.0875 45.1808 36.389C46.5919 30.6905 47.3517 27.6784 47.4602 27.3528C47.4602 26.6473 47.2703 26.2131 46.8904 26.0503C46.5105 25.8875 45.4522 25.7518 43.7155 25.6432H42.0059C41.6803 25.3176 41.5175 25.1005 41.5175 24.992C41.5175 24.8834 41.5718 24.3679 41.6803 23.4453C41.9517 22.4141 42.3044 21.8985 42.7386 21.8985ZM41.5989 50.9608C40.3507 46.6734 38.3155 44.5297 35.4934 44.5297C33.5939 44.5297 31.7758 45.3709 30.0391 47.0533C28.3024 48.7357 26.9456 50.9337 25.9688 53.6473C24.3949 57.9347 23.2823 62.385 22.6311 66.998C22.6311 67.1608 22.6311 67.4593 22.6311 67.8935C22.6311 68.3277 22.6039 68.6533 22.5497 68.8704C22.5497 71.3126 23.0381 72.995 24.015 73.9176C24.9919 74.8402 26.1587 75.3287 27.5155 75.3829C30.4461 75.3829 33.4582 73.4292 36.5517 69.5216L37.2029 68.6262L41.5989 50.9608Z" fill="black"/>
<path d="M58.0431 1.62808C58.0431 1.19391 58.1788 0.814008 58.4502 0.48838C58.7215 0.162752 59.1286 -6.22422e-05 59.6713 -6.22422e-05C60.0512 -6.22422e-05 60.3768 0.135616 60.6482 0.406973C60.9195 0.624058 61.1909 1.13964 61.4622 1.95371C62.005 3.96175 63.1175 5.50848 64.7999 6.59391C65.3969 6.97381 65.6954 7.46225 65.6954 8.05923C65.6954 8.54768 65.614 8.8733 65.4512 9.03612C65.2884 9.19893 64.9085 9.44315 64.3115 9.76878C61.9778 10.9628 59.9426 12.6723 58.206 14.8974C58.0974 15.006 57.9617 15.1688 57.7989 15.3859C57.6361 15.603 57.5004 15.7658 57.3919 15.8743C57.2833 15.9829 57.1477 16.0371 56.9849 16.0371C56.822 16.0371 56.6321 16.0643 56.415 16.1185C56.0351 16.1185 55.6823 15.9829 55.3567 15.7115C55.0311 15.4401 54.8411 15.0331 54.7869 14.4904C54.7869 13.4592 56.0622 11.8582 58.613 9.68737H44.6924L30.7718 9.60597C30.0663 9.11753 29.7135 8.60195 29.7135 8.05923C29.7135 7.67933 30.0663 7.13662 30.7718 6.43109H59.9969C58.6944 4.36878 58.0431 2.76778 58.0431 1.62808Z" fill="black"/>
<path d="M79.372 97.7699H79.2092C78.558 97.7699 78.0695 97.39 77.7439 96.6302V57.0664L77.8253 17.5026C78.368 16.797 78.8836 16.4443 79.372 16.4443C80.0776 16.4443 80.6203 16.8513 81.0002 17.6654V96.6302C80.566 97.39 80.0776 97.7699 79.5349 97.7699H79.372Z" fill="black"/>
</svg>
