<svg width="218" height="719" viewBox="0 0 218 719" fill="none" xmlns="http://www.w3.org/2000/svg">
<path d="M54 54.5C54 24.4005 78.4005 0 108.5 0C138.6 0 163 24.4005 163 54.5V515.5C163 545.599 138.6 570 108.5 570C78.4005 570 54 545.599 54 515.5V54.5Z" fill="#C4C4C4" fill-opacity="0.9"/>
<path d="M218 610C218 670.199 169.199 719 109 719C48.801 719 0 670.199 0 610C0 549.801 48.801 501 109 501C169.199 501 218 549.801 218 610Z" fill="#C4C4C4"/>
<path d="M203 610.5C203 662.691 160.691 705 108.5 705C56.3091 705 14 662.691 14 610.5C14 558.309 56.3091 516 108.5 516C160.691 516 203 558.309 203 610.5Z" fill="#EF2424"/>
<path d="M67 48H151V537H67V48Z" fill="#EF2424"/>
<line x1="151" y1="450" x2="88" y2="450" stroke="black" stroke-width="6"/>
<line x1="151" y1="472" x2="121" y2="472" stroke="black" stroke-width="6"/>
<line x1="151" y1="318" x2="88" y2="318" stroke="black" stroke-width="6"/>
<line x1="151" y1="340" x2="121" y2="340" stroke="black" stroke-width="6"/>
<line x1="151" y1="362" x2="88" y2="362" stroke="black" stroke-width="6"/>
<line x1="151" y1="384" x2="121" y2="384" stroke="black" stroke-width="6"/>
<line x1="151" y1="406" x2="88" y2="406" stroke="black" stroke-width="6"/>
<line x1="151" y1="428" x2="121" y2="428" stroke="black" stroke-width="6"/>
<line x1="151" y1="271" x2="88" y2="271" stroke="black" stroke-width="6"/>
<line x1="151" y1="293" x2="121" y2="293" stroke="black" stroke-width="6"/>
<line x1="151" y1="139" x2="88" y2="139" stroke="black" stroke-width="6"/>
<line x1="151" y1="161" x2="121" y2="161" stroke="black" stroke-width="6"/>
<line x1="151" y1="183" x2="88" y2="183" stroke="black" stroke-width="6"/>
<line x1="151" y1="205" x2="121" y2="205" stroke="black" stroke-width="6"/>
<line x1="151" y1="227" x2="88" y2="227" stroke="black" stroke-width="6"/>
<line x1="151" y1="249" x2="121" y2="249" stroke="black" stroke-width="6"/>
</svg>
