<svg width="612" height="612" viewBox="0 0 612 612" fill="none" xmlns="http://www.w3.org/2000/svg">
<g clip-path="url(#clip0_0:1)">
<g filter="url(#filter0_bi_0:1)">
<g filter="url(#filter1_d_0:1)">
<path d="M306 365.396C340.344 365.396 368.185 337.555 368.185 303.211C368.185 268.867 340.344 241.026 306 241.026C271.656 241.026 243.815 268.867 243.815 303.211C243.815 337.555 271.656 365.396 306 365.396Z" fill="#E18EFD"/>
<path d="M534.101 334.23C526.213 323.926 517.368 313.557 507.684 303.211C517.369 292.866 526.213 282.497 534.101 272.192C552.643 247.971 565.132 225.138 571.223 204.326C576.123 187.586 579.218 163.198 566.139 142.083C548.458 113.537 512.376 107.545 485.221 107.545C462.389 107.545 436.313 111.546 408.272 119.087C405.505 109.953 402.524 101.167 399.327 92.794C388.45 64.307 375.58 41.637 361.074 25.518C344.346 6.932 325.123 -3 305.483 -3H305.357C280.52 -3 261.449 12.665 249.825 25.67C235.373 41.837 222.586 64.606 211.818 93.145C208.716 101.366 205.826 109.983 203.141 118.932C175.322 111.494 149.452 107.549 126.779 107.549C99.623 107.549 63.541 113.544 45.861 142.09C32.783 163.205 35.877 187.6 40.777 204.34C46.868 225.152 59.358 248 77.899 272.22C85.783 282.518 94.622 292.884 104.301 303.225C94.622 313.564 85.783 323.928 77.899 334.226C59.358 358.447 46.868 381.28 40.777 402.092C35.878 418.832 32.782 443.22 45.861 464.335C63.542 492.881 99.624 498.873 126.779 498.873C149.62 498.873 175.705 494.868 203.759 487.323C206.518 496.419 209.488 505.17 212.674 513.514C223.55 542 236.421 564.564 250.926 580.683C267.652 599.272 286.874 609 306.513 609H306.643C331.481 609 350.551 593.532 362.176 580.528C376.628 564.361 389.415 541.789 400.182 513.25C403.269 505.066 406.147 496.49 408.823 487.583C436.654 495.036 462.538 498.992 485.221 498.992C485.224 498.992 485.224 498.992 485.227 498.992C512.381 498.992 548.46 492.94 566.139 464.396C579.217 443.281 576.123 418.836 571.223 402.095C565.133 381.283 552.643 358.451 534.101 334.23ZM485.221 142.319C500.22 142.319 526.836 144.667 536.578 160.394C547.588 178.17 536.341 212.062 506.491 251.055C499.484 260.208 491.634 269.432 483.053 278.653C466.844 263.5 448.969 248.56 429.765 234.121C427.119 205.506 422.865 178.13 417.122 152.747C442.553 145.889 465.693 142.319 485.221 142.319ZM384.282 443.482C383.989 443.378 383.697 443.278 383.403 443.174C370.739 438.686 357.799 433.529 344.724 427.775C354.115 422.487 363.504 416.944 372.857 411.151C379.363 407.122 385.772 403.019 392.08 398.854C389.993 414.319 387.384 429.241 384.282 443.482ZM354.546 381.59C338.541 391.503 322.264 400.742 305.981 409.183C289.71 400.736 273.446 391.495 257.453 381.59C242.953 372.609 228.967 363.27 215.599 353.681C214.451 337.272 213.84 320.466 213.805 303.405C213.769 286.265 214.314 269.375 215.403 252.882C228.83 243.244 242.882 233.858 257.454 224.832C273.449 214.925 289.716 205.691 305.989 197.254C322.27 205.696 338.544 214.934 354.548 224.846C369.051 233.829 383.038 243.169 396.408 252.76C397.552 269.149 398.161 285.931 398.197 302.964C398.233 320.126 397.687 337.033 396.595 353.541C383.167 363.18 369.117 372.565 354.546 381.59ZM228.186 443.26C225.074 429.186 222.441 414.445 220.315 399.175C226.496 403.25 232.774 407.265 239.143 411.21C248.461 416.982 257.815 422.505 267.171 427.777C254.131 433.504 241.225 438.642 228.596 443.117C228.459 443.164 228.323 443.211 228.186 443.26ZM179.397 325.843C170.355 318.374 161.731 310.815 153.561 303.211C161.705 295.629 170.303 288.094 179.315 280.647C179.113 288.199 179.015 295.804 179.032 303.452C179.048 310.96 179.171 318.427 179.397 325.843ZM227.686 162.994C227.99 163.101 228.292 163.205 228.596 163.313C241.242 167.794 254.165 172.939 267.222 178.677C257.849 183.956 248.478 189.489 239.143 195.271C232.634 199.303 226.221 203.408 219.909 207.575C221.99 192.128 224.592 177.221 227.686 162.994ZM383.838 163.154C386.952 177.254 389.584 192.022 391.709 207.322C385.521 203.242 379.235 199.222 372.858 195.272C363.519 189.488 354.145 183.953 344.768 178.672C357.829 172.934 370.755 167.788 383.405 163.305C383.548 163.254 383.692 163.205 383.838 163.154ZM432.605 280.601C441.641 288.067 450.261 295.622 458.425 303.222C450.284 310.8 441.69 318.332 432.682 325.776C432.886 318.206 432.983 310.583 432.967 302.917C432.952 295.435 432.83 287.993 432.605 280.601ZM244.352 105.433C261.687 59.487 284.519 32.031 305.482 31.987C326.387 31.987 349.325 59.35 366.841 105.226C369.771 112.902 372.506 120.965 375.049 129.355C352.701 137.119 329.497 146.834 305.997 158.299C282.295 146.735 258.896 136.955 236.371 129.159C238.844 120.915 241.502 112.986 244.352 105.433ZM75.422 160.394C85.163 144.667 111.78 142.319 126.779 142.319C146.181 142.319 169.146 145.845 194.384 152.619C188.699 178.095 184.524 205.581 181.976 234.316C162.87 248.695 145.083 263.568 128.948 278.653C120.367 269.432 112.518 260.208 105.511 251.055C75.659 212.063 64.412 178.171 75.422 160.394ZM126.778 464.103C111.779 464.103 85.163 461.755 75.422 446.028C64.412 428.252 75.659 394.359 105.509 355.366C112.51 346.22 120.354 337.003 128.927 327.789C145.144 342.956 163.03 357.91 182.247 372.363C184.897 400.957 189.153 428.308 194.899 453.669C169.459 460.531 146.313 464.103 126.778 464.103ZM367.647 500.885C350.312 546.831 327.48 574.227 306.57 574.227H306.521C285.613 574.227 262.674 546.935 245.158 501.06C242.241 493.421 239.519 485.398 236.986 477.054C259.301 469.3 282.468 459.601 305.931 448.157C329.638 459.733 353.044 469.526 375.576 477.336C373.118 485.516 370.477 493.385 367.647 500.885ZM536.578 446.086C526.837 461.813 500.225 464.219 485.227 464.219C485.226 464.219 485.224 464.219 485.223 464.219C465.814 464.219 442.841 460.666 417.594 453.873C423.287 428.378 427.468 400.869 430.02 372.11C449.122 357.734 466.906 342.864 483.04 327.782C491.626 337.009 499.481 346.238 506.491 355.396C536.341 394.388 547.588 428.309 536.578 446.086Z" fill="#E18EFD"/>
</g>
</g>
</g>
<defs>
<filter id="filter0_bi_0:1" x="32.5563" y="-7" width="546.888" height="620" filterUnits="userSpaceOnUse" color-interpolation-filters="sRGB">
<feFlood flood-opacity="0" result="BackgroundImageFix"/>
<feGaussianBlur in="BackgroundImage" stdDeviation="2"/>
<feComposite in2="SourceAlpha" operator="in" result="effect1_backgroundBlur_0:1"/>
<feBlend mode="normal" in="SourceGraphic" in2="effect1_backgroundBlur_0:1" result="shape"/>
<feColorMatrix in="SourceAlpha" type="matrix" values="0 0 0 0 0 0 0 0 0 0 0 0 0 0 0 0 0 0 127 0" result="hardAlpha"/>
<feOffset dy="4"/>
<feGaussianBlur stdDeviation="2"/>
<feComposite in2="hardAlpha" operator="arithmetic" k2="-1" k3="1"/>
<feColorMatrix type="matrix" values="0 0 0 0 0 0 0 0 0 0 0 0 0 0 0 0 0 0 0.25 0"/>
<feBlend mode="normal" in2="shape" result="effect2_innerShadow_0:1"/>
</filter>
<filter id="filter1_d_0:1" x="32.5563" y="-3" width="546.888" height="620" filterUnits="userSpaceOnUse" color-interpolation-filters="sRGB">
<feFlood flood-opacity="0" result="BackgroundImageFix"/>
<feColorMatrix in="SourceAlpha" type="matrix" values="0 0 0 0 0 0 0 0 0 0 0 0 0 0 0 0 0 0 127 0" result="hardAlpha"/>
<feOffset dy="4"/>
<feGaussianBlur stdDeviation="2"/>
<feComposite in2="hardAlpha" operator="out"/>
<feColorMatrix type="matrix" values="0 0 0 0 0 0 0 0 0 0 0 0 0 0 0 0 0 0 0.25 0"/>
<feBlend mode="normal" in2="BackgroundImageFix" result="effect1_dropShadow_0:1"/>
<feBlend mode="normal" in="SourceGraphic" in2="effect1_dropShadow_0:1" result="shape"/>
</filter>
<clipPath id="clip0_0:1">
<rect width="612" height="612" fill="white"/>
</clipPath>
</defs>
</svg>
