<svg width="972" height="926" viewBox="0 0 972 926" fill="none" xmlns="http://www.w3.org/2000/svg">
<path d="M192.381 397.114C191.46 397.114 191 396.843 191 396.302C191 396.193 191.081 395.814 191.244 395.165C191.46 394.298 191.677 393.811 191.894 393.702C192.11 393.594 192.733 393.513 193.762 393.459C195.224 393.459 196.849 393.377 198.636 393.215C199.394 393.053 199.908 392.728 200.179 392.24C200.287 391.969 202.21 384.361 205.947 369.414C209.683 354.468 211.579 346.886 211.633 346.669C211.633 346.29 211.525 346.101 211.308 346.101C210.875 345.938 209.44 345.803 207.003 345.695H204.484C204.16 345.37 203.997 345.153 203.997 345.045C203.997 344.936 204.051 344.476 204.16 343.664C204.376 342.743 204.647 342.174 204.972 341.958H248.756C249.135 342.174 249.324 342.472 249.324 342.851C249.324 343.122 248.972 346.155 248.268 351.949C247.564 357.744 247.185 360.722 247.131 360.885C247.023 361.264 246.481 361.453 245.506 361.453H244.532C244.153 361.183 243.963 360.831 243.963 360.397C243.963 360.343 244.044 359.693 244.207 358.448C244.369 357.202 244.45 355.767 244.45 354.143C244.45 352.518 244.261 351.191 243.882 350.162C243.503 349.133 242.988 348.294 242.338 347.644C241.688 346.994 240.687 346.561 239.333 346.344C237.979 346.128 236.598 345.938 235.19 345.776C233.782 345.613 231.832 345.586 229.341 345.695H227.473C223.032 345.749 220.677 345.83 220.406 345.938C220.135 346.047 219.946 346.263 219.837 346.588C219.783 346.642 218.862 350.189 217.075 357.229L214.476 367.708H218.944C219.106 367.708 219.729 367.708 220.812 367.708C221.895 367.708 222.653 367.681 223.086 367.627C223.52 367.573 224.115 367.492 224.874 367.383C225.632 367.275 226.282 367.085 226.823 366.815C227.365 366.544 227.825 366.219 228.204 365.84C228.908 365.19 229.504 364.297 229.991 363.159C230.479 362.022 230.831 360.993 231.047 360.073C231.264 359.152 231.399 358.664 231.453 358.61C231.616 358.34 232.13 358.204 232.997 358.204H233.971C234.351 358.475 234.54 358.746 234.54 359.016C234.54 359.179 233.701 362.726 232.022 369.658C230.343 376.59 229.423 380.164 229.26 380.38C229.152 380.759 228.61 380.949 227.635 380.949H226.661C226.282 380.624 226.092 380.299 226.092 379.974C226.092 379.812 226.227 379.216 226.498 378.187C226.769 377.158 226.904 376.075 226.904 374.938C226.904 373.367 226.363 372.393 225.28 372.014C224.197 371.634 221.787 371.445 218.05 371.445H213.582L210.983 381.761C209.25 388.476 208.384 391.996 208.384 392.321C208.384 393.08 210.793 393.459 215.613 393.459H217.644C217.969 393.784 218.131 393.973 218.131 394.027C218.131 394.081 218.077 394.623 217.969 395.652C217.752 396.356 217.481 396.87 217.157 397.195H215.776C213.555 397.087 209.467 397.033 203.51 397.033C199.99 397.033 197.309 397.033 195.468 397.033C193.626 397.033 192.598 397.06 192.381 397.114Z" fill="#2CAC0B"/>
<path d="M242.444 322.625C242.444 322.192 242.579 321.812 242.85 321.488C243.121 321.163 243.527 321 244.069 321C244.448 321 244.773 321.136 245.043 321.406C245.314 321.623 245.585 322.137 245.856 322.95C246.397 324.953 247.507 326.497 249.186 327.58C249.782 327.959 250.08 328.446 250.08 329.042C250.08 329.529 249.998 329.854 249.836 330.017C249.674 330.179 249.294 330.423 248.699 330.748C246.37 331.939 244.339 333.645 242.606 335.866C242.498 335.974 242.363 336.136 242.2 336.353C242.038 336.57 241.902 336.732 241.794 336.84C241.686 336.949 241.55 337.003 241.388 337.003C241.225 337.003 241.036 337.03 240.819 337.084C240.44 337.084 240.088 336.949 239.763 336.678C239.438 336.407 239.249 336.001 239.195 335.459C239.195 334.43 240.467 332.833 243.013 330.667H229.122L215.231 330.585C214.527 330.098 214.175 329.584 214.175 329.042C214.175 328.663 214.527 328.121 215.231 327.417H244.393C243.094 325.36 242.444 323.762 242.444 322.625Z" fill="#2CAC0B"/>
<path d="M259.212 418.684C259.289 418.684 259.404 418.722 259.557 418.799C259.71 418.875 259.921 418.933 260.189 418.971C260.457 419.009 260.686 419.028 260.878 419.028C261.375 419.028 261.835 418.78 262.256 418.282C262.677 417.784 262.983 417.229 263.175 416.616C263.558 415.583 264.209 412.654 265.128 407.829C266.046 403.005 266.927 398.411 267.769 394.046C268.612 389.681 269.033 387.48 269.033 387.442V387.269H266.334C264.534 387.269 263.577 387.231 263.462 387.154C263.309 387.039 263.232 386.848 263.232 386.58L263.634 384.972C263.711 384.781 263.864 384.685 264.094 384.685C264.324 384.685 265.223 384.666 266.793 384.627C268.631 384.627 269.55 384.608 269.55 384.57C269.55 384.493 269.722 383.536 270.067 381.698C270.411 379.861 270.641 378.75 270.756 378.367C272.172 372.05 274.967 368.891 279.141 368.891C280.557 368.968 281.725 369.389 282.644 370.155C283.563 370.921 284.022 371.935 284.022 373.199C284.022 374.577 283.62 375.572 282.816 376.185C282.012 376.798 281.208 377.123 280.404 377.161C278.719 377.161 277.877 376.357 277.877 374.749C277.877 374.022 278.088 373.39 278.509 372.854C278.93 372.318 279.39 371.916 279.887 371.648L280.404 371.361C279.792 371.131 279.217 371.016 278.681 371.016C278.222 371.016 277.781 371.208 277.36 371.591C276.939 371.974 276.652 372.51 276.499 373.199C276.231 374.309 275.925 375.802 275.58 377.678C275.235 379.554 274.929 381.143 274.661 382.445C274.393 383.747 274.259 384.436 274.259 384.513C274.259 384.589 275.312 384.627 277.418 384.627C279.141 384.627 280.136 384.647 280.404 384.685C280.672 384.723 280.883 384.838 281.036 385.029C281.074 385.183 281.036 385.508 280.921 386.006C280.806 386.503 280.71 386.81 280.634 386.925C280.557 387.116 280.385 387.212 280.117 387.212C279.849 387.212 278.815 387.231 277.016 387.269H273.8L272.479 394.276C270.641 403.771 269.358 409.705 268.631 412.079C267.597 415.334 266.257 417.746 264.611 419.316C263.194 420.541 261.797 421.153 260.418 421.153C259.193 421.153 258.083 420.79 257.087 420.062C256.092 419.335 255.594 418.301 255.594 416.961C255.594 415.544 255.996 414.511 256.8 413.86C257.604 413.209 258.408 412.883 259.212 412.883C260.897 412.883 261.739 413.687 261.739 415.295C261.739 416.023 261.529 416.655 261.107 417.191C260.686 417.727 260.227 418.129 259.729 418.397L259.212 418.684Z" fill="#2CAC0B"/>
<path d="M285.489 391.724C285.489 391.454 285.544 391.142 285.652 390.79C285.76 390.439 285.923 390.263 286.139 390.263C286.166 390.263 287.141 390.195 289.063 390.06C290.984 389.924 291.972 389.843 292.027 389.816C292.351 389.816 292.514 389.924 292.514 390.141C292.514 390.33 291.837 393.159 290.484 398.627C289.13 403.987 288.454 406.761 288.454 406.951C288.968 406.68 289.36 406.423 289.631 406.179C290.281 405.692 291.215 404.839 292.433 403.621C293.651 402.403 294.598 401.577 295.275 401.144C296.358 400.413 297.386 400.048 298.361 400.048C299.173 400.048 299.809 400.305 300.269 400.819C300.729 401.334 300.973 402.065 301 403.012C301 403.689 300.905 404.257 300.716 404.717C300.526 405.178 300.269 405.516 299.944 405.733C299.619 405.949 299.335 406.098 299.092 406.179C298.848 406.26 298.604 406.301 298.361 406.301C297.819 406.301 297.386 406.152 297.061 405.854C296.737 405.557 296.574 405.164 296.574 404.677C296.574 404 296.791 403.445 297.224 403.012C297.657 402.579 298.09 402.295 298.523 402.159L299.173 402.038C298.848 401.713 298.523 401.55 298.198 401.55H298.036C297.17 401.632 296.317 401.97 295.478 402.565C294.639 403.161 293.651 404.027 292.514 405.164C291.377 406.301 290.484 407.127 289.834 407.641C289.888 407.668 290.091 407.709 290.443 407.763C290.795 407.817 291.12 407.898 291.418 408.006C291.715 408.115 292.067 408.223 292.473 408.331C292.879 408.439 293.245 408.629 293.57 408.9C293.894 409.17 294.192 409.414 294.463 409.63C294.734 409.847 294.964 410.199 295.153 410.686C295.343 411.173 295.424 411.62 295.397 412.026C295.397 412.486 295.329 413.041 295.194 413.691C295.058 414.34 294.977 414.882 294.95 415.315C294.95 416.398 295.315 416.939 296.046 416.939C297.346 416.939 298.401 415.328 299.213 412.107C299.268 411.891 299.538 411.782 300.026 411.782H300.188C300.621 411.782 300.838 411.904 300.838 412.148C300.838 412.283 300.797 412.473 300.716 412.716C299.606 416.533 298.009 418.441 295.925 418.441C294.706 418.441 293.718 418.09 292.96 417.386C292.203 416.682 291.824 415.667 291.824 414.34C291.824 413.853 291.864 413.434 291.945 413.082C292.027 412.73 292.067 412.405 292.067 412.107C292.067 411.512 291.878 410.997 291.499 410.564C291.12 410.131 290.646 409.82 290.078 409.63C289.509 409.441 289.049 409.292 288.697 409.184C288.345 409.076 288.102 409.035 287.966 409.062H287.885C287.56 410.199 287.276 411.295 287.032 412.351C286.789 413.407 286.599 414.192 286.464 414.706C286.329 415.22 286.207 415.721 286.098 416.208C285.99 416.695 285.895 417.02 285.814 417.183C285.733 417.345 285.638 417.521 285.53 417.711C285.422 417.9 285.273 418.022 285.083 418.076C284.732 418.32 284.353 418.441 283.947 418.441C283.486 418.441 283.134 418.306 282.891 418.035C282.647 417.765 282.525 417.535 282.525 417.345C282.525 417.074 283.026 414.909 284.028 410.849C285.029 406.788 286.017 402.796 286.992 398.871L288.494 392.983C288.521 392.631 288.426 392.415 288.21 392.333C287.993 392.252 287.465 392.184 286.626 392.13H286.423C286.153 392.13 285.977 392.13 285.895 392.13C285.814 392.13 285.72 392.09 285.611 392.009C285.503 391.927 285.462 391.833 285.489 391.724Z" fill="#2CAC0B"/>
<path d="M797 216L739.975 225.028L776.306 269.899L797 216ZM490.146 470.886L765.173 248.203L758.88 240.431L483.854 463.114L490.146 470.886Z" fill="#6C63FF"/>
<path d="M659 409.133C659 401.171 660.522 392.779 663.567 383.958C666.611 375.137 670.749 367.525 675.979 361.124C681.209 354.723 686.635 351.054 692.255 350.117C692.333 350.117 692.646 350.117 693.192 350.117C693.738 350.117 694.207 350.078 694.597 350C698.813 350.312 702.091 352.225 704.433 355.738C707.478 360.422 709 366.706 709 374.59C709 383.568 707.244 392.701 703.731 401.991C700.218 411.28 695.729 418.891 690.265 424.824C684.8 430.757 679.57 433.724 674.574 433.724H673.754C670.944 433.724 668.524 432.943 666.494 431.382C664.464 429.82 662.942 427.752 661.927 425.176C660.913 422.6 660.171 419.984 659.703 417.33C659.234 414.676 659 411.944 659 409.133ZM699.749 366.276C699.749 358.314 697.681 354.333 693.543 354.333C690.733 354.333 688.001 356.089 685.347 359.602C682.692 363.115 680.507 367.096 678.789 371.546C677.072 375.995 675.745 379.898 674.808 383.255C673.871 386.612 673.364 388.564 673.286 389.11C677.111 389.188 680.897 389.227 684.644 389.227L696.002 389.11C696.08 389.032 696.393 387.744 696.939 385.246C697.486 382.748 698.11 379.625 698.813 375.878C699.515 372.131 699.827 368.931 699.749 366.276ZM668.133 417.096C668.133 425.371 670.202 429.508 674.34 429.508C675.511 429.508 676.76 429.118 678.087 428.337C679.414 427.557 681.014 426.073 682.888 423.888C684.761 421.702 686.635 418.306 688.508 413.7C690.382 409.094 692.255 403.396 694.129 396.604L694.714 394.614H671.881C671.881 394.848 671.529 396.331 670.827 399.063C670.124 401.795 669.5 404.84 668.953 408.197C668.407 411.553 668.133 414.52 668.133 417.096Z" fill="#6C63FF"/>
<path d="M798.636 187.183C797.545 187.183 797 186.862 797 186.221C797 186.092 797.096 185.643 797.289 184.873C797.545 183.847 797.802 183.269 798.059 183.141C798.315 183.012 799.053 182.916 800.272 182.852C802.005 182.852 803.93 182.756 806.047 182.563C806.945 182.371 807.555 181.986 807.876 181.408C808.004 181.087 810.282 172.072 814.709 154.363C819.137 136.654 821.382 127.671 821.447 127.414C821.447 126.965 821.318 126.74 821.062 126.74C820.548 126.548 818.848 126.387 815.961 126.259H812.977C812.592 125.874 812.399 125.617 812.399 125.489C812.399 125.361 812.464 124.815 812.592 123.853C812.849 122.762 813.169 122.088 813.554 121.832H865.431C865.88 122.088 866.105 122.441 866.105 122.89C866.105 123.211 865.688 126.804 864.854 133.67C864.02 140.536 863.57 144.065 863.506 144.257C863.378 144.706 862.736 144.931 861.581 144.931H860.426C859.977 144.61 859.753 144.193 859.753 143.68C859.753 143.616 859.849 142.846 860.041 141.37C860.234 139.894 860.33 138.194 860.33 136.269C860.33 134.344 860.106 132.772 859.656 131.553C859.207 130.334 858.598 129.339 857.828 128.569C857.058 127.799 855.871 127.286 854.267 127.029C852.663 126.772 851.026 126.548 849.358 126.355C847.69 126.163 845.38 126.131 842.428 126.259H840.215C834.953 126.323 832.162 126.419 831.841 126.548C831.52 126.676 831.296 126.933 831.167 127.318C831.103 127.382 830.013 131.585 827.895 139.926L824.815 152.342H830.109C830.301 152.342 831.039 152.342 832.322 152.342C833.606 152.342 834.504 152.31 835.017 152.246C835.531 152.181 836.236 152.085 837.135 151.957C838.033 151.829 838.803 151.604 839.445 151.283C840.086 150.962 840.632 150.577 841.081 150.128C841.915 149.358 842.621 148.3 843.198 146.952C843.776 145.605 844.193 144.385 844.449 143.295C844.706 142.204 844.867 141.626 844.931 141.562C845.123 141.241 845.733 141.081 846.759 141.081H847.914C848.363 141.402 848.588 141.723 848.588 142.043C848.588 142.236 847.594 146.439 845.604 154.652C843.615 162.865 842.525 167.1 842.332 167.356C842.204 167.805 841.562 168.03 840.407 168.03H839.252C838.803 167.645 838.578 167.26 838.578 166.875C838.578 166.683 838.739 165.977 839.06 164.758C839.38 163.539 839.541 162.255 839.541 160.908C839.541 159.047 838.899 157.892 837.616 157.443C836.333 156.994 833.477 156.769 829.05 156.769H823.756L820.677 168.992C818.623 176.949 817.597 181.12 817.597 181.505C817.597 182.403 820.452 182.852 826.163 182.852H828.569C828.954 183.237 829.146 183.462 829.146 183.526C829.146 183.59 829.082 184.231 828.954 185.451C828.697 186.285 828.376 186.894 827.991 187.279H826.355C823.724 187.151 818.88 187.087 811.822 187.087C807.651 187.087 804.475 187.087 802.294 187.087C800.112 187.087 798.893 187.119 798.636 187.183Z" fill="#6C63FF"/>
<path d="M857.953 98.9253C857.953 98.412 858.113 97.9628 858.434 97.5778C858.755 97.1928 859.236 97.0003 859.878 97.0003C860.327 97.0003 860.712 97.1608 861.033 97.4816C861.354 97.7382 861.674 98.3478 861.995 99.3103C862.637 101.684 863.952 103.513 865.941 104.796C866.647 105.245 867 105.823 867 106.529C867 107.106 866.904 107.491 866.711 107.684C866.519 107.876 866.07 108.165 865.364 108.55C862.605 109.962 860.199 111.983 858.145 114.613C858.017 114.742 857.857 114.934 857.664 115.191C857.472 115.448 857.311 115.64 857.183 115.768C857.055 115.897 856.894 115.961 856.702 115.961C856.509 115.961 856.285 115.993 856.028 116.057C855.579 116.057 855.162 115.897 854.777 115.576C854.392 115.255 854.167 114.774 854.103 114.132C854.103 112.913 855.611 111.02 858.627 108.454H842.168L825.71 108.357C824.876 107.78 824.459 107.17 824.459 106.529C824.459 106.08 824.876 105.438 825.71 104.604H860.263C858.723 102.166 857.953 100.273 857.953 98.9253Z" fill="#6C63FF"/>
<path d="M85.9381 464.939C85.3523 465.525 85.3523 466.475 85.9381 467.061L95.4841 476.607C96.0699 477.192 97.0196 477.192 97.6054 476.607C98.1912 476.021 98.1912 475.071 97.6054 474.485L89.1201 466L97.6054 457.515C98.1912 456.929 98.1912 455.979 97.6054 455.393C97.0196 454.808 96.0699 454.808 95.4841 455.393L85.9381 464.939ZM888.059 467.061C888.645 466.475 888.645 465.525 888.059 464.939L878.514 455.393C877.928 454.808 876.978 454.808 876.392 455.393C875.806 455.979 875.806 456.929 876.392 457.515L884.877 466L876.392 474.485C875.806 475.071 875.806 476.021 876.392 476.607C876.978 477.192 877.928 477.192 878.514 476.607L888.059 467.061ZM86.9988 467.5H886.999V464.5H86.9988V467.5Z" fill="black"/>
<path d="M897 466.86C897 466.86 897 466.599 897 466.076C897 465.554 897.281 465.152 897.844 464.87H915.871V455.827L915.931 446.784C916.333 446.261 916.715 446 917.076 446C917.599 446 918.001 446.301 918.282 446.904V464.87H936.248C936.851 465.192 937.153 465.594 937.153 466.076C937.153 466.559 936.851 466.96 936.248 467.282H918.282V485.248C917.961 485.811 917.599 486.092 917.197 486.092H917.076H916.956C916.473 486.092 916.112 485.811 915.871 485.248V467.282H897.844C897.281 467.001 897 466.599 897 466.076V466.86Z" fill="black"/>
<path d="M943.664 463.725C943.945 462.037 945.031 460.087 946.92 457.877C948.809 455.666 951.14 454.541 953.913 454.5C955.32 454.5 956.606 454.862 957.772 455.586C958.937 456.309 959.801 457.213 960.364 458.299C962.052 455.767 964.082 454.5 966.453 454.5C967.941 454.5 969.227 454.943 970.312 455.827C971.397 456.711 971.96 457.897 972 459.384C972 460.549 971.719 461.494 971.156 462.217C970.593 462.941 970.051 463.383 969.528 463.544C969.006 463.705 968.543 463.785 968.142 463.785C967.378 463.785 966.755 463.564 966.273 463.122C965.79 462.68 965.549 462.097 965.549 461.373C965.549 459.525 966.554 458.258 968.564 457.575C968.121 457.053 967.318 456.791 966.152 456.791C965.629 456.791 965.248 456.832 965.006 456.912C963.479 457.555 962.354 458.881 961.63 460.891C959.219 469.774 958.013 474.959 958.013 476.446C958.013 477.571 958.334 478.375 958.978 478.857C959.621 479.34 960.324 479.581 961.088 479.581C962.575 479.581 964.042 478.918 965.489 477.591C966.936 476.265 967.92 474.637 968.443 472.708C968.564 472.306 968.684 472.085 968.805 472.045C968.925 472.004 969.247 471.964 969.769 471.924H970.01C970.613 471.924 970.915 472.085 970.915 472.406C970.915 472.447 970.875 472.668 970.794 473.07C970.151 475.361 968.905 477.39 967.056 479.159C965.207 480.927 963.057 481.812 960.605 481.812C957.792 481.812 955.662 480.545 954.215 478.013C952.567 480.505 950.678 481.751 948.547 481.751H948.186C946.216 481.751 944.81 481.229 943.965 480.184C943.121 479.139 942.679 478.033 942.639 476.868C942.639 475.582 943.021 474.537 943.785 473.733C944.548 472.929 945.453 472.527 946.498 472.527C948.226 472.527 949.09 473.371 949.09 475.059C949.09 475.863 948.849 476.566 948.367 477.169C947.884 477.772 947.422 478.174 946.98 478.375C946.538 478.576 946.277 478.676 946.196 478.676L946.015 478.737C946.015 478.777 946.136 478.857 946.377 478.978C946.618 479.099 946.94 479.239 947.342 479.4C947.744 479.561 948.125 479.621 948.487 479.581C949.934 479.581 951.18 478.676 952.225 476.868C952.587 476.225 953.049 474.858 953.612 472.768C954.174 470.678 954.737 468.508 955.3 466.257C955.863 464.006 956.184 462.68 956.265 462.278C956.465 461.193 956.566 460.409 956.566 459.926C956.566 458.801 956.265 457.997 955.662 457.515C955.059 457.033 954.375 456.791 953.612 456.791C952.004 456.791 950.497 457.435 949.09 458.721C947.683 460.007 946.699 461.655 946.136 463.664C946.055 464.026 945.955 464.227 945.834 464.267C945.714 464.308 945.392 464.348 944.87 464.388H944.026C943.785 464.147 943.664 463.926 943.664 463.725Z" fill="black"/>
<path d="M0 465.318C0 465.318 0 465.037 0 464.474C0 463.911 0.30318 463.477 0.90954 463.174H38.6554C39.3051 463.521 39.6299 463.954 39.6299 464.474C39.6299 464.993 39.3051 465.426 38.6554 465.773H0.90954C0.30318 465.47 0 465.037 0 464.474V465.318Z" fill="black"/>
<path d="M48.4654 461.94C48.7686 460.121 49.938 458.02 51.9736 455.638C54.0092 453.256 56.5213 452.043 59.5098 452C61.0257 452 62.4117 452.39 63.6677 453.169C64.9237 453.949 65.8549 454.924 66.4613 456.093C68.2804 453.364 70.4676 452 73.0229 452C74.6255 452 76.0114 452.477 77.1808 453.429C78.3503 454.382 78.9566 455.66 78.9999 457.262C78.9999 458.518 78.6967 459.536 78.0904 460.316C77.484 461.095 76.8993 461.572 76.3363 461.745C75.7732 461.918 75.2751 462.005 74.842 462.005C74.0191 462.005 73.3478 461.767 72.828 461.29C72.3083 460.814 72.0484 460.186 72.0484 459.406C72.0484 457.414 73.1312 456.05 75.2968 455.313C74.8204 454.75 73.9541 454.469 72.6981 454.469C72.1351 454.469 71.7236 454.512 71.4637 454.599C69.8179 455.292 68.6052 456.721 67.8256 458.887C65.2269 468.458 63.9276 474.046 63.9276 475.648C63.9276 476.861 64.274 477.727 64.967 478.247C65.66 478.767 66.418 479.026 67.2409 479.026C68.8434 479.026 70.4243 478.312 71.9835 476.882C73.5427 475.453 74.6038 473.699 75.1669 471.62C75.2968 471.187 75.4267 470.949 75.5567 470.906C75.6866 470.862 76.0331 470.819 76.5961 470.776H76.856C77.5057 470.776 77.8305 470.949 77.8305 471.295C77.8305 471.339 77.7872 471.577 77.7006 472.01C77.0076 474.479 75.6649 476.666 73.6726 478.572C71.6803 480.477 69.3631 481.43 66.7211 481.43C63.6893 481.43 61.3938 480.066 59.8346 477.337C58.0589 480.023 56.0232 481.365 53.7277 481.365H53.3379C51.2157 481.365 49.6998 480.802 48.7902 479.676C47.8807 478.55 47.4043 477.359 47.3609 476.103C47.3609 474.717 47.7724 473.591 48.5953 472.725C49.4182 471.858 50.3927 471.425 51.5188 471.425C53.3812 471.425 54.3124 472.335 54.3124 474.154C54.3124 475.02 54.0526 475.778 53.5328 476.428C53.0131 477.077 52.515 477.51 52.0386 477.727C51.5622 477.944 51.2806 478.052 51.194 478.052L50.9991 478.117C50.9991 478.16 51.129 478.247 51.3889 478.377C51.6488 478.507 51.9953 478.658 52.4284 478.831C52.8615 479.005 53.273 479.07 53.6628 479.026C55.222 479.026 56.5646 478.052 57.6907 476.103C58.0805 475.41 58.5786 473.937 59.185 471.685C59.7913 469.433 60.3977 467.094 61.004 464.669C61.6104 462.243 61.9569 460.814 62.0435 460.381C62.2601 459.211 62.3683 458.367 62.3683 457.847C62.3683 456.634 62.0435 455.768 61.3938 455.248C60.7442 454.729 60.0079 454.469 59.185 454.469C57.4525 454.469 55.8283 455.162 54.3124 456.548C52.7965 457.934 51.7354 459.71 51.129 461.875C51.0424 462.265 50.9341 462.481 50.8042 462.525C50.6743 462.568 50.3278 462.611 49.7647 462.655H48.8552C48.5953 462.395 48.4654 462.157 48.4654 461.94Z" fill="black"/>
<path d="M485.938 867.061C486.524 867.646 487.474 867.646 488.059 867.061L497.605 857.515C498.191 856.929 498.191 855.979 497.605 855.393C497.02 854.808 496.07 854.808 495.484 855.393L486.999 863.879L478.513 855.393C477.928 854.808 476.978 854.808 476.392 855.393C475.806 855.979 475.806 856.929 476.392 857.515L485.938 867.061ZM488.059 64.9393C487.474 64.3536 486.524 64.3536 485.938 64.9393L476.392 74.4853C475.806 75.0711 475.806 76.0208 476.392 76.6066C476.978 77.1924 477.928 77.1924 478.513 76.6066L486.999 68.1213L495.484 76.6066C496.07 77.1924 497.02 77.1924 497.605 76.6066C498.191 76.0208 498.191 75.0711 497.605 74.4853L488.059 64.9393ZM488.499 866L488.499 66H485.499L485.499 866H488.499Z" fill="black"/>
<path d="M425 21.8687C425 21.8687 425 21.5948 425 21.0471C425 20.4993 425.295 20.0779 425.885 19.7829H444.783V10.3021L444.847 0.82132C445.268 0.27354 445.668 -0.000349991 446.047 -0.000349991C446.595 -0.000349991 447.017 0.315677 447.312 0.947731V19.7829H466.147C466.779 20.12 467.095 20.5414 467.095 21.0471C467.095 21.5527 466.779 21.9741 466.147 22.3112H447.312V41.1464C446.974 41.7363 446.595 42.0312 446.174 42.0312H446.047H445.921C445.415 42.0312 445.036 41.7363 444.783 41.1464V22.3112H425.885C425.295 22.0162 425 21.5948 425 21.0471V21.8687Z" fill="black"/>
<path d="M471.962 18.7086C471.962 18.1187 472.278 17.1074 472.91 15.6747C473.542 14.2421 474.553 12.7462 475.944 11.1872C477.334 9.62808 478.893 8.86962 480.621 8.91176C482.348 8.91176 483.739 9.39633 484.792 10.3655C485.846 11.3346 486.394 12.683 486.436 14.4106C486.351 15.2112 486.288 15.6537 486.246 15.7379C486.246 15.8644 485.909 16.8335 485.235 18.6454C484.561 20.4573 483.865 22.5009 483.149 24.7763C482.433 27.0517 482.096 28.8636 482.138 30.212C482.138 32.0239 482.433 33.288 483.023 34.0043C483.613 34.7206 484.497 35.0999 485.677 35.142C486.646 35.142 487.552 34.9103 488.395 34.4467C489.238 33.9832 489.891 33.4987 490.354 32.993C490.818 32.4874 491.387 31.7921 492.061 30.9072C492.061 30.8651 492.166 30.4437 492.377 29.6431C492.588 28.8425 492.883 27.5995 493.262 25.914C493.641 24.2285 494.041 22.6695 494.463 21.2368C496.064 14.9163 496.949 11.6085 497.117 11.3136C497.665 10.1759 498.571 9.60702 499.835 9.60702C500.383 9.60702 500.825 9.7545 501.163 10.0495C501.5 10.3444 501.731 10.5972 501.858 10.8079C501.984 11.0186 502.026 11.2082 501.984 11.3768C501.984 11.9245 500.952 16.3489 498.887 24.6499C496.822 32.9509 495.643 37.5017 495.348 38.3023C494.168 41.7996 492.124 44.5807 489.217 46.6454C486.309 48.7101 483.402 49.7635 480.494 49.8057C478.598 49.8057 476.934 49.3422 475.501 48.4151C474.068 47.4881 473.352 46.0976 473.352 44.2436C473.352 43.3166 473.5 42.537 473.795 41.905C474.09 41.2729 474.49 40.8094 474.995 40.5145C475.501 40.2195 475.923 40.0088 476.26 39.8824C476.597 39.756 476.955 39.6928 477.334 39.6928C479.188 39.6928 480.115 40.5777 480.115 42.3474C480.115 43.1902 479.862 43.9276 479.357 44.5596C478.851 45.1917 478.366 45.613 477.903 45.8237C477.439 46.0344 477.166 46.1397 477.081 46.1397L476.892 46.203C476.976 46.4136 477.376 46.6665 478.093 46.9614C478.809 47.2564 479.525 47.4039 480.242 47.4039H480.747C481.464 47.4039 482.011 47.3617 482.391 47.2774C483.781 46.8982 485.066 46.0976 486.246 44.8756C487.426 43.6537 488.332 42.3474 488.964 40.9569C489.596 39.5664 490.081 38.3866 490.418 37.4174C490.755 36.4483 490.923 35.8162 490.923 35.5212L490.544 35.7741C490.291 35.9426 489.891 36.1744 489.343 36.4693C488.795 36.7643 488.248 37.0171 487.7 37.2278C486.857 37.4385 486.035 37.5438 485.235 37.5438C483.296 37.5438 481.59 37.0803 480.115 36.1533C478.64 35.2263 477.671 33.7304 477.208 31.6657C477.166 31.3707 477.144 30.7176 477.144 29.7063C477.144 27.3045 477.882 24.1653 479.357 20.2887C480.831 16.4121 481.569 13.9471 481.569 12.8937C481.569 12.8516 481.569 12.8094 481.569 12.7673C481.569 12.3881 481.569 12.1352 481.569 12.0088C481.569 11.8824 481.485 11.7349 481.316 11.5664C481.147 11.3978 480.916 11.3136 480.621 11.3136H480.368C479.399 11.3136 478.514 11.7139 477.713 12.5145C476.913 13.3151 476.281 14.1789 475.817 15.1059C475.354 16.0329 474.995 16.9178 474.743 17.7605C474.49 18.6033 474.321 19.0668 474.237 19.151C474.153 19.2353 473.816 19.2774 473.226 19.2774H472.341C472.088 19.0246 471.962 18.835 471.962 18.7086Z" fill="black"/>
<path d="M423 895.78C423 895.78 423 895.489 423 894.906C423 894.324 423.314 893.876 423.941 893.562H462.992C463.664 893.92 464 894.369 464 894.906C464 895.444 463.664 895.892 462.992 896.25H423.941C423.314 895.937 423 895.489 423 894.906V895.78Z" fill="black"/>
<path d="M471.057 892.42C471.057 891.792 471.393 890.717 472.065 889.193C472.737 887.67 473.813 886.079 475.292 884.421C476.77 882.763 478.428 881.957 480.265 882.002C482.102 882.002 483.581 882.517 484.701 883.548C485.822 884.578 486.404 886.012 486.449 887.849C486.359 888.7 486.292 889.171 486.247 889.261C486.247 889.395 485.889 890.426 485.172 892.352C484.455 894.279 483.716 896.452 482.954 898.872C482.192 901.292 481.834 903.218 481.878 904.652C481.878 906.579 482.192 907.923 482.819 908.685C483.447 909.447 484.388 909.85 485.642 909.895C486.673 909.895 487.636 909.648 488.532 909.156C489.429 908.663 490.123 908.147 490.616 907.61C491.109 907.072 491.714 906.333 492.431 905.392C492.431 905.347 492.543 904.899 492.767 904.047C492.991 903.196 493.305 901.874 493.708 900.082C494.111 898.29 494.537 896.632 494.985 895.108C496.688 888.387 497.629 884.869 497.808 884.556C498.39 883.346 499.354 882.741 500.698 882.741C501.28 882.741 501.751 882.898 502.109 883.211C502.468 883.525 502.714 883.794 502.849 884.018C502.983 884.242 503.028 884.444 502.983 884.623C502.983 885.205 501.885 889.91 499.69 898.738C497.494 907.565 496.24 912.404 495.926 913.256C494.671 916.975 492.498 919.932 489.406 922.128C486.314 924.323 483.223 925.443 480.131 925.488C478.114 925.488 476.345 924.995 474.821 924.01C473.298 923.024 472.536 921.545 472.536 919.574C472.536 918.588 472.693 917.759 473.006 917.087C473.32 916.415 473.746 915.922 474.283 915.608C474.821 915.294 475.269 915.07 475.628 914.936C475.986 914.801 476.367 914.734 476.77 914.734C478.742 914.734 479.728 915.675 479.728 917.557C479.728 918.453 479.459 919.237 478.921 919.91C478.383 920.582 477.868 921.03 477.375 921.254C476.882 921.478 476.591 921.59 476.501 921.59L476.3 921.657C476.389 921.881 476.815 922.15 477.577 922.464C478.339 922.777 479.1 922.934 479.862 922.934H480.4C481.161 922.934 481.744 922.889 482.147 922.8C483.626 922.396 484.993 921.545 486.247 920.246C487.502 918.946 488.465 917.557 489.137 916.078C489.809 914.6 490.325 913.345 490.683 912.315C491.042 911.284 491.221 910.612 491.221 910.298L490.818 910.567C490.549 910.746 490.123 910.993 489.541 911.306C488.958 911.62 488.376 911.889 487.793 912.113C486.897 912.337 486.023 912.449 485.172 912.449C483.111 912.449 481.296 911.956 479.728 910.97C478.159 909.985 477.129 908.394 476.636 906.198C476.591 905.885 476.569 905.19 476.569 904.115C476.569 901.561 477.353 898.222 478.921 894.1C480.489 889.978 481.273 887.356 481.273 886.236C481.273 886.191 481.273 886.146 481.273 886.102C481.273 885.698 481.273 885.429 481.273 885.295C481.273 885.161 481.184 885.004 481.005 884.825C480.825 884.645 480.579 884.556 480.265 884.556H479.996C478.966 884.556 478.025 884.981 477.173 885.833C476.322 886.684 475.65 887.603 475.157 888.588C474.664 889.574 474.283 890.515 474.014 891.411C473.746 892.308 473.566 892.8 473.477 892.89C473.387 892.98 473.029 893.025 472.401 893.025H471.46C471.192 892.756 471.057 892.554 471.057 892.42Z" fill="black"/>
<path d="M486.971 859L513.069 814.068L461.108 813.933L486.971 859ZM483.5 462.988L482.577 818.488L491.577 818.512L492.5 463.012L483.5 462.988Z" fill="#D46FA0"/>
<path d="M347.629 797.795C346.543 797.795 346 797.475 346 796.836C346 796.709 346.096 796.261 346.287 795.495C346.543 794.473 346.799 793.898 347.054 793.77C347.31 793.642 348.044 793.546 349.258 793.482C350.983 793.482 352.9 793.386 355.008 793.195C355.903 793.003 356.51 792.62 356.829 792.045C356.957 791.725 359.225 782.749 363.633 765.116C368.042 747.483 370.278 738.538 370.341 738.283C370.341 737.835 370.214 737.612 369.958 737.612C369.447 737.42 367.754 737.26 364.879 737.133H361.908C361.525 736.749 361.333 736.494 361.333 736.366C361.333 736.238 361.397 735.695 361.525 734.737C361.78 733.651 362.1 732.98 362.483 732.724H414.137C414.584 732.98 414.808 733.331 414.808 733.779C414.808 734.098 414.393 737.676 413.562 744.512C412.731 751.348 412.284 754.862 412.22 755.053C412.093 755.501 411.454 755.724 410.304 755.724H409.154C408.706 755.405 408.483 754.99 408.483 754.478C408.483 754.415 408.579 753.648 408.77 752.178C408.962 750.709 409.058 749.016 409.058 747.099C409.058 745.183 408.834 743.617 408.387 742.404C407.94 741.19 407.333 740.199 406.566 739.433C405.8 738.666 404.618 738.155 403.02 737.899C401.423 737.644 399.794 737.42 398.133 737.229C396.472 737.037 394.172 737.005 391.233 737.133H389.029C383.79 737.197 381.011 737.292 380.691 737.42C380.372 737.548 380.148 737.804 380.021 738.187C379.957 738.251 378.871 742.435 376.762 750.741L373.696 763.103H378.966C379.158 763.103 379.893 763.103 381.171 763.103C382.448 763.103 383.343 763.071 383.854 763.008C384.365 762.944 385.068 762.848 385.962 762.72C386.857 762.592 387.623 762.369 388.262 762.049C388.901 761.73 389.444 761.346 389.891 760.899C390.722 760.133 391.425 759.078 392 757.737C392.575 756.395 392.99 755.181 393.245 754.095C393.501 753.009 393.661 752.434 393.725 752.37C393.916 752.051 394.523 751.891 395.545 751.891H396.695C397.143 752.21 397.366 752.53 397.366 752.849C397.366 753.041 396.376 757.226 394.395 765.403C392.415 773.581 391.329 777.798 391.137 778.053C391.009 778.5 390.371 778.724 389.221 778.724H388.071C387.623 778.341 387.4 777.957 387.4 777.574C387.4 777.382 387.559 776.68 387.879 775.466C388.198 774.252 388.358 772.974 388.358 771.632C388.358 769.78 387.719 768.63 386.441 768.183C385.164 767.735 382.321 767.512 377.912 767.512H372.641L369.575 779.682C367.53 787.605 366.508 791.757 366.508 792.141C366.508 793.035 369.351 793.482 375.037 793.482H377.433C377.816 793.866 378.008 794.089 378.008 794.153C378.008 794.217 377.944 794.856 377.816 796.07C377.561 796.9 377.241 797.507 376.858 797.891H375.229C372.61 797.763 367.786 797.699 360.758 797.699C356.605 797.699 353.443 797.699 351.271 797.699C349.099 797.699 347.885 797.731 347.629 797.795Z" fill="#D46FA0"/>
<path d="M406.691 709.916C406.691 709.405 406.851 708.958 407.17 708.575C407.489 708.191 407.969 708 408.607 708C409.055 708 409.438 708.159 409.757 708.479C410.077 708.734 410.396 709.341 410.716 710.3C411.355 712.664 412.664 714.484 414.645 715.762C415.348 716.209 415.699 716.784 415.699 717.487C415.699 718.062 415.603 718.446 415.412 718.637C415.22 718.829 414.773 719.116 414.07 719.5C411.323 720.905 408.927 722.918 406.882 725.537C406.755 725.665 406.595 725.857 406.403 726.112C406.212 726.368 406.052 726.559 405.924 726.687C405.796 726.815 405.637 726.879 405.445 726.879C405.253 726.879 405.03 726.911 404.774 726.975C404.327 726.975 403.912 726.815 403.528 726.495C403.145 726.176 402.921 725.697 402.858 725.058C402.858 723.844 404.359 721.959 407.362 719.404H390.974L374.587 719.308C373.756 718.733 373.341 718.126 373.341 717.487C373.341 717.04 373.756 716.401 374.587 715.571H408.991C407.457 713.143 406.691 711.258 406.691 709.916Z" fill="#D46FA0"/>
<path d="M439.55 809.352C438.872 809.94 437.878 810.572 436.568 811.249C435.259 811.927 433.881 812.266 432.435 812.266C429.59 812.266 427.309 811.249 425.592 809.217C423.876 807.184 422.995 804.587 422.95 801.425C422.95 796.682 424.689 792.324 428.167 788.349C431.645 784.374 435.507 782.364 439.753 782.319C441.876 782.319 443.841 783.403 445.647 785.571L445.851 785.3C445.941 785.164 446.054 785.029 446.189 784.893C446.325 784.758 446.528 784.577 446.799 784.351C447.07 784.125 447.364 783.967 447.68 783.877C447.996 783.787 448.358 783.719 448.764 783.674C449.397 783.674 449.916 783.877 450.322 784.283C450.729 784.69 450.955 785.119 451 785.571C451 786.248 449.713 791.714 447.138 801.967C444.563 812.221 443.208 817.46 443.073 817.686C442.26 820.125 440.521 822.135 437.856 823.716C435.191 825.297 432.142 826.11 428.709 826.155C422.34 826.155 419.156 824.62 419.156 821.548C419.156 820.374 419.562 819.335 420.375 818.431C421.188 817.528 422.227 817.076 423.492 817.076C424.17 817.076 424.802 817.28 425.389 817.686C425.976 818.093 426.292 818.793 426.338 819.786C426.338 820.238 426.292 820.667 426.202 821.074C426.112 821.48 425.954 821.796 425.728 822.022C425.502 822.248 425.321 822.474 425.186 822.7C425.05 822.926 424.892 823.106 424.712 823.242L424.576 823.377H424.644C425.096 823.513 426.451 823.581 428.709 823.581C430.425 823.581 431.781 823.31 432.774 822.768C433.813 822.271 434.784 821.525 435.688 820.532C436.591 819.538 437.223 818.477 437.585 817.347C437.856 816.489 438.217 815.089 438.669 813.147C439.256 810.978 439.55 809.714 439.55 809.352ZM444.496 790.043L444.225 789.297C444.089 788.8 443.976 788.462 443.886 788.281C443.796 788.1 443.66 787.784 443.479 787.332C443.299 786.881 443.073 786.565 442.802 786.384C442.531 786.203 442.237 785.955 441.921 785.639C441.605 785.322 441.198 785.119 440.701 785.029C440.205 784.938 439.708 784.871 439.211 784.826C437.223 784.826 435.304 786.023 433.452 788.416C432.097 790.178 430.968 792.866 430.064 796.479C429.161 800.093 428.709 802.712 428.709 804.339C428.709 807.907 430.109 809.691 432.91 809.691C435.439 809.691 437.924 808.11 440.363 804.948L440.905 804.271L444.496 790.043Z" fill="#D46FA0"/>
<path d="M313 466L357.848 492.242L358.15 440.281L313 466ZM485.026 462.5L353.525 461.736L353.473 470.735L484.974 471.5L485.026 462.5Z" fill="#2CAC0B"/>
<path d="M489 360L463.019 405H514.981L489 360ZM493.5 466V400.5H484.5V466H493.5Z" fill="#EF224B"/>
<path d="M364.351 340.188C363.45 340.188 363 339.923 363 339.393C363 339.287 363.079 338.916 363.238 338.28C363.45 337.433 363.662 336.956 363.874 336.85C364.086 336.744 364.695 336.664 365.702 336.611C367.133 336.611 368.722 336.532 370.47 336.373C371.212 336.214 371.716 335.896 371.98 335.419C372.086 335.154 373.967 327.71 377.623 313.087C381.279 298.464 383.133 291.047 383.186 290.835C383.186 290.464 383.08 290.278 382.868 290.278C382.444 290.12 381.04 289.987 378.656 289.881H376.193C375.875 289.563 375.716 289.351 375.716 289.245C375.716 289.139 375.769 288.689 375.875 287.894C376.087 286.994 376.351 286.437 376.669 286.225H419.505C419.876 286.437 420.062 286.729 420.062 287.1C420.062 287.364 419.717 290.331 419.029 296.001C418.34 301.67 417.969 304.584 417.916 304.743C417.81 305.113 417.28 305.299 416.326 305.299H415.373C415.002 305.034 414.816 304.69 414.816 304.266C414.816 304.213 414.896 303.577 415.055 302.358C415.214 301.14 415.293 299.736 415.293 298.146C415.293 296.557 415.108 295.259 414.737 294.252C414.366 293.245 413.863 292.424 413.227 291.788C412.591 291.153 411.611 290.729 410.287 290.517C408.962 290.305 407.611 290.12 406.233 289.961C404.856 289.802 402.948 289.775 400.511 289.881H398.683C394.339 289.934 392.034 290.014 391.769 290.12C391.504 290.226 391.319 290.437 391.213 290.755C391.16 290.808 390.259 294.279 388.511 301.166L385.968 311.418H390.339C390.498 311.418 391.107 311.418 392.167 311.418C393.226 311.418 393.968 311.392 394.392 311.339C394.816 311.286 395.399 311.206 396.14 311.1C396.882 310.994 397.518 310.809 398.048 310.544C398.577 310.279 399.028 309.961 399.399 309.59C400.087 308.955 400.67 308.08 401.147 306.968C401.624 305.855 401.968 304.849 402.18 303.948C402.392 303.047 402.525 302.57 402.578 302.517C402.737 302.252 403.24 302.12 404.088 302.12H405.041C405.412 302.385 405.598 302.65 405.598 302.915C405.598 303.074 404.776 306.544 403.134 313.326C401.491 320.107 400.591 323.604 400.432 323.816C400.326 324.187 399.796 324.372 398.842 324.372H397.889C397.518 324.055 397.332 323.737 397.332 323.419C397.332 323.26 397.465 322.677 397.73 321.67C397.995 320.664 398.127 319.604 398.127 318.491C398.127 316.955 397.597 316.001 396.538 315.63C395.478 315.26 393.12 315.074 389.465 315.074H385.094L382.55 325.167C380.855 331.737 380.007 335.181 380.007 335.499C380.007 336.24 382.365 336.611 387.08 336.611H389.067C389.385 336.929 389.544 337.115 389.544 337.168C389.544 337.221 389.491 337.75 389.385 338.757C389.173 339.446 388.908 339.949 388.59 340.267H387.239C385.067 340.161 381.067 340.108 375.239 340.108C371.795 340.108 369.172 340.108 367.371 340.108C365.57 340.108 364.563 340.135 364.351 340.188Z" fill="#EF224B"/>
<path d="M413.33 267.311C413.33 266.887 413.463 266.516 413.728 266.198C413.993 265.88 414.39 265.721 414.92 265.721C415.291 265.721 415.609 265.854 415.873 266.119C416.138 266.331 416.403 266.834 416.668 267.629C417.198 269.589 418.284 271.099 419.927 272.159C420.509 272.53 420.801 273.006 420.801 273.589C420.801 274.066 420.721 274.384 420.562 274.543C420.403 274.702 420.033 274.94 419.45 275.258C417.172 276.424 415.185 278.093 413.489 280.265C413.383 280.371 413.251 280.53 413.092 280.742C412.933 280.954 412.8 281.113 412.695 281.219C412.589 281.325 412.456 281.378 412.297 281.378C412.138 281.378 411.953 281.404 411.741 281.457C411.37 281.457 411.026 281.325 410.708 281.06C410.39 280.795 410.204 280.397 410.151 279.868C410.151 278.861 411.396 277.298 413.887 275.179H400.297L386.707 275.099C386.018 274.622 385.674 274.119 385.674 273.589C385.674 273.218 386.018 272.688 386.707 272H415.238C413.966 269.986 413.33 268.423 413.33 267.311Z" fill="#EF224B"/>
<path d="M436.253 316.397C436.141 316.397 435.991 316.397 435.804 316.397C434.867 316.397 434.306 316.378 434.118 316.34C433.931 316.303 433.837 316.097 433.837 315.722C433.837 314.711 434.043 314.093 434.455 313.868C434.53 313.831 436.347 313.812 439.906 313.812C442.79 313.812 444.438 313.812 444.85 313.812C445.262 313.812 445.524 313.924 445.637 314.149C453.54 332.728 457.567 342.262 457.717 342.748L460.751 330.781C462.736 322.877 463.729 318.663 463.729 318.138C463.729 317.127 462.53 316.546 460.133 316.397C459.234 316.397 458.785 316.191 458.785 315.778C458.785 315.704 458.822 315.479 458.897 315.104C459.047 314.505 459.159 314.149 459.234 314.037C459.309 313.924 459.496 313.849 459.796 313.812C459.908 313.812 460.489 313.831 461.538 313.868C462.587 313.906 464.141 313.943 466.201 313.98C468.074 313.98 469.498 313.962 470.472 313.924C471.445 313.887 472.007 313.868 472.157 313.868C472.719 313.868 473 314.055 473 314.43C473 315.254 472.85 315.816 472.551 316.116C472.476 316.303 472.064 316.397 471.314 316.397C468.655 316.546 466.988 317.296 466.314 318.644L457.942 351.795C457.867 352.057 457.474 352.188 456.762 352.188C456.237 352.188 455.919 352.151 455.807 352.076C455.694 351.963 453.278 346.288 448.558 335.051L441.423 318.251L437.77 332.859C435.336 342.449 434.118 347.412 434.118 347.749C434.306 348.985 435.654 349.603 438.164 349.603H438.726C438.95 349.791 439.063 349.94 439.063 350.053C439.063 350.165 439.025 350.521 438.95 351.12C438.801 351.607 438.613 351.963 438.389 352.188H437.658C436.497 352.113 434.474 352.076 431.59 352.076C430.541 352.076 429.586 352.076 428.724 352.076C427.863 352.076 427.17 352.076 426.645 352.076C426.121 352.076 425.803 352.094 425.69 352.132C425.128 352.132 424.847 351.963 424.847 351.626C424.847 351.476 424.904 351.177 425.016 350.727C425.128 350.278 425.222 350.015 425.297 349.94C425.372 349.716 425.803 349.603 426.589 349.603C429.136 349.491 430.784 348.761 431.534 347.412C431.683 347.187 433.013 341.999 435.523 331.848L439.344 316.565C439.269 316.528 438.239 316.471 436.253 316.397Z" fill="#EF224B"/>
</svg>
