<svg width="972" height="926" viewBox="0 0 972 926" fill="none" xmlns="http://www.w3.org/2000/svg">
<g filter="url(#filter0_d_80_233)">
<line x1="798" y1="216" x2="798" y2="467" stroke="black" stroke-width="2" stroke-dasharray="2 2"/>
</g>
<line x1="797" y1="217" x2="487" y2="217" stroke="black" stroke-width="2" stroke-dasharray="2 2"/>
<path d="M797 216L739.975 225.028L776.306 269.899L797 216ZM490.146 470.886L765.173 248.203L758.88 240.431L483.854 463.114L490.146 470.886Z" fill="#6C63FF"/>
<path d="M659 409.133C659 401.171 660.522 392.779 663.567 383.958C666.611 375.137 670.749 367.525 675.979 361.124C681.209 354.723 686.635 351.054 692.255 350.117C692.333 350.117 692.646 350.117 693.192 350.117C693.738 350.117 694.207 350.078 694.597 350C698.813 350.312 702.091 352.225 704.433 355.738C707.478 360.422 709 366.706 709 374.59C709 383.568 707.244 392.701 703.731 401.991C700.218 411.28 695.729 418.891 690.265 424.824C684.8 430.757 679.57 433.724 674.574 433.724H673.754C670.944 433.724 668.524 432.943 666.494 431.382C664.464 429.82 662.942 427.752 661.927 425.176C660.913 422.6 660.171 419.984 659.703 417.33C659.234 414.676 659 411.944 659 409.133ZM699.749 366.276C699.749 358.314 697.681 354.333 693.543 354.333C690.733 354.333 688.001 356.089 685.347 359.602C682.692 363.115 680.507 367.096 678.789 371.546C677.072 375.995 675.745 379.898 674.808 383.255C673.871 386.612 673.364 388.564 673.286 389.11C677.111 389.188 680.897 389.227 684.644 389.227L696.002 389.11C696.08 389.032 696.393 387.744 696.939 385.246C697.486 382.748 698.11 379.625 698.813 375.878C699.515 372.131 699.827 368.931 699.749 366.276ZM668.133 417.096C668.133 425.371 670.202 429.508 674.34 429.508C675.511 429.508 676.76 429.118 678.087 428.337C679.414 427.557 681.014 426.073 682.888 423.888C684.761 421.702 686.635 418.306 688.508 413.7C690.382 409.094 692.255 403.396 694.129 396.604L694.714 394.614H671.881C671.881 394.848 671.529 396.331 670.827 399.063C670.124 401.795 669.5 404.84 668.953 408.197C668.407 411.553 668.133 414.52 668.133 417.096Z" fill="#6C63FF"/>
<path d="M798.636 187.183C797.545 187.183 797 186.862 797 186.221C797 186.092 797.096 185.643 797.289 184.873C797.545 183.847 797.802 183.269 798.059 183.141C798.315 183.012 799.053 182.916 800.272 182.852C802.005 182.852 803.93 182.756 806.047 182.563C806.945 182.371 807.555 181.986 807.876 181.408C808.004 181.087 810.282 172.072 814.709 154.363C819.137 136.654 821.382 127.671 821.447 127.414C821.447 126.965 821.318 126.74 821.062 126.74C820.548 126.548 818.848 126.387 815.961 126.259H812.977C812.592 125.874 812.399 125.617 812.399 125.489C812.399 125.361 812.464 124.815 812.592 123.853C812.849 122.762 813.169 122.088 813.554 121.832H865.431C865.88 122.088 866.105 122.441 866.105 122.89C866.105 123.211 865.688 126.804 864.854 133.67C864.02 140.536 863.57 144.065 863.506 144.257C863.378 144.706 862.736 144.931 861.581 144.931H860.426C859.977 144.61 859.753 144.193 859.753 143.68C859.753 143.616 859.849 142.846 860.041 141.37C860.234 139.894 860.33 138.194 860.33 136.269C860.33 134.344 860.106 132.772 859.656 131.553C859.207 130.334 858.598 129.339 857.828 128.569C857.058 127.799 855.871 127.286 854.267 127.029C852.663 126.772 851.026 126.548 849.358 126.355C847.69 126.163 845.38 126.131 842.428 126.259H840.215C834.953 126.323 832.162 126.419 831.841 126.548C831.52 126.676 831.296 126.933 831.167 127.318C831.103 127.382 830.013 131.585 827.895 139.926L824.815 152.342H830.109C830.301 152.342 831.039 152.342 832.322 152.342C833.606 152.342 834.504 152.31 835.017 152.246C835.531 152.181 836.236 152.085 837.135 151.957C838.033 151.829 838.803 151.604 839.445 151.283C840.086 150.962 840.632 150.577 841.081 150.128C841.915 149.358 842.621 148.3 843.198 146.952C843.776 145.605 844.193 144.385 844.449 143.295C844.706 142.204 844.867 141.626 844.931 141.562C845.123 141.241 845.733 141.081 846.759 141.081H847.914C848.363 141.402 848.588 141.723 848.588 142.043C848.588 142.236 847.594 146.439 845.604 154.652C843.615 162.865 842.525 167.1 842.332 167.356C842.204 167.805 841.562 168.03 840.407 168.03H839.252C838.803 167.645 838.578 167.26 838.578 166.875C838.578 166.683 838.739 165.977 839.06 164.758C839.38 163.539 839.541 162.255 839.541 160.908C839.541 159.047 838.899 157.892 837.616 157.443C836.333 156.994 833.477 156.769 829.05 156.769H823.756L820.677 168.992C818.623 176.949 817.597 181.12 817.597 181.505C817.597 182.403 820.452 182.852 826.163 182.852H828.569C828.954 183.237 829.146 183.462 829.146 183.526C829.146 183.59 829.082 184.231 828.954 185.451C828.697 186.285 828.376 186.894 827.991 187.279H826.355C823.724 187.151 818.88 187.087 811.822 187.087C807.651 187.087 804.475 187.087 802.294 187.087C800.112 187.087 798.893 187.119 798.636 187.183Z" fill="#6C63FF"/>
<path d="M857.953 98.9253C857.953 98.412 858.113 97.9628 858.434 97.5778C858.755 97.1928 859.236 97.0003 859.878 97.0003C860.327 97.0003 860.712 97.1608 861.033 97.4816C861.354 97.7382 861.674 98.3478 861.995 99.3103C862.637 101.684 863.952 103.513 865.941 104.796C866.647 105.245 867 105.823 867 106.529C867 107.106 866.904 107.491 866.711 107.684C866.519 107.876 866.07 108.165 865.364 108.55C862.605 109.962 860.199 111.983 858.145 114.613C858.017 114.742 857.857 114.934 857.664 115.191C857.472 115.448 857.311 115.64 857.183 115.768C857.055 115.897 856.894 115.961 856.702 115.961C856.509 115.961 856.285 115.993 856.028 116.057C855.579 116.057 855.162 115.897 854.777 115.576C854.392 115.255 854.167 114.774 854.103 114.132C854.103 112.913 855.611 111.02 858.627 108.454H842.168L825.71 108.357C824.876 107.78 824.459 107.17 824.459 106.529C824.459 106.08 824.876 105.438 825.71 104.604H860.263C858.723 102.166 857.953 100.273 857.953 98.9253Z" fill="#6C63FF"/>
<path d="M85.9381 464.939C85.3523 465.525 85.3523 466.475 85.9381 467.061L95.4841 476.607C96.0699 477.192 97.0196 477.192 97.6054 476.607C98.1912 476.021 98.1912 475.071 97.6054 474.485L89.1201 466L97.6054 457.515C98.1912 456.929 98.1912 455.979 97.6054 455.393C97.0196 454.808 96.0699 454.808 95.4841 455.393L85.9381 464.939ZM888.059 467.061C888.645 466.475 888.645 465.525 888.059 464.939L878.514 455.393C877.928 454.808 876.978 454.808 876.392 455.393C875.806 455.979 875.806 456.929 876.392 457.515L884.877 466L876.392 474.485C875.806 475.071 875.806 476.021 876.392 476.607C876.978 477.192 877.928 477.192 878.514 476.607L888.059 467.061ZM86.9988 467.5H886.999V464.5H86.9988V467.5Z" fill="black"/>
<path d="M897 466.86C897 466.86 897 466.599 897 466.076C897 465.554 897.281 465.152 897.844 464.87H915.871V455.827L915.931 446.784C916.333 446.261 916.715 446 917.076 446C917.599 446 918.001 446.301 918.282 446.904V464.87H936.248C936.851 465.192 937.153 465.594 937.153 466.076C937.153 466.559 936.851 466.96 936.248 467.282H918.282V485.248C917.961 485.811 917.599 486.092 917.197 486.092H917.076H916.956C916.473 486.092 916.112 485.811 915.871 485.248V467.282H897.844C897.281 467.001 897 466.599 897 466.076V466.86Z" fill="black"/>
<path d="M943.664 463.725C943.945 462.037 945.031 460.087 946.92 457.877C948.809 455.666 951.14 454.541 953.913 454.5C955.32 454.5 956.606 454.862 957.772 455.586C958.937 456.309 959.801 457.213 960.364 458.299C962.052 455.767 964.082 454.5 966.453 454.5C967.941 454.5 969.227 454.943 970.312 455.827C971.397 456.711 971.96 457.897 972 459.384C972 460.549 971.719 461.494 971.156 462.217C970.593 462.941 970.051 463.383 969.528 463.544C969.006 463.705 968.543 463.785 968.142 463.785C967.378 463.785 966.755 463.564 966.273 463.122C965.79 462.68 965.549 462.097 965.549 461.373C965.549 459.525 966.554 458.258 968.564 457.575C968.121 457.053 967.318 456.791 966.152 456.791C965.629 456.791 965.248 456.832 965.006 456.912C963.479 457.555 962.354 458.881 961.63 460.891C959.219 469.774 958.013 474.959 958.013 476.446C958.013 477.571 958.334 478.375 958.978 478.857C959.621 479.34 960.324 479.581 961.088 479.581C962.575 479.581 964.042 478.918 965.489 477.591C966.936 476.265 967.92 474.637 968.443 472.708C968.564 472.306 968.684 472.085 968.805 472.045C968.925 472.004 969.247 471.964 969.769 471.924H970.01C970.613 471.924 970.915 472.085 970.915 472.406C970.915 472.447 970.875 472.668 970.794 473.07C970.151 475.361 968.905 477.39 967.056 479.159C965.207 480.927 963.057 481.812 960.605 481.812C957.792 481.812 955.662 480.545 954.215 478.013C952.567 480.505 950.678 481.751 948.547 481.751H948.186C946.216 481.751 944.81 481.229 943.965 480.184C943.121 479.139 942.679 478.033 942.639 476.868C942.639 475.582 943.021 474.537 943.785 473.733C944.548 472.929 945.453 472.527 946.498 472.527C948.226 472.527 949.09 473.371 949.09 475.059C949.09 475.863 948.849 476.566 948.367 477.169C947.884 477.772 947.422 478.174 946.98 478.375C946.538 478.576 946.277 478.676 946.196 478.676L946.015 478.737C946.015 478.777 946.136 478.857 946.377 478.978C946.618 479.099 946.94 479.239 947.342 479.4C947.744 479.561 948.125 479.621 948.487 479.581C949.934 479.581 951.18 478.676 952.225 476.868C952.587 476.225 953.049 474.858 953.612 472.768C954.174 470.678 954.737 468.508 955.3 466.257C955.863 464.006 956.184 462.68 956.265 462.278C956.465 461.193 956.566 460.409 956.566 459.926C956.566 458.801 956.265 457.997 955.662 457.515C955.059 457.033 954.375 456.791 953.612 456.791C952.004 456.791 950.497 457.435 949.09 458.721C947.683 460.007 946.699 461.655 946.136 463.664C946.055 464.026 945.955 464.227 945.834 464.267C945.714 464.308 945.392 464.348 944.87 464.388H944.026C943.785 464.147 943.664 463.926 943.664 463.725Z" fill="black"/>
<path d="M0 465.318C0 465.318 0 465.037 0 464.474C0 463.911 0.30318 463.477 0.90954 463.174H38.6554C39.3051 463.521 39.6299 463.954 39.6299 464.474C39.6299 464.993 39.3051 465.426 38.6554 465.773H0.90954C0.30318 465.47 0 465.037 0 464.474V465.318Z" fill="black"/>
<path d="M48.4654 461.94C48.7686 460.121 49.938 458.02 51.9736 455.638C54.0092 453.256 56.5213 452.043 59.5098 452C61.0257 452 62.4117 452.39 63.6677 453.169C64.9237 453.949 65.8549 454.924 66.4613 456.093C68.2804 453.364 70.4676 452 73.0229 452C74.6255 452 76.0114 452.477 77.1808 453.429C78.3503 454.382 78.9566 455.66 78.9999 457.262C78.9999 458.518 78.6967 459.536 78.0904 460.316C77.484 461.095 76.8993 461.572 76.3363 461.745C75.7732 461.918 75.2751 462.005 74.842 462.005C74.0191 462.005 73.3478 461.767 72.828 461.29C72.3083 460.814 72.0484 460.186 72.0484 459.406C72.0484 457.414 73.1312 456.05 75.2968 455.313C74.8204 454.75 73.9541 454.469 72.6981 454.469C72.1351 454.469 71.7236 454.512 71.4637 454.599C69.8179 455.292 68.6052 456.721 67.8256 458.887C65.2269 468.458 63.9276 474.046 63.9276 475.648C63.9276 476.861 64.274 477.727 64.967 478.247C65.66 478.767 66.418 479.026 67.2409 479.026C68.8434 479.026 70.4243 478.312 71.9835 476.882C73.5427 475.453 74.6038 473.699 75.1669 471.62C75.2968 471.187 75.4267 470.949 75.5567 470.906C75.6866 470.862 76.0331 470.819 76.5961 470.776H76.856C77.5057 470.776 77.8305 470.949 77.8305 471.295C77.8305 471.339 77.7872 471.577 77.7006 472.01C77.0076 474.479 75.6649 476.666 73.6726 478.572C71.6803 480.477 69.3631 481.43 66.7211 481.43C63.6893 481.43 61.3938 480.066 59.8346 477.337C58.0589 480.023 56.0232 481.365 53.7277 481.365H53.3379C51.2157 481.365 49.6998 480.802 48.7902 479.676C47.8807 478.55 47.4043 477.359 47.3609 476.103C47.3609 474.717 47.7724 473.591 48.5953 472.725C49.4182 471.858 50.3927 471.425 51.5188 471.425C53.3812 471.425 54.3124 472.335 54.3124 474.154C54.3124 475.02 54.0526 475.778 53.5328 476.428C53.0131 477.077 52.515 477.51 52.0386 477.727C51.5622 477.944 51.2806 478.052 51.194 478.052L50.9991 478.117C50.9991 478.16 51.129 478.247 51.3889 478.377C51.6488 478.507 51.9953 478.658 52.4284 478.831C52.8615 479.005 53.273 479.07 53.6628 479.026C55.222 479.026 56.5646 478.052 57.6907 476.103C58.0805 475.41 58.5786 473.937 59.185 471.685C59.7913 469.433 60.3977 467.094 61.004 464.669C61.6104 462.243 61.9569 460.814 62.0435 460.381C62.2601 459.211 62.3683 458.367 62.3683 457.847C62.3683 456.634 62.0435 455.768 61.3938 455.248C60.7442 454.729 60.0079 454.469 59.185 454.469C57.4525 454.469 55.8283 455.162 54.3124 456.548C52.7965 457.934 51.7354 459.71 51.129 461.875C51.0424 462.265 50.9341 462.481 50.8042 462.525C50.6743 462.568 50.3278 462.611 49.7647 462.655H48.8552C48.5953 462.395 48.4654 462.157 48.4654 461.94Z" fill="black"/>
<path d="M485.938 867.061C486.524 867.646 487.474 867.646 488.059 867.061L497.605 857.515C498.191 856.929 498.191 855.979 497.605 855.393C497.02 854.808 496.07 854.808 495.484 855.393L486.999 863.879L478.513 855.393C477.928 854.808 476.978 854.808 476.392 855.393C475.806 855.979 475.806 856.929 476.392 857.515L485.938 867.061ZM488.059 64.9393C487.474 64.3536 486.524 64.3536 485.938 64.9393L476.392 74.4853C475.806 75.0711 475.806 76.0208 476.392 76.6066C476.978 77.1924 477.928 77.1924 478.513 76.6066L486.999 68.1213L495.484 76.6066C496.07 77.1924 497.02 77.1924 497.605 76.6066C498.191 76.0208 498.191 75.0711 497.605 74.4853L488.059 64.9393ZM488.499 866L488.499 66H485.499L485.499 866H488.499Z" fill="black"/>
<path d="M425 21.8687C425 21.8687 425 21.5948 425 21.0471C425 20.4993 425.295 20.0779 425.885 19.7829H444.783V10.3021L444.847 0.82132C445.268 0.27354 445.668 -0.000349991 446.047 -0.000349991C446.595 -0.000349991 447.017 0.315677 447.312 0.947731V19.7829H466.147C466.779 20.12 467.095 20.5414 467.095 21.0471C467.095 21.5527 466.779 21.9741 466.147 22.3112H447.312V41.1464C446.974 41.7363 446.595 42.0312 446.174 42.0312H446.047H445.921C445.415 42.0312 445.036 41.7363 444.783 41.1464V22.3112H425.885C425.295 22.0162 425 21.5948 425 21.0471V21.8687Z" fill="black"/>
<path d="M471.962 18.7086C471.962 18.1187 472.278 17.1074 472.91 15.6747C473.542 14.2421 474.553 12.7462 475.944 11.1872C477.334 9.62808 478.893 8.86962 480.621 8.91176C482.348 8.91176 483.739 9.39633 484.792 10.3655C485.846 11.3346 486.394 12.683 486.436 14.4106C486.351 15.2112 486.288 15.6537 486.246 15.7379C486.246 15.8644 485.909 16.8335 485.235 18.6454C484.561 20.4573 483.865 22.5009 483.149 24.7763C482.433 27.0517 482.096 28.8636 482.138 30.212C482.138 32.0239 482.433 33.288 483.023 34.0043C483.613 34.7206 484.497 35.0999 485.677 35.142C486.646 35.142 487.552 34.9103 488.395 34.4467C489.238 33.9832 489.891 33.4987 490.354 32.993C490.818 32.4874 491.387 31.7921 492.061 30.9072C492.061 30.8651 492.166 30.4437 492.377 29.6431C492.588 28.8425 492.883 27.5995 493.262 25.914C493.641 24.2285 494.041 22.6695 494.463 21.2368C496.064 14.9163 496.949 11.6085 497.117 11.3136C497.665 10.1759 498.571 9.60702 499.835 9.60702C500.383 9.60702 500.825 9.7545 501.163 10.0495C501.5 10.3444 501.731 10.5972 501.858 10.8079C501.984 11.0186 502.026 11.2082 501.984 11.3768C501.984 11.9245 500.952 16.3489 498.887 24.6499C496.822 32.9509 495.643 37.5017 495.348 38.3023C494.168 41.7996 492.124 44.5807 489.217 46.6454C486.309 48.7101 483.402 49.7635 480.494 49.8057C478.598 49.8057 476.934 49.3422 475.501 48.4151C474.068 47.4881 473.352 46.0976 473.352 44.2436C473.352 43.3166 473.5 42.537 473.795 41.905C474.09 41.2729 474.49 40.8094 474.995 40.5145C475.501 40.2195 475.923 40.0088 476.26 39.8824C476.597 39.756 476.955 39.6928 477.334 39.6928C479.188 39.6928 480.115 40.5777 480.115 42.3474C480.115 43.1902 479.862 43.9276 479.357 44.5596C478.851 45.1917 478.366 45.613 477.903 45.8237C477.439 46.0344 477.166 46.1397 477.081 46.1397L476.892 46.203C476.976 46.4136 477.376 46.6665 478.093 46.9614C478.809 47.2564 479.525 47.4039 480.242 47.4039H480.747C481.464 47.4039 482.011 47.3617 482.391 47.2774C483.781 46.8982 485.066 46.0976 486.246 44.8756C487.426 43.6537 488.332 42.3474 488.964 40.9569C489.596 39.5664 490.081 38.3866 490.418 37.4174C490.755 36.4483 490.923 35.8162 490.923 35.5212L490.544 35.7741C490.291 35.9426 489.891 36.1744 489.343 36.4693C488.795 36.7643 488.248 37.0171 487.7 37.2278C486.857 37.4385 486.035 37.5438 485.235 37.5438C483.296 37.5438 481.59 37.0803 480.115 36.1533C478.64 35.2263 477.671 33.7304 477.208 31.6657C477.166 31.3707 477.144 30.7176 477.144 29.7063C477.144 27.3045 477.882 24.1653 479.357 20.2887C480.831 16.4121 481.569 13.9471 481.569 12.8937C481.569 12.8516 481.569 12.8094 481.569 12.7673C481.569 12.3881 481.569 12.1352 481.569 12.0088C481.569 11.8824 481.485 11.7349 481.316 11.5664C481.147 11.3978 480.916 11.3136 480.621 11.3136H480.368C479.399 11.3136 478.514 11.7139 477.713 12.5145C476.913 13.3151 476.281 14.1789 475.817 15.1059C475.354 16.0329 474.995 16.9178 474.743 17.7605C474.49 18.6033 474.321 19.0668 474.237 19.151C474.153 19.2353 473.816 19.2774 473.226 19.2774H472.341C472.088 19.0246 471.962 18.835 471.962 18.7086Z" fill="black"/>
<path d="M423 895.78C423 895.78 423 895.489 423 894.906C423 894.324 423.314 893.876 423.941 893.562H462.992C463.664 893.92 464 894.369 464 894.906C464 895.444 463.664 895.892 462.992 896.25H423.941C423.314 895.937 423 895.489 423 894.906V895.78Z" fill="black"/>
<path d="M471.057 892.42C471.057 891.792 471.393 890.717 472.065 889.193C472.737 887.67 473.813 886.079 475.292 884.421C476.77 882.763 478.428 881.957 480.265 882.002C482.102 882.002 483.581 882.517 484.701 883.548C485.822 884.578 486.404 886.012 486.449 887.849C486.359 888.7 486.292 889.171 486.247 889.261C486.247 889.395 485.889 890.426 485.172 892.352C484.455 894.279 483.716 896.452 482.954 898.872C482.192 901.292 481.834 903.218 481.878 904.652C481.878 906.579 482.192 907.923 482.819 908.685C483.447 909.447 484.388 909.85 485.642 909.895C486.673 909.895 487.636 909.648 488.532 909.156C489.429 908.663 490.123 908.147 490.616 907.61C491.109 907.072 491.714 906.333 492.431 905.392C492.431 905.347 492.543 904.899 492.767 904.047C492.991 903.196 493.305 901.874 493.708 900.082C494.111 898.29 494.537 896.632 494.985 895.108C496.688 888.387 497.629 884.869 497.808 884.556C498.39 883.346 499.354 882.741 500.698 882.741C501.28 882.741 501.751 882.898 502.109 883.211C502.468 883.525 502.714 883.794 502.849 884.018C502.983 884.242 503.028 884.444 502.983 884.623C502.983 885.205 501.885 889.91 499.69 898.738C497.494 907.565 496.24 912.404 495.926 913.256C494.671 916.975 492.498 919.932 489.406 922.128C486.314 924.323 483.223 925.443 480.131 925.488C478.114 925.488 476.345 924.995 474.821 924.01C473.298 923.024 472.536 921.545 472.536 919.574C472.536 918.588 472.693 917.759 473.006 917.087C473.32 916.415 473.746 915.922 474.283 915.608C474.821 915.294 475.269 915.07 475.628 914.936C475.986 914.801 476.367 914.734 476.77 914.734C478.742 914.734 479.728 915.675 479.728 917.557C479.728 918.453 479.459 919.237 478.921 919.91C478.383 920.582 477.868 921.03 477.375 921.254C476.882 921.478 476.591 921.59 476.501 921.59L476.3 921.657C476.389 921.881 476.815 922.15 477.577 922.464C478.339 922.777 479.1 922.934 479.862 922.934H480.4C481.161 922.934 481.744 922.889 482.147 922.8C483.626 922.396 484.993 921.545 486.247 920.246C487.502 918.946 488.465 917.557 489.137 916.078C489.809 914.6 490.325 913.345 490.683 912.315C491.042 911.284 491.221 910.612 491.221 910.298L490.818 910.567C490.549 910.746 490.123 910.993 489.541 911.306C488.958 911.62 488.376 911.889 487.793 912.113C486.897 912.337 486.023 912.449 485.172 912.449C483.111 912.449 481.296 911.956 479.728 910.97C478.159 909.985 477.129 908.394 476.636 906.198C476.591 905.885 476.569 905.19 476.569 904.115C476.569 901.561 477.353 898.222 478.921 894.1C480.489 889.978 481.273 887.356 481.273 886.236C481.273 886.191 481.273 886.146 481.273 886.102C481.273 885.698 481.273 885.429 481.273 885.295C481.273 885.161 481.184 885.004 481.005 884.825C480.825 884.645 480.579 884.556 480.265 884.556H479.996C478.966 884.556 478.025 884.981 477.173 885.833C476.322 886.684 475.65 887.603 475.157 888.588C474.664 889.574 474.283 890.515 474.014 891.411C473.746 892.308 473.566 892.8 473.477 892.89C473.387 892.98 473.029 893.025 472.401 893.025H471.46C471.192 892.756 471.057 892.554 471.057 892.42Z" fill="black"/>
<path d="M487 466H797.015" stroke="#6C63FF" stroke-width="9"/>
<path d="M488 465.02L487 217.02" stroke="#6C63FF" stroke-width="10"/>
<path d="M521.677 523.512C521.226 523.512 521 523.379 521 523.114C521 523.061 521.04 522.875 521.119 522.557C521.226 522.132 521.332 521.894 521.438 521.841C521.544 521.788 521.849 521.748 522.353 521.721C523.069 521.721 523.865 521.681 524.741 521.602C525.112 521.522 525.364 521.363 525.497 521.124C525.55 520.992 526.492 517.264 528.322 509.942C530.153 502.62 531.081 498.906 531.108 498.8C531.108 498.614 531.055 498.521 530.949 498.521C530.736 498.442 530.033 498.375 528.839 498.322H527.606C527.447 498.163 527.367 498.057 527.367 498.004C527.367 497.951 527.394 497.725 527.447 497.327C527.553 496.876 527.685 496.598 527.845 496.492H549.294C549.479 496.598 549.572 496.744 549.572 496.929C549.572 497.062 549.4 498.548 549.055 501.386C548.71 504.225 548.524 505.684 548.498 505.764C548.445 505.949 548.18 506.042 547.702 506.042H547.224C547.039 505.91 546.946 505.737 546.946 505.525C546.946 505.498 546.986 505.18 547.065 504.57C547.145 503.96 547.185 503.257 547.185 502.461C547.185 501.665 547.092 501.015 546.906 500.511C546.72 500.007 546.468 499.596 546.15 499.277C545.832 498.959 545.341 498.747 544.678 498.64C544.014 498.534 543.338 498.442 542.648 498.362C541.958 498.282 541.003 498.269 539.783 498.322H538.868C536.692 498.349 535.538 498.388 535.406 498.442C535.273 498.495 535.18 498.601 535.127 498.76C535.1 498.786 534.649 500.524 533.774 503.973L532.501 509.106H534.689C534.769 509.106 535.074 509.106 535.605 509.106C536.135 509.106 536.507 509.093 536.719 509.067C536.931 509.04 537.223 509 537.594 508.947C537.966 508.894 538.284 508.801 538.549 508.669C538.815 508.536 539.04 508.377 539.226 508.191C539.571 507.873 539.863 507.435 540.101 506.878C540.34 506.321 540.512 505.817 540.619 505.366C540.725 504.915 540.791 504.676 540.818 504.649C540.897 504.517 541.149 504.45 541.574 504.45H542.051C542.237 504.583 542.33 504.716 542.33 504.848C542.33 504.928 541.919 506.666 541.096 510.061C540.274 513.457 539.823 515.208 539.743 515.314C539.69 515.5 539.425 515.593 538.947 515.593H538.47C538.284 515.434 538.191 515.275 538.191 515.115C538.191 515.036 538.257 514.744 538.39 514.24C538.523 513.736 538.589 513.205 538.589 512.648C538.589 511.879 538.324 511.401 537.793 511.216C537.263 511.03 536.082 510.937 534.252 510.937H532.063L530.789 515.991C529.94 519.28 529.516 521.005 529.516 521.164C529.516 521.536 530.697 521.721 533.058 521.721H534.053C534.212 521.88 534.291 521.973 534.291 522C534.291 522.026 534.265 522.292 534.212 522.796C534.106 523.141 533.973 523.393 533.814 523.552H533.137C532.05 523.499 530.047 523.472 527.128 523.472C525.404 523.472 524.091 523.472 523.189 523.472C522.287 523.472 521.783 523.485 521.677 523.512Z" fill="#6C63FF"/>
<path d="M546.817 521.39C546.948 520.602 547.455 519.693 548.336 518.661C549.218 517.63 550.306 517.104 551.6 517.086C552.257 517.086 552.857 517.254 553.401 517.592C553.945 517.93 554.348 518.352 554.61 518.858C555.398 517.676 556.345 517.086 557.452 517.086C558.146 517.086 558.746 517.292 559.253 517.705C559.759 518.117 560.022 518.671 560.04 519.364C560.04 519.908 559.909 520.349 559.647 520.687C559.384 521.024 559.131 521.231 558.887 521.306C558.643 521.381 558.427 521.418 558.24 521.418C557.883 521.418 557.593 521.315 557.368 521.109C557.143 520.903 557.03 520.631 557.03 520.293C557.03 519.43 557.499 518.839 558.437 518.52C558.23 518.277 557.855 518.155 557.311 518.155C557.068 518.155 556.889 518.173 556.777 518.211C556.064 518.511 555.539 519.13 555.201 520.068C554.076 524.213 553.513 526.633 553.513 527.327C553.513 527.852 553.663 528.227 553.963 528.452C554.263 528.677 554.592 528.79 554.948 528.79C555.642 528.79 556.327 528.48 557.002 527.861C557.677 527.242 558.137 526.483 558.38 525.582C558.437 525.395 558.493 525.292 558.549 525.273C558.606 525.254 558.756 525.235 558.999 525.216H559.112C559.393 525.216 559.534 525.292 559.534 525.442C559.534 525.46 559.515 525.563 559.478 525.751C559.178 526.82 558.596 527.767 557.733 528.593C556.871 529.418 555.867 529.831 554.723 529.831C553.41 529.831 552.416 529.24 551.741 528.058C550.972 529.221 550.09 529.802 549.096 529.802H548.927C548.008 529.802 547.352 529.559 546.958 529.071C546.564 528.583 546.358 528.067 546.339 527.524C546.339 526.923 546.517 526.436 546.873 526.061C547.23 525.685 547.652 525.498 548.139 525.498C548.946 525.498 549.349 525.892 549.349 526.679C549.349 527.055 549.237 527.383 549.012 527.664C548.787 527.946 548.571 528.133 548.365 528.227C548.158 528.321 548.036 528.368 547.999 528.368L547.914 528.396C547.914 528.414 547.971 528.452 548.083 528.508C548.196 528.565 548.346 528.63 548.533 528.705C548.721 528.78 548.899 528.808 549.068 528.79C549.743 528.79 550.325 528.368 550.812 527.524C550.981 527.223 551.197 526.586 551.459 525.61C551.722 524.635 551.985 523.622 552.247 522.572C552.51 521.521 552.66 520.903 552.697 520.715C552.791 520.209 552.838 519.843 552.838 519.618C552.838 519.093 552.697 518.717 552.416 518.492C552.135 518.267 551.816 518.155 551.459 518.155C550.709 518.155 550.006 518.455 549.349 519.055C548.693 519.655 548.233 520.424 547.971 521.362C547.933 521.531 547.886 521.625 547.83 521.643C547.774 521.662 547.624 521.681 547.38 521.7H546.986C546.873 521.587 546.817 521.484 546.817 521.39Z" fill="#6C63FF"/>
<path d="M576.72 509.743C576.72 509.398 576.906 509.133 577.277 508.947H602.626C603.024 509.159 603.223 509.424 603.223 509.743C603.223 510.035 603.037 510.287 602.666 510.499L590.011 510.539H577.357C576.932 510.406 576.72 510.141 576.72 509.743ZM576.72 517.463C576.72 517.065 576.932 516.8 577.357 516.667H602.666C603.037 516.932 603.223 517.198 603.223 517.463C603.223 517.808 603.024 518.073 602.626 518.259H577.277C576.906 518.073 576.72 517.808 576.72 517.463Z" fill="#6C63FF"/>
<path d="M622.038 533.46H621.958C621.64 533.46 621.401 533.275 621.242 532.903V513.563L621.282 494.223C621.547 493.878 621.799 493.706 622.038 493.706C622.383 493.706 622.648 493.905 622.834 494.303V532.903C622.622 533.275 622.383 533.46 622.117 533.46H622.038Z" fill="#6C63FF"/>
<path d="M629.479 523.511C629.028 523.511 628.803 523.379 628.803 523.114C628.803 523.06 628.843 522.875 628.922 522.556C629.028 522.132 629.135 521.893 629.241 521.84C629.347 521.787 629.652 521.747 630.156 521.721C630.872 521.721 631.668 521.681 632.544 521.601C632.915 521.522 633.167 521.363 633.3 521.124C633.353 520.991 634.295 517.264 636.125 509.942C637.956 502.619 638.884 498.905 638.911 498.799C638.911 498.613 638.858 498.521 638.751 498.521C638.539 498.441 637.836 498.375 636.642 498.322H635.409C635.25 498.162 635.17 498.056 635.17 498.003C635.17 497.95 635.197 497.725 635.25 497.327C635.356 496.876 635.488 496.597 635.648 496.491H657.097C657.282 496.597 657.375 496.743 657.375 496.929C657.375 497.061 657.203 498.547 656.858 501.386C656.513 504.224 656.327 505.684 656.301 505.763C656.248 505.949 655.982 506.042 655.505 506.042H655.027C654.842 505.909 654.749 505.737 654.749 505.524C654.749 505.498 654.789 505.18 654.868 504.569C654.948 503.959 654.988 503.256 654.988 502.46C654.988 501.664 654.895 501.014 654.709 500.51C654.523 500.006 654.271 499.595 653.953 499.277C653.635 498.958 653.144 498.746 652.481 498.64C651.817 498.534 651.141 498.441 650.451 498.361C649.761 498.282 648.806 498.269 647.586 498.322H646.671C644.495 498.348 643.341 498.388 643.208 498.441C643.076 498.494 642.983 498.6 642.93 498.759C642.903 498.786 642.452 500.524 641.577 503.972L640.303 509.106H642.492C642.572 509.106 642.877 509.106 643.407 509.106C643.938 509.106 644.309 509.093 644.522 509.066C644.734 509.04 645.026 509 645.397 508.947C645.769 508.894 646.087 508.801 646.352 508.668C646.617 508.536 646.843 508.376 647.029 508.191C647.374 507.872 647.665 507.435 647.904 506.877C648.143 506.32 648.315 505.816 648.422 505.365C648.528 504.914 648.594 504.675 648.62 504.649C648.7 504.516 648.952 504.45 649.377 504.45H649.854C650.04 504.583 650.133 504.715 650.133 504.848C650.133 504.928 649.721 506.665 648.899 510.061C648.077 513.457 647.626 515.208 647.546 515.314C647.493 515.5 647.228 515.592 646.75 515.592H646.273C646.087 515.433 645.994 515.274 645.994 515.115C645.994 515.035 646.06 514.743 646.193 514.239C646.326 513.735 646.392 513.205 646.392 512.648C646.392 511.878 646.127 511.401 645.596 511.215C645.066 511.029 643.885 510.936 642.054 510.936H639.866L638.592 515.99C637.743 519.28 637.319 521.004 637.319 521.164C637.319 521.535 638.499 521.721 640.861 521.721H641.855C642.015 521.88 642.094 521.973 642.094 521.999C642.094 522.026 642.068 522.291 642.015 522.795C641.908 523.14 641.776 523.392 641.617 523.551H640.94C639.852 523.498 637.849 523.472 634.931 523.472C633.207 523.472 631.894 523.472 630.992 523.472C630.09 523.472 629.586 523.485 629.479 523.511Z" fill="#6C63FF"/>
<path d="M654.005 487.02C654.005 486.808 654.071 486.622 654.204 486.463C654.336 486.304 654.535 486.224 654.801 486.224C654.986 486.224 655.145 486.291 655.278 486.423C655.411 486.529 655.543 486.781 655.676 487.179C655.941 488.161 656.485 488.917 657.308 489.448C657.599 489.633 657.745 489.872 657.745 490.164C657.745 490.403 657.706 490.562 657.626 490.641C657.546 490.721 657.361 490.84 657.069 491C655.928 491.583 654.933 492.419 654.084 493.507C654.031 493.56 653.965 493.639 653.885 493.745C653.806 493.851 653.739 493.931 653.686 493.984C653.633 494.037 653.567 494.064 653.487 494.064C653.408 494.064 653.315 494.077 653.209 494.104C653.023 494.104 652.851 494.037 652.691 493.905C652.532 493.772 652.439 493.573 652.413 493.308C652.413 492.804 653.036 492.021 654.283 490.96H647.478L640.674 490.92C640.329 490.681 640.156 490.429 640.156 490.164C640.156 489.978 640.329 489.713 640.674 489.368H654.96C654.323 488.36 654.005 487.577 654.005 487.02Z" fill="#6C63FF"/>
<path d="M664.431 533.46H664.351C664.033 533.46 663.794 533.275 663.635 532.903V513.563L663.675 494.223C663.94 493.878 664.192 493.706 664.431 493.706C664.776 493.706 665.041 493.905 665.227 494.303V532.903C665.014 533.275 664.776 533.46 664.51 533.46H664.431Z" fill="#6C63FF"/>
<path d="M671.315 517.224C671.315 514.333 672.456 511.733 674.738 509.425C677.019 507.117 679.486 505.963 682.139 505.963C683.625 505.963 684.792 506.281 685.641 506.918C686.49 507.554 686.928 508.39 686.954 509.425C686.954 510.194 686.702 510.844 686.198 511.375C685.694 511.905 685.058 512.184 684.288 512.21C683.784 512.21 683.386 512.078 683.094 511.812C682.803 511.547 682.657 511.149 682.657 510.618C682.657 510.088 682.803 509.637 683.094 509.265C683.386 508.894 683.678 508.616 683.97 508.43C684.262 508.244 684.447 508.165 684.527 508.191H684.567C684.567 508.138 684.487 508.058 684.328 507.952C684.169 507.846 683.89 507.74 683.492 507.634C683.094 507.528 682.643 507.475 682.139 507.475C681.343 507.475 680.587 507.66 679.871 508.032C679.314 508.271 678.743 508.682 678.16 509.265C676.993 510.433 676.144 512.078 675.613 514.2C675.082 516.322 674.804 517.861 674.777 518.816C674.777 520.036 675.122 520.952 675.812 521.562C676.396 522.199 677.165 522.517 678.12 522.517H678.279C681.251 522.517 683.705 521.389 685.641 519.134C685.88 518.869 686.039 518.737 686.119 518.737C686.225 518.737 686.397 518.856 686.636 519.095C686.875 519.333 687.007 519.519 687.034 519.652C687.061 519.784 686.941 519.983 686.676 520.249C686.411 520.514 686.026 520.885 685.522 521.363C685.018 521.84 684.421 522.238 683.731 522.557C683.041 522.875 682.192 523.207 681.184 523.552C680.176 523.897 679.115 524.042 678.001 523.989C676.011 523.989 674.406 523.353 673.186 522.079C671.965 520.806 671.342 519.188 671.315 517.224Z" fill="#6C63FF"/>
<path d="M695.192 523.989C693.202 523.989 691.597 523.339 690.377 522.039C689.156 520.739 688.546 519.174 688.546 517.343C688.546 515.619 688.944 513.987 689.74 512.448C690.536 510.91 691.624 509.57 693.003 508.429C695.019 506.811 697.075 506.002 699.171 506.002C700.02 506.002 700.551 506.015 700.763 506.042C701.108 506.121 701.453 506.214 701.798 506.32C702.142 506.426 702.607 506.638 703.19 506.957C703.774 507.275 704.252 507.673 704.623 508.151C704.994 508.628 705.339 509.278 705.658 510.101C705.976 510.923 706.135 511.851 706.135 512.886C706.135 515.725 704.994 518.285 702.713 520.566C700.431 522.848 697.924 523.989 695.192 523.989ZM692.008 518.776C692.008 520.102 692.353 521.057 693.043 521.641C693.733 522.225 694.515 522.516 695.391 522.516C696.558 522.516 697.659 522.092 698.694 521.243C699.728 520.394 700.551 519.28 701.161 517.9C701.4 517.343 701.705 516.362 702.076 514.955C702.448 513.549 702.633 512.329 702.633 511.294C702.633 510.127 702.395 509.238 701.917 508.628C701.28 507.832 700.431 507.434 699.37 507.434C697.699 507.434 696.226 508.204 694.953 509.742C693.971 510.91 693.242 512.462 692.764 514.398C692.287 516.335 692.035 517.794 692.008 518.776Z" fill="#6C63FF"/>
<path d="M711.706 512.051C711.706 511.202 711.919 510.34 712.343 509.464C712.768 508.589 713.51 507.779 714.572 507.037C715.633 506.294 716.919 505.936 718.432 505.962C720.077 505.962 721.27 506.32 722.013 507.037C722.756 507.753 723.141 508.549 723.167 509.424C723.167 510.273 722.942 510.897 722.491 511.295C722.04 511.693 721.536 511.905 720.979 511.931C720.634 511.931 720.315 511.825 720.023 511.613C719.732 511.401 719.572 511.056 719.546 510.578C719.546 510.154 719.665 509.782 719.904 509.464C720.143 509.146 720.368 508.907 720.581 508.748C720.793 508.589 720.965 508.509 721.098 508.509C721.124 508.509 721.138 508.496 721.138 508.469C721.138 508.39 721.045 508.27 720.859 508.111C720.673 507.952 720.342 507.806 719.864 507.673C719.387 507.541 718.869 507.461 718.312 507.435C717.039 507.435 716.11 507.779 715.527 508.469C714.943 509.159 714.638 509.862 714.611 510.578C714.611 511.242 714.863 511.706 715.368 511.971C715.872 512.236 716.601 512.462 717.556 512.648C718.511 512.833 719.201 513.032 719.626 513.245C721.376 514.014 722.252 515.287 722.252 517.065C722.252 517.808 722.106 518.55 721.814 519.293C721.522 520.036 721.085 520.779 720.501 521.522C719.917 522.265 719.082 522.848 717.994 523.273C716.906 523.697 715.659 523.923 714.253 523.949C712.21 523.949 710.765 523.565 709.916 522.795C709.067 522.026 708.629 521.124 708.602 520.089C708.602 519.055 708.881 518.312 709.438 517.861C709.995 517.41 710.579 517.184 711.189 517.184C711.587 517.184 711.958 517.304 712.303 517.542C712.648 517.781 712.834 518.192 712.86 518.776C712.86 519.466 712.622 520.049 712.144 520.527C711.667 521.004 711.255 521.243 710.911 521.243C710.857 521.27 710.818 521.283 710.791 521.283C710.765 521.283 710.751 521.31 710.751 521.363C710.778 521.442 710.884 521.548 711.07 521.681C711.255 521.814 711.667 521.986 712.303 522.198C712.94 522.411 713.67 522.503 714.492 522.477C715.447 522.477 716.27 522.331 716.959 522.039C717.649 521.747 718.153 521.376 718.471 520.925C718.79 520.474 719.015 520.063 719.148 519.691C719.281 519.32 719.347 518.988 719.347 518.696C719.347 517.954 719.068 517.396 718.511 517.025C717.954 516.654 717.317 516.428 716.601 516.348C715.885 516.269 715.102 516.07 714.253 515.752C713.404 515.433 712.781 514.969 712.383 514.359C711.932 513.696 711.706 512.926 711.706 512.051Z" fill="#6C63FF"/>
<path d="M728.898 513.603C728.898 511.772 729.03 510.035 729.296 508.39C729.561 506.745 729.866 505.326 730.211 504.132C730.556 502.938 731.046 501.771 731.683 500.63C732.32 499.489 732.824 498.6 733.195 497.964C733.567 497.327 734.124 496.637 734.867 495.894C735.61 495.152 736.047 494.701 736.18 494.541C736.313 494.382 736.644 494.104 737.175 493.706H737.692H737.851C738.223 493.706 738.408 493.825 738.408 494.064C738.408 494.143 738.183 494.422 737.732 494.899C737.281 495.377 736.737 496.08 736.1 497.009C735.464 497.937 734.814 499.078 734.15 500.431C733.487 501.784 732.93 503.614 732.479 505.923C732.028 508.231 731.803 510.791 731.803 513.603C731.803 516.415 732.028 518.962 732.479 521.243C732.93 523.525 733.474 525.369 734.111 526.775C734.747 528.181 735.397 529.322 736.061 530.197C736.724 531.073 737.281 531.776 737.732 532.306C738.183 532.837 738.408 533.115 738.408 533.142C738.408 533.381 738.209 533.5 737.812 533.5H737.692H737.175L736.061 532.545C733.567 530.29 731.75 527.478 730.609 524.109C729.468 520.739 728.898 517.237 728.898 513.603Z" fill="#6C63FF"/>
<path d="M742.03 515.592C742.03 512.886 742.547 510.034 743.582 507.037C744.616 504.039 746.022 501.452 747.8 499.277C749.577 497.101 751.421 495.854 753.331 495.536C753.358 495.536 753.464 495.536 753.65 495.536C753.835 495.536 753.994 495.523 754.127 495.496C755.56 495.602 756.674 496.252 757.47 497.446C758.505 499.038 759.022 501.174 759.022 503.853C759.022 506.904 758.425 510.008 757.231 513.165C756.037 516.322 754.512 518.909 752.655 520.925C750.798 522.941 749.02 523.949 747.322 523.949H747.044C746.089 523.949 745.266 523.684 744.577 523.153C743.887 522.623 743.369 521.92 743.025 521.044C742.68 520.169 742.428 519.28 742.268 518.378C742.109 517.476 742.03 516.547 742.03 515.592ZM755.878 501.028C755.878 498.322 755.175 496.969 753.769 496.969C752.814 496.969 751.885 497.566 750.983 498.759C750.081 499.953 749.339 501.306 748.755 502.818C748.171 504.331 747.72 505.657 747.402 506.798C747.084 507.939 746.911 508.602 746.885 508.788C748.185 508.814 749.471 508.827 750.745 508.827L754.605 508.788C754.631 508.761 754.737 508.323 754.923 507.474C755.109 506.625 755.321 505.564 755.56 504.291C755.799 503.017 755.905 501.93 755.878 501.028ZM745.134 518.298C745.134 521.111 745.837 522.517 747.243 522.517C747.641 522.517 748.065 522.384 748.516 522.119C748.967 521.853 749.511 521.349 750.148 520.606C750.784 519.864 751.421 518.71 752.058 517.144C752.695 515.579 753.331 513.642 753.968 511.334L754.167 510.658H746.407C746.407 510.737 746.288 511.242 746.049 512.17C745.81 513.099 745.598 514.133 745.412 515.274C745.226 516.415 745.134 517.423 745.134 518.298Z" fill="#6C63FF"/>
<path d="M761.688 493.745L761.847 493.706C761.98 493.706 762.113 493.706 762.245 493.706H762.723L763.837 494.661C766.331 496.916 768.148 499.728 769.289 503.097C770.43 506.466 771 509.968 771 513.603C771 515.407 770.867 517.145 770.602 518.816C770.337 520.487 770.032 521.907 769.687 523.074C769.342 524.241 768.851 525.408 768.214 526.576C767.578 527.743 767.074 528.632 766.702 529.242C766.331 529.852 765.787 530.529 765.071 531.272C764.354 532.014 763.93 532.452 763.797 532.585C763.665 532.717 763.359 532.969 762.882 533.341C762.802 533.42 762.749 533.473 762.723 533.5H762.245C762.033 533.5 761.887 533.5 761.807 533.5C761.728 533.5 761.662 533.46 761.609 533.381C761.555 533.301 761.516 533.182 761.489 533.022C761.516 532.996 761.662 532.823 761.927 532.505C766.039 528.234 768.095 521.933 768.095 513.603C768.095 505.273 766.039 498.972 761.927 494.701C761.662 494.382 761.516 494.21 761.489 494.183C761.489 493.971 761.555 493.825 761.688 493.745Z" fill="#6C63FF"/>
<path d="M463.749 459.236C463.749 459.689 463.616 459.916 463.35 459.916C463.296 459.916 463.11 459.876 462.79 459.796C462.363 459.689 462.123 459.582 462.07 459.476C462.016 459.369 461.976 459.062 461.95 458.556C461.95 457.836 461.91 457.036 461.83 456.156C461.75 455.783 461.59 455.53 461.35 455.396C461.217 455.343 457.471 454.397 450.112 452.557C442.754 450.717 439.021 449.784 438.915 449.758C438.728 449.758 438.635 449.811 438.635 449.918C438.555 450.131 438.488 450.837 438.435 452.037V453.277C438.275 453.437 438.168 453.517 438.115 453.517C438.061 453.517 437.835 453.49 437.435 453.437C436.982 453.33 436.702 453.197 436.595 453.037V431.481C436.702 431.295 436.848 431.201 437.035 431.201C437.168 431.201 438.661 431.375 441.514 431.721C444.367 432.068 445.833 432.255 445.913 432.281C446.1 432.335 446.193 432.601 446.193 433.081V433.561C446.06 433.748 445.886 433.841 445.673 433.841C445.647 433.841 445.327 433.801 444.713 433.721C444.1 433.641 443.394 433.601 442.594 433.601C441.794 433.601 441.141 433.694 440.634 433.881C440.128 434.068 439.714 434.321 439.395 434.641C439.075 434.961 438.861 435.454 438.755 436.12C438.648 436.787 438.555 437.467 438.475 438.16C438.395 438.853 438.381 439.813 438.435 441.039V441.959C438.461 444.145 438.501 445.305 438.555 445.439C438.608 445.572 438.715 445.665 438.875 445.718C438.901 445.745 440.648 446.198 444.114 447.078L449.272 448.358V446.158C449.272 446.078 449.272 445.772 449.272 445.239C449.272 444.705 449.259 444.332 449.232 444.119C449.206 443.906 449.166 443.612 449.112 443.239C449.059 442.866 448.966 442.546 448.833 442.279C448.699 442.013 448.539 441.786 448.353 441.599C448.033 441.253 447.593 440.959 447.033 440.72C446.473 440.48 445.966 440.306 445.513 440.2C445.06 440.093 444.82 440.026 444.793 440C444.66 439.92 444.593 439.666 444.593 439.24V438.76C444.727 438.573 444.86 438.48 444.993 438.48C445.073 438.48 446.82 438.893 450.232 439.72C453.645 440.546 455.405 440.999 455.511 441.079C455.698 441.133 455.791 441.399 455.791 441.879V442.359C455.631 442.546 455.471 442.639 455.311 442.639C455.231 442.639 454.938 442.572 454.431 442.439C453.925 442.306 453.392 442.239 452.832 442.239C452.059 442.239 451.579 442.506 451.392 443.039C451.205 443.572 451.112 444.759 451.112 446.598V448.798L456.191 450.078C459.497 450.931 461.23 451.357 461.39 451.357C461.763 451.357 461.95 450.171 461.95 447.798V446.798C462.11 446.638 462.203 446.558 462.23 446.558C462.256 446.558 462.523 446.585 463.03 446.638C463.376 446.745 463.629 446.878 463.789 447.038V447.718C463.736 448.811 463.709 450.824 463.709 453.757C463.709 455.49 463.709 456.81 463.709 457.716C463.709 458.622 463.723 459.129 463.749 459.236Z" fill="#6C63FF"/>
<path d="M461.673 434.847C461.41 434.847 460.957 434.706 460.316 434.423C459.675 434.14 459.006 433.688 458.309 433.066C457.611 432.444 457.272 431.746 457.291 430.974C457.291 430.201 457.508 429.579 457.941 429.108C458.375 428.636 458.978 428.391 459.751 428.372C460.109 428.41 460.307 428.438 460.345 428.457C460.401 428.457 460.835 428.608 461.645 428.91C462.456 429.211 463.37 429.522 464.388 429.843C465.406 430.163 466.216 430.314 466.819 430.295C467.63 430.295 468.195 430.163 468.516 429.899C468.836 429.635 469.006 429.239 469.025 428.712C469.025 428.278 468.921 427.873 468.714 427.496C468.506 427.119 468.29 426.827 468.063 426.619C467.837 426.412 467.526 426.158 467.13 425.856C467.111 425.856 466.923 425.809 466.565 425.715C466.207 425.62 465.651 425.488 464.897 425.319C464.143 425.149 463.445 424.97 462.804 424.782C459.977 424.065 458.497 423.669 458.365 423.594C457.856 423.349 457.602 422.944 457.602 422.378C457.602 422.133 457.668 421.935 457.8 421.785C457.932 421.634 458.045 421.53 458.139 421.474C458.233 421.417 458.318 421.398 458.394 421.417C458.639 421.417 460.618 421.879 464.331 422.802C468.045 423.726 470.08 424.254 470.438 424.386C472.003 424.914 473.247 425.828 474.171 427.128C475.094 428.429 475.565 429.73 475.584 431.03C475.584 431.878 475.377 432.623 474.962 433.264C474.548 433.905 473.926 434.225 473.096 434.225C472.681 434.225 472.333 434.159 472.05 434.027C471.767 433.895 471.56 433.716 471.428 433.49C471.296 433.264 471.202 433.075 471.145 432.925C471.089 432.774 471.06 432.614 471.06 432.444C471.06 431.614 471.456 431.2 472.248 431.2C472.625 431.2 472.955 431.313 473.238 431.539C473.52 431.765 473.709 431.982 473.803 432.189C473.897 432.397 473.944 432.519 473.944 432.557L473.973 432.642C474.067 432.604 474.18 432.425 474.312 432.105C474.444 431.784 474.51 431.464 474.51 431.143V430.917C474.51 430.597 474.491 430.352 474.453 430.182C474.284 429.56 473.926 428.985 473.379 428.457C472.832 427.929 472.248 427.524 471.626 427.241C471.004 426.959 470.476 426.742 470.043 426.591C469.609 426.44 469.326 426.365 469.194 426.365L469.307 426.535C469.383 426.648 469.487 426.827 469.618 427.072C469.75 427.317 469.863 427.562 469.958 427.807C470.052 428.184 470.099 428.551 470.099 428.91C470.099 429.777 469.892 430.54 469.477 431.2C469.062 431.86 468.393 432.293 467.47 432.5C467.338 432.519 467.046 432.529 466.593 432.529C465.519 432.529 464.114 432.199 462.38 431.539C460.646 430.879 459.543 430.55 459.072 430.55C459.053 430.55 459.035 430.55 459.016 430.55C458.846 430.55 458.733 430.55 458.676 430.55C458.62 430.55 458.554 430.587 458.478 430.663C458.403 430.738 458.365 430.842 458.365 430.974V431.087C458.365 431.52 458.544 431.916 458.903 432.274C459.261 432.632 459.647 432.915 460.062 433.122C460.476 433.33 460.872 433.49 461.249 433.603C461.626 433.716 461.834 433.792 461.871 433.829C461.909 433.867 461.928 434.018 461.928 434.282V434.678C461.815 434.791 461.73 434.847 461.673 434.847Z" fill="#6C63FF"/>
<path d="M449.912 406.235C449.566 406.235 449.299 406.048 449.112 405.675V380.2C449.326 379.8 449.592 379.6 449.912 379.6C450.205 379.6 450.459 379.787 450.672 380.16L450.712 392.878V405.595C450.579 406.022 450.312 406.235 449.912 406.235ZM457.671 406.235C457.271 406.235 457.004 406.022 456.871 405.595V380.16C457.137 379.787 457.404 379.6 457.671 379.6C458.017 379.6 458.284 379.8 458.47 380.2V405.675C458.284 406.048 458.017 406.235 457.671 406.235Z" fill="#6C63FF"/>
<path d="M473.747 360.697V360.777C473.747 361.097 473.561 361.337 473.187 361.497H453.751L434.315 361.457C433.969 361.19 433.795 360.937 433.795 360.697C433.795 360.35 433.995 360.084 434.395 359.897H473.187C473.561 360.11 473.747 360.35 473.747 360.617V360.697Z" fill="#6C63FF"/>
<path d="M463.75 353.218C463.75 353.671 463.617 353.897 463.35 353.897C463.297 353.897 463.11 353.857 462.79 353.777C462.363 353.671 462.124 353.564 462.07 353.458C462.017 353.351 461.977 353.044 461.95 352.538C461.95 351.818 461.91 351.018 461.83 350.138C461.75 349.765 461.59 349.512 461.35 349.378C461.217 349.325 457.471 348.379 450.113 346.539C442.754 344.699 439.022 343.766 438.915 343.74C438.728 343.74 438.635 343.793 438.635 343.9C438.555 344.113 438.488 344.819 438.435 346.019V347.259C438.275 347.419 438.169 347.499 438.115 347.499C438.062 347.499 437.835 347.472 437.435 347.419C436.982 347.312 436.702 347.179 436.596 347.019V325.463C436.702 325.277 436.849 325.183 437.035 325.183C437.169 325.183 438.662 325.357 441.514 325.703C444.367 326.05 445.834 326.237 445.914 326.263C446.1 326.317 446.194 326.583 446.194 327.063V327.543C446.06 327.73 445.887 327.823 445.674 327.823C445.647 327.823 445.327 327.783 444.714 327.703C444.101 327.623 443.394 327.583 442.594 327.583C441.794 327.583 441.141 327.676 440.635 327.863C440.128 328.05 439.715 328.303 439.395 328.623C439.075 328.943 438.862 329.436 438.755 330.102C438.648 330.769 438.555 331.449 438.475 332.142C438.395 332.835 438.382 333.795 438.435 335.021V335.941C438.462 338.127 438.502 339.287 438.555 339.42C438.608 339.554 438.715 339.647 438.875 339.7C438.902 339.727 440.648 340.18 444.114 341.06L449.273 342.34V340.14C449.273 340.06 449.273 339.754 449.273 339.221C449.273 338.687 449.26 338.314 449.233 338.101C449.206 337.887 449.166 337.594 449.113 337.221C449.06 336.848 448.966 336.528 448.833 336.261C448.7 335.995 448.54 335.768 448.353 335.581C448.033 335.235 447.593 334.941 447.033 334.701C446.473 334.462 445.967 334.288 445.514 334.182C445.06 334.075 444.82 334.008 444.794 333.982C444.661 333.902 444.594 333.648 444.594 333.222V332.742C444.727 332.555 444.86 332.462 444.994 332.462C445.074 332.462 446.82 332.875 450.233 333.702C453.645 334.528 455.405 334.981 455.512 335.061C455.698 335.115 455.792 335.381 455.792 335.861V336.341C455.632 336.528 455.472 336.621 455.312 336.621C455.232 336.621 454.938 336.554 454.432 336.421C453.925 336.288 453.392 336.221 452.832 336.221C452.059 336.221 451.579 336.488 451.392 337.021C451.206 337.554 451.112 338.741 451.112 340.58V342.78L456.191 344.06C459.497 344.913 461.23 345.339 461.39 345.339C461.764 345.339 461.95 344.153 461.95 341.78V340.78C462.11 340.62 462.204 340.54 462.23 340.54C462.257 340.54 462.523 340.567 463.03 340.62C463.377 340.727 463.63 340.86 463.79 341.02V341.7C463.737 342.793 463.71 344.806 463.71 347.739C463.71 349.472 463.71 350.791 463.71 351.698C463.71 352.604 463.723 353.111 463.75 353.218Z" fill="#6C63FF"/>
<path d="M427.077 328.571C426.864 328.571 426.677 328.504 426.517 328.371C426.357 328.237 426.277 328.037 426.277 327.771C426.277 327.584 426.344 327.424 426.477 327.291C426.584 327.158 426.837 327.024 427.237 326.891C428.223 326.624 428.983 326.078 429.516 325.251C429.703 324.958 429.943 324.811 430.236 324.811C430.476 324.811 430.636 324.851 430.716 324.931C430.796 325.011 430.916 325.198 431.076 325.491C431.663 326.638 432.503 327.638 433.596 328.491C433.649 328.544 433.729 328.611 433.836 328.691C433.942 328.771 434.022 328.837 434.076 328.891C434.129 328.944 434.156 329.011 434.156 329.091C434.156 329.171 434.169 329.264 434.196 329.371C434.196 329.557 434.129 329.73 433.996 329.89C433.862 330.05 433.662 330.144 433.396 330.17C432.889 330.17 432.103 329.544 431.036 328.291V335.129L430.996 341.968C430.756 342.314 430.503 342.488 430.236 342.488C430.05 342.488 429.783 342.314 429.437 341.968V327.611C428.423 328.251 427.637 328.571 427.077 328.571Z" fill="#6C63FF"/>
<path d="M473.747 318.093V318.173C473.747 318.493 473.561 318.733 473.187 318.893H453.751L434.315 318.853C433.969 318.586 433.795 318.333 433.795 318.093C433.795 317.746 433.995 317.48 434.395 317.293H473.187C473.561 317.506 473.747 317.746 473.747 318.013V318.093Z" fill="#6C63FF"/>
<path d="M452.232 307.295C451.378 307.295 450.512 307.082 449.632 306.655C448.752 306.229 447.939 305.482 447.193 304.416C446.446 303.349 446.086 302.056 446.113 300.537C446.113 298.884 446.473 297.684 447.193 296.937C447.912 296.191 448.712 295.804 449.592 295.778C450.445 295.778 451.072 296.004 451.472 296.457C451.872 296.911 452.085 297.417 452.112 297.977C452.112 298.324 452.005 298.644 451.792 298.937C451.578 299.23 451.232 299.39 450.752 299.417C450.325 299.417 449.952 299.297 449.632 299.057C449.312 298.817 449.072 298.59 448.912 298.377C448.752 298.164 448.672 297.99 448.672 297.857C448.672 297.831 448.659 297.817 448.632 297.817C448.552 297.817 448.432 297.91 448.272 298.097C448.112 298.284 447.966 298.617 447.832 299.097C447.699 299.577 447.619 300.097 447.592 300.657C447.592 301.936 447.939 302.869 448.632 303.456C449.325 304.043 450.032 304.349 450.752 304.376C451.418 304.376 451.885 304.123 452.152 303.616C452.418 303.109 452.645 302.376 452.831 301.416C453.018 300.457 453.218 299.763 453.431 299.337C454.204 297.577 455.484 296.697 457.27 296.697C458.017 296.697 458.763 296.844 459.51 297.137C460.257 297.431 461.003 297.87 461.75 298.457C462.496 299.044 463.083 299.883 463.509 300.977C463.936 302.07 464.162 303.323 464.189 304.736C464.189 306.789 463.802 308.242 463.029 309.095C462.256 309.948 461.35 310.388 460.31 310.415C459.27 310.415 458.524 310.135 458.07 309.575C457.617 309.015 457.39 308.428 457.39 307.815C457.39 307.415 457.51 307.042 457.75 306.695C457.99 306.349 458.404 306.162 458.99 306.135C459.683 306.135 460.27 306.375 460.75 306.855C461.23 307.335 461.47 307.748 461.47 308.095C461.496 308.148 461.51 308.188 461.51 308.215C461.51 308.242 461.536 308.255 461.59 308.255C461.67 308.228 461.776 308.122 461.91 307.935C462.043 307.748 462.216 307.335 462.429 306.695C462.643 306.055 462.736 305.322 462.709 304.496C462.709 303.536 462.563 302.709 462.269 302.016C461.976 301.323 461.603 300.817 461.15 300.497C460.696 300.177 460.283 299.95 459.91 299.817C459.537 299.683 459.203 299.617 458.91 299.617C458.164 299.617 457.604 299.897 457.23 300.457C456.857 301.017 456.631 301.656 456.551 302.376C456.471 303.096 456.271 303.883 455.951 304.736C455.631 305.589 455.164 306.215 454.551 306.615C453.885 307.069 453.111 307.295 452.232 307.295Z" fill="#6C63FF"/>
<path d="M439.794 286.419C439.155 286.419 438.595 286.166 438.115 285.66C437.635 285.153 437.382 284.566 437.355 283.9C437.355 283.42 437.515 283.02 437.835 282.7C438.155 282.38 438.555 282.207 439.035 282.18C439.648 282.18 440.208 282.447 440.714 282.98C441.221 283.513 441.487 284.1 441.514 284.74C441.514 285.14 441.381 285.513 441.114 285.859C440.848 286.206 440.408 286.393 439.794 286.419ZM452.312 292.938C452.098 292.938 451.685 292.818 451.072 292.578C450.459 292.338 449.779 292.018 449.032 291.618C448.286 291.218 447.606 290.632 446.993 289.859C446.38 289.085 446.086 288.286 446.113 287.459C446.113 286.419 446.42 285.553 447.033 284.86C447.646 284.166 448.473 283.807 449.512 283.78C449.966 283.78 450.712 283.967 451.752 284.34C452.792 284.713 454.191 285.246 455.951 285.939C457.711 286.633 459.217 287.193 460.47 287.619C461.057 287.752 461.483 287.819 461.75 287.819C462.416 287.819 462.75 287.592 462.75 287.139C462.75 286.899 462.71 286.646 462.63 286.379C462.55 286.113 462.363 285.806 462.07 285.46C461.776 285.113 461.31 284.753 460.67 284.38C460.03 284.007 459.244 283.673 458.311 283.38C457.991 283.3 457.804 283.233 457.751 283.18C457.697 283.127 457.671 282.9 457.671 282.5C457.671 281.967 457.804 281.7 458.071 281.7C458.284 281.7 458.697 281.82 459.31 282.06C459.924 282.3 460.603 282.633 461.35 283.06C462.096 283.487 462.763 284.086 463.349 284.86C463.936 285.633 464.229 286.459 464.229 287.339C464.229 288.192 463.949 288.979 463.389 289.699C462.83 290.419 461.976 290.792 460.83 290.818C460.377 290.818 459.95 290.752 459.55 290.618C459.15 290.485 457.631 289.912 454.991 288.899C452.298 287.886 450.685 287.299 450.152 287.139C449.619 286.979 449.099 286.886 448.593 286.859C447.953 286.859 447.633 287.086 447.633 287.539V287.619C447.633 288.419 448.073 289.152 448.952 289.819C449.832 290.485 450.952 290.992 452.312 291.338C452.338 291.365 452.378 291.392 452.432 291.418C452.485 291.445 452.525 291.458 452.552 291.458C452.578 291.458 452.605 291.485 452.632 291.538C452.658 291.592 452.672 291.632 452.672 291.658C452.672 291.685 452.672 291.738 452.672 291.818C452.672 291.898 452.672 292.005 452.672 292.138V292.698C452.512 292.858 452.392 292.938 452.312 292.938Z" fill="#6C63FF"/>
<path d="M452.312 279.142C452.152 279.115 451.939 279.075 451.672 279.022C451.405 278.968 450.899 278.808 450.152 278.542C449.406 278.275 448.779 278.009 448.273 277.742C447.766 277.475 447.273 277.035 446.793 276.422C446.313 275.809 446.086 275.196 446.113 274.583C446.113 273.623 446.353 272.823 446.833 272.183C447.313 271.543 447.766 271.143 448.193 270.983C448.619 270.823 448.899 270.743 449.032 270.743C449.086 270.743 449.112 270.73 449.112 270.703L448.673 270.263C446.966 268.637 446.113 266.784 446.113 264.705C446.113 263.265 446.473 262.105 447.193 261.225C447.913 260.346 448.966 259.892 450.352 259.866C451.739 259.839 453.831 260.346 456.631 261.385C459.43 262.425 461.123 262.932 461.71 262.905C462.403 262.905 462.75 262.678 462.75 262.225C462.75 262.065 462.736 261.945 462.71 261.865C462.576 261.092 462.07 260.399 461.19 259.786C460.31 259.172 459.244 258.706 457.991 258.386C457.777 258.333 457.671 258.066 457.671 257.586C457.671 257.053 457.777 256.786 457.991 256.786C458.017 256.786 458.217 256.84 458.59 256.946C459.364 257.16 460.123 257.453 460.87 257.826C461.617 258.199 462.363 258.812 463.11 259.666C463.856 260.519 464.216 261.439 464.189 262.425C464.189 263.678 463.829 264.585 463.11 265.145C462.39 265.704 461.643 265.984 460.87 265.984C460.363 265.984 458.764 265.504 456.071 264.545C453.378 263.585 451.352 263.092 449.992 263.065C448.419 263.065 447.633 263.651 447.633 264.825V265.025C447.633 267.317 448.979 269.25 451.672 270.823L452.152 271.103L457.511 272.423C461.003 273.303 462.883 273.809 463.15 273.943C463.869 274.289 464.229 274.862 464.229 275.662C464.229 276.009 464.149 276.289 463.989 276.502C463.829 276.715 463.669 276.862 463.509 276.942C463.349 277.022 463.216 277.049 463.11 277.022C462.763 277.022 460.59 276.515 456.591 275.502C452.592 274.489 450.419 273.956 450.072 273.903C449.939 273.876 449.632 273.863 449.152 273.863C448.113 273.863 447.593 274.183 447.593 274.822C447.593 275.836 448.926 276.675 451.592 277.342C452.125 277.502 452.405 277.582 452.432 277.582C452.592 277.635 452.672 277.889 452.672 278.342V278.902C452.512 279.062 452.392 279.142 452.312 279.142Z" fill="#6C63FF"/>
<path d="M453.792 252.226C451.952 252.226 450.206 252.093 448.553 251.826C446.9 251.56 445.473 251.253 444.274 250.906C443.074 250.56 441.901 250.067 440.754 249.427C439.608 248.787 438.715 248.28 438.075 247.907C437.435 247.534 436.742 246.974 435.995 246.227C435.249 245.481 434.796 245.041 434.636 244.908C434.476 244.774 434.196 244.441 433.796 243.908V243.388V243.228C433.796 242.855 433.916 242.668 434.156 242.668C434.236 242.668 434.516 242.895 434.995 243.348C435.475 243.801 436.182 244.348 437.115 244.988C438.048 245.627 439.195 246.281 440.554 246.947C441.914 247.614 443.754 248.174 446.073 248.627C448.393 249.08 450.965 249.307 453.792 249.307C456.618 249.307 459.177 249.08 461.47 248.627C463.763 248.174 465.616 247.627 467.029 246.987C468.442 246.347 469.588 245.694 470.468 245.028C471.348 244.361 472.054 243.801 472.588 243.348C473.121 242.895 473.401 242.668 473.427 242.668C473.667 242.668 473.787 242.868 473.787 243.268V243.388V243.908L472.828 245.028C470.561 247.534 467.735 249.36 464.349 250.506C460.963 251.653 457.444 252.226 453.792 252.226Z" fill="#6C63FF"/>
<path d="M455.791 239.029C453.071 239.029 450.205 238.509 447.193 237.47C444.18 236.43 441.58 235.017 439.394 233.231C437.208 231.444 435.955 229.591 435.635 227.672C435.635 227.645 435.635 227.538 435.635 227.352C435.635 227.165 435.622 227.005 435.595 226.872C435.702 225.432 436.355 224.312 437.555 223.513C439.154 222.473 441.3 221.953 443.993 221.953C447.059 221.953 450.179 222.553 453.351 223.752C456.524 224.952 459.123 226.485 461.15 228.352C463.176 230.218 464.189 232.004 464.189 233.71V233.99C464.189 234.95 463.922 235.777 463.389 236.47C462.856 237.163 462.149 237.683 461.27 238.03C460.39 238.376 459.497 238.629 458.59 238.789C457.684 238.949 456.751 239.029 455.791 239.029ZM441.154 225.112C438.434 225.112 437.075 225.819 437.075 227.232C437.075 228.192 437.675 229.125 438.874 230.031C440.074 230.938 441.434 231.684 442.953 232.271C444.473 232.857 445.806 233.31 446.953 233.63C448.099 233.95 448.766 234.124 448.952 234.15C448.979 232.844 448.992 231.551 448.992 230.271L448.952 226.392C448.926 226.365 448.486 226.259 447.632 226.072C446.779 225.885 445.713 225.672 444.433 225.432C443.153 225.192 442.06 225.086 441.154 225.112ZM458.51 235.91C461.336 235.91 462.749 235.203 462.749 233.79C462.749 233.39 462.616 232.964 462.349 232.511C462.083 232.057 461.576 231.511 460.83 230.871C460.083 230.231 458.923 229.591 457.35 228.951C455.777 228.312 453.831 227.672 451.512 227.032L450.832 226.832V234.63C450.912 234.63 451.418 234.75 452.351 234.99C453.285 235.23 454.324 235.443 455.471 235.63C456.617 235.817 457.63 235.91 458.51 235.91Z" fill="#6C63FF"/>
<path d="M433.836 219.274L433.796 219.114C433.796 218.98 433.796 218.847 433.796 218.714V218.234L434.756 217.114C437.022 214.608 439.848 212.782 443.234 211.635C446.62 210.489 450.139 209.916 453.792 209.916C455.605 209.916 457.351 210.049 459.03 210.316C460.71 210.582 462.137 210.889 463.31 211.235C464.483 211.582 465.656 212.075 466.829 212.715C468.002 213.355 468.895 213.861 469.508 214.235C470.122 214.608 470.801 215.155 471.548 215.874C472.294 216.594 472.734 217.021 472.868 217.154C473.001 217.287 473.254 217.594 473.627 218.074C473.707 218.154 473.761 218.207 473.787 218.234V218.714C473.787 218.927 473.787 219.074 473.787 219.154C473.787 219.234 473.747 219.3 473.667 219.354C473.587 219.407 473.467 219.447 473.308 219.474C473.281 219.447 473.108 219.3 472.788 219.034C468.495 214.901 462.163 212.835 453.792 212.835C445.42 212.835 439.088 214.901 434.796 219.034C434.476 219.3 434.302 219.447 434.276 219.474C434.062 219.474 433.916 219.407 433.836 219.274Z" fill="#6C63FF"/>
<defs>
<filter id="filter0_d_80_233" x="793" y="216" width="10" height="259" filterUnits="userSpaceOnUse" color-interpolation-filters="sRGB">
<feFlood flood-opacity="0" result="BackgroundImageFix"/>
<feColorMatrix in="SourceAlpha" type="matrix" values="0 0 0 0 0 0 0 0 0 0 0 0 0 0 0 0 0 0 127 0" result="hardAlpha"/>
<feOffset dy="4"/>
<feGaussianBlur stdDeviation="2"/>
<feComposite in2="hardAlpha" operator="out"/>
<feColorMatrix type="matrix" values="0 0 0 0 0 0 0 0 0 0 0 0 0 0 0 0 0 0 0.25 0"/>
<feBlend mode="normal" in2="BackgroundImageFix" result="effect1_dropShadow_80_233"/>
<feBlend mode="normal" in="SourceGraphic" in2="effect1_dropShadow_80_233" result="shape"/>
</filter>
</defs>
</svg>
