<svg width="1200" height="198" viewBox="0 0 1200 198" fill="none" xmlns="http://www.w3.org/2000/svg">
<path d="M0 114.649C0 108.135 2.45101 101.943 7.35304 96.0732C12.2551 90.2037 17.7698 87.2367 23.8974 87.1722C27.1869 87.1722 30.0894 88.7524 32.6049 91.9129C33.6369 89.9779 35.1204 89.0104 37.0554 89.0104C37.8939 89.0104 38.6357 89.2684 39.2807 89.7844C39.9257 90.3004 40.2482 90.9454 40.2482 91.7194C40.2482 92.5579 39.055 97.718 36.6684 107.2C34.2819 116.681 33.0564 122.035 32.9919 123.26C32.9919 124.873 33.2177 125.937 33.6692 126.453C34.1207 126.969 34.7979 127.259 35.7009 127.324C36.2814 127.259 36.9264 126.969 37.6359 126.453C38.9905 125.163 40.3127 122.067 41.6027 117.165C41.9897 115.875 42.3122 115.198 42.5702 115.133C42.6992 115.069 43.0217 115.036 43.5377 115.036H43.9247C45.1502 115.036 45.763 115.327 45.763 115.907C45.763 116.294 45.6017 117.165 45.2792 118.519C44.9567 119.874 44.3117 121.615 43.3442 123.744C42.3767 125.872 41.3447 127.485 40.2482 128.581C39.4097 129.42 38.3777 130.097 37.1522 130.613C36.6362 130.742 35.8622 130.807 34.8302 130.807C32.6372 130.807 30.7989 130.323 29.3154 129.355C27.8319 128.388 26.8644 127.388 26.4129 126.356L25.8324 124.905C25.7679 124.84 25.6389 124.873 25.4454 125.002C25.3164 125.131 25.1874 125.26 25.0584 125.389C21.2529 129.001 17.3828 130.807 13.4483 130.807C9.9008 130.807 6.77253 129.517 4.06352 126.937C1.35451 124.357 0 120.261 0 114.649ZM30.7667 98.105C30.7667 97.718 30.6054 97.0085 30.2829 95.9765C29.9604 94.9445 29.2187 93.8157 28.0576 92.5902C26.8966 91.3647 25.4131 90.7197 23.6071 90.6552C21.3496 90.6552 19.1888 91.6549 17.1248 93.6544C15.0608 95.654 13.4483 98.2662 12.2873 101.491C10.4168 106.587 9.09455 111.876 8.32054 117.358C8.32054 117.552 8.32054 117.907 8.32054 118.423C8.32054 118.939 8.28829 119.326 8.22379 119.584C8.22379 122.486 8.8043 124.486 9.9653 125.582C11.1263 126.679 12.5131 127.259 14.1256 127.324C16.5766 127.324 18.9953 126.259 21.3819 124.131C23.7684 122.002 25.1874 120.358 25.6389 119.197C25.7679 118.939 26.6386 115.488 28.2511 108.844C29.8637 102.201 30.7022 98.621 30.7667 98.105Z" fill="black"/>
<path d="M80.2837 96.2666C80.2837 95.4281 80.7352 94.7831 81.6382 94.3316H143.268C144.236 94.8476 144.72 95.4926 144.72 96.2666C144.72 96.9761 144.268 97.5888 143.365 98.1048L112.598 98.2016H81.8317C80.7997 97.8791 80.2837 97.2341 80.2837 96.2666ZM80.2837 115.036C80.2837 114.069 80.7997 113.424 81.8317 113.101H143.365C144.268 113.746 144.72 114.391 144.72 115.036C144.72 115.875 144.236 116.52 143.268 116.971H81.6382C80.7352 116.52 80.2837 115.875 80.2837 115.036Z" fill="black"/>
<path d="M237.194 8.51425L235.936 8.998C235.033 9.3205 233.743 9.643 232.066 9.9655C230.389 10.288 228.518 10.5138 226.454 10.6428H224.616V6.19224H226.454C229.486 6.06323 232.292 5.57948 234.872 4.74098C237.452 3.90247 239.258 3.12847 240.29 2.41897C241.322 1.70946 242.225 0.999959 242.999 0.290455C243.128 0.0969541 243.515 0.000203609 244.16 0.000203609C244.74 0.000203609 245.289 0.193705 245.805 0.580707V29.5091L245.901 58.5343C246.353 58.9858 246.74 59.276 247.062 59.405C247.385 59.534 248.159 59.663 249.384 59.792C250.61 59.921 252.609 59.9855 255.383 59.9855H257.898V64.436H256.834C255.48 64.2425 250.352 64.1458 241.451 64.1458C232.679 64.1458 227.615 64.2425 226.261 64.436H225.1V59.9855H227.615C229.034 59.9855 230.26 59.9855 231.292 59.9855C232.324 59.9855 233.13 59.9533 233.711 59.8888C234.291 59.8243 234.807 59.7275 235.259 59.5985C235.71 59.4695 235.968 59.405 236.033 59.405C236.097 59.405 236.291 59.2438 236.613 58.9213C236.936 58.5988 237.129 58.4698 237.194 58.5343V8.51425Z" fill="black"/>
<path d="M200.332 168.442C200.397 168.055 200.493 167.539 200.622 166.894C200.751 166.249 201.138 165.024 201.783 163.218C202.428 161.412 203.073 159.896 203.718 158.67C204.363 157.445 205.395 156.252 206.814 155.091C208.233 153.93 209.652 153.381 211.071 153.446C212.49 153.51 213.877 153.736 215.232 154.123C216.586 154.51 217.554 155.091 218.134 155.865C218.715 156.639 219.231 157.348 219.682 157.993C220.134 158.638 220.392 159.251 220.456 159.831L220.65 160.509C220.65 160.638 220.682 160.702 220.746 160.702L221.811 159.638C225.681 155.51 230.228 153.446 235.452 153.446C236.549 153.446 237.549 153.51 238.452 153.639C239.355 153.768 240.193 153.994 240.967 154.317C241.741 154.639 242.354 154.962 242.806 155.284C243.257 155.607 243.741 155.994 244.257 156.445C244.773 156.897 245.095 157.316 245.224 157.703C245.353 158.09 245.611 158.509 245.998 158.961C246.385 159.412 246.514 159.799 246.385 160.122C246.256 160.444 246.353 160.734 246.676 160.992C246.998 161.25 247.063 161.476 246.869 161.67L247.643 160.702C251.707 155.865 256.512 153.446 262.059 153.446C265.542 153.446 268.348 154.317 270.476 156.058C272.605 157.8 273.701 160.347 273.766 163.702C273.766 166.991 272.54 172.087 270.089 178.988C267.638 185.89 266.413 190.018 266.413 191.372C266.477 192.275 266.638 192.888 266.896 193.21C267.154 193.533 267.638 193.694 268.348 193.694C270.154 193.694 271.831 192.727 273.379 190.792C274.927 188.857 276.184 186.212 277.152 182.858C277.345 182.149 277.539 181.729 277.732 181.6C277.926 181.471 278.442 181.407 279.28 181.407C280.57 181.407 281.215 181.665 281.215 182.181C281.215 182.245 281.086 182.729 280.828 183.632C280.312 185.503 279.603 187.341 278.7 189.147C277.797 190.953 276.313 192.759 274.249 194.565C272.185 196.371 269.96 197.242 267.574 197.177C264.542 197.177 262.349 196.306 260.995 194.565C259.64 192.823 258.963 191.017 258.963 189.147C258.963 187.921 260.124 184.051 262.446 177.537C264.768 171.022 265.961 166.12 266.026 162.831C266.026 159.025 264.607 157.122 261.769 157.122H261.285C255.738 157.122 251.062 160.38 247.256 166.894L246.579 168.055L243.386 181.02C241.257 189.469 240.032 194.017 239.709 194.662C238.871 196.403 237.484 197.274 235.549 197.274C234.711 197.274 234.033 197.048 233.517 196.597C233.001 196.145 232.647 195.758 232.453 195.436C232.26 195.113 232.163 194.791 232.163 194.468C232.163 193.759 233.259 189.147 235.452 180.633L238.935 166.507C239.129 165.54 239.226 164.314 239.226 162.831C239.226 159.025 237.807 157.122 234.969 157.122H234.485C228.938 157.122 224.262 160.38 220.456 166.894L219.779 168.055L216.586 181.02C214.458 189.469 213.232 194.017 212.91 194.662C212.071 196.403 210.684 197.274 208.749 197.274C207.911 197.274 207.234 197.08 206.718 196.693C206.202 196.306 205.847 195.919 205.653 195.532C205.46 195.145 205.395 194.823 205.46 194.565C205.46 193.726 206.685 188.437 209.136 178.698C211.652 168.765 212.91 163.573 212.91 163.121C213.103 162.153 213.2 161.283 213.2 160.509C213.2 158.187 212.394 157.026 210.781 157.026C209.362 157.026 208.169 157.929 207.201 159.735C206.234 161.541 205.492 163.508 204.976 165.637C204.46 167.765 204.073 168.926 203.815 169.12C203.686 169.249 203.17 169.313 202.267 169.313H200.913C200.526 168.926 200.332 168.636 200.332 168.442Z" fill="black"/>
<path d="M292.922 108.554H188.625V102.749H292.922V108.554Z" fill="black"/>
<path d="M321.947 120.551C321.947 120.551 321.947 115.585 321.947 105.652C321.947 95.7186 322.753 86.3338 324.366 77.4973C325.978 68.6607 327.946 61.2755 330.268 55.3414C332.59 49.4074 335.395 43.7959 338.685 38.5068C341.974 33.2178 344.909 29.1865 347.489 26.413C350.069 23.6395 352.746 21.0273 355.519 18.5762H358.228C358.615 18.9632 358.809 19.2535 358.809 19.447C358.809 19.705 358.293 20.3822 357.261 21.4788C356.229 22.5753 354.907 24.1233 353.294 26.1228C351.682 28.1223 349.843 30.6055 347.779 33.5726C345.715 36.5396 343.748 40.3128 341.878 44.8924C340.007 49.4719 338.201 54.5352 336.46 60.0822C334.718 65.6292 333.364 72.3373 332.396 80.2063C331.429 88.0753 330.913 96.5249 330.848 105.555C330.848 113.166 331.106 119.455 331.622 124.421C332.461 133.645 333.944 142.191 336.073 150.06C338.201 157.929 340.555 164.25 343.135 169.023C345.715 173.796 348.166 177.86 350.488 181.214C352.81 184.568 354.778 187.083 356.39 188.76C358.003 190.437 358.809 191.437 358.809 191.76C358.809 191.953 358.615 192.243 358.228 192.63H355.519C352.681 190.244 349.972 187.632 347.392 184.794C344.812 181.956 341.91 177.924 338.685 172.7C335.46 167.475 332.654 161.896 330.268 155.962C327.881 150.028 325.914 142.643 324.366 133.806L321.947 120.551Z" fill="black"/>
<path d="M375.74 153.931H375.547C374.773 153.931 374.192 153.479 373.805 152.576V105.555L373.902 58.5347C374.547 57.6962 375.16 57.2769 375.74 57.2769C376.579 57.2769 377.224 57.7607 377.675 58.7282V152.576C377.159 153.479 376.579 153.931 375.934 153.931H375.74Z" fill="#6C63FF"/>
<path d="M393.833 129.743C392.736 129.743 392.188 129.421 392.188 128.776C392.188 128.647 392.284 128.195 392.478 127.421C392.736 126.389 392.994 125.809 393.252 125.68C393.51 125.551 394.252 125.454 395.477 125.389C397.219 125.389 399.154 125.293 401.282 125.099C402.185 124.906 402.798 124.519 403.121 123.938C403.25 123.616 405.539 114.553 409.99 96.7512C414.44 78.9491 416.698 69.919 416.762 69.661C416.762 69.2095 416.633 68.9838 416.375 68.9838C415.859 68.7903 414.15 68.629 411.248 68.5H408.248C407.861 68.113 407.668 67.855 407.668 67.726C407.668 67.597 407.732 67.0488 407.861 66.0813C408.119 64.9848 408.442 64.3075 408.829 64.0495H460.977C461.429 64.3075 461.655 64.6623 461.655 65.1138C461.655 65.4363 461.235 69.0483 460.397 75.9498C459.558 82.8514 459.107 86.3989 459.042 86.5924C458.913 87.0439 458.268 87.2696 457.107 87.2696H455.946C455.495 86.9471 455.269 86.5279 455.269 86.0119C455.269 85.9474 455.366 85.1734 455.559 83.6899C455.753 82.2063 455.85 80.4971 455.85 78.5621C455.85 76.6271 455.624 75.0468 455.172 73.8213C454.721 72.5958 454.108 71.596 453.334 70.822C452.56 70.048 451.367 69.532 449.754 69.274C448.142 69.016 446.497 68.7903 444.82 68.5968C443.143 68.4033 440.821 68.371 437.854 68.5H435.629C430.34 68.5645 427.534 68.6613 427.211 68.7903C426.889 68.9193 426.663 69.1773 426.534 69.5643C426.47 69.6288 425.373 73.8536 423.245 82.2386L420.149 94.7194H425.47C425.663 94.7194 426.405 94.7194 427.695 94.7194C428.985 94.7194 429.888 94.6872 430.404 94.6227C430.92 94.5582 431.63 94.4614 432.533 94.3324C433.436 94.2034 434.21 93.9777 434.855 93.6552C435.5 93.3327 436.048 92.9457 436.499 92.4942C437.338 91.7201 438.047 90.6559 438.628 89.3014C439.208 87.9469 439.628 86.7214 439.886 85.6249C440.144 84.5284 440.305 83.9479 440.369 83.8834C440.563 83.5609 441.176 83.3996 442.208 83.3996H443.369C443.82 83.7221 444.046 84.0446 444.046 84.3671C444.046 84.5606 443.046 88.7854 441.047 97.0414C439.047 105.297 437.951 109.554 437.757 109.812C437.628 110.264 436.983 110.49 435.822 110.49H434.661C434.21 110.103 433.984 109.716 433.984 109.329C433.984 109.135 434.145 108.426 434.468 107.2C434.79 105.975 434.951 104.685 434.951 103.33C434.951 101.46 434.306 100.299 433.016 99.8472C431.726 99.3957 428.856 99.1699 424.406 99.1699H419.084L415.988 111.457C413.924 119.455 412.892 123.648 412.892 124.035C412.892 124.938 415.763 125.389 421.503 125.389H423.922C424.309 125.776 424.502 126.002 424.502 126.067C424.502 126.131 424.438 126.776 424.309 128.002C424.051 128.84 423.728 129.453 423.341 129.84H421.697C419.052 129.711 414.182 129.646 407.087 129.646C402.895 129.646 399.702 129.646 397.509 129.646C395.316 129.646 394.091 129.679 393.833 129.743Z" fill="#6C63FF"/>
<path d="M453.46 41.024C453.46 40.508 453.621 40.0565 453.943 39.6695C454.266 39.2825 454.75 39.089 455.395 39.089C455.846 39.089 456.233 39.2503 456.556 39.5728C456.878 39.8308 457.201 40.4435 457.523 41.411C458.168 43.7975 459.49 45.6358 461.49 46.9258C462.199 47.3773 462.554 47.9578 462.554 48.6673C462.554 49.2478 462.457 49.6348 462.264 49.8283C462.07 50.0218 461.619 50.3121 460.909 50.6991C458.136 52.1181 455.717 54.1498 453.653 56.7943C453.524 56.9233 453.363 57.1168 453.169 57.3749C452.976 57.6329 452.815 57.8264 452.686 57.9554C452.557 58.0844 452.395 58.1489 452.202 58.1489C452.008 58.1489 451.783 58.1811 451.525 58.2456C451.073 58.2456 450.654 58.0844 450.267 57.7619C449.88 57.4394 449.654 56.9556 449.59 56.3106C449.59 55.0851 451.105 53.1823 454.137 50.6023H437.593L421.048 50.5056C420.21 49.9251 419.791 49.3123 419.791 48.6673C419.791 48.2158 420.21 47.5708 421.048 46.7323H455.782C454.234 44.2813 453.46 42.3785 453.46 41.024Z" fill="#6C63FF"/>
<path d="M478.808 153.931H478.615C477.841 153.931 477.26 153.479 476.873 152.576V105.555L476.97 58.5347C477.615 57.6962 478.228 57.2769 478.808 57.2769C479.647 57.2769 480.292 57.7607 480.743 58.7282V152.576C480.227 153.479 479.647 153.931 479.002 153.931H478.808Z" fill="#6C63FF"/>
<path d="M495.546 114.456C495.546 107.426 498.32 101.105 503.867 95.4932C509.414 89.8817 515.412 87.0759 521.863 87.0759C525.475 87.0759 528.313 87.8499 530.377 89.3979C532.441 90.9459 533.505 92.9777 533.569 95.4932C533.569 97.3637 532.957 98.944 531.731 100.234C530.506 101.524 528.958 102.201 527.087 102.266C525.862 102.266 524.894 101.943 524.185 101.298C523.475 100.653 523.12 99.6857 523.12 98.3957C523.12 97.1057 523.475 96.0092 524.185 95.1062C524.894 94.2032 525.604 93.5259 526.313 93.0744C527.023 92.6229 527.474 92.4294 527.668 92.4939H527.764C527.764 92.3649 527.571 92.1714 527.184 91.9134C526.797 91.6554 526.12 91.3974 525.152 91.1394C524.185 90.8814 523.088 90.7524 521.863 90.7524C519.928 90.7524 518.089 91.2039 516.348 92.1069C514.993 92.6874 513.606 93.6872 512.187 95.1062C509.349 97.9442 507.285 101.943 505.995 107.103C504.705 112.263 504.028 116.004 503.964 118.326C503.964 121.293 504.802 123.519 506.479 125.002C507.898 126.55 509.769 127.324 512.091 127.324H512.478C519.702 127.324 525.668 124.583 530.377 119.1C530.957 118.455 531.344 118.133 531.538 118.133C531.796 118.133 532.215 118.423 532.795 119.004C533.376 119.584 533.698 120.036 533.763 120.358C533.827 120.681 533.537 121.164 532.892 121.809C532.247 122.454 531.312 123.357 530.086 124.518C528.861 125.679 527.41 126.647 525.733 127.421C524.056 128.195 521.992 129.001 519.541 129.84C517.089 130.678 514.509 131.033 511.8 130.904C506.963 130.904 503.061 129.356 500.094 126.26C497.127 123.164 495.611 119.229 495.546 114.456Z" fill="#6C63FF"/>
<path d="M553.597 130.903C548.759 130.903 544.857 129.323 541.89 126.163C538.923 123.002 537.439 119.197 537.439 114.746C537.439 110.553 538.407 106.587 540.342 102.846C542.277 99.1047 544.921 95.8474 548.276 93.0739C553.178 89.1394 558.176 87.1721 563.272 87.1721C565.336 87.1721 566.626 87.2043 567.142 87.2688C567.98 87.4623 568.819 87.6881 569.657 87.9461C570.496 88.2041 571.625 88.7201 573.044 89.4941C574.463 90.2681 575.624 91.2356 576.527 92.3966C577.43 93.5576 578.268 95.1379 579.042 97.1374C579.816 99.1369 580.203 101.394 580.203 103.91C580.203 110.811 577.43 117.036 571.883 122.583C566.336 128.13 560.24 130.903 553.597 130.903ZM545.857 118.229C545.857 121.454 546.695 123.776 548.372 125.195C550.049 126.614 551.952 127.324 554.081 127.324C556.919 127.324 559.595 126.292 562.111 124.228C564.626 122.164 566.626 119.455 568.109 116.1C568.69 114.746 569.432 112.359 570.335 108.941C571.238 105.522 571.689 102.555 571.689 100.04C571.689 97.2019 571.109 95.0411 569.948 93.5576C568.4 91.6226 566.336 90.6551 563.756 90.6551C559.692 90.6551 556.112 92.5256 553.016 96.2666C550.63 99.1047 548.856 102.878 547.695 107.586C546.534 112.295 545.921 115.842 545.857 118.229Z" fill="#6C63FF"/>
<path d="M593.748 101.878C593.748 99.8142 594.264 97.718 595.296 95.5895C596.328 93.4609 598.134 91.4937 600.714 89.6877C603.294 87.8817 606.423 87.0109 610.099 87.0754C614.098 87.0754 617.001 87.9462 618.807 89.6877C620.613 91.4292 621.548 93.3642 621.613 95.4927C621.613 97.5567 621.064 99.0725 619.968 100.04C618.871 101.007 617.646 101.523 616.291 101.588C615.453 101.588 614.679 101.33 613.969 100.814C613.26 100.298 612.873 99.4595 612.808 98.2985C612.808 97.2665 613.099 96.3635 613.679 95.5895C614.26 94.8155 614.808 94.2349 615.324 93.8479C615.84 93.4609 616.259 93.2674 616.582 93.2674C616.646 93.2674 616.678 93.2352 616.678 93.1707C616.678 92.9772 616.453 92.6869 616.001 92.2999C615.55 91.9129 614.743 91.5582 613.582 91.2357C612.421 90.9132 611.164 90.7197 609.809 90.6552C606.713 90.6552 604.455 91.4937 603.036 93.1707C601.617 94.8477 600.876 96.557 600.811 98.2985C600.811 99.911 601.424 101.04 602.649 101.685C603.875 102.33 605.649 102.878 607.971 103.329C610.293 103.781 611.97 104.265 613.002 104.781C617.259 106.651 619.387 109.747 619.387 114.069C619.387 115.875 619.033 117.681 618.323 119.487C617.614 121.293 616.549 123.099 615.13 124.905C613.711 126.711 611.68 128.13 609.035 129.162C606.391 130.194 603.359 130.742 599.94 130.807C594.974 130.807 591.459 129.871 589.395 128.001C587.331 126.13 586.266 123.937 586.202 121.422C586.202 118.906 586.879 117.1 588.234 116.004C589.588 114.907 591.007 114.359 592.491 114.359C593.458 114.359 594.361 114.649 595.2 115.23C596.038 115.81 596.49 116.81 596.554 118.229C596.554 119.906 595.974 121.325 594.813 122.486C593.652 123.647 592.652 124.228 591.813 124.228C591.684 124.292 591.588 124.324 591.523 124.324C591.459 124.324 591.426 124.389 591.426 124.518C591.491 124.711 591.749 124.969 592.2 125.292C592.652 125.614 593.652 126.034 595.2 126.55C596.748 127.066 598.521 127.291 600.521 127.227C602.843 127.227 604.843 126.872 606.52 126.163C608.197 125.453 609.422 124.55 610.196 123.454C610.97 122.357 611.518 121.357 611.841 120.454C612.163 119.551 612.325 118.745 612.325 118.036C612.325 116.23 611.647 114.875 610.293 113.972C608.938 113.069 607.39 112.521 605.649 112.327C603.907 112.134 602.004 111.65 599.94 110.876C597.876 110.102 596.361 108.973 595.393 107.49C594.297 105.877 593.748 104.007 593.748 101.878Z" fill="#6C63FF"/>
<path d="M635.544 105.652C635.544 101.202 635.867 96.9768 636.512 92.9778C637.157 88.9788 637.899 85.528 638.737 82.6255C639.576 79.723 640.769 76.885 642.317 74.1114C643.865 71.3379 645.09 69.1772 645.993 67.6292C646.896 66.0811 648.251 64.4041 650.057 62.5981C651.863 60.7921 652.927 59.6956 653.25 59.3086C653.572 58.9216 654.379 58.2444 655.669 57.2769H656.926H657.313C658.216 57.2769 658.668 57.5671 658.668 58.1476C658.668 58.3411 658.12 59.0184 657.023 60.1794C655.927 61.3404 654.604 63.0496 653.056 65.3071C651.508 67.5647 649.928 70.3382 648.316 73.6277C646.703 76.9172 645.348 81.3677 644.252 86.9793C643.155 92.5908 642.607 98.8151 642.607 105.652C642.607 112.489 643.155 118.681 644.252 124.228C645.348 129.775 646.671 134.258 648.219 137.677C649.767 141.095 651.347 143.869 652.96 145.997C654.572 148.126 655.927 149.835 657.023 151.125C658.12 152.415 658.668 153.092 658.668 153.157C658.668 153.737 658.184 154.027 657.217 154.027H656.926H655.669L652.96 151.705C646.896 146.223 642.478 139.386 639.705 131.194C636.931 123.003 635.544 114.489 635.544 105.652Z" fill="#6C63FF"/>
<path d="M667.472 110.489C667.472 103.91 668.73 96.9762 671.245 89.6877C673.761 82.3991 677.179 76.1104 681.501 70.8213C685.823 65.5323 690.305 62.5008 694.949 61.7268C695.014 61.7268 695.272 61.7268 695.723 61.7268C696.175 61.7268 696.562 61.6945 696.884 61.63C700.367 61.888 703.076 63.4683 705.011 66.3708C707.527 70.2408 708.785 75.4331 708.785 81.9476C708.785 89.3652 707.333 96.9117 704.431 104.587C701.528 112.263 697.82 118.552 693.305 123.454C688.79 128.356 684.468 130.807 680.34 130.807H679.663C677.341 130.807 675.341 130.162 673.664 128.872C671.987 127.582 670.729 125.872 669.891 123.744C669.052 121.615 668.44 119.455 668.053 117.262C667.666 115.069 667.472 112.811 667.472 110.489ZM701.141 75.0784C701.141 68.4993 699.432 65.2098 696.014 65.2098C693.692 65.2098 691.434 66.6611 689.241 69.5636C687.048 72.4661 685.242 75.7556 683.823 79.4321C682.404 83.1086 681.307 86.3337 680.533 89.1072C679.759 91.8807 679.34 93.4932 679.276 93.9447C682.436 94.0092 685.565 94.0415 688.661 94.0415L698.045 93.9447C698.11 93.8802 698.368 92.8159 698.819 90.7519C699.271 88.6879 699.787 86.1079 700.367 83.0119C700.948 79.9159 701.206 77.2714 701.141 75.0784ZM675.019 117.068C675.019 123.905 676.728 127.324 680.146 127.324C681.114 127.324 682.146 127.001 683.243 126.356C684.339 125.711 685.661 124.486 687.209 122.68C688.757 120.874 690.305 118.068 691.853 114.262C693.401 110.457 694.949 105.748 696.497 100.137L696.981 98.492H678.115C678.115 98.6855 677.824 99.911 677.244 102.168C676.663 104.426 676.147 106.942 675.696 109.715C675.244 112.489 675.019 114.94 675.019 117.068Z" fill="#6C63FF"/>
<path d="M715.267 57.3736L715.654 57.2769C715.976 57.2769 716.299 57.2769 716.621 57.2769H717.782L720.491 59.5989C726.554 65.0814 730.973 71.9184 733.746 80.11C736.52 88.3015 737.906 96.8156 737.906 105.652C737.906 110.038 737.584 114.263 736.939 118.326C736.294 122.39 735.552 125.841 734.714 128.679C733.875 131.517 732.682 134.355 731.134 137.193C729.586 140.031 728.36 142.192 727.457 143.675C726.554 145.159 725.232 146.803 723.491 148.609C721.749 150.415 720.717 151.48 720.394 151.802C720.072 152.125 719.33 152.737 718.169 153.64C717.976 153.834 717.847 153.963 717.782 154.027H716.621C716.105 154.027 715.75 154.027 715.557 154.027C715.363 154.027 715.202 153.931 715.073 153.737C714.944 153.544 714.847 153.253 714.783 152.866C714.847 152.802 715.202 152.383 715.847 151.609C725.845 141.224 730.844 125.905 730.844 105.652C730.844 85.399 725.845 70.0802 715.847 59.6956C715.202 58.9216 714.847 58.5024 714.783 58.4379C714.783 57.9219 714.944 57.5671 715.267 57.3736Z" fill="#6C63FF"/>
<path d="M776.723 106.91C776.723 106.91 776.723 106.491 776.723 105.652C776.723 104.814 777.175 104.169 778.078 103.717H834.29C835.257 104.233 835.741 104.878 835.741 105.652C835.741 106.426 835.257 107.071 834.29 107.587H778.078C777.175 107.136 776.723 106.491 776.723 105.652V106.91Z" fill="black"/>
<path d="M870.977 150.737C870.074 150.737 869.3 150.479 868.655 149.963C868.01 149.447 867.656 148.738 867.591 147.835C867.591 147.19 869.945 137.45 874.654 118.616C879.362 99.782 881.846 90.1715 882.104 89.7845C882.942 87.9785 884.426 87.0755 886.554 87.0755C887.328 87.14 887.973 87.3657 888.489 87.7527C889.005 88.1397 889.328 88.5267 889.457 88.9137C889.586 89.3007 889.65 89.6232 889.65 89.8812C889.65 90.6553 888.65 94.9768 886.651 102.846C884.651 110.715 883.587 115.133 883.458 116.101C883.329 116.81 883.265 117.939 883.265 119.487V120.261C883.265 124.969 885.425 127.324 889.747 127.324C890.327 127.324 890.908 127.291 891.488 127.227C892.069 127.162 892.617 127.033 893.133 126.84C893.649 126.646 894.133 126.421 894.584 126.163C895.036 125.905 895.455 125.679 895.842 125.485C896.229 125.292 896.616 124.969 897.003 124.518C897.39 124.066 897.745 123.744 898.067 123.55C898.39 123.357 898.712 122.97 899.035 122.389C899.357 121.809 899.615 121.454 899.809 121.325C900.002 121.196 900.293 120.809 900.68 120.164L901.357 119.197L904.84 105.361C907.162 96.2023 908.452 91.3325 908.71 90.752C909.549 89.0105 910.935 88.1397 912.87 88.1397C913.709 88.1397 914.386 88.3655 914.902 88.817C915.418 89.2685 915.773 89.6555 915.966 89.978C916.16 90.3005 916.224 90.623 916.16 90.9455L908.807 121.712C908.742 122.035 908.71 122.551 908.71 123.26C908.71 124.873 908.936 125.937 909.387 126.453C909.839 126.969 910.516 127.259 911.419 127.324C912 127.259 912.645 126.969 913.354 126.453C914.709 125.163 916.031 122.067 917.321 117.165C917.708 115.875 918.03 115.198 918.288 115.133C918.417 115.069 918.74 115.036 919.256 115.036H919.643C920.868 115.036 921.481 115.327 921.481 115.907C921.481 116.294 921.32 117.165 920.997 118.519C920.675 119.874 920.03 121.615 919.062 123.744C918.095 125.872 917.063 127.485 915.966 128.581C915.128 129.42 914.096 130.097 912.87 130.613C912.354 130.742 911.58 130.807 910.548 130.807C909.194 130.807 907.968 130.613 906.872 130.226C905.775 129.839 904.905 129.355 904.26 128.775C903.615 128.194 903.066 127.614 902.615 127.033C902.163 126.453 901.873 125.969 901.744 125.582C901.615 125.195 901.55 124.969 901.55 124.905L900.97 125.485C900.583 125.872 900.002 126.356 899.228 126.937C898.454 127.517 897.616 128.098 896.713 128.678C895.81 129.259 894.649 129.775 893.23 130.226C891.811 130.678 890.456 130.903 889.166 130.903C886.135 130.903 883.136 130.162 880.169 128.678L877.847 138.063C876.492 143.352 875.686 146.416 875.428 147.254C875.17 148.093 874.783 148.802 874.267 149.383C873.235 150.286 872.138 150.737 870.977 150.737Z" fill="#2CAC0B"/>
<path d="M931.983 100.095C931.983 99.6386 932.074 99.1142 932.257 98.5213C932.439 97.9285 932.713 97.6321 933.078 97.6321C933.123 97.6321 934.765 97.5181 938.003 97.2901C941.24 97.0621 942.905 96.9253 942.996 96.8797C943.543 96.8797 943.817 97.0621 943.817 97.4269C943.817 97.7461 942.677 102.511 940.397 111.723C938.117 120.752 936.977 125.426 936.977 125.746C937.843 125.29 938.504 124.856 938.96 124.446C940.055 123.625 941.628 122.189 943.68 120.137C945.732 118.084 947.328 116.694 948.468 115.964C950.292 114.733 952.025 114.117 953.667 114.117C955.035 114.117 956.106 114.55 956.882 115.417C957.657 116.283 958.067 117.514 958.113 119.111C958.113 120.251 957.953 121.208 957.634 121.983C957.315 122.759 956.882 123.329 956.334 123.694C955.787 124.058 955.308 124.309 954.898 124.446C954.488 124.583 954.077 124.651 953.667 124.651C952.755 124.651 952.025 124.4 951.478 123.899C950.931 123.397 950.657 122.736 950.657 121.915C950.657 120.775 951.022 119.84 951.751 119.111C952.481 118.381 953.211 117.902 953.94 117.674L955.035 117.469C954.488 116.922 953.94 116.648 953.393 116.648H953.12C951.66 116.785 950.224 117.355 948.81 118.358C947.397 119.361 945.732 120.821 943.817 122.736C941.902 124.651 940.397 126.042 939.302 126.908C939.393 126.954 939.735 127.022 940.328 127.114C940.921 127.205 941.468 127.342 941.97 127.524C942.472 127.706 943.064 127.889 943.748 128.071C944.432 128.254 945.048 128.573 945.595 129.029C946.142 129.485 946.644 129.895 947.1 130.26C947.556 130.625 947.944 131.218 948.263 132.039C948.582 132.859 948.719 133.612 948.673 134.296C948.673 135.071 948.559 136.006 948.331 137.1C948.103 138.195 947.967 139.107 947.921 139.837C947.921 141.661 948.537 142.573 949.768 142.573C951.957 142.573 953.735 139.859 955.103 134.433C955.194 134.068 955.65 133.885 956.471 133.885H956.745C957.475 133.885 957.839 134.091 957.839 134.501C957.839 134.729 957.771 135.048 957.634 135.459C955.764 141.889 953.074 145.104 949.563 145.104C947.511 145.104 945.846 144.511 944.569 143.325C943.292 142.139 942.654 140.429 942.654 138.195C942.654 137.374 942.722 136.667 942.859 136.074C942.996 135.482 943.064 134.934 943.064 134.433C943.064 133.429 942.745 132.563 942.107 131.833C941.468 131.104 940.67 130.579 939.713 130.26C938.755 129.941 937.98 129.69 937.387 129.508C936.794 129.325 936.384 129.257 936.156 129.303H936.019C935.472 131.218 934.993 133.065 934.582 134.843C934.172 136.622 933.853 137.944 933.625 138.81C933.397 139.677 933.192 140.521 933.009 141.341C932.827 142.162 932.667 142.709 932.53 142.983C932.394 143.257 932.234 143.553 932.052 143.872C931.869 144.191 931.618 144.397 931.299 144.488C930.706 144.898 930.068 145.104 929.384 145.104C928.609 145.104 928.016 144.876 927.605 144.419C927.195 143.963 926.99 143.576 926.99 143.257C926.99 142.801 927.833 139.152 929.521 132.312C931.208 125.472 932.872 118.746 934.514 112.133L937.045 102.215C937.091 101.622 936.931 101.257 936.566 101.121C936.201 100.984 935.312 100.87 933.898 100.779H933.556C933.1 100.779 932.804 100.779 932.667 100.779C932.53 100.779 932.371 100.71 932.188 100.573C932.006 100.437 931.938 100.277 931.983 100.095Z" fill="#2CAC0B"/>
<path d="M977.635 153.931H977.442C976.668 153.931 976.087 153.479 975.7 152.576V105.555L975.797 58.5347C976.442 57.6962 977.055 57.2769 977.635 57.2769C978.474 57.2769 979.119 57.7607 979.57 58.7282V152.576C979.054 153.479 978.474 153.931 977.829 153.931H977.635Z" fill="#2CAC0B"/>
<path d="M995.727 129.743C994.631 129.743 994.083 129.421 994.083 128.776C994.083 128.647 994.179 128.195 994.373 127.421C994.631 126.389 994.889 125.809 995.147 125.68C995.405 125.551 996.147 125.454 997.372 125.389C999.114 125.389 1001.05 125.293 1003.18 125.099C1004.08 124.906 1004.69 124.519 1005.02 123.938C1005.14 123.616 1007.43 114.553 1011.88 96.7512C1016.34 78.9491 1018.59 69.919 1018.66 69.661C1018.66 69.2095 1018.53 68.9838 1018.27 68.9838C1017.75 68.7903 1016.04 68.629 1013.14 68.5H1010.14C1009.76 68.113 1009.56 67.855 1009.56 67.726C1009.56 67.597 1009.63 67.0488 1009.76 66.0813C1010.01 64.9848 1010.34 64.3075 1010.72 64.0495H1062.87C1063.32 64.3075 1063.55 64.6623 1063.55 65.1138C1063.55 65.4363 1063.13 69.0483 1062.29 75.9498C1061.45 82.8514 1061 86.3989 1060.94 86.5924C1060.81 87.0439 1060.16 87.2696 1059 87.2696H1057.84C1057.39 86.9471 1057.16 86.5279 1057.16 86.0119C1057.16 85.9474 1057.26 85.1734 1057.45 83.6899C1057.65 82.2063 1057.74 80.4971 1057.74 78.5621C1057.74 76.6271 1057.52 75.0468 1057.07 73.8213C1056.62 72.5958 1056 71.596 1055.23 70.822C1054.45 70.048 1053.26 69.532 1051.65 69.274C1050.04 69.016 1048.39 68.7903 1046.71 68.5968C1045.04 68.4033 1042.72 68.371 1039.75 68.5H1037.52C1032.23 68.5645 1029.43 68.6613 1029.11 68.7903C1028.78 68.9193 1028.56 69.1773 1028.43 69.5643C1028.36 69.6288 1027.27 73.8536 1025.14 82.2386L1022.04 94.7194H1027.36C1027.56 94.7194 1028.3 94.7194 1029.59 94.7194C1030.88 94.7194 1031.78 94.6872 1032.3 94.6227C1032.81 94.5582 1033.52 94.4614 1034.43 94.3324C1035.33 94.2034 1036.1 93.9777 1036.75 93.6552C1037.39 93.3327 1037.94 92.9457 1038.39 92.4942C1039.23 91.7201 1039.94 90.6559 1040.52 89.3014C1041.1 87.9469 1041.52 86.7214 1041.78 85.6249C1042.04 84.5284 1042.2 83.9479 1042.26 83.8834C1042.46 83.5609 1043.07 83.3996 1044.1 83.3996H1045.26C1045.72 83.7221 1045.94 84.0446 1045.94 84.3671C1045.94 84.5606 1044.94 88.7854 1042.94 97.0414C1040.94 105.297 1039.85 109.554 1039.65 109.812C1039.52 110.264 1038.88 110.49 1037.72 110.49H1036.56C1036.1 110.103 1035.88 109.716 1035.88 109.329C1035.88 109.135 1036.04 108.426 1036.36 107.2C1036.68 105.975 1036.85 104.685 1036.85 103.33C1036.85 101.46 1036.2 100.299 1034.91 99.8472C1033.62 99.3957 1030.75 99.1699 1026.3 99.1699H1020.98L1017.88 111.457C1015.82 119.455 1014.79 123.648 1014.79 124.035C1014.79 124.938 1017.66 125.389 1023.4 125.389H1025.82C1026.2 125.776 1026.4 126.002 1026.4 126.067C1026.4 126.131 1026.33 126.776 1026.2 128.002C1025.95 128.84 1025.62 129.453 1025.24 129.84H1023.59C1020.95 129.711 1016.08 129.646 1008.98 129.646C1004.79 129.646 1001.6 129.646 999.404 129.646C997.211 129.646 995.985 129.679 995.727 129.743Z" fill="#2CAC0B"/>
<path d="M1055.35 41.024C1055.35 40.508 1055.52 40.0565 1055.84 39.6695C1056.16 39.2825 1056.64 39.089 1057.29 39.089C1057.74 39.089 1058.13 39.2503 1058.45 39.5728C1058.77 39.8308 1059.1 40.4435 1059.42 41.411C1060.06 43.7975 1061.39 45.6358 1063.38 46.9258C1064.09 47.3773 1064.45 47.9578 1064.45 48.6673C1064.45 49.2478 1064.35 49.6348 1064.16 49.8283C1063.97 50.0218 1063.51 50.3121 1062.8 50.6991C1060.03 52.1181 1057.61 54.1498 1055.55 56.7943C1055.42 56.9233 1055.26 57.1168 1055.06 57.3749C1054.87 57.6329 1054.71 57.8264 1054.58 57.9554C1054.45 58.0844 1054.29 58.1489 1054.1 58.1489C1053.9 58.1489 1053.68 58.1811 1053.42 58.2456C1052.97 58.2456 1052.55 58.0844 1052.16 57.7619C1051.77 57.4394 1051.55 56.9556 1051.48 56.3106C1051.48 55.0851 1053 53.1823 1056.03 50.6023H1039.49L1022.94 50.5056C1022.1 49.9251 1021.69 49.3123 1021.69 48.6673C1021.69 48.2158 1022.1 47.5708 1022.94 46.7323H1057.68C1056.13 44.2813 1055.35 42.3785 1055.35 41.024Z" fill="#2CAC0B"/>
<path d="M1083.26 100.78C1083.12 100.78 1082.94 100.78 1082.71 100.78C1081.57 100.78 1080.89 100.757 1080.66 100.711C1080.43 100.666 1080.32 100.415 1080.32 99.9588C1080.32 98.7275 1080.57 97.9751 1081.07 97.7015C1081.16 97.6559 1083.38 97.6331 1087.71 97.6331C1091.22 97.6331 1093.23 97.6331 1093.73 97.6331C1094.23 97.6331 1094.55 97.7699 1094.68 98.0435C1104.31 120.662 1109.21 132.268 1109.39 132.86L1113.08 118.291C1115.5 108.669 1116.71 103.538 1116.71 102.9C1116.71 101.669 1115.25 100.962 1112.33 100.78C1111.24 100.78 1110.69 100.529 1110.69 100.027C1110.69 99.936 1110.74 99.6623 1110.83 99.2063C1111.01 98.4767 1111.15 98.0435 1111.24 97.9067C1111.33 97.7699 1111.56 97.6787 1111.92 97.6331C1112.06 97.6331 1112.77 97.6559 1114.04 97.7015C1115.32 97.7471 1117.21 97.7927 1119.72 97.8383C1122 97.8383 1123.73 97.8155 1124.92 97.7699C1126.1 97.7243 1126.79 97.7015 1126.97 97.7015C1127.65 97.7015 1128 97.9295 1128 98.3855C1128 99.3887 1127.81 100.073 1127.45 100.438C1127.36 100.666 1126.86 100.78 1125.94 100.78C1122.71 100.962 1120.68 101.874 1119.86 103.516L1109.66 143.873C1109.57 144.192 1109.09 144.352 1108.23 144.352C1107.59 144.352 1107.2 144.306 1107.07 144.215C1106.93 144.078 1103.99 137.17 1098.24 123.489L1089.55 103.037L1085.11 120.822C1082.14 132.496 1080.66 138.538 1080.66 138.948C1080.89 140.453 1082.53 141.206 1085.59 141.206H1086.27C1086.54 141.434 1086.68 141.616 1086.68 141.753C1086.68 141.89 1086.64 142.323 1086.54 143.052C1086.36 143.645 1086.13 144.078 1085.86 144.352H1084.97C1083.56 144.261 1081.1 144.215 1077.58 144.215C1076.31 144.215 1075.14 144.215 1074.1 144.215C1073.05 144.215 1072.2 144.215 1071.56 144.215C1070.93 144.215 1070.54 144.238 1070.4 144.284C1069.72 144.284 1069.38 144.078 1069.38 143.668C1069.38 143.486 1069.44 143.121 1069.58 142.574C1069.72 142.026 1069.83 141.707 1069.92 141.616C1070.01 141.342 1070.54 141.206 1071.5 141.206C1074.6 141.069 1076.6 140.179 1077.52 138.538C1077.7 138.264 1079.32 131.948 1082.37 119.59L1087.02 100.985C1086.93 100.939 1085.68 100.871 1083.26 100.78Z" fill="#2CAC0B"/>
<path d="M1146.3 153.931H1146.11C1145.33 153.931 1144.75 153.479 1144.37 152.576V105.555L1144.46 58.5347C1145.11 57.6962 1145.72 57.2769 1146.3 57.2769C1147.14 57.2769 1147.78 57.7607 1148.24 58.7282V152.576C1147.72 153.479 1147.14 153.931 1146.49 153.931H1146.3Z" fill="#2CAC0B"/>
<path d="M1163.13 19.7372C1163.13 18.9632 1163.65 18.5762 1164.68 18.5762H1165.17H1166.42C1169.26 20.9628 1171.97 23.575 1174.55 26.413C1177.13 29.251 1180.03 33.2823 1183.26 38.5068C1186.48 43.7314 1189.29 49.3106 1191.68 55.2447C1194.06 61.1787 1196.03 68.5962 1197.58 77.4973C1199.13 86.3983 1199.93 95.7831 1200 105.652C1200.06 115.52 1199.25 124.873 1197.58 133.709C1195.9 142.546 1193.93 149.963 1191.68 155.962C1189.42 161.96 1186.61 167.54 1183.26 172.7C1179.9 177.86 1176.97 181.891 1174.45 184.794C1171.94 187.696 1169.26 190.308 1166.42 192.63H1165.17C1164.33 192.63 1163.78 192.566 1163.52 192.437C1163.26 192.308 1163.13 191.985 1163.13 191.469C1165.07 189.534 1167.49 186.664 1170.39 182.859C1181.55 167.894 1188.19 148.415 1190.32 124.421C1190.84 119.455 1191.1 113.166 1191.1 105.555C1191.1 98.0084 1190.84 91.7519 1190.32 86.7853C1187.87 58.9212 1179.23 37.0556 1164.39 21.1885C1163.62 20.2855 1163.2 19.8017 1163.13 19.7372Z" fill="black"/>
</svg>
