<svg width="1200" height="139" viewBox="0 0 1200 139" fill="none" xmlns="http://www.w3.org/2000/svg">
<path d="M0 73.3101C0 69.1445 1.56725 65.1851 4.70176 61.432C7.83626 57.6788 11.3626 55.7816 15.2807 55.7404C17.3841 55.7404 19.2401 56.7508 20.8486 58.7718C21.5085 57.5345 22.4571 56.9158 23.6944 56.9158C24.2306 56.9158 24.7049 57.0808 25.1173 57.4107C25.5297 57.7407 25.7359 58.1531 25.7359 58.648C25.7359 59.1842 24.9729 62.4837 23.4469 68.5465C21.9209 74.6093 21.1373 78.0325 21.096 78.8161C21.096 79.8472 21.2404 80.5277 21.5291 80.8577C21.8178 81.1876 22.2509 81.3732 22.8283 81.4145C23.1995 81.3732 23.6119 81.1876 24.0656 80.8577C24.9317 80.0328 25.7772 78.0531 26.6021 74.9186C26.8495 74.0937 27.0557 73.6607 27.2207 73.6194C27.3032 73.5782 27.5094 73.5576 27.8394 73.5576H28.0868C28.8704 73.5576 29.2623 73.7432 29.2623 74.1144C29.2623 74.3618 29.1591 74.9186 28.9529 75.7847C28.7467 76.6508 28.3343 77.7644 27.7156 79.1254C27.097 80.4865 26.4371 81.5176 25.7359 82.2187C25.1998 82.7549 24.5399 83.1879 23.7563 83.5179C23.4263 83.6004 22.9314 83.6416 22.2715 83.6416C20.8692 83.6416 19.6938 83.3323 18.7452 82.7136C17.7966 82.095 17.1779 81.4557 16.8892 80.7958L16.518 79.8678C16.4768 79.8266 16.3943 79.8472 16.2706 79.9297C16.1881 80.0122 16.1056 80.0947 16.0231 80.1771C13.5897 82.4868 11.1151 83.6416 8.59927 83.6416C6.33088 83.6416 4.33057 82.8167 2.59834 81.167C0.866113 79.5173 0 76.8983 0 73.3101ZM19.6731 62.7312C19.6731 62.4837 19.57 62.03 19.3638 61.3701C19.1576 60.7102 18.6833 59.9885 17.9409 59.2048C17.1985 58.4212 16.2499 58.0088 15.0951 57.9675C13.6516 57.9675 12.2699 58.6068 10.9501 59.8854C9.63036 61.1639 8.59927 62.8343 7.85689 64.8964C6.66082 68.1547 5.81533 71.5366 5.32041 75.0423C5.32041 75.1661 5.32041 75.3929 5.32041 75.7229C5.32041 76.0528 5.29979 76.3003 5.25855 76.4652C5.25855 78.3212 5.62974 79.5997 6.37212 80.3009C7.1145 81.002 8.00124 81.3732 9.03232 81.4145C10.5996 81.4145 12.1462 80.7339 13.6722 79.3729C15.1982 78.0119 16.1056 76.9602 16.3943 76.2178C16.4768 76.0528 17.0336 73.8463 18.0646 69.5982C19.0957 65.3501 19.6319 63.0611 19.6731 62.7312Z" fill="black"/>
<path d="M51.3354 61.5562C51.3354 61.0201 51.6242 60.6076 52.2016 60.3189H91.6097C92.2284 60.6489 92.5377 61.0613 92.5377 61.5562C92.5377 62.0099 92.249 62.4017 91.6716 62.7317L71.9984 62.7936H52.3253C51.6654 62.5873 51.3354 62.1749 51.3354 61.5562ZM51.3354 73.5581C51.3354 72.9395 51.6654 72.527 52.3253 72.3208H91.6716C92.249 72.7332 92.5377 73.1457 92.5377 73.5581C92.5377 74.0943 92.2284 74.5067 91.6097 74.7954H52.2016C51.6242 74.5067 51.3354 74.0943 51.3354 73.5581Z" fill="black"/>
<path d="M201.78 5.44404L200.976 5.75337C200.398 5.95959 199.573 6.1658 198.501 6.37202C197.429 6.57824 196.233 6.72259 194.913 6.80508H193.737V3.95928H194.913C196.851 3.87679 198.645 3.56746 200.295 3.0313C201.945 2.49513 203.1 2.00021 203.759 1.54653C204.419 1.09285 204.997 0.639175 205.492 0.185497C205.574 0.0617661 205.822 -9.91449e-05 206.234 -9.91449e-05C206.605 -9.91449e-05 206.956 0.123631 207.286 0.371092V18.8688L207.348 37.4284C207.636 37.7171 207.884 37.9027 208.09 37.9852C208.296 38.0676 208.791 38.1501 209.575 38.2326C210.358 38.3151 211.637 38.3563 213.41 38.3563H215.019V41.2021H214.338C213.472 41.0784 210.193 41.0166 204.502 41.0166C198.893 41.0166 195.655 41.0784 194.789 41.2021H194.047V38.3563H195.655C196.562 38.3563 197.346 38.3563 198.006 38.3563C198.666 38.3563 199.181 38.3357 199.553 38.2945C199.924 38.2532 200.254 38.1914 200.542 38.1089C200.831 38.0264 200.996 37.9852 201.037 37.9852C201.079 37.9852 201.202 37.882 201.409 37.6758C201.615 37.4696 201.739 37.3871 201.78 37.4284V5.44404Z" fill="black"/>
<path d="M139.976 89.7048L139.172 90.0141C138.594 90.2203 137.769 90.4265 136.697 90.6328C135.625 90.839 134.429 90.9833 133.109 91.0658H131.933V88.22H133.109C135.047 88.1375 136.841 87.8282 138.491 87.292C140.141 86.7559 141.296 86.261 141.956 85.8073C142.615 85.3536 143.193 84.8999 143.688 84.4462C143.77 84.3225 144.018 84.2606 144.43 84.2606C144.801 84.2606 145.152 84.3844 145.482 84.6318V103.13L145.544 121.689C145.832 121.978 146.08 122.163 146.286 122.246C146.492 122.328 146.987 122.411 147.771 122.493C148.554 122.576 149.833 122.617 151.606 122.617H153.215V125.463H152.534C151.668 125.339 148.39 125.277 142.698 125.277C137.089 125.277 133.851 125.339 132.985 125.463H132.243V122.617H133.851C134.759 122.617 135.542 122.617 136.202 122.617C136.862 122.617 137.377 122.596 137.749 122.555C138.12 122.514 138.45 122.452 138.739 122.37C139.027 122.287 139.192 122.246 139.233 122.246C139.275 122.246 139.398 122.143 139.605 121.937C139.811 121.73 139.935 121.648 139.976 121.689V89.7048Z" fill="black"/>
<path d="M163.67 89.2715C165.98 85.9308 169.135 84.2604 173.136 84.2604C175.115 84.2604 177.095 84.7966 179.075 85.8689C181.054 86.9413 182.663 88.8385 183.9 91.5605C185.426 94.9838 186.189 99.6855 186.189 105.666C186.189 112.059 185.303 116.946 183.529 120.328C182.704 122.06 181.57 123.442 180.127 124.473C178.683 125.504 177.425 126.143 176.353 126.391C175.28 126.638 174.229 126.782 173.198 126.824C172.125 126.824 171.053 126.7 169.981 126.453C168.908 126.205 167.65 125.545 166.207 124.473C164.763 123.401 163.629 122.019 162.804 120.328C161.031 116.946 160.144 112.059 160.144 105.666C160.144 98.4895 161.319 93.0247 163.67 89.2715ZM177.59 88.5291C176.353 87.2094 174.889 86.5495 173.198 86.5495C171.465 86.5495 169.981 87.2094 168.743 88.5291C167.712 89.6015 167.032 91.0862 166.702 92.9834C166.372 94.8806 166.207 98.84 166.207 104.862C166.207 111.378 166.372 115.667 166.702 117.73C167.032 119.792 167.774 121.421 168.929 122.617C170.084 123.854 171.507 124.473 173.198 124.473C174.847 124.473 176.25 123.854 177.404 122.617C178.601 121.38 179.343 119.647 179.632 117.42C179.92 115.193 180.085 111.007 180.127 104.862C180.127 98.8813 179.962 94.9425 179.632 93.0453C179.302 91.1481 178.621 89.6427 177.59 88.5291Z" fill="black"/>
<path d="M194.603 89.2715C196.912 85.9308 200.067 84.2604 204.068 84.2604C206.048 84.2604 208.027 84.7966 210.007 85.8689C211.987 86.9413 213.595 88.8385 214.833 91.5605C216.359 94.9838 217.122 99.6855 217.122 105.666C217.122 112.059 216.235 116.946 214.461 120.328C213.637 122.06 212.502 123.442 211.059 124.473C209.615 125.504 208.357 126.143 207.285 126.391C206.213 126.638 205.161 126.782 204.13 126.824C203.058 126.824 201.985 126.7 200.913 126.453C199.841 126.205 198.583 125.545 197.139 124.473C195.696 123.401 194.561 122.019 193.737 120.328C191.963 116.946 191.076 112.059 191.076 105.666C191.076 98.4895 192.252 93.0247 194.603 89.2715ZM208.522 88.5291C207.285 87.2094 205.821 86.5495 204.13 86.5495C202.398 86.5495 200.913 87.2094 199.676 88.5291C198.645 89.6015 197.964 91.0862 197.634 92.9834C197.304 94.8806 197.139 98.84 197.139 104.862C197.139 111.378 197.304 115.667 197.634 117.73C197.964 119.792 198.706 121.421 199.861 122.617C201.016 123.854 202.439 124.473 204.13 124.473C205.78 124.473 207.182 123.854 208.337 122.617C209.533 121.38 210.275 119.647 210.564 117.42C210.853 115.193 211.018 111.007 211.059 104.862C211.059 98.8813 210.894 94.9425 210.564 93.0453C210.234 91.1481 209.553 89.6427 208.522 88.5291Z" fill="black"/>
<path d="M227.082 85.4367C227.082 85.0243 227.165 84.55 227.33 84.0138C227.495 83.4776 227.742 83.2096 228.072 83.2096C228.113 83.2096 229.598 83.1065 232.526 82.9002C235.455 82.694 236.96 82.5703 237.043 82.529C237.538 82.529 237.785 82.694 237.785 83.024C237.785 83.3127 236.754 87.6226 234.692 95.9538C232.63 104.12 231.598 108.347 231.598 108.636C232.382 108.224 232.98 107.832 233.393 107.461C234.382 106.718 235.805 105.419 237.661 103.563C239.517 101.707 240.961 100.449 241.992 99.7895C243.642 98.6759 245.209 98.1191 246.694 98.1191C247.931 98.1191 248.9 98.5109 249.601 99.2945C250.302 100.078 250.674 101.192 250.715 102.635C250.715 103.666 250.57 104.532 250.282 105.234C249.993 105.935 249.601 106.45 249.106 106.78C248.611 107.11 248.178 107.337 247.807 107.461C247.436 107.584 247.065 107.646 246.694 107.646C245.869 107.646 245.209 107.419 244.714 106.966C244.219 106.512 243.972 105.914 243.972 105.172C243.972 104.141 244.301 103.295 244.961 102.635C245.621 101.975 246.281 101.542 246.941 101.336L247.931 101.15C247.436 100.656 246.941 100.408 246.446 100.408H246.199C244.879 100.532 243.58 101.047 242.301 101.955C241.023 102.862 239.517 104.182 237.785 105.914C236.053 107.646 234.692 108.904 233.702 109.688C233.784 109.729 234.094 109.791 234.63 109.873C235.166 109.956 235.661 110.08 236.115 110.245C236.568 110.41 237.104 110.575 237.723 110.74C238.342 110.905 238.899 111.193 239.394 111.606C239.888 112.018 240.342 112.389 240.755 112.719C241.167 113.049 241.518 113.585 241.806 114.328C242.095 115.07 242.219 115.751 242.177 116.369C242.177 117.07 242.074 117.916 241.868 118.906C241.662 119.896 241.538 120.721 241.497 121.38C241.497 123.03 242.054 123.855 243.167 123.855C245.147 123.855 246.755 121.401 247.993 116.493C248.075 116.163 248.488 115.998 249.23 115.998H249.478C250.137 115.998 250.467 116.184 250.467 116.555C250.467 116.761 250.406 117.05 250.282 117.421C248.591 123.236 246.157 126.144 242.982 126.144C241.126 126.144 239.62 125.608 238.466 124.536C237.311 123.463 236.733 121.917 236.733 119.896C236.733 119.153 236.795 118.514 236.919 117.978C237.043 117.442 237.104 116.947 237.104 116.493C237.104 115.586 236.816 114.802 236.238 114.142C235.661 113.482 234.939 113.008 234.073 112.719C233.207 112.431 232.506 112.204 231.97 112.039C231.434 111.874 231.062 111.812 230.856 111.853H230.732C230.237 113.585 229.804 115.256 229.433 116.864C229.062 118.473 228.773 119.669 228.567 120.452C228.361 121.236 228.175 121.999 228.01 122.741C227.845 123.484 227.701 123.979 227.577 124.226C227.454 124.474 227.309 124.742 227.144 125.03C226.979 125.319 226.752 125.505 226.464 125.587C225.928 125.958 225.35 126.144 224.731 126.144C224.03 126.144 223.494 125.938 223.123 125.525C222.752 125.113 222.566 124.762 222.566 124.474C222.566 124.061 223.329 120.762 224.855 114.575C226.381 108.389 227.887 102.305 229.371 96.325L231.66 87.3545C231.702 86.8184 231.557 86.4884 231.227 86.3647C230.897 86.241 230.093 86.1379 228.815 86.0554H228.505C228.093 86.0554 227.825 86.0554 227.701 86.0554C227.577 86.0554 227.433 85.9935 227.268 85.8698C227.103 85.746 227.041 85.6017 227.082 85.4367Z" fill="black"/>
<path d="M271.068 122.803C270.45 123.339 269.542 123.917 268.346 124.535C267.15 125.154 265.892 125.463 264.572 125.463C261.974 125.463 259.891 124.535 258.324 122.679C256.757 120.823 255.952 118.452 255.911 115.565C255.911 111.234 257.499 107.254 260.675 103.625C263.851 99.9953 267.377 98.1599 271.254 98.1187C273.192 98.1187 274.986 99.1085 276.636 101.088L276.822 100.841C276.904 100.717 277.007 100.593 277.131 100.47C277.255 100.346 277.44 100.181 277.688 99.9747C277.935 99.7684 278.203 99.6241 278.492 99.5416C278.781 99.4591 279.111 99.3972 279.482 99.356C280.059 99.356 280.534 99.5416 280.905 99.9128C281.276 100.284 281.482 100.676 281.523 101.088C281.523 101.707 280.348 106.697 277.997 116.06C275.646 125.422 274.409 130.206 274.285 130.412C273.543 132.64 271.955 134.475 269.522 135.918C267.088 137.362 264.304 138.104 261.17 138.146C255.354 138.146 252.447 136.743 252.447 133.939C252.447 132.866 252.818 131.918 253.56 131.093C254.303 130.268 255.251 129.856 256.406 129.856C257.025 129.856 257.602 130.041 258.138 130.412C258.675 130.784 258.963 131.423 259.004 132.33C259.004 132.743 258.963 133.134 258.881 133.506C258.798 133.877 258.654 134.166 258.448 134.372C258.241 134.578 258.077 134.784 257.953 134.99C257.829 135.197 257.685 135.362 257.52 135.485L257.396 135.609H257.458C257.87 135.733 259.108 135.795 261.17 135.795C262.737 135.795 263.974 135.547 264.882 135.052C265.83 134.599 266.717 133.918 267.542 133.011C268.367 132.103 268.944 131.134 269.274 130.103C269.522 129.319 269.852 128.041 270.264 126.267C270.8 124.288 271.068 123.133 271.068 122.803ZM275.584 105.171L275.337 104.491C275.213 104.037 275.11 103.728 275.028 103.563C274.945 103.398 274.821 103.109 274.656 102.697C274.491 102.284 274.285 101.996 274.038 101.831C273.79 101.666 273.522 101.439 273.233 101.15C272.945 100.861 272.574 100.676 272.12 100.593C271.666 100.511 271.213 100.449 270.759 100.408C268.944 100.408 267.191 101.501 265.5 103.687C264.263 105.295 263.232 107.749 262.407 111.049C261.582 114.348 261.17 116.74 261.17 118.225C261.17 121.483 262.448 123.112 265.005 123.112C267.315 123.112 269.583 121.669 271.811 118.782L272.306 118.163L275.584 105.171Z" fill="black"/>
<path d="M287.525 69.4136H120.612V65.7017H287.525V69.4136Z" fill="black"/>
<path d="M300.764 67.5566C300.764 64.7108 300.97 62.0094 301.383 59.4523C301.795 56.8952 302.269 54.6887 302.805 52.8327C303.342 50.9768 304.105 49.162 305.094 47.3886C306.084 45.6151 306.868 44.2334 307.445 43.2436C308.023 42.2538 308.889 41.1814 310.044 40.0266C311.199 38.8718 311.879 38.1707 312.085 37.9232C312.291 37.6757 312.807 37.2427 313.632 36.624H314.436H314.684C315.261 36.624 315.55 36.8096 315.55 37.1808C315.55 37.3045 315.199 37.7376 314.498 38.48C313.797 39.2224 312.951 40.3153 311.962 41.7588C310.972 43.2024 309.961 44.9758 308.93 47.0792C307.899 49.1827 307.033 52.0285 306.332 55.6166C305.631 59.2048 305.28 63.1848 305.28 67.5566C305.28 71.9284 305.631 75.8878 306.332 79.4348C307.033 82.9817 307.878 85.8481 308.868 88.034C309.858 90.2199 310.869 91.9934 311.9 93.3544C312.931 94.7155 313.797 95.8084 314.498 96.6333C315.199 97.4582 315.55 97.8912 315.55 97.9325C315.55 98.3037 315.24 98.4893 314.622 98.4893H314.436H313.632L311.9 97.0045C308.023 93.4988 305.198 89.127 303.424 83.8891C301.651 78.6511 300.764 73.207 300.764 67.5566Z" fill="black"/>
<path d="M324.83 67.5566C324.83 64.7108 325.036 62.0094 325.448 59.4523C325.861 56.8952 326.335 54.6887 326.871 52.8327C327.408 50.9768 328.171 49.162 329.16 47.3886C330.15 45.6151 330.934 44.2334 331.511 43.2436C332.089 42.2538 332.955 41.1814 334.11 40.0266C335.264 38.8718 335.945 38.1707 336.151 37.9232C336.357 37.6757 336.873 37.2427 337.698 36.624H338.502H338.75C339.327 36.624 339.616 36.8096 339.616 37.1808C339.616 37.3045 339.265 37.7376 338.564 38.48C337.863 39.2224 337.017 40.3153 336.027 41.7588C335.038 43.2024 334.027 44.9758 332.996 47.0792C331.965 49.1827 331.099 52.0285 330.398 55.6166C329.697 59.2048 329.346 63.1848 329.346 67.5566C329.346 71.9284 329.697 75.8878 330.398 79.4348C331.099 82.9817 331.944 85.8481 332.934 88.034C333.924 90.2199 334.934 91.9934 335.966 93.3544C336.997 94.7155 337.863 95.8084 338.564 96.6333C339.265 97.4582 339.616 97.8912 339.616 97.9325C339.616 98.3037 339.306 98.4893 338.688 98.4893H338.502H337.698L335.966 97.0045C332.089 93.4988 329.264 89.127 327.49 83.8891C325.717 78.6511 324.83 73.207 324.83 67.5566Z" fill="#6C63FF"/>
<path d="M356.257 47.2653L355.453 47.5747C354.875 47.7809 354.051 47.9871 352.978 48.1933C351.906 48.3995 350.71 48.5439 349.39 48.6264H348.215V45.7806H349.39C351.328 45.6981 353.123 45.3888 354.772 44.8526C356.422 44.3164 357.577 43.8215 358.237 43.3678C358.897 42.9141 359.474 42.4605 359.969 42.0068C360.051 41.8831 360.299 41.8212 360.711 41.8212C361.083 41.8212 361.433 41.9449 361.763 42.1924V60.6901L361.825 79.2497C362.114 79.5384 362.361 79.724 362.567 79.8064C362.774 79.8889 363.268 79.9714 364.052 80.0539C364.836 80.1364 366.114 80.1776 367.888 80.1776H369.496V83.0234H368.816C367.95 82.8997 364.671 82.8378 358.979 82.8378C353.37 82.8378 350.132 82.8997 349.266 83.0234H348.524V80.1776H350.132C351.04 80.1776 351.823 80.1776 352.483 80.1776C353.143 80.1776 353.659 80.157 354.03 80.1158C354.401 80.0745 354.731 80.0127 355.02 79.9302C355.308 79.8477 355.473 79.8064 355.515 79.8064C355.556 79.8064 355.68 79.7033 355.886 79.4971C356.092 79.2909 356.216 79.2084 356.257 79.2497V47.2653Z" fill="#6C63FF"/>
<path d="M402.594 83.0234C401.852 82.8997 399.192 82.8378 394.614 82.8378C389.83 82.8378 387.066 82.8997 386.324 83.0234H385.767V80.1776H387.685C388.51 80.1776 389.067 80.1776 389.355 80.1776C389.644 80.1776 389.995 80.1364 390.407 80.0539C390.819 79.9714 391.108 79.8683 391.273 79.7446C391.438 79.6208 391.582 79.4559 391.706 79.2497C391.747 79.1672 391.768 78.0536 391.768 75.9089V72.8157H375.745V69.9699L385.087 55.679C391.397 46.1105 394.593 41.3056 394.676 41.2644C394.758 41.1819 395.191 41.1407 395.975 41.1407H397.088L397.46 41.5119V69.9699H403.151V72.8157H397.46V75.9708C397.46 77.6618 397.46 78.6516 397.46 78.9403C397.46 79.229 397.583 79.4765 397.831 79.6827C398.161 79.9714 399.336 80.1364 401.357 80.1776H403.151V83.0234H402.594ZM392.139 69.9699V49.3069L378.591 69.908L385.334 69.9699H392.139Z" fill="#6C63FF"/>
<path d="M415.091 73.3104C415.091 74.3002 414.761 75.1251 414.101 75.785C413.441 76.4449 412.637 76.7749 411.688 76.7749H411.255C413.152 80.0331 415.668 81.6622 418.803 81.6622C421.69 81.6622 423.793 80.4249 425.113 77.9503C425.897 76.5893 426.288 73.9497 426.288 70.0315C426.288 65.7835 425.732 62.917 424.618 61.4323C423.546 60.0712 422.35 59.3907 421.03 59.3907H420.659C417.442 59.3907 415.008 60.793 413.358 63.5976C413.194 63.8863 413.049 64.0512 412.925 64.0925C412.802 64.1337 412.492 64.175 411.997 64.2162C411.296 64.2162 410.905 64.0925 410.822 63.845C410.74 63.68 410.698 60.0712 410.698 53.0186V45.038C410.698 42.9758 410.801 41.9447 411.008 41.9447C411.09 41.8622 411.173 41.821 411.255 41.821C411.296 41.821 411.729 41.986 412.554 42.3159C413.379 42.6459 414.513 42.9758 415.957 43.3058C417.4 43.6357 418.947 43.8007 420.597 43.8007C423.525 43.8007 426.33 43.2233 429.01 42.0685C429.34 41.9035 429.608 41.821 429.815 41.821C430.145 41.821 430.31 42.1922 430.31 42.9346V43.7388C426.928 47.7394 422.7 49.7397 417.627 49.7397C416.349 49.7397 415.194 49.616 414.163 49.3686L413.544 49.2448V59.8856C414.328 59.3082 414.946 58.8546 415.4 58.5246C415.854 58.1947 416.596 57.8647 417.627 57.5348C418.658 57.2048 419.71 57.0398 420.782 57.0398C424.123 57.0398 426.948 58.3803 429.258 61.0611C431.567 63.7419 432.722 66.9177 432.722 70.5883C432.722 74.3827 431.403 77.6203 428.763 80.3012C426.123 82.982 422.906 84.343 419.112 84.3843C415.771 84.3843 413.09 83.2707 411.069 81.0436C409.049 78.8164 408.038 76.3006 408.038 73.496C408.038 72.5062 408.265 71.7225 408.719 71.1451C409.172 70.5677 409.647 70.1965 410.142 70.0315C410.636 69.8666 411.111 69.7841 411.564 69.7841C412.595 69.7841 413.441 70.1347 414.101 70.8358C414.761 71.5369 415.091 72.3618 415.091 73.3104Z" fill="#6C63FF"/>
<path d="M450.354 43.6153C450.231 43.6153 450.066 43.6153 449.859 43.6153C448.828 43.6153 448.21 43.5947 448.003 43.5534C447.797 43.5122 447.694 43.2853 447.694 42.8729C447.694 41.7593 447.921 41.0788 448.375 40.8313C448.457 40.7901 450.457 40.7695 454.376 40.7695C457.551 40.7695 459.366 40.7695 459.82 40.7695C460.273 40.7695 460.562 40.8932 460.686 41.1407C469.388 61.5974 473.822 72.0939 473.987 72.6301L477.328 59.4528C479.513 50.7504 480.606 46.1105 480.606 45.5331C480.606 44.4195 479.287 43.7803 476.647 43.6153C475.657 43.6153 475.162 43.3884 475.162 42.9348C475.162 42.8523 475.204 42.6048 475.286 42.1924C475.451 41.5325 475.575 41.1407 475.657 41.0169C475.74 40.8932 475.946 40.8107 476.276 40.7695C476.4 40.7695 477.039 40.7901 478.194 40.8313C479.348 40.8726 481.06 40.9138 483.328 40.9551C485.391 40.9551 486.958 40.9345 488.03 40.8932C489.103 40.852 489.721 40.8313 489.886 40.8313C490.505 40.8313 490.814 41.0376 490.814 41.45C490.814 42.3574 490.649 42.976 490.319 43.306C490.237 43.5122 489.783 43.6153 488.958 43.6153C486.03 43.7803 484.195 44.6051 483.452 46.0899L474.234 82.5904C474.152 82.8791 473.719 83.0234 472.935 83.0234C472.358 83.0234 472.007 82.9822 471.883 82.8997C471.76 82.776 469.099 76.5276 463.903 64.1545L456.046 45.6568L452.025 61.7418C449.344 72.3001 448.003 77.7649 448.003 78.1361C448.21 79.4971 449.694 80.1776 452.458 80.1776H453.076C453.324 80.3839 453.448 80.5488 453.448 80.6726C453.448 80.7963 453.406 81.1881 453.324 81.848C453.159 82.3842 452.953 82.776 452.705 83.0234H451.901C450.622 82.941 448.395 82.8997 445.219 82.8997C444.065 82.8997 443.013 82.8997 442.064 82.8997C441.116 82.8997 440.353 82.8997 439.775 82.8997C439.198 82.8997 438.847 82.9203 438.724 82.9616C438.105 82.9616 437.796 82.776 437.796 82.4048C437.796 82.2398 437.858 81.9099 437.981 81.4149C438.105 80.92 438.208 80.6313 438.291 80.5488C438.373 80.3014 438.847 80.1776 439.713 80.1776C442.518 80.0539 444.333 79.2497 445.158 77.7649C445.323 77.5174 446.787 71.8052 449.55 60.6282L453.757 43.8009C453.674 43.7596 452.54 43.6978 450.354 43.6153Z" fill="#6C63FF"/>
<path d="M494.526 36.6859L494.773 36.624C494.979 36.624 495.186 36.624 495.392 36.624H496.134L497.866 38.1088C501.743 41.6145 504.568 45.9863 506.342 51.2242C508.115 56.4621 509.002 61.9063 509.002 67.5566C509.002 70.3612 508.796 73.0626 508.383 75.661C507.971 78.2593 507.497 80.4659 506.961 82.2806C506.424 84.0953 505.661 85.91 504.672 87.7247C503.682 89.5394 502.898 90.9211 502.321 91.8697C501.743 92.8183 500.898 93.87 499.784 95.0248C498.671 96.1796 498.011 96.8601 497.804 97.0664C497.598 97.2726 497.124 97.6644 496.382 98.2418C496.258 98.3655 496.175 98.448 496.134 98.4893H495.392C495.062 98.4893 494.835 98.4893 494.711 98.4893C494.588 98.4893 494.484 98.4274 494.402 98.3037C494.319 98.1799 494.258 97.9943 494.216 97.7469C494.258 97.7056 494.484 97.4375 494.897 96.9426C501.29 90.3024 504.486 80.5071 504.486 67.5566C504.486 54.6062 501.29 44.8109 494.897 38.1707C494.484 37.6757 494.258 37.4076 494.216 37.3664C494.216 37.0365 494.319 36.8096 494.526 36.6859Z" fill="#6C63FF"/>
<path d="M516.983 73.1856C516.983 68.6901 518.756 64.6482 522.303 61.0601C525.85 57.4719 529.686 55.6778 533.81 55.6778C536.12 55.6778 537.935 56.1727 539.254 57.1626C540.574 58.1524 541.255 59.4516 541.296 61.0601C541.296 62.2561 540.904 63.2666 540.121 64.0915C539.337 64.9163 538.347 65.3494 537.151 65.3906C536.367 65.3906 535.749 65.1844 535.295 64.772C534.841 64.3595 534.615 63.7409 534.615 62.916C534.615 62.0911 534.841 61.39 535.295 60.8126C535.749 60.2352 536.202 59.8021 536.656 59.5134C537.11 59.2247 537.398 59.101 537.522 59.1422H537.584C537.584 59.0598 537.46 58.936 537.213 58.771C536.965 58.6061 536.532 58.4411 535.914 58.2761C535.295 58.1112 534.594 58.0287 533.81 58.0287C532.573 58.0287 531.398 58.3174 530.284 58.8948C529.418 59.266 528.531 59.9052 527.624 60.8126C525.809 62.6273 524.489 65.1844 523.664 68.4839C522.839 71.7834 522.406 74.1755 522.365 75.6603C522.365 77.5575 522.901 78.9804 523.974 79.929C524.881 80.9188 526.077 81.4137 527.562 81.4137H527.809C532.429 81.4137 536.244 79.6609 539.254 76.1552C539.626 75.7427 539.873 75.5365 539.997 75.5365C540.162 75.5365 540.43 75.7221 540.801 76.0933C541.172 76.4645 541.378 76.7532 541.42 76.9594C541.461 77.1656 541.275 77.475 540.863 77.8874C540.45 78.2998 539.852 78.8773 539.069 79.6196C538.285 80.362 537.357 80.9807 536.285 81.4756C535.213 81.9705 533.893 82.4861 532.325 83.0222C530.758 83.5584 529.108 83.7852 527.376 83.7027C524.283 83.7027 521.788 82.7129 519.891 80.7332C517.993 78.7535 517.024 76.2377 516.983 73.1856Z" fill="#6C63FF"/>
<path d="M554.102 83.7031C551.009 83.7031 548.514 82.6927 546.616 80.6717C544.719 78.6508 543.771 76.2174 543.771 73.3716C543.771 70.6908 544.389 68.1543 545.626 65.7622C546.864 63.3701 548.555 61.2873 550.699 59.5138C553.834 56.998 557.03 55.74 560.289 55.74C561.608 55.74 562.433 55.7607 562.763 55.8019C563.299 55.9256 563.835 56.07 564.372 56.235C564.908 56.3999 565.63 56.7299 566.537 57.2248C567.444 57.7197 568.187 58.3384 568.764 59.0808C569.341 59.8231 569.878 60.8336 570.373 62.1122C570.867 63.3907 571.115 64.8342 571.115 66.4427C571.115 70.8558 569.341 74.8358 565.795 78.3827C562.248 81.9297 558.35 83.7031 554.102 83.7031ZM549.153 75.5988C549.153 77.661 549.689 79.1457 550.761 80.0531C551.834 80.9604 553.05 81.4141 554.411 81.4141C556.226 81.4141 557.938 80.7542 559.546 79.4344C561.155 78.1146 562.433 76.3824 563.382 74.2377C563.753 73.3716 564.227 71.8456 564.805 69.6597C565.382 67.4738 565.671 65.5766 565.671 63.9681C565.671 62.1534 565.3 60.7717 564.557 59.8231C563.567 58.5858 562.248 57.9672 560.598 57.9672C558 57.9672 555.71 59.1632 553.731 61.5554C552.205 63.3701 551.071 65.7828 550.328 68.7936C549.586 71.8044 549.194 74.0728 549.153 75.5988Z" fill="#6C63FF"/>
<path d="M579.776 65.1439C579.776 63.8241 580.106 62.4837 580.766 61.1227C581.426 59.7616 582.58 58.5037 584.23 57.3489C585.88 56.1941 587.88 55.6373 590.231 55.6785C592.788 55.6785 594.644 56.2353 595.799 57.3489C596.954 58.4624 597.552 59.6998 597.593 61.0608C597.593 62.3806 597.243 63.3498 596.541 63.9685C595.84 64.5871 595.057 64.9171 594.191 64.9583C593.654 64.9583 593.159 64.7933 592.706 64.4634C592.252 64.1334 592.005 63.5973 591.963 62.8549C591.963 62.195 592.149 61.6176 592.52 61.1227C592.891 60.6277 593.242 60.2565 593.572 60.0091C593.902 59.7616 594.17 59.6379 594.376 59.6379C594.417 59.6379 594.438 59.6173 594.438 59.576C594.438 59.4523 594.294 59.2667 594.005 59.0192C593.716 58.7718 593.201 58.5449 592.458 58.3387C591.716 58.1325 590.912 58.0088 590.046 57.9675C588.066 57.9675 586.622 58.5037 585.715 59.576C584.808 60.6484 584.333 61.7413 584.292 62.8549C584.292 63.886 584.684 64.6077 585.468 65.0202C586.251 65.4326 587.385 65.7832 588.87 66.0719C590.355 66.3606 591.427 66.6699 592.087 66.9999C594.809 68.1959 596.17 70.1756 596.17 72.9389C596.17 74.0937 595.943 75.2486 595.49 76.4034C595.036 77.5582 594.356 78.713 593.448 79.8678C592.541 81.0226 591.242 81.93 589.551 82.5899C587.86 83.2498 585.921 83.6004 583.735 83.6416C580.56 83.6416 578.312 83.0436 576.992 81.8475C575.672 80.6514 574.992 79.2492 574.95 77.6407C574.95 76.0322 575.383 74.8774 576.25 74.1762C577.116 73.4751 578.023 73.1245 578.972 73.1245C579.59 73.1245 580.168 73.3101 580.704 73.6813C581.24 74.0525 581.529 74.6918 581.57 75.5991C581.57 76.6715 581.199 77.5788 580.456 78.3212C579.714 79.0636 579.075 79.4348 578.539 79.4348C578.456 79.476 578.394 79.4966 578.353 79.4966C578.312 79.4966 578.291 79.5379 578.291 79.6204C578.332 79.7441 578.497 79.9091 578.786 80.1153C579.075 80.3215 579.714 80.5896 580.704 80.9195C581.694 81.2495 582.828 81.3938 584.106 81.3526C585.591 81.3526 586.87 81.1257 587.942 80.6721C589.014 80.2184 589.798 79.641 590.293 78.9398C590.788 78.2387 591.139 77.5994 591.345 77.022C591.551 76.4446 591.654 75.9291 591.654 75.4754C591.654 74.3206 591.221 73.4545 590.355 72.877C589.489 72.2996 588.499 71.9491 587.385 71.8253C586.272 71.7016 585.055 71.3923 583.735 70.8974C582.416 70.4024 581.446 69.6807 580.828 68.7321C580.126 67.701 579.776 66.5049 579.776 65.1439Z" fill="#6C63FF"/>
<path d="M606.502 67.5566C606.502 64.7108 606.708 62.0094 607.12 59.4523C607.533 56.8952 608.007 54.6887 608.543 52.8327C609.079 50.9768 609.842 49.162 610.832 47.3886C611.822 45.6151 612.606 44.2334 613.183 43.2436C613.761 42.2538 614.627 41.1814 615.781 40.0266C616.936 38.8718 617.617 38.1707 617.823 37.9232C618.029 37.6757 618.545 37.2427 619.37 36.624H620.174H620.421C620.999 36.624 621.288 36.8096 621.288 37.1808C621.288 37.3045 620.937 37.7376 620.236 38.48C619.535 39.2224 618.689 40.3153 617.699 41.7588C616.709 43.2024 615.699 44.9758 614.668 47.0792C613.637 49.1827 612.771 52.0285 612.07 55.6166C611.368 59.2048 611.018 63.1848 611.018 67.5566C611.018 71.9284 611.368 75.8878 612.07 79.4348C612.771 82.9817 613.616 85.8481 614.606 88.034C615.596 90.2199 616.606 91.9934 617.637 93.3544C618.669 94.7155 619.535 95.8084 620.236 96.6333C620.937 97.4582 621.288 97.8912 621.288 97.9325C621.288 98.3037 620.978 98.4893 620.36 98.4893H620.174H619.37L617.637 97.0045C613.761 93.4988 610.935 89.127 609.162 83.8891C607.388 78.6511 606.502 73.207 606.502 67.5566Z" fill="#6C63FF"/>
<path d="M632.609 54.3796C631.496 54.3796 630.63 54.0291 630.011 53.3279C629.392 52.6268 629.062 51.7194 629.021 50.6059C629.021 48.3375 630.011 46.3165 631.991 44.5431C633.97 42.7696 636.363 41.8829 639.167 41.8829C640.611 41.8829 641.518 41.9035 641.889 41.9447C644.941 42.4396 647.271 43.5326 648.88 45.2236C650.488 46.9146 651.313 48.7499 651.355 50.7296C651.355 52.8742 650.653 54.957 649.251 56.978C647.849 58.9989 645.91 60.4631 643.436 61.3704L643.25 61.4941C643.25 61.5354 643.436 61.5972 643.807 61.6797C644.178 61.7622 644.776 61.9478 645.601 62.2365C646.426 62.5252 647.21 62.9583 647.952 63.5357C651.334 65.7216 653.025 68.6086 653.025 72.1968C653.025 75.4551 651.746 78.3009 649.189 80.7342C646.632 83.1676 643.395 84.3843 639.476 84.3843C636.177 84.3843 633.331 83.4975 630.939 81.7241C628.547 79.9506 627.351 77.7028 627.351 74.9808C627.351 73.8259 627.722 72.898 628.464 72.1968C629.207 71.4957 630.135 71.1245 631.248 71.0833C632.403 71.0833 633.352 71.4544 634.094 72.1968C634.837 72.9392 635.208 73.8672 635.208 74.9808C635.208 75.4344 635.146 75.8469 635.022 76.2181C634.898 76.5893 634.754 76.9192 634.589 77.2079C634.424 77.4966 634.197 77.7441 633.909 77.9503C633.62 78.1565 633.372 78.3215 633.166 78.4452C632.96 78.5689 632.754 78.6514 632.548 78.6927C632.341 78.7339 632.176 78.7958 632.053 78.8783L631.805 78.9401C633.909 80.7961 636.466 81.7241 639.476 81.7241C641.745 81.7241 643.456 80.6311 644.611 78.4452C645.312 77.0842 645.663 75.0014 645.663 72.1968V70.9595C645.663 67.0414 644.343 64.4224 641.704 63.1026C641.085 62.8552 639.827 62.7108 637.93 62.6696L635.331 62.6077L635.146 62.484C635.063 62.3603 635.022 62.0303 635.022 61.4941C635.022 60.7518 635.187 60.3806 635.517 60.3806C636.672 60.3806 637.868 60.2775 639.105 60.0712C640.508 59.865 641.786 58.9989 642.941 57.4729C644.096 55.9469 644.673 53.6373 644.673 50.544V50.0491C644.673 47.6982 643.951 46.0691 642.508 45.1617C641.6 44.5843 640.631 44.2956 639.6 44.2956C638.28 44.2956 637.064 44.5224 635.95 44.9761C634.837 45.4298 634.053 45.9041 633.599 46.399C633.146 46.8939 632.919 47.1414 632.919 47.1414H633.104C633.228 47.1826 633.393 47.2239 633.599 47.2651C633.805 47.3064 634.012 47.4095 634.218 47.5745C634.424 47.7394 634.672 47.8838 634.96 48.0075C635.249 48.1312 635.455 48.3581 635.579 48.688C635.703 49.018 635.868 49.3273 636.074 49.616C636.28 49.9047 636.342 50.3172 636.259 50.8533C636.259 51.7607 635.971 52.5649 635.393 53.2661C634.816 53.9672 633.888 54.3384 632.609 54.3796Z" fill="#6C63FF"/>
<path d="M661.624 46.8321C663.934 43.4914 667.089 41.821 671.09 41.821C673.069 41.821 675.049 42.3572 677.029 43.4295C679.008 44.5018 680.617 46.399 681.854 49.1211C683.38 52.5443 684.143 57.2461 684.143 63.2264C684.143 69.6191 683.256 74.5065 681.483 77.8884C680.658 79.6207 679.524 81.0023 678.08 82.0334C676.637 83.0645 675.379 83.7038 674.307 83.9512C673.234 84.1987 672.183 84.343 671.151 84.3843C670.079 84.3843 669.007 84.2605 667.934 84.0131C666.862 83.7656 665.604 83.1057 664.161 82.0334C662.717 80.9611 661.583 79.5794 660.758 77.8884C658.985 74.5065 658.098 69.6191 658.098 63.2264C658.098 56.05 659.273 50.5852 661.624 46.8321ZM675.544 46.0897C674.307 44.7699 672.842 44.11 671.151 44.11C669.419 44.11 667.934 44.7699 666.697 46.0897C665.666 47.162 664.986 48.6468 664.656 50.544C664.326 52.4412 664.161 56.4006 664.161 62.4221C664.161 68.9386 664.326 73.2279 664.656 75.2901C664.986 77.3523 665.728 78.9814 666.883 80.1774C668.038 81.4147 669.46 82.0334 671.151 82.0334C672.801 82.0334 674.203 81.4147 675.358 80.1774C676.554 78.9401 677.297 77.2079 677.585 74.9808C677.874 72.7536 678.039 68.5674 678.08 62.4221C678.08 56.4418 677.915 52.5031 677.585 50.6059C677.256 48.7087 676.575 47.2033 675.544 46.0897Z" fill="#6C63FF"/>
<path d="M695.409 57.9541C693.222 57.9541 691.458 57.2397 690.116 55.8109C688.775 54.3821 688.104 52.6617 688.104 50.6497C688.104 48.7544 688.542 46.9611 689.417 45.2699C690.291 43.5786 691.487 42.1061 693.003 40.8523C695.219 39.0736 697.479 38.1842 699.783 38.1842C700.716 38.1842 701.299 38.1988 701.532 38.2279C701.911 38.3154 702.29 38.4175 702.669 38.5341C703.049 38.6507 703.559 38.884 704.2 39.2339C704.842 39.5838 705.367 40.0212 705.775 40.5461C706.183 41.071 706.562 41.7854 706.912 42.6893C707.262 43.5932 707.437 44.6138 707.437 45.751C707.437 48.871 706.183 51.6849 703.675 54.1926C701.168 56.7003 698.412 57.9541 695.409 57.9541ZM691.91 52.2243C691.91 53.6823 692.289 54.732 693.047 55.3735C693.805 56.015 694.665 56.3358 695.628 56.3358C696.911 56.3358 698.121 55.8692 699.258 54.9361C700.395 54.003 701.299 52.7784 701.97 51.2621C702.232 50.6497 702.567 49.5708 702.976 48.0254C703.384 46.48 703.588 45.1387 703.588 44.0015C703.588 42.7184 703.326 41.7416 702.801 41.071C702.101 40.1962 701.168 39.7588 700.001 39.7588C698.164 39.7588 696.546 40.6044 695.146 42.2956C694.068 43.5786 693.266 45.2845 692.741 47.4131C692.216 49.5417 691.939 51.1454 691.91 52.2243Z" fill="#6C63FF"/>
<path d="M714.636 36.6859L714.883 36.624C715.09 36.624 715.296 36.624 715.502 36.624H716.244L717.977 38.1088C721.854 41.6145 724.679 45.9863 726.452 51.2242C728.226 56.4621 729.112 61.9063 729.112 67.5566C729.112 70.3612 728.906 73.0626 728.494 75.661C728.081 78.2593 727.607 80.4659 727.071 82.2806C726.535 84.0953 725.772 85.91 724.782 87.7247C723.792 89.5394 723.008 90.9211 722.431 91.8697C721.854 92.8183 721.008 93.87 719.895 95.0248C718.781 96.1796 718.121 96.8601 717.915 97.0664C717.709 97.2726 717.234 97.6644 716.492 98.2418C716.368 98.3655 716.286 98.448 716.244 98.4893H715.502C715.172 98.4893 714.945 98.4893 714.822 98.4893C714.698 98.4893 714.595 98.4274 714.512 98.3037C714.43 98.1799 714.368 97.9943 714.327 97.7469C714.368 97.7056 714.595 97.4375 715.007 96.9426C721.4 90.3024 724.596 80.5071 724.596 67.5566C724.596 54.6062 721.4 44.8109 715.007 38.1707C714.595 37.6757 714.368 37.4076 714.327 37.3664C714.327 37.0365 714.43 36.8096 714.636 36.6859Z" fill="#6C63FF"/>
<path d="M753.939 68.3609C753.939 68.3609 753.939 68.0928 753.939 67.5566C753.939 67.0205 754.228 66.608 754.805 66.3193H790.749C791.367 66.6493 791.677 67.0617 791.677 67.5566C791.677 68.0516 791.367 68.464 790.749 68.7939H754.805C754.228 68.5052 753.939 68.0928 753.939 67.5566V68.3609Z" fill="black"/>
<path d="M816.435 67.5566C816.435 64.7108 816.641 62.0094 817.054 59.4523C817.466 56.8952 817.94 54.6887 818.477 52.8327C819.013 50.9768 819.776 49.162 820.766 47.3886C821.755 45.6151 822.539 44.2334 823.117 43.2436C823.694 42.2538 824.56 41.1814 825.715 40.0266C826.87 38.8718 827.55 38.1707 827.756 37.9232C827.963 37.6757 828.478 37.2427 829.303 36.624H830.107H830.355C830.932 36.624 831.221 36.8096 831.221 37.1808C831.221 37.3045 830.87 37.7376 830.169 38.48C829.468 39.2224 828.623 40.3153 827.633 41.7588C826.643 43.2024 825.632 44.9758 824.601 47.0792C823.57 49.1827 822.704 52.0285 822.003 55.6166C821.302 59.2048 820.951 63.1848 820.951 67.5566C820.951 71.9284 821.302 75.8878 822.003 79.4348C822.704 82.9817 823.55 85.8481 824.539 88.034C825.529 90.2199 826.54 91.9934 827.571 93.3544C828.602 94.7155 829.468 95.8084 830.169 96.6333C830.87 97.4582 831.221 97.8912 831.221 97.9325C831.221 98.3037 830.912 98.4893 830.293 98.4893H830.107H829.303L827.571 97.0045C823.694 93.4988 820.869 89.127 819.095 83.8891C817.322 78.6511 816.435 73.207 816.435 67.5566Z" fill="#2CAC0B"/>
<path d="M840.624 46.8321C842.934 43.4914 846.089 41.821 850.09 41.821C852.07 41.821 854.049 42.3572 856.029 43.4295C858.009 44.5018 859.617 46.399 860.854 49.1211C862.38 52.5443 863.143 57.2461 863.143 63.2264C863.143 69.6191 862.257 74.5065 860.483 77.8884C859.658 79.6207 858.524 81.0023 857.081 82.0334C855.637 83.0645 854.379 83.7038 853.307 83.9512C852.235 84.1987 851.183 84.343 850.152 84.3843C849.079 84.3843 848.007 84.2605 846.935 84.0131C845.862 83.7656 844.604 83.1057 843.161 82.0334C841.717 80.9611 840.583 79.5794 839.758 77.8884C837.985 74.5065 837.098 69.6191 837.098 63.2264C837.098 56.05 838.274 50.5852 840.624 46.8321ZM854.544 46.0897C853.307 44.7699 851.843 44.11 850.152 44.11C848.419 44.11 846.935 44.7699 845.697 46.0897C844.666 47.162 843.986 48.6468 843.656 50.544C843.326 52.4412 843.161 56.4006 843.161 62.4221C843.161 68.9386 843.326 73.2279 843.656 75.2901C843.986 77.3523 844.728 78.9814 845.883 80.1774C847.038 81.4147 848.461 82.0334 850.152 82.0334C851.801 82.0334 853.204 81.4147 854.359 80.1774C855.555 78.9401 856.297 77.2079 856.586 74.9808C856.874 72.7536 857.039 68.5674 857.081 62.4221C857.081 56.4418 856.916 52.5031 856.586 50.6059C856.256 48.7087 855.575 47.2033 854.544 46.0897Z" fill="#2CAC0B"/>
<path d="M870.444 79.3115C870.444 78.3217 870.794 77.4556 871.496 76.7132C872.197 75.9708 873.083 75.5996 874.156 75.5996C875.146 75.5996 876.012 75.9296 876.754 76.5895C877.496 77.2493 877.888 78.1361 877.93 79.2497C877.93 80.2807 877.579 81.1675 876.878 81.9099C876.177 82.6522 875.29 83.0234 874.218 83.0234C873.145 83.0234 872.259 82.6729 871.557 81.9717C870.856 81.2706 870.485 80.3839 870.444 79.3115Z" fill="#2CAC0B"/>
<path d="M895.994 47.2653L895.19 47.5747C894.612 47.7809 893.788 47.9871 892.715 48.1933C891.643 48.3995 890.447 48.5439 889.127 48.6264H887.952V45.7806H889.127C891.066 45.6981 892.86 45.3888 894.509 44.8526C896.159 44.3164 897.314 43.8215 897.974 43.3678C898.634 42.9141 899.211 42.4605 899.706 42.0068C899.789 41.8831 900.036 41.8212 900.448 41.8212C900.82 41.8212 901.17 41.9449 901.5 42.1924V60.6901L901.562 79.2497C901.851 79.5384 902.098 79.724 902.304 79.8064C902.511 79.8889 903.006 79.9714 903.789 80.0539C904.573 80.1364 905.851 80.1776 907.625 80.1776H909.233V83.0234H908.553C907.687 82.8997 904.408 82.8378 898.716 82.8378C893.107 82.8378 889.869 82.8997 889.003 83.0234H888.261V80.1776H889.869C890.777 80.1776 891.56 80.1776 892.22 80.1776C892.88 80.1776 893.396 80.157 893.767 80.1158C894.138 80.0745 894.468 80.0127 894.757 79.9302C895.046 79.8477 895.211 79.8064 895.252 79.8064C895.293 79.8064 895.417 79.7033 895.623 79.4971C895.829 79.2909 895.953 79.2084 895.994 79.2497V47.2653Z" fill="#2CAC0B"/>
<path d="M917.461 36.6859L917.709 36.624C917.915 36.624 918.121 36.624 918.327 36.624H919.07L920.802 38.1088C924.679 41.6145 927.504 45.9863 929.277 51.2242C931.051 56.4621 931.938 61.9063 931.938 67.5566C931.938 70.3612 931.731 73.0626 931.319 75.661C930.907 78.2593 930.432 80.4659 929.896 82.2806C929.36 84.0953 928.597 85.91 927.607 87.7247C926.617 89.5394 925.834 90.9211 925.256 91.8697C924.679 92.8183 923.833 93.87 922.72 95.0248C921.606 96.1796 920.946 96.8601 920.74 97.0664C920.534 97.2726 920.06 97.6644 919.317 98.2418C919.193 98.3655 919.111 98.448 919.07 98.4893H918.327C917.997 98.4893 917.771 98.4893 917.647 98.4893C917.523 98.4893 917.42 98.4274 917.337 98.3037C917.255 98.1799 917.193 97.9943 917.152 97.7469C917.193 97.7056 917.42 97.4375 917.832 96.9426C924.225 90.3024 927.421 80.5071 927.421 67.5566C927.421 54.6062 924.225 44.8109 917.832 38.1707C917.42 37.6757 917.193 37.4076 917.152 37.3664C917.152 37.0365 917.255 36.8096 917.461 36.6859Z" fill="#2CAC0B"/>
<path d="M943.63 67.5566C943.63 64.7108 943.837 62.0094 944.249 59.4523C944.661 56.8952 945.136 54.6887 945.672 52.8327C946.208 50.9768 946.971 49.162 947.961 47.3886C948.951 45.6151 949.734 44.2334 950.312 43.2436C950.889 42.2538 951.755 41.1814 952.91 40.0266C954.065 38.8718 954.745 38.1707 954.952 37.9232C955.158 37.6757 955.673 37.2427 956.498 36.624H957.303H957.55C958.127 36.624 958.416 36.8096 958.416 37.1808C958.416 37.3045 958.066 37.7376 957.364 38.48C956.663 39.2224 955.818 40.3153 954.828 41.7588C953.838 43.2024 952.828 44.9758 951.797 47.0792C950.765 49.1827 949.899 52.0285 949.198 55.6166C948.497 59.2048 948.147 63.1848 948.147 67.5566C948.147 71.9284 948.497 75.8878 949.198 79.4348C949.899 82.9817 950.745 85.8481 951.735 88.034C952.725 90.2199 953.735 91.9934 954.766 93.3544C955.797 94.7155 956.663 95.8084 957.364 96.6333C958.066 97.4582 958.416 97.8912 958.416 97.9325C958.416 98.3037 958.107 98.4893 957.488 98.4893H957.303H956.498L954.766 97.0045C950.889 93.4988 948.064 89.127 946.291 83.8891C944.517 78.6511 943.63 73.207 943.63 67.5566Z" fill="#2CAC0B"/>
<path d="M983.657 65.2679C981.677 68.4024 979.203 69.9697 976.233 69.9697C973.016 69.9697 970.377 68.753 968.314 66.3196C966.252 63.8863 965.015 61.2879 964.602 58.5246C964.52 57.8647 964.479 57.0398 964.479 56.05V55.5551C964.479 51.7194 965.902 48.3787 968.747 45.5329C971.222 43.0583 973.944 41.821 976.914 41.821C976.996 41.821 977.12 41.821 977.285 41.821C977.45 41.821 977.615 41.8416 977.78 41.8829H978.027C978.522 41.8829 979.038 41.9241 979.574 42.0066C980.11 42.0891 980.873 42.3365 981.863 42.749C982.853 43.1614 983.822 43.8213 984.771 44.7287C985.719 45.636 986.606 46.8527 987.431 48.3787C989.204 52.0081 990.091 56.6686 990.091 62.3603C990.091 68.1343 988.854 73.0217 986.379 77.0223C984.936 79.3319 983.203 81.126 981.182 82.4046C979.161 83.6831 977.017 84.343 974.748 84.3843C972.233 84.3843 970.17 83.7862 968.562 82.5902C966.953 81.3941 966.128 79.6207 966.087 77.2698C966.046 74.9189 967.139 73.7641 969.366 73.8053C970.273 73.8053 971.036 74.094 971.655 74.6714C972.274 75.2488 972.583 76.0531 972.583 77.0842C972.583 77.8266 972.398 78.4658 972.026 79.002C971.655 79.5382 971.325 79.8681 971.036 79.9918C970.748 80.1156 970.48 80.2187 970.232 80.3012L969.985 80.363C969.985 80.4455 970.129 80.5693 970.418 80.7342C970.707 80.8992 971.243 81.1054 972.026 81.3529C972.81 81.6003 973.676 81.7035 974.625 81.6622H974.996C977.47 81.6622 979.553 80.3424 981.244 77.7028C982.853 75.3932 983.657 71.3926 983.657 65.701V65.2679ZM976.976 67.6807C978.955 67.6807 980.543 66.6702 981.739 64.6493C982.935 62.6283 983.554 59.8856 983.595 56.4212C983.595 53.2042 983.43 50.8946 983.1 49.4923C983.018 49.0798 982.894 48.6674 982.729 48.255C982.564 47.8425 982.275 47.3064 981.863 46.6465C981.45 45.9866 980.832 45.4298 980.007 44.9761C979.182 44.5224 978.213 44.3162 977.099 44.3575C975.532 44.3575 974.192 44.9143 973.078 46.0278C972.212 46.9352 971.655 48.0075 971.408 49.2448C971.16 50.4821 971.016 52.6474 970.975 55.7407C970.975 59.1639 971.078 61.4735 971.284 62.6696C971.49 63.8656 971.903 64.8349 972.521 65.5772C973.552 66.9795 975.037 67.6807 976.976 67.6807Z" fill="#2CAC0B"/>
<path d="M998.752 46.8321C1001.06 43.4914 1004.22 41.821 1008.22 41.821C1010.2 41.821 1012.18 42.3572 1014.16 43.4295C1016.14 44.5018 1017.74 46.399 1018.98 49.1211C1020.51 52.5443 1021.27 57.2461 1021.27 63.2264C1021.27 69.6191 1020.38 74.5065 1018.61 77.8884C1017.79 79.6207 1016.65 81.0023 1015.21 82.0334C1013.76 83.0645 1012.51 83.7038 1011.43 83.9512C1010.36 84.1987 1009.31 84.343 1008.28 84.3843C1007.21 84.3843 1006.13 84.2605 1005.06 84.0131C1003.99 83.7656 1002.73 83.1057 1001.29 82.0334C999.845 80.9611 998.711 79.5794 997.886 77.8884C996.113 74.5065 995.226 69.6191 995.226 63.2264C995.226 56.05 996.401 50.5852 998.752 46.8321ZM1012.67 46.0897C1011.43 44.7699 1009.97 44.11 1008.28 44.11C1006.55 44.11 1005.06 44.7699 1003.83 46.0897C1002.79 47.162 1002.11 48.6468 1001.78 50.544C1001.45 52.4412 1001.29 56.4006 1001.29 62.4221C1001.29 68.9386 1001.45 73.2279 1001.78 75.2901C1002.11 77.3523 1002.86 78.9814 1004.01 80.1774C1005.17 81.4147 1006.59 82.0334 1008.28 82.0334C1009.93 82.0334 1011.33 81.4147 1012.49 80.1774C1013.68 78.9401 1014.42 77.2079 1014.71 74.9808C1015 72.7536 1015.17 68.5674 1015.21 62.4221C1015.21 56.4418 1015.04 52.5031 1014.71 50.6059C1014.38 48.7087 1013.7 47.2033 1012.67 46.0897Z" fill="#2CAC0B"/>
<path d="M1027.15 54.689C1027.19 54.6065 1027.54 52.3587 1028.2 47.9457L1029.19 41.3261C1029.19 41.2436 1029.6 41.2023 1030.43 41.2023H1031.66V41.4498C1031.66 41.8622 1031.97 42.2128 1032.59 42.5015C1033.21 42.7902 1034.28 42.9758 1035.81 43.0583C1037.34 43.1408 1040.82 43.182 1046.26 43.182H1053.75V45.5948L1049.54 51.3482C1049.17 51.8432 1048.55 52.668 1047.69 53.8229C1046.82 54.9777 1046.26 55.7407 1046.02 56.1119C1045.77 56.4831 1045.34 57.143 1044.72 58.0916C1044.1 59.0402 1043.69 59.7825 1043.48 60.3187C1043.27 60.8549 1042.99 61.6179 1042.61 62.6077C1042.24 63.5976 1041.98 64.5462 1041.81 65.4535C1041.65 66.3609 1041.48 67.4744 1041.32 68.7942C1041.15 70.114 1041.03 71.5163 1040.94 73.0011C1040.86 74.4858 1040.8 76.1768 1040.76 78.074C1040.76 78.6514 1040.76 79.2288 1040.76 79.8062C1040.76 80.3837 1040.74 80.8786 1040.7 81.291V81.8478C1040.53 82.5489 1040.14 83.147 1039.52 83.6419C1038.9 84.1368 1038.2 84.3843 1037.42 84.3843C1036.96 84.3843 1036.53 84.3224 1036.12 84.1987C1035.71 84.075 1035.27 83.6831 1034.82 83.0232C1034.37 82.3633 1034.14 81.5385 1034.14 80.5486C1034.14 74.0322 1036.14 67.2682 1040.14 60.2568C1040.97 58.937 1042.7 56.4418 1045.34 52.7711L1048.18 48.8736H1042.43C1035.25 48.8736 1031.48 48.9974 1031.11 49.2448C1030.86 49.3686 1030.63 49.8635 1030.43 50.7296C1030.22 51.5957 1030.01 52.4824 1029.81 53.3898L1029.62 54.689V54.8746H1027.15V54.689Z" fill="#2CAC0B"/>
<path d="M1059.5 79.3115C1059.5 78.3217 1059.85 77.4556 1060.56 76.7132C1061.26 75.9708 1062.14 75.5996 1063.22 75.5996C1064.21 75.5996 1065.07 75.9296 1065.81 76.5895C1066.56 77.2493 1066.95 78.1361 1066.99 79.2497C1066.99 80.2807 1066.64 81.1675 1065.94 81.9099C1065.24 82.6522 1064.35 83.0234 1063.28 83.0234C1062.21 83.0234 1061.32 82.6729 1060.62 81.9717C1059.92 81.2706 1059.55 80.3839 1059.5 79.3115Z" fill="#2CAC0B"/>
<path d="M1082.02 73.3104C1082.02 74.3002 1081.69 75.1251 1081.03 75.785C1080.37 76.4449 1079.57 76.7749 1078.62 76.7749H1078.19C1080.08 80.0331 1082.6 81.6622 1085.73 81.6622C1088.62 81.6622 1090.72 80.4249 1092.04 77.9503C1092.83 76.5893 1093.22 73.9497 1093.22 70.0315C1093.22 65.7835 1092.66 62.917 1091.55 61.4323C1090.48 60.0712 1089.28 59.3907 1087.96 59.3907H1087.59C1084.37 59.3907 1081.94 60.793 1080.29 63.5976C1080.13 63.8863 1079.98 64.0512 1079.86 64.0925C1079.73 64.1337 1079.42 64.175 1078.93 64.2162C1078.23 64.2162 1077.84 64.0925 1077.75 63.845C1077.67 63.68 1077.63 60.0712 1077.63 53.0186V45.038C1077.63 42.9758 1077.73 41.9447 1077.94 41.9447C1078.02 41.8622 1078.1 41.821 1078.19 41.821C1078.23 41.821 1078.66 41.986 1079.49 42.3159C1080.31 42.6459 1081.44 42.9758 1082.89 43.3058C1084.33 43.6357 1085.88 43.8007 1087.53 43.8007C1090.46 43.8007 1093.26 43.2233 1095.94 42.0685C1096.27 41.9035 1096.54 41.821 1096.75 41.821C1097.08 41.821 1097.24 42.1922 1097.24 42.9346V43.7388C1093.86 47.7394 1089.63 49.7397 1084.56 49.7397C1083.28 49.7397 1082.13 49.616 1081.09 49.3686L1080.48 49.2448V59.8856C1081.26 59.3082 1081.88 58.8546 1082.33 58.5246C1082.79 58.1947 1083.53 57.8647 1084.56 57.5348C1085.59 57.2048 1086.64 57.0398 1087.71 57.0398C1091.05 57.0398 1093.88 58.3803 1096.19 61.0611C1098.5 63.7419 1099.65 66.9177 1099.65 70.5883C1099.65 74.3827 1098.33 77.6203 1095.69 80.3012C1093.05 82.982 1089.84 84.343 1086.04 84.3843C1082.7 84.3843 1080.02 83.2707 1078 81.0436C1075.98 78.8164 1074.97 76.3006 1074.97 73.496C1074.97 72.5062 1075.2 71.7225 1075.65 71.1451C1076.1 70.5677 1076.58 70.1965 1077.07 70.0315C1077.57 69.8666 1078.04 69.7841 1078.5 69.7841C1079.53 69.7841 1080.37 70.1347 1081.03 70.8358C1081.69 71.5369 1082.02 72.3618 1082.02 73.3104Z" fill="#2CAC0B"/>
<path d="M1117.29 43.6153C1117.16 43.6153 1117 43.6153 1116.79 43.6153C1115.76 43.6153 1115.14 43.5947 1114.94 43.5534C1114.73 43.5122 1114.63 43.2853 1114.63 42.8729C1114.63 41.7593 1114.85 41.0788 1115.31 40.8313C1115.39 40.7901 1117.39 40.7695 1121.31 40.7695C1124.48 40.7695 1126.3 40.7695 1126.75 40.7695C1127.2 40.7695 1127.49 40.8932 1127.62 41.1407C1136.32 61.5974 1140.75 72.0939 1140.92 72.6301L1144.26 59.4528C1146.45 50.7504 1147.54 46.1105 1147.54 45.5331C1147.54 44.4195 1146.22 43.7803 1143.58 43.6153C1142.59 43.6153 1142.09 43.3884 1142.09 42.9348C1142.09 42.8523 1142.14 42.6048 1142.22 42.1924C1142.38 41.5325 1142.51 41.1407 1142.59 41.0169C1142.67 40.8932 1142.88 40.8107 1143.21 40.7695C1143.33 40.7695 1143.97 40.7901 1145.13 40.8313C1146.28 40.8726 1147.99 40.9138 1150.26 40.9551C1152.32 40.9551 1153.89 40.9345 1154.96 40.8932C1156.03 40.852 1156.65 40.8313 1156.82 40.8313C1157.44 40.8313 1157.75 41.0376 1157.75 41.45C1157.75 42.3574 1157.58 42.976 1157.25 43.306C1157.17 43.5122 1156.71 43.6153 1155.89 43.6153C1152.96 43.7803 1151.13 44.6051 1150.38 46.0899L1141.17 82.5904C1141.08 82.8791 1140.65 83.0234 1139.87 83.0234C1139.29 83.0234 1138.94 82.9822 1138.82 82.8997C1138.69 82.776 1136.03 76.5276 1130.83 64.1545L1122.98 45.6568L1118.96 61.7418C1116.28 72.3001 1114.94 77.7649 1114.94 78.1361C1115.14 79.4971 1116.63 80.1776 1119.39 80.1776H1120.01C1120.26 80.3839 1120.38 80.5488 1120.38 80.6726C1120.38 80.7963 1120.34 81.1881 1120.26 81.848C1120.09 82.3842 1119.88 82.776 1119.64 83.0234H1118.83C1117.55 82.941 1115.33 82.8997 1112.15 82.8997C1111 82.8997 1109.94 82.8997 1109 82.8997C1108.05 82.8997 1107.28 82.8997 1106.71 82.8997C1106.13 82.8997 1105.78 82.9203 1105.66 82.9616C1105.04 82.9616 1104.73 82.776 1104.73 82.4048C1104.73 82.2398 1104.79 81.9099 1104.91 81.4149C1105.04 80.92 1105.14 80.6313 1105.22 80.5488C1105.3 80.3014 1105.78 80.1776 1106.65 80.1776C1109.45 80.0539 1111.26 79.2497 1112.09 77.7649C1112.25 77.5174 1113.72 71.8052 1116.48 60.6282L1120.69 43.8009C1120.61 43.7596 1119.47 43.6978 1117.29 43.6153Z" fill="#2CAC0B"/>
<path d="M1161.46 36.6859L1161.71 36.624C1161.91 36.624 1162.12 36.624 1162.32 36.624H1163.07L1164.8 38.1088C1168.68 41.6145 1171.5 45.9863 1173.27 51.2242C1175.05 56.4621 1175.93 61.9063 1175.93 67.5566C1175.93 70.3612 1175.73 73.0626 1175.32 75.661C1174.9 78.2593 1174.43 80.4659 1173.89 82.2806C1173.36 84.0953 1172.59 85.91 1171.6 87.7247C1170.61 89.5394 1169.83 90.9211 1169.25 91.8697C1168.68 92.8183 1167.83 93.87 1166.72 95.0248C1165.6 96.1796 1164.94 96.8601 1164.74 97.0664C1164.53 97.2726 1164.06 97.6644 1163.31 98.2418C1163.19 98.3655 1163.11 98.448 1163.07 98.4893H1162.32C1161.99 98.4893 1161.77 98.4893 1161.64 98.4893C1161.52 98.4893 1161.42 98.4274 1161.33 98.3037C1161.25 98.1799 1161.19 97.9943 1161.15 97.7469C1161.19 97.7056 1161.42 97.4375 1161.83 96.9426C1168.22 90.3024 1171.42 80.5071 1171.42 67.5566C1171.42 54.6062 1168.22 44.8109 1161.83 38.1707C1161.42 37.6757 1161.19 37.4076 1161.15 37.3664C1161.15 37.0365 1161.25 36.8096 1161.46 36.6859Z" fill="#2CAC0B"/>
<path d="M1185.52 36.6859L1185.77 36.624C1185.98 36.624 1186.18 36.624 1186.39 36.624H1187.13L1188.86 38.1088C1192.74 41.6145 1195.57 45.9863 1197.34 51.2242C1199.11 56.4621 1200 61.9063 1200 67.5566C1200 70.3612 1199.79 73.0626 1199.38 75.661C1198.97 78.2593 1198.49 80.4659 1197.96 82.2806C1197.42 84.0953 1196.66 85.91 1195.67 87.7247C1194.68 89.5394 1193.9 90.9211 1193.32 91.8697C1192.74 92.8183 1191.9 93.87 1190.78 95.0248C1189.67 96.1796 1189.01 96.8601 1188.8 97.0664C1188.6 97.2726 1188.12 97.6644 1187.38 98.2418C1187.26 98.3655 1187.17 98.448 1187.13 98.4893H1186.39C1186.06 98.4893 1185.83 98.4893 1185.71 98.4893C1185.59 98.4893 1185.48 98.4274 1185.4 98.3037C1185.32 98.1799 1185.26 97.9943 1185.21 97.7469C1185.26 97.7056 1185.48 97.4375 1185.89 96.9426C1192.29 90.3024 1195.48 80.5071 1195.48 67.5566C1195.48 54.6062 1192.29 44.8109 1185.89 38.1707C1185.48 37.6757 1185.26 37.4076 1185.21 37.3664C1185.21 37.0365 1185.32 36.8096 1185.52 36.6859Z" fill="black"/>
</svg>
