<svg width="750" height="140" viewBox="0 0 750 140" fill="none" xmlns="http://www.w3.org/2000/svg">
<path d="M2.34309 139.333H2.10878C1.17155 139.333 0.468618 138.786 0 137.693V80.7555L0.117155 23.8184C0.898185 22.803 1.64016 22.2953 2.34309 22.2953C3.35843 22.2953 4.13946 22.8811 4.68618 24.0527V137.693C4.06136 138.786 3.35843 139.333 2.5774 139.333H2.34309Z" fill="#EF224B"/>
<path d="M24.2509 110.044C22.9232 110.044 22.2593 109.654 22.2593 108.873C22.2593 108.717 22.3764 108.17 22.6107 107.233C22.9232 105.983 23.2356 105.28 23.548 105.124C23.8604 104.968 24.7586 104.851 26.2425 104.773C28.3513 104.773 30.6944 104.655 33.2718 104.421C34.3652 104.187 35.1072 103.718 35.4977 103.015C35.6539 102.625 38.4266 91.6512 43.8157 70.0948C49.2048 48.5383 51.9384 37.6039 52.0165 37.2915C52.0165 36.7448 51.8603 36.4714 51.5479 36.4714C50.9231 36.2371 48.8534 36.0418 45.3387 35.8856H41.7069C41.2383 35.417 41.004 35.1046 41.004 34.9484C41.004 34.7922 41.0821 34.1283 41.2383 32.9568C41.5507 31.629 41.9412 30.8089 42.4099 30.4965H105.556C106.103 30.8089 106.376 31.2385 106.376 31.7852C106.376 32.1757 105.869 36.5495 104.853 44.9065C103.838 53.2636 103.291 57.5592 103.213 57.7935C103.057 58.3403 102.276 58.6136 100.87 58.6136H99.4641C98.9174 58.2231 98.6441 57.7154 98.6441 57.0906C98.6441 57.0125 98.7612 56.0753 98.9955 54.2789C99.2298 52.4825 99.347 50.4128 99.347 48.0697C99.347 45.7266 99.0736 43.8131 98.5269 42.3291C97.9802 40.8452 97.2382 39.6346 96.301 38.6973C95.3637 37.7601 93.9188 37.1353 91.9662 36.8229C90.0137 36.5104 88.022 36.2371 85.9914 36.0028C83.9607 35.7685 81.149 35.7294 77.5562 35.8856H74.8617C68.4572 35.9637 65.0597 36.0809 64.6692 36.2371C64.2787 36.3933 64.0054 36.7057 63.8491 37.1743C63.771 37.2524 62.4433 42.3682 59.8659 52.5216L56.1169 67.6345H62.5604C62.7948 67.6345 63.6929 67.6345 65.255 67.6345C66.8171 67.6345 67.9105 67.5955 68.5353 67.5174C69.1602 67.4393 70.0193 67.3221 71.1127 67.1659C72.2062 67.0097 73.1434 66.7363 73.9244 66.3458C74.7055 65.9553 75.3693 65.4867 75.9161 64.94C76.9314 64.0027 77.7905 62.714 78.4935 61.0739C79.1964 59.4337 79.7041 57.9497 80.0165 56.622C80.3289 55.2942 80.5241 54.5913 80.6022 54.5132C80.8366 54.1227 81.5785 53.9274 82.8282 53.9274H84.234C84.7808 54.3179 85.0541 54.7085 85.0541 55.099C85.0541 55.3333 83.8435 60.449 81.4223 70.4462C79.0011 80.4434 77.6734 85.5982 77.4391 85.9106C77.2829 86.4573 76.5018 86.7307 75.096 86.7307H73.6901C73.1434 86.2621 72.87 85.7935 72.87 85.3249C72.87 85.0905 73.0653 84.2314 73.4558 82.7475C73.8463 81.2635 74.0416 79.7014 74.0416 78.0613C74.0416 75.7963 73.2606 74.3904 71.6985 73.8437C70.1364 73.297 66.6609 73.0236 61.2717 73.0236H54.8282L51.0793 87.9023C48.58 97.587 47.3304 102.664 47.3304 103.132C47.3304 104.226 50.8059 104.773 57.7571 104.773H60.686C61.1546 105.241 61.3889 105.514 61.3889 105.593C61.3889 105.671 61.3108 106.452 61.1546 107.936C60.8422 108.951 60.4517 109.693 59.983 110.162H57.9914C54.7892 110.005 48.8924 109.927 40.3011 109.927C35.2244 109.927 31.3583 109.927 28.7028 109.927C26.0473 109.927 24.5633 109.966 24.2509 110.044Z" fill="#EF224B"/>
<path d="M96.4533 2.61401C96.4533 1.98919 96.6485 1.44247 97.039 0.973851C97.4296 0.505232 98.0153 0.270923 98.7964 0.270923C99.3431 0.270923 99.8117 0.466181 100.202 0.856696C100.593 1.16911 100.983 1.91109 101.374 3.08263C102.155 5.97245 103.756 8.19838 106.177 9.76044C107.036 10.3072 107.466 11.0101 107.466 11.8692C107.466 12.5722 107.349 13.0408 107.114 13.2751C106.88 13.5094 106.333 13.8609 105.474 14.3295C102.116 16.0477 99.1869 18.508 96.6876 21.7102C96.5314 21.8664 96.3361 22.1007 96.1018 22.4131C95.8675 22.7256 95.6722 22.9599 95.516 23.1161C95.3598 23.2723 95.1646 23.3504 94.9303 23.3504C94.6959 23.3504 94.4226 23.3894 94.1102 23.4675C93.5635 23.4675 93.0558 23.2723 92.5872 22.8818C92.1185 22.4912 91.8452 21.9055 91.7671 21.1244C91.7671 19.6405 93.6025 17.3364 97.2733 14.2123H77.2399L57.2065 14.0952C56.1911 13.3922 55.6835 12.6503 55.6835 11.8692C55.6835 11.3225 56.1911 10.5415 57.2065 9.52613H99.265C97.3905 6.55822 96.4533 4.25418 96.4533 2.61401Z" fill="#EF224B"/>
<path d="M130.245 74.9732C130.079 74.9732 129.859 74.9732 129.582 74.9732C128.202 74.9732 127.374 74.9456 127.098 74.8904C126.822 74.8352 126.683 74.5315 126.683 73.9793C126.683 72.4884 126.987 71.5773 127.595 71.246C127.705 71.1908 130.383 71.1631 135.629 71.1631C139.881 71.1631 142.31 71.1631 142.918 71.1631C143.525 71.1631 143.912 71.3288 144.077 71.6601C155.729 99.0487 161.665 113.102 161.886 113.82L166.358 96.1773C169.285 84.5261 170.748 78.314 170.748 77.5409C170.748 76.05 168.981 75.1941 165.447 74.9732C164.122 74.9732 163.459 74.6695 163.459 74.0621C163.459 73.9517 163.514 73.6204 163.625 73.0682C163.846 72.1847 164.011 71.6601 164.122 71.4945C164.232 71.3288 164.508 71.2184 164.95 71.1631C165.116 71.1631 165.972 71.1908 167.518 71.246C169.064 71.3012 171.356 71.3564 174.393 71.4116C177.154 71.4116 179.252 71.384 180.688 71.3288C182.123 71.2736 182.952 71.246 183.172 71.246C184.001 71.246 184.415 71.5221 184.415 72.0743C184.415 73.2891 184.194 74.1174 183.752 74.5591C183.642 74.8352 183.034 74.9732 181.93 74.9732C178.009 75.1941 175.552 76.2985 174.558 78.2864L162.217 127.155C162.106 127.542 161.527 127.735 160.477 127.735C159.704 127.735 159.235 127.68 159.069 127.569C158.904 127.404 155.342 119.038 148.385 102.472L137.865 77.7066L132.481 99.2419C128.892 113.378 127.098 120.694 127.098 121.191C127.374 123.014 129.362 123.925 133.061 123.925H133.89C134.221 124.201 134.387 124.422 134.387 124.587C134.387 124.753 134.331 125.278 134.221 126.161C134 126.879 133.724 127.404 133.393 127.735H132.316C130.604 127.624 127.622 127.569 123.37 127.569C121.824 127.569 120.416 127.569 119.146 127.569C117.876 127.569 116.855 127.569 116.081 127.569C115.308 127.569 114.839 127.597 114.673 127.652C113.845 127.652 113.431 127.404 113.431 126.907C113.431 126.686 113.514 126.244 113.679 125.581C113.845 124.919 113.983 124.532 114.094 124.422C114.204 124.09 114.839 123.925 115.999 123.925C119.754 123.759 122.183 122.682 123.288 120.694C123.508 120.363 125.469 112.715 129.168 97.751L134.801 75.2217C134.69 75.1665 133.172 75.0837 130.245 74.9732Z" fill="#EF224B"/>
<path d="M206.567 139.333H206.333C205.395 139.333 204.692 138.786 204.224 137.693V80.7555L204.341 23.8184C205.122 22.803 205.864 22.2953 206.567 22.2953C207.582 22.2953 208.363 22.8811 208.91 24.0527V137.693C208.285 138.786 207.582 139.333 206.801 139.333H206.567Z" fill="#EF224B"/>
<path d="M261.958 69.5088C261.958 68.4934 262.504 67.7124 263.598 67.1657H338.225C339.397 67.7905 339.983 68.5715 339.983 69.5088C339.983 70.3679 339.436 71.1099 338.342 71.7347L301.087 71.8518H263.832C262.582 71.4613 261.958 70.6803 261.958 69.5088ZM261.958 92.2367C261.958 91.0652 262.582 90.2842 263.832 89.8937H338.342C339.436 90.6747 339.983 91.4557 339.983 92.2367C339.983 93.2521 339.397 94.0331 338.225 94.5798H263.598C262.504 94.0331 261.958 93.2521 261.958 92.2367Z" fill="black"/>
<path d="M420.327 76.5378C416.578 82.4736 411.892 85.4415 406.269 85.4415C400.177 85.4415 395.178 83.1375 391.273 78.5294C387.368 73.9213 385.025 69.0008 384.244 63.7679C384.087 62.5183 384.009 60.9562 384.009 59.0817V58.1445C384.009 50.8809 386.704 44.5546 392.093 39.1655C396.779 34.4793 401.934 32.1362 407.557 32.1362C407.714 32.1362 407.948 32.1362 408.26 32.1362C408.573 32.1362 408.885 32.1752 409.198 32.2533H409.666C410.603 32.2533 411.58 32.3314 412.595 32.4876C413.61 32.6438 415.055 33.1125 416.93 33.8935C418.804 34.6745 420.64 35.9242 422.436 37.6424C424.232 39.3607 425.912 41.6647 427.474 44.5546C430.832 51.4276 432.511 60.2533 432.511 71.0315C432.511 81.9659 430.168 91.2211 425.482 98.7971C422.748 103.171 419.468 106.568 415.641 108.99C411.814 111.411 407.753 112.66 403.457 112.739C398.693 112.739 394.787 111.606 391.741 109.341C388.695 107.076 387.133 103.718 387.055 99.2657C386.977 94.8139 389.047 92.627 393.264 92.7051C394.983 92.7051 396.428 93.2518 397.599 94.3453C398.771 95.4387 399.357 96.9617 399.357 98.9143C399.357 100.32 399.005 101.531 398.302 102.546C397.599 103.561 396.974 104.186 396.428 104.421C395.881 104.655 395.373 104.85 394.905 105.006L394.436 105.123C394.436 105.28 394.709 105.514 395.256 105.826C395.803 106.139 396.818 106.529 398.302 106.998C399.786 107.467 401.426 107.662 403.223 107.584H403.926C408.612 107.584 412.556 105.084 415.758 100.086C418.804 95.7121 420.327 88.1361 420.327 77.3578V76.5378ZM407.675 81.1068C411.423 81.1068 414.43 79.1933 416.695 75.3662C418.96 71.5392 420.132 66.3453 420.21 59.7847C420.21 53.6926 419.898 49.3188 419.273 46.6633C419.117 45.8823 418.882 45.1013 418.57 44.3203C418.257 43.5392 417.711 42.5239 416.93 41.2742C416.149 40.0246 414.977 38.9702 413.415 38.1111C411.853 37.2519 410.018 36.8614 407.909 36.9395C404.941 36.9395 402.403 37.9939 400.294 40.1027C398.654 41.821 397.599 43.8516 397.131 46.1947C396.662 48.5378 396.389 52.6382 396.311 58.496C396.311 64.9785 396.506 69.3523 396.896 71.6173C397.287 73.8823 398.068 75.7177 399.239 77.1235C401.192 79.779 404.004 81.1068 407.675 81.1068Z" fill="black"/>
<path d="M448.913 41.6257C453.287 35.2994 459.262 32.1362 466.838 32.1362C470.587 32.1362 474.336 33.1515 478.085 35.1822C481.834 37.2129 484.88 40.8056 487.223 45.9604C490.112 52.443 491.557 61.3467 491.557 72.6717C491.557 84.7776 489.878 94.0328 486.52 100.437C484.958 103.718 482.81 106.334 480.076 108.287C477.343 110.239 474.96 111.45 472.93 111.918C470.899 112.387 468.907 112.66 466.955 112.739C464.924 112.739 462.894 112.504 460.863 112.036C458.832 111.567 456.45 110.317 453.716 108.287C450.983 106.256 448.835 103.64 447.273 100.437C443.915 94.0328 442.235 84.7776 442.235 72.6717C442.235 59.0817 444.461 48.7331 448.913 41.6257ZM475.273 40.2198C472.93 37.7205 470.157 36.4709 466.955 36.4709C463.675 36.4709 460.863 37.7205 458.52 40.2198C456.567 42.2505 455.279 45.0622 454.654 48.655C454.029 52.2477 453.716 59.7456 453.716 71.1487C453.716 83.4889 454.029 91.6117 454.654 95.5168C455.279 99.422 456.684 102.507 458.871 104.772C461.058 107.115 463.753 108.287 466.955 108.287C470.079 108.287 472.735 107.115 474.921 104.772C477.186 102.429 478.592 99.1486 479.139 94.931C479.686 90.7135 479.998 82.786 480.076 71.1487C480.076 59.8237 479.764 52.3649 479.139 48.7721C478.514 45.1794 477.225 42.3286 475.273 40.2198Z" fill="black"/>
<path d="M502.687 56.5043C502.765 56.3481 503.429 52.0915 504.678 43.7345L506.553 31.1989C506.553 31.0427 507.334 30.9646 508.896 30.9646H511.239V31.4333C511.239 32.2143 511.825 32.8782 512.996 33.4249C514.168 33.9716 516.199 34.3231 519.088 34.4793C521.978 34.6355 528.578 34.7136 538.888 34.7136H553.063V39.2826L545.097 50.178C544.394 51.1152 543.222 52.6773 541.582 54.8642C539.942 57.0511 538.888 58.496 538.419 59.1989C537.95 59.9018 537.13 61.1515 535.959 62.9478C534.787 64.7442 534.006 66.1501 533.616 67.1654C533.225 68.1807 532.678 69.6256 531.975 71.5001C531.273 73.3746 530.765 75.171 530.452 76.8892C530.14 78.6075 529.828 80.7163 529.515 83.2156C529.203 85.7149 528.969 88.3704 528.812 91.1821C528.656 93.9938 528.539 97.196 528.461 100.789C528.461 101.882 528.461 102.976 528.461 104.069C528.461 105.163 528.422 106.1 528.344 106.881V107.935C528.031 109.263 527.289 110.395 526.118 111.333C524.946 112.27 523.618 112.739 522.134 112.739C521.275 112.739 520.455 112.621 519.674 112.387C518.893 112.153 518.073 111.411 517.214 110.161C516.355 108.911 515.925 107.349 515.925 105.475C515.925 93.1347 519.713 80.3258 527.289 67.0482C528.851 64.5489 532.132 59.8237 537.13 52.8725L542.519 45.4918H531.624C518.034 45.4918 510.888 45.7261 510.185 46.1947C509.716 46.429 509.287 47.3663 508.896 49.0064C508.506 50.6466 508.115 52.3258 507.724 54.0441L507.373 56.5043V56.8558H502.687V56.5043Z" fill="black"/>
<path d="M563.959 103.132C563.959 101.257 564.623 99.6172 565.95 98.2114C567.278 96.8055 568.957 96.1026 570.988 96.1026C572.862 96.1026 574.503 96.7274 575.909 97.9771C577.314 99.2267 578.056 100.906 578.134 103.015C578.134 104.967 577.471 106.646 576.143 108.052C574.815 109.458 573.136 110.161 571.105 110.161C569.074 110.161 567.395 109.497 566.068 108.17C564.74 106.842 564.037 105.163 563.959 103.132Z" fill="black"/>
<path d="M606.603 91.7679C606.603 93.6423 605.978 95.2044 604.729 96.454C603.479 97.7037 601.956 98.3285 600.159 98.3285H599.339C602.932 104.499 607.696 107.584 613.632 107.584C619.099 107.584 623.083 105.241 625.582 100.554C627.066 97.977 627.808 92.9785 627.808 85.5587C627.808 77.514 626.754 72.0859 624.645 69.2742C622.614 66.6968 620.349 65.4081 617.85 65.4081H617.147C611.055 65.4081 606.447 68.0636 603.323 73.3746C603.01 73.9213 602.737 74.2337 602.503 74.3118C602.268 74.3899 601.683 74.468 600.745 74.5461C599.418 74.5461 598.676 74.3118 598.519 73.8432C598.363 73.5308 598.285 66.6968 598.285 53.3412V38.2282C598.285 34.3231 598.48 32.3705 598.871 32.3705C599.027 32.2143 599.183 32.1362 599.339 32.1362C599.418 32.1362 600.238 32.4486 601.8 33.0734C603.362 33.6982 605.51 34.3231 608.243 34.9479C610.977 35.5727 613.906 35.8851 617.03 35.8851C622.575 35.8851 627.886 34.7917 632.963 32.6048C633.588 32.2924 634.095 32.1362 634.486 32.1362C635.111 32.1362 635.423 32.8391 635.423 34.245V35.768C629.019 43.344 621.013 47.132 611.406 47.132C608.985 47.132 606.798 46.8977 604.846 46.429L603.674 46.1947V66.3453C605.158 65.2519 606.33 64.3927 607.189 63.7679C608.048 63.1431 609.454 62.5183 611.406 61.8934C613.359 61.2686 615.351 60.9562 617.381 60.9562C623.708 60.9562 629.058 63.4946 633.431 68.5713C637.805 73.6479 639.992 79.6619 639.992 86.6131C639.992 93.7985 637.493 99.9296 632.494 105.006C627.496 110.083 621.404 112.66 614.218 112.739C607.892 112.739 602.815 110.63 598.988 106.412C595.161 102.195 593.247 97.4303 593.247 92.1193C593.247 90.2448 593.677 88.7609 594.536 87.6674C595.395 86.574 596.293 85.8711 597.231 85.5587C598.168 85.2463 599.066 85.09 599.925 85.09C601.878 85.09 603.479 85.7539 604.729 87.0817C605.978 88.4094 606.603 89.9715 606.603 91.7679Z" fill="black"/>
<path d="M673.381 35.5339C673.147 35.5339 672.834 35.5339 672.444 35.5339C670.491 35.5339 669.32 35.4949 668.929 35.4168C668.539 35.3387 668.343 34.9091 668.343 34.1281C668.343 32.0193 668.773 30.7306 669.632 30.262C669.788 30.1839 673.576 30.1448 680.996 30.1448C687.01 30.1448 690.447 30.1448 691.306 30.1448C692.165 30.1448 692.712 30.3791 692.946 30.8477C709.426 69.5868 717.822 89.4641 718.134 90.4794L724.46 65.5255C728.6 49.0457 730.67 40.2592 730.67 39.1657C730.67 37.0569 728.17 35.8463 723.172 35.5339C721.297 35.5339 720.36 35.1044 720.36 34.2452C720.36 34.089 720.438 33.6204 720.594 32.8394C720.907 31.5897 721.141 30.8477 721.297 30.6134C721.453 30.3791 721.844 30.2229 722.469 30.1448C722.703 30.1448 723.914 30.1839 726.101 30.262C728.287 30.3401 731.529 30.4182 735.824 30.4963C739.73 30.4963 742.697 30.4572 744.728 30.3791C746.759 30.301 747.93 30.262 748.243 30.262C749.414 30.262 750 30.6525 750 31.4335C750 33.1518 749.688 34.3233 749.063 34.9481C748.907 35.3387 748.048 35.5339 746.485 35.5339C740.94 35.8463 737.465 37.4084 736.059 40.2201L718.603 109.341C718.446 109.888 717.626 110.161 716.142 110.161C715.049 110.161 714.385 110.083 714.151 109.927C713.916 109.693 708.879 97.8601 699.038 74.4292L684.159 39.4L676.544 69.8602C671.467 89.8546 668.929 100.203 668.929 100.906C669.32 103.484 672.131 104.772 677.364 104.772H678.536C679.004 105.163 679.239 105.475 679.239 105.71C679.239 105.944 679.161 106.686 679.004 107.935C678.692 108.951 678.302 109.693 677.833 110.161H676.31C673.889 110.005 669.671 109.927 663.657 109.927C661.47 109.927 659.479 109.927 657.682 109.927C655.886 109.927 654.441 109.927 653.348 109.927C652.254 109.927 651.59 109.966 651.356 110.044C650.184 110.044 649.599 109.693 649.599 108.99C649.599 108.677 649.716 108.053 649.95 107.115C650.184 106.178 650.38 105.631 650.536 105.475C650.692 105.007 651.59 104.772 653.23 104.772C658.541 104.538 661.978 103.015 663.54 100.203C663.852 99.7346 666.625 88.9173 671.858 67.7514L679.825 35.8854C679.668 35.8073 677.52 35.6901 673.381 35.5339Z" fill="black"/>
</svg>
