<svg width="500" height="99" viewBox="0 0 500 99" fill="none" xmlns="http://www.w3.org/2000/svg">
<path d="M0 63.7442C0 57.9115 2.19449 52.3675 6.58346 47.1123C10.9724 41.8571 15.91 39.2006 21.3962 39.1428C24.3415 39.1428 26.9402 40.5577 29.1924 43.3874C30.1164 41.6549 31.4447 40.7887 33.1772 40.7887C33.9279 40.7887 34.592 41.0197 35.1695 41.4817C35.747 41.9437 36.0358 42.5212 36.0358 43.2142C36.0358 43.9649 34.9674 48.5849 32.8307 57.0741C30.6939 65.5633 29.5967 70.3565 29.5389 71.4537C29.5389 72.8975 29.7411 73.8504 30.1453 74.3123C30.5496 74.7743 31.1559 75.0342 31.9644 75.092C32.4842 75.0342 33.0617 74.7743 33.6969 74.3123C34.9097 73.1574 36.0935 70.3854 37.2485 65.9964C37.595 64.8414 37.8838 64.235 38.1148 64.1773C38.2303 64.1195 38.519 64.0907 38.981 64.0907H39.3275C40.4247 64.0907 40.9734 64.3505 40.9734 64.8703C40.9734 65.2168 40.829 65.9964 40.5402 67.2091C40.2515 68.4219 39.674 69.9811 38.8078 71.8869C37.9415 73.7926 37.0175 75.2363 36.0358 76.2181C35.285 76.9688 34.361 77.5752 33.2638 78.0372C32.8018 78.1527 32.1088 78.2104 31.1848 78.2104C29.2213 78.2104 27.5754 77.7773 26.2472 76.9111C24.919 76.0448 24.0527 75.1497 23.6485 74.2257L23.1287 72.9264C23.071 72.8686 22.9555 72.8975 22.7822 73.013C22.6667 73.1285 22.5512 73.244 22.4357 73.3595C19.0285 76.5935 15.5635 78.2104 12.0408 78.2104C8.86457 78.2104 6.06371 77.0555 3.63823 74.7455C1.21274 72.4355 0 68.7684 0 63.7442ZM27.5466 48.9314C27.5466 48.5849 27.4022 47.9496 27.1135 47.0256C26.8247 46.1017 26.1606 45.091 25.1211 43.9938C24.0816 42.8966 22.7534 42.3191 21.1364 42.2613C19.1151 42.2613 17.1805 43.1564 15.3325 44.9467C13.4845 46.7369 12.0408 49.0758 11.0013 51.9632C9.32657 56.5255 8.1427 61.2609 7.4497 66.1697C7.4497 66.3429 7.4497 66.6605 7.4497 67.1225C7.4497 67.5845 7.42083 67.931 7.36308 68.162C7.36308 70.7607 7.88282 72.551 8.92232 73.5327C9.96181 74.5145 11.2034 75.0342 12.6472 75.092C14.8417 75.092 17.0073 74.1391 19.144 72.2334C21.2807 70.3276 22.5512 68.855 22.9555 67.8155C23.071 67.5845 23.8506 64.4949 25.2943 58.5467C26.7381 52.5985 27.4888 49.3934 27.5466 48.9314Z" fill="black"/>
<path d="M71.8811 47.2856C71.8811 46.5349 72.2854 45.9574 73.0938 45.5531H128.274C129.14 46.0151 129.573 46.5926 129.573 47.2856C129.573 47.9209 129.169 48.4695 128.36 48.9315L100.814 49.0181H73.2671C72.3431 48.7294 71.8811 48.1519 71.8811 47.2856ZM71.8811 64.0908C71.8811 63.2245 72.3431 62.647 73.2671 62.3583H128.36C129.169 62.9358 129.573 63.5133 129.573 64.0908C129.573 64.8415 129.14 65.419 128.274 65.8232H73.0938C72.2854 65.419 71.8811 64.8415 71.8811 64.0908Z" fill="black"/>
<path d="M166.804 26.669C170.038 21.9912 174.456 19.6524 180.058 19.6524C182.83 19.6524 185.602 20.4031 188.374 21.9046C191.146 23.4061 193.398 26.0626 195.13 29.8741C197.267 34.6673 198.335 41.2507 198.335 49.6244C198.335 58.5756 197.094 65.419 194.61 70.1544C193.456 72.5799 191.867 74.5145 189.846 75.9583C187.825 77.402 186.064 78.2971 184.562 78.6436C183.061 78.9901 181.588 79.1923 180.144 79.25C178.643 79.25 177.141 79.0768 175.64 78.7303C174.138 78.3838 172.377 77.4598 170.356 75.9583C168.334 74.4568 166.746 72.5222 165.591 70.1544C163.108 65.419 161.866 58.5756 161.866 49.6244C161.866 39.576 163.512 31.9242 166.804 26.669ZM186.295 25.6295C184.562 23.7815 182.512 22.8575 180.144 22.8575C177.719 22.8575 175.64 23.7815 173.907 25.6295C172.464 27.131 171.511 29.2099 171.049 31.8664C170.587 34.5229 170.356 40.0669 170.356 48.4983C170.356 57.6228 170.587 63.6287 171.049 66.5162C171.511 69.4037 172.55 71.6848 174.167 73.3595C175.784 75.092 177.776 75.9583 180.144 75.9583C182.454 75.9583 184.418 75.092 186.035 73.3595C187.709 71.627 188.749 69.2016 189.153 66.0831C189.557 62.9646 189.788 57.103 189.846 48.4983C189.846 40.1246 189.615 34.6095 189.153 31.9531C188.691 29.2966 187.738 27.1887 186.295 25.6295Z" fill="black"/>
<path d="M208.557 72.1473C208.557 70.7613 209.048 69.5485 210.03 68.509C211.011 67.4695 212.253 66.9498 213.755 66.9498C215.141 66.9498 216.353 67.4118 217.393 68.3358C218.432 69.2598 218.981 70.5014 219.039 72.0606C219.039 73.5044 218.548 74.746 217.566 75.7855C216.584 76.825 215.343 77.3447 213.841 77.3447C212.34 77.3447 211.098 76.8539 210.116 75.8721C209.135 74.8904 208.615 73.6488 208.557 72.1473Z" fill="black"/>
<path d="M236.883 37.2371C235.324 37.2371 234.111 36.7463 233.245 35.7645C232.379 34.7828 231.917 33.5123 231.859 31.9531C231.859 28.7768 233.245 25.9471 236.017 23.4639C238.789 20.9806 242.139 19.739 246.066 19.739C248.087 19.739 249.357 19.7679 249.877 19.8256C254.15 20.5186 257.413 22.049 259.666 24.4167C261.918 26.7845 263.073 29.3543 263.131 32.1263C263.131 35.1293 262.149 38.0456 260.185 40.8754C258.222 43.7051 255.508 45.7552 252.043 47.0257L251.783 47.199C251.783 47.2567 252.043 47.3433 252.562 47.4588C253.082 47.5743 253.919 47.8342 255.074 48.2384C256.229 48.6427 257.327 49.2491 258.366 50.0576C263.102 53.1183 265.469 57.1608 265.469 62.185C265.469 66.7472 263.679 70.7319 260.099 74.1392C256.518 77.5464 251.985 79.25 246.499 79.25C241.879 79.25 237.894 78.0084 234.544 75.5251C231.195 73.0419 229.52 69.8946 229.52 66.0831C229.52 64.4661 230.04 63.1667 231.08 62.185C232.119 61.2032 233.418 60.6835 234.978 60.6257C236.595 60.6257 237.923 61.1455 238.962 62.185C240.002 63.2245 240.522 64.5238 240.522 66.0831C240.522 66.7183 240.435 67.2958 240.262 67.8156C240.088 68.3353 239.886 68.7973 239.655 69.2016C239.424 69.6058 239.107 69.9523 238.702 70.2411C238.298 70.5298 237.952 70.7608 237.663 70.9341C237.374 71.1073 237.085 71.2228 236.797 71.2806C236.508 71.3383 236.277 71.4249 236.104 71.5404L235.757 71.627C238.702 74.2258 242.283 75.5251 246.499 75.5251C249.675 75.5251 252.071 73.9948 253.688 70.9341C254.67 69.0283 255.161 66.112 255.161 62.185V60.4525C255.161 54.9663 253.313 51.2992 249.617 49.4512C248.751 49.1047 246.99 48.9026 244.333 48.8448L240.695 48.7582L240.435 48.5849C240.319 48.4117 240.262 47.9497 240.262 47.199C240.262 46.1595 240.493 45.6397 240.955 45.6397C242.572 45.6397 244.246 45.4953 245.979 45.2066C247.942 44.9178 249.733 43.7051 251.35 41.5684C252.967 39.4316 253.775 36.1977 253.775 31.8664V31.1734C253.775 27.8817 252.764 25.6006 250.743 24.3301C249.473 23.5216 248.116 23.1174 246.672 23.1174C244.824 23.1174 243.12 23.435 241.561 24.0702C240.002 24.7055 238.905 25.3696 238.269 26.0626C237.634 26.7556 237.316 27.1021 237.316 27.1021H237.576C237.75 27.1598 237.981 27.2176 238.269 27.2753C238.558 27.3331 238.847 27.4775 239.136 27.7085C239.424 27.9395 239.771 28.1416 240.175 28.3148C240.579 28.4881 240.868 28.8057 241.041 29.2677C241.215 29.7297 241.446 30.1628 241.734 30.5671C242.023 30.9713 242.11 31.5488 241.994 32.2996C241.994 33.57 241.59 34.6962 240.781 35.6779C239.973 36.6596 238.674 37.1794 236.883 37.2371Z" fill="black"/>
<path d="M283.401 63.7442C283.401 65.1302 282.939 66.2852 282.015 67.2092C281.091 68.1332 279.964 68.5952 278.636 68.5952H278.03C280.686 73.1574 284.209 75.4385 288.598 75.4385C292.641 75.4385 295.586 73.706 297.434 70.2411C298.531 68.3353 299.08 64.6393 299.08 59.1531C299.08 53.2049 298.3 49.1913 296.741 47.1123C295.239 45.2066 293.565 44.2537 291.717 44.2537H291.197C286.692 44.2537 283.285 46.2172 280.975 50.1442C280.744 50.5484 280.542 50.7794 280.369 50.8372C280.195 50.8949 279.762 50.9527 279.069 51.0104C278.088 51.0104 277.539 50.8372 277.423 50.4907C277.308 50.2597 277.25 45.2066 277.25 35.3314V24.1569C277.25 21.2694 277.395 19.8256 277.683 19.8256C277.799 19.7101 277.914 19.6524 278.03 19.6524C278.088 19.6524 278.694 19.8834 279.849 20.3454C281.004 20.8074 282.592 21.2694 284.613 21.7314C286.635 22.1934 288.8 22.4244 291.11 22.4244C295.21 22.4244 299.137 21.6159 302.891 19.9989C303.353 19.7679 303.728 19.6524 304.017 19.6524C304.479 19.6524 304.71 20.1721 304.71 21.2116V22.3377C299.975 27.9395 294.055 30.7403 286.952 30.7403C285.162 30.7403 283.545 30.5671 282.101 30.2206L281.235 30.0473V44.9467C282.332 44.1382 283.198 43.503 283.834 43.041C284.469 42.579 285.508 42.117 286.952 41.655C288.396 41.193 289.869 40.962 291.37 40.962C296.048 40.962 300.004 42.8389 303.238 46.5926C306.472 50.3463 308.089 54.793 308.089 59.9327C308.089 65.2457 306.241 69.7791 302.545 73.5328C298.849 77.2865 294.344 79.1923 289.031 79.25C284.353 79.25 280.6 77.6908 277.77 74.5723C274.94 71.4538 273.525 67.9311 273.525 64.0041C273.525 62.6181 273.843 61.5209 274.478 60.7124C275.114 59.9039 275.778 59.3841 276.471 59.1531C277.164 58.9221 277.828 58.8066 278.463 58.8066C279.907 58.8066 281.091 59.2975 282.015 60.2792C282.939 61.261 283.401 62.416 283.401 63.7442Z" fill="black"/>
<path d="M314.325 52.4828C314.383 52.1363 314.47 51.6743 314.585 51.0968C314.701 50.5193 315.047 49.4221 315.625 47.8051C316.202 46.1881 316.78 44.831 317.357 43.7337C317.935 42.6365 318.859 41.5681 320.129 40.5286C321.4 39.4891 322.67 38.9983 323.941 39.056C325.211 39.1138 326.453 39.3159 327.666 39.6624C328.878 40.0089 329.745 40.5286 330.264 41.2216C330.784 41.9146 331.246 42.5499 331.65 43.1274C332.055 43.7049 332.286 44.2535 332.343 44.7732L332.517 45.3796C332.517 45.4951 332.545 45.5528 332.603 45.5528L333.556 44.6C337.021 40.904 341.092 39.056 345.77 39.056C346.752 39.056 347.647 39.1138 348.455 39.2293C349.264 39.3448 350.015 39.5469 350.708 39.8356C351.401 40.1244 351.949 40.4131 352.354 40.7019C352.758 40.9906 353.191 41.3371 353.653 41.7414C354.115 42.1456 354.404 42.521 354.519 42.8675C354.635 43.214 354.866 43.5894 355.212 43.9936C355.559 44.3978 355.674 44.7443 355.559 45.0331C355.443 45.3218 355.53 45.5817 355.819 45.8127C356.107 46.0437 356.165 46.2458 355.992 46.4191L356.685 45.5528C360.323 41.2216 364.625 39.056 369.592 39.056C372.71 39.056 375.222 39.8356 377.128 41.3949C379.034 42.9541 380.016 45.2352 380.073 48.2382C380.073 51.1834 378.976 55.7456 376.782 61.9249C374.587 68.1041 373.49 71.8 373.49 73.0128C373.548 73.8213 373.692 74.3699 373.923 74.6586C374.154 74.9474 374.587 75.0918 375.222 75.0918C376.839 75.0918 378.341 74.2255 379.727 72.493C381.113 70.7605 382.239 68.3928 383.105 65.3898C383.278 64.7546 383.452 64.3792 383.625 64.2637C383.798 64.1482 384.26 64.0905 385.011 64.0905C386.166 64.0905 386.743 64.3215 386.743 64.7835C386.743 64.8412 386.628 65.2743 386.397 66.0828C385.935 67.7576 385.3 69.4034 384.491 71.0204C383.683 72.6374 382.355 74.2544 380.507 75.8714C378.659 77.4884 376.666 78.268 374.529 78.2103C371.815 78.2103 369.852 77.4306 368.639 75.8714C367.426 74.3122 366.82 72.6952 366.82 71.0204C366.82 69.9232 367.859 66.4582 369.938 60.6255C372.017 54.7928 373.086 50.4038 373.143 47.4586C373.143 44.0513 371.873 42.3477 369.332 42.3477H368.899C363.932 42.3477 359.746 45.2641 356.338 51.0968L355.732 52.1363L352.873 63.744C350.968 71.3092 349.87 75.3805 349.582 75.958C348.831 77.5173 347.589 78.2969 345.857 78.2969C345.106 78.2969 344.5 78.0948 344.038 77.6905C343.576 77.2863 343.258 76.9398 343.085 76.651C342.912 76.3623 342.825 76.0735 342.825 75.7848C342.825 75.1495 343.807 71.0204 345.77 63.3975L348.889 50.7503C349.062 49.8841 349.148 48.7868 349.148 47.4586C349.148 44.0513 347.878 42.3477 345.337 42.3477H344.904C339.937 42.3477 335.751 45.2641 332.343 51.0968L331.737 52.1363L328.878 63.744C326.973 71.3092 325.875 75.3805 325.587 75.958C324.836 77.5173 323.594 78.2969 321.862 78.2969C321.111 78.2969 320.505 78.1236 320.043 77.7771C319.581 77.4306 319.263 77.0841 319.09 76.7376C318.917 76.3911 318.859 76.1024 318.917 75.8714C318.917 75.1206 320.014 70.3852 322.208 61.665C324.46 52.7715 325.587 48.1227 325.587 47.7184C325.76 46.8522 325.846 46.0726 325.846 45.3796C325.846 43.3006 325.125 42.2611 323.681 42.2611C322.41 42.2611 321.342 43.0696 320.476 44.6866C319.61 46.3036 318.945 48.0649 318.483 49.9707C318.021 51.8764 317.675 52.9159 317.444 53.0892C317.328 53.2047 316.866 53.2624 316.058 53.2624H314.845C314.499 52.9159 314.325 52.656 314.325 52.4828Z" fill="black"/>
<path d="M425.205 12.3756C425.725 12.3756 426.158 12.5488 426.505 12.8953C426.851 13.2418 427.024 13.646 427.024 14.108C427.024 14.3968 422.029 28.3145 412.038 55.861C402.048 83.4076 396.879 97.4985 396.533 98.1338C396.128 98.7113 395.637 99 395.06 99C394.656 99 394.28 98.8556 393.934 98.5669C393.587 98.2781 393.414 97.8739 393.414 97.3541C393.414 96.7766 398.438 82.6857 408.487 55.0814C418.535 27.4771 423.646 13.5305 423.819 13.2418C424.05 12.6643 424.512 12.3756 425.205 12.3756Z" fill="black"/>
<path d="M443.223 52.3102C443.223 50.4622 443.685 48.5854 444.609 46.6796C445.533 44.7739 447.15 43.0125 449.46 41.3955C451.77 39.7786 454.571 38.9989 457.862 39.0567C461.443 39.0567 464.042 39.8363 465.658 41.3955C467.275 42.9548 468.113 44.6873 468.171 46.593C468.171 48.441 467.68 49.7981 466.698 50.6644C465.716 51.5306 464.619 51.9926 463.406 52.0504C462.656 52.0504 461.963 51.8194 461.327 51.3574C460.692 50.8954 460.346 50.1446 460.288 49.1051C460.288 48.1811 460.548 47.3726 461.067 46.6796C461.587 45.9866 462.078 45.4669 462.54 45.1204C463.002 44.7739 463.377 44.6007 463.666 44.6007C463.724 44.6007 463.753 44.5718 463.753 44.514C463.753 44.3408 463.551 44.0809 463.146 43.7344C462.742 43.3879 462.02 43.0703 460.981 42.7815C459.941 42.4928 458.815 42.3195 457.602 42.2618C454.83 42.2618 452.809 43.0125 451.539 44.514C450.268 46.0155 449.604 47.5459 449.546 49.1051C449.546 50.5489 450.095 51.5595 451.192 52.137C452.289 52.7145 453.878 53.2053 455.957 53.6096C458.036 54.0138 459.537 54.447 460.461 54.909C464.273 56.5837 466.178 59.3557 466.178 63.2249C466.178 64.8419 465.861 66.4589 465.225 68.0759C464.59 69.6929 463.637 71.3099 462.367 72.9268C461.096 74.5438 459.277 75.8143 456.909 76.7383C454.542 77.6623 451.827 78.1532 448.767 78.2109C444.32 78.2109 441.173 77.3736 439.325 75.6988C437.477 74.0241 436.524 72.0606 436.466 69.8084C436.466 67.5561 437.072 65.9391 438.285 64.9574C439.498 63.9757 440.768 63.4848 442.097 63.4848C442.963 63.4848 443.771 63.7447 444.522 64.2644C445.273 64.7841 445.677 65.6793 445.735 66.9498C445.735 68.4513 445.215 69.7217 444.176 70.7612C443.136 71.8007 442.241 72.3205 441.49 72.3205C441.375 72.3782 441.288 72.4071 441.23 72.4071C441.173 72.4071 441.144 72.4648 441.144 72.5803C441.202 72.7536 441.433 72.9846 441.837 73.2733C442.241 73.5621 443.136 73.9375 444.522 74.3995C445.908 74.8615 447.496 75.0636 449.286 75.0058C451.365 75.0058 453.156 74.6882 454.657 74.053C456.159 73.4177 457.256 72.6092 457.949 71.6275C458.642 70.6457 459.133 69.7506 459.422 68.9421C459.71 68.1336 459.855 67.4118 459.855 66.7765C459.855 65.1595 459.248 63.9468 458.036 63.1383C456.823 62.3298 455.437 61.8389 453.878 61.6657C452.318 61.4924 450.615 61.0593 448.767 60.3663C446.919 59.6733 445.562 58.6627 444.695 57.3344C443.714 55.8907 443.223 54.216 443.223 52.3102Z" fill="black"/>
<path d="M479.177 15.2954C478.075 15.2954 477.197 14.9279 476.544 14.193C475.891 13.4581 475.564 12.5599 475.564 11.4983C475.564 8.59944 476.646 6.08846 478.81 3.96535C480.974 1.84224 483.669 0.780689 486.894 0.780689C490.609 0.780689 493.712 1.9239 496.203 4.21032C498.694 6.49675 499.959 9.45685 500 13.0906C500 14.8463 499.592 16.5203 498.775 18.1126C497.959 19.7049 496.979 21.0931 495.836 22.2772C494.692 23.4612 493.059 24.9719 490.936 26.8092C489.466 28.0749 487.425 29.953 484.812 32.4436L481.198 35.8732L485.853 35.9344C492.263 35.9344 495.672 35.8324 496.081 35.6282C496.366 35.5466 496.856 33.7297 497.55 30.1776V29.9938H500V30.1776C499.959 30.3 499.694 32.1578 499.204 35.7507C498.714 39.3437 498.408 41.2218 498.285 41.3851V41.5688H475.564V40.4052V39.6703C475.564 39.3845 475.686 39.0783 475.931 38.7516C476.176 38.425 476.789 37.7105 477.769 36.6081C478.953 35.3016 479.973 34.1584 480.831 33.1785C481.198 32.7702 481.892 32.0149 482.913 30.9125C483.934 29.8101 484.628 29.0548 484.995 28.6465C485.363 28.2382 485.955 27.5645 486.772 26.6254C487.588 25.6864 488.16 24.9923 488.486 24.5432C488.813 24.094 489.283 23.4816 489.895 22.7059C490.507 21.9301 490.936 21.2768 491.181 20.7461C491.426 20.2153 491.732 19.6233 492.1 18.97C492.467 18.3167 492.733 17.6635 492.896 17.0102C493.059 16.3569 493.202 15.7445 493.325 15.1729C493.447 14.6013 493.508 13.9276 493.508 13.1519C493.508 10.5796 492.814 8.35447 491.426 6.47633C490.038 4.5982 488.058 3.65913 485.485 3.65913C484.138 3.65913 482.954 4.00618 481.933 4.70027C480.913 5.39436 480.198 6.06804 479.79 6.72131C479.381 7.37457 479.177 7.76245 479.177 7.88493C479.177 7.92576 479.279 7.94618 479.484 7.94618C480.218 7.94618 480.974 8.23198 481.75 8.80358C482.525 9.37519 482.913 10.3143 482.913 11.6208C482.913 12.6415 482.587 13.4989 481.933 14.193C481.28 14.8871 480.361 15.2546 479.177 15.2954Z" fill="black"/>
</svg>
