<svg width="1500" height="249" viewBox="0 0 1500 249" fill="none" xmlns="http://www.w3.org/2000/svg">
<path d="M3.43011 189.06C1.14337 189.06 0 188.388 0 187.043C0 186.774 0.201771 185.832 0.605314 184.218C1.14337 182.066 1.68143 180.855 2.21949 180.586C2.75754 180.317 4.30446 180.115 6.86023 179.981C10.4921 179.981 14.5275 179.779 18.9665 179.375C20.8497 178.972 22.1276 178.165 22.8002 176.954C23.0692 176.282 27.8445 157.382 37.1259 120.256C46.4074 83.1304 51.1154 64.2984 51.2499 63.7604C51.2499 62.8188 50.9809 62.348 50.4429 62.348C49.3667 61.9444 45.8021 61.6081 39.749 61.3391H33.4941C32.687 60.532 32.2834 59.994 32.2834 59.7249C32.2834 59.4559 32.4179 58.3125 32.687 56.2948C33.225 54.0081 33.8976 52.5957 34.7047 52.0576H143.459C144.401 52.5957 144.872 53.3355 144.872 54.2771C144.872 54.9497 143.998 62.4825 142.249 76.8755C140.5 91.2685 139.559 98.6668 139.424 99.0704C139.155 100.012 137.81 100.483 135.389 100.483H132.967C132.026 99.8102 131.555 98.9359 131.555 97.8597C131.555 97.7252 131.757 96.1111 132.16 93.0172C132.564 89.9234 132.766 86.3588 132.766 82.3233C132.766 78.2879 132.295 74.9923 131.353 72.4365C130.412 69.8808 129.134 67.7958 127.52 66.1816C125.905 64.5675 123.417 63.4913 120.054 62.9533C116.691 62.4152 113.261 61.9444 109.764 61.5409C106.266 61.1373 101.424 61.0701 95.2361 61.3391H90.5954C79.5652 61.4736 73.7138 61.6754 73.0413 61.9444C72.3687 62.2135 71.8979 62.7515 71.6289 63.5586C71.4943 63.6931 69.2076 72.5038 64.7686 89.9907L58.3119 116.019H69.4094C69.8129 116.019 71.3598 116.019 74.0501 116.019C76.7404 116.019 78.6236 115.952 79.6997 115.817C80.7758 115.683 82.2555 115.481 84.1387 115.212C86.0219 114.943 87.6361 114.472 88.9812 113.8C90.3263 113.127 91.4697 112.32 92.4113 111.378C94.16 109.764 95.6397 107.545 96.8503 104.72C98.0609 101.895 98.9353 99.3394 99.4733 97.0527C100.011 94.7659 100.348 93.5553 100.482 93.4208C100.886 92.7482 102.164 92.4119 104.316 92.4119H106.737C107.679 93.0845 108.149 93.7571 108.149 94.4296C108.149 94.8332 106.065 103.644 101.895 120.862C97.7246 138.08 95.4379 146.957 95.0343 147.496C94.7653 148.437 93.4202 148.908 90.9989 148.908H88.5777C87.6361 148.101 87.1653 147.294 87.1653 146.487C87.1653 146.083 87.5015 144.603 88.1741 142.048C88.8467 139.492 89.183 136.802 89.183 133.977C89.183 130.076 87.8378 127.655 85.1475 126.713C82.4573 125.771 76.4714 125.301 67.1899 125.301H56.0925L49.6358 150.926C45.3313 167.605 43.1791 176.349 43.1791 177.156C43.1791 179.039 49.165 179.981 61.1367 179.981H66.181C66.9881 180.788 67.3917 181.259 67.3917 181.393C67.3917 181.528 67.2571 182.873 66.9881 185.429C66.4501 187.177 65.7775 188.455 64.9704 189.262H61.5403C56.0252 188.993 45.8694 188.859 31.0728 188.859C22.3294 188.859 15.6709 188.859 11.0974 188.859C6.52394 188.859 3.96817 188.926 3.43011 189.06Z" fill="#6C63FF"/>
<path d="M130.902 178.301C131.568 174.307 134.135 169.695 138.605 164.464C143.075 159.233 148.591 156.57 155.153 156.475C158.481 156.475 161.525 157.331 164.283 159.043C167.041 160.755 169.085 162.895 170.417 165.462C174.411 159.471 179.214 156.475 184.825 156.475C188.343 156.475 191.387 157.522 193.954 159.614C196.522 161.706 197.854 164.511 197.949 168.03C197.949 170.788 197.283 173.023 195.952 174.735C194.62 176.447 193.336 177.493 192.1 177.873C190.864 178.254 189.77 178.444 188.819 178.444C187.012 178.444 185.538 177.921 184.397 176.875C183.255 175.829 182.685 174.45 182.685 172.738C182.685 168.363 185.062 165.367 189.817 163.751C188.771 162.514 186.869 161.896 184.111 161.896C182.875 161.896 181.972 161.991 181.401 162.181C177.787 163.703 175.124 166.841 173.412 171.597C167.706 192.614 164.853 204.882 164.853 208.401C164.853 211.064 165.614 212.966 167.136 214.107C168.657 215.248 170.322 215.819 172.129 215.819C175.647 215.819 179.119 214.25 182.542 211.111C185.966 207.973 188.296 204.121 189.532 199.556C189.817 198.605 190.103 198.082 190.388 197.987C190.673 197.892 191.434 197.797 192.671 197.702H193.241C194.668 197.702 195.381 198.082 195.381 198.843C195.381 198.938 195.286 199.461 195.096 200.412C193.574 205.833 190.626 210.636 186.251 214.82C181.876 219.005 176.789 221.097 170.987 221.097C164.33 221.097 159.29 218.101 155.866 212.11C151.967 218.006 147.497 220.954 142.457 220.954H141.601C136.941 220.954 133.612 219.718 131.615 217.245C129.618 214.773 128.572 212.157 128.477 209.399C128.477 206.356 129.38 203.884 131.187 201.982C132.994 200.079 135.134 199.128 137.607 199.128C141.696 199.128 143.741 201.126 143.741 205.12C143.741 207.022 143.17 208.686 142.029 210.113C140.888 211.539 139.794 212.49 138.748 212.966C137.702 213.441 137.084 213.679 136.893 213.679L136.465 213.822C136.465 213.917 136.751 214.107 137.321 214.392C137.892 214.678 138.653 215.01 139.604 215.391C140.555 215.771 141.458 215.914 142.314 215.819C145.738 215.819 148.686 213.679 151.159 209.399C152.015 207.878 153.108 204.644 154.44 199.699C155.771 194.754 157.103 189.618 158.434 184.293C159.765 178.967 160.526 175.829 160.716 174.878C161.192 172.31 161.43 170.455 161.43 169.314C161.43 166.651 160.716 164.749 159.29 163.608C157.863 162.467 156.247 161.896 154.44 161.896C150.636 161.896 147.069 163.418 143.741 166.461C140.412 169.504 138.082 173.403 136.751 178.159C136.561 179.014 136.323 179.49 136.038 179.585C135.752 179.68 134.991 179.775 133.755 179.87H131.758C131.187 179.3 130.902 178.777 130.902 178.301Z" fill="#6C63FF"/>
<path d="M276.972 141.442C276.972 141.442 276.972 140.567 276.972 138.819C276.972 137.07 277.913 135.725 279.796 134.783H397.026C399.043 135.859 400.052 137.204 400.052 138.819C400.052 140.433 399.043 141.778 397.026 142.854H279.796C277.913 141.912 276.972 140.567 276.972 138.819V141.442Z" fill="black"/>
<path d="M489.881 239.503H489.477C487.863 239.503 486.652 238.561 485.845 236.678V138.617L486.047 40.5561C487.392 38.8074 488.67 37.933 489.881 37.933C491.629 37.933 492.975 38.9419 493.916 40.9596V236.678C492.84 238.561 491.629 239.503 490.284 239.503H489.881Z" fill="#2CAC0B"/>
<path d="M527.612 189.06C525.325 189.06 524.182 188.388 524.182 187.043C524.182 186.774 524.384 185.832 524.787 184.218C525.325 182.066 525.863 180.855 526.401 180.586C526.939 180.317 528.486 180.115 531.042 179.981C534.674 179.981 538.709 179.779 543.148 179.375C545.032 178.972 546.309 178.165 546.982 176.954C547.251 176.282 552.026 157.382 561.308 120.256C570.589 83.1304 575.297 64.2984 575.432 63.7604C575.432 62.8188 575.163 62.348 574.625 62.348C573.549 61.9444 569.984 61.6081 563.931 61.3391H557.676C556.869 60.532 556.465 59.994 556.465 59.7249C556.465 59.4559 556.6 58.3125 556.869 56.2948C557.407 54.0081 558.079 52.5957 558.887 52.0576H667.641C668.583 52.5957 669.054 53.3355 669.054 54.2771C669.054 54.9497 668.179 62.4825 666.431 76.8755C664.682 91.2685 663.74 98.6668 663.606 99.0704C663.337 100.012 661.992 100.483 659.571 100.483H657.149C656.208 99.8102 655.737 98.9359 655.737 97.8597C655.737 97.7252 655.939 96.1111 656.342 93.0172C656.746 89.9234 656.947 86.3588 656.947 82.3233C656.947 78.2879 656.477 74.9923 655.535 72.4365C654.593 69.8808 653.316 67.7958 651.701 66.1816C650.087 64.5675 647.599 63.4913 644.236 62.9533C640.873 62.4152 637.443 61.9444 633.946 61.5409C630.448 61.1373 625.606 61.0701 619.418 61.3391H614.777C603.747 61.4736 597.896 61.6754 597.223 61.9444C596.551 62.2135 596.08 62.7515 595.811 63.5586C595.676 63.6931 593.389 72.5038 588.951 89.9907L582.494 116.019H593.591C593.995 116.019 595.542 116.019 598.232 116.019C600.922 116.019 602.805 115.952 603.882 115.817C604.958 115.683 606.437 115.481 608.321 115.212C610.204 114.943 611.818 114.472 613.163 113.8C614.508 113.127 615.652 112.32 616.593 111.378C618.342 109.764 619.822 107.545 621.032 104.72C622.243 101.895 623.117 99.3394 623.655 97.0527C624.193 94.7659 624.53 93.5553 624.664 93.4208C625.068 92.7482 626.345 92.4119 628.498 92.4119H630.919C631.861 93.0845 632.331 93.7571 632.331 94.4296C632.331 94.8332 630.246 103.644 626.076 120.862C621.907 138.08 619.62 146.957 619.216 147.496C618.947 148.437 617.602 148.908 615.181 148.908H612.76C611.818 148.101 611.347 147.294 611.347 146.487C611.347 146.083 611.683 144.603 612.356 142.048C613.029 139.492 613.365 136.802 613.365 133.977C613.365 130.076 612.02 127.655 609.329 126.713C606.639 125.771 600.653 125.301 591.372 125.301H580.274L573.818 150.926C569.513 167.605 567.361 176.349 567.361 177.156C567.361 179.039 573.347 179.981 585.319 179.981H590.363C591.17 180.788 591.574 181.259 591.574 181.393C591.574 181.528 591.439 182.873 591.17 185.429C590.632 187.177 589.959 188.455 589.152 189.262H585.722C580.207 188.993 570.051 188.859 555.255 188.859C546.511 188.859 539.853 188.859 535.279 188.859C530.706 188.859 528.15 188.926 527.612 189.06Z" fill="#2CAC0B"/>
<path d="M651.964 4.03537C651.964 2.95926 652.3 2.01766 652.973 1.21057C653.645 0.403485 654.654 -5.82039e-05 655.999 -5.82039e-05C656.941 -5.82039e-05 657.748 0.336228 658.42 1.0088C659.093 1.54686 659.766 2.82474 660.438 4.84246C661.783 9.81948 664.541 13.6531 668.711 16.3434C670.19 17.285 670.93 18.4957 670.93 19.9753C670.93 21.1859 670.729 21.993 670.325 22.3966C669.921 22.8001 668.98 23.4054 667.5 24.2125C661.716 27.1718 656.672 31.409 652.367 36.9241C652.098 37.1931 651.762 37.5967 651.358 38.1347C650.955 38.6728 650.619 39.0763 650.35 39.3454C650.081 39.6144 649.744 39.7489 649.341 39.7489C648.937 39.7489 648.466 39.8162 647.928 39.9507C646.987 39.9507 646.112 39.6144 645.305 38.9418C644.498 38.2693 644.027 37.2604 643.893 35.9153C643.893 33.3595 647.054 29.3913 653.376 24.0107H618.873L584.37 23.809C582.622 22.5983 581.747 21.3205 581.747 19.9753C581.747 19.0337 582.622 17.6886 584.37 15.9399H656.806C653.578 10.8283 651.964 6.86017 651.964 4.03537Z" fill="#2CAC0B"/>
<path d="M693.615 242.637C693.805 242.637 694.09 242.733 694.47 242.923C694.851 243.113 695.374 243.256 696.04 243.351C696.705 243.446 697.276 243.493 697.751 243.493C698.988 243.493 700.129 242.875 701.175 241.639C702.221 240.403 702.982 239.024 703.458 237.502C704.409 234.934 706.025 227.659 708.308 215.676C710.59 203.693 712.778 192.281 714.87 181.44C716.962 170.598 718.008 165.13 718.008 165.035V164.607H711.303C706.834 164.607 704.456 164.511 704.171 164.321C703.79 164.036 703.6 163.56 703.6 162.895L704.599 158.9C704.789 158.425 705.169 158.187 705.74 158.187C706.311 158.187 708.545 158.14 712.445 158.045C717.01 158.045 719.292 157.997 719.292 157.902C719.292 157.712 719.72 155.334 720.576 150.769C721.432 146.204 722.002 143.446 722.288 142.495C725.806 126.804 732.749 118.958 743.115 118.958C746.634 119.148 749.534 120.194 751.817 122.096C754.099 123.998 755.24 126.518 755.24 129.657C755.24 133.08 754.242 135.553 752.245 137.075C750.248 138.596 748.25 139.405 746.253 139.5C742.069 139.5 739.977 137.503 739.977 133.508C739.977 131.701 740.5 130.132 741.546 128.801C742.592 127.469 743.733 126.471 744.969 125.805L746.253 125.092C744.732 124.521 743.305 124.236 741.974 124.236C740.832 124.236 739.739 124.711 738.693 125.662C737.647 126.613 736.933 127.945 736.553 129.657C735.887 132.415 735.126 136.124 734.27 140.784C733.415 145.444 732.654 149.39 731.988 152.624C731.322 155.857 730.989 157.569 730.989 157.759C730.989 157.949 733.605 158.045 738.835 158.045C743.115 158.045 745.588 158.092 746.253 158.187C746.919 158.282 747.442 158.568 747.822 159.043C747.918 159.424 747.822 160.232 747.537 161.468C747.252 162.705 747.014 163.465 746.824 163.751C746.634 164.226 746.206 164.464 745.54 164.464C744.874 164.464 742.307 164.511 737.837 164.607H729.848L726.567 182.01C722.002 205.595 718.816 220.336 717.01 226.232C714.442 234.316 711.113 240.307 707.024 244.207C703.505 247.25 700.034 248.771 696.61 248.771C693.567 248.771 690.809 247.868 688.336 246.061C685.864 244.254 684.627 241.686 684.627 238.358C684.627 234.839 685.626 232.271 687.623 230.655C689.62 229.038 691.617 228.23 693.615 228.23C697.799 228.23 699.891 230.227 699.891 234.221C699.891 236.028 699.368 237.597 698.322 238.928C697.276 240.26 696.135 241.258 694.898 241.924L693.615 242.637Z" fill="#2CAC0B"/>
<path d="M758.885 175.672C758.885 175 759.019 174.227 759.288 173.353C759.557 172.479 759.96 172.042 760.498 172.042C760.566 172.042 762.986 171.874 767.76 171.537C772.534 171.201 774.988 170.999 775.122 170.932C775.929 170.932 776.333 171.201 776.333 171.739C776.333 172.21 774.652 179.236 771.29 192.818C767.928 206.131 766.247 213.022 766.247 213.493C767.525 212.821 768.5 212.182 769.172 211.577C770.786 210.367 773.105 208.249 776.131 205.223C779.157 202.197 781.51 200.147 783.191 199.071C785.88 197.255 788.435 196.348 790.856 196.348C792.873 196.348 794.453 196.986 795.596 198.264C796.739 199.541 797.344 201.357 797.411 203.71C797.411 205.391 797.176 206.803 796.705 207.946C796.235 209.089 795.596 209.93 794.789 210.467C793.982 211.005 793.276 211.375 792.671 211.577C792.066 211.779 791.461 211.879 790.856 211.879C789.511 211.879 788.435 211.51 787.628 210.77C786.822 210.03 786.418 209.055 786.418 207.845C786.418 206.164 786.956 204.786 788.032 203.71C789.108 202.634 790.183 201.928 791.259 201.592L792.873 201.29C792.066 200.483 791.259 200.079 790.452 200.079H790.049C787.897 200.281 785.779 201.122 783.695 202.601C781.611 204.08 779.157 206.232 776.333 209.055C773.509 211.879 771.29 213.93 769.676 215.208C769.811 215.275 770.315 215.376 771.189 215.51C772.063 215.645 772.87 215.846 773.61 216.115C774.349 216.384 775.223 216.653 776.232 216.922C777.24 217.191 778.148 217.662 778.955 218.334C779.762 219.007 780.501 219.612 781.174 220.15C781.846 220.687 782.418 221.562 782.888 222.772C783.359 223.982 783.561 225.091 783.493 226.1C783.493 227.243 783.325 228.621 782.989 230.235C782.653 231.849 782.451 233.194 782.384 234.269C782.384 236.959 783.292 238.304 785.107 238.304C788.334 238.304 790.957 234.303 792.974 226.302C793.108 225.764 793.781 225.495 794.991 225.495H795.394C796.47 225.495 797.008 225.797 797.008 226.403C797.008 226.739 796.907 227.209 796.705 227.815C793.949 237.295 789.982 242.035 784.804 242.035C781.779 242.035 779.325 241.161 777.442 239.413C775.559 237.665 774.618 235.143 774.618 231.849C774.618 230.639 774.719 229.596 774.921 228.722C775.122 227.848 775.223 227.041 775.223 226.302C775.223 224.823 774.753 223.545 773.811 222.469C772.87 221.393 771.693 220.62 770.281 220.15C768.869 219.679 767.726 219.309 766.852 219.04C765.978 218.771 765.373 218.67 765.037 218.738H764.835C764.028 221.562 763.322 224.285 762.717 226.907C762.112 229.529 761.641 231.479 761.305 232.756C760.969 234.034 760.666 235.278 760.397 236.488C760.129 237.698 759.893 238.505 759.691 238.909C759.49 239.312 759.254 239.749 758.986 240.22C758.717 240.69 758.347 240.993 757.876 241.127C757.002 241.733 756.061 242.035 755.052 242.035C753.909 242.035 753.035 241.699 752.43 241.027C751.825 240.354 751.522 239.783 751.522 239.312C751.522 238.64 752.766 233.261 755.254 223.175C757.742 213.09 760.196 203.172 762.616 193.423L766.348 178.799C766.415 177.925 766.18 177.387 765.642 177.185C765.104 176.984 763.793 176.815 761.709 176.681H761.204C760.532 176.681 760.095 176.681 759.893 176.681C759.691 176.681 759.456 176.58 759.187 176.378C758.918 176.177 758.817 175.941 758.885 175.672Z" fill="#2CAC0B"/>
<path d="M844.514 239.503H844.111C842.497 239.503 841.286 238.561 840.479 236.678V138.617L840.681 40.5561C842.026 38.8074 843.304 37.933 844.514 37.933C846.263 37.933 847.608 38.9419 848.55 40.9596V236.678C847.474 238.561 846.263 239.503 844.918 239.503H844.514Z" fill="#2CAC0B"/>
<path d="M939.912 119.247C939.912 117.499 940.853 116.153 942.737 115.212H1071.27C1073.28 116.288 1074.29 117.633 1074.29 119.247C1074.29 120.727 1073.35 122.005 1071.47 123.081L1007.3 123.283H943.14C940.988 122.61 939.912 121.265 939.912 119.247ZM939.912 158.391C939.912 156.373 940.988 155.028 943.14 154.355H1071.47C1073.35 155.701 1074.29 157.046 1074.29 158.391C1074.29 160.14 1073.28 161.485 1071.27 162.426H942.737C940.853 161.485 939.912 160.14 939.912 158.391Z" fill="black"/>
<path d="M1145.88 131.354C1146.01 130.546 1146.22 129.47 1146.49 128.125C1146.75 126.78 1147.56 124.224 1148.91 120.458C1150.25 116.692 1151.6 113.53 1152.94 110.975C1154.29 108.419 1156.44 105.93 1159.4 103.509C1162.36 101.088 1165.32 99.9445 1168.28 100.079C1171.24 100.214 1174.13 100.684 1176.95 101.491C1179.78 102.298 1181.8 103.509 1183.01 105.123C1184.22 106.737 1185.29 108.217 1186.23 109.562C1187.18 110.907 1187.71 112.185 1187.85 113.396L1188.25 114.808C1188.25 115.077 1188.32 115.212 1188.45 115.212L1190.67 112.992C1198.74 104.383 1208.23 100.079 1219.12 100.079C1221.41 100.079 1223.49 100.214 1225.38 100.483C1227.26 100.752 1229.01 101.222 1230.62 101.895C1232.24 102.568 1233.52 103.24 1234.46 103.913C1235.4 104.585 1236.41 105.392 1237.48 106.334C1238.56 107.276 1239.23 108.15 1239.5 108.957C1239.77 109.764 1240.31 110.638 1241.12 111.58C1241.92 112.522 1242.19 113.329 1241.92 114.001C1241.65 114.674 1241.86 115.279 1242.53 115.817C1243.2 116.355 1243.34 116.826 1242.93 117.23L1244.55 115.212C1253.02 105.123 1263.04 100.079 1274.61 100.079C1281.87 100.079 1287.73 101.895 1292.16 105.527C1296.6 109.159 1298.89 114.472 1299.02 121.467C1299.02 128.327 1296.47 138.954 1291.36 153.347C1286.25 167.74 1283.69 176.349 1283.69 179.173C1283.82 181.057 1284.16 182.334 1284.7 183.007C1285.24 183.68 1286.25 184.016 1287.73 184.016C1291.49 184.016 1294.99 181.998 1298.22 177.963C1301.45 173.927 1304.07 168.412 1306.09 161.418C1306.49 159.938 1306.89 159.064 1307.3 158.794C1307.7 158.525 1308.78 158.391 1310.53 158.391C1313.22 158.391 1314.56 158.929 1314.56 160.005C1314.56 160.14 1314.29 161.148 1313.75 163.032C1312.68 166.933 1311.2 170.766 1309.32 174.533C1307.43 178.299 1304.34 182.065 1300.03 185.832C1295.73 189.598 1291.09 191.414 1286.11 191.28C1279.79 191.28 1275.22 189.464 1272.39 185.832C1269.57 182.2 1268.15 178.434 1268.15 174.533C1268.15 171.977 1270.57 163.906 1275.42 150.32C1280.26 136.734 1282.75 126.511 1282.88 119.651C1282.88 111.714 1279.92 107.746 1274.01 107.746H1273C1261.43 107.746 1251.68 114.539 1243.74 128.125L1242.33 130.546L1235.67 157.584C1231.23 175.205 1228.67 184.688 1228 186.034C1226.25 189.666 1223.36 191.481 1219.33 191.481C1217.58 191.481 1216.16 191.011 1215.09 190.069C1214.01 189.127 1213.27 188.32 1212.87 187.648C1212.46 186.975 1212.26 186.303 1212.26 185.63C1212.26 184.15 1214.55 174.533 1219.12 156.777L1226.39 127.318C1226.79 125.3 1226.99 122.745 1226.99 119.651C1226.99 111.714 1224.03 107.746 1218.11 107.746H1217.11C1205.54 107.746 1195.79 114.539 1187.85 128.125L1186.44 130.546L1179.78 157.584C1175.34 175.205 1172.78 184.688 1172.11 186.034C1170.36 189.666 1167.47 191.481 1163.43 191.481C1161.69 191.481 1160.27 191.078 1159.2 190.271C1158.12 189.464 1157.38 188.657 1156.98 187.85C1156.57 187.042 1156.44 186.37 1156.57 185.832C1156.57 184.083 1159.13 173.053 1164.24 152.741C1169.49 132.026 1172.11 121.198 1172.11 120.256C1172.51 118.238 1172.72 116.422 1172.72 114.808C1172.72 109.966 1171.03 107.545 1167.67 107.545C1164.71 107.545 1162.22 109.428 1160.21 113.194C1158.19 116.961 1156.64 121.063 1155.57 125.502C1154.49 129.941 1153.68 132.362 1153.14 132.766C1152.87 133.035 1151.8 133.17 1149.92 133.17H1147.09C1146.28 132.362 1145.88 131.757 1145.88 131.354Z" fill="black"/>
<path d="M1325.46 157.584C1325.46 143.998 1330.57 131.085 1340.79 118.844C1351.01 106.603 1362.52 100.416 1375.29 100.281C1382.15 100.281 1388.21 103.577 1393.45 110.168C1395.61 106.132 1398.7 104.115 1402.74 104.115C1404.48 104.115 1406.03 104.653 1407.38 105.729C1408.72 106.805 1409.39 108.15 1409.39 109.764C1409.39 111.513 1406.91 122.274 1401.93 142.048C1396.95 161.821 1394.4 172.986 1394.26 175.542C1394.26 178.905 1394.73 181.124 1395.67 182.2C1396.61 183.276 1398.03 183.882 1399.91 184.016C1401.12 183.882 1402.47 183.276 1403.95 182.2C1406.77 179.51 1409.53 173.053 1412.22 162.83C1413.03 160.14 1413.7 158.728 1414.24 158.593C1414.51 158.459 1415.18 158.391 1416.25 158.391H1417.06C1419.62 158.391 1420.89 158.997 1420.89 160.207C1420.89 161.014 1420.56 162.83 1419.89 165.655C1419.21 168.48 1417.87 172.112 1415.85 176.551C1413.83 180.99 1411.68 184.353 1409.39 186.639C1407.65 188.388 1405.49 189.8 1402.94 190.876C1401.86 191.146 1400.25 191.28 1398.09 191.28C1393.52 191.28 1389.69 190.271 1386.59 188.253C1383.5 186.236 1381.48 184.151 1380.54 181.999L1379.33 178.972C1379.2 178.837 1378.93 178.905 1378.52 179.174C1378.25 179.443 1377.98 179.712 1377.72 179.981C1369.78 187.514 1361.71 191.28 1353.5 191.28C1346.1 191.28 1339.58 188.59 1333.93 183.209C1328.28 177.829 1325.46 169.287 1325.46 157.584ZM1389.62 123.081C1389.62 122.274 1389.28 120.795 1388.61 118.642C1387.94 116.49 1386.39 114.136 1383.97 111.58C1381.55 109.025 1378.46 107.679 1374.69 107.545C1369.98 107.545 1365.47 109.63 1361.17 113.8C1356.87 117.97 1353.5 123.418 1351.08 130.143C1347.18 140.77 1344.42 151.8 1342.81 163.234C1342.81 163.637 1342.81 164.377 1342.81 165.453C1342.81 166.529 1342.74 167.336 1342.61 167.875C1342.61 173.928 1343.82 178.098 1346.24 180.384C1348.66 182.671 1351.55 183.882 1354.92 184.016C1360.03 184.016 1365.07 181.797 1370.05 177.358C1375.03 172.919 1377.98 169.489 1378.93 167.067C1379.2 166.529 1381.01 159.333 1384.37 145.478C1387.74 131.623 1389.49 124.157 1389.62 123.081Z" fill="black"/>
<path d="M1432.95 178.301C1433.62 174.307 1436.19 169.695 1440.66 164.464C1445.13 159.233 1450.64 156.57 1457.2 156.475C1460.53 156.475 1463.58 157.331 1466.33 159.043C1469.09 160.755 1471.14 162.895 1472.47 165.462C1476.46 159.471 1481.27 156.475 1486.88 156.475C1490.39 156.475 1493.44 157.522 1496.01 159.614C1498.57 161.706 1499.9 164.511 1500 168.03C1500 170.788 1499.33 173.023 1498 174.735C1496.67 176.447 1495.39 177.493 1494.15 177.873C1492.91 178.254 1491.82 178.444 1490.87 178.444C1489.06 178.444 1487.59 177.921 1486.45 176.875C1485.31 175.829 1484.74 174.45 1484.74 172.738C1484.74 168.363 1487.11 165.367 1491.87 163.751C1490.82 162.514 1488.92 161.896 1486.16 161.896C1484.93 161.896 1484.02 161.991 1483.45 162.181C1479.84 163.703 1477.18 166.841 1475.46 171.597C1469.76 192.614 1466.9 204.882 1466.9 208.401C1466.9 211.064 1467.67 212.966 1469.19 214.107C1470.71 215.248 1472.37 215.819 1474.18 215.819C1477.7 215.819 1481.17 214.25 1484.59 211.111C1488.02 207.973 1490.35 204.121 1491.58 199.556C1491.87 198.605 1492.15 198.082 1492.44 197.987C1492.72 197.892 1493.49 197.797 1494.72 197.702H1495.29C1496.72 197.702 1497.43 198.082 1497.43 198.843C1497.43 198.938 1497.34 199.461 1497.15 200.412C1495.63 205.833 1492.68 210.636 1488.3 214.82C1483.93 219.005 1478.84 221.097 1473.04 221.097C1466.38 221.097 1461.34 218.101 1457.92 212.11C1454.02 218.006 1449.55 220.954 1444.51 220.954H1443.65C1438.99 220.954 1435.66 219.718 1433.67 217.245C1431.67 214.773 1430.62 212.157 1430.53 209.399C1430.53 206.356 1431.43 203.884 1433.24 201.982C1435.05 200.079 1437.19 199.128 1439.66 199.128C1443.75 199.128 1445.79 201.126 1445.79 205.12C1445.79 207.022 1445.22 208.686 1444.08 210.113C1442.94 211.539 1441.85 212.49 1440.8 212.966C1439.75 213.441 1439.14 213.679 1438.94 213.679L1438.52 213.822C1438.52 213.917 1438.8 214.107 1439.37 214.392C1439.94 214.678 1440.7 215.01 1441.66 215.391C1442.61 215.771 1443.51 215.914 1444.37 215.819C1447.79 215.819 1450.74 213.679 1453.21 209.399C1454.07 207.878 1455.16 204.644 1456.49 199.699C1457.82 194.754 1459.15 189.618 1460.49 184.293C1461.82 178.967 1462.58 175.829 1462.77 174.878C1463.24 172.31 1463.48 170.455 1463.48 169.314C1463.48 166.651 1462.77 164.749 1461.34 163.608C1459.91 162.467 1458.3 161.896 1456.49 161.896C1452.69 161.896 1449.12 163.418 1445.79 166.461C1442.46 169.504 1440.13 173.403 1438.8 178.159C1438.61 179.014 1438.37 179.49 1438.09 179.585C1437.8 179.68 1437.04 179.775 1435.81 179.87H1433.81C1433.24 179.3 1432.95 178.777 1432.95 178.301Z" fill="black"/>
</svg>
