<svg width="1405" height="248" viewBox="0 0 1405 248" fill="none" xmlns="http://www.w3.org/2000/svg">
<path d="M1.97896 117.45H1.78106C0.98948 117.45 0.395792 116.988 0 116.065V67.9762L0.098948 19.8875C0.758601 19.0299 1.38527 18.6012 1.97896 18.6012C2.83651 18.6012 3.49616 19.0959 3.95792 20.0854V116.065C3.4302 116.988 2.83651 117.45 2.17686 117.45H1.97896Z" fill="#EF224B"/>
<path d="M20.4825 92.7136C19.3611 92.7136 18.8004 92.3837 18.8004 91.7241C18.8004 91.5921 18.8993 91.1304 19.0972 90.3388C19.3611 89.2834 19.6249 88.6897 19.8888 88.5577C20.1527 88.4258 20.9113 88.3269 22.1646 88.2609C23.9457 88.2609 25.9246 88.1619 28.1015 87.964C29.025 87.7662 29.6517 87.3704 29.9815 86.7767C30.1134 86.4468 32.4552 77.1787 37.0068 58.9723C41.5584 40.7659 43.8672 31.5307 43.9331 31.2669C43.9331 30.8051 43.8012 30.5742 43.5374 30.5742C43.0096 30.3763 41.2615 30.2114 38.2931 30.0795H35.2257C34.8299 29.6837 34.632 29.4198 34.632 29.2879C34.632 29.156 34.698 28.5953 34.8299 27.6058C35.0938 26.4844 35.4236 25.7917 35.8194 25.5279H89.1524C89.6141 25.7917 89.845 26.1546 89.845 26.6163C89.845 26.9461 89.4162 30.6402 88.5587 37.6985C87.7011 44.7568 87.2394 48.3849 87.1734 48.5828C87.0415 49.0445 86.3818 49.2754 85.1944 49.2754H84.0071C83.5453 48.9456 83.3144 48.5168 83.3144 47.9891C83.3144 47.9231 83.4134 47.1315 83.6113 45.6143C83.8092 44.0971 83.9081 42.349 83.9081 40.3701C83.9081 38.3911 83.6772 36.775 83.2155 35.5216C82.7537 34.2683 82.1271 33.2458 81.3355 32.4542C80.5439 31.6627 79.3235 31.1349 77.6744 30.8711C76.0253 30.6072 74.3432 30.3763 72.6281 30.1784C70.913 29.9805 68.5382 29.9476 65.5038 30.0795H63.228C57.8188 30.1455 54.9494 30.2444 54.6195 30.3763C54.2897 30.5083 54.0588 30.7721 53.9269 31.1679C53.8609 31.2339 52.7395 35.5546 50.5627 44.1301L47.3963 56.8944H52.8385C53.0364 56.8944 53.795 56.8944 55.1143 56.8944C56.4336 56.8944 57.3571 56.8614 57.8848 56.7954C58.4125 56.7295 59.1381 56.6305 60.0617 56.4986C60.9852 56.3667 61.7768 56.1358 62.4364 55.806C63.0961 55.4761 63.6568 55.0803 64.1185 54.6186C64.9761 53.827 65.7017 52.7386 66.2954 51.3533C66.8891 49.968 67.3178 48.7147 67.5817 47.5933C67.8456 46.4719 68.0105 45.8782 68.0764 45.8122C68.2743 45.4824 68.901 45.3175 69.9565 45.3175H71.1438C71.6056 45.6473 71.8365 45.9771 71.8365 46.307C71.8365 46.5049 70.814 50.8256 68.7691 59.2691C66.7242 67.7127 65.6027 72.0664 65.4049 72.3303C65.2729 72.792 64.6133 73.0229 63.4259 73.0229H62.2385C61.7768 72.6271 61.5459 72.2313 61.5459 71.8355C61.5459 71.6376 61.7108 70.912 62.0406 69.6587C62.3704 68.4053 62.5354 67.086 62.5354 65.7008C62.5354 63.7878 61.8757 62.6004 60.5564 62.1386C59.2371 61.6769 56.3016 61.446 51.75 61.446H46.3079L43.1416 74.0124C41.0307 82.1921 39.9752 86.4798 39.9752 86.8756C39.9752 87.7991 42.9107 88.2609 48.7816 88.2609H51.2553C51.6511 88.6567 51.849 88.8876 51.849 88.9535C51.849 89.0195 51.783 89.6791 51.6511 90.9325C51.3872 91.79 51.0574 92.4167 50.6616 92.8125H48.9795C46.2749 92.6806 41.2945 92.6146 34.0383 92.6146C29.7506 92.6146 26.4853 92.6146 24.2425 92.6146C21.9997 92.6146 20.7463 92.6476 20.4825 92.7136Z" fill="#EF224B"/>
<path d="M81.4641 1.97882C81.4641 1.45109 81.6291 0.989337 81.9589 0.593545C82.2887 0.197753 82.7835 -0.000142783 83.4431 -0.000142783C83.9049 -0.000142783 84.3007 0.16477 84.6305 0.494597C84.9603 0.758458 85.2901 1.38513 85.62 2.37461C86.2796 4.81532 87.6319 6.69534 89.6768 8.01464C90.4024 8.4764 90.7653 9.07009 90.7653 9.7957C90.7653 10.3894 90.6663 10.7852 90.4684 10.9831C90.2705 11.181 89.8088 11.4778 89.0831 11.8736C86.2466 13.3248 83.7729 15.4028 81.662 18.1073C81.5301 18.2393 81.3652 18.4372 81.1673 18.701C80.9694 18.9649 80.8045 19.1628 80.6726 19.2947C80.5406 19.4266 80.3757 19.4926 80.1778 19.4926C79.9799 19.4926 79.749 19.5256 79.4852 19.5916C79.0234 19.5916 78.5947 19.4266 78.1989 19.0968C77.8031 18.767 77.5722 18.2722 77.5062 17.6126C77.5062 16.3593 79.0564 14.4133 82.1568 11.7747H65.2367L48.3166 11.6757C47.459 11.082 47.0303 10.4554 47.0303 9.7957C47.0303 9.33395 47.459 8.67429 48.3166 7.81675H83.8389C82.2557 5.31006 81.4641 3.36409 81.4641 1.97882Z" fill="#EF224B"/>
<path d="M110.004 63.0919C109.865 63.0919 109.678 63.0919 109.445 63.0919C108.279 63.0919 107.579 63.0686 107.346 63.022C107.113 62.9753 106.996 62.7188 106.996 62.2525C106.996 60.9933 107.253 60.2237 107.766 59.9439C107.859 59.8973 110.121 59.874 114.552 59.874C118.143 59.874 120.195 59.874 120.708 59.874C121.221 59.874 121.547 60.0139 121.687 60.2937C131.528 83.4259 136.541 95.2951 136.728 95.9014L140.505 81.0007C142.977 71.1602 144.213 65.9135 144.213 65.2606C144.213 64.0014 142.721 63.2785 139.736 63.0919C138.617 63.0919 138.057 62.8354 138.057 62.3224C138.057 62.2291 138.104 61.9493 138.197 61.4829C138.383 60.7367 138.523 60.2937 138.617 60.1538C138.71 60.0139 138.943 59.9206 139.316 59.874C139.456 59.874 140.179 59.8973 141.485 59.9439C142.791 59.9905 144.726 60.0372 147.291 60.0838C149.623 60.0838 151.395 60.0605 152.608 60.0139C153.82 59.9672 154.52 59.9439 154.706 59.9439C155.406 59.9439 155.756 60.1771 155.756 60.6435C155.756 61.6695 155.569 62.3691 155.196 62.7422C155.103 62.9753 154.59 63.0919 153.657 63.0919C150.346 63.2785 148.27 64.2112 147.431 65.8902L137.008 107.164C136.914 107.491 136.425 107.654 135.538 107.654C134.886 107.654 134.489 107.607 134.349 107.514C134.209 107.374 131.201 100.309 125.325 86.3174L116.44 65.4005L111.893 83.5891C108.862 95.5283 107.346 101.708 107.346 102.128C107.579 103.667 109.258 104.436 112.383 104.436H113.082C113.362 104.669 113.502 104.856 113.502 104.996C113.502 105.136 113.456 105.579 113.362 106.325C113.176 106.931 112.943 107.374 112.663 107.654H111.753C110.308 107.561 107.789 107.514 104.198 107.514C102.892 107.514 101.703 107.514 100.63 107.514C99.5576 107.514 98.6948 107.514 98.0419 107.514C97.389 107.514 96.9926 107.537 96.8527 107.584C96.1531 107.584 95.8033 107.374 95.8033 106.954C95.8033 106.768 95.8733 106.395 96.0132 105.835C96.1531 105.276 96.2697 104.949 96.363 104.856C96.4562 104.576 96.9926 104.436 97.972 104.436C101.143 104.296 103.195 103.387 104.128 101.708C104.315 101.428 105.97 94.9687 109.095 82.3299L113.852 63.3018C113.759 63.2552 112.476 63.1852 110.004 63.0919Z" fill="#EF224B"/>
<path d="M174.465 117.45H174.267C173.476 117.45 172.882 116.988 172.486 116.065V67.9762L172.585 19.8875C173.245 19.0299 173.871 18.6012 174.465 18.6012C175.323 18.6012 175.982 19.0959 176.444 20.0854V116.065C175.916 116.988 175.323 117.45 174.663 117.45H174.465Z" fill="#EF224B"/>
<path d="M221.247 58.4782C221.247 57.6207 221.709 56.961 222.633 56.4993H285.663C286.652 57.027 287.147 57.6866 287.147 58.4782C287.147 59.2038 286.685 59.8305 285.762 60.3582L254.296 60.4572H222.831C221.775 60.1273 221.247 59.4677 221.247 58.4782ZM221.247 77.6741C221.247 76.6846 221.775 76.025 222.831 75.6952H285.762C286.685 76.3548 287.147 77.0145 287.147 77.6741C287.147 78.5317 286.652 79.1913 285.663 79.6531H222.633C221.709 79.1913 221.247 78.5317 221.247 77.6741Z" fill="black"/>
<path d="M329.477 68.0756C329.477 63.524 329.807 59.2032 330.467 55.1134C331.126 51.0235 331.885 47.4944 332.742 44.526C333.6 41.5575 334.82 38.655 336.403 35.8185C337.987 32.982 339.24 30.7722 340.164 29.189C341.087 27.6059 342.472 25.8908 344.319 24.0437C346.166 22.1967 347.255 21.0753 347.585 20.6795C347.914 20.2837 348.739 19.5911 350.058 18.6016H351.345H351.74C352.664 18.6016 353.126 18.8984 353.126 19.4921C353.126 19.69 352.565 20.3827 351.444 21.57C350.322 22.7574 348.97 24.5055 347.387 26.8143C345.804 29.1231 344.187 31.9596 342.538 35.3238C340.889 38.688 339.504 43.2396 338.382 48.9786C337.261 54.7176 336.7 61.0833 336.7 68.0756C336.7 75.0679 337.261 81.4006 338.382 87.0736C339.504 92.7466 340.856 97.3312 342.439 100.827C344.022 104.324 345.639 107.16 347.288 109.337C348.937 111.514 350.322 113.262 351.444 114.581C352.565 115.9 353.126 116.593 353.126 116.659C353.126 117.253 352.631 117.55 351.641 117.55H351.345H350.058L347.288 115.175C341.087 109.568 336.568 102.575 333.732 94.1978C330.895 85.8202 329.477 77.1128 329.477 68.0756Z" fill="#D46FA0"/>
<path d="M379.742 35.6203L378.456 36.1151C377.532 36.4449 376.213 36.7747 374.498 37.1046C372.783 37.4344 370.87 37.6653 368.759 37.7972H366.879V33.2456H368.759C371.859 33.1137 374.729 32.6189 377.368 31.7614C380.006 30.9038 381.853 30.1122 382.909 29.3866C383.964 28.661 384.888 27.9354 385.679 27.2098C385.811 27.0119 386.207 26.9129 386.867 26.9129C387.46 26.9129 388.021 27.1108 388.549 27.5066V57.092L388.648 86.7764C389.109 87.2382 389.505 87.535 389.835 87.667C390.165 87.7989 390.956 87.9308 392.21 88.0628C393.463 88.1947 395.508 88.2606 398.345 88.2606H400.917V92.8123H399.829C398.443 92.6144 393.199 92.5154 384.096 92.5154C375.125 92.5154 369.946 92.6144 368.561 92.8123H367.374V88.2606H369.946C371.398 88.2606 372.651 88.2606 373.706 88.2606C374.762 88.2606 375.587 88.2277 376.18 88.1617C376.774 88.0957 377.302 87.9968 377.763 87.8649C378.225 87.7329 378.489 87.667 378.555 87.667C378.621 87.667 378.819 87.502 379.149 87.1722C379.478 86.8424 379.676 86.7105 379.742 86.7764V35.6203Z" fill="#D46FA0"/>
<path d="M417.639 34.9278C421.333 29.5846 426.38 26.9131 432.778 26.9131C435.945 26.9131 439.111 27.7706 442.277 29.4857C445.444 31.2008 448.016 34.2352 449.995 38.5889C452.436 44.064 453.656 51.5841 453.656 61.1491C453.656 71.3737 452.238 79.1906 449.402 84.5997C448.082 87.3703 446.268 89.5801 443.96 91.2292C441.651 92.8784 439.639 93.9008 437.924 94.2966C436.209 94.6924 434.527 94.9233 432.877 94.9893C431.162 94.9893 429.447 94.7914 427.732 94.3956C426.017 93.9998 424.005 92.9443 421.696 91.2292C419.388 89.5141 417.573 87.3043 416.254 84.5997C413.418 79.1906 411.999 71.3737 411.999 61.1491C411.999 49.6711 413.879 40.9307 417.639 34.9278ZM439.903 33.7405C437.924 31.6296 435.582 30.5741 432.877 30.5741C430.107 30.5741 427.732 31.6296 425.753 33.7405C424.104 35.4556 423.016 37.8303 422.488 40.8647C421.96 43.8991 421.696 50.2318 421.696 59.8627C421.696 70.2852 421.96 77.1456 422.488 80.4439C423.016 83.7422 424.203 86.3478 426.05 88.2608C427.897 90.2398 430.173 91.2292 432.877 91.2292C435.516 91.2292 437.759 90.2398 439.606 88.2608C441.519 86.2818 442.706 83.5113 443.168 79.9492C443.63 76.387 443.894 69.6916 443.96 59.8627C443.96 50.2978 443.696 43.9981 443.168 40.9637C442.64 37.9293 441.552 35.5215 439.903 33.7405Z" fill="#D46FA0"/>
<path d="M467.113 34.9278C470.807 29.5846 475.854 26.9131 482.252 26.9131C485.419 26.9131 488.585 27.7706 491.751 29.4857C494.918 31.2008 497.49 34.2352 499.469 38.5889C501.91 44.064 503.13 51.5841 503.13 61.1491C503.13 71.3737 501.712 79.1906 498.875 84.5997C497.556 87.3703 495.742 89.5801 493.433 91.2292C491.125 92.8784 489.113 93.9008 487.398 94.2966C485.682 94.6924 484 94.9233 482.351 94.9893C480.636 94.9893 478.921 94.7914 477.206 94.3956C475.491 93.9998 473.479 92.9443 471.17 91.2292C468.861 89.5141 467.047 87.3043 465.728 84.5997C462.891 79.1906 461.473 71.3737 461.473 61.1491C461.473 49.6711 463.353 40.9307 467.113 34.9278ZM489.376 33.7405C487.398 31.6296 485.056 30.5741 482.351 30.5741C479.581 30.5741 477.206 31.6296 475.227 33.7405C473.578 35.4556 472.489 37.8303 471.962 40.8647C471.434 43.8991 471.17 50.2318 471.17 59.8627C471.17 70.2852 471.434 77.1456 471.962 80.4439C472.489 83.7422 473.677 86.3478 475.524 88.2608C477.371 90.2398 479.647 91.2292 482.351 91.2292C484.99 91.2292 487.233 90.2398 489.08 88.2608C490.993 86.2818 492.18 83.5113 492.642 79.9492C493.104 76.387 493.367 69.6916 493.433 59.8627C493.433 50.2978 493.169 43.9981 492.642 40.9637C492.114 37.9293 491.026 35.5215 489.376 33.7405Z" fill="#D46FA0"/>
<path d="M519.061 28.7929C519.061 28.1332 519.193 27.3746 519.457 26.5171C519.721 25.6595 520.116 25.2307 520.644 25.2307C520.71 25.2307 523.085 25.0658 527.768 24.736C532.452 24.4062 534.86 24.2083 534.992 24.1423C535.783 24.1423 536.179 24.4062 536.179 24.9339C536.179 25.3957 534.53 32.289 531.232 45.614C527.933 58.6752 526.284 65.4366 526.284 65.8984C527.538 65.2387 528.494 64.612 529.154 64.0183C530.737 62.831 533.013 60.7531 535.981 57.7846C538.95 54.8162 541.258 52.8042 542.907 51.7488C545.546 49.9677 548.053 49.0772 550.428 49.0772C552.406 49.0772 553.957 49.7039 555.078 50.9572C556.199 52.2106 556.793 53.9916 556.859 56.3004C556.859 57.9495 556.628 59.3348 556.167 60.4562C555.705 61.5776 555.078 62.4022 554.287 62.9299C553.495 63.4576 552.802 63.8204 552.209 64.0183C551.615 64.2162 551.021 64.3152 550.428 64.3152C549.108 64.3152 548.053 63.9524 547.261 63.2268C546.47 62.5011 546.074 61.5446 546.074 60.3573C546.074 58.7081 546.602 57.3558 547.657 56.3004C548.712 55.245 549.768 54.5523 550.823 54.2225L552.406 53.9257C551.615 53.1341 550.823 52.7383 550.032 52.7383H549.636C547.525 52.9362 545.447 53.7607 543.402 55.212C541.357 56.6632 538.95 58.7741 536.179 61.5446C533.408 64.3152 531.232 66.3271 529.648 67.5805C529.78 67.6464 530.275 67.7454 531.133 67.8773C531.99 68.0092 532.782 68.2071 533.507 68.471C534.233 68.7349 535.091 68.9987 536.08 69.2626C537.07 69.5264 537.96 69.9882 538.752 70.6479C539.543 71.3075 540.269 71.9012 540.929 72.4289C541.588 72.9566 542.149 73.8142 542.611 75.0016C543.072 76.1889 543.27 77.2774 543.204 78.2669C543.204 79.3883 543.039 80.7406 542.71 82.3237C542.38 83.9069 542.182 85.2262 542.116 86.2816C542.116 88.9203 543.006 90.2396 544.787 90.2396C547.954 90.2396 550.526 86.3146 552.505 78.4647C552.637 77.937 553.297 77.6732 554.484 77.6732H554.88C555.936 77.6732 556.463 77.97 556.463 78.5637C556.463 78.8935 556.364 79.3553 556.167 79.949C553.462 89.2501 549.57 93.9006 544.491 93.9006C541.522 93.9006 539.114 93.0431 537.267 91.328C535.42 89.6129 534.497 87.1392 534.497 83.9069C534.497 82.7195 534.596 81.6971 534.794 80.8395C534.992 79.982 535.091 79.1904 535.091 78.4647C535.091 77.0135 534.629 75.7602 533.705 74.7047C532.782 73.6493 531.627 72.8907 530.242 72.4289C528.857 71.9672 527.735 71.6044 526.878 71.3405C526.02 71.0766 525.427 70.9777 525.097 71.0437H524.899C524.107 73.8142 523.415 76.4858 522.821 79.0584C522.227 81.6311 521.766 83.5441 521.436 84.7974C521.106 86.0508 520.809 87.2711 520.545 88.4585C520.281 89.6459 520.051 90.4375 519.853 90.8332C519.655 91.229 519.424 91.6578 519.16 92.1196C518.896 92.5813 518.533 92.8782 518.072 93.0101C517.214 93.6038 516.29 93.9006 515.301 93.9006C514.18 93.9006 513.322 93.5708 512.728 92.9112C512.135 92.2515 511.838 91.6908 511.838 91.229C511.838 90.5694 513.058 85.2922 515.499 75.3974C517.94 65.5026 520.347 55.7727 522.722 46.2077L526.383 31.8603C526.449 31.0027 526.218 30.475 525.691 30.2771C525.163 30.0792 523.876 29.9143 521.832 29.7823H521.337C520.677 29.7823 520.248 29.7823 520.051 29.7823C519.853 29.7823 519.622 29.6834 519.358 29.4855C519.094 29.2876 518.995 29.0567 519.061 28.7929Z" fill="#D46FA0"/>
<path d="M589.413 88.5571C588.423 89.4146 586.972 90.3382 585.059 91.3276C583.146 92.3171 581.134 92.8119 579.023 92.8119C574.868 92.8119 571.536 91.3276 569.03 88.3592C566.523 85.3908 565.237 81.5978 565.171 76.9802C565.171 70.0538 567.71 63.6882 572.79 57.8832C577.869 52.0783 583.509 49.1428 589.71 49.0768C592.81 49.0768 595.68 50.66 598.318 53.8264L598.615 53.4306C598.747 53.2327 598.912 53.0348 599.11 52.8369C599.308 52.639 599.605 52.3751 600 52.0453C600.396 51.7155 600.825 51.4846 601.287 51.3527C601.748 51.2207 602.276 51.1218 602.87 51.0558C603.793 51.0558 604.552 51.3527 605.146 51.9463C605.739 52.54 606.069 53.1667 606.135 53.8264C606.135 54.8158 604.255 62.7976 600.495 77.7718C596.735 92.7459 594.756 100.398 594.558 100.728C593.371 104.29 590.831 107.225 586.939 109.534C583.047 111.843 578.595 113.03 573.581 113.096C564.28 113.096 559.63 110.853 559.63 106.368C559.63 104.653 560.223 103.135 561.411 101.816C562.598 100.497 564.115 99.8372 565.962 99.8372C566.952 99.8372 567.875 100.134 568.733 100.728C569.59 101.321 570.052 102.344 570.118 103.795C570.118 104.455 570.052 105.081 569.92 105.675C569.788 106.269 569.557 106.731 569.228 107.06C568.898 107.39 568.634 107.72 568.436 108.05C568.238 108.38 568.007 108.644 567.743 108.841L567.545 109.039H567.644C568.304 109.237 570.283 109.336 573.581 109.336C576.088 109.336 578.067 108.94 579.518 108.149C581.035 107.423 582.454 106.335 583.773 104.884C585.092 103.432 586.016 101.882 586.543 100.233C586.939 98.9796 587.467 96.9347 588.127 94.0982C588.984 90.9318 589.413 89.0848 589.413 88.5571ZM596.636 60.3569L596.24 59.2685C596.042 58.5429 595.878 58.0481 595.746 57.7843C595.614 57.5204 595.416 57.0587 595.152 56.399C594.888 55.7393 594.558 55.2776 594.162 55.0137C593.767 54.7499 593.338 54.3871 592.876 53.9253C592.414 53.4635 591.821 53.1667 591.095 53.0348C590.369 52.9028 589.644 52.8039 588.918 52.7379C586.016 52.7379 583.212 54.486 580.508 57.9822C578.529 60.5548 576.88 64.4798 575.56 69.757C574.241 75.0342 573.581 78.8602 573.581 81.2349C573.581 86.4462 575.626 89.0518 579.716 89.0518C583.41 89.0518 587.038 86.743 590.6 82.1255L591.392 81.136L596.636 60.3569Z" fill="#D46FA0"/>
<path d="M611.776 18.7005L612.171 18.6016C612.501 18.6016 612.831 18.6016 613.161 18.6016H614.348L617.119 20.9763C623.32 26.5834 627.838 33.5757 630.675 41.9533C633.511 50.3309 634.929 59.0383 634.929 68.0756C634.929 72.5612 634.6 76.8819 633.94 81.0378C633.28 85.1936 632.522 88.7227 631.664 91.6252C630.807 94.5277 629.586 97.4301 628.003 100.333C626.42 103.235 625.167 105.445 624.243 106.962C623.32 108.479 621.967 110.161 620.186 112.008C618.405 113.856 617.35 114.944 617.02 115.274C616.69 115.604 615.931 116.23 614.744 117.154C614.546 117.352 614.414 117.484 614.348 117.55H613.161C612.633 117.55 612.27 117.55 612.072 117.55C611.875 117.55 611.71 117.451 611.578 117.253C611.446 117.055 611.347 116.758 611.281 116.362C611.347 116.296 611.71 115.867 612.369 115.076C622.594 104.455 627.706 88.7887 627.706 68.0756C627.706 47.3625 622.594 31.6957 612.369 21.0753C611.71 20.2837 611.347 19.8549 611.281 19.789C611.281 19.2612 611.446 18.8984 611.776 18.7005Z" fill="#D46FA0"/>
<path d="M653.63 68.0756C653.63 63.524 653.96 59.2032 654.62 55.1134C655.279 51.0235 656.038 47.4944 656.896 44.526C657.753 41.5575 658.974 38.655 660.557 35.8185C662.14 32.982 663.393 30.7722 664.317 29.189C665.24 27.6059 666.625 25.8908 668.473 24.0437C670.32 22.1967 671.408 21.0753 671.738 20.6795C672.068 20.2837 672.892 19.5911 674.211 18.6016H675.498H675.894C676.817 18.6016 677.279 18.8984 677.279 19.4921C677.279 19.69 676.718 20.3827 675.597 21.57C674.475 22.7574 673.123 24.5055 671.54 26.8143C669.957 29.1231 668.341 31.9596 666.691 35.3238C665.042 38.688 663.657 43.2396 662.536 48.9786C661.414 54.7176 660.854 61.0833 660.854 68.0756C660.854 75.0679 661.414 81.4006 662.536 87.0736C663.657 92.7466 665.009 97.3312 666.592 100.827C668.176 104.324 669.792 107.16 671.441 109.337C673.09 111.514 674.475 113.262 675.597 114.581C676.718 115.9 677.279 116.593 677.279 116.659C677.279 117.253 676.784 117.55 675.795 117.55H675.498H674.211L671.441 115.175C665.24 109.568 660.722 102.575 657.885 94.1978C655.049 85.8202 653.63 77.1128 653.63 68.0756Z" fill="#D46FA0"/>
<path d="M717.65 64.4143C714.483 69.4277 710.526 71.9344 705.776 71.9344C700.631 71.9344 696.409 69.9884 693.111 66.0964C689.812 62.2045 687.834 58.0487 687.174 53.629C687.042 52.5736 686.976 51.2543 686.976 49.6711V48.8795C686.976 42.7447 689.252 37.4015 693.803 32.8499C697.761 28.892 702.115 26.9131 706.864 26.9131C706.996 26.9131 707.194 26.9131 707.458 26.9131C707.722 26.9131 707.986 26.946 708.25 27.012H708.646C709.437 27.012 710.262 27.078 711.119 27.2099C711.977 27.3418 713.197 27.7376 714.78 28.3973C716.363 29.0569 717.914 30.1124 719.431 31.5636C720.948 33.0148 722.366 34.9608 723.686 37.4015C726.522 43.2065 727.94 50.6606 727.94 59.7638C727.94 68.9989 725.961 76.8158 722.004 83.2144C719.695 86.9085 716.924 89.778 713.692 91.8229C710.46 93.8678 707.029 94.9233 703.401 94.9893C699.377 94.9893 696.079 94.0328 693.507 92.1198C690.934 90.2068 689.615 87.3703 689.549 83.6102C689.483 79.8502 691.231 78.0032 694.793 78.0692C696.244 78.0692 697.464 78.5309 698.454 79.4544C699.443 80.3779 699.938 81.6643 699.938 83.3134C699.938 84.5008 699.641 85.5232 699.048 86.3808C698.454 87.2383 697.926 87.7661 697.464 87.964C697.003 88.1618 696.574 88.3268 696.178 88.4587L695.782 88.5576C695.782 88.6896 696.013 88.8875 696.475 89.1513C696.937 89.4152 697.794 89.745 699.048 90.1408C700.301 90.5366 701.686 90.7015 703.203 90.6355H703.797C707.755 90.6355 711.086 88.5247 713.791 84.3029C716.363 80.6088 717.65 74.2102 717.65 65.107V64.4143ZM706.963 68.2733C710.13 68.2733 712.669 66.6572 714.582 63.4249C716.495 60.1926 717.485 55.8059 717.551 50.2648C717.551 45.1195 717.287 41.4254 716.759 39.1826C716.627 38.5229 716.429 37.8633 716.166 37.2036C715.902 36.544 715.44 35.6864 714.78 34.631C714.121 33.5755 713.131 32.685 711.812 31.9594C710.493 31.2338 708.942 30.904 707.161 30.9699C704.655 30.9699 702.511 31.8605 700.73 33.6415C699.344 35.0928 698.454 36.8079 698.058 38.7868C697.662 40.7658 697.431 44.2289 697.365 49.1763C697.365 54.6515 697.53 58.3455 697.86 60.2585C698.19 62.1715 698.85 63.7217 699.839 64.9091C701.488 67.1519 703.863 68.2733 706.963 68.2733Z" fill="#D46FA0"/>
<path d="M740.012 86.8754C740.012 85.2922 740.573 83.9069 741.694 82.7196C742.816 81.5322 744.234 80.9385 745.949 80.9385C747.532 80.9385 748.917 81.4662 750.105 82.5217C751.292 83.5771 751.919 84.9954 751.985 86.7764C751.985 88.4256 751.424 89.8438 750.303 91.0312C749.181 92.2186 747.763 92.8123 746.048 92.8123C744.333 92.8123 742.915 92.2516 741.793 91.1301C740.672 90.0087 740.078 88.5905 740.012 86.8754Z" fill="#D46FA0"/>
<path d="M766.728 51.5511C766.728 51.5511 766.728 49.0114 766.728 43.9321C766.728 38.8528 768.509 34.7629 772.071 31.6626C775.633 28.5622 779.723 26.979 784.341 26.9131C789.024 26.9131 793.18 28.2983 796.808 31.0689C800.436 33.8394 802.25 37.4345 802.25 41.8542C802.25 43.8332 801.887 45.6802 801.162 47.3953C800.436 49.1104 799.579 50.4957 798.589 51.5511C797.6 52.6065 796.577 53.5301 795.522 54.3216C794.466 55.1132 793.609 55.7069 792.949 56.1027C792.289 56.4985 791.927 56.7624 791.861 56.8943L793.246 57.7848C794.169 58.4445 795.093 59.1041 796.016 59.7638C796.94 60.4234 797.468 60.7862 797.6 60.8522C802.547 64.7442 805.021 69.6586 805.021 75.5955C805.021 80.8067 803.108 85.3253 799.282 89.1513C795.456 92.9773 790.508 94.9233 784.44 94.9893C778.503 94.9893 773.621 93.3071 769.795 89.9429C765.969 86.5787 764.056 82.4229 764.056 77.4755C764.056 70.3512 768.311 64.4143 776.821 59.6648L775.039 58.3785C773.654 57.521 772.764 56.8613 772.368 56.3995C768.608 53.1672 766.728 49.0114 766.728 43.9321V51.5511ZM788.101 54.6185L788.694 54.2227C789.09 53.9588 789.387 53.7609 789.585 53.629C789.783 53.4971 790.113 53.2662 790.574 52.9364C791.036 52.6065 791.432 52.2767 791.762 51.9469C792.092 51.6171 792.454 51.2213 792.85 50.7595C793.246 50.2978 793.609 49.869 793.939 49.4732C794.268 49.0774 794.598 48.5497 794.928 47.89C795.258 47.2304 795.555 46.6697 795.819 46.2079C796.082 45.7462 796.247 45.0865 796.313 44.2289C796.379 43.3714 796.445 42.6458 796.511 42.0521C796.511 39.2156 795.555 36.8079 793.642 34.8289C791.729 32.8499 789.519 31.5966 787.012 31.0689C786.55 31.0029 785.462 30.9699 783.747 30.9699C781.042 30.9699 778.503 31.8275 776.128 33.5426C773.753 35.2577 772.533 37.4015 772.467 39.9742C772.467 41.4914 772.896 42.8767 773.753 44.13C774.611 45.3833 775.468 46.3398 776.326 46.9995C777.183 47.6591 778.833 48.7146 781.273 50.1658C781.735 50.4957 782.098 50.7265 782.362 50.8585L788.101 54.6185ZM784.539 90.7345C788.364 90.7345 791.663 89.6131 794.433 87.3703C797.204 85.1274 798.589 82.4229 798.589 79.2565C798.589 78.1351 798.424 77.0797 798.094 76.0902C797.765 75.1007 797.369 74.2761 796.907 73.6165C796.445 72.9568 795.72 72.2312 794.73 71.4396C793.741 70.6481 792.982 70.0544 792.454 69.6586C791.927 69.2628 790.97 68.6361 789.585 67.7786C788.2 66.921 787.309 66.3603 786.913 66.0964C785.99 65.5028 785 64.8761 783.945 64.2164C782.889 63.5568 782.032 62.9961 781.372 62.5343L780.581 62.0396C780.185 62.0396 779.228 62.6003 777.711 63.7217C776.194 64.8431 774.611 66.6572 772.962 69.1638C771.312 71.6705 770.455 74.3751 770.389 77.2776C770.389 81.1695 771.807 84.3688 774.644 86.8755C777.48 89.3822 780.778 90.6685 784.539 90.7345Z" fill="#D46FA0"/>
<path d="M811.353 64.4141C811.419 64.0184 811.518 63.4906 811.65 62.831C811.782 62.1713 812.178 60.918 812.838 59.071C813.497 57.2239 814.157 55.6737 814.817 54.4204C815.476 53.1671 816.532 51.9467 817.983 50.7593C819.434 49.5719 820.885 49.0112 822.337 49.0772C823.788 49.1432 825.206 49.3741 826.591 49.7698C827.977 50.1656 828.966 50.7593 829.56 51.5509C830.154 52.3425 830.681 53.0681 831.143 53.7278C831.605 54.3874 831.869 55.0141 831.935 55.6078L832.133 56.3004C832.133 56.4323 832.166 56.4983 832.231 56.4983L833.32 55.4099C837.278 51.1881 841.928 49.0772 847.272 49.0772C848.393 49.0772 849.415 49.1432 850.339 49.2751C851.262 49.407 852.12 49.6379 852.912 49.9677C853.703 50.2976 854.33 50.6274 854.792 50.9572C855.253 51.287 855.748 51.6828 856.276 52.1446C856.804 52.6064 857.133 53.0351 857.265 53.4309C857.397 53.8267 857.661 54.2555 858.057 54.7172C858.453 55.179 858.585 55.5748 858.453 55.9046C858.321 56.2344 858.42 56.5313 858.75 56.7952C859.079 57.059 859.145 57.2899 858.947 57.4878L859.739 56.4983C863.895 51.5509 868.809 49.0772 874.482 49.0772C878.044 49.0772 880.914 49.9677 883.091 51.7488C885.268 53.5299 886.389 56.1355 886.455 59.5657C886.455 62.9299 885.202 68.1412 882.695 75.1995C880.188 82.2578 878.935 86.4795 878.935 87.8648C879.001 88.7883 879.166 89.415 879.43 89.7448C879.694 90.0746 880.188 90.2396 880.914 90.2396C882.761 90.2396 884.476 89.2501 886.059 87.2711C887.642 85.2922 888.929 82.5876 889.918 79.1574C890.116 78.4318 890.314 78.003 890.512 77.8711C890.71 77.7391 891.237 77.6732 892.095 77.6732C893.414 77.6732 894.074 77.937 894.074 78.4648C894.074 78.5307 893.942 79.0255 893.678 79.949C893.15 81.862 892.425 83.742 891.501 85.589C890.578 87.436 889.061 89.2831 886.95 91.1301C884.839 92.9771 882.563 93.8677 880.122 93.8017C877.022 93.8017 874.779 92.9112 873.394 91.1301C872.009 89.349 871.316 87.502 871.316 85.589C871.316 84.3357 872.503 80.3777 874.878 73.7153C877.253 67.0528 878.473 62.0394 878.539 58.6752C878.539 54.7832 877.088 52.8372 874.185 52.8372H873.691C868.018 52.8372 863.235 56.1685 859.343 62.831L858.651 64.0184L855.385 77.2774C853.208 85.9188 851.955 90.5694 851.625 91.229C850.768 93.0101 849.349 93.9006 847.371 93.9006C846.513 93.9006 845.82 93.6698 845.293 93.208C844.765 92.7462 844.402 92.3505 844.204 92.0206C844.006 91.6908 843.907 91.361 843.907 91.0311C843.907 90.3055 845.029 85.589 847.272 76.8816L850.834 62.4352C851.032 61.4457 851.131 60.1924 851.131 58.6752C851.131 54.7832 849.679 52.8372 846.777 52.8372H846.282C840.609 52.8372 835.827 56.1685 831.935 62.831L831.242 64.0184L827.977 77.2774C825.8 85.9188 824.547 90.5694 824.217 91.229C823.359 93.0101 821.941 93.9006 819.962 93.9006C819.104 93.9006 818.412 93.7027 817.884 93.3069C817.356 92.9112 816.993 92.5154 816.796 92.1196C816.598 91.7238 816.532 91.394 816.598 91.1301C816.598 90.2725 817.851 84.8634 820.358 74.9026C822.93 64.744 824.217 59.4338 824.217 58.972C824.415 57.9825 824.514 57.092 824.514 56.3004C824.514 53.9257 823.689 52.7383 822.04 52.7383C820.589 52.7383 819.368 53.6618 818.379 55.5088C817.389 57.3559 816.631 59.3678 816.103 61.5447C815.575 63.7215 815.179 64.9089 814.916 65.1068C814.784 65.2387 814.256 65.3047 813.332 65.3047H811.947C811.551 64.9089 811.353 64.612 811.353 64.4141Z" fill="#D46FA0"/>
<path d="M938.007 18.6016C938.6 18.6016 939.095 18.7995 939.491 19.1953C939.887 19.5911 940.085 20.0528 940.085 20.5805C940.085 20.9104 934.379 36.808 922.967 68.2735C911.555 99.7389 905.651 115.834 905.255 116.56C904.793 117.22 904.233 117.55 903.573 117.55C903.111 117.55 902.682 117.385 902.287 117.055C901.891 116.725 901.693 116.263 901.693 115.67C901.693 115.01 907.432 98.9144 918.91 67.3829C930.388 35.8515 936.226 19.9209 936.424 19.5911C936.687 18.9314 937.215 18.6016 938.007 18.6016Z" fill="#D46FA0"/>
<path d="M958.588 64.2158C958.588 62.1049 959.116 59.9611 960.171 57.7842C961.227 55.6074 963.074 53.5954 965.712 51.7484C968.351 49.9014 971.55 49.0108 975.31 49.0768C979.4 49.0768 982.369 49.9673 984.216 51.7484C986.063 53.5294 987.019 55.5084 987.085 57.6853C987.085 59.7962 986.524 61.3463 985.403 62.3358C984.282 63.3253 983.028 63.853 981.643 63.919C980.785 63.919 979.994 63.6551 979.268 63.1274C978.543 62.5997 978.147 61.7421 978.081 60.5548C978.081 59.4993 978.378 58.5758 978.971 57.7842C979.565 56.9926 980.126 56.3989 980.654 56.0031C981.181 55.6074 981.61 55.4095 981.94 55.4095C982.006 55.4095 982.039 55.3765 982.039 55.3105C982.039 55.1126 981.808 54.8158 981.346 54.42C980.884 54.0242 980.06 53.6614 978.872 53.3316C977.685 53.0017 976.399 52.8038 975.013 52.7379C971.847 52.7379 969.538 53.5954 968.087 55.3105C966.636 57.0256 965.877 58.7737 965.811 60.5548C965.811 62.2039 966.438 63.3583 967.691 64.0179C968.945 64.6776 970.759 65.2383 973.133 65.7C975.508 66.1618 977.223 66.6565 978.279 67.1843C982.632 69.0973 984.809 72.2636 984.809 76.6833C984.809 78.5303 984.447 80.3773 983.721 82.2244C982.995 84.0714 981.907 85.9184 980.456 87.7654C979.004 89.6125 976.926 91.0637 974.222 92.1192C971.517 93.1746 968.417 93.7353 964.921 93.8013C959.841 93.8013 956.246 92.8448 954.135 90.9318C952.025 89.0188 950.936 86.776 950.87 84.2033C950.87 81.6307 951.563 79.7836 952.948 78.6622C954.333 77.5408 955.785 76.9801 957.302 76.9801C958.291 76.9801 959.215 77.277 960.072 77.8706C960.93 78.4643 961.392 79.4868 961.458 80.938C961.458 82.6531 960.864 84.1044 959.677 85.2917C958.489 86.4791 957.467 87.0728 956.609 87.0728C956.477 87.1388 956.378 87.1718 956.312 87.1718C956.246 87.1718 956.213 87.2377 956.213 87.3697C956.279 87.5675 956.543 87.8314 957.005 88.1612C957.467 88.4911 958.489 88.9198 960.072 89.4476C961.656 89.9753 963.47 90.2062 965.514 90.1402C967.889 90.1402 969.934 89.7774 971.649 89.0518C973.364 88.3261 974.618 87.4026 975.409 86.2812C976.201 85.1598 976.762 84.1374 977.091 83.2138C977.421 82.2903 977.586 81.4658 977.586 80.7401C977.586 78.8931 976.893 77.5078 975.508 76.5843C974.123 75.6608 972.54 75.1001 970.759 74.9022C968.978 74.7043 967.032 74.2096 964.921 73.418C962.81 72.6264 961.26 71.472 960.27 69.9548C959.149 68.3057 958.588 66.3927 958.588 64.2158Z" fill="#D46FA0"/>
<path d="M999.658 21.9348C998.399 21.9348 997.396 21.5151 996.65 20.6756C995.903 19.8361 995.53 18.8101 995.53 17.5975C995.53 14.2863 996.766 11.4181 999.238 8.99293C1001.71 6.56778 1004.79 5.35521 1008.47 5.35521C1012.72 5.35521 1016.26 6.66106 1019.11 9.27275C1021.95 11.8845 1023.4 15.2657 1023.44 19.4164C1023.44 21.4218 1022.98 23.334 1022.04 25.1528C1021.11 26.9717 1019.99 28.5574 1018.69 29.9098C1017.38 31.2623 1015.51 32.9879 1013.09 35.0866C1011.41 36.5324 1009.08 38.6777 1006.09 41.5226L1001.97 45.4401L1007.28 45.5101C1014.61 45.5101 1018.5 45.3935 1018.97 45.1603C1019.29 45.067 1019.85 42.9916 1020.64 38.9342V38.7243H1023.44V38.9342C1023.4 39.0741 1023.09 41.1961 1022.53 45.3002C1021.97 49.4043 1021.62 51.5496 1021.48 51.7362V51.946H995.53V50.6169V49.7774C995.53 49.4509 995.67 49.1012 995.95 48.7281C996.23 48.355 996.93 47.5388 998.049 46.2796C999.401 44.7872 1000.57 43.4813 1001.55 42.362C1001.97 41.8957 1002.76 41.0329 1003.93 39.7737C1005.09 38.5145 1005.88 37.6517 1006.3 37.1853C1006.72 36.7189 1007.4 35.9494 1008.33 34.8767C1009.27 33.8041 1009.92 33.0112 1010.29 32.4982C1010.66 31.9852 1011.2 31.2856 1011.9 30.3995C1012.6 29.5134 1013.09 28.7672 1013.37 28.1609C1013.65 27.5546 1014 26.8784 1014.42 26.1322C1014.84 25.386 1015.14 24.6398 1015.33 23.8936C1015.51 23.1474 1015.68 22.4478 1015.82 21.7949C1015.96 21.142 1016.03 20.3725 1016.03 19.4864C1016.03 16.5482 1015.23 14.0065 1013.65 11.8611C1012.06 9.71581 1009.8 8.64315 1006.86 8.64315C1005.32 8.64315 1003.97 9.03957 1002.81 9.8324C1001.64 10.6252 1000.82 11.3948 1000.36 12.141C999.891 12.8872 999.658 13.3302 999.658 13.4701C999.658 13.5168 999.774 13.5401 1000.01 13.5401C1000.85 13.5401 1001.71 13.8665 1002.6 14.5195C1003.48 15.1724 1003.93 16.2451 1003.93 17.7375C1003.93 18.9034 1003.55 19.8828 1002.81 20.6756C1002.06 21.4685 1001.01 21.8882 999.658 21.9348Z" fill="#D46FA0"/>
<path d="M1037.9 18.7005L1038.29 18.6016C1038.62 18.6016 1038.95 18.6016 1039.28 18.6016H1040.47L1043.24 20.9763C1049.44 26.5834 1053.96 33.5757 1056.79 41.9533C1059.63 50.3309 1061.05 59.0383 1061.05 68.0756C1061.05 72.5612 1060.72 76.8819 1060.06 81.0378C1059.4 85.1936 1058.64 88.7227 1057.78 91.6252C1056.93 94.5277 1055.71 97.4301 1054.12 100.333C1052.54 103.235 1051.29 105.445 1050.36 106.962C1049.44 108.479 1048.09 110.161 1046.31 112.008C1044.52 113.856 1043.47 114.944 1043.14 115.274C1042.81 115.604 1042.05 116.23 1040.86 117.154C1040.67 117.352 1040.53 117.484 1040.47 117.55H1039.28C1038.75 117.55 1038.39 117.55 1038.19 117.55C1037.99 117.55 1037.83 117.451 1037.7 117.253C1037.57 117.055 1037.47 116.758 1037.4 116.362C1037.47 116.296 1037.83 115.867 1038.49 115.076C1048.71 104.455 1053.83 88.7887 1053.83 68.0756C1053.83 47.3625 1048.71 31.6957 1038.49 21.0753C1037.83 20.2837 1037.47 19.8549 1037.4 19.789C1037.4 19.2612 1037.57 18.8984 1037.9 18.7005Z" fill="#D46FA0"/>
<path d="M655.747 199.362C655.747 199.362 655.747 198.934 655.747 198.076C655.747 197.218 656.209 196.559 657.132 196.097H714.621C715.61 196.625 716.105 197.284 716.105 198.076C716.105 198.868 715.61 199.527 714.621 200.055H657.132C656.209 199.593 655.747 198.934 655.747 198.076V199.362Z" fill="black"/>
<path d="M755.714 198.076C755.714 193.524 756.044 189.203 756.703 185.113C757.363 181.024 758.122 177.494 758.979 174.526C759.837 171.558 761.057 168.655 762.64 165.819C764.224 162.982 765.477 160.772 766.4 159.189C767.324 157.606 768.709 155.891 770.556 154.044C772.403 152.197 773.492 151.075 773.821 150.679C774.151 150.284 774.976 149.591 776.295 148.602H777.581H777.977C778.901 148.602 779.363 148.898 779.363 149.492C779.363 149.69 778.802 150.383 777.68 151.57C776.559 152.757 775.207 154.505 773.624 156.814C772.04 159.123 770.424 161.96 768.775 165.324C767.126 168.688 765.741 173.24 764.619 178.979C763.498 184.718 762.937 191.083 762.937 198.076C762.937 205.068 763.498 211.401 764.619 217.074C765.741 222.747 767.093 227.331 768.676 230.827C770.259 234.324 771.875 237.16 773.525 239.337C775.174 241.514 776.559 243.262 777.68 244.581C778.802 245.9 779.363 246.593 779.363 246.659C779.363 247.253 778.868 247.55 777.878 247.55H777.581H776.295L773.525 245.175C767.324 239.568 762.805 232.575 759.969 224.198C757.132 215.82 755.714 207.113 755.714 198.076Z" fill="#6C63FF"/>
<path d="M805.979 165.62L804.693 166.115C803.769 166.445 802.45 166.775 800.735 167.105C799.02 167.434 797.107 167.665 794.996 167.797H793.116V163.246H794.996C798.096 163.114 800.966 162.619 803.604 161.761C806.243 160.904 808.09 160.112 809.146 159.387C810.201 158.661 811.124 157.935 811.916 157.21C812.048 157.012 812.444 156.913 813.103 156.913C813.697 156.913 814.258 157.111 814.786 157.507V187.092L814.885 216.776C815.346 217.238 815.742 217.535 816.072 217.667C816.402 217.799 817.193 217.931 818.447 218.063C819.7 218.195 821.745 218.261 824.581 218.261H827.154V222.812H826.066C824.68 222.614 819.436 222.515 810.333 222.515C801.362 222.515 796.183 222.614 794.798 222.812H793.611V218.261H796.183C797.635 218.261 798.888 218.261 799.943 218.261C800.999 218.261 801.823 218.228 802.417 218.162C803.011 218.096 803.538 217.997 804 217.865C804.462 217.733 804.726 217.667 804.792 217.667C804.858 217.667 805.056 217.502 805.386 217.172C805.715 216.842 805.913 216.71 805.979 216.776V165.62Z" fill="#6C63FF"/>
<path d="M880.091 222.812C878.904 222.614 874.649 222.515 867.327 222.515C859.675 222.515 855.255 222.614 854.068 222.812H853.177V218.261H856.245C857.564 218.261 858.454 218.261 858.916 218.261C859.378 218.261 859.939 218.195 860.598 218.063C861.258 217.931 861.72 217.766 861.984 217.568C862.248 217.37 862.478 217.106 862.676 216.776C862.742 216.644 862.775 214.863 862.775 211.433V206.486H837.148V201.934L852.089 179.077C862.182 163.773 867.294 156.088 867.426 156.022C867.558 155.89 868.25 155.824 869.504 155.824H871.285L871.878 156.418V201.934H880.982V206.486H871.878V211.532C871.878 214.237 871.878 215.82 871.878 216.282C871.878 216.743 872.076 217.139 872.472 217.469C873 217.931 874.88 218.195 878.112 218.261H880.982V222.812H880.091ZM863.369 201.934V168.886L841.699 201.835L852.485 201.934H863.369Z" fill="#6C63FF"/>
<path d="M900.078 207.278C900.078 208.861 899.551 210.18 898.495 211.235C897.44 212.291 896.154 212.819 894.636 212.819H893.944C896.978 218.03 901.002 220.636 906.015 220.636C910.633 220.636 913.997 218.657 916.108 214.699C917.361 212.522 917.988 208.3 917.988 202.033C917.988 195.239 917.098 190.654 915.316 188.28C913.601 186.103 911.688 185.014 909.577 185.014H908.984C903.838 185.014 899.947 187.257 897.308 191.743C897.044 192.204 896.813 192.468 896.615 192.534C896.417 192.6 895.923 192.666 895.131 192.732C894.01 192.732 893.383 192.534 893.251 192.139C893.119 191.875 893.053 186.103 893.053 174.823V162.058C893.053 158.76 893.218 157.111 893.548 157.111C893.68 156.979 893.812 156.913 893.944 156.913C894.01 156.913 894.702 157.177 896.022 157.705C897.341 158.232 899.155 158.76 901.464 159.288C903.773 159.816 906.246 160.079 908.885 160.079C913.568 160.079 918.054 159.156 922.342 157.309C922.869 157.045 923.298 156.913 923.628 156.913C924.156 156.913 924.42 157.507 924.42 158.694V159.98C919.011 166.379 912.249 169.578 904.135 169.578C902.09 169.578 900.243 169.38 898.594 168.985L897.605 168.787V185.806C898.858 184.882 899.848 184.157 900.573 183.629C901.299 183.101 902.486 182.574 904.135 182.046C905.784 181.518 907.467 181.254 909.182 181.254C914.525 181.254 919.043 183.398 922.738 187.686C926.432 191.974 928.279 197.053 928.279 202.924C928.279 208.993 926.168 214.171 921.946 218.459C917.724 222.746 912.579 224.923 906.51 224.989C901.167 224.989 896.879 223.208 893.647 219.646C890.415 216.084 888.798 212.06 888.798 207.574C888.798 205.991 889.161 204.738 889.887 203.814C890.612 202.891 891.371 202.297 892.163 202.033C892.954 201.769 893.713 201.638 894.438 201.638C896.088 201.638 897.44 202.198 898.495 203.32C899.551 204.441 900.078 205.76 900.078 207.278Z" fill="#6C63FF"/>
<path d="M956.479 158.782C956.281 158.782 956.017 158.782 955.688 158.782C954.038 158.782 953.049 158.749 952.719 158.683C952.389 158.617 952.224 158.255 952.224 157.595C952.224 155.814 952.587 154.726 953.313 154.33C953.445 154.264 956.644 154.231 962.911 154.231C967.99 154.231 970.893 154.231 971.618 154.231C972.344 154.231 972.806 154.429 973.003 154.824C986.922 187.543 994.013 204.331 994.277 205.189L999.62 184.113C1003.12 170.194 1004.86 162.773 1004.86 161.85C1004.86 160.069 1002.75 159.046 998.532 158.782C996.949 158.782 996.157 158.42 996.157 157.694C996.157 157.562 996.223 157.166 996.355 156.507C996.619 155.451 996.817 154.824 996.949 154.627C997.081 154.429 997.411 154.297 997.938 154.231C998.136 154.231 999.159 154.264 1001.01 154.33C1002.85 154.396 1005.59 154.462 1009.22 154.528C1012.52 154.528 1015.02 154.495 1016.74 154.429C1018.45 154.363 1019.44 154.33 1019.71 154.33C1020.7 154.33 1021.19 154.66 1021.19 155.319C1021.19 156.77 1020.93 157.76 1020.4 158.288C1020.27 158.617 1019.54 158.782 1018.22 158.782C1013.54 159.046 1010.6 160.366 1009.42 162.74L994.673 221.12C994.541 221.581 993.848 221.812 992.595 221.812C991.672 221.812 991.111 221.746 990.913 221.614C990.715 221.416 986.46 211.423 978.149 191.633L965.582 162.048L959.151 187.774C954.863 204.661 952.719 213.402 952.719 213.995C953.049 216.172 955.424 217.261 959.843 217.261H960.833C961.229 217.59 961.427 217.854 961.427 218.052C961.427 218.25 961.361 218.877 961.229 219.932C960.965 220.79 960.635 221.416 960.239 221.812H958.953C956.908 221.68 953.346 221.614 948.266 221.614C946.419 221.614 944.737 221.614 943.22 221.614C941.703 221.614 940.483 221.614 939.559 221.614C938.636 221.614 938.075 221.647 937.877 221.713C936.887 221.713 936.393 221.416 936.393 220.823C936.393 220.559 936.492 220.031 936.69 219.24C936.887 218.448 937.052 217.986 937.184 217.854C937.316 217.459 938.075 217.261 939.46 217.261C943.946 217.063 946.848 215.776 948.168 213.402C948.431 213.006 950.773 203.87 955.193 185.993L961.921 159.079C961.789 159.013 959.975 158.914 956.479 158.782Z" fill="#6C63FF"/>
<path d="M1027.13 148.701L1027.52 148.602C1027.85 148.602 1028.18 148.602 1028.51 148.602H1029.7L1032.47 150.976C1038.67 156.583 1043.19 163.576 1046.03 171.953C1048.86 180.331 1050.28 189.038 1050.28 198.076C1050.28 202.561 1049.95 206.882 1049.29 211.038C1048.63 215.194 1047.87 218.723 1047.02 221.625C1046.16 224.528 1044.94 227.43 1043.36 230.333C1041.77 233.235 1040.52 235.445 1039.6 236.962C1038.67 238.479 1037.32 240.161 1035.54 242.008C1033.76 243.856 1032.7 244.944 1032.37 245.274C1032.04 245.604 1031.28 246.23 1030.1 247.154C1029.9 247.352 1029.77 247.484 1029.7 247.55H1028.51C1027.99 247.55 1027.62 247.55 1027.42 247.55C1027.23 247.55 1027.06 247.451 1026.93 247.253C1026.8 247.055 1026.7 246.758 1026.63 246.362C1026.7 246.296 1027.06 245.867 1027.72 245.076C1037.95 234.455 1043.06 218.789 1043.06 198.076C1043.06 177.362 1037.95 161.696 1027.72 151.075C1027.06 150.284 1026.7 149.855 1026.63 149.789C1026.63 149.261 1026.8 148.898 1027.13 148.701Z" fill="#6C63FF"/>
<path d="M1072.64 194.216C1072.64 192.105 1073.17 189.961 1074.23 187.784C1075.28 185.607 1077.13 183.595 1079.77 181.748C1082.41 179.901 1085.61 179.011 1089.37 179.077C1093.46 179.077 1096.42 179.967 1098.27 181.748C1100.12 183.529 1101.08 185.508 1101.14 187.685C1101.14 189.796 1100.58 191.346 1099.46 192.336C1098.34 193.325 1097.08 193.853 1095.7 193.919C1094.84 193.919 1094.05 193.655 1093.32 193.127C1092.6 192.6 1092.2 191.742 1092.14 190.555C1092.14 189.499 1092.43 188.576 1093.03 187.784C1093.62 186.993 1094.18 186.399 1094.71 186.003C1095.24 185.607 1095.67 185.409 1096 185.409C1096.06 185.409 1096.09 185.376 1096.09 185.311C1096.09 185.113 1095.86 184.816 1095.4 184.42C1094.94 184.024 1094.12 183.661 1092.93 183.332C1091.74 183.002 1090.45 182.804 1089.07 182.738C1085.9 182.738 1083.59 183.595 1082.14 185.311C1080.69 187.026 1079.93 188.774 1079.87 190.555C1079.87 192.204 1080.49 193.358 1081.75 194.018C1083 194.678 1084.81 195.238 1087.19 195.7C1089.56 196.162 1091.28 196.657 1092.33 197.184C1096.69 199.097 1098.87 202.264 1098.87 206.683C1098.87 208.53 1098.5 210.377 1097.78 212.224C1097.05 214.071 1095.96 215.918 1094.51 217.765C1093.06 219.612 1090.98 221.064 1088.28 222.119C1085.57 223.175 1082.47 223.735 1078.98 223.801C1073.9 223.801 1070.3 222.845 1068.19 220.932C1066.08 219.019 1064.99 216.776 1064.93 214.203C1064.93 211.631 1065.62 209.784 1067 208.662C1068.39 207.541 1069.84 206.98 1071.36 206.98C1072.35 206.98 1073.27 207.277 1074.13 207.871C1074.99 208.464 1075.45 209.487 1075.51 210.938C1075.51 212.653 1074.92 214.104 1073.73 215.292C1072.55 216.479 1071.52 217.073 1070.67 217.073C1070.53 217.139 1070.43 217.172 1070.37 217.172C1070.3 217.172 1070.27 217.238 1070.27 217.37C1070.34 217.568 1070.6 217.831 1071.06 218.161C1071.52 218.491 1072.55 218.92 1074.13 219.448C1075.71 219.975 1077.53 220.206 1079.57 220.14C1081.95 220.14 1083.99 219.777 1085.71 219.052C1087.42 218.326 1088.67 217.403 1089.47 216.281C1090.26 215.16 1090.82 214.137 1091.15 213.214C1091.48 212.29 1091.64 211.466 1091.64 210.74C1091.64 208.893 1090.95 207.508 1089.56 206.584C1088.18 205.661 1086.6 205.1 1084.81 204.902C1083.03 204.704 1081.09 204.21 1078.98 203.418C1076.87 202.626 1075.32 201.472 1074.33 199.955C1073.2 198.306 1072.64 196.393 1072.64 194.216Z" fill="#6C63FF"/>
<path d="M1124.29 163.443C1124.29 161.86 1124.92 160.475 1126.17 159.288C1127.43 158.1 1128.88 157.474 1130.53 157.408C1131.72 157.408 1132.71 157.803 1133.5 158.595C1134.29 159.387 1134.72 160.376 1134.78 161.563C1134.78 163.081 1134.12 164.466 1132.8 165.719C1131.49 166.973 1130.03 167.632 1128.45 167.698C1127.46 167.698 1126.54 167.368 1125.68 166.709C1124.82 166.049 1124.36 164.961 1124.29 163.443ZM1108.17 194.414C1108.17 193.886 1108.46 192.864 1109.06 191.347C1109.65 189.83 1110.44 188.147 1111.43 186.3C1112.42 184.453 1113.87 182.771 1115.79 181.254C1117.7 179.737 1119.68 179.011 1121.72 179.077C1124.29 179.077 1126.44 179.836 1128.15 181.353C1129.87 182.87 1130.76 184.915 1130.83 187.488C1130.83 188.609 1130.36 190.456 1129.44 193.029C1128.52 195.602 1127.2 199.065 1125.48 203.418C1123.77 207.772 1122.38 211.499 1121.33 214.6C1121 216.051 1120.83 217.106 1120.83 217.766C1120.83 219.415 1121.39 220.24 1122.51 220.24C1123.11 220.24 1123.73 220.141 1124.39 219.943C1125.05 219.745 1125.81 219.283 1126.67 218.557C1127.53 217.832 1128.42 216.677 1129.34 215.094C1130.26 213.511 1131.09 211.565 1131.81 209.256C1132.01 208.465 1132.18 208.003 1132.31 207.871C1132.44 207.739 1133 207.673 1133.99 207.673C1135.31 207.673 1135.97 208.003 1135.97 208.663C1135.97 209.19 1135.67 210.213 1135.08 211.73C1134.49 213.247 1133.66 214.929 1132.61 216.776C1131.55 218.623 1130.07 220.273 1128.15 221.724C1126.24 223.175 1124.2 223.901 1122.02 223.901C1119.91 223.901 1117.96 223.208 1116.18 221.823C1114.4 220.437 1113.48 218.327 1113.41 215.49C1113.41 214.369 1113.58 213.313 1113.91 212.324C1114.24 211.334 1115.65 207.574 1118.16 201.044C1120.67 194.381 1122.12 190.39 1122.51 189.071C1122.91 187.752 1123.14 186.465 1123.21 185.212C1123.21 183.629 1122.65 182.837 1121.52 182.837H1121.33C1119.35 182.837 1117.53 183.926 1115.88 186.103C1114.24 188.279 1112.98 191.05 1112.12 194.414C1112.06 194.48 1111.99 194.579 1111.93 194.711C1111.86 194.843 1111.83 194.942 1111.83 195.008C1111.83 195.074 1111.76 195.14 1111.63 195.206C1111.5 195.272 1111.4 195.305 1111.33 195.305C1111.27 195.305 1111.13 195.305 1110.94 195.305C1110.74 195.305 1110.48 195.305 1110.15 195.305H1108.76C1108.36 194.909 1108.17 194.612 1108.17 194.414Z" fill="#6C63FF"/>
<path d="M1142.3 194.414C1142.37 194.018 1142.47 193.491 1142.6 192.831C1142.73 192.171 1143.13 190.918 1143.79 189.071C1144.45 187.224 1145.11 185.674 1145.77 184.42C1146.43 183.167 1147.51 181.947 1149.03 180.759C1150.55 179.572 1152.07 179.011 1153.58 179.077C1155.96 179.077 1157.94 179.671 1159.52 180.858C1161.1 182.046 1162.09 183.167 1162.49 184.223C1162.88 185.278 1163.08 185.971 1163.08 186.3C1163.08 186.432 1163.12 186.498 1163.18 186.498L1164.27 185.41C1168.29 181.188 1172.88 179.077 1178.02 179.077C1181.59 179.077 1184.46 179.968 1186.63 181.749C1188.81 183.53 1189.93 186.135 1190 189.566C1190.06 192.996 1188.81 198.174 1186.24 205.101C1183.66 212.027 1182.41 216.216 1182.48 217.667C1182.48 219.382 1183.04 220.24 1184.16 220.24C1184.55 220.24 1184.85 220.207 1185.05 220.141C1186.96 219.811 1188.68 218.557 1190.19 216.381C1191.71 214.204 1192.87 211.565 1193.66 208.465C1193.79 207.937 1194.45 207.673 1195.64 207.673C1196.96 207.673 1197.62 207.937 1197.62 208.465C1197.62 208.531 1197.48 209.025 1197.22 209.949C1196.69 211.862 1195.97 213.742 1195.04 215.589C1194.12 217.436 1192.6 219.283 1190.49 221.13C1188.38 222.977 1186.1 223.868 1183.66 223.802C1180.56 223.802 1178.32 222.911 1176.94 221.13C1175.55 219.349 1174.86 217.502 1174.86 215.589C1174.86 214.336 1176.04 210.378 1178.42 203.715C1180.79 197.053 1182.01 192.039 1182.08 188.675C1182.08 184.783 1180.63 182.837 1177.73 182.837H1177.23C1171.56 182.837 1166.78 186.168 1162.88 192.831L1162.19 194.018L1158.93 207.277C1156.75 215.919 1155.5 220.569 1155.17 221.229C1154.31 223.01 1152.89 223.901 1150.91 223.901C1150.05 223.901 1149.36 223.703 1148.83 223.307C1148.31 222.911 1147.94 222.515 1147.75 222.12C1147.55 221.724 1147.48 221.394 1147.55 221.13C1147.55 220.273 1148.8 214.896 1151.31 205.002C1153.81 195.107 1155.13 189.731 1155.27 188.873C1155.33 188.543 1155.36 187.785 1155.36 186.597C1155.36 184.025 1154.57 182.738 1152.99 182.738C1150.48 182.738 1148.41 186.037 1146.76 192.633C1146.36 193.952 1146.16 194.645 1146.16 194.711C1146.03 195.107 1145.4 195.305 1144.28 195.305H1142.9C1142.5 194.909 1142.3 194.612 1142.3 194.414Z" fill="#6C63FF"/>
<path d="M1208.9 198.076C1208.9 193.524 1209.23 189.203 1209.88 185.113C1210.54 181.024 1211.3 177.494 1212.16 174.526C1213.02 171.558 1214.24 168.655 1215.82 165.819C1217.4 162.982 1218.66 160.772 1219.58 159.189C1220.51 157.606 1221.89 155.891 1223.74 154.044C1225.58 152.197 1226.67 151.075 1227 150.679C1227.33 150.284 1228.16 149.591 1229.48 148.602H1230.76H1231.16C1232.08 148.602 1232.54 148.898 1232.54 149.492C1232.54 149.69 1231.98 150.383 1230.86 151.57C1229.74 152.757 1228.39 154.505 1226.8 156.814C1225.22 159.123 1223.61 161.96 1221.96 165.324C1220.31 168.688 1218.92 173.24 1217.8 178.979C1216.68 184.718 1216.12 191.083 1216.12 198.076C1216.12 205.068 1216.68 211.401 1217.8 217.074C1218.92 222.747 1220.27 227.331 1221.86 230.827C1223.44 234.324 1225.06 237.16 1226.71 239.337C1228.36 241.514 1229.74 243.262 1230.86 244.581C1231.98 245.9 1232.54 246.593 1232.54 246.659C1232.54 247.253 1232.05 247.55 1231.06 247.55H1230.76H1229.48L1226.71 245.175C1220.51 239.568 1215.99 232.575 1213.15 224.198C1210.31 215.82 1208.9 207.113 1208.9 198.076Z" fill="#6C63FF"/>
<path d="M1250.65 176.999C1248.87 176.999 1247.49 176.439 1246.5 175.317C1245.51 174.196 1244.98 172.745 1244.91 170.964C1244.91 167.336 1246.5 164.103 1249.66 161.267C1252.83 158.43 1256.65 157.012 1261.14 157.012C1263.45 157.012 1264.9 157.045 1265.49 157.111C1270.38 157.903 1274.1 159.651 1276.68 162.355C1279.25 165.06 1280.57 167.995 1280.63 171.162C1280.63 174.592 1279.51 177.923 1277.27 181.155C1275.03 184.388 1271.93 186.729 1267.97 188.181L1267.67 188.379C1267.67 188.444 1267.97 188.543 1268.56 188.675C1269.16 188.807 1270.11 189.104 1271.43 189.566C1272.75 190.028 1274 190.72 1275.19 191.644C1280.6 195.14 1283.3 199.758 1283.3 205.497C1283.3 210.708 1281.26 215.259 1277.17 219.151C1273.08 223.043 1267.9 224.989 1261.64 224.989C1256.36 224.989 1251.81 223.571 1247.98 220.734C1244.15 217.898 1242.24 214.303 1242.24 209.949C1242.24 208.102 1242.84 206.618 1244.02 205.497C1245.21 204.375 1246.69 203.781 1248.48 203.715C1250.32 203.715 1251.84 204.309 1253.03 205.497C1254.21 206.684 1254.81 208.168 1254.81 209.949C1254.81 210.675 1254.71 211.334 1254.51 211.928C1254.31 212.522 1254.08 213.05 1253.82 213.511C1253.55 213.973 1253.19 214.369 1252.73 214.699C1252.27 215.028 1251.87 215.292 1251.54 215.49C1251.21 215.688 1250.88 215.82 1250.55 215.886C1250.22 215.952 1249.96 216.051 1249.76 216.183L1249.37 216.282C1252.73 219.25 1256.82 220.734 1261.64 220.734C1265.26 220.734 1268 218.986 1269.85 215.49C1270.97 213.313 1271.53 209.982 1271.53 205.497V203.518C1271.53 197.251 1269.42 193.062 1265.2 190.951C1264.21 190.555 1262.2 190.324 1259.16 190.259L1255.01 190.16L1254.71 189.962C1254.58 189.764 1254.51 189.236 1254.51 188.379C1254.51 187.191 1254.77 186.597 1255.3 186.597C1257.15 186.597 1259.06 186.433 1261.04 186.103C1263.28 185.773 1265.33 184.388 1267.18 181.947C1269.02 179.506 1269.95 175.812 1269.95 170.865V170.073C1269.95 166.313 1268.79 163.707 1266.48 162.256C1265.03 161.333 1263.48 160.871 1261.83 160.871C1259.72 160.871 1257.78 161.234 1256 161.959C1254.21 162.685 1252.96 163.444 1252.24 164.235C1251.51 165.027 1251.15 165.423 1251.15 165.423H1251.44C1251.64 165.489 1251.91 165.555 1252.24 165.62C1252.57 165.686 1252.89 165.851 1253.22 166.115C1253.55 166.379 1253.95 166.61 1254.41 166.808C1254.87 167.006 1255.2 167.369 1255.4 167.896C1255.6 168.424 1255.86 168.919 1256.19 169.381C1256.52 169.842 1256.62 170.502 1256.49 171.359C1256.49 172.811 1256.03 174.097 1255.1 175.218C1254.18 176.34 1252.7 176.934 1250.65 176.999Z" fill="#6C63FF"/>
<path d="M1297.06 164.928C1300.75 159.585 1305.8 156.913 1312.2 156.913C1315.36 156.913 1318.53 157.771 1321.7 159.486C1324.86 161.201 1327.44 164.235 1329.41 168.589C1331.86 174.064 1333.08 181.584 1333.08 191.149C1333.08 201.374 1331.66 209.191 1328.82 214.6C1327.5 217.37 1325.69 219.58 1323.38 221.229C1321.07 222.878 1319.06 223.901 1317.34 224.297C1315.63 224.692 1313.95 224.923 1312.3 224.989C1310.58 224.989 1308.87 224.791 1307.15 224.396C1305.44 224 1303.42 222.944 1301.12 221.229C1298.81 219.514 1296.99 217.304 1295.67 214.6C1292.84 209.191 1291.42 201.374 1291.42 191.149C1291.42 179.671 1293.3 170.931 1297.06 164.928ZM1319.32 163.74C1317.34 161.63 1315 160.574 1312.3 160.574C1309.53 160.574 1307.15 161.63 1305.17 163.74C1303.52 165.456 1302.43 167.83 1301.91 170.865C1301.38 173.899 1301.12 180.232 1301.12 189.863C1301.12 200.285 1301.38 207.146 1301.91 210.444C1302.43 213.742 1303.62 216.348 1305.47 218.261C1307.32 220.24 1309.59 221.229 1312.3 221.229C1314.94 221.229 1317.18 220.24 1319.03 218.261C1320.94 216.282 1322.13 213.511 1322.59 209.949C1323.05 206.387 1323.31 199.692 1323.38 189.863C1323.38 180.298 1323.12 173.998 1322.59 170.964C1322.06 167.929 1320.97 165.522 1319.32 163.74Z" fill="#6C63FF"/>
<path d="M1351.09 182.716C1347.6 182.716 1344.78 181.573 1342.63 179.288C1340.48 177.003 1339.41 174.251 1339.41 171.033C1339.41 168.002 1340.11 165.134 1341.51 162.429C1342.91 159.724 1344.82 157.369 1347.25 155.363C1350.79 152.518 1354.41 151.096 1358.09 151.096C1359.58 151.096 1360.52 151.119 1360.89 151.166C1361.49 151.306 1362.1 151.469 1362.71 151.656C1363.31 151.842 1364.13 152.215 1365.16 152.775C1366.18 153.334 1367.02 154.034 1367.67 154.873C1368.33 155.713 1368.93 156.856 1369.49 158.301C1370.05 159.747 1370.33 161.379 1370.33 163.198C1370.33 168.188 1368.33 172.689 1364.32 176.7C1360.31 180.711 1355.9 182.716 1351.09 182.716ZM1345.5 173.552C1345.5 175.884 1346.1 177.563 1347.32 178.589C1348.53 179.615 1349.91 180.128 1351.44 180.128C1353.5 180.128 1355.43 179.381 1357.25 177.889C1359.07 176.397 1360.52 174.438 1361.59 172.013C1362.01 171.033 1362.54 169.308 1363.2 166.836C1363.85 164.364 1364.18 162.219 1364.18 160.4C1364.18 158.348 1363.76 156.786 1362.92 155.713C1361.8 154.314 1360.31 153.614 1358.44 153.614C1355.5 153.614 1352.91 154.967 1350.67 157.672C1348.95 159.724 1347.67 162.452 1346.83 165.857C1345.99 169.261 1345.54 171.826 1345.5 173.552Z" fill="#6C63FF"/>
<path d="M1381.85 148.701L1382.24 148.602C1382.57 148.602 1382.9 148.602 1383.23 148.602H1384.42L1387.19 150.976C1393.39 156.583 1397.91 163.576 1400.75 171.953C1403.58 180.331 1405 189.038 1405 198.076C1405 202.561 1404.67 206.882 1404.01 211.038C1403.35 215.194 1402.59 218.723 1401.73 221.625C1400.88 224.528 1399.66 227.43 1398.07 230.333C1396.49 233.235 1395.24 235.445 1394.31 236.962C1393.39 238.479 1392.04 240.161 1390.26 242.008C1388.48 243.856 1387.42 244.944 1387.09 245.274C1386.76 245.604 1386 246.23 1384.81 247.154C1384.62 247.352 1384.48 247.484 1384.42 247.55H1383.23C1382.7 247.55 1382.34 247.55 1382.14 247.55C1381.95 247.55 1381.78 247.451 1381.65 247.253C1381.52 247.055 1381.42 246.758 1381.35 246.362C1381.42 246.296 1381.78 245.867 1382.44 245.076C1392.66 234.455 1397.78 218.789 1397.78 198.076C1397.78 177.362 1392.66 161.696 1382.44 151.075C1381.78 150.284 1381.42 149.855 1381.35 149.789C1381.35 149.261 1381.52 148.898 1381.85 148.701Z" fill="#6C63FF"/>
</svg>
