<svg width="1800" height="250" viewBox="0 0 1800 250" fill="none" xmlns="http://www.w3.org/2000/svg">
<path d="M4.04009 239.778H3.63608C2.02004 239.778 0.808017 238.835 0 236.95V138.775L0.202004 40.6013C1.5487 38.8506 2.82806 37.9752 4.04009 37.9752C5.79079 37.9752 7.13749 38.9853 8.08017 41.0053V236.95C7.00282 238.835 5.79079 239.778 4.4441 239.778H4.04009Z" fill="#EF224B"/>
<path d="M41.813 189.279C39.5236 189.279 38.3789 188.605 38.3789 187.259C38.3789 186.989 38.5809 186.047 38.9849 184.431C39.5236 182.276 40.0623 181.064 40.601 180.795C41.1396 180.525 42.6883 180.323 45.2471 180.189C48.8831 180.189 52.9232 179.987 57.3673 179.582C59.2527 179.178 60.5321 178.37 61.2054 177.158C61.4747 176.485 66.2555 157.564 75.5477 120.395C84.8399 83.2264 89.5533 64.3727 89.688 63.834C89.688 62.8913 89.4187 62.42 88.88 62.42C87.8026 62.016 84.2339 61.6793 78.1738 61.4099H71.9116C71.1036 60.6019 70.6996 60.0632 70.6996 59.7939C70.6996 59.5246 70.8343 58.3799 71.1036 56.3598C71.6423 54.0704 72.3156 52.6564 73.1237 52.1177H182.004C182.947 52.6564 183.418 53.3971 183.418 54.3398C183.418 55.0131 182.543 62.5546 180.792 76.9643C179.041 91.3739 178.099 98.7807 177.964 99.1848C177.695 100.127 176.348 100.599 173.924 100.599H171.5C170.557 99.9254 170.086 99.0501 170.086 97.9727C170.086 97.8381 170.288 96.222 170.692 93.1246C171.096 90.0272 171.298 86.4585 171.298 82.4184C171.298 78.3783 170.826 75.0789 169.884 72.5202C168.941 69.9615 167.662 67.8741 166.046 66.258C164.43 64.642 161.938 63.5647 158.572 63.026C155.205 62.4873 151.771 62.016 148.269 61.6119C144.768 61.2079 139.92 61.1406 133.725 61.4099H129.079C118.036 61.5446 112.178 61.7466 111.504 62.016C110.831 62.2853 110.36 62.824 110.09 63.632C109.956 63.7667 107.666 72.5875 103.222 90.0946L96.7582 116.153H107.868C108.272 116.153 109.821 116.153 112.515 116.153C115.208 116.153 117.093 116.086 118.171 115.951C119.248 115.816 120.729 115.614 122.615 115.345C124.5 115.076 126.116 114.604 127.463 113.931C128.81 113.258 129.954 112.45 130.897 111.507C132.648 109.891 134.129 107.669 135.341 104.841C136.553 102.013 137.428 99.4541 137.967 97.1647C138.506 94.8753 138.842 93.6633 138.977 93.5286C139.381 92.8553 140.66 92.5186 142.815 92.5186H145.239C146.182 93.192 146.653 93.8653 146.653 94.5387C146.653 94.9427 144.566 103.764 140.391 121.001C136.216 138.239 133.927 147.127 133.523 147.666C133.254 148.608 131.907 149.08 129.483 149.08H127.059C126.116 148.272 125.645 147.464 125.645 146.656C125.645 146.252 125.981 144.77 126.655 142.212C127.328 139.653 127.665 136.96 127.665 134.132C127.665 130.226 126.318 127.802 123.625 126.859C120.931 125.917 114.939 125.445 105.646 125.445H94.5361L88.072 151.1C83.7626 167.799 81.6078 176.552 81.6078 177.36C81.6078 179.246 87.6006 180.189 99.5862 180.189H104.636C105.444 180.997 105.848 181.468 105.848 181.603C105.848 181.737 105.714 183.084 105.444 185.643C104.906 187.393 104.232 188.673 103.424 189.481H99.9902C94.4688 189.211 84.3012 189.077 69.4876 189.077C60.7341 189.077 54.0679 189.077 49.4891 189.077C44.9104 189.077 42.3517 189.144 41.813 189.279Z" fill="#EF224B"/>
<path d="M166.309 4.03981C166.309 2.96245 166.646 2.01976 167.319 1.21175C167.993 0.403728 169.003 -0.000280887 170.349 -0.000280887C171.292 -0.000280887 172.1 0.336393 172.773 1.00974C173.447 1.54842 174.12 2.82778 174.793 4.84782C176.14 9.8306 178.901 13.6687 183.076 16.3621C184.557 17.3048 185.298 18.5168 185.298 19.9982C185.298 21.2102 185.096 22.0182 184.692 22.4222C184.288 22.8262 183.345 23.4322 181.864 24.2402C176.073 27.203 171.023 31.4451 166.713 36.9665C166.444 37.2359 166.107 37.6399 165.703 38.1785C165.299 38.7172 164.963 39.1212 164.693 39.3906C164.424 39.6599 164.087 39.7946 163.683 39.7946C163.279 39.7946 162.808 39.8619 162.269 39.9966C161.326 39.9966 160.451 39.6599 159.643 38.9866C158.835 38.3132 158.364 37.3032 158.229 35.9565C158.229 33.3978 161.394 29.425 167.723 24.0382H133.181L98.6378 23.8362C96.8871 22.6242 96.0117 21.3448 96.0117 19.9982C96.0117 19.0555 96.8871 17.7088 98.6378 15.9581H171.157C167.925 10.8406 166.309 6.86787 166.309 4.03981Z" fill="#EF224B"/>
<path d="M224.575 128.804C224.289 128.804 223.908 128.804 223.432 128.804C221.052 128.804 219.624 128.757 219.148 128.662C218.672 128.566 218.434 128.043 218.434 127.091C218.434 124.52 218.957 122.949 220.005 122.378C220.195 122.282 224.813 122.235 233.858 122.235C241.189 122.235 245.378 122.235 246.426 122.235C247.473 122.235 248.14 122.52 248.425 123.092C268.515 170.316 278.75 194.548 279.131 195.786L286.843 165.366C291.889 145.276 294.412 134.565 294.412 133.232C294.412 130.661 291.366 129.185 285.272 128.804C282.987 128.804 281.844 128.281 281.844 127.233C281.844 127.043 281.94 126.472 282.13 125.52C282.511 123.996 282.797 123.092 282.987 122.806C283.177 122.52 283.653 122.33 284.415 122.235C284.701 122.235 286.177 122.282 288.842 122.378C291.508 122.473 295.46 122.568 300.696 122.663C305.457 122.663 309.075 122.616 311.55 122.52C314.026 122.425 315.454 122.378 315.835 122.378C317.263 122.378 317.977 122.854 317.977 123.806C317.977 125.9 317.596 127.329 316.835 128.09C316.644 128.566 315.597 128.804 313.693 128.804C306.933 129.185 302.696 131.089 300.982 134.517L279.702 218.779C279.512 219.446 278.512 219.779 276.703 219.779C275.37 219.779 274.561 219.684 274.275 219.493C273.989 219.208 267.848 204.783 255.852 176.22L237.714 133.517L228.431 170.65C222.242 195.024 219.148 207.639 219.148 208.496C219.624 211.638 223.051 213.209 229.431 213.209H230.859C231.43 213.685 231.716 214.066 231.716 214.352C231.716 214.637 231.62 215.542 231.43 217.065C231.049 218.303 230.573 219.208 230.002 219.779H228.145C225.194 219.588 220.052 219.493 212.721 219.493C210.055 219.493 207.627 219.493 205.437 219.493C203.247 219.493 201.486 219.493 200.153 219.493C198.82 219.493 198.011 219.541 197.725 219.636C196.297 219.636 195.583 219.208 195.583 218.351C195.583 217.97 195.726 217.208 196.011 216.066C196.297 214.923 196.535 214.257 196.725 214.066C196.916 213.495 198.011 213.209 200.01 213.209C206.485 212.924 210.674 211.067 212.578 207.639C212.959 207.068 216.339 193.881 222.718 168.079L232.43 129.233C232.239 129.138 229.621 128.995 224.575 128.804Z" fill="#EF224B"/>
<path d="M356.174 239.778H355.77C354.154 239.778 352.942 238.835 352.134 236.95V138.775L352.336 40.6013C353.682 38.8506 354.962 37.9752 356.174 37.9752C357.924 37.9752 359.271 38.9853 360.214 41.0053V236.95C359.136 238.835 357.924 239.778 356.578 239.778H356.174Z" fill="#EF224B"/>
<path d="M440.45 141.603C440.45 141.603 440.45 140.728 440.45 138.977C440.45 137.226 441.393 135.88 443.278 134.937H503.678V104.636L503.88 74.3356C505.226 72.5849 506.506 71.7096 507.718 71.7096C509.468 71.7096 510.815 72.7196 511.758 74.7396V134.937H571.955C573.975 136.014 574.985 137.361 574.985 138.977C574.985 140.593 573.975 141.94 571.955 143.017H511.758V203.214C510.68 205.1 509.468 206.042 508.122 206.042H507.718H507.314C505.698 206.042 504.486 205.1 503.678 203.214V143.017H443.278C441.393 142.074 440.45 140.728 440.45 138.977V141.603Z" fill="black"/>
<path d="M640.9 189.277C638.61 189.277 637.466 188.603 637.466 187.257C637.466 186.987 637.668 186.045 638.072 184.429C638.61 182.274 639.149 181.062 639.688 180.793C640.226 180.523 641.775 180.321 644.334 180.187C647.97 180.187 652.01 179.985 656.454 179.581C658.339 179.177 659.619 178.369 660.292 177.156C660.561 176.483 665.342 157.562 674.634 120.393C683.927 83.2245 688.64 64.3707 688.775 63.832C688.775 62.8894 688.505 62.418 687.967 62.418C686.889 62.014 683.321 61.6773 677.26 61.408H670.998C670.19 60.6 669.786 60.0613 669.786 59.792C669.786 59.5226 669.921 58.3779 670.19 56.3579C670.729 54.0685 671.402 52.6545 672.21 52.1158H781.091C782.033 52.6545 782.505 53.3951 782.505 54.3378C782.505 55.0112 781.629 62.5527 779.879 76.9623C778.128 91.372 777.185 98.7788 777.051 99.1828C776.781 100.125 775.435 100.597 773.011 100.597H770.586C769.644 99.9235 769.172 99.0481 769.172 97.9708C769.172 97.8361 769.374 96.2201 769.778 93.1227C770.182 90.0253 770.384 86.4565 770.384 82.4164C770.384 78.3764 769.913 75.0769 768.97 72.5182C768.028 69.9595 766.748 67.8721 765.132 66.2561C763.516 64.6401 761.025 63.5627 757.658 63.024C754.291 62.4853 750.857 62.014 747.356 61.61C743.855 61.206 739.006 61.1386 732.812 61.408H728.166C717.123 61.5427 711.265 61.7447 710.591 62.014C709.918 62.2833 709.446 62.822 709.177 63.63C709.042 63.7647 706.753 72.5856 702.309 90.0926L695.845 116.151H706.955C707.359 116.151 708.908 116.151 711.601 116.151C714.295 116.151 716.18 116.084 717.257 115.949C718.335 115.814 719.816 115.612 721.701 115.343C723.587 115.074 725.203 114.602 726.55 113.929C727.896 113.256 729.041 112.448 729.984 111.505C731.734 109.889 733.216 107.667 734.428 104.839C735.64 102.011 736.515 99.4521 737.054 97.1628C737.592 94.8734 737.929 93.6614 738.064 93.5267C738.468 92.8533 739.747 92.5167 741.902 92.5167H744.326C745.269 93.19 745.74 93.8634 745.74 94.5367C745.74 94.9407 743.653 103.762 739.478 120.999C735.303 138.237 733.014 147.125 732.61 147.664C732.34 148.607 730.994 149.078 728.57 149.078H726.145C725.203 148.27 724.731 147.462 724.731 146.654C724.731 146.25 725.068 144.768 725.741 142.21C726.415 139.651 726.752 136.958 726.752 134.13C726.752 130.224 725.405 127.8 722.711 126.857C720.018 125.915 714.025 125.443 704.733 125.443H693.623L687.159 151.098C682.849 167.797 680.695 176.55 680.695 177.358C680.695 179.244 686.687 180.187 698.673 180.187H703.723C704.531 180.995 704.935 181.466 704.935 181.601C704.935 181.735 704.8 183.082 704.531 185.641C703.992 187.391 703.319 188.671 702.511 189.479H699.077C693.555 189.209 683.388 189.075 668.574 189.075C659.821 189.075 653.155 189.075 648.576 189.075C643.997 189.075 641.438 189.142 640.9 189.277Z" fill="#6C6EFF"/>
<path d="M764.091 178.79C764.091 177.457 764.805 175.172 766.233 171.935C767.661 168.698 769.946 165.318 773.088 161.795C776.23 158.272 779.753 156.559 783.657 156.654C787.561 156.654 790.703 157.749 793.083 159.939C795.463 162.128 796.701 165.175 796.796 169.079C796.606 170.888 796.463 171.888 796.368 172.078C796.368 172.364 795.606 174.553 794.083 178.648C792.559 182.742 790.988 187.359 789.37 192.501C787.751 197.642 786.989 201.736 787.084 204.783C787.084 208.877 787.751 211.734 789.084 213.352C790.417 214.971 792.416 215.828 795.082 215.923C797.272 215.923 799.319 215.399 801.223 214.352C803.128 213.305 804.603 212.21 805.651 211.067C806.698 209.925 807.983 208.354 809.507 206.354C809.507 206.259 809.745 205.307 810.221 203.498C810.697 201.689 811.363 198.88 812.22 195.072C813.077 191.263 813.982 187.74 814.934 184.503C818.552 170.221 820.551 162.747 820.932 162.081C822.17 159.51 824.217 158.225 827.073 158.225C828.311 158.225 829.311 158.558 830.072 159.224C830.834 159.891 831.358 160.462 831.643 160.938C831.929 161.414 832.024 161.843 831.929 162.224C831.929 163.461 829.596 173.459 824.931 192.215C820.266 210.972 817.6 221.255 816.933 223.064C814.267 230.966 809.65 237.25 803.08 241.916C796.51 246.581 789.941 248.961 783.371 249.056C779.087 249.056 775.326 248.009 772.089 245.914C768.852 243.82 767.233 240.678 767.233 236.488C767.233 234.394 767.566 232.632 768.233 231.204C768.899 229.776 769.804 228.729 770.946 228.062C772.089 227.396 773.041 226.92 773.803 226.634C774.564 226.348 775.373 226.206 776.23 226.206C780.42 226.206 782.514 228.205 782.514 232.204C782.514 234.108 781.943 235.774 780.801 237.203C779.658 238.631 778.563 239.583 777.516 240.059C776.468 240.535 775.85 240.773 775.659 240.773L775.231 240.916C775.421 241.392 776.326 241.963 777.944 242.63C779.563 243.296 781.181 243.629 782.8 243.629H783.943C785.561 243.629 786.799 243.534 787.656 243.344C790.798 242.487 793.702 240.678 796.368 237.917C799.034 235.156 801.081 232.204 802.509 229.062C803.937 225.92 805.032 223.254 805.794 221.064C806.555 218.874 806.936 217.446 806.936 216.78L806.079 217.351C805.508 217.732 804.603 218.256 803.366 218.922C802.128 219.588 800.89 220.16 799.652 220.636C797.748 221.112 795.892 221.35 794.083 221.35C789.703 221.35 785.847 220.303 782.514 218.208C779.182 216.113 776.992 212.733 775.945 208.068C775.85 207.401 775.802 205.926 775.802 203.641C775.802 198.214 777.468 191.12 780.801 182.361C784.133 173.601 785.799 168.031 785.799 165.651C785.799 165.556 785.799 165.461 785.799 165.366C785.799 164.509 785.799 163.937 785.799 163.652C785.799 163.366 785.609 163.033 785.228 162.652C784.847 162.271 784.323 162.081 783.657 162.081H783.086C780.896 162.081 778.896 162.985 777.087 164.794C775.278 166.603 773.85 168.555 772.803 170.65C771.755 172.744 770.946 174.744 770.375 176.648C769.804 178.552 769.423 179.6 769.232 179.79C769.042 179.981 768.28 180.076 766.947 180.076H764.948C764.377 179.504 764.091 179.076 764.091 178.79Z" fill="#6C6EFF"/>
<path d="M903.041 141.603C903.041 141.603 903.041 140.728 903.041 138.977C903.041 137.226 903.983 135.88 905.869 134.937H1023.23C1025.25 136.014 1026.26 137.361 1026.26 138.977C1026.26 140.593 1025.25 141.94 1023.23 143.017H905.869C903.983 142.074 903.041 140.728 903.041 138.977V141.603Z" fill="black"/>
<path d="M1116.2 239.778H1115.79C1114.18 239.778 1112.96 238.835 1112.16 236.95V138.775L1112.36 40.6013C1113.7 38.8506 1114.98 37.9752 1116.2 37.9752C1117.95 37.9752 1119.29 38.9853 1120.24 41.0053V236.95C1119.16 238.835 1117.95 239.778 1116.6 239.778H1116.2Z" fill="#D46FA0"/>
<path d="M1153.97 189.279C1151.68 189.279 1150.54 188.606 1150.54 187.259C1150.54 186.99 1150.74 186.047 1151.14 184.431C1151.68 182.276 1152.22 181.064 1152.76 180.795C1153.3 180.525 1154.85 180.323 1157.41 180.189C1161.04 180.189 1165.08 179.987 1169.53 179.583C1171.41 179.179 1172.69 178.371 1173.36 177.159C1173.63 176.485 1178.41 157.564 1187.71 120.395C1197 83.2267 1201.71 64.3729 1201.85 63.8342C1201.85 62.8915 1201.58 62.4202 1201.04 62.4202C1199.96 62.0162 1196.39 61.6795 1190.33 61.4102H1184.07C1183.26 60.6022 1182.86 60.0635 1182.86 59.7941C1182.86 59.5248 1182.99 58.3801 1183.26 56.3601C1183.8 54.0707 1184.47 52.6567 1185.28 52.118H1294.16C1295.1 52.6567 1295.58 53.3973 1295.58 54.34C1295.58 55.0134 1294.7 62.5549 1292.95 76.9645C1291.2 91.3742 1290.26 98.781 1290.12 99.185C1289.85 100.128 1288.51 100.599 1286.08 100.599H1283.66C1282.72 99.9257 1282.24 99.0503 1282.24 97.973C1282.24 97.8383 1282.45 96.2223 1282.85 93.1249C1283.25 90.0275 1283.46 86.4587 1283.46 82.4186C1283.46 78.3786 1282.98 75.0791 1282.04 72.5204C1281.1 69.9617 1279.82 67.8743 1278.2 66.2583C1276.59 64.6423 1274.1 63.5649 1270.73 63.0262C1267.36 62.4875 1263.93 62.0162 1260.43 61.6122C1256.93 61.2082 1252.08 61.1408 1245.88 61.4102H1241.24C1230.19 61.5449 1224.34 61.7469 1223.66 62.0162C1222.99 62.2855 1222.52 62.8242 1222.25 63.6322C1222.11 63.7669 1219.82 72.5878 1215.38 90.0948L1208.92 116.153H1220.03C1220.43 116.153 1221.98 116.153 1224.67 116.153C1227.37 116.153 1229.25 116.086 1230.33 115.951C1231.41 115.817 1232.89 115.615 1234.77 115.345C1236.66 115.076 1238.27 114.605 1239.62 113.931C1240.97 113.258 1242.11 112.45 1243.05 111.507C1244.81 109.891 1246.29 107.669 1247.5 104.841C1248.71 102.013 1249.59 99.4543 1250.13 97.165C1250.66 94.8756 1251 93.6635 1251.14 93.5289C1251.54 92.8555 1252.82 92.5189 1254.97 92.5189H1257.4C1258.34 93.1922 1258.81 93.8656 1258.81 94.5389C1258.81 94.9429 1256.72 103.764 1252.55 121.001C1248.37 138.239 1246.09 147.127 1245.68 147.666C1245.41 148.609 1244.07 149.08 1241.64 149.08H1239.22C1238.27 148.272 1237.8 147.464 1237.8 146.656C1237.8 146.252 1238.14 144.771 1238.81 142.212C1239.49 139.653 1239.82 136.96 1239.82 134.132C1239.82 130.226 1238.48 127.802 1235.78 126.86C1233.09 125.917 1227.1 125.446 1217.8 125.446H1206.69L1200.23 151.1C1195.92 167.799 1193.77 176.553 1193.77 177.361C1193.77 179.246 1199.76 180.189 1211.74 180.189H1216.79C1217.6 180.997 1218.01 181.468 1218.01 181.603C1218.01 181.737 1217.87 183.084 1217.6 185.643C1217.06 187.394 1216.39 188.673 1215.58 189.481H1212.15C1206.63 189.212 1196.46 189.077 1181.65 189.077C1172.89 189.077 1166.23 189.077 1161.65 189.077C1157.07 189.077 1154.51 189.144 1153.97 189.279Z" fill="#D46FA0"/>
<path d="M1278.47 4.04005C1278.47 2.96269 1278.8 2.02001 1279.48 1.21199C1280.15 0.403972 1281.16 -3.67463e-05 1282.51 -3.67463e-05C1283.45 -3.67463e-05 1284.26 0.336637 1284.93 1.00999C1285.6 1.54866 1286.28 2.82802 1286.95 4.84807C1288.3 9.83084 1291.06 13.6689 1295.23 16.3623C1296.71 17.305 1297.45 18.517 1297.45 19.9984C1297.45 21.2104 1297.25 22.0184 1296.85 22.4224C1296.44 22.8265 1295.5 23.4325 1294.02 24.2405C1288.23 27.2032 1283.18 31.4453 1278.87 36.9668C1278.6 37.2361 1278.26 37.6401 1277.86 38.1788C1277.46 38.7175 1277.12 39.1215 1276.85 39.3908C1276.58 39.6602 1276.24 39.7948 1275.84 39.7948C1275.44 39.7948 1274.96 39.8622 1274.43 39.9968C1273.48 39.9968 1272.61 39.6602 1271.8 38.9868C1270.99 38.3135 1270.52 37.3034 1270.39 35.9567C1270.39 33.398 1273.55 29.4253 1279.88 24.0385H1245.34L1210.79 23.8365C1209.04 22.6245 1208.17 21.3451 1208.17 19.9984C1208.17 19.0557 1209.04 17.709 1210.79 15.9583H1283.31C1280.08 10.8409 1278.47 6.86811 1278.47 4.04005Z" fill="#D46FA0"/>
<path d="M1347.73 213.638C1346.3 214.876 1344.21 216.208 1341.44 217.637C1338.68 219.065 1335.78 219.779 1332.73 219.779C1326.73 219.779 1321.93 217.637 1318.31 213.352C1314.69 209.068 1312.83 203.593 1312.74 196.928C1312.74 186.931 1316.4 177.743 1323.73 169.364C1331.07 160.986 1339.21 156.749 1348.16 156.654C1352.63 156.654 1356.77 158.939 1360.58 163.509L1361.01 162.938C1361.2 162.652 1361.44 162.366 1361.72 162.081C1362.01 161.795 1362.44 161.414 1363.01 160.938C1363.58 160.462 1364.2 160.129 1364.87 159.939C1365.53 159.748 1366.29 159.605 1367.15 159.51C1368.48 159.51 1369.58 159.939 1370.44 160.795C1371.29 161.652 1371.77 162.557 1371.86 163.509C1371.86 164.937 1369.15 176.458 1363.72 198.071C1358.3 219.684 1355.44 230.728 1355.15 231.204C1353.44 236.346 1349.78 240.583 1344.16 243.915C1338.54 247.247 1332.11 248.961 1324.88 249.056C1311.45 249.056 1304.74 245.819 1304.74 239.345C1304.74 236.869 1305.6 234.679 1307.31 232.775C1309.02 230.871 1311.21 229.919 1313.88 229.919C1315.31 229.919 1316.64 230.347 1317.88 231.204C1319.12 232.061 1319.78 233.537 1319.88 235.632C1319.88 236.584 1319.78 237.488 1319.59 238.345C1319.4 239.202 1319.07 239.868 1318.59 240.345C1318.12 240.821 1317.74 241.297 1317.45 241.773C1317.17 242.249 1316.83 242.63 1316.45 242.915L1316.17 243.201H1316.31C1317.26 243.487 1320.12 243.629 1324.88 243.629C1328.5 243.629 1331.35 243.058 1333.45 241.916C1335.64 240.868 1337.68 239.297 1339.59 237.203C1341.49 235.108 1342.82 232.87 1343.59 230.49C1344.16 228.681 1344.92 225.73 1345.87 221.636C1347.11 217.065 1347.73 214.399 1347.73 213.638ZM1358.15 172.935L1357.58 171.364C1357.3 170.317 1357.06 169.603 1356.87 169.222C1356.68 168.841 1356.39 168.174 1356.01 167.222C1355.63 166.27 1355.15 165.604 1354.58 165.223C1354.01 164.842 1353.39 164.318 1352.73 163.652C1352.06 162.985 1351.2 162.557 1350.16 162.366C1349.11 162.176 1348.06 162.033 1347.01 161.938C1342.82 161.938 1338.78 164.461 1334.87 169.507C1332.02 173.221 1329.64 178.886 1327.73 186.503C1325.83 194.119 1324.88 199.642 1324.88 203.069C1324.88 210.591 1327.83 214.352 1333.73 214.352C1339.06 214.352 1344.3 211.019 1349.44 204.355L1350.58 202.926L1358.15 172.935Z" fill="#D46FA0"/>
<path d="M1409.63 239.778H1409.22C1407.61 239.778 1406.39 238.835 1405.59 236.95V138.775L1405.79 40.6013C1407.14 38.8506 1408.41 37.9752 1409.63 37.9752C1411.38 37.9752 1412.72 38.9853 1413.67 41.0053V236.95C1412.59 238.835 1411.38 239.778 1410.03 239.778H1409.63Z" fill="#D46FA0"/>
<path d="M1505.11 119.382C1505.11 117.631 1506.06 116.285 1507.94 115.342H1636.62C1638.64 116.419 1639.65 117.766 1639.65 119.382C1639.65 120.863 1638.71 122.143 1636.82 123.22L1572.58 123.422H1508.35C1506.19 122.749 1505.11 121.402 1505.11 119.382ZM1505.11 158.571C1505.11 156.551 1506.19 155.204 1508.35 154.531H1636.82C1638.71 155.877 1639.65 157.224 1639.65 158.571C1639.65 160.321 1638.64 161.668 1636.62 162.611H1507.94C1506.06 161.668 1505.11 160.321 1505.11 158.571Z" fill="black"/>
<path d="M1726.47 71.3047C1734.01 60.3965 1744.31 54.9424 1757.38 54.9424C1763.84 54.9424 1770.31 56.6931 1776.77 60.1945C1783.23 63.6959 1788.49 69.8907 1792.53 78.7789C1797.51 89.9565 1800 105.309 1800 124.836C1800 145.71 1797.1 161.668 1791.31 172.711C1788.62 178.367 1784.92 182.878 1780.2 186.245C1775.49 189.612 1771.38 191.699 1767.88 192.507C1764.38 193.315 1760.95 193.787 1757.58 193.921C1754.08 193.921 1750.58 193.517 1747.07 192.709C1743.57 191.901 1739.47 189.747 1734.75 186.245C1730.04 182.744 1726.34 178.232 1723.64 172.711C1717.85 161.668 1714.96 145.71 1714.96 124.836C1714.96 101.403 1718.79 83.5597 1726.47 71.3047ZM1771.92 68.8807C1767.88 64.5713 1763.1 62.4165 1757.58 62.4165C1751.92 62.4165 1747.07 64.5713 1743.03 68.8807C1739.67 72.3821 1737.45 77.2302 1736.37 83.425C1735.29 89.6198 1734.75 102.548 1734.75 122.21C1734.75 143.488 1735.29 157.493 1736.37 164.227C1737.45 170.96 1739.87 176.28 1743.64 180.185C1747.41 184.225 1752.06 186.245 1757.58 186.245C1762.97 186.245 1767.54 184.225 1771.32 180.185C1775.22 176.145 1777.64 170.489 1778.59 163.217C1779.53 155.945 1780.07 142.276 1780.2 122.21C1780.2 102.683 1779.66 89.8218 1778.59 83.627C1777.51 77.4322 1775.29 72.5168 1771.92 68.8807Z" fill="black"/>
</svg>
