<svg width="251" height="50" viewBox="0 0 251 50" fill="none" xmlns="http://www.w3.org/2000/svg">
<path d="M1.33342 37.8184C0.880184 37.8184 0.653564 37.6851 0.653564 37.4185C0.653564 37.3652 0.693556 37.1785 0.77354 36.8586C0.880184 36.432 0.986828 36.1921 1.09347 36.1388C1.20012 36.0854 1.50672 36.0454 2.01328 36.0188C2.73313 36.0188 3.53297 35.9788 4.41278 35.8988C4.78604 35.8188 5.03932 35.6589 5.17262 35.4189C5.22595 35.2856 6.17242 31.5397 8.01203 24.1812C9.85165 16.8228 10.7848 13.0902 10.8115 12.9836C10.8115 12.7969 10.7581 12.7036 10.6515 12.7036C10.4382 12.6236 9.73168 12.557 8.53193 12.5037H7.29218C7.13222 12.3437 7.05223 12.2371 7.05223 12.1837C7.05223 12.1304 7.0789 11.9038 7.13222 11.5039C7.23886 11.0506 7.37217 10.7707 7.53213 10.6641H29.0877C29.2743 10.7707 29.3676 10.9173 29.3676 11.104C29.3676 11.2373 29.1943 12.7303 28.8477 15.583C28.5011 18.4358 28.3145 19.9021 28.2878 19.9821C28.2345 20.1687 27.9679 20.2621 27.488 20.2621H27.0081C26.8215 20.1288 26.7281 19.9555 26.7281 19.7422C26.7281 19.7155 26.7681 19.3956 26.8481 18.7824C26.9281 18.1692 26.9681 17.4626 26.9681 16.6628C26.9681 15.863 26.8748 15.2098 26.6882 14.7032C26.5015 14.1967 26.2482 13.7834 25.9283 13.4635C25.6084 13.1435 25.1151 12.9302 24.4486 12.8236C23.7821 12.717 23.1022 12.6236 22.409 12.5437C21.7159 12.4637 20.7561 12.4503 19.5296 12.5037H18.6098C16.4236 12.5303 15.2639 12.5703 15.1306 12.6236C14.9972 12.677 14.9039 12.7836 14.8506 12.9436C14.824 12.9702 14.3707 14.7165 13.4909 18.1825L12.2112 23.3414H14.4107C14.4907 23.3414 14.7973 23.3414 15.3305 23.3414C15.8637 23.3414 16.237 23.3281 16.4503 23.3014C16.6636 23.2748 16.9568 23.2348 17.3301 23.1814C17.7034 23.1281 18.0233 23.0348 18.2899 22.9015C18.5565 22.7682 18.7831 22.6082 18.9698 22.4216C19.3164 22.1017 19.6096 21.6618 19.8496 21.1019C20.0895 20.542 20.2628 20.0354 20.3695 19.5822C20.4761 19.129 20.5428 18.889 20.5694 18.8623C20.6494 18.729 20.9027 18.6624 21.3293 18.6624H21.8092C21.9958 18.7957 22.0891 18.929 22.0891 19.0623C22.0891 19.1423 21.6759 20.8886 20.8494 24.3012C20.0229 27.7138 19.5696 29.4735 19.4896 29.5801C19.4363 29.7667 19.1697 29.8601 18.6898 29.8601H18.2099C18.0233 29.7001 17.93 29.5401 17.93 29.3802C17.93 29.3002 17.9966 29.0069 18.1299 28.5003C18.2632 27.9938 18.3299 27.4606 18.3299 26.9007C18.3299 26.1275 18.0633 25.6476 17.5301 25.461C16.9968 25.2743 15.8104 25.181 13.9708 25.181H11.7713L10.4915 30.26C9.63836 33.566 9.21179 35.2989 9.21179 35.4589C9.21179 35.8322 10.3982 36.0188 12.771 36.0188H13.7708C13.9308 36.1787 14.0108 36.2721 14.0108 36.2987C14.0108 36.3254 13.9841 36.592 13.9308 37.0986C13.8242 37.4452 13.6909 37.6984 13.5309 37.8584H12.851C11.7579 37.8051 9.74501 37.7784 6.81228 37.7784C5.07931 37.7784 3.75959 37.7784 2.85311 37.7784C1.94663 37.7784 1.44007 37.7917 1.33342 37.8184Z" fill="#6C63FF"/>
<path d="M25.7219 35.7425C25.7219 35.4786 25.8633 35.0262 26.146 34.3853C26.4288 33.7444 26.8812 33.0753 27.5032 32.3778C28.1252 31.6804 28.8227 31.3411 29.5955 31.36C30.3683 31.36 30.9903 31.5767 31.4616 32.0103C31.9328 32.4438 32.1778 33.047 32.1967 33.8198C32.159 34.178 32.1307 34.3759 32.1119 34.4136C32.1119 34.4701 31.9611 34.9037 31.6595 35.7142C31.3579 36.5247 31.0469 37.4389 30.7264 38.4568C30.406 39.4746 30.2552 40.2852 30.2741 40.8883C30.2741 41.6989 30.406 42.2643 30.6699 42.5848C30.9338 42.9052 31.3296 43.0749 31.8574 43.0937C32.2909 43.0937 32.6962 42.9901 33.0732 42.7827C33.4502 42.5754 33.7423 42.3586 33.9497 42.1324C34.157 41.9062 34.4115 41.5952 34.7131 41.1994C34.7131 41.1805 34.7602 40.992 34.8545 40.6339C34.9487 40.2757 35.0807 39.7197 35.2503 38.9657C35.4199 38.2117 35.599 37.5143 35.7875 36.8734C36.5038 34.046 36.8996 32.5663 36.975 32.4344C37.2201 31.9254 37.6253 31.671 38.1908 31.671C38.4359 31.671 38.6338 31.737 38.7846 31.8689C38.9354 32.0008 39.039 32.1139 39.0956 32.2082C39.1521 32.3024 39.171 32.3873 39.1521 32.4627C39.1521 32.7077 38.6903 34.6869 37.7667 38.4002C36.8431 42.1136 36.3153 44.1493 36.1833 44.5074C35.6556 46.0719 34.7414 47.316 33.4408 48.2396C32.1401 49.1632 30.8395 49.6345 29.5389 49.6533C28.6907 49.6533 27.9462 49.446 27.3053 49.0313C26.6644 48.6166 26.344 47.9946 26.344 47.1652C26.344 46.7505 26.4099 46.4018 26.5419 46.1191C26.6738 45.8363 26.8529 45.629 27.0791 45.497C27.3053 45.3651 27.4938 45.2708 27.6446 45.2143C27.7954 45.1577 27.9556 45.1295 28.1252 45.1295C28.9546 45.1295 29.3693 45.5253 29.3693 46.317C29.3693 46.694 29.2562 47.0238 29.03 47.3066C28.8038 47.5893 28.587 47.7778 28.3797 47.8721C28.1723 47.9663 28.0498 48.0134 28.0121 48.0134L27.9273 48.0417C27.965 48.1359 28.1441 48.249 28.4645 48.381C28.785 48.5129 29.1054 48.5789 29.4258 48.5789H29.652C29.9725 48.5789 30.2175 48.5601 30.3872 48.5224C31.0092 48.3527 31.5841 47.9946 32.1119 47.4479C32.6397 46.9013 33.0449 46.317 33.3277 45.6949C33.6104 45.0729 33.8272 44.5451 33.978 44.1116C34.1288 43.6781 34.2042 43.3953 34.2042 43.2634L34.0345 43.3765C33.9214 43.4519 33.7423 43.5555 33.4973 43.6875C33.2523 43.8194 33.0072 43.9325 32.7622 44.0268C32.3852 44.121 32.0176 44.1681 31.6595 44.1681C30.7924 44.1681 30.029 43.9608 29.3693 43.5461C28.7096 43.1314 28.276 42.4623 28.0687 41.5386C28.0498 41.4067 28.0404 41.1145 28.0404 40.6621C28.0404 39.5877 28.3703 38.1835 29.03 36.4493C29.6897 34.7152 30.0196 33.6125 30.0196 33.1412C30.0196 33.1224 30.0196 33.1035 30.0196 33.0847C30.0196 32.915 30.0196 32.8019 30.0196 32.7454C30.0196 32.6888 29.9819 32.6229 29.9065 32.5475C29.8311 32.4721 29.7274 32.4344 29.5955 32.4344H29.4824C29.0488 32.4344 28.653 32.6134 28.2949 32.9716C27.9367 33.3297 27.654 33.7161 27.4466 34.1308C27.2393 34.5455 27.0791 34.9414 26.966 35.3183C26.8529 35.6953 26.7775 35.9027 26.7398 35.9404C26.7021 35.9781 26.5513 35.9969 26.2874 35.9969H25.8916C25.7785 35.8838 25.7219 35.799 25.7219 35.7425Z" fill="#6C63FF"/>
<path d="M54.3342 23.9813C54.3342 23.6347 54.5209 23.3681 54.8941 23.1815H80.3688C80.7687 23.3948 80.9687 23.6614 80.9687 23.9813C80.9687 24.2746 80.7821 24.5279 80.4088 24.7412L67.6915 24.7812H54.9741C54.5475 24.6479 54.3342 24.3812 54.3342 23.9813ZM54.3342 31.7397C54.3342 31.3398 54.5475 31.0732 54.9741 30.9399H80.4088C80.7821 31.2065 80.9687 31.4731 80.9687 31.7397C80.9687 32.0863 80.7687 32.3529 80.3688 32.5396H54.8941C54.5209 32.3529 54.3342 32.0863 54.3342 31.7397Z" fill="#6C63FF"/>
<path d="M99.8723 47.8164H99.7924C99.4724 47.8164 99.2325 47.6298 99.0725 47.2565V27.8206L99.1125 8.3846C99.3791 8.03801 99.6324 7.86471 99.8723 7.86471C100.219 7.86471 100.486 8.06467 100.672 8.46458V47.2565C100.459 47.6298 100.219 47.8164 99.9523 47.8164H99.8723Z" fill="#6C63FF"/>
<path d="M107.351 37.8189C106.898 37.8189 106.672 37.6856 106.672 37.419C106.672 37.3657 106.712 37.179 106.792 36.8591C106.898 36.4325 107.005 36.1926 107.112 36.1392C107.218 36.0859 107.525 36.0459 108.031 36.0193C108.751 36.0193 109.551 35.9793 110.431 35.8993C110.804 35.8193 111.057 35.6593 111.191 35.4194C111.244 35.2861 112.19 31.5402 114.03 24.1817C115.87 16.8233 116.803 13.0907 116.83 12.9841C116.83 12.7974 116.776 12.7041 116.67 12.7041C116.456 12.6241 115.75 12.5575 114.55 12.5042H113.31C113.15 12.3442 113.07 12.2375 113.07 12.1842C113.07 12.1309 113.097 11.9043 113.15 11.5044C113.257 11.0511 113.39 10.7712 113.55 10.6645H135.106C135.292 10.7712 135.386 10.9178 135.386 11.1045C135.386 11.2378 135.212 12.7308 134.866 15.5835C134.519 18.4363 134.333 19.9026 134.306 19.9826C134.253 20.1692 133.986 20.2625 133.506 20.2625H133.026C132.84 20.1292 132.746 19.9559 132.746 19.7427C132.746 19.716 132.786 19.3961 132.866 18.7829C132.946 18.1696 132.986 17.4631 132.986 16.6633C132.986 15.8635 132.893 15.2103 132.706 14.7037C132.52 14.1971 132.266 13.7839 131.946 13.464C131.626 13.144 131.133 12.9307 130.467 12.8241C129.8 12.7174 129.12 12.6241 128.427 12.5442C127.734 12.4642 126.774 12.4508 125.548 12.5042H124.628C122.442 12.5308 121.282 12.5708 121.149 12.6241C121.015 12.6775 120.922 12.7841 120.869 12.9441C120.842 12.9707 120.389 14.717 119.509 18.183L118.229 23.3419H120.429C120.509 23.3419 120.815 23.3419 121.349 23.3419C121.882 23.3419 122.255 23.3286 122.468 23.3019C122.682 23.2753 122.975 23.2353 123.348 23.1819C123.721 23.1286 124.041 23.0353 124.308 22.902C124.575 22.7687 124.801 22.6087 124.988 22.4221C125.334 22.1022 125.628 21.6623 125.868 21.1024C126.108 20.5425 126.281 20.0359 126.388 19.5827C126.494 19.1294 126.561 18.8895 126.587 18.8628C126.667 18.7295 126.921 18.6629 127.347 18.6629H127.827C128.014 18.7962 128.107 18.9295 128.107 19.0628C128.107 19.1428 127.694 20.8891 126.867 24.3017C126.041 27.7143 125.588 29.474 125.508 29.5806C125.454 29.7672 125.188 29.8605 124.708 29.8605H124.228C124.041 29.7006 123.948 29.5406 123.948 29.3806C123.948 29.3007 124.015 29.0074 124.148 28.5008C124.281 27.9943 124.348 27.461 124.348 26.9012C124.348 26.128 124.081 25.6481 123.548 25.4615C123.015 25.2748 121.828 25.1815 119.989 25.1815H117.789L116.51 30.2605C115.656 33.5664 115.23 35.2994 115.23 35.4594C115.23 35.8326 116.416 36.0193 118.789 36.0193H119.789C119.949 36.1792 120.029 36.2725 120.029 36.2992C120.029 36.3259 120.002 36.5925 119.949 37.099C119.842 37.4456 119.709 37.6989 119.549 37.8589H118.869C117.776 37.8056 115.763 37.7789 112.83 37.7789C111.097 37.7789 109.778 37.7789 108.871 37.7789C107.965 37.7789 107.458 37.7922 107.351 37.8189Z" fill="#6C63FF"/>
<path d="M131.998 1.14613C131.998 0.93284 132.065 0.746212 132.198 0.586246C132.332 0.426279 132.532 0.346296 132.798 0.346296C132.985 0.346296 133.145 0.412949 133.278 0.546254C133.411 0.652899 133.545 0.906179 133.678 1.3061C133.945 2.29256 134.491 3.0524 135.318 3.58562C135.611 3.77225 135.758 4.0122 135.758 4.30547C135.758 4.54542 135.718 4.70539 135.638 4.78537C135.558 4.86536 135.371 4.98533 135.078 5.1453C133.931 5.73184 132.932 6.57167 132.078 7.66477C132.025 7.7181 131.958 7.79808 131.878 7.90472C131.798 8.01137 131.732 8.09135 131.678 8.14467C131.625 8.198 131.558 8.22466 131.479 8.22466C131.399 8.22466 131.305 8.23799 131.199 8.26465C131.012 8.26465 130.839 8.198 130.679 8.06469C130.519 7.93138 130.425 7.73143 130.399 7.46481C130.399 6.95825 131.025 6.17175 132.278 5.10531H125.44L118.601 5.06531C118.255 4.82536 118.081 4.57208 118.081 4.30547C118.081 4.11884 118.255 3.85223 118.601 3.50564H132.958C132.318 2.49252 131.998 1.70601 131.998 1.14613Z" fill="#6C63FF"/>
<path d="M142.476 47.8164H142.396C142.076 47.8164 141.836 47.6298 141.677 47.2565V27.8206L141.717 8.3846C141.983 8.03801 142.236 7.86471 142.476 7.86471C142.823 7.86471 143.09 8.06467 143.276 8.46458V47.2565C143.063 47.6298 142.823 47.8164 142.556 47.8164H142.476Z" fill="#6C63FF"/>
<path d="M153.274 26.3003C153.274 25.4471 153.487 24.5807 153.914 23.7008C154.34 22.821 155.087 22.0079 156.153 21.2614C157.22 20.5148 158.513 20.1549 160.032 20.1816C161.685 20.1816 162.885 20.5415 163.632 21.2614C164.378 21.9812 164.765 22.781 164.791 23.6609C164.791 24.514 164.565 25.1405 164.112 25.5405C163.658 25.9404 163.152 26.1537 162.592 26.1803C162.245 26.1803 161.925 26.0737 161.632 25.8604C161.339 25.6471 161.179 25.3005 161.152 24.8206C161.152 24.394 161.272 24.0208 161.512 23.7008C161.752 23.3809 161.979 23.141 162.192 22.981C162.405 22.821 162.579 22.741 162.712 22.741C162.739 22.741 162.752 22.7277 162.752 22.701C162.752 22.6211 162.659 22.5011 162.472 22.3411C162.285 22.1812 161.952 22.0345 161.472 21.9012C160.992 21.7679 160.472 21.6879 159.913 21.6613C158.633 21.6613 157.7 22.0079 157.113 22.701C156.527 23.3942 156.22 24.1008 156.193 24.8206C156.193 25.4871 156.447 25.9537 156.953 26.2203C157.46 26.4869 158.193 26.7135 159.153 26.9002C160.112 27.0868 160.806 27.2868 161.232 27.5001C162.992 28.2732 163.872 29.553 163.872 31.3393C163.872 32.0858 163.725 32.8323 163.432 33.5788C163.139 34.3253 162.699 35.0718 162.112 35.8183C161.526 36.5648 160.686 37.1514 159.593 37.578C158.499 38.0045 157.246 38.2312 155.833 38.2578C153.78 38.2578 152.327 37.8712 151.474 37.0981C150.621 36.3249 150.181 35.4184 150.155 34.3786C150.155 33.3388 150.434 32.5923 150.994 32.1391C151.554 31.6858 152.141 31.4592 152.754 31.4592C153.154 31.4592 153.527 31.5792 153.874 31.8192C154.22 32.0591 154.407 32.4724 154.434 33.0589C154.434 33.7521 154.194 34.3386 153.714 34.8185C153.234 35.2984 152.821 35.5384 152.474 35.5384C152.421 35.565 152.381 35.5784 152.354 35.5784C152.327 35.5784 152.314 35.605 152.314 35.6584C152.341 35.7383 152.447 35.845 152.634 35.9783C152.821 36.1116 153.234 36.2849 153.874 36.4982C154.514 36.7115 155.247 36.8048 156.073 36.7781C157.033 36.7781 157.86 36.6315 158.553 36.3382C159.246 36.0449 159.753 35.6717 160.072 35.2184C160.392 34.7652 160.619 34.352 160.752 33.9787C160.886 33.6054 160.952 33.2722 160.952 32.9789C160.952 32.2324 160.672 31.6725 160.112 31.2993C159.553 30.926 158.913 30.6994 158.193 30.6194C157.473 30.5394 156.687 30.3395 155.833 30.0195C154.98 29.6996 154.354 29.233 153.954 28.6198C153.501 27.9533 153.274 27.1801 153.274 26.3003Z" fill="#6C63FF"/>
<path d="M174.15 13.8634C174.15 13.2236 174.403 12.6637 174.91 12.1838C175.416 11.7039 176.003 11.4506 176.669 11.4239C177.149 11.4239 177.549 11.5839 177.869 11.9038C178.189 12.2238 178.362 12.6237 178.389 13.1036C178.389 13.7168 178.122 14.2767 177.589 14.7832C177.056 15.2898 176.469 15.5564 175.829 15.5831C175.429 15.5831 175.056 15.4498 174.71 15.1831C174.363 14.9165 174.176 14.4766 174.15 13.8634ZM167.631 26.3808C167.631 26.1675 167.751 25.7543 167.991 25.1411C168.231 24.5279 168.551 23.848 168.951 23.1015C169.351 22.355 169.937 21.6751 170.71 21.0619C171.484 20.4487 172.283 20.1554 173.11 20.1821C174.15 20.1821 175.016 20.4887 175.709 21.1019C176.403 21.7151 176.763 22.5416 176.789 23.5814C176.789 24.0346 176.603 24.7812 176.229 25.8209C175.856 26.8607 175.323 28.2604 174.63 30.0201C173.936 31.7797 173.377 33.286 172.95 34.5391C172.817 35.1257 172.75 35.5522 172.75 35.8189C172.75 36.4854 172.977 36.8186 173.43 36.8186C173.67 36.8186 173.923 36.7787 174.19 36.6987C174.456 36.6187 174.763 36.4321 175.11 36.1388C175.456 35.8455 175.816 35.3789 176.189 34.7391C176.563 34.0992 176.896 33.3127 177.189 32.3796C177.269 32.0596 177.336 31.873 177.389 31.8197C177.442 31.7664 177.669 31.7397 178.069 31.7397C178.602 31.7397 178.869 31.873 178.869 32.1396C178.869 32.3529 178.749 32.7662 178.509 33.3794C178.269 33.9926 177.936 34.6724 177.509 35.4189C177.082 36.1655 176.483 36.832 175.709 37.4185C174.936 38.0051 174.11 38.2983 173.23 38.2983C172.377 38.2983 171.59 38.0184 170.87 37.4585C170.151 36.8986 169.777 36.0455 169.751 34.899C169.751 34.4458 169.817 34.0192 169.951 33.6193C170.084 33.2194 170.657 31.6997 171.67 29.0603C172.683 26.3675 173.27 24.7545 173.43 24.2213C173.59 23.688 173.683 23.1682 173.71 22.6616C173.71 22.0217 173.483 21.7018 173.03 21.7018H172.95C172.15 21.7018 171.417 22.1417 170.75 23.0215C170.084 23.9013 169.577 25.0211 169.231 26.3808C169.204 26.4075 169.177 26.4475 169.151 26.5008C169.124 26.5541 169.111 26.5941 169.111 26.6208C169.111 26.6474 169.084 26.6741 169.031 26.7008C168.977 26.7274 168.937 26.7407 168.911 26.7407C168.884 26.7407 168.831 26.7407 168.751 26.7407C168.671 26.7407 168.564 26.7407 168.431 26.7407H167.871C167.711 26.5808 167.631 26.4608 167.631 26.3808Z" fill="#6C63FF"/>
<path d="M181.427 26.3808C181.454 26.2209 181.494 26.0076 181.547 25.741C181.601 25.4743 181.761 24.9678 182.027 24.2213C182.294 23.4748 182.561 22.8482 182.827 22.3417C183.094 21.8351 183.534 21.3419 184.147 20.862C184.76 20.3821 185.373 20.1554 185.987 20.1821C186.946 20.1821 187.746 20.4221 188.386 20.902C189.026 21.3819 189.426 21.8351 189.586 22.2617C189.746 22.6883 189.826 22.9682 189.826 23.1015C189.826 23.1548 189.839 23.1815 189.866 23.1815L190.306 22.7416C191.932 21.0353 193.785 20.1821 195.864 20.1821C197.304 20.1821 198.464 20.542 199.344 21.2619C200.224 21.9817 200.677 23.0348 200.703 24.4212C200.73 25.8076 200.224 27.9005 199.184 30.6999C198.144 33.4993 197.637 35.1923 197.664 35.7789C197.664 36.4721 197.891 36.8186 198.344 36.8186C198.504 36.8186 198.624 36.8053 198.704 36.7787C199.477 36.6454 200.17 36.1388 200.783 35.259C201.397 34.3792 201.863 33.3127 202.183 32.0596C202.236 31.8463 202.503 31.7397 202.983 31.7397C203.516 31.7397 203.783 31.8463 203.783 32.0596C203.783 32.0863 203.73 32.2863 203.623 32.6595C203.41 33.4327 203.116 34.1925 202.743 34.939C202.37 35.6855 201.757 36.4321 200.903 37.1786C200.05 37.9251 199.13 38.285 198.144 38.2583C196.891 38.2583 195.984 37.8984 195.425 37.1786C194.865 36.4587 194.585 35.7122 194.585 34.939C194.585 34.4325 195.065 32.8328 196.024 30.14C196.984 27.4473 197.477 25.421 197.504 24.0613C197.504 22.4883 196.918 21.7018 195.745 21.7018H195.545C193.252 21.7018 191.319 23.0482 189.746 25.741L189.466 26.2209L188.146 31.5797C187.266 35.0723 186.76 36.952 186.626 37.2186C186.28 37.9384 185.707 38.2983 184.907 38.2983C184.56 38.2983 184.28 38.2184 184.067 38.0584C183.854 37.8984 183.707 37.7385 183.627 37.5785C183.547 37.4185 183.52 37.2852 183.547 37.1786C183.547 36.832 184.054 34.6591 185.067 30.6599C186.08 26.6608 186.613 24.4879 186.666 24.1413C186.693 24.008 186.706 23.7014 186.706 23.2215C186.706 22.1817 186.386 21.6618 185.747 21.6618C184.733 21.6618 183.894 22.9949 183.227 25.661C183.067 26.1942 182.987 26.4741 182.987 26.5008C182.934 26.6608 182.681 26.7407 182.227 26.7407H181.667C181.507 26.5808 181.427 26.4608 181.427 26.3808Z" fill="#6C63FF"/>
<path d="M208.343 27.8606C208.343 26.021 208.476 24.2747 208.743 22.6217C209.01 20.9687 209.316 19.5423 209.663 18.3426C210.009 17.1428 210.503 15.9697 211.142 14.8233C211.782 13.6769 212.289 12.7837 212.662 12.1439C213.035 11.504 213.595 10.8108 214.342 10.0643C215.088 9.31779 215.528 8.86456 215.661 8.70459C215.795 8.54462 216.128 8.26468 216.661 7.86477H217.181H217.341C217.714 7.86477 217.901 7.98474 217.901 8.22469C217.901 8.30467 217.674 8.58461 217.221 9.06451C216.768 9.54441 216.221 10.2509 215.582 11.1841C214.942 12.1172 214.288 13.2636 213.622 14.6234C212.955 15.9831 212.396 17.8227 211.942 20.1422C211.489 22.4617 211.262 25.0345 211.262 27.8606C211.262 30.6867 211.489 33.2462 211.942 35.539C212.396 37.8319 212.942 39.6848 213.582 41.0979C214.222 42.5109 214.875 43.6573 215.542 44.5371C216.208 45.417 216.768 46.1235 217.221 46.6567C217.674 47.1899 217.901 47.4699 217.901 47.4965C217.901 47.7365 217.701 47.8564 217.301 47.8564H217.181H216.661L215.542 46.8966C213.035 44.6304 211.209 41.8044 210.063 38.4184C208.916 35.0324 208.343 31.5132 208.343 27.8606Z" fill="#6C63FF"/>
<path d="M221.54 29.8596C221.54 27.1401 222.06 24.2741 223.099 21.2613C224.139 18.2486 225.552 15.6492 227.339 13.463C229.125 11.2768 230.978 10.0237 232.897 9.70375C232.924 9.70375 233.031 9.70375 233.217 9.70375C233.404 9.70375 233.564 9.69042 233.697 9.66376C235.137 9.7704 236.257 10.4236 237.057 11.6234C238.096 13.223 238.616 15.3692 238.616 18.062C238.616 21.128 238.016 24.2474 236.817 27.4201C235.617 30.5927 234.084 33.1922 232.218 35.2184C230.351 37.2447 228.565 38.2578 226.859 38.2578H226.579C225.619 38.2578 224.792 37.9912 224.099 37.458C223.406 36.9248 222.886 36.2182 222.54 35.3384C222.193 34.4586 221.94 33.5655 221.78 32.659C221.62 31.7525 221.54 30.8194 221.54 29.8596ZM235.457 15.2226C235.457 12.5032 234.75 11.1434 233.337 11.1434C232.378 11.1434 231.444 11.7433 230.538 12.9431C229.631 14.1428 228.885 15.5025 228.298 17.0222C227.712 18.5419 227.259 19.875 226.939 21.0214C226.619 22.1678 226.445 22.8344 226.419 23.021C227.725 23.0476 229.018 23.061 230.298 23.061L234.177 23.021C234.204 22.9943 234.31 22.5544 234.497 21.7013C234.684 20.8481 234.897 19.7817 235.137 18.5019C235.377 17.2222 235.484 16.1291 235.457 15.2226ZM224.659 32.579C224.659 35.4051 225.366 36.8181 226.779 36.8181C227.179 36.8181 227.605 36.6848 228.058 36.4182C228.512 36.1516 229.058 35.645 229.698 34.8985C230.338 34.152 230.978 32.9922 231.618 31.4192C232.258 29.8462 232.897 27.9 233.537 25.5804L233.737 24.9006H225.939C225.939 24.9806 225.819 25.4871 225.579 26.4203C225.339 27.3534 225.126 28.3932 224.939 29.5396C224.752 30.6861 224.659 31.6992 224.659 32.579Z" fill="#6C63FF"/>
<path d="M241.295 7.90475L241.455 7.86477C241.589 7.86477 241.722 7.86477 241.855 7.86477H242.335L243.455 8.82457C245.961 11.0908 247.787 13.9168 248.934 17.3028C250.08 20.6888 250.653 24.208 250.653 27.8606C250.653 29.6736 250.52 31.4199 250.254 33.0995C249.987 34.7792 249.68 36.2055 249.334 37.3786C248.987 38.5517 248.494 39.7248 247.854 40.8979C247.214 42.071 246.708 42.9641 246.334 43.5773C245.961 44.1905 245.415 44.8704 244.695 45.6169C243.975 46.3634 243.548 46.8033 243.415 46.9366C243.282 47.0699 242.975 47.3232 242.495 47.6965C242.415 47.7765 242.362 47.8298 242.335 47.8564H241.855C241.642 47.8564 241.495 47.8564 241.415 47.8564C241.335 47.8564 241.269 47.8165 241.215 47.7365C241.162 47.6565 241.122 47.5365 241.095 47.3765C241.122 47.3499 241.269 47.1766 241.535 46.8567C245.668 42.5642 247.734 36.2322 247.734 27.8606C247.734 19.489 245.668 13.157 241.535 8.86456C241.269 8.54462 241.122 8.37133 241.095 8.34467C241.095 8.13137 241.162 7.98474 241.295 7.90475Z" fill="#6C63FF"/>
</svg>
