<svg width="250" height="48" viewBox="0 0 250 48" fill="none" xmlns="http://www.w3.org/2000/svg">
<path d="M0.676504 37.2878C0.225501 37.2878 0 37.1552 0 36.8899C0 36.8368 0.0397944 36.6511 0.119383 36.3328C0.225501 35.9083 0.33162 35.6695 0.437738 35.6165C0.543856 35.5634 0.848946 35.5236 1.35301 35.4971C2.06931 35.4971 2.86519 35.4573 3.74067 35.3777C4.11208 35.2981 4.36411 35.1389 4.49676 34.9002C4.54982 34.7675 5.49162 31.0401 7.32216 23.718C9.1527 16.3958 10.0812 12.6817 10.1078 12.5756C10.1078 12.3898 10.0547 12.297 9.94859 12.297C9.73635 12.2174 9.03332 12.1511 7.83949 12.098H6.60586C6.44668 11.9388 6.3671 11.8327 6.3671 11.7797C6.3671 11.7266 6.39363 11.5011 6.44668 11.1032C6.5528 10.6522 6.68545 10.3736 6.84463 10.2675H28.2938C28.4795 10.3736 28.5723 10.5195 28.5723 10.7052C28.5723 10.8379 28.3999 12.3235 28.055 15.1622C27.7101 18.0008 27.5244 19.46 27.4979 19.5396C27.4448 19.7253 27.1795 19.8181 26.702 19.8181H26.2245C26.0388 19.6855 25.9459 19.513 25.9459 19.3008C25.9459 19.2743 25.9857 18.9559 26.0653 18.3457C26.1449 17.7356 26.1847 17.0325 26.1847 16.2366C26.1847 15.4407 26.0918 14.7908 25.9061 14.2867C25.7204 13.7826 25.4684 13.3714 25.15 13.0531C24.8317 12.7347 24.3409 12.5225 23.6776 12.4164C23.0144 12.3103 22.3379 12.2174 21.6481 12.1378C20.9584 12.0582 20.0033 12.045 18.7829 12.098H17.8677C15.6922 12.1245 14.5382 12.1643 14.4056 12.2174C14.2729 12.2705 14.1801 12.3766 14.127 12.5358C14.1005 12.5623 13.6495 14.3 12.774 17.7488L11.5006 22.8823H13.6893C13.7688 22.8823 14.0739 22.8823 14.6045 22.8823C15.1351 22.8823 15.5065 22.869 15.7188 22.8425C15.931 22.816 16.2228 22.7762 16.5942 22.7231C16.9657 22.6701 17.284 22.5772 17.5493 22.4446C17.8146 22.3119 18.0401 22.1527 18.2258 21.967C18.5707 21.6487 18.8625 21.2109 19.1013 20.6538C19.3401 20.0967 19.5125 19.5926 19.6186 19.1416C19.7247 18.6906 19.7911 18.4519 19.8176 18.4253C19.8972 18.2927 20.1492 18.2263 20.5737 18.2263H21.0512C21.2369 18.359 21.3298 18.4916 21.3298 18.6243C21.3298 18.7039 20.9186 20.4416 20.0961 23.8374C19.2737 27.2331 18.8227 28.9841 18.7431 29.0902C18.6901 29.2759 18.4248 29.3688 17.9473 29.3688H17.4697C17.284 29.2096 17.1912 29.0504 17.1912 28.8912C17.1912 28.8116 17.2575 28.5198 17.3901 28.0158C17.5228 27.5117 17.5891 26.9811 17.5891 26.424C17.5891 25.6546 17.3238 25.1771 16.7932 24.9914C16.2626 24.8057 15.0821 24.7128 13.2515 24.7128H11.0628L9.78941 29.7667C8.94046 33.0564 8.51599 34.7808 8.51599 34.94C8.51599 35.3114 9.69656 35.4971 12.0577 35.4971H13.0525C13.2117 35.6563 13.2913 35.7491 13.2913 35.7757C13.2913 35.8022 13.2648 36.0675 13.2117 36.5715C13.1056 36.9164 12.973 37.1685 12.8138 37.3276H12.1373C11.0496 37.2746 9.04658 37.248 6.12833 37.248C4.40391 37.248 3.09069 37.248 2.18869 37.248C1.28668 37.248 0.782622 37.2613 0.676504 37.2878Z" fill="#6C63FF"/>
<path d="M25.8172 35.1661C25.9485 34.3783 26.4549 33.4686 27.3364 32.437C28.218 31.4054 29.3058 30.8802 30.6 30.8615C31.2565 30.8615 31.8567 31.0303 32.4007 31.3679C32.9446 31.7055 33.3479 32.1275 33.6104 32.6339C34.3982 31.4523 35.3454 30.8615 36.452 30.8615C37.146 30.8615 37.7462 31.0678 38.2527 31.4804C38.7591 31.8931 39.0217 32.4464 39.0404 33.1404C39.0404 33.6843 38.9091 34.1251 38.6465 34.4627C38.3839 34.8003 38.1307 35.0066 37.8869 35.0817C37.6431 35.1567 37.4274 35.1942 37.2398 35.1942C36.8834 35.1942 36.5927 35.091 36.3676 34.8847C36.1426 34.6784 36.03 34.4064 36.03 34.0688C36.03 33.206 36.4989 32.6152 37.4367 32.2963C37.2304 32.0525 36.8553 31.9306 36.3114 31.9306C36.0675 31.9306 35.8893 31.9493 35.7768 31.9869C35.0641 32.287 34.5389 32.9059 34.2013 33.8437C33.0759 37.9889 32.5132 40.4085 32.5132 41.1025C32.5132 41.6276 32.6632 42.0028 32.9633 42.2278C33.2634 42.4529 33.5917 42.5655 33.9481 42.5655C34.642 42.5655 35.3267 42.256 36.0019 41.637C36.6771 41.0181 37.1366 40.2584 37.3805 39.3581C37.4367 39.1706 37.493 39.0674 37.5493 39.0486C37.6056 39.0299 37.7556 39.0111 37.9994 38.9924H38.112C38.3933 38.9924 38.534 39.0674 38.534 39.2174C38.534 39.2362 38.5152 39.3394 38.4777 39.5269C38.1776 40.596 37.5962 41.5432 36.7334 42.3685C35.8706 43.1938 34.8671 43.6064 33.723 43.6064C32.41 43.6064 31.4159 43.0156 30.7407 41.834C29.9717 42.9969 29.0901 43.5783 28.0961 43.5783H27.9273C27.0082 43.5783 26.3517 43.3345 25.9578 42.8468C25.5639 42.3591 25.3576 41.8433 25.3389 41.2994C25.3389 40.6992 25.5171 40.2115 25.8734 39.8364C26.2298 39.4613 26.6518 39.2737 27.1395 39.2737C27.946 39.2737 28.3493 39.6676 28.3493 40.4554C28.3493 40.8305 28.2367 41.1587 28.0117 41.4401C27.7866 41.7214 27.5709 41.909 27.3646 42.0028C27.1582 42.0966 27.0363 42.1434 26.9988 42.1434L26.9144 42.1716C26.9144 42.1903 26.9707 42.2278 27.0832 42.2841C27.1958 42.3404 27.3458 42.406 27.5334 42.4811C27.7209 42.5561 27.8991 42.5842 28.0679 42.5655C28.7432 42.5655 29.3246 42.1434 29.8123 41.2994C29.9811 40.9993 30.1968 40.3616 30.4594 39.3863C30.722 38.4109 30.9845 37.3981 31.2471 36.3477C31.5097 35.2974 31.6598 34.6784 31.6973 34.4908C31.7911 33.9844 31.838 33.6187 31.838 33.3936C31.838 32.8684 31.6973 32.4933 31.4159 32.2682C31.1346 32.0431 30.8157 31.9306 30.4594 31.9306C29.7091 31.9306 29.0057 32.2307 28.3493 32.8309C27.6928 33.4311 27.2333 34.2001 26.9707 35.1379C26.9332 35.3067 26.8863 35.4005 26.83 35.4193C26.7737 35.438 26.6237 35.4568 26.3798 35.4755H25.986C25.8734 35.363 25.8172 35.2598 25.8172 35.1661Z" fill="#6C63FF"/>
<path d="M55.72 23.5187C55.72 23.1738 55.9057 22.9085 56.2772 22.7228H81.6262C82.0241 22.935 82.2231 23.2003 82.2231 23.5187C82.2231 23.8105 82.0374 24.0625 81.6659 24.2748L69.0113 24.3146H56.3567C55.9323 24.1819 55.72 23.9166 55.72 23.5187ZM55.72 31.2388C55.72 30.8408 55.9323 30.5755 56.3567 30.4429H81.6659C82.0374 30.7082 82.2231 30.9735 82.2231 31.2388C82.2231 31.5837 82.0241 31.849 81.6262 32.0347H56.2772C55.9057 31.849 55.72 31.5837 55.72 31.2388Z" fill="#6C63FF"/>
<path d="M101.038 47.2363H100.958C100.64 47.2363 100.401 47.0506 100.242 46.6792V27.3392L100.282 7.9991C100.547 7.65422 100.799 7.48178 101.038 7.48178C101.383 7.48178 101.648 7.68075 101.834 8.07869V46.6792C101.622 47.0506 101.383 47.2363 101.117 47.2363H101.038Z" fill="#6C63FF"/>
<path d="M108.479 37.2874C108.028 37.2874 107.803 37.1547 107.803 36.8894C107.803 36.8364 107.843 36.6506 107.922 36.3323C108.028 35.9078 108.135 35.6691 108.241 35.616C108.347 35.5629 108.652 35.5231 109.156 35.4966C109.872 35.4966 110.668 35.4568 111.544 35.3772C111.915 35.2976 112.167 35.1385 112.3 34.8997C112.353 34.767 113.295 31.0396 115.125 23.7175C116.956 16.3953 117.884 12.6812 117.911 12.5751C117.911 12.3894 117.858 12.2965 117.752 12.2965C117.539 12.2169 116.836 12.1506 115.642 12.0975H114.409C114.25 11.9384 114.17 11.8322 114.17 11.7792C114.17 11.7261 114.197 11.5006 114.25 11.1027C114.356 10.6517 114.488 10.3731 114.648 10.267H136.097C136.282 10.3731 136.375 10.519 136.375 10.7047C136.375 10.8374 136.203 12.323 135.858 15.1617C135.513 18.0004 135.327 19.4595 135.301 19.5391C135.248 19.7248 134.982 19.8176 134.505 19.8176H134.027C133.842 19.685 133.749 19.5125 133.749 19.3003C133.749 19.2738 133.789 18.9554 133.868 18.3452C133.948 17.7351 133.988 17.032 133.988 16.2361C133.988 15.4403 133.895 14.7903 133.709 14.2862C133.523 13.7822 133.271 13.371 132.953 13.0526C132.635 12.7342 132.144 12.522 131.481 12.4159C130.817 12.3098 130.141 12.2169 129.451 12.1373C128.761 12.0577 127.806 12.0445 126.586 12.0975H125.671C123.495 12.1241 122.341 12.1639 122.208 12.2169C122.076 12.27 121.983 12.3761 121.93 12.5353C121.903 12.5618 121.452 14.2995 120.577 17.7483L119.303 22.8818H121.492C121.572 22.8818 121.877 22.8818 122.407 22.8818C122.938 22.8818 123.309 22.8685 123.522 22.842C123.734 22.8155 124.026 22.7757 124.397 22.7226C124.769 22.6696 125.087 22.5767 125.352 22.4441C125.618 22.3114 125.843 22.1522 126.029 21.9665C126.374 21.6482 126.665 21.2104 126.904 20.6533C127.143 20.0962 127.315 19.5921 127.422 19.1411C127.528 18.6901 127.594 18.4514 127.621 18.4248C127.7 18.2922 127.952 18.2259 128.377 18.2259H128.854C129.04 18.3585 129.133 18.4912 129.133 18.6238C129.133 18.7034 128.721 20.4411 127.899 23.8369C127.077 27.2326 126.626 28.9836 126.546 29.0897C126.493 29.2754 126.228 29.3683 125.75 29.3683H125.273C125.087 29.2091 124.994 29.0499 124.994 28.8907C124.994 28.8112 125.06 28.5193 125.193 28.0153C125.326 27.5112 125.392 26.9806 125.392 26.4235C125.392 25.6541 125.127 25.1766 124.596 24.9909C124.066 24.8052 122.885 24.7123 121.054 24.7123H118.866L117.592 29.7662C116.743 33.0559 116.319 34.7803 116.319 34.9395C116.319 35.3109 117.499 35.4966 119.861 35.4966H120.855C121.015 35.6558 121.094 35.7486 121.094 35.7752C121.094 35.8017 121.068 36.067 121.015 36.5711C120.909 36.9159 120.776 37.168 120.617 37.3271H119.94C118.852 37.2741 116.85 37.2476 113.931 37.2476C112.207 37.2476 110.894 37.2476 109.992 37.2476C109.09 37.2476 108.586 37.2608 108.479 37.2874Z" fill="#6C63FF"/>
<path d="M133.005 0.796C133.005 0.583764 133.071 0.398057 133.204 0.23888C133.336 0.0797024 133.535 0.000113487 133.801 0.000113487C133.986 0.000113487 134.145 0.0664377 134.278 0.199085C134.411 0.305203 134.543 0.557234 134.676 0.955178C134.941 1.93677 135.485 2.69286 136.308 3.22346C136.599 3.40916 136.745 3.64793 136.745 3.93975C136.745 4.17852 136.706 4.3377 136.626 4.41729C136.546 4.49688 136.361 4.61626 136.069 4.77544C134.928 5.35909 133.933 6.19477 133.084 7.28248C133.031 7.33554 132.965 7.41513 132.885 7.52125C132.806 7.62736 132.739 7.70695 132.686 7.76001C132.633 7.81307 132.567 7.8396 132.487 7.8396C132.408 7.8396 132.315 7.85286 132.209 7.87939C132.023 7.87939 131.851 7.81307 131.691 7.68042C131.532 7.54777 131.439 7.3488 131.413 7.08351C131.413 6.57945 132.036 5.79682 133.283 4.73564H126.478L119.674 4.69585C119.329 4.45708 119.156 4.20505 119.156 3.93975C119.156 3.75405 119.329 3.48875 119.674 3.14387H133.96C133.323 2.13574 133.005 1.35312 133.005 0.796Z" fill="#6C63FF"/>
<path d="M143.431 47.2363H143.351C143.033 47.2363 142.794 47.0506 142.635 46.6792V27.3392L142.675 7.9991C142.94 7.65422 143.192 7.48178 143.431 7.48178C143.776 7.48178 144.041 7.68075 144.227 8.07869V46.6792C144.014 47.0506 143.776 47.2363 143.51 47.2363H143.431Z" fill="#6C63FF"/>
<path d="M150.315 31.0002C150.315 28.1085 151.456 25.5086 153.737 23.2005C156.019 20.8925 158.486 19.7384 161.139 19.7384C162.625 19.7384 163.792 20.0568 164.641 20.6935C165.49 21.3302 165.928 22.1659 165.954 23.2005C165.954 23.9699 165.702 24.6199 165.198 25.1505C164.694 25.6811 164.057 25.9596 163.288 25.9861C162.784 25.9861 162.386 25.8535 162.094 25.5882C161.802 25.3229 161.657 24.925 161.657 24.3944C161.657 23.8638 161.802 23.4128 162.094 23.0414C162.386 22.6699 162.678 22.3914 162.97 22.2057C163.262 22.02 163.447 21.9404 163.527 21.9669H163.567C163.567 21.9139 163.487 21.8343 163.328 21.7281C163.169 21.622 162.89 21.5159 162.492 21.4098C162.094 21.3037 161.643 21.2506 161.139 21.2506C160.343 21.2506 159.587 21.4363 158.871 21.8077C158.314 22.0465 157.743 22.4577 157.16 23.0414C155.993 24.2087 155.144 25.8535 154.613 27.9759C154.082 30.0982 153.804 31.6369 153.777 32.592C153.777 33.8124 154.122 34.7276 154.812 35.3378C155.396 35.9745 156.165 36.2929 157.12 36.2929H157.279C160.251 36.2929 162.704 35.1654 164.641 32.9104C164.88 32.6451 165.039 32.5124 165.119 32.5124C165.225 32.5124 165.397 32.6318 165.636 32.8706C165.875 33.1093 166.007 33.295 166.034 33.4277C166.06 33.5603 165.941 33.7593 165.676 34.0246C165.411 34.2899 165.026 34.6613 164.522 35.1388C164.018 35.6164 163.421 36.0143 162.731 36.3327C162.041 36.651 161.192 36.9826 160.184 37.3275C159.176 37.6724 158.115 37.8183 157.001 37.7653C155.011 37.7653 153.406 37.1286 152.186 35.8551C150.965 34.5817 150.342 32.9634 150.315 31.0002Z" fill="#6C63FF"/>
<path d="M174.192 37.7646C172.202 37.7646 170.597 37.1147 169.377 35.8147C168.156 34.5148 167.546 32.9495 167.546 31.119C167.546 29.3946 167.944 27.763 168.74 26.2243C169.536 24.6856 170.624 23.3458 172.003 22.2051C174.019 20.5868 176.075 19.7776 178.171 19.7776C179.02 19.7776 179.551 19.7909 179.763 19.8174C180.108 19.897 180.453 19.9898 180.798 20.096C181.142 20.2021 181.607 20.4143 182.19 20.7327C182.774 21.051 183.252 21.449 183.623 21.9265C183.994 22.404 184.339 23.054 184.658 23.8764C184.976 24.6988 185.135 25.6274 185.135 26.662C185.135 29.5007 183.994 32.0608 181.713 34.3423C179.431 36.6239 176.924 37.7646 174.192 37.7646ZM171.008 32.5516C171.008 33.8781 171.353 34.8331 172.043 35.4168C172.733 36.0004 173.515 36.2923 174.391 36.2923C175.558 36.2923 176.659 35.8678 177.694 35.0188C178.728 34.1699 179.551 33.0557 180.161 31.6761C180.4 31.119 180.705 30.1374 181.076 28.7313C181.448 27.3253 181.633 26.1049 181.633 25.0703C181.633 23.9029 181.395 23.0142 180.917 22.404C180.28 21.6081 179.431 21.2102 178.37 21.2102C176.699 21.2102 175.226 21.9796 173.953 23.5183C172.971 24.6856 172.242 26.2376 171.764 28.1742C171.287 30.1109 171.035 31.57 171.008 32.5516Z" fill="#6C63FF"/>
<path d="M190.706 25.8266C190.706 24.9776 190.919 24.1154 191.343 23.24C191.768 22.3645 192.51 21.5553 193.572 20.8125C194.633 20.0697 195.919 19.7115 197.432 19.7381C199.077 19.7381 200.27 20.0962 201.013 20.8125C201.756 21.5288 202.141 22.3247 202.167 23.2002C202.167 24.0491 201.942 24.6726 201.491 25.0705C201.04 25.4684 200.536 25.6807 199.979 25.7072C199.634 25.7072 199.315 25.6011 199.023 25.3888C198.732 25.1766 198.572 24.8317 198.546 24.3542C198.546 23.9297 198.665 23.5583 198.904 23.24C199.143 22.9216 199.368 22.6828 199.581 22.5237C199.793 22.3645 199.965 22.2849 200.098 22.2849C200.124 22.2849 200.138 22.2716 200.138 22.2451C200.138 22.1655 200.045 22.0461 199.859 21.8869C199.673 21.7278 199.342 21.5819 198.864 21.4492C198.387 21.3166 197.869 21.237 197.312 21.2104C196.039 21.2104 195.11 21.5553 194.527 22.2451C193.943 22.9349 193.638 23.6379 193.611 24.3542C193.611 25.0174 193.863 25.4817 194.368 25.747C194.872 26.0123 195.601 26.2378 196.556 26.4235C197.511 26.6092 198.201 26.8082 198.626 27.0204C200.376 27.7898 201.252 29.0632 201.252 30.8407C201.252 31.5835 201.106 32.3263 200.814 33.0692C200.522 33.812 200.085 34.5548 199.501 35.2976C198.917 36.0405 198.082 36.6241 196.994 37.0486C195.906 37.4731 194.659 37.6986 193.253 37.7251C191.21 37.7251 189.765 37.3404 188.916 36.5711C188.067 35.8017 187.629 34.8997 187.602 33.865C187.602 32.8304 187.881 32.0876 188.438 31.6366C188.995 31.1856 189.579 30.9601 190.189 30.9601C190.587 30.9601 190.958 31.0794 191.303 31.3182C191.648 31.557 191.834 31.9682 191.86 32.5518C191.86 33.2416 191.622 33.8253 191.144 34.3028C190.667 34.7803 190.255 35.0191 189.911 35.0191C189.857 35.0456 189.818 35.0589 189.791 35.0589C189.765 35.0589 189.751 35.0854 189.751 35.1385C189.778 35.2181 189.884 35.3242 190.07 35.4568C190.255 35.5895 190.667 35.7619 191.303 35.9741C191.94 36.1864 192.67 36.2792 193.492 36.2527C194.447 36.2527 195.27 36.1068 195.959 35.815C196.649 35.5231 197.153 35.1517 197.471 34.7007C197.79 34.2497 198.015 33.8385 198.148 33.4671C198.281 33.0957 198.347 32.7641 198.347 32.4722C198.347 31.7294 198.068 31.1723 197.511 30.8009C196.954 30.4295 196.317 30.204 195.601 30.1244C194.885 30.0448 194.102 29.8458 193.253 29.5275C192.404 29.2091 191.781 28.7448 191.383 28.1347C190.932 27.4714 190.706 26.7021 190.706 25.8266Z" fill="#6C63FF"/>
<path d="M207.898 27.3787C207.898 25.5482 208.03 23.8105 208.296 22.1656C208.561 20.5208 208.866 19.1015 209.211 17.9076C209.556 16.7138 210.046 15.5465 210.683 14.4057C211.32 13.265 211.824 12.3762 212.195 11.7395C212.567 11.1028 213.124 10.413 213.867 9.67022C214.61 8.92739 215.047 8.47639 215.18 8.31721C215.313 8.15804 215.644 7.87947 216.175 7.48153H216.692H216.851C217.223 7.48153 217.408 7.60091 217.408 7.83968C217.408 7.91927 217.183 8.19783 216.732 8.67536C216.281 9.15289 215.737 9.85593 215.1 10.7845C214.464 11.713 213.814 12.8538 213.15 14.2068C212.487 15.5598 211.93 17.3903 211.479 19.6984C211.028 22.0065 210.803 24.5666 210.803 27.3787C210.803 30.1908 211.028 32.7377 211.479 35.0192C211.93 37.3008 212.474 39.1446 213.111 40.5506C213.747 41.9567 214.397 43.0975 215.061 43.9729C215.724 44.8484 216.281 45.5515 216.732 46.082C217.183 46.6126 217.408 46.8912 217.408 46.9177C217.408 47.1565 217.209 47.2759 216.812 47.2759H216.692H216.175L215.061 46.3208C212.567 44.0658 210.75 41.2537 209.609 37.8844C208.468 34.5152 207.898 31.0133 207.898 27.3787Z" fill="#6C63FF"/>
<path d="M221.03 29.3683C221.03 26.6623 221.547 23.8103 222.582 20.8125C223.616 17.8147 225.022 15.228 226.8 13.0526C228.577 10.8772 230.421 9.63029 232.331 9.31193C232.358 9.31193 232.464 9.31193 232.65 9.31193C232.835 9.31193 232.994 9.29867 233.127 9.27214C234.56 9.37826 235.674 10.0282 236.47 11.2221C237.505 12.8138 238.022 14.9495 238.022 17.629C238.022 20.6799 237.425 23.7838 236.231 26.9408C235.037 30.0978 233.512 32.6845 231.655 34.7007C229.798 36.717 228.02 37.7251 226.322 37.7251H226.044C225.089 37.7251 224.266 37.4598 223.577 36.9292C222.887 36.3986 222.369 35.6956 222.025 34.8201C221.68 33.9446 221.428 33.0559 221.268 32.1539C221.109 31.2519 221.03 30.3233 221.03 29.3683ZM234.878 14.8036C234.878 12.0975 234.175 10.7445 232.769 10.7445C231.814 10.7445 230.885 11.3414 229.983 12.5353C229.081 13.7291 228.339 15.0821 227.755 16.5943C227.171 18.1065 226.72 19.433 226.402 20.5737C226.084 21.7145 225.911 22.3777 225.885 22.5635C227.185 22.59 228.471 22.6032 229.745 22.6032L233.605 22.5635C233.631 22.5369 233.737 22.0992 233.923 21.2502C234.109 20.4013 234.321 19.3401 234.56 18.0667C234.799 16.7933 234.905 15.7056 234.878 14.8036ZM224.134 32.0743C224.134 34.8864 224.837 36.2925 226.243 36.2925C226.641 36.2925 227.065 36.1599 227.516 35.8946C227.967 35.6293 228.511 35.1252 229.148 34.3824C229.784 33.6395 230.421 32.4855 231.058 30.9203C231.695 29.355 232.331 27.4184 232.968 25.1103L233.167 24.4338H225.407C225.407 24.5134 225.288 25.0174 225.049 25.946C224.81 26.8745 224.598 27.9092 224.412 29.0499C224.226 30.1907 224.134 31.1988 224.134 32.0743Z" fill="#6C63FF"/>
<path d="M240.688 7.52132L240.847 7.48153C240.98 7.48153 241.113 7.48153 241.245 7.48153H241.723L242.837 8.4366C245.331 10.6916 247.148 13.5037 248.289 16.873C249.43 20.2423 250 23.7442 250 27.3787C250 29.1827 249.867 30.9204 249.602 32.5918C249.337 34.2631 249.032 35.6825 248.687 36.8498C248.342 38.0171 247.851 39.1844 247.214 40.3517C246.578 41.519 246.074 42.4077 245.702 43.0179C245.331 43.6281 244.787 44.3046 244.071 45.0474C243.354 45.7902 242.93 46.228 242.797 46.3606C242.665 46.4933 242.359 46.7453 241.882 47.1167C241.802 47.1963 241.749 47.2493 241.723 47.2759H241.245C241.033 47.2759 240.887 47.2759 240.807 47.2759C240.728 47.2759 240.662 47.2361 240.609 47.1565C240.555 47.0769 240.516 46.9575 240.489 46.7983C240.516 46.7718 240.662 46.5994 240.927 46.281C245.039 42.0098 247.095 35.709 247.095 27.3787C247.095 19.0484 245.039 12.7477 240.927 8.47639C240.662 8.15804 240.516 7.98559 240.489 7.95906C240.489 7.74683 240.555 7.60091 240.688 7.52132Z" fill="#6C63FF"/>
</svg>
