<svg width="200" height="40" viewBox="0 0 200 40" fill="none" xmlns="http://www.w3.org/2000/svg">
<path d="M0.647899 38.5117H0.583109C0.32395 38.5117 0.12958 38.3605 0 38.0582V22.3142L0.032395 6.57029C0.248361 6.28953 0.453529 6.14915 0.647899 6.14915C0.928656 6.14915 1.14462 6.31113 1.2958 6.63508V38.0582C1.12303 38.3605 0.928656 38.5117 0.712689 38.5117H0.647899Z" fill="#2CAC0B"/>
<path d="M6.70574 30.4134C6.3386 30.4134 6.15503 30.3054 6.15503 30.0895C6.15503 30.0463 6.18742 29.8951 6.25221 29.6359C6.3386 29.2904 6.42499 29.096 6.51137 29.0528C6.59776 29.0096 6.84612 28.9772 7.25646 28.9556C7.83957 28.9556 8.48747 28.9232 9.20016 28.8584C9.50251 28.7937 9.70768 28.6641 9.81566 28.4697C9.85885 28.3617 10.6255 25.3274 12.1157 19.3667C13.6059 13.4061 14.3618 10.3825 14.3833 10.2961C14.3833 10.145 14.3402 10.0694 14.2538 10.0694C14.081 10.0046 13.5087 9.95059 12.5368 9.9074H11.5326C11.403 9.77782 11.3382 9.69143 11.3382 9.64824C11.3382 9.60504 11.3598 9.42147 11.403 9.09752C11.4894 8.73038 11.5974 8.50361 11.727 8.41723H29.1878C29.339 8.50361 29.4146 8.6224 29.4146 8.77357C29.4146 8.88156 29.2742 10.091 28.9935 12.4018C28.7127 14.7126 28.5615 15.9005 28.5399 15.9653C28.4968 16.1164 28.2808 16.192 27.892 16.192H27.5033C27.3521 16.084 27.2765 15.9437 27.2765 15.7709C27.2765 15.7493 27.3089 15.4901 27.3737 14.9934C27.4385 14.4967 27.4709 13.9244 27.4709 13.2765C27.4709 12.6286 27.3953 12.0995 27.2441 11.6891C27.093 11.2788 26.8878 10.944 26.6286 10.6849C26.3695 10.4257 25.9699 10.2529 25.43 10.1666C24.8901 10.0802 24.3394 10.0046 23.7779 9.93979C23.2164 9.875 22.4389 9.8642 21.4455 9.9074H20.7004C18.9294 9.92899 17.99 9.96139 17.882 10.0046C17.774 10.0478 17.6984 10.1342 17.6552 10.2637C17.6336 10.2853 17.2665 11.6999 16.5538 14.5075L15.5172 18.6864H17.2989C17.3637 18.6864 17.612 18.6864 18.044 18.6864C18.4759 18.6864 18.7783 18.6756 18.951 18.654C19.1238 18.6324 19.3614 18.6 19.6637 18.5569C19.9661 18.5137 20.2252 18.4381 20.4412 18.3301C20.6572 18.2221 20.8407 18.0925 20.9919 17.9413C21.2727 17.6822 21.5102 17.3258 21.7046 16.8723C21.899 16.4188 22.0394 16.0084 22.1257 15.6413C22.2121 15.2742 22.2661 15.0798 22.2877 15.0582C22.3525 14.9502 22.5577 14.8962 22.9032 14.8962H23.292C23.4431 15.0042 23.5187 15.1122 23.5187 15.2202C23.5187 15.285 23.184 16.6995 22.5145 19.4639C21.845 22.2283 21.4778 23.6537 21.4131 23.74C21.3699 23.8912 21.1539 23.9668 20.7652 23.9668H20.3764C20.2252 23.8372 20.1497 23.7076 20.1497 23.5781C20.1497 23.5133 20.2036 23.2757 20.3116 22.8654C20.4196 22.455 20.4736 22.0231 20.4736 21.5696C20.4736 20.9433 20.2576 20.5545 19.8257 20.4034C19.3938 20.2522 18.4327 20.1766 16.9426 20.1766H15.1608L14.1242 24.2908C13.4331 26.9687 13.0876 28.3725 13.0876 28.5021C13.0876 28.8045 14.0486 28.9556 15.9707 28.9556H16.7806C16.9102 29.0852 16.9749 29.1608 16.9749 29.1824C16.9749 29.204 16.9533 29.42 16.9102 29.8303C16.8238 30.1111 16.7158 30.3162 16.5862 30.4458H16.0355C15.15 30.4026 13.5195 30.381 11.1439 30.381C9.74007 30.381 8.67104 30.381 7.93675 30.381C7.20247 30.381 6.79213 30.3918 6.70574 30.4134Z" fill="#2CAC0B"/>
<path d="M26.6708 0.70733C26.6708 0.534557 26.7247 0.38338 26.8327 0.2538C26.9407 0.124221 27.1027 0.0594306 27.3187 0.0594306C27.4698 0.0594306 27.5994 0.113422 27.7074 0.221405C27.8154 0.307792 27.9234 0.51296 28.0313 0.83691C28.2473 1.63599 28.69 2.25149 29.3595 2.68342C29.5971 2.8346 29.7159 3.02897 29.7159 3.26653C29.7159 3.4609 29.6835 3.59048 29.6187 3.65527C29.5539 3.72006 29.4027 3.81725 29.1652 3.94683C28.2365 4.42195 27.4266 5.10225 26.7355 5.98771C26.6924 6.0309 26.6384 6.09569 26.5736 6.18208C26.5088 6.26846 26.4548 6.33325 26.4116 6.37645C26.3684 6.41964 26.3144 6.44124 26.2496 6.44124C26.1848 6.44124 26.1092 6.45204 26.0229 6.47363C25.8717 6.47363 25.7313 6.41964 25.6017 6.31166C25.4721 6.20367 25.3966 6.0417 25.375 5.82573C25.375 5.4154 25.8825 4.7783 26.8975 3.91443H21.358L15.8184 3.88204C15.5377 3.68767 15.3973 3.4825 15.3973 3.26653C15.3973 3.11536 15.5377 2.89939 15.8184 2.61863H27.4482C26.9299 1.79796 26.6708 1.16086 26.6708 0.70733Z" fill="#2CAC0B"/>
<path d="M33.3579 39.0152C33.3885 39.0152 33.4343 39.0304 33.4953 39.061C33.5564 39.0915 33.6404 39.1144 33.7473 39.1297C33.8541 39.1449 33.9458 39.1526 34.0221 39.1526C34.2206 39.1526 34.4038 39.0533 34.5718 38.8548C34.7397 38.6563 34.8619 38.4349 34.9382 38.1906C35.0909 37.7784 35.3505 36.6103 35.7169 34.6864C36.0834 32.7626 36.4346 30.9303 36.7705 29.1897C37.1064 27.449 37.2744 26.5711 37.2744 26.5558V26.4871H36.1979C35.4803 26.4871 35.0986 26.4718 35.0528 26.4413C34.9917 26.3955 34.9611 26.3191 34.9611 26.2123L35.1215 25.571C35.152 25.4946 35.2131 25.4564 35.3047 25.4564C35.3963 25.4564 35.7551 25.4488 36.3811 25.4335C37.114 25.4335 37.4805 25.4259 37.4805 25.4106C37.4805 25.3801 37.5492 24.9984 37.6866 24.2655C37.824 23.5326 37.9157 23.0898 37.9615 22.9371C38.5264 20.4177 39.641 19.1581 41.3053 19.1581C41.8703 19.1886 42.336 19.3565 42.7024 19.6619C43.0689 19.9673 43.2521 20.3719 43.2521 20.8758C43.2521 21.4255 43.0918 21.8225 42.7711 22.0668C42.4505 22.3111 42.1299 22.4409 41.8092 22.4561C41.1374 22.4561 40.8015 22.1355 40.8015 21.4942C40.8015 21.2041 40.8854 20.9521 41.0534 20.7384C41.2214 20.5246 41.4046 20.3643 41.6031 20.2574L41.8092 20.1429C41.5649 20.0513 41.3359 20.0055 41.1221 20.0055C40.9389 20.0055 40.7633 20.0818 40.5953 20.2345C40.4274 20.3872 40.3129 20.601 40.2518 20.8758C40.1449 21.3186 40.0228 21.9141 39.8853 22.6622C39.7479 23.4104 39.6258 24.0441 39.5189 24.5632C39.412 25.0824 39.3586 25.3572 39.3586 25.3877C39.3586 25.4183 39.7785 25.4335 40.6182 25.4335C41.3053 25.4335 41.7023 25.4412 41.8092 25.4564C41.9161 25.4717 42.0001 25.5175 42.0611 25.5939C42.0764 25.6549 42.0611 25.7847 42.0153 25.9832C41.9695 26.1817 41.9314 26.3039 41.9008 26.3497C41.8703 26.426 41.8016 26.4642 41.6947 26.4642C41.5878 26.4642 41.1756 26.4718 40.4579 26.4871H39.1753L38.6486 29.2813C37.9157 33.068 37.4042 35.4346 37.114 36.3813C36.7018 37.6791 36.1674 38.6411 35.5108 39.2671C34.9459 39.7557 34.3886 40 33.8389 40C33.3503 40 32.9075 39.8549 32.5105 39.5648C32.1135 39.2747 31.915 38.8625 31.915 38.3281C31.915 37.7631 32.0753 37.3509 32.396 37.0913C32.7166 36.8317 33.0373 36.7019 33.3579 36.7019C34.0297 36.7019 34.3657 37.0226 34.3657 37.6639C34.3657 37.954 34.2817 38.2059 34.1137 38.4197C33.9458 38.6334 33.7625 38.7938 33.564 38.9006L33.3579 39.0152Z" fill="#2CAC0B"/>
<path d="M43.8372 28.2637C43.8372 28.1558 43.8588 28.0316 43.902 27.8913C43.9452 27.751 44.0099 27.6808 44.0963 27.6808C44.1071 27.6808 44.4957 27.6538 45.2622 27.5998C46.0286 27.5459 46.4226 27.5135 46.4442 27.5027C46.5738 27.5027 46.6385 27.5459 46.6385 27.6322C46.6385 27.7078 46.3687 28.8359 45.8289 31.0165C45.2891 33.1539 45.0193 34.2604 45.0193 34.336C45.2244 34.228 45.3809 34.1255 45.4889 34.0283C45.7479 33.834 46.1204 33.4939 46.6061 33.0082C47.0919 32.5224 47.4697 32.1931 47.7396 32.0204C48.1714 31.7289 48.5816 31.5832 48.9703 31.5832C49.2941 31.5832 49.5478 31.6858 49.7313 31.8909C49.9148 32.096 50.012 32.3874 50.0228 32.7653C50.0228 33.0351 49.985 33.2618 49.9094 33.4454C49.8339 33.6289 49.7313 33.7638 49.6018 33.8502C49.4722 33.9365 49.3589 33.9959 49.2617 34.0283C49.1646 34.0607 49.0674 34.0769 48.9703 34.0769C48.7544 34.0769 48.5816 34.0175 48.4521 33.8988C48.3226 33.78 48.2578 33.6235 48.2578 33.4292C48.2578 33.1593 48.3441 32.938 48.5169 32.7653C48.6896 32.5926 48.8623 32.4792 49.035 32.4252L49.2941 32.3767C49.1646 32.2471 49.035 32.1823 48.9055 32.1823H48.8407C48.4953 32.2147 48.1552 32.3497 47.8206 32.5872C47.4859 32.8246 47.0919 33.1701 46.6385 33.6235C46.1851 34.0769 45.8289 34.4061 45.5698 34.6112C45.5914 34.622 45.6724 34.6382 45.8127 34.6598C45.953 34.6814 46.0826 34.7138 46.2013 34.757C46.3201 34.8001 46.4604 34.8433 46.6223 34.8865C46.7843 34.9297 46.93 35.0052 47.0595 35.1132C47.1891 35.2211 47.3078 35.3183 47.4158 35.4047C47.5237 35.491 47.6155 35.6314 47.691 35.8257C47.7666 36.02 47.799 36.1981 47.7882 36.36C47.7882 36.5435 47.7612 36.7648 47.7072 37.0239C47.6533 37.283 47.6209 37.4989 47.6101 37.6716C47.6101 38.1034 47.7558 38.3193 48.0473 38.3193C48.5654 38.3193 48.9865 37.677 49.3103 36.3924C49.3319 36.3061 49.4398 36.2629 49.6342 36.2629H49.6989C49.8716 36.2629 49.958 36.3115 49.958 36.4086C49.958 36.4626 49.9418 36.5381 49.9094 36.6353C49.4668 38.1574 48.8299 38.9185 47.9987 38.9185C47.5129 38.9185 47.1189 38.7781 46.8166 38.4974C46.5144 38.2168 46.3633 37.812 46.3633 37.283C46.3633 37.0887 46.3794 36.9214 46.4118 36.781C46.4442 36.6407 46.4604 36.5112 46.4604 36.3924C46.4604 36.1549 46.3848 35.9498 46.2337 35.7771C46.0826 35.6044 45.8937 35.4802 45.667 35.4047C45.4403 35.3291 45.2568 35.2697 45.1164 35.2265C44.9761 35.1834 44.8789 35.1672 44.825 35.178H44.7926C44.663 35.6314 44.5497 36.0686 44.4525 36.4896C44.3554 36.9106 44.2798 37.2236 44.2258 37.4287C44.1719 37.6338 44.1233 37.8336 44.0801 38.0279C44.0369 38.2222 43.9991 38.3517 43.9668 38.4165C43.9344 38.4813 43.8966 38.5514 43.8534 38.627C43.8102 38.7026 43.7508 38.7511 43.6753 38.7727C43.5349 38.8699 43.3838 38.9185 43.2219 38.9185C43.0384 38.9185 42.898 38.8645 42.8009 38.7565C42.7037 38.6486 42.6552 38.5568 42.6552 38.4813C42.6552 38.3733 42.8549 37.5097 43.2543 35.8904C43.6537 34.2712 44.0477 32.6789 44.4363 31.1136L45.0355 28.7657C45.0463 28.6254 45.0085 28.539 44.9221 28.5066C44.8358 28.4742 44.6252 28.4472 44.2906 28.4257H44.2096C44.1017 28.4257 44.0315 28.4257 43.9991 28.4257C43.9668 28.4257 43.929 28.4095 43.8858 28.3771C43.8426 28.3447 43.8264 28.3069 43.8372 28.2637Z" fill="#2CAC0B"/>
<path d="M57.5853 38.5117H57.5205C57.2613 38.5117 57.067 38.3605 56.9374 38.0582V22.3142L56.9698 6.57029C57.1857 6.28953 57.3909 6.14915 57.5853 6.14915C57.866 6.14915 58.082 6.31113 58.2332 6.63508V38.0582C58.0604 38.3605 57.866 38.5117 57.6501 38.5117H57.5853Z" fill="#2CAC0B"/>
<path d="M72.9016 19.2047C72.9016 18.9239 73.0528 18.708 73.3551 18.5568H93.9907C94.3147 18.7296 94.4767 18.9455 94.4767 19.2047C94.4767 19.4422 94.3255 19.6474 94.0231 19.8202L83.7215 19.8526H73.4199C73.0744 19.7446 72.9016 19.5286 72.9016 19.2047ZM72.9016 25.4893C72.9016 25.1654 73.0744 24.9494 73.4199 24.8414H94.0231C94.3255 25.0574 94.4767 25.2733 94.4767 25.4893C94.4767 25.7701 94.3147 25.986 93.9907 26.1372H73.3551C73.0528 25.986 72.9016 25.7701 72.9016 25.4893Z" fill="#2CAC0B"/>
<path d="M107.169 37.4429C106.867 37.4429 106.607 37.3565 106.392 37.1837C106.176 37.0109 106.057 36.7734 106.035 36.471C106.035 36.2551 106.823 32.994 108.4 26.6877C109.977 20.3815 110.808 17.1636 110.894 17.034C111.175 16.4293 111.672 16.127 112.385 16.127C112.644 16.1486 112.86 16.2242 113.032 16.3538C113.205 16.4833 113.313 16.6129 113.356 16.7425C113.4 16.8721 113.421 16.9801 113.421 17.0664C113.421 17.3256 113.086 18.7726 112.417 21.4074C111.747 24.0422 111.391 25.5215 111.348 25.8455C111.305 26.083 111.283 26.461 111.283 26.9793V27.2385C111.283 28.815 112.007 29.6033 113.454 29.6033C113.648 29.6033 113.842 29.5925 114.037 29.5709C114.231 29.5493 114.415 29.5061 114.587 29.4413C114.76 29.3765 114.922 29.3009 115.073 29.2146C115.225 29.1282 115.365 29.0526 115.494 28.9878C115.624 28.923 115.754 28.815 115.883 28.6638C116.013 28.5127 116.132 28.4047 116.24 28.3399C116.348 28.2751 116.456 28.1455 116.564 27.9511C116.672 27.7568 116.758 27.638 116.823 27.5948C116.887 27.5516 116.985 27.422 117.114 27.2061L117.341 26.8821L118.507 22.2496C119.285 19.1829 119.717 17.5524 119.803 17.358C120.084 16.7749 120.548 16.4833 121.196 16.4833C121.477 16.4833 121.704 16.5589 121.876 16.7101C122.049 16.8613 122.168 16.9909 122.233 17.0988C122.297 17.2068 122.319 17.3148 122.297 17.4228L119.835 27.7244C119.814 27.8324 119.803 28.0051 119.803 28.2427C119.803 28.7826 119.879 29.139 120.03 29.3117C120.181 29.4845 120.408 29.5817 120.71 29.6033C120.904 29.5817 121.12 29.4845 121.358 29.3117C121.812 28.8798 122.254 27.8432 122.686 26.2018C122.816 25.7699 122.924 25.5431 123.01 25.5215C123.053 25.4999 123.161 25.4891 123.334 25.4891H123.464C123.874 25.4891 124.079 25.5863 124.079 25.7807C124.079 25.9103 124.025 26.2018 123.917 26.6553C123.809 27.1089 123.593 27.692 123.269 28.4047C122.945 29.1174 122.6 29.6573 122.233 30.0244C121.952 30.3052 121.606 30.5319 121.196 30.7047C121.023 30.7479 120.764 30.7695 120.419 30.7695C119.965 30.7695 119.555 30.7047 119.188 30.5751C118.82 30.4456 118.529 30.2836 118.313 30.0892C118.097 29.8948 117.913 29.7005 117.762 29.5061C117.611 29.3117 117.514 29.1498 117.471 29.0202C117.427 28.8906 117.406 28.815 117.406 28.7934L117.211 28.9878C117.082 29.1174 116.887 29.2793 116.628 29.4737C116.369 29.6681 116.088 29.8625 115.786 30.0568C115.484 30.2512 115.095 30.424 114.62 30.5751C114.145 30.7263 113.691 30.8019 113.259 30.8019C112.244 30.8019 111.24 30.5535 110.247 30.0568L109.469 33.1991C109.015 34.9701 108.746 35.9959 108.659 36.2767C108.573 36.5574 108.443 36.795 108.27 36.9893C107.925 37.2917 107.558 37.4429 107.169 37.4429Z" fill="#2CAC0B"/>
<path d="M127.596 20.4863C127.596 20.3336 127.626 20.158 127.687 19.9595C127.748 19.761 127.84 19.6618 127.962 19.6618C127.977 19.6618 128.527 19.6236 129.611 19.5473C130.695 19.4709 131.252 19.4251 131.283 19.4099C131.466 19.4099 131.558 19.4709 131.558 19.5931C131.558 19.7 131.176 21.2956 130.413 24.3799C129.649 27.4031 129.267 28.9681 129.267 29.075C129.558 28.9223 129.779 28.7773 129.932 28.6399C130.298 28.365 130.825 27.8841 131.512 27.197C132.199 26.5099 132.733 26.0442 133.115 25.7999C133.726 25.3876 134.306 25.1815 134.856 25.1815C135.314 25.1815 135.673 25.3265 135.932 25.6166C136.192 25.9067 136.329 26.319 136.345 26.8534C136.345 27.2351 136.291 27.5558 136.184 27.8153C136.077 28.0749 135.932 28.2658 135.749 28.3879C135.566 28.5101 135.406 28.5941 135.268 28.6399C135.131 28.6857 134.993 28.7086 134.856 28.7086C134.55 28.7086 134.306 28.6246 134.123 28.4566C133.94 28.2887 133.848 28.0673 133.848 27.7924C133.848 27.4107 133.97 27.0977 134.215 26.8534C134.459 26.6091 134.703 26.4488 134.947 26.3724L135.314 26.3037C135.131 26.1205 134.947 26.0289 134.764 26.0289H134.673C134.184 26.0747 133.703 26.2656 133.23 26.6015C132.756 26.9374 132.199 27.426 131.558 28.0673C130.916 28.7086 130.413 29.1743 130.046 29.4644C130.077 29.4796 130.191 29.5026 130.39 29.5331C130.588 29.5636 130.771 29.6094 130.939 29.6705C131.107 29.7316 131.306 29.7927 131.535 29.8537C131.764 29.9148 131.97 30.0217 132.153 30.1744C132.336 30.3271 132.504 30.4645 132.657 30.5866C132.81 30.7088 132.94 30.9073 133.046 31.1821C133.153 31.457 133.199 31.7089 133.184 31.9379C133.184 32.1975 133.146 32.5105 133.069 32.877C132.993 33.2434 132.947 33.5488 132.932 33.7931C132.932 34.4038 133.138 34.7092 133.55 34.7092C134.283 34.7092 134.879 33.8007 135.337 31.9837C135.367 31.8616 135.52 31.8005 135.795 31.8005H135.886C136.131 31.8005 136.253 31.8692 136.253 32.0066C136.253 32.083 136.23 32.1899 136.184 32.3273C135.558 34.4802 134.657 35.5566 133.482 35.5566C132.795 35.5566 132.237 35.3581 131.81 34.9612C131.382 34.5642 131.168 33.9916 131.168 33.2434C131.168 32.9686 131.191 32.7319 131.237 32.5334C131.283 32.3349 131.306 32.1517 131.306 31.9837C131.306 31.6478 131.199 31.3577 130.985 31.1134C130.771 30.8691 130.504 30.6935 130.184 30.5866C129.863 30.4798 129.603 30.3958 129.405 30.3347C129.206 30.2736 129.069 30.2507 128.993 30.266H128.947C128.764 30.9073 128.603 31.5257 128.466 32.1212C128.328 32.7166 128.222 33.1594 128.145 33.4495C128.069 33.7397 128 34.0221 127.939 34.297C127.878 34.5718 127.825 34.755 127.779 34.8466C127.733 34.9383 127.679 35.0375 127.618 35.1444C127.557 35.2513 127.473 35.32 127.366 35.3505C127.168 35.4879 126.954 35.5566 126.725 35.5566C126.466 35.5566 126.267 35.4803 126.13 35.3276C125.992 35.1749 125.924 35.0451 125.924 34.9383C125.924 34.7856 126.206 33.5641 126.771 31.2737C127.336 28.9834 127.893 26.7313 128.443 24.5173L129.29 21.1963C129.306 20.9978 129.252 20.8757 129.13 20.8299C129.008 20.7841 128.71 20.7459 128.237 20.7153H128.122C127.97 20.7153 127.87 20.7153 127.825 20.7153C127.779 20.7153 127.725 20.6924 127.664 20.6466C127.603 20.6008 127.58 20.5474 127.596 20.4863Z" fill="#2CAC0B"/>
<path d="M142.881 38.5117H142.816C142.557 38.5117 142.363 38.3605 142.233 38.0582V22.3142L142.266 6.57029C142.482 6.28953 142.687 6.14915 142.881 6.14915C143.162 6.14915 143.378 6.31113 143.529 6.63508V38.0582C143.356 38.3605 143.162 38.5117 142.946 38.5117H142.881Z" fill="#2CAC0B"/>
<path d="M148.939 30.4129C148.572 30.4129 148.388 30.3049 148.388 30.089C148.388 30.0458 148.421 29.8946 148.486 29.6354C148.572 29.2899 148.658 29.0955 148.745 29.0523C148.831 29.0091 149.079 28.9767 149.49 28.9551C150.073 28.9551 150.721 28.9227 151.433 28.858C151.736 28.7932 151.941 28.6636 152.049 28.4692C152.092 28.3612 152.859 25.3269 154.349 19.3662C155.839 13.4056 156.595 10.382 156.617 10.2956C156.617 10.1445 156.573 10.0689 156.487 10.0689C156.314 10.0041 155.742 9.9501 154.77 9.90691H153.766C153.636 9.77733 153.572 9.69094 153.572 9.64775C153.572 9.60455 153.593 9.42098 153.636 9.09703C153.723 8.72989 153.831 8.50313 153.96 8.41674H171.421C171.572 8.50313 171.648 8.62191 171.648 8.77308C171.648 8.88107 171.508 10.0905 171.227 12.4013C170.946 14.7122 170.795 15.9 170.773 15.9648C170.73 16.1159 170.514 16.1915 170.125 16.1915H169.737C169.585 16.0835 169.51 15.9432 169.51 15.7704C169.51 15.7488 169.542 15.4896 169.607 14.9929C169.672 14.4962 169.704 13.9239 169.704 13.276C169.704 12.6281 169.629 12.099 169.477 11.6886C169.326 11.2783 169.121 10.9435 168.862 10.6844C168.603 10.4252 168.203 10.2525 167.663 10.1661C167.123 10.0797 166.573 10.0041 166.011 9.9393C165.45 9.87451 164.672 9.86371 163.679 9.90691H162.934C161.163 9.9285 160.223 9.9609 160.115 10.0041C160.007 10.0473 159.932 10.1337 159.889 10.2633C159.867 10.2848 159.5 11.6994 158.787 14.507L157.751 18.6859H159.532C159.597 18.6859 159.845 18.6859 160.277 18.6859C160.709 18.6859 161.012 18.6751 161.184 18.6535C161.357 18.632 161.595 18.5996 161.897 18.5564C162.199 18.5132 162.459 18.4376 162.675 18.3296C162.891 18.2216 163.074 18.092 163.225 17.9409C163.506 17.6817 163.744 17.3254 163.938 16.8718C164.132 16.4183 164.273 16.008 164.359 15.6408C164.445 15.2737 164.499 15.0793 164.521 15.0577C164.586 14.9497 164.791 14.8957 165.137 14.8957H165.525C165.676 15.0037 165.752 15.1117 165.752 15.2197C165.752 15.2845 165.417 16.6991 164.748 19.4634C164.078 22.2278 163.711 23.6532 163.646 23.7396C163.603 23.8907 163.387 23.9663 162.998 23.9663H162.61C162.459 23.8367 162.383 23.7072 162.383 23.5776C162.383 23.5128 162.437 23.2752 162.545 22.8649C162.653 22.4546 162.707 22.0226 162.707 21.5691C162.707 20.9428 162.491 20.5541 162.059 20.4029C161.627 20.2517 160.666 20.1761 159.176 20.1761H157.394L156.358 24.2903C155.666 26.9683 155.321 28.372 155.321 28.5016C155.321 28.804 156.282 28.9551 158.204 28.9551H159.014C159.143 29.0847 159.208 29.1603 159.208 29.1819C159.208 29.2035 159.187 29.4195 159.143 29.8298C159.057 30.1106 158.949 30.3157 158.82 30.4453H158.269C157.383 30.4021 155.753 30.3805 153.377 30.3805C151.973 30.3805 150.904 30.3805 150.17 30.3805C149.436 30.3805 149.025 30.3913 148.939 30.4129Z" fill="#2CAC0B"/>
<path d="M168.904 0.706842C168.904 0.534068 168.958 0.382892 169.066 0.253312C169.174 0.123732 169.336 0.0589423 169.552 0.0589423C169.703 0.0589423 169.833 0.112934 169.941 0.220917C170.049 0.307304 170.157 0.512472 170.265 0.836421C170.481 1.6355 170.923 2.251 171.593 2.68293C171.83 2.83411 171.949 3.02848 171.949 3.26604C171.949 3.46041 171.917 3.58999 171.852 3.65478C171.787 3.71957 171.636 3.81676 171.399 3.94634C170.47 4.42146 169.66 5.10176 168.969 5.98722C168.926 6.03041 168.872 6.0952 168.807 6.18159C168.742 6.26798 168.688 6.33277 168.645 6.37596C168.602 6.41915 168.548 6.44075 168.483 6.44075C168.418 6.44075 168.343 6.45155 168.256 6.47314C168.105 6.47314 167.965 6.41915 167.835 6.31117C167.706 6.20319 167.63 6.04121 167.608 5.82525C167.608 5.41491 168.116 4.77781 169.131 3.91394H163.591L158.052 3.88155C157.771 3.68718 157.631 3.48201 157.631 3.26604C157.631 3.11487 157.771 2.8989 158.052 2.61814H169.682C169.163 1.79747 168.904 1.16037 168.904 0.706842Z" fill="#2CAC0B"/>
<path d="M178.248 20.7153C178.202 20.7153 178.141 20.7153 178.065 20.7153C177.683 20.7153 177.454 20.7077 177.378 20.6924C177.301 20.6772 177.263 20.5932 177.263 20.4405C177.263 20.0282 177.347 19.7763 177.515 19.6847C177.546 19.6694 178.286 19.6618 179.737 19.6618C180.912 19.6618 181.584 19.6618 181.752 19.6618C181.92 19.6618 182.027 19.7076 182.073 19.7992C185.295 27.3725 186.936 31.2584 186.997 31.4569L188.234 26.5786C189.043 23.3568 189.448 21.6391 189.448 21.4253C189.448 21.0131 188.959 20.7764 187.982 20.7153C187.615 20.7153 187.432 20.6313 187.432 20.4634C187.432 20.4329 187.448 20.3412 187.478 20.1886C187.539 19.9442 187.585 19.7992 187.615 19.7534C187.646 19.7076 187.722 19.677 187.845 19.6618C187.89 19.6618 188.127 19.6694 188.555 19.6847C188.982 19.6999 189.616 19.7152 190.455 19.7305C191.219 19.7305 191.799 19.7229 192.196 19.7076C192.593 19.6923 192.822 19.6847 192.883 19.6847C193.112 19.6847 193.227 19.761 193.227 19.9137C193.227 20.2496 193.166 20.4787 193.044 20.6008C193.013 20.6772 192.845 20.7153 192.54 20.7153C191.456 20.7764 190.776 21.0818 190.501 21.6315L187.089 35.1444C187.058 35.2512 186.898 35.3047 186.608 35.3047C186.394 35.3047 186.264 35.2894 186.218 35.2589C186.173 35.2131 185.188 32.8998 183.264 28.3192L180.355 21.4711L178.866 27.426C177.874 31.3348 177.378 33.3579 177.378 33.4953C177.454 33.9992 178.004 34.2511 179.027 34.2511H179.256C179.347 34.3275 179.393 34.3886 179.393 34.4344C179.393 34.4802 179.378 34.6252 179.347 34.8695C179.286 35.068 179.21 35.2131 179.118 35.3047H178.821C178.347 35.2741 177.523 35.2589 176.347 35.2589C175.92 35.2589 175.53 35.2589 175.179 35.2589C174.828 35.2589 174.545 35.2589 174.332 35.2589C174.118 35.2589 173.988 35.2665 173.942 35.2818C173.713 35.2818 173.599 35.2131 173.599 35.0757C173.599 35.0146 173.622 34.8924 173.667 34.7092C173.713 34.526 173.751 34.4191 173.782 34.3886C173.812 34.2969 173.988 34.2511 174.309 34.2511C175.347 34.2053 176.019 33.9076 176.324 33.3579C176.385 33.2663 176.927 31.1516 177.95 27.0137L179.508 20.784C179.477 20.7688 179.057 20.7459 178.248 20.7153Z" fill="#2CAC0B"/>
<path d="M199.352 38.5117H199.287C199.028 38.5117 198.834 38.3605 198.704 38.0582V22.3142L198.737 6.57029C198.953 6.28953 199.158 6.14915 199.352 6.14915C199.633 6.14915 199.849 6.31113 200 6.63508V38.0582C199.827 38.3605 199.633 38.5117 199.417 38.5117H199.352Z" fill="#2CAC0B"/>
</svg>
