<svg width="200" height="58" viewBox="0 0 200 58" fill="none" xmlns="http://www.w3.org/2000/svg">
<path d="M0.929562 55.8652H0.836606C0.464781 55.8652 0.185912 55.6483 0 55.2145V32.6262L0.0464781 10.0378C0.356332 9.635 0.650694 9.43359 0.929562 9.43359C1.33237 9.43359 1.64223 9.66598 1.85912 10.1308V55.2145C1.61124 55.6483 1.33237 55.8652 1.02252 55.8652H0.929562Z" fill="#D46FA0"/>
<path d="M9.62097 44.2455C9.09422 44.2455 8.83084 44.0906 8.83084 43.7807C8.83084 43.7188 8.87732 43.5019 8.97028 43.13C9.09422 42.6343 9.21816 42.3554 9.3421 42.2934C9.46604 42.2315 9.82237 42.185 10.4111 42.154C11.2477 42.154 12.1773 42.1075 13.1998 42.0146C13.6336 41.9216 13.9279 41.7357 14.0829 41.4568C14.1448 41.3019 15.2448 36.9484 17.3828 28.3965C19.5208 19.8445 20.6053 15.5065 20.6363 15.3826C20.6363 15.1657 20.5743 15.0573 20.4504 15.0573C20.2025 14.9643 19.3814 14.8868 17.987 14.8249H16.5462C16.3603 14.639 16.2673 14.515 16.2673 14.453C16.2673 14.3911 16.2983 14.1277 16.3603 13.6629C16.4842 13.1362 16.6392 12.8108 16.8251 12.6869H41.8768C42.0937 12.8108 42.2021 12.9812 42.2021 13.1981C42.2021 13.3531 42.0007 15.0882 41.5979 18.4037C41.1951 21.7191 40.9782 23.4233 40.9472 23.5163C40.8853 23.7332 40.5754 23.8416 40.0177 23.8416H39.4599C39.243 23.6867 39.1346 23.4853 39.1346 23.2374C39.1346 23.2064 39.1811 22.8346 39.274 22.1219C39.367 21.4093 39.4134 20.5882 39.4134 19.6586C39.4134 18.729 39.305 17.9699 39.0881 17.3812C38.8712 16.7924 38.5768 16.3122 38.205 15.9403C37.8332 15.5685 37.26 15.3206 36.4853 15.1967C35.7107 15.0727 34.9206 14.9643 34.1149 14.8713C33.3093 14.7784 32.1938 14.7629 30.7685 14.8249H29.6995C27.1587 14.8559 25.8108 14.9023 25.6559 14.9643C25.501 15.0263 25.3925 15.1502 25.3306 15.3361C25.2996 15.3671 24.7728 17.3967 23.7503 21.4248L22.263 27.4204H24.8193C24.9123 27.4204 25.2686 27.4204 25.8883 27.4204C26.508 27.4204 26.9418 27.4049 27.1897 27.374C27.4376 27.343 27.7784 27.2965 28.2122 27.2345C28.646 27.1726 29.0178 27.0641 29.3277 26.9092C29.6375 26.7542 29.9009 26.5683 30.1178 26.3514C30.5206 25.9796 30.8615 25.4684 31.1403 24.8177C31.4192 24.167 31.6206 23.5782 31.7446 23.0515C31.8685 22.5247 31.946 22.2459 31.9769 22.2149C32.0699 22.06 32.3643 21.9825 32.86 21.9825H33.4178C33.6347 22.1374 33.7431 22.2923 33.7431 22.4473C33.7431 22.5402 33.2628 24.5698 32.3023 28.5359C31.3417 32.502 30.815 34.5471 30.722 34.671C30.6601 34.8879 30.3502 34.9964 29.7925 34.9964H29.2347C29.0178 34.8105 28.9094 34.6245 28.9094 34.4386C28.9094 34.3457 28.9869 34.0048 29.1418 33.4161C29.2967 32.8274 29.3742 32.2077 29.3742 31.557C29.3742 30.6584 29.0643 30.1007 28.4446 29.8838C27.8249 29.6669 26.446 29.5584 24.3081 29.5584H21.7518L20.2645 35.4611C19.2729 39.3033 18.7772 41.3174 18.7772 41.5033C18.7772 41.9371 20.156 42.154 22.9137 42.154H24.0757C24.2616 42.3399 24.3545 42.4484 24.3545 42.4793C24.3545 42.5103 24.3235 42.8202 24.2616 43.4089C24.1376 43.8117 23.9827 44.1061 23.7968 44.292H23.0067C21.7363 44.23 19.3969 44.199 15.9885 44.199C13.9744 44.199 12.4406 44.199 11.3871 44.199C10.3336 44.199 9.74491 44.2145 9.62097 44.2455Z" fill="#D46FA0"/>
<path d="M38.2654 1.62484C38.2654 1.37696 38.3429 1.16006 38.4978 0.97415C38.6528 0.788238 38.8851 0.695282 39.195 0.695282C39.4119 0.695282 39.5978 0.772745 39.7527 0.927672C39.9077 1.05161 40.0626 1.34598 40.2175 1.81076C40.5274 2.95722 41.1626 3.8403 42.1231 4.46001C42.464 4.67691 42.6344 4.95578 42.6344 5.29662C42.6344 5.57548 42.5879 5.7614 42.4949 5.85435C42.402 5.94731 42.1851 6.08674 41.8442 6.27266C40.5119 6.95434 39.3499 7.93038 38.3584 9.20078C38.2964 9.26275 38.219 9.3557 38.126 9.47965C38.033 9.60359 37.9556 9.69654 37.8936 9.75851C37.8316 9.82049 37.7542 9.85147 37.6612 9.85147C37.5683 9.85147 37.4598 9.86696 37.3359 9.89795C37.119 9.89795 36.9176 9.82049 36.7317 9.66556C36.5457 9.51063 36.4373 9.27824 36.4063 8.96839C36.4063 8.37966 37.1345 7.46559 38.5908 6.22618H30.643L22.6953 6.1797C22.2925 5.90083 22.091 5.60647 22.091 5.29662C22.091 5.07972 22.2925 4.76986 22.6953 4.36705H39.3809C38.6373 3.18961 38.2654 2.27554 38.2654 1.62484Z" fill="#D46FA0"/>
<path d="M54.2017 49.8507C53.8731 50.1355 53.3912 50.4422 52.7559 50.7708C52.1206 51.0994 51.4524 51.2637 50.7514 51.2637C49.3713 51.2637 48.265 50.7708 47.4326 49.785C46.6001 48.7992 46.1729 47.5396 46.151 46.0061C46.151 43.7059 46.9944 41.5919 48.6812 39.6641C50.3681 37.7363 52.2411 36.7615 54.3003 36.7396C55.3299 36.7396 56.2829 37.2653 57.1591 38.3168L57.2577 38.1854C57.3015 38.1197 57.3563 38.054 57.422 37.9882C57.4877 37.9225 57.5863 37.8349 57.7177 37.7254C57.8492 37.6158 57.9916 37.5392 58.1449 37.4953C58.2983 37.4515 58.4735 37.4187 58.6707 37.3968C58.9774 37.3968 59.2293 37.4953 59.4265 37.6925C59.6236 37.8897 59.7332 38.0978 59.7551 38.3168C59.7551 38.6454 59.1307 41.2962 57.882 46.269C56.6334 51.2418 55.9762 53.783 55.9104 53.8925C55.5161 55.0755 54.6727 56.0503 53.3802 56.817C52.0877 57.5838 50.609 57.9781 48.9441 58C45.8553 58 44.3109 57.2552 44.3109 55.7655C44.3109 55.1959 44.508 54.6921 44.9023 54.254C45.2967 53.8158 45.8005 53.5968 46.4139 53.5968C46.7425 53.5968 47.0492 53.6953 47.334 53.8925C47.6188 54.0897 47.7721 54.4292 47.794 54.9112C47.794 55.1302 47.7721 55.3383 47.7283 55.5355C47.6845 55.7327 47.6078 55.886 47.4983 55.9955C47.3887 56.1051 47.3011 56.2146 47.2354 56.3241C47.1697 56.4337 47.093 56.5213 47.0054 56.587L46.9397 56.6527H46.9725C47.1916 56.7185 47.8488 56.7513 48.9441 56.7513C49.7766 56.7513 50.4338 56.6199 50.9157 56.357C51.4196 56.116 51.8906 55.7546 52.3287 55.2726C52.7668 54.7907 53.0735 54.2759 53.2488 53.7282C53.3802 53.312 53.5555 52.6329 53.7745 51.6909C54.0593 50.6394 54.2017 50.026 54.2017 49.8507ZM56.6005 40.4856L56.4691 40.1241C56.4033 39.8832 56.3486 39.7189 56.3048 39.6312C56.2609 39.5436 56.1952 39.3903 56.1076 39.1712C56.02 38.9521 55.9104 38.7988 55.779 38.7112C55.6476 38.6235 55.5052 38.503 55.3518 38.3497C55.1985 38.1964 55.0013 38.0978 54.7603 38.054C54.5194 38.0101 54.2784 37.9773 54.0374 37.9554C53.0735 37.9554 52.1425 38.5359 51.2443 39.697C50.5871 40.5513 50.0395 41.8548 49.6013 43.6073C49.1632 45.3598 48.9441 46.6304 48.9441 47.4191C48.9441 49.1497 49.6232 50.015 50.9814 50.015C52.2082 50.015 53.4131 49.2483 54.596 47.7148L54.8589 47.3862L56.6005 40.4856Z" fill="#D46FA0"/>
<path d="M68.4437 55.8652H68.3507C67.9789 55.8652 67.7 55.6483 67.5141 55.2145V32.6262L67.5606 10.0378C67.8704 9.635 68.1648 9.43359 68.4437 9.43359C68.8465 9.43359 69.1563 9.66598 69.3732 10.1308V55.2145C69.1253 55.6483 68.8465 55.8652 68.5366 55.8652H68.4437Z" fill="#D46FA0"/>
<path d="M90.4185 28.164C90.4185 27.7612 90.6354 27.4514 91.0692 27.2345H120.676C121.141 27.4824 121.373 27.7922 121.373 28.164C121.373 28.5049 121.156 28.7992 120.722 29.0471L105.942 29.0936H91.1622C90.6664 28.9387 90.4185 28.6288 90.4185 28.164ZM90.4185 37.1808C90.4185 36.716 90.6664 36.4062 91.1622 36.2512H120.722C121.156 36.5611 121.373 36.8709 121.373 37.1808C121.373 37.5836 121.141 37.8935 120.676 38.1104H91.0692C90.6354 37.8935 90.4185 37.5836 90.4185 37.1808Z" fill="#D46FA0"/>
<path d="M137.859 30.9527C137.89 30.7668 137.936 30.5189 137.998 30.2091C138.06 29.8992 138.246 29.3105 138.556 28.4429C138.866 27.5753 139.176 26.8472 139.485 26.2585C139.795 25.6697 140.291 25.0965 140.973 24.5388C141.654 23.981 142.336 23.7177 143.018 23.7486C143.7 23.7796 144.366 23.8881 145.016 24.074C145.667 24.2599 146.132 24.5388 146.411 24.9106C146.69 25.2824 146.937 25.6233 147.154 25.9331C147.371 26.243 147.495 26.5373 147.526 26.8162L147.619 27.1415C147.619 27.2035 147.635 27.2345 147.666 27.2345L148.177 26.7232C150.036 24.7402 152.221 23.7486 154.73 23.7486C155.257 23.7486 155.737 23.7796 156.171 23.8416C156.605 23.9036 157.008 24.012 157.38 24.1669C157.751 24.3219 158.046 24.4768 158.263 24.6317C158.48 24.7866 158.712 24.9726 158.96 25.1895C159.208 25.4064 159.363 25.6078 159.425 25.7937C159.487 25.9796 159.611 26.181 159.796 26.3979C159.982 26.6148 160.044 26.8007 159.982 26.9556C159.92 27.1106 159.967 27.25 160.122 27.3739C160.277 27.4979 160.308 27.6063 160.215 27.6993L160.587 27.2345C162.539 24.9106 164.847 23.7486 167.512 23.7486C169.185 23.7486 170.533 24.1669 171.555 25.0035C172.578 25.8402 173.105 27.0641 173.136 28.6753C173.136 30.2556 172.547 32.7034 171.369 36.0189C170.192 39.3343 169.603 41.3174 169.603 41.9681C169.634 42.4019 169.712 42.6962 169.836 42.8511C169.96 43.0061 170.192 43.0835 170.533 43.0835C171.4 43.0835 172.206 42.6188 172.95 41.6892C173.693 40.7596 174.298 39.4892 174.762 37.878C174.855 37.5371 174.948 37.3357 175.041 37.2738C175.134 37.2118 175.382 37.1808 175.785 37.1808C176.405 37.1808 176.714 37.3048 176.714 37.5526C176.714 37.5836 176.652 37.816 176.529 38.2498C176.281 39.1484 175.94 40.0315 175.506 40.8991C175.072 41.7667 174.36 42.6342 173.368 43.5018C172.377 44.3694 171.308 44.7877 170.161 44.7567C168.705 44.7567 167.651 44.3384 167.001 43.5018C166.35 42.6652 166.025 41.7976 166.025 40.8991C166.025 40.3103 166.582 38.4512 167.698 35.3217C168.813 32.1922 169.386 29.8373 169.417 28.257C169.417 26.4289 168.736 25.5148 167.372 25.5148H167.14C164.475 25.5148 162.229 27.0796 160.401 30.2091L160.075 30.7668L158.542 36.9949C157.519 41.054 156.93 43.2385 156.775 43.5483C156.373 44.3849 155.706 44.8032 154.777 44.8032C154.374 44.8032 154.049 44.6948 153.801 44.4779C153.553 44.261 153.382 44.0751 153.289 43.9201C153.197 43.7652 153.15 43.6103 153.15 43.4554C153.15 43.1145 153.677 40.8991 154.73 36.809L156.404 30.0232C156.496 29.5584 156.543 28.9697 156.543 28.257C156.543 26.4289 155.861 25.5148 154.498 25.5148H154.266C151.601 25.5148 149.354 27.0796 147.526 30.2091L147.201 30.7668L145.667 36.9949C144.645 41.054 144.056 43.2385 143.901 43.5483C143.498 44.3849 142.832 44.8032 141.902 44.8032C141.5 44.8032 141.174 44.7103 140.926 44.5244C140.678 44.3384 140.508 44.1525 140.415 43.9666C140.322 43.7807 140.291 43.6258 140.322 43.5018C140.322 43.099 140.911 40.5582 142.088 35.8794C143.297 31.1077 143.901 28.6133 143.901 28.3964C143.994 27.9317 144.04 27.5134 144.04 27.1415C144.04 26.0261 143.653 25.4683 142.878 25.4683C142.197 25.4683 141.623 25.9021 141.159 26.7697C140.694 27.6373 140.338 28.5824 140.09 29.6049C139.842 30.6274 139.656 31.1851 139.532 31.2781C139.47 31.3401 139.222 31.371 138.788 31.371H138.138C137.952 31.1851 137.859 31.0457 137.859 30.9527Z" fill="#D46FA0"/>
<path d="M192.145 42.2933C191.68 42.6961 190.999 43.1299 190.1 43.5946C189.202 44.0594 188.257 44.2918 187.265 44.2918C185.313 44.2918 183.748 43.5946 182.571 42.2003C181.393 40.806 180.789 39.0243 180.758 36.8553C180.758 33.6018 181.951 30.6118 184.337 27.885C186.723 25.1583 189.372 23.7795 192.285 23.7485C193.741 23.7485 195.089 24.4921 196.328 25.9794L196.468 25.7935C196.53 25.7006 196.607 25.6076 196.7 25.5146C196.793 25.4217 196.932 25.2978 197.118 25.1428C197.304 24.9879 197.506 24.8794 197.723 24.8175C197.939 24.7555 198.187 24.709 198.466 24.678C198.9 24.678 199.256 24.8175 199.535 25.0963C199.814 25.3752 199.969 25.6696 200 25.9794C200 26.4442 199.117 30.1934 197.351 37.2271C195.585 44.2608 194.655 47.8551 194.562 48.0101C194.004 49.6833 192.811 51.0621 190.983 52.1466C189.155 53.2311 187.064 53.7888 184.709 53.8198C180.34 53.8198 178.155 52.7663 178.155 50.6593C178.155 49.8537 178.434 49.141 178.992 48.5213C179.55 47.9016 180.262 47.5918 181.13 47.5918C181.595 47.5918 182.028 47.7312 182.431 48.0101C182.834 48.2889 183.051 48.7692 183.082 49.4509C183.082 49.7607 183.051 50.0551 182.989 50.334C182.927 50.6128 182.819 50.8297 182.664 50.9847C182.509 51.1396 182.385 51.2945 182.292 51.4494C182.199 51.6044 182.09 51.7283 181.966 51.8213L181.874 51.9142H181.92C182.23 52.0072 183.159 52.0537 184.709 52.0537C185.886 52.0537 186.816 51.8677 187.497 51.4959C188.21 51.1551 188.876 50.6438 189.496 49.9621C190.116 49.2805 190.549 48.5523 190.797 47.7777C190.983 47.1889 191.231 46.2284 191.541 44.896C191.944 43.4087 192.145 42.5411 192.145 42.2933ZM195.538 29.047L195.352 28.5357C195.259 28.1949 195.182 27.9625 195.12 27.8386C195.058 27.7146 194.965 27.4977 194.841 27.1879C194.717 26.878 194.562 26.6611 194.376 26.5372C194.19 26.4132 193.989 26.2428 193.772 26.0259C193.555 25.809 193.276 25.6696 192.935 25.6076C192.594 25.5456 192.254 25.4992 191.913 25.4682C190.549 25.4682 189.233 26.2893 187.962 27.9315C187.033 29.1399 186.258 30.9836 185.638 33.4624C185.019 35.9412 184.709 37.7384 184.709 38.8539C184.709 41.3017 185.669 42.5256 187.59 42.5256C189.326 42.5256 191.03 41.4412 192.703 39.2722L193.075 38.8074L195.538 29.047Z" fill="#D46FA0"/>
</svg>
