<svg width="1001" height="110" viewBox="0 0 1001 110" fill="none" xmlns="http://www.w3.org/2000/svg">
<path d="M2.65886 109.8H2.47437C1.73643 109.8 1.18297 109.369 0.813995 108.508V63.6782L0.906239 18.848C1.52119 18.0485 2.1054 17.6488 2.65886 17.6488C3.4583 17.6488 4.07326 18.11 4.50373 19.0324V108.508C4.01176 109.369 3.4583 109.8 2.84335 109.8H2.65886Z" fill="#6C63FF"/>
<path d="M19.9084 86.74C18.863 86.74 18.3402 86.4326 18.3402 85.8176C18.3402 85.6946 18.4325 85.2641 18.617 84.5262C18.863 83.5423 19.1089 82.9888 19.3549 82.8658C19.6009 82.7428 20.3081 82.6506 21.4765 82.5891C23.1369 82.5891 24.9818 82.4968 27.0111 82.3124C27.872 82.1279 28.4563 81.7589 28.7637 81.2054C28.8867 80.898 31.0698 72.2578 35.313 55.2851C39.5562 38.3123 41.7085 29.703 41.77 29.457C41.77 29.0265 41.647 28.8113 41.4011 28.8113C40.9091 28.6268 39.2795 28.473 36.5122 28.3501H33.6526C33.2836 27.9811 33.0992 27.7351 33.0992 27.6121C33.0992 27.4891 33.1607 26.9664 33.2836 26.044C33.5296 24.9985 33.8371 24.3528 34.2061 24.1069H83.9252C84.3557 24.3528 84.5709 24.6911 84.5709 25.1215C84.5709 25.429 84.1712 28.8728 83.3717 35.4528C82.5723 42.0328 82.1418 45.4151 82.0803 45.5995C81.9573 46.03 81.3424 46.2452 80.2355 46.2452H79.1285C78.6981 45.9378 78.4828 45.538 78.4828 45.0461C78.4828 44.9846 78.5751 44.2466 78.7596 42.8322C78.9441 41.4178 79.0363 39.7882 79.0363 37.9434C79.0363 36.0985 78.8211 34.5918 78.3906 33.4234C77.9601 32.255 77.3759 31.3018 76.638 30.5639C75.9 29.8259 74.7624 29.334 73.225 29.088C71.6876 28.842 70.1195 28.6268 68.5206 28.4423C66.9217 28.2578 64.7079 28.2271 61.8791 28.3501H59.7575C54.7148 28.4115 52.0398 28.5038 51.7323 28.6268C51.4248 28.7498 51.2096 28.9958 51.0866 29.3647C51.0251 29.4262 49.9797 33.4542 47.9503 41.4486L44.9985 53.348H50.0719C50.2564 53.348 50.9636 53.348 52.1935 53.348C53.4234 53.348 54.2844 53.3172 54.7763 53.2557C55.2683 53.1942 55.9447 53.102 56.8057 52.979C57.6666 52.856 58.4046 52.6408 59.0195 52.3333C59.6345 52.0258 60.1572 51.6568 60.5877 51.2264C61.3871 50.4884 62.0635 49.4738 62.617 48.1824C63.1705 46.8909 63.5702 45.7225 63.8162 44.6771C64.0622 43.6317 64.2159 43.0782 64.2774 43.0167C64.4619 42.7093 65.0461 42.5555 66.03 42.5555H67.1369C67.5674 42.863 67.7826 43.1705 67.7826 43.4779C67.7826 43.6624 66.8294 47.6904 64.9231 55.5618C63.0167 63.4332 61.9713 67.4919 61.7868 67.7379C61.6638 68.1684 61.0489 68.3836 59.942 68.3836H58.835C58.4046 68.0147 58.1893 67.6457 58.1893 67.2767C58.1893 67.0922 58.3431 66.4158 58.6505 65.2474C58.958 64.0789 59.1118 62.849 59.1118 61.5576C59.1118 59.7743 58.4968 58.6673 57.2669 58.2369C56.037 57.8064 53.3004 57.5912 49.0572 57.5912H43.9839L41.0321 69.3061C39.0642 76.9315 38.0803 80.9287 38.0803 81.2977C38.0803 82.1586 40.8168 82.5891 46.2899 82.5891H48.596C48.965 82.9581 49.1495 83.1733 49.1495 83.2348C49.1495 83.2963 49.088 83.9112 48.965 85.0797C48.719 85.8791 48.4115 86.4633 48.0426 86.8323H46.4744C43.9531 86.7093 39.3102 86.6478 32.5457 86.6478C28.5485 86.6478 25.5045 86.6478 23.4136 86.6478C21.3228 86.6478 20.1544 86.6785 19.9084 86.74Z" fill="#6C63FF"/>
<path d="M76.7579 2.15248C76.7579 1.66051 76.9116 1.23005 77.2191 0.861073C77.5266 0.4921 77.9878 0.307613 78.6027 0.307613C79.0332 0.307613 79.4022 0.461352 79.7097 0.768829C80.0171 1.01481 80.3246 1.59902 80.6321 2.52145C81.2471 4.79678 82.5077 6.54941 84.4141 7.77932C85.0905 8.20979 85.4287 8.76324 85.4287 9.4397C85.4287 9.99315 85.3365 10.3621 85.152 10.5466C84.9675 10.7311 84.5371 11.0078 83.8606 11.3768C81.2163 12.7297 78.9102 14.6668 76.9424 17.1881C76.8194 17.3111 76.6656 17.4956 76.4812 17.7416C76.2967 17.9876 76.1429 18.1721 76.0199 18.295C75.8969 18.418 75.7432 18.4795 75.5587 18.4795C75.3742 18.4795 75.159 18.5103 74.913 18.5718C74.4825 18.5718 74.0828 18.418 73.7139 18.1106C73.3449 17.8031 73.1296 17.3419 73.0682 16.7269C73.0682 15.5585 74.5133 13.7444 77.4036 11.2846H61.63L45.8564 11.1923C45.0569 10.6389 44.6572 10.0547 44.6572 9.4397C44.6572 9.00923 45.0569 8.39427 45.8564 7.59483H78.9717C77.4958 5.258 76.7579 3.44388 76.7579 2.15248Z" fill="#6C63FF"/>
<path d="M100.926 109.8H100.741C100.003 109.8 99.4497 109.369 99.0807 108.508V63.6782L99.173 18.848C99.7879 18.0485 100.372 17.6488 100.926 17.6488C101.725 17.6488 102.34 18.11 102.77 19.0324V108.508C102.279 109.369 101.725 109.8 101.11 109.8H100.926Z" fill="#6C63FF"/>
<path d="M116.884 72.1651C116.884 65.4621 119.528 59.4356 124.817 54.0855C130.105 48.7354 135.824 46.0603 141.974 46.0603C145.418 46.0603 148.123 46.7982 150.091 48.2741C152.059 49.75 153.074 51.6871 153.135 54.0855C153.135 55.8688 152.551 57.3755 151.383 58.6054C150.214 59.8353 148.738 60.481 146.955 60.5425C145.787 60.5425 144.864 60.235 144.188 59.6201C143.511 59.0051 143.173 58.0827 143.173 56.8528C143.173 55.6228 143.511 54.5774 144.188 53.7165C144.864 52.8556 145.541 52.2098 146.217 51.7794C146.893 51.3489 147.324 51.1644 147.508 51.2259H147.601C147.601 51.1029 147.416 50.9184 147.047 50.6725C146.678 50.4265 146.033 50.1805 145.11 49.9345C144.188 49.6885 143.142 49.5655 141.974 49.5655C140.129 49.5655 138.376 49.996 136.716 50.8569C135.425 51.4104 134.102 52.3636 132.75 53.7165C130.044 56.4223 128.076 60.235 126.846 65.1547C125.616 70.0743 124.97 73.641 124.909 75.8549C124.909 78.6837 125.708 80.8053 127.307 82.2197C128.66 83.6955 130.443 84.4335 132.657 84.4335H133.026C139.914 84.4335 145.602 81.8199 150.091 76.5928C150.645 75.9779 151.014 75.6704 151.198 75.6704C151.444 75.6704 151.844 75.9471 152.397 76.5006C152.951 77.054 153.258 77.4845 153.32 77.792C153.381 78.0995 153.105 78.5607 152.49 79.1756C151.875 79.7906 150.983 80.6515 149.815 81.7584C148.646 82.8654 147.262 83.7878 145.664 84.5257C144.065 85.2637 142.097 86.0324 139.76 86.8318C137.423 87.6313 134.963 87.9695 132.381 87.8465C127.768 87.8465 124.048 86.3706 121.219 83.4188C118.39 80.467 116.945 76.7158 116.884 72.1651Z" fill="#6C63FF"/>
<path d="M172.23 87.8467C167.618 87.8467 163.897 86.34 161.068 83.3268C158.239 80.3135 156.825 76.6852 156.825 72.4421C156.825 68.4448 157.748 64.6629 159.592 61.0961C161.437 57.5294 163.959 54.4239 167.156 51.7796C171.83 48.0283 176.596 46.1527 181.454 46.1527C183.422 46.1527 184.652 46.1835 185.144 46.245C185.943 46.4295 186.743 46.6447 187.542 46.8907C188.342 47.1367 189.418 47.6286 190.771 48.3666C192.123 49.1045 193.23 50.0269 194.091 51.1339C194.952 52.2408 195.752 53.7474 196.49 55.6538C197.228 57.5601 197.597 59.7125 197.597 62.1108C197.597 68.6908 194.952 74.6251 189.664 79.9138C184.375 85.2024 178.564 87.8467 172.23 87.8467ZM164.85 75.7628C164.85 78.8376 165.65 81.0514 167.249 82.4043C168.847 83.7572 170.662 84.4337 172.691 84.4337C175.397 84.4337 177.949 83.4498 180.347 81.4819C182.745 79.514 184.652 76.9312 186.066 73.7335C186.62 72.4421 187.327 70.1667 188.188 66.9075C189.049 63.6482 189.479 60.8194 189.479 58.4211C189.479 55.7153 188.926 53.6552 187.819 52.2408C186.343 50.3959 184.375 49.4735 181.915 49.4735C178.041 49.4735 174.628 51.2569 171.676 54.8236C169.401 57.5294 167.71 61.1269 166.603 65.6161C165.496 70.1052 164.912 73.4875 164.85 75.7628Z" fill="#6C63FF"/>
<path d="M210.511 60.1732C210.511 58.2053 211.003 56.2067 211.987 54.1774C212.97 52.148 214.692 50.2724 217.152 48.5505C219.612 46.8286 222.595 45.9985 226.1 46.06C229.912 46.06 232.68 46.8901 234.402 48.5505C236.124 50.2109 237.015 52.0558 237.077 54.0851C237.077 56.053 236.554 57.4981 235.509 58.4205C234.463 59.343 233.295 59.8349 232.003 59.8964C231.204 59.8964 230.466 59.6505 229.789 59.1585C229.113 58.6665 228.744 57.8671 228.683 56.7602C228.683 55.7762 228.959 54.9153 229.513 54.1774C230.066 53.4394 230.589 52.886 231.081 52.517C231.573 52.148 231.973 51.9635 232.28 51.9635C232.342 51.9635 232.372 51.9328 232.372 51.8713C232.372 51.6868 232.157 51.4101 231.727 51.0411C231.296 50.6721 230.527 50.3339 229.421 50.0264C228.314 49.7189 227.114 49.5344 225.823 49.473C222.871 49.473 220.719 50.2724 219.366 51.8713C218.013 53.4702 217.306 55.0998 217.244 56.7602C217.244 58.2976 217.829 59.3737 218.997 59.9887C220.165 60.6036 221.857 61.1264 224.07 61.5568C226.284 61.9873 227.883 62.4485 228.867 62.9405C232.926 64.7238 234.955 67.6756 234.955 71.7958C234.955 73.5177 234.617 75.2396 233.94 76.9614C233.264 78.6833 232.249 80.4052 230.896 82.1271C229.544 83.8489 227.606 85.2018 225.085 86.1858C222.564 87.1697 219.673 87.6924 216.414 87.7539C211.679 87.7539 208.328 86.8622 206.36 85.0789C204.392 83.2955 203.377 81.2046 203.316 78.8063C203.316 76.408 203.961 74.6861 205.253 73.6407C206.544 72.5953 207.897 72.0726 209.311 72.0726C210.234 72.0726 211.095 72.3493 211.894 72.9027C212.694 73.4562 213.124 74.4094 213.186 75.7623C213.186 77.3612 212.632 78.7141 211.525 79.821C210.418 80.9279 209.465 81.4814 208.666 81.4814C208.543 81.5429 208.451 81.5736 208.389 81.5736C208.328 81.5736 208.297 81.6351 208.297 81.7581C208.358 81.9426 208.604 82.1886 209.035 82.496C209.465 82.8035 210.418 83.2032 211.894 83.6952C213.37 84.1872 215.061 84.4024 216.968 84.3409C219.182 84.3409 221.088 84.0027 222.687 83.3262C224.286 82.6498 225.454 81.7888 226.192 80.7434C226.93 79.698 227.453 78.7448 227.76 77.8839C228.068 77.0229 228.221 76.2542 228.221 75.5778C228.221 73.8559 227.576 72.5645 226.284 71.7036C224.993 70.8426 223.517 70.3199 221.857 70.1354C220.196 69.951 218.382 69.4897 216.414 68.7518C214.446 68.0138 213.001 66.9377 212.079 65.5233C211.033 63.9859 210.511 62.2025 210.511 60.1732Z" fill="#6C63FF"/>
<path d="M250.36 63.7709C250.36 59.5278 250.667 55.4998 251.282 51.6871C251.897 47.8744 252.604 44.5843 253.404 41.8171C254.203 39.0498 255.341 36.344 256.817 33.6996C258.293 31.0553 259.461 28.9952 260.322 27.5193C261.183 26.0435 262.474 24.4446 264.196 22.7227C265.918 21.0008 266.933 19.9554 267.24 19.5864C267.548 19.2175 268.316 18.5717 269.546 17.6493H270.746H271.114C271.975 17.6493 272.406 17.926 272.406 18.4795C272.406 18.664 271.883 19.3097 270.838 20.4166C269.792 21.5235 268.532 23.1532 267.056 25.3055C265.58 27.4579 264.073 30.1022 262.536 33.2384C260.998 36.3747 259.707 40.6179 258.662 45.968C257.616 51.3181 257.093 57.2524 257.093 63.7709C257.093 70.2895 257.616 76.193 258.662 81.4817C259.707 86.7703 260.968 91.0442 262.444 94.3035C263.92 97.5627 265.426 100.207 266.964 102.236C268.501 104.266 269.792 105.895 270.838 107.125C271.883 108.355 272.406 109.001 272.406 109.062C272.406 109.616 271.945 109.893 271.022 109.893H270.746H269.546L266.964 107.679C261.183 102.452 256.971 95.9331 254.326 88.1232C251.682 80.3132 250.36 72.1958 250.36 63.7709Z" fill="#6C63FF"/>
<path d="M280.8 68.3828C280.8 62.1103 281.999 55.4995 284.397 48.5505C286.796 41.6015 290.055 35.6057 294.175 30.5631C298.295 25.5205 302.569 22.6302 306.997 21.8922C307.059 21.8922 307.304 21.8922 307.735 21.8922C308.165 21.8922 308.534 21.8615 308.842 21.8C312.163 22.046 314.745 23.5526 316.59 26.3199C318.989 30.0096 320.188 34.96 320.188 41.1711C320.188 48.243 318.804 55.438 316.037 62.756C313.27 70.0739 309.734 76.0698 305.429 80.7434C301.124 85.4171 297.004 87.7539 293.068 87.7539H292.423C290.209 87.7539 288.302 87.139 286.703 85.909C285.105 84.6791 283.905 83.0495 283.106 81.0201C282.307 78.9908 281.722 76.9307 281.353 74.8398C280.984 72.749 280.8 70.5967 280.8 68.3828ZM312.901 34.6218C312.901 28.3492 311.271 25.213 308.012 25.213C305.798 25.213 303.646 26.5966 301.555 29.3639C299.464 32.1312 297.742 35.2675 296.389 38.7727C295.036 42.278 293.991 45.3528 293.253 47.9971C292.515 50.6414 292.115 52.1788 292.054 52.6092C295.067 52.6707 298.049 52.7015 301.001 52.7015L309.949 52.6092C310.01 52.5477 310.256 51.5331 310.687 49.5652C311.117 47.5973 311.609 45.1375 312.163 42.1857C312.716 39.234 312.962 36.7126 312.901 34.6218ZM287.995 74.6554C287.995 81.1739 289.625 84.4331 292.884 84.4331C293.806 84.4331 294.79 84.1257 295.836 83.5107C296.881 82.8958 298.142 81.7273 299.618 80.0055C301.093 78.2836 302.569 75.6085 304.045 71.9803C305.521 68.3521 306.997 63.8629 308.473 58.5128L308.934 56.9447H290.947C290.947 57.1291 290.67 58.2976 290.116 60.4499C289.563 62.6022 289.071 65.0006 288.641 67.6449C288.21 70.2892 287.995 72.626 287.995 74.6554Z" fill="#6C63FF"/>
<path d="M326.368 17.7416L326.737 17.6493C327.045 17.6493 327.352 17.6493 327.66 17.6493H328.766L331.349 19.8632C337.13 25.0903 341.342 31.6088 343.987 39.4187C346.631 47.2287 347.953 55.3461 347.953 63.7709C347.953 67.9526 347.646 71.9806 347.031 75.8548C346.416 79.729 345.708 83.019 344.909 85.7248C344.11 88.4306 342.972 91.1364 341.496 93.8423C340.02 96.5481 338.852 98.6082 337.991 100.023C337.13 101.437 335.869 103.005 334.209 104.727C332.548 106.449 331.565 107.464 331.257 107.771C330.95 108.078 330.242 108.663 329.135 109.524C328.951 109.708 328.828 109.831 328.766 109.893H327.66C327.168 109.893 326.829 109.893 326.645 109.893C326.46 109.893 326.307 109.8 326.184 109.616C326.061 109.431 325.968 109.155 325.907 108.786C325.968 108.724 326.307 108.324 326.922 107.586C336.453 97.6857 341.219 83.0805 341.219 63.7709C341.219 44.4614 336.453 29.8562 326.922 19.9554C326.307 19.2175 325.968 18.8177 325.907 18.7562C325.907 18.2643 326.061 17.926 326.368 17.7416Z" fill="#6C63FF"/>
<path d="M384.961 64.9695C384.961 64.9695 384.961 64.5698 384.961 63.7704C384.961 62.9709 385.392 62.356 386.252 61.9255H439.846C440.768 62.4175 441.229 63.0324 441.229 63.7704C441.229 64.5083 440.768 65.1233 439.846 65.6152H386.252C385.392 65.1848 384.961 64.5698 384.961 63.7704V64.9695Z" fill="black"/>
<path d="M474.825 106.757C473.964 106.757 473.226 106.511 472.611 106.019C471.996 105.527 471.658 104.85 471.596 103.989C471.596 103.374 473.841 94.0885 478.33 76.1318C482.819 58.1751 485.187 49.0123 485.432 48.6433C486.232 46.9215 487.646 46.0605 489.676 46.0605C490.414 46.122 491.029 46.3373 491.521 46.7062C492.013 47.0752 492.32 47.4442 492.443 47.8131C492.566 48.1821 492.627 48.4896 492.627 48.7356C492.627 49.4735 491.674 53.5937 489.768 61.0962C487.862 68.5986 486.847 72.8111 486.724 73.7335C486.601 74.41 486.539 75.4861 486.539 76.962V77.7C486.539 82.1891 488.6 84.4337 492.72 84.4337C493.273 84.4337 493.827 84.403 494.38 84.3415C494.934 84.28 495.456 84.157 495.948 83.9725C496.44 83.788 496.901 83.5728 497.332 83.3268C497.762 83.0808 498.162 82.8656 498.531 82.6811C498.9 82.4966 499.269 82.1891 499.638 81.7587C500.007 81.3282 500.345 81.0207 500.653 80.8362C500.96 80.6517 501.268 80.2828 501.575 79.7293C501.883 79.1759 502.129 78.8376 502.313 78.7146C502.498 78.5916 502.774 78.2227 503.143 77.6077L503.789 76.6853L507.11 63.4945C509.324 54.7621 510.553 50.1192 510.799 49.5658C511.599 47.9054 512.921 47.0752 514.766 47.0752C515.565 47.0752 516.211 47.2904 516.703 47.7209C517.195 48.1514 517.533 48.5203 517.718 48.8278C517.902 49.1353 517.964 49.4428 517.902 49.7503L510.892 79.0836C510.83 79.3911 510.799 79.8831 510.799 80.5595C510.799 82.0969 511.015 83.1116 511.445 83.6035C511.876 84.0955 512.521 84.3722 513.382 84.4337C513.936 84.3722 514.551 84.0955 515.227 83.6035C516.518 82.3736 517.779 79.4218 519.009 74.7482C519.378 73.5183 519.685 72.8726 519.931 72.8111C520.054 72.7496 520.362 72.7188 520.854 72.7188H521.223C522.391 72.7188 522.976 72.9956 522.976 73.549C522.976 73.918 522.822 74.7482 522.514 76.0396C522.207 77.331 521.592 78.9914 520.669 81.0207C519.747 83.0501 518.763 84.5875 517.718 85.6329C516.918 86.4323 515.934 87.078 514.766 87.57C514.274 87.693 513.536 87.7545 512.552 87.7545C511.261 87.7545 510.092 87.57 509.047 87.201C508.001 86.832 507.171 86.3708 506.556 85.8174C505.941 85.2639 505.419 84.7105 504.988 84.157C504.558 83.6035 504.281 83.1423 504.158 82.7733C504.035 82.4044 503.973 82.1891 503.973 82.1276L503.42 82.6811C503.051 83.0501 502.498 83.5113 501.76 84.0647C501.022 84.6182 500.222 85.1717 499.361 85.7251C498.5 86.2786 497.393 86.7706 496.04 87.201C494.688 87.6315 493.396 87.8467 492.166 87.8467C489.276 87.8467 486.416 87.1395 483.588 85.7251L481.374 94.6727C480.082 99.7154 479.314 102.636 479.068 103.436C478.822 104.235 478.453 104.912 477.961 105.465C476.977 106.326 475.931 106.757 474.825 106.757Z" fill="#2CAC0B"/>
<path d="M532.988 58.4734C532.988 58.0386 533.075 57.5386 533.249 56.9734C533.423 56.4082 533.684 56.1256 534.032 56.1256C534.075 56.1256 535.64 56.0169 538.727 55.7995C541.814 55.5821 543.401 55.4517 543.488 55.4082C544.01 55.4082 544.271 55.5821 544.271 55.93C544.271 56.2343 543.184 60.7777 541.01 69.5601C538.836 78.1686 537.749 82.625 537.749 82.9294C538.575 82.4946 539.206 82.0816 539.64 81.6903C540.684 80.9077 542.184 79.5381 544.14 77.5817C546.097 75.6252 547.618 74.2991 548.705 73.6035C550.444 72.4296 552.097 71.8427 553.662 71.8427C554.966 71.8427 555.988 72.2557 556.727 73.0818C557.466 73.9078 557.857 75.0817 557.901 76.6034C557.901 77.6904 557.749 78.6034 557.444 79.3425C557.14 80.0816 556.727 80.6251 556.205 80.9729C555.683 81.3207 555.227 81.5598 554.836 81.6903C554.444 81.8207 554.053 81.8859 553.662 81.8859C552.792 81.8859 552.097 81.6468 551.575 81.1685C551.053 80.6903 550.792 80.0599 550.792 79.2773C550.792 78.1903 551.14 77.2991 551.836 76.6034C552.531 75.9078 553.227 75.4513 553.923 75.2339L554.966 75.0382C554.444 74.5165 553.923 74.2556 553.401 74.2556H553.14C551.749 74.3861 550.379 74.9295 549.031 75.886C547.684 76.8425 546.097 78.2338 544.271 80.0599C542.445 81.8859 541.01 83.212 539.966 84.038C540.053 84.0815 540.379 84.1467 540.945 84.2337C541.51 84.3206 542.032 84.4511 542.51 84.625C542.988 84.7989 543.553 84.9728 544.205 85.1467C544.858 85.3206 545.444 85.625 545.966 86.0597C546.488 86.4945 546.966 86.8858 547.401 87.2336C547.836 87.5814 548.205 88.1467 548.51 88.9292C548.814 89.7118 548.944 90.4292 548.901 91.0814C548.901 91.8205 548.792 92.7118 548.575 93.7552C548.357 94.7987 548.227 95.6682 548.184 96.3639C548.184 98.103 548.771 98.9725 549.944 98.9725C552.031 98.9725 553.727 96.3856 555.031 91.2118C555.118 90.864 555.553 90.6901 556.336 90.6901H556.596C557.292 90.6901 557.64 90.8857 557.64 91.277C557.64 91.4944 557.575 91.7987 557.444 92.19C555.662 98.3203 553.097 101.385 549.749 101.385C547.792 101.385 546.205 100.82 544.988 99.6899C543.771 98.5595 543.162 96.9291 543.162 94.7987C543.162 94.0161 543.227 93.3422 543.358 92.777C543.488 92.2118 543.553 91.6901 543.553 91.2118C543.553 90.2553 543.249 89.4292 542.64 88.7336C542.032 88.038 541.271 87.538 540.358 87.2336C539.445 86.9293 538.706 86.6902 538.14 86.5163C537.575 86.3423 537.184 86.2771 536.966 86.3206H536.836C536.314 88.1467 535.858 89.9075 535.466 91.6031C535.075 93.2987 534.771 94.5596 534.553 95.3856C534.336 96.2117 534.14 97.016 533.966 97.7986C533.793 98.5812 533.64 99.1029 533.51 99.3638C533.38 99.6247 533.227 99.9073 533.053 100.212C532.88 100.516 532.64 100.712 532.336 100.799C531.771 101.19 531.162 101.385 530.51 101.385C529.771 101.385 529.206 101.168 528.814 100.733C528.423 100.299 528.227 99.929 528.227 99.6247C528.227 99.1899 529.032 95.7117 530.64 89.1901C532.249 82.6685 533.836 76.2556 535.401 69.9514L537.814 60.4951C537.858 59.9299 537.706 59.5821 537.358 59.4516C537.01 59.3212 536.162 59.2125 534.814 59.1255H534.488C534.053 59.1255 533.771 59.1255 533.64 59.1255C533.51 59.1255 533.358 59.0603 533.184 58.9299C533.01 58.7995 532.945 58.6473 532.988 58.4734Z" fill="#2CAC0B"/>
<path d="M576.513 109.8H576.329C575.591 109.8 575.037 109.369 574.668 108.508V63.6782L574.761 18.848C575.376 18.0485 575.96 17.6488 576.513 17.6488C577.313 17.6488 577.928 18.11 578.358 19.0324V108.508C577.866 109.369 577.313 109.8 576.698 109.8H576.513Z" fill="#2CAC0B"/>
<path d="M593.763 86.7388C592.717 86.7388 592.195 86.4313 592.195 85.8164C592.195 85.6934 592.287 85.2629 592.471 84.525C592.717 83.541 592.963 82.9876 593.209 82.8646C593.455 82.7416 594.163 82.6494 595.331 82.5879C596.991 82.5879 598.836 82.4956 600.866 82.3111C601.727 82.1266 602.311 81.7577 602.618 81.2042C602.741 80.8967 604.924 72.2566 609.168 55.2839C613.411 38.3111 615.563 29.7017 615.625 29.4558C615.625 29.0253 615.502 28.81 615.256 28.81C614.764 28.6256 613.134 28.4718 610.367 28.3488H607.507C607.138 27.9799 606.954 27.7339 606.954 27.6109C606.954 27.4879 607.015 26.9652 607.138 26.0428C607.384 24.9973 607.692 24.3516 608.061 24.1056H657.78C658.21 24.3516 658.425 24.6898 658.425 25.1203C658.425 25.4278 658.026 28.8715 657.226 35.4516C656.427 42.0316 655.996 45.4138 655.935 45.5983C655.812 46.0288 655.197 46.244 654.09 46.244H652.983C652.553 45.9365 652.337 45.5368 652.337 45.0449C652.337 44.9834 652.43 44.2454 652.614 42.831C652.799 41.4166 652.891 39.787 652.891 37.9421C652.891 36.0973 652.676 34.5906 652.245 33.4222C651.815 32.2538 651.23 31.3006 650.493 30.5627C649.755 29.8247 648.617 29.3328 647.08 29.0868C645.542 28.8408 643.974 28.6256 642.375 28.4411C640.776 28.2566 638.562 28.2258 635.734 28.3488H633.612C628.569 28.4103 625.894 28.5026 625.587 28.6256C625.279 28.7486 625.064 28.9945 624.941 29.3635C624.88 29.425 623.834 33.453 621.805 41.4474L618.853 53.3468H623.926C624.111 53.3468 624.818 53.3468 626.048 53.3468C627.278 53.3468 628.139 53.316 628.631 53.2545C629.123 53.193 629.799 53.1008 630.66 52.9778C631.521 52.8548 632.259 52.6396 632.874 52.3321C633.489 52.0246 634.012 51.6556 634.442 51.2252C635.242 50.4872 635.918 49.4725 636.472 48.1811C637.025 46.8897 637.425 45.7213 637.671 44.6759C637.917 43.6305 638.07 43.077 638.132 43.0155C638.316 42.708 638.901 42.5543 639.885 42.5543H640.991C641.422 42.8618 641.637 43.1692 641.637 43.4767C641.637 43.6612 640.684 47.6892 638.778 55.5606C636.871 63.432 635.826 67.4907 635.641 67.7367C635.518 68.1672 634.903 68.3824 633.796 68.3824H632.69C632.259 68.0134 632.044 67.6445 632.044 67.2755C632.044 67.091 632.198 66.4145 632.505 65.2461C632.813 64.0777 632.966 62.8478 632.966 61.5564C632.966 59.773 632.351 58.6661 631.121 58.2356C629.892 57.8052 627.155 57.5899 622.912 57.5899H617.838L614.887 69.3048C612.919 76.9303 611.935 80.9275 611.935 81.2965C611.935 82.1574 614.671 82.5879 620.144 82.5879H622.451C622.82 82.9568 623.004 83.1721 623.004 83.2336C623.004 83.2951 622.943 83.91 622.82 85.0784C622.574 85.8779 622.266 86.4621 621.897 86.8311H620.329C617.808 86.7081 613.165 86.6466 606.4 86.6466C602.403 86.6466 599.359 86.6466 597.268 86.6466C595.177 86.6466 594.009 86.6773 593.763 86.7388Z" fill="#2CAC0B"/>
<path d="M650.612 2.15126C650.612 1.65929 650.766 1.22882 651.073 0.859852C651.381 0.490879 651.842 0.306392 652.457 0.306392C652.888 0.306392 653.257 0.460131 653.564 0.767609C653.872 1.01359 654.179 1.5978 654.486 2.52023C655.101 4.79556 656.362 6.54819 658.268 7.7781C658.945 8.20856 659.283 8.76202 659.283 9.43847C659.283 9.99193 659.191 10.3609 659.006 10.5454C658.822 10.7299 658.391 11.0066 657.715 11.3756C655.071 12.7285 652.765 14.6656 650.797 17.1869C650.674 17.3099 650.52 17.4944 650.336 17.7404C650.151 17.9863 649.997 18.1708 649.874 18.2938C649.751 18.4168 649.598 18.4783 649.413 18.4783C649.229 18.4783 649.013 18.5091 648.767 18.5706C648.337 18.5706 647.937 18.4168 647.568 18.1093C647.199 17.8019 646.984 17.3406 646.923 16.7257C646.923 15.5573 648.368 13.7432 651.258 11.2833H635.484L619.711 11.1911C618.911 10.6376 618.512 10.0534 618.512 9.43847C618.512 9.00801 618.911 8.39305 619.711 7.59361H652.826C651.35 5.25678 650.612 3.44266 650.612 2.15126Z" fill="#2CAC0B"/>
<path d="M677.219 59.1251C677.088 59.1251 676.914 59.1251 676.697 59.1251C675.61 59.1251 674.958 59.1034 674.741 59.0599C674.523 59.0164 674.415 58.7773 674.415 58.3425C674.415 57.1687 674.654 56.4513 675.132 56.1904C675.219 56.1469 677.328 56.1252 681.458 56.1252C684.806 56.1252 686.719 56.1252 687.197 56.1252C687.675 56.1252 687.979 56.2556 688.11 56.5165C697.284 78.0813 701.957 89.1462 702.131 89.7114L705.653 75.8204C707.957 66.6467 709.109 61.7555 709.109 61.1468C709.109 59.9729 707.718 59.299 704.936 59.1251C703.892 59.1251 703.37 58.886 703.37 58.4078C703.37 58.3208 703.414 58.0599 703.501 57.6252C703.675 56.9295 703.805 56.5165 703.892 56.3861C703.979 56.2556 704.197 56.1687 704.544 56.1252C704.675 56.1252 705.349 56.1469 706.566 56.1904C707.783 56.2339 709.588 56.2774 711.979 56.3209C714.153 56.3209 715.805 56.2991 716.935 56.2556C718.066 56.2122 718.718 56.1904 718.892 56.1904C719.544 56.1904 719.87 56.4078 719.87 56.8426C719.87 57.7991 719.696 58.4512 719.348 58.7991C719.261 59.0164 718.783 59.1251 717.914 59.1251C714.827 59.299 712.892 60.1686 712.109 61.7338L702.392 100.211C702.305 100.516 701.849 100.668 701.023 100.668C700.414 100.668 700.044 100.624 699.914 100.537C699.784 100.407 696.979 93.82 691.501 80.7768L683.219 61.2773L678.98 78.2334C676.154 89.3636 674.741 95.1244 674.741 95.5157C674.958 96.9504 676.523 97.6678 679.436 97.6678H680.088C680.349 97.8852 680.48 98.0591 680.48 98.1895C680.48 98.3199 680.436 98.733 680.349 99.4286C680.175 99.9938 679.958 100.407 679.697 100.668H678.849C677.501 100.581 675.154 100.537 671.806 100.537C670.589 100.537 669.48 100.537 668.48 100.537C667.48 100.537 666.676 100.537 666.067 100.537C665.458 100.537 665.089 100.559 664.958 100.603C664.306 100.603 663.98 100.407 663.98 100.016C663.98 99.8417 664.045 99.4938 664.176 98.9721C664.306 98.4504 664.415 98.146 664.502 98.0591C664.589 97.7982 665.089 97.6678 666.002 97.6678C668.958 97.5374 670.871 96.6895 671.741 95.1244C671.915 94.8635 673.458 88.8419 676.371 77.0595L680.806 59.3208C680.719 59.2773 679.523 59.2121 677.219 59.1251Z" fill="#2CAC0B"/>
<path d="M737.321 109.8H737.137C736.399 109.8 735.845 109.369 735.476 108.508V63.6782L735.569 18.848C736.184 18.0485 736.768 17.6488 737.321 17.6488C738.121 17.6488 738.736 18.11 739.166 19.0324V108.508C738.674 109.369 738.121 109.8 737.506 109.8H737.321Z" fill="#2CAC0B"/>
<path d="M780.924 54.8229C780.924 54.0235 781.355 53.4085 782.216 52.9781H840.975C841.897 53.47 842.358 54.085 842.358 54.8229C842.358 55.4994 841.928 56.0836 841.067 56.5756L811.734 56.6678H782.4C781.416 56.3603 780.924 55.7454 780.924 54.8229ZM780.924 72.7181C780.924 71.7957 781.416 71.1807 782.4 70.8733H841.067C841.928 71.4882 842.358 72.1032 842.358 72.7181C842.358 73.5176 841.897 74.1325 840.975 74.563H782.216C781.355 74.1325 780.924 73.5176 780.924 72.7181Z" fill="black"/>
<path d="M875.086 60.3582C875.148 59.9892 875.24 59.4973 875.363 58.8823C875.486 58.2673 875.855 57.0989 876.47 55.3771C877.085 53.6552 877.7 52.21 878.315 51.0416C878.93 49.8732 879.914 48.7355 881.267 47.6286C882.62 46.5217 883.972 45.999 885.325 46.0605C886.678 46.122 888 46.3372 889.292 46.7062C890.583 47.0752 891.506 47.6286 892.059 48.3666C892.613 49.1045 893.104 49.781 893.535 50.3959C893.965 51.0109 894.211 51.5951 894.273 52.1485L894.457 52.7942C894.457 52.9172 894.488 52.9787 894.55 52.9787L895.564 51.9641C899.254 48.0283 903.589 46.0605 908.571 46.0605C909.616 46.0605 910.569 46.122 911.43 46.245C912.291 46.368 913.091 46.5832 913.828 46.8907C914.566 47.1981 915.151 47.5056 915.581 47.8131C916.012 48.1206 916.473 48.4896 916.965 48.92C917.457 49.3505 917.764 49.7502 917.887 50.1192C918.01 50.4882 918.256 50.8879 918.625 51.3183C918.994 51.7488 919.117 52.1178 918.994 52.4253C918.871 52.7327 918.963 53.0095 919.271 53.2555C919.578 53.5014 919.64 53.7167 919.455 53.9012L920.193 52.9787C924.067 48.3666 928.649 46.0605 933.938 46.0605C937.258 46.0605 939.933 46.8907 941.963 48.5511C943.992 50.2114 945.037 52.6405 945.099 55.8383C945.099 58.9745 943.931 63.8327 941.594 70.4127C939.257 76.9927 938.088 80.9284 938.088 82.2198C938.15 83.0808 938.304 83.665 938.55 83.9725C938.796 84.2799 939.257 84.4337 939.933 84.4337C941.655 84.4337 943.254 83.5112 944.73 81.6664C946.206 79.8215 947.405 77.3002 948.327 74.1024C948.512 73.426 948.696 73.0263 948.881 72.9033C949.065 72.7803 949.557 72.7188 950.357 72.7188C951.587 72.7188 952.202 72.9648 952.202 73.4567C952.202 73.5182 952.079 73.9794 951.833 74.8404C951.341 76.6237 950.664 78.3764 949.803 80.0982C948.942 81.8201 947.528 83.542 945.56 85.2639C943.592 86.9857 941.471 87.8159 939.195 87.7544C936.305 87.7544 934.214 86.9242 932.923 85.2639C931.631 83.6035 930.986 81.8816 930.986 80.0982C930.986 78.9298 932.093 75.2401 934.306 69.0291C936.52 62.818 937.658 58.1443 937.719 55.0081C937.719 51.3798 936.367 49.5657 933.661 49.5657H933.2C927.911 49.5657 923.453 52.6712 919.824 58.8823L919.179 59.9892L916.135 72.3498C914.105 80.4057 912.937 84.7412 912.629 85.3561C911.83 87.0165 910.508 87.8467 908.663 87.8467C907.863 87.8467 907.218 87.6314 906.726 87.201C906.234 86.7705 905.896 86.4015 905.711 86.0941C905.527 85.7866 905.434 85.4791 905.434 85.1716C905.434 84.4952 906.48 80.0982 908.571 71.9808L911.891 58.5133C912.076 57.5909 912.168 56.4225 912.168 55.0081C912.168 51.3798 910.815 49.5657 908.109 49.5657H907.648C902.36 49.5657 897.901 52.6712 894.273 58.8823L893.627 59.9892L890.583 72.3498C888.554 80.4057 887.385 84.7412 887.078 85.3561C886.278 87.0165 884.956 87.8467 883.111 87.8467C882.312 87.8467 881.666 87.6622 881.174 87.2932C880.682 86.9242 880.344 86.5553 880.16 86.1863C879.975 85.8173 879.914 85.5099 879.975 85.2639C879.975 84.4644 881.144 79.4218 883.48 70.136C885.879 60.6657 887.078 55.7153 887.078 55.2848C887.262 54.3624 887.355 53.5322 887.355 52.7942C887.355 50.5804 886.586 49.4735 885.049 49.4735C883.696 49.4735 882.558 50.3344 881.636 52.0563C880.713 53.7782 880.006 55.6538 879.514 57.6831C879.022 59.7125 878.653 60.8194 878.407 61.0039C878.284 61.1269 877.792 61.1884 876.931 61.1884H875.64C875.271 60.8194 875.086 60.5427 875.086 60.3582Z" fill="black"/>
<path d="M957.183 72.3493C957.183 66.1382 959.52 60.2347 964.193 54.6386C968.867 49.0425 974.125 46.2137 979.967 46.1522C983.103 46.1522 985.871 47.6588 988.269 50.6721C989.253 48.8272 990.667 47.9048 992.512 47.9048C993.311 47.9048 994.019 48.1508 994.634 48.6428C995.249 49.1347 995.556 49.7497 995.556 50.4876C995.556 51.2871 994.418 56.2067 992.143 65.2466C989.868 74.2864 988.699 79.3905 988.638 80.5589C988.638 82.0963 988.853 83.111 989.284 83.603C989.714 84.0949 990.36 84.3717 991.221 84.4331C991.774 84.3717 992.389 84.0949 993.065 83.603C994.357 82.373 995.618 79.4213 996.847 74.7476C997.216 73.5177 997.524 72.872 997.77 72.8105C997.893 72.749 998.2 72.7183 998.692 72.7183H999.061C1000.23 72.7183 1000.81 72.995 1000.81 73.5484C1000.81 73.9174 1000.66 74.7476 1000.35 76.039C1000.05 77.3304 999.43 78.9908 998.508 81.0201C997.585 83.0495 996.601 84.5869 995.556 85.6323C994.757 86.4318 993.773 87.0775 992.604 87.5694C992.112 87.6924 991.374 87.7539 990.39 87.7539C988.3 87.7539 986.547 87.2927 985.133 86.3703C983.718 85.4478 982.796 84.4946 982.365 83.5107L981.812 82.1271C981.75 82.0656 981.627 82.0963 981.443 82.2193C981.32 82.3423 981.197 82.4653 981.074 82.5883C977.446 86.032 973.756 87.7539 970.005 87.7539C966.622 87.7539 963.64 86.524 961.057 84.0642C958.474 81.6044 957.183 77.6994 957.183 72.3493ZM986.516 56.5757C986.516 56.2067 986.362 55.5303 986.055 54.5463C985.748 53.5624 985.04 52.4862 983.933 51.3178C982.826 50.1494 981.412 49.5344 979.69 49.473C977.538 49.473 975.478 50.4261 973.51 52.3325C971.542 54.2389 970.005 56.7294 968.898 59.8042C967.114 64.6623 965.854 69.705 965.116 74.9321C965.116 75.1166 965.116 75.4548 965.116 75.9468C965.116 76.4387 965.085 76.8077 965.024 77.0537C965.024 79.821 965.577 81.7273 966.684 82.7728C967.791 83.8182 969.113 84.3717 970.65 84.4331C972.987 84.4331 975.293 83.4185 977.569 81.3891C979.844 79.3598 981.197 77.7916 981.627 76.6847C981.75 76.4387 982.581 73.1487 984.118 66.8147C985.655 60.4806 986.455 57.0676 986.516 56.5757Z" fill="black"/>
</svg>
