<svg width="1200" height="124" viewBox="0 0 1200 124" fill="none" xmlns="http://www.w3.org/2000/svg">
<path d="M2.08696 123.862H1.87826C1.04348 123.862 0.417391 123.375 0 122.401V71.6881L0.104348 20.9751C0.8 20.0708 1.46087 19.6186 2.08696 19.6186C2.9913 19.6186 3.68696 20.1403 4.17391 21.1838V122.401C3.61739 123.375 2.9913 123.862 2.29565 123.862H2.08696Z" fill="#EF224B"/>
<path d="M21.5998 97.7758C20.4172 97.7758 19.8259 97.428 19.8259 96.7323C19.8259 96.5932 19.9303 96.1062 20.139 95.2714C20.4172 94.1584 20.6955 93.5323 20.9738 93.3932C21.252 93.254 22.052 93.1497 23.3738 93.0801C25.252 93.0801 27.339 92.9758 29.6346 92.7671C30.6085 92.5584 31.2694 92.141 31.6172 91.5149C31.7564 91.1671 34.2259 81.3932 39.0259 62.1932C43.8259 42.9932 46.2607 33.254 46.3303 32.9758C46.3303 32.4888 46.1911 32.2453 45.9129 32.2453C45.3564 32.0366 43.5129 31.8627 40.3824 31.7236H37.1477C36.7303 31.3062 36.5216 31.028 36.5216 30.8888C36.5216 30.7497 36.5911 30.1584 36.7303 29.1149C37.0085 27.9323 37.3564 27.2019 37.7738 26.9236H94.0172C94.5042 27.2019 94.7477 27.5845 94.7477 28.0714C94.7477 28.4193 94.2955 32.3149 93.3911 39.7584C92.4868 47.2019 91.9998 51.028 91.9303 51.2366C91.7911 51.7236 91.0955 51.9671 89.8433 51.9671H88.5911C88.1042 51.6193 87.8607 51.1671 87.8607 50.6106C87.8607 50.541 87.9651 49.7062 88.1738 48.1062C88.3824 46.5062 88.4868 44.6627 88.4868 42.5758C88.4868 40.4888 88.2433 38.7845 87.7564 37.4627C87.2694 36.141 86.6085 35.0627 85.7738 34.228C84.939 33.3932 83.652 32.8366 81.9129 32.5584C80.1738 32.2801 78.3998 32.0366 76.5911 31.828C74.7824 31.6193 72.2781 31.5845 69.0781 31.7236H66.6781C60.9738 31.7932 57.9477 31.8975 57.5998 32.0366C57.252 32.1758 57.0085 32.454 56.8694 32.8714C56.7998 32.941 55.6172 37.4975 53.3216 46.541L49.9824 60.0019H55.7216C55.9303 60.0019 56.7303 60.0019 58.1216 60.0019C59.5129 60.0019 60.4868 59.9671 61.0433 59.8975C61.5998 59.828 62.3651 59.7236 63.339 59.5845C64.3129 59.4453 65.1477 59.2019 65.8433 58.854C66.539 58.5062 67.1303 58.0888 67.6172 57.6019C68.5216 56.7671 69.2868 55.6193 69.9129 54.1584C70.539 52.6975 70.9911 51.3758 71.2694 50.1932C71.5477 49.0106 71.7216 48.3845 71.7911 48.3149C71.9998 47.9671 72.6607 47.7932 73.7738 47.7932H75.0259C75.5129 48.141 75.7564 48.4888 75.7564 48.8366C75.7564 49.0453 74.6781 53.6019 72.5216 62.5062C70.3651 71.4106 69.1824 76.0019 68.9738 76.2801C68.8346 76.7671 68.139 77.0106 66.8868 77.0106H65.6346C65.1477 76.5932 64.9042 76.1758 64.9042 75.7584C64.9042 75.5497 65.0781 74.7845 65.4259 73.4627C65.7738 72.141 65.9477 70.7497 65.9477 69.2888C65.9477 67.2714 65.252 66.0193 63.8607 65.5323C62.4694 65.0453 59.3738 64.8019 54.5738 64.8019H48.8346L45.4955 78.054C43.2694 86.6801 42.1564 91.2019 42.1564 91.6193C42.1564 92.5932 45.252 93.0801 51.4433 93.0801H54.052C54.4694 93.4975 54.6781 93.741 54.6781 93.8106C54.6781 93.8801 54.6085 94.5758 54.4694 95.8975C54.1911 96.8019 53.8433 97.4627 53.4259 97.8801H51.652C48.7998 97.741 43.5477 97.6714 35.8955 97.6714C31.3738 97.6714 27.9303 97.6714 25.5651 97.6714C23.1998 97.6714 21.8781 97.7062 21.5998 97.7758Z" fill="#EF224B"/>
<path d="M85.9094 2.08844C85.9094 1.53192 86.0833 1.04496 86.4311 0.627571C86.7789 0.21018 87.3007 0.00148416 87.9963 0.00148416C88.4833 0.00148416 88.9007 0.175397 89.2485 0.523223C89.5963 0.801484 89.9441 1.46235 90.292 2.50583C90.9876 5.07974 92.4137 7.06235 94.5702 8.45366C95.3354 8.94061 95.7181 9.5667 95.7181 10.3319C95.7181 10.958 95.6137 11.3754 95.405 11.5841C95.1963 11.7928 94.7094 12.1058 93.9441 12.5232C90.9528 14.0537 88.3441 16.245 86.1181 19.0971C85.9789 19.2363 85.805 19.445 85.5963 19.7232C85.3876 20.0015 85.2137 20.2102 85.0746 20.3493C84.9354 20.4884 84.7615 20.558 84.5528 20.558C84.3441 20.558 84.1007 20.5928 83.8224 20.6624C83.3354 20.6624 82.8833 20.4884 82.4659 20.1406C82.0485 19.7928 81.805 19.271 81.7354 18.5754C81.7354 17.2537 83.3702 15.2015 86.6398 12.4189H68.7963L50.9528 12.3145C50.0485 11.6884 49.5963 11.0276 49.5963 10.3319C49.5963 9.84496 50.0485 9.14931 50.9528 8.24496H88.4137C86.7441 5.60148 85.9094 3.54931 85.9094 2.08844Z" fill="#EF224B"/>
<path d="M116.007 66.538C115.86 66.538 115.663 66.538 115.417 66.538C114.188 66.538 113.45 66.5134 113.204 66.4642C112.958 66.415 112.835 66.1445 112.835 65.6527C112.835 64.3248 113.106 63.5133 113.647 63.2182C113.745 63.169 116.13 63.1444 120.803 63.1444C124.59 63.1444 126.754 63.1444 127.295 63.1444C127.836 63.1444 128.18 63.2919 128.328 63.587C138.705 87.9816 143.992 100.499 144.189 101.138L148.173 85.4241C150.78 75.0466 152.083 69.5135 152.083 68.825C152.083 67.4971 150.509 66.7347 147.361 66.538C146.181 66.538 145.591 66.2675 145.591 65.7265C145.591 65.6281 145.64 65.333 145.738 64.8412C145.935 64.0543 146.083 63.587 146.181 63.4395C146.279 63.2919 146.525 63.1936 146.919 63.1444C147.066 63.1444 147.829 63.169 149.206 63.2182C150.583 63.2674 152.624 63.3165 155.329 63.3657C157.788 63.3657 159.657 63.3411 160.936 63.2919C162.215 63.2428 162.952 63.2182 163.149 63.2182C163.887 63.2182 164.256 63.4641 164.256 63.9559C164.256 65.0379 164.059 65.7757 163.665 66.1691C163.567 66.415 163.026 66.538 162.042 66.538C158.55 66.7347 156.362 67.7184 155.477 69.489L144.484 113.016C144.386 113.36 143.869 113.532 142.935 113.532C142.246 113.532 141.828 113.483 141.681 113.384C141.533 113.237 138.361 105.786 132.164 91.0309L122.795 68.9725L117.999 88.1538C114.803 100.745 113.204 107.261 113.204 107.704C113.45 109.327 115.221 110.138 118.516 110.138H119.254C119.549 110.384 119.696 110.581 119.696 110.729C119.696 110.876 119.647 111.343 119.549 112.13C119.352 112.77 119.106 113.237 118.811 113.532H117.852C116.327 113.434 113.671 113.384 109.884 113.384C108.507 113.384 107.253 113.384 106.122 113.384C104.991 113.384 104.081 113.384 103.392 113.384C102.704 113.384 102.286 113.409 102.138 113.458C101.4 113.458 101.031 113.237 101.031 112.794C101.031 112.598 101.105 112.204 101.253 111.614C101.4 111.024 101.523 110.679 101.622 110.581C101.72 110.286 102.286 110.138 103.318 110.138C106.663 109.991 108.827 109.032 109.81 107.261C110.007 106.966 111.753 100.154 115.048 86.8258L120.065 66.7593C119.967 66.7101 118.614 66.6364 116.007 66.538Z" fill="#EF224B"/>
<path d="M183.986 123.862H183.777C182.943 123.862 182.317 123.375 181.899 122.401V71.6881L182.004 20.9751C182.699 20.0708 183.36 19.6186 183.986 19.6186C184.89 19.6186 185.586 20.1403 186.073 21.1838V122.401C185.517 123.375 184.89 123.862 184.195 123.862H183.986Z" fill="#EF224B"/>
<path d="M227.52 73.1493C227.52 73.1493 227.52 72.6971 227.52 71.7928C227.52 70.8884 228.007 70.1928 228.981 69.7058H260.181V54.0537L260.285 38.4015C260.981 37.4971 261.642 37.045 262.268 37.045C263.172 37.045 263.868 37.5667 264.355 38.6102V69.7058H295.45C296.494 70.2624 297.016 70.958 297.016 71.7928C297.016 72.6276 296.494 73.3232 295.45 73.8798H264.355V104.975C263.798 105.949 263.172 106.436 262.476 106.436H262.268H262.059C261.224 106.436 260.598 105.949 260.181 104.975V73.8798H228.981C228.007 73.3928 227.52 72.6971 227.52 71.7928V73.1493Z" fill="black"/>
<path d="M340.56 123.862H340.351C339.517 123.862 338.89 123.375 338.473 122.401V71.6881L338.577 20.9751C339.273 20.0708 339.934 19.6186 340.56 19.6186C341.464 19.6186 342.16 20.1403 342.647 21.1838V122.401C342.09 123.375 341.464 123.862 340.769 123.862H340.56Z" fill="#6C63FF"/>
<path d="M360.073 97.7743C358.891 97.7743 358.299 97.4265 358.299 96.7308C358.299 96.5917 358.404 96.1047 358.612 95.27C358.891 94.1569 359.169 93.5308 359.447 93.3917C359.725 93.2526 360.525 93.1482 361.847 93.0787C363.725 93.0787 365.812 92.9743 368.108 92.7656C369.082 92.5569 369.743 92.1395 370.091 91.5134C370.23 91.1656 372.699 81.3917 377.499 62.1917C382.299 42.9917 384.734 33.2526 384.804 32.9743C384.804 32.4874 384.665 32.2439 384.386 32.2439C383.83 32.0352 381.986 31.8613 378.856 31.7221H375.621C375.204 31.3047 374.995 31.0265 374.995 30.8874C374.995 30.7482 375.065 30.1569 375.204 29.1134C375.482 27.9308 375.83 27.2004 376.247 26.9221H432.491C432.978 27.2004 433.221 27.583 433.221 28.07C433.221 28.4178 432.769 32.3134 431.865 39.7569C430.96 47.2004 430.473 51.0265 430.404 51.2352C430.265 51.7221 429.569 51.9656 428.317 51.9656H427.065C426.578 51.6178 426.334 51.1656 426.334 50.6091C426.334 50.5395 426.438 49.7047 426.647 48.1047C426.856 46.5047 426.96 44.6613 426.96 42.5743C426.96 40.4874 426.717 38.783 426.23 37.4613C425.743 36.1395 425.082 35.0613 424.247 34.2265C423.412 33.3917 422.125 32.8352 420.386 32.5569C418.647 32.2787 416.873 32.0352 415.065 31.8265C413.256 31.6178 410.751 31.583 407.551 31.7221H405.151C399.447 31.7917 396.421 31.8961 396.073 32.0352C395.725 32.1743 395.482 32.4526 395.343 32.87C395.273 32.9395 394.091 37.4961 391.795 46.5395L388.456 60.0004H394.195C394.404 60.0004 395.204 60.0004 396.595 60.0004C397.986 60.0004 398.96 59.9656 399.517 59.8961C400.073 59.8265 400.838 59.7221 401.812 59.583C402.786 59.4439 403.621 59.2004 404.317 58.8526C405.012 58.5047 405.604 58.0874 406.091 57.6004C406.995 56.7656 407.76 55.6178 408.386 54.1569C409.012 52.6961 409.465 51.3743 409.743 50.1917C410.021 49.0091 410.195 48.383 410.265 48.3134C410.473 47.9656 411.134 47.7917 412.247 47.7917H413.499C413.986 48.1395 414.23 48.4874 414.23 48.8352C414.23 49.0439 413.151 53.6004 410.995 62.5047C408.838 71.4091 407.656 76.0004 407.447 76.2787C407.308 76.7656 406.612 77.0091 405.36 77.0091H404.108C403.621 76.5917 403.378 76.1743 403.378 75.7569C403.378 75.5482 403.551 74.783 403.899 73.4613C404.247 72.1395 404.421 70.7482 404.421 69.2874C404.421 67.27 403.725 66.0178 402.334 65.5308C400.943 65.0439 397.847 64.8004 393.047 64.8004H387.308L383.969 78.0526C381.743 86.6787 380.63 91.2004 380.63 91.6178C380.63 92.5917 383.725 93.0787 389.917 93.0787H392.525C392.943 93.4961 393.151 93.7395 393.151 93.8091C393.151 93.8787 393.082 94.5743 392.943 95.8961C392.665 96.8004 392.317 97.4613 391.899 97.8787H390.125C387.273 97.7395 382.021 97.67 374.369 97.67C369.847 97.67 366.404 97.67 364.038 97.67C361.673 97.67 360.351 97.7047 360.073 97.7743Z" fill="#6C63FF"/>
<path d="M424.383 2.08698C424.383 1.53045 424.557 1.0435 424.904 0.626106C425.252 0.208715 425.774 1.93119e-05 426.47 1.93119e-05C426.957 1.93119e-05 427.374 0.173932 427.722 0.521758C428.07 0.800019 428.418 1.46089 428.765 2.50437C429.461 5.07828 430.887 7.06089 433.044 8.45219C433.809 8.93915 434.191 9.56524 434.191 10.3305C434.191 10.9565 434.087 11.3739 433.878 11.5826C433.67 11.7913 433.183 12.1044 432.418 12.5218C429.426 14.0522 426.818 16.2435 424.591 19.0957C424.452 19.2348 424.278 19.4435 424.07 19.7218C423.861 20 423.687 20.2087 423.548 20.3478C423.409 20.487 423.235 20.5565 423.026 20.5565C422.818 20.5565 422.574 20.5913 422.296 20.6609C421.809 20.6609 421.357 20.487 420.939 20.1391C420.522 19.7913 420.278 19.2696 420.209 18.5739C420.209 17.2522 421.844 15.2 425.113 12.4174H407.27L389.426 12.3131C388.522 11.687 388.07 11.0261 388.07 10.3305C388.07 9.8435 388.522 9.14785 389.426 8.2435H426.887C425.218 5.60002 424.383 3.54785 424.383 2.08698Z" fill="#6C63FF"/>
<path d="M451.722 123.862H451.513C450.678 123.862 450.052 123.375 449.635 122.401V71.6881L449.739 20.9751C450.435 20.0708 451.096 19.6186 451.722 19.6186C452.626 19.6186 453.322 20.1403 453.809 21.1838V122.401C453.252 123.375 452.626 123.862 451.931 123.862H451.722Z" fill="#6C63FF"/>
<path d="M479.896 67.7231C479.896 65.497 480.452 63.2361 481.565 60.9405C482.678 58.6448 484.626 56.5231 487.409 54.5753C490.191 52.6274 493.565 51.6883 497.531 51.7579C501.844 51.7579 504.974 52.697 506.922 54.5753C508.87 56.4535 509.878 58.5405 509.948 60.8361C509.948 63.0622 509.357 64.697 508.174 65.7405C506.991 66.784 505.67 67.3405 504.209 67.4101C503.304 67.4101 502.47 67.1318 501.704 66.5753C500.939 66.0187 500.522 65.1144 500.452 63.8622C500.452 62.7492 500.765 61.7753 501.391 60.9405C502.017 60.1057 502.609 59.4796 503.165 59.0622C503.722 58.6448 504.174 58.4361 504.522 58.4361C504.591 58.4361 504.626 58.4014 504.626 58.3318C504.626 58.1231 504.383 57.8101 503.896 57.3927C503.409 56.9753 502.539 56.5927 501.287 56.2448C500.035 55.897 498.678 55.6883 497.217 55.6187C493.878 55.6187 491.444 56.5231 489.913 58.3318C488.383 60.1405 487.583 61.984 487.513 63.8622C487.513 65.6014 488.174 66.8187 489.496 67.5144C490.817 68.2101 492.731 68.8014 495.235 69.2883C497.739 69.7753 499.548 70.297 500.661 70.8535C505.252 72.8709 507.548 76.2101 507.548 80.8709C507.548 82.8187 507.165 84.7666 506.4 86.7144C505.635 88.6622 504.487 90.6101 502.957 92.5579C501.426 94.5057 499.235 96.0361 496.383 97.1492C493.531 98.2622 490.261 98.8535 486.574 98.9231C481.217 98.9231 477.426 97.9144 475.2 95.897C472.974 93.8796 471.826 91.5144 471.757 88.8014C471.757 86.0883 472.487 84.1405 473.948 82.9579C475.409 81.7753 476.939 81.184 478.539 81.184C479.583 81.184 480.557 81.497 481.461 82.1231C482.365 82.7492 482.852 83.8274 482.922 85.3579C482.922 87.1666 482.296 88.697 481.044 89.9492C479.791 91.2014 478.713 91.8274 477.809 91.8274C477.67 91.897 477.565 91.9318 477.496 91.9318C477.426 91.9318 477.391 92.0014 477.391 92.1405C477.461 92.3492 477.739 92.6274 478.226 92.9753C478.713 93.3231 479.791 93.7753 481.461 94.3318C483.131 94.8883 485.044 95.1318 487.2 95.0622C489.704 95.0622 491.861 94.6796 493.67 93.9144C495.478 93.1492 496.8 92.1753 497.635 90.9927C498.47 89.8101 499.061 88.7318 499.409 87.7579C499.757 86.784 499.931 85.9144 499.931 85.1492C499.931 83.2014 499.2 81.7405 497.739 80.7666C496.278 79.7927 494.609 79.2014 492.731 78.9927C490.852 78.784 488.8 78.2622 486.574 77.4274C484.348 76.5927 482.713 75.3753 481.67 73.7753C480.487 72.0361 479.896 70.0187 479.896 67.7231Z" fill="#6C63FF"/>
<path d="M534.365 35.2706C534.365 33.601 535.026 32.1401 536.348 30.888C537.669 29.6358 539.2 28.9749 540.939 28.9054C542.191 28.9054 543.235 29.3228 544.069 30.1575C544.904 30.9923 545.356 32.0358 545.426 33.288C545.426 34.888 544.73 36.3488 543.339 37.6706C541.948 38.9923 540.417 39.688 538.748 39.7575C537.704 39.7575 536.73 39.4097 535.826 38.7141C534.922 38.0184 534.435 36.8706 534.365 35.2706ZM517.356 67.9314C517.356 67.3749 517.669 66.2967 518.296 64.6967C518.922 63.0967 519.756 61.3228 520.8 59.3749C521.843 57.4271 523.374 55.6532 525.391 54.0532C527.409 52.4532 529.496 51.688 531.652 51.7575C534.365 51.7575 536.626 52.5575 538.435 54.1575C540.243 55.7575 541.183 57.9141 541.252 60.6271C541.252 61.8097 540.765 63.7575 539.791 66.4706C538.817 69.1836 537.426 72.8358 535.617 77.4271C533.809 82.0184 532.348 85.9488 531.235 89.2184C530.887 90.7488 530.713 91.8619 530.713 92.5575C530.713 94.2967 531.304 95.1662 532.487 95.1662C533.113 95.1662 533.774 95.0619 534.469 94.8532C535.165 94.6445 535.965 94.1575 536.869 93.3923C537.774 92.6271 538.713 91.4097 539.687 89.7401C540.661 88.0706 541.53 86.0184 542.296 83.5836C542.504 82.7488 542.678 82.2619 542.817 82.1228C542.956 81.9836 543.548 81.9141 544.591 81.9141C545.983 81.9141 546.678 82.2619 546.678 82.9575C546.678 83.5141 546.365 84.5923 545.739 86.1923C545.113 87.7923 544.243 89.5662 543.13 91.5141C542.017 93.4619 540.452 95.201 538.435 96.7314C536.417 98.2619 534.261 99.0271 531.965 99.0271C529.739 99.0271 527.687 98.2967 525.809 96.8358C523.93 95.3749 522.956 93.1488 522.887 90.1575C522.887 88.9749 523.061 87.8619 523.409 86.8184C523.756 85.7749 525.252 81.8097 527.896 74.9228C530.539 67.8967 532.069 63.688 532.487 62.2967C532.904 60.9054 533.148 59.5488 533.217 58.2271C533.217 56.5575 532.626 55.7228 531.443 55.7228H531.235C529.148 55.7228 527.235 56.8706 525.496 59.1662C523.756 61.4619 522.435 64.3836 521.53 67.9314C521.461 68.001 521.391 68.1054 521.322 68.2445C521.252 68.3836 521.217 68.488 521.217 68.5575C521.217 68.6271 521.148 68.6967 521.009 68.7662C520.869 68.8358 520.765 68.8706 520.696 68.8706C520.626 68.8706 520.487 68.8706 520.278 68.8706C520.069 68.8706 519.791 68.8706 519.443 68.8706H517.983C517.565 68.4532 517.356 68.1401 517.356 67.9314Z" fill="#6C63FF"/>
<path d="M553.356 67.9314C553.426 67.5141 553.53 66.9575 553.669 66.2619C553.809 65.5662 554.226 64.2445 554.922 62.2967C555.617 60.3488 556.313 58.7141 557.009 57.3923C557.704 56.0706 558.852 54.7836 560.452 53.5315C562.052 52.2793 563.652 51.688 565.252 51.7575C567.756 51.7575 569.843 52.3836 571.513 53.6358C573.183 54.888 574.226 56.0706 574.643 57.1836C575.061 58.2967 575.269 59.0271 575.269 59.3749C575.269 59.5141 575.304 59.5836 575.374 59.5836L576.522 58.4358C580.765 53.9836 585.6 51.7575 591.026 51.7575C594.783 51.7575 597.809 52.6967 600.104 54.5749C602.4 56.4532 603.583 59.201 603.652 62.8184C603.722 66.4358 602.4 71.8967 599.687 79.201C596.974 86.5054 595.652 90.9228 595.722 92.4532C595.722 94.2619 596.313 95.1662 597.496 95.1662C597.913 95.1662 598.226 95.1314 598.435 95.0619C600.452 94.7141 602.261 93.3923 603.861 91.0967C605.461 88.801 606.678 86.0184 607.513 82.7488C607.652 82.1923 608.348 81.9141 609.6 81.9141C610.991 81.9141 611.687 82.1923 611.687 82.7488C611.687 82.8184 611.548 83.3401 611.269 84.3141C610.713 86.3314 609.948 88.3141 608.974 90.2619C608 92.2097 606.4 94.1575 604.174 96.1054C601.948 98.0532 599.548 98.9923 596.974 98.9228C593.704 98.9228 591.339 97.9836 589.878 96.1054C588.417 94.2271 587.687 92.2793 587.687 90.2619C587.687 88.9401 588.939 84.7662 591.443 77.7401C593.948 70.7141 595.235 65.4271 595.304 61.8793C595.304 57.7749 593.774 55.7228 590.713 55.7228H590.191C584.209 55.7228 579.165 59.2358 575.061 66.2619L574.33 67.5141L570.887 81.4967C568.591 90.6097 567.269 95.5141 566.922 96.2097C566.017 98.088 564.522 99.0271 562.435 99.0271C561.53 99.0271 560.8 98.8184 560.243 98.401C559.687 97.9836 559.304 97.5662 559.096 97.1488C558.887 96.7314 558.817 96.3836 558.887 96.1054C558.887 95.201 560.209 89.5314 562.852 79.0967C565.496 68.6619 566.887 62.9923 567.026 62.088C567.096 61.7401 567.13 60.9401 567.13 59.688C567.13 56.9749 566.296 55.6184 564.626 55.6184C561.983 55.6184 559.791 59.0967 558.052 66.0532C557.635 67.4445 557.426 68.1749 557.426 68.2445C557.287 68.6619 556.626 68.8706 555.443 68.8706H553.983C553.565 68.4532 553.356 68.1401 553.356 67.9314Z" fill="#6C63FF"/>
<path d="M623.583 71.7922C623.583 66.9922 623.93 62.4356 624.626 58.1226C625.322 53.8095 626.122 50.0878 627.026 46.9574C627.93 43.8269 629.217 40.7661 630.887 37.7748C632.556 34.7835 633.878 32.453 634.852 30.7835C635.826 29.1139 637.287 27.3052 639.235 25.3574C641.183 23.4095 642.33 22.2269 642.678 21.8095C643.026 21.3922 643.896 20.6617 645.287 19.6182H646.643H647.061C648.035 19.6182 648.522 19.9313 648.522 20.5574C648.522 20.7661 647.93 21.4965 646.748 22.7487C645.565 24.0008 644.139 25.8443 642.469 28.2791C640.8 30.7139 639.096 33.7052 637.356 37.253C635.617 40.8008 634.156 45.6008 632.974 51.653C631.791 57.7052 631.2 64.4182 631.2 71.7922C631.2 79.1661 631.791 85.8443 632.974 91.8269C634.156 97.8095 635.583 102.644 637.252 106.331C638.922 110.018 640.626 113.01 642.365 115.305C644.104 117.601 645.565 119.444 646.748 120.836C647.93 122.227 648.522 122.957 648.522 123.027C648.522 123.653 648 123.966 646.956 123.966H646.643H645.287L642.365 121.462C635.826 115.549 631.061 108.175 628.069 99.34C625.078 90.5052 623.583 81.3226 623.583 71.7922Z" fill="#6C63FF"/>
<path d="M658.017 77.0101C658.017 69.9144 659.374 62.4361 662.087 54.5753C664.8 46.7144 668.487 39.9318 673.148 34.2274C677.809 28.5231 682.643 25.2535 687.652 24.4187C687.722 24.4187 688 24.4187 688.487 24.4187C688.974 24.4187 689.391 24.384 689.739 24.3144C693.496 24.5927 696.417 26.297 698.504 29.4274C701.217 33.6014 702.574 39.2014 702.574 46.2274C702.574 54.2274 701.009 62.3666 697.878 70.6448C694.748 78.9231 690.748 85.7057 685.878 90.9927C681.009 96.2796 676.348 98.9231 671.896 98.9231H671.165C668.661 98.9231 666.504 98.2274 664.696 96.8361C662.887 95.4448 661.53 93.6014 660.626 91.3057C659.722 89.0101 659.061 86.6796 658.643 84.3144C658.226 81.9492 658.017 79.5144 658.017 77.0101ZM694.33 38.8187C694.33 31.7231 692.487 28.1753 688.8 28.1753C686.296 28.1753 683.861 29.7405 681.496 32.8709C679.13 36.0014 677.183 39.5492 675.652 43.5144C674.122 47.4796 672.939 50.9579 672.104 53.9492C671.27 56.9405 670.817 58.6796 670.748 59.1666C674.156 59.2361 677.53 59.2709 680.87 59.2709L690.991 59.1666C691.061 59.097 691.339 57.9492 691.826 55.7231C692.313 53.497 692.87 50.7144 693.496 47.3753C694.122 44.0361 694.4 41.184 694.33 38.8187ZM666.156 84.1057C666.156 91.4796 668 95.1666 671.687 95.1666C672.73 95.1666 673.843 94.8187 675.026 94.1231C676.209 93.4274 677.635 92.1057 679.304 90.1579C680.974 88.2101 682.643 85.184 684.313 81.0796C685.983 76.9753 687.652 71.897 689.322 65.8448L689.843 64.0709H669.496C669.496 64.2796 669.183 65.6014 668.556 68.0361C667.93 70.4709 667.374 73.184 666.887 76.1753C666.4 79.1666 666.156 81.8101 666.156 84.1057Z" fill="#6C63FF"/>
<path d="M709.565 19.7226L709.983 19.6182C710.331 19.6182 710.678 19.6182 711.026 19.6182H712.278L715.2 22.1226C721.739 28.0356 726.505 35.4095 729.496 44.2443C732.487 53.0791 733.983 62.2617 733.983 71.7922C733.983 76.5226 733.635 81.0791 732.939 85.4617C732.244 89.8443 731.444 93.5661 730.539 96.6269C729.635 99.6878 728.348 102.749 726.678 105.81C725.009 108.87 723.687 111.201 722.713 112.801C721.739 114.401 720.313 116.175 718.435 118.123C716.557 120.07 715.444 121.218 715.096 121.566C714.748 121.914 713.948 122.575 712.696 123.549C712.487 123.757 712.348 123.896 712.278 123.966H711.026C710.47 123.966 710.087 123.966 709.878 123.966C709.67 123.966 709.496 123.862 709.357 123.653C709.218 123.444 709.113 123.131 709.044 122.714C709.113 122.644 709.496 122.192 710.192 121.357C720.974 110.157 726.365 93.6356 726.365 71.7922C726.365 49.9487 720.974 33.4269 710.192 22.2269C709.496 21.3922 709.113 20.94 709.044 20.8704C709.044 20.3139 709.218 19.9313 709.565 19.7226Z" fill="#6C63FF"/>
<path d="M775.847 73.1482C775.847 73.1482 775.847 72.6961 775.847 71.7917C775.847 70.8874 776.334 70.1917 777.308 69.7047H837.934C838.978 70.2613 839.499 70.9569 839.499 71.7917C839.499 72.6265 838.978 73.3221 837.934 73.8787H777.308C776.334 73.3917 775.847 72.6961 775.847 71.7917V73.1482Z" fill="black"/>
<path d="M873.642 67.9314C873.712 67.5141 873.816 66.9575 873.955 66.2619C874.094 65.5662 874.512 64.2445 875.207 62.2967C875.903 60.3488 876.598 58.7141 877.294 57.3923C877.99 56.0706 879.103 54.7836 880.633 53.5315C882.164 52.2793 883.694 51.688 885.225 51.7575C886.755 51.8271 888.251 52.0706 889.712 52.488C891.172 52.9054 892.216 53.5315 892.842 54.3662C893.468 55.201 894.025 55.9662 894.512 56.6619C894.998 57.3575 895.277 58.0184 895.346 58.6445L895.555 59.3749C895.555 59.5141 895.59 59.5836 895.659 59.5836L896.807 58.4358C900.981 53.9836 905.885 51.7575 911.52 51.7575C912.703 51.7575 913.781 51.8271 914.755 51.9662C915.729 52.1054 916.633 52.3488 917.468 52.6967C918.303 53.0445 918.964 53.3923 919.451 53.7401C919.938 54.088 920.459 54.5054 921.016 54.9923C921.572 55.4793 921.92 55.9315 922.059 56.3488C922.198 56.7662 922.477 57.2184 922.894 57.7054C923.312 58.1923 923.451 58.6097 923.312 58.9575C923.172 59.3054 923.277 59.6184 923.625 59.8967C923.972 60.1749 924.042 60.4184 923.833 60.6271L924.668 59.5836C929.051 54.3662 934.233 51.7575 940.216 51.7575C943.972 51.7575 946.998 52.6967 949.294 54.5749C951.59 56.4532 952.772 59.201 952.842 62.8184C952.842 66.3662 951.52 71.8619 948.877 79.3054C946.233 86.7488 944.912 91.201 944.912 92.6619C944.981 93.6358 945.155 94.2967 945.433 94.6445C945.712 94.9923 946.233 95.1662 946.998 95.1662C948.946 95.1662 950.755 94.1228 952.425 92.0358C954.094 89.9488 955.451 87.0967 956.494 83.4793C956.703 82.7141 956.912 82.2619 957.12 82.1228C957.329 81.9836 957.885 81.9141 958.79 81.9141C960.181 81.9141 960.877 82.1923 960.877 82.7488C960.877 82.8184 960.738 83.3401 960.459 84.3141C959.903 86.3314 959.138 88.3141 958.164 90.2619C957.19 92.2097 955.59 94.1575 953.364 96.1054C951.138 98.0532 948.738 98.9923 946.164 98.9228C942.894 98.9228 940.529 97.9836 939.068 96.1054C937.607 94.2271 936.877 92.2793 936.877 90.2619C936.877 88.9401 938.129 84.7662 940.633 77.7401C943.138 70.7141 944.425 65.4271 944.494 61.8793C944.494 57.7749 942.964 55.7228 939.903 55.7228H939.381C933.398 55.7228 928.355 59.2358 924.251 66.2619L923.52 67.5141L920.077 81.4967C917.781 90.6097 916.459 95.5141 916.112 96.2097C915.207 98.088 913.712 99.0271 911.625 99.0271C910.72 99.0271 909.99 98.7836 909.433 98.2967C908.877 97.8097 908.494 97.3923 908.285 97.0445C908.077 96.6967 907.972 96.3488 907.972 96.001C907.972 95.2358 909.155 90.2619 911.52 81.0793L915.277 65.8445C915.485 64.801 915.59 63.4793 915.59 61.8793C915.59 57.7749 914.059 55.7228 910.998 55.7228H910.477C904.494 55.7228 899.451 59.2358 895.346 66.2619L894.616 67.5141L891.172 81.4967C888.877 90.6097 887.555 95.5141 887.207 96.2097C886.303 98.088 884.807 99.0271 882.72 99.0271C881.816 99.0271 881.085 98.8184 880.529 98.401C879.972 97.9836 879.59 97.5662 879.381 97.1488C879.172 96.7314 879.103 96.3836 879.172 96.1054C879.172 95.201 880.494 89.4967 883.138 78.9923C885.851 68.2793 887.207 62.6793 887.207 62.1923C887.416 61.1488 887.52 60.2097 887.52 59.3749C887.52 56.8706 886.651 55.6184 884.912 55.6184C883.381 55.6184 882.094 56.5923 881.051 58.5401C880.007 60.488 879.207 62.6097 878.651 64.9054C878.094 67.201 877.677 68.4532 877.398 68.6619C877.259 68.801 876.703 68.8706 875.729 68.8706H874.268C873.851 68.4532 873.642 68.1401 873.642 67.9314Z" fill="#D46FA0"/>
<path d="M995.52 93.3915C994.477 94.2959 992.946 95.2698 990.929 96.3133C988.911 97.3567 986.79 97.8785 984.564 97.8785C980.181 97.8785 976.668 96.3133 974.024 93.1828C971.381 90.0524 970.024 86.0524 969.955 81.1828C969.955 73.8785 972.633 67.1654 977.99 61.0437C983.346 54.9219 989.294 51.8263 995.833 51.7567C999.103 51.7567 1002.13 53.4263 1004.91 56.7654L1005.22 56.348C1005.36 56.1393 1005.54 55.9306 1005.75 55.7219C1005.95 55.5132 1006.27 55.235 1006.69 54.8872C1007.1 54.5393 1007.55 54.2959 1008.04 54.1567C1008.53 54.0176 1009.09 53.9132 1009.71 53.8437C1010.69 53.8437 1011.49 54.1567 1012.11 54.7828C1012.74 55.4089 1013.09 56.0698 1013.15 56.7654C1013.15 57.8089 1011.17 66.2263 1007.21 82.0176C1003.24 97.8089 1001.15 105.878 1000.95 106.226C999.694 109.983 997.016 113.078 992.911 115.513C988.807 117.948 984.111 119.2 978.824 119.27C969.016 119.27 964.111 116.905 964.111 112.174C964.111 110.365 964.738 108.765 965.99 107.374C967.242 105.983 968.842 105.287 970.79 105.287C971.833 105.287 972.807 105.6 973.711 106.226C974.616 106.852 975.103 107.931 975.172 109.461C975.172 110.157 975.103 110.818 974.964 111.444C974.824 112.07 974.581 112.557 974.233 112.905C973.885 113.252 973.607 113.6 973.398 113.948C973.19 114.296 972.946 114.574 972.668 114.783L972.459 114.992H972.564C973.259 115.2 975.346 115.305 978.824 115.305C981.468 115.305 983.555 114.887 985.085 114.052C986.685 113.287 988.181 112.139 989.572 110.609C990.964 109.078 991.938 107.444 992.494 105.705C992.911 104.383 993.468 102.226 994.164 99.235C995.068 95.8959 995.52 93.948 995.52 93.3915ZM1003.14 63.6524L1002.72 62.5046C1002.51 61.7393 1002.34 61.2176 1002.2 60.9393C1002.06 60.6611 1001.85 60.1741 1001.57 59.4785C1001.29 58.7828 1000.95 58.2959 1000.53 58.0176C1000.11 57.7393 999.659 57.3567 999.172 56.8698C998.685 56.3828 998.059 56.0698 997.294 55.9306C996.529 55.7915 995.764 55.6872 994.998 55.6176C991.938 55.6176 988.981 57.4611 986.129 61.148C984.042 63.8611 982.303 68.0002 980.911 73.5654C979.52 79.1306 978.824 83.1654 978.824 85.6698C978.824 91.1654 980.981 93.9133 985.294 93.9133C989.19 93.9133 993.016 91.4785 996.772 86.6089L997.607 85.5654L1003.14 63.6524Z" fill="#D46FA0"/>
<path d="M1047.67 61.6703C1047.67 60.7659 1048.16 60.0703 1049.13 59.5833H1115.6C1116.65 60.1399 1117.17 60.8355 1117.17 61.6703C1117.17 62.4355 1116.68 63.0964 1115.71 63.6529L1082.53 63.7573H1049.34C1048.23 63.4094 1047.67 62.7138 1047.67 61.6703ZM1047.67 81.9138C1047.67 80.8703 1048.23 80.1746 1049.34 79.8268H1115.71C1116.68 80.5225 1117.17 81.2181 1117.17 81.9138C1117.17 82.8181 1116.65 83.5138 1115.6 84.0007H1049.13C1048.16 83.5138 1047.67 82.8181 1047.67 81.9138Z" fill="black"/>
<path d="M1162.02 36.8349C1165.91 31.2002 1171.23 28.3828 1177.98 28.3828C1181.32 28.3828 1184.66 29.2871 1188 31.0958C1191.34 32.9045 1194.05 36.1045 1196.14 40.6958C1198.71 46.4697 1200 54.4002 1200 64.4871C1200 75.2697 1198.5 83.5132 1195.51 89.2176C1194.12 92.1393 1192.21 94.4697 1189.77 96.2089C1187.34 97.948 1185.22 99.0262 1183.41 99.4436C1181.6 99.861 1179.83 100.105 1178.09 100.174C1176.28 100.174 1174.47 99.9654 1172.66 99.548C1170.85 99.1306 1168.73 98.0176 1166.3 96.2089C1163.86 94.4002 1161.95 92.0697 1160.56 89.2176C1157.57 83.5132 1156.07 75.2697 1156.07 64.4871C1156.07 52.3828 1158.05 43.1654 1162.02 36.8349ZM1185.5 35.5828C1183.41 33.3567 1180.94 32.2436 1178.09 32.2436C1175.17 32.2436 1172.66 33.3567 1170.57 35.5828C1168.83 37.3915 1167.69 39.8958 1167.13 43.0958C1166.57 46.2958 1166.3 52.9741 1166.3 63.1306C1166.3 74.1219 1166.57 81.3567 1167.13 84.8349C1167.69 88.3132 1168.94 91.061 1170.89 93.0784C1172.83 95.1654 1175.23 96.2089 1178.09 96.2089C1180.87 96.2089 1183.23 95.1654 1185.18 93.0784C1187.2 90.9915 1188.45 88.0697 1188.94 84.3132C1189.43 80.5567 1189.7 73.4958 1189.77 63.1306C1189.77 53.0436 1189.5 46.4002 1188.94 43.2002C1188.38 40.0002 1187.23 37.461 1185.5 35.5828Z" fill="black"/>
</svg>
