<svg width="1100" height="135" viewBox="0 0 1100 135" fill="none" xmlns="http://www.w3.org/2000/svg">
<path d="M2.26279 134.298H2.03651C1.1314 134.298 0.452558 133.77 0 132.714V77.728L0.11314 22.7422C0.867404 21.7616 1.58395 21.2714 2.26279 21.2714C3.24334 21.2714 3.9976 21.8371 4.52558 22.9685V132.714C3.92217 133.77 3.24334 134.298 2.48907 134.298H2.26279Z" fill="#EF224B"/>
<path d="M23.4198 106.012C22.1376 106.012 21.4965 105.634 21.4965 104.88C21.4965 104.729 21.6096 104.201 21.8359 103.296C22.1376 102.089 22.4393 101.411 22.741 101.26C23.0427 101.109 23.9101 100.996 25.3432 100.92C27.3797 100.92 29.6425 100.807 32.1316 100.581C33.1876 100.355 33.9041 99.9021 34.2812 99.2232C34.4321 98.8461 37.1097 88.2487 42.3141 67.431C47.5186 46.6133 50.1585 36.0536 50.2339 35.7519C50.2339 35.2239 50.0831 34.9599 49.7814 34.9599C49.178 34.7337 47.1792 34.5451 43.785 34.3942H40.2776C39.8251 33.9417 39.5988 33.64 39.5988 33.4891C39.5988 33.3383 39.6742 32.6972 39.8251 31.5658C40.1268 30.2835 40.5039 29.4915 40.9565 29.1898H101.939C102.467 29.4915 102.731 29.9064 102.731 30.4344C102.731 30.8115 102.24 35.0354 101.26 43.106C100.279 51.1766 99.7514 55.3251 99.6759 55.5514C99.5251 56.0793 98.7708 56.3433 97.4131 56.3433H96.0555C95.5275 55.9662 95.2635 55.4759 95.2635 54.8725C95.2635 54.7971 95.3766 53.892 95.6029 52.1572C95.8292 50.4224 95.9423 48.4236 95.9423 46.1608C95.9423 43.898 95.6783 42.05 95.1503 40.6169C94.6224 39.1838 93.9058 38.0147 93.0007 37.1096C92.0956 36.2045 90.7002 35.6011 88.8145 35.2994C86.9289 34.9977 85.0055 34.7337 83.0444 34.5074C81.0833 34.2811 78.368 34.2434 74.8984 34.3942H72.2961C66.1112 34.4697 62.8301 34.5828 62.453 34.7337C62.0759 34.8845 61.8119 35.1862 61.661 35.6388C61.5856 35.7142 60.3033 40.6546 57.8143 50.4601L54.1938 65.0551H60.4165C60.6428 65.0551 61.5102 65.0551 63.0187 65.0551C64.5272 65.0551 65.5832 65.0174 66.1866 64.9419C66.79 64.8665 67.6197 64.7534 68.6757 64.6025C69.7316 64.4517 70.6368 64.1877 71.391 63.8105C72.1453 63.4334 72.7864 62.9809 73.3144 62.4529C74.2949 61.5478 75.1246 60.3032 75.8035 58.7193C76.4823 57.1353 76.9726 55.7022 77.2743 54.42C77.576 53.1377 77.7646 52.4589 77.84 52.3834C78.0663 52.0063 78.7828 51.8177 79.9896 51.8177H81.3473C81.8753 52.1949 82.1393 52.572 82.1393 52.9491C82.1393 53.1754 80.9702 58.1159 78.632 67.7704C76.2937 77.425 75.0115 82.4032 74.7852 82.7049C74.6344 83.2328 73.8801 83.4968 72.5224 83.4968H71.1647C70.6368 83.0443 70.3728 82.5917 70.3728 82.1392C70.3728 81.9129 70.5613 81.0832 70.9385 79.6501C71.3156 78.217 71.5042 76.7085 71.5042 75.1245C71.5042 72.9371 70.7499 71.5795 69.2414 71.0515C67.7328 70.5235 64.3764 70.2595 59.1719 70.2595H52.9493L49.3288 84.6282C46.9152 93.9811 45.7083 98.8838 45.7083 99.3364C45.7083 100.392 49.0648 100.92 55.7778 100.92H58.6063C59.0588 101.373 59.2851 101.637 59.2851 101.712C59.2851 101.788 59.2097 102.542 59.0588 103.975C58.7571 104.956 58.38 105.672 57.9274 106.125H56.004C52.9116 105.974 47.2169 105.898 38.92 105.898C34.0172 105.898 30.2836 105.898 27.7191 105.898C25.1546 105.898 23.7215 105.936 23.4198 106.012Z" fill="#EF224B"/>
<path d="M93.1476 2.26276C93.1476 1.65935 93.3362 1.13137 93.7133 0.678807C94.0905 0.226248 94.6562 -3.08603e-05 95.4104 -3.08603e-05C95.9384 -3.08603e-05 96.391 0.188535 96.7681 0.565667C97.1452 0.867373 97.5224 1.58392 97.8995 2.71532C98.6538 5.5061 100.2 7.65575 102.538 9.16428C103.368 9.69226 103.783 10.3711 103.783 11.2008C103.783 11.8796 103.67 12.3322 103.443 12.5585C103.217 12.7847 102.689 13.1242 101.859 13.5767C98.6161 15.2361 95.7876 17.612 93.3739 20.7045C93.2231 20.8554 93.0345 21.0816 92.8082 21.3834C92.5819 21.6851 92.3934 21.9113 92.2425 22.0622C92.0917 22.213 91.9031 22.2885 91.6768 22.2885C91.4505 22.2885 91.1866 22.3262 90.8848 22.4016C90.3569 22.4016 89.8666 22.213 89.414 21.8359C88.9615 21.4588 88.6975 20.8931 88.6221 20.1388C88.6221 18.7057 90.3946 16.4806 93.9396 13.4636H74.5927L55.2459 13.3504C54.2653 12.6716 53.7751 11.9551 53.7751 11.2008C53.7751 10.6728 54.2653 9.91854 55.2459 8.938H95.863C94.0528 6.07179 93.1476 3.84672 93.1476 2.26276Z" fill="#EF224B"/>
<path d="M125.782 72.143C125.622 72.143 125.408 72.143 125.142 72.143C123.809 72.143 123.009 72.1163 122.742 72.063C122.475 72.0097 122.342 71.7164 122.342 71.1831C122.342 69.7433 122.635 68.8634 123.222 68.5435C123.329 68.4901 125.915 68.4635 130.981 68.4635C135.087 68.4635 137.434 68.4635 138.02 68.4635C138.607 68.4635 138.98 68.6234 139.14 68.9434C150.392 95.3933 156.124 108.965 156.338 109.658L160.657 92.6204C163.484 81.3685 164.897 75.3692 164.897 74.6227C164.897 73.1829 163.19 72.3563 159.777 72.143C158.498 72.143 157.858 71.8497 157.858 71.2631C157.858 71.1565 157.911 70.8365 158.018 70.3032C158.231 69.45 158.391 68.9434 158.498 68.7834C158.604 68.6234 158.871 68.5168 159.297 68.4635C159.457 68.4635 160.284 68.4901 161.777 68.5435C163.27 68.5968 165.483 68.6501 168.416 68.7034C171.083 68.7034 173.109 68.6768 174.495 68.6234C175.882 68.5701 176.682 68.5435 176.895 68.5435C177.695 68.5435 178.095 68.8101 178.095 69.3434C178.095 70.5165 177.882 71.3164 177.455 71.743C177.348 72.0097 176.762 72.143 175.695 72.143C171.909 72.3563 169.536 73.4228 168.576 75.3426L156.658 122.537C156.551 122.91 155.991 123.096 154.978 123.096C154.231 123.096 153.778 123.043 153.618 122.936C153.458 122.776 150.019 114.698 143.299 98.6996L133.141 74.7827L127.941 95.58C124.475 109.232 122.742 116.297 122.742 116.777C123.009 118.537 124.929 119.417 128.501 119.417H129.301C129.621 119.684 129.781 119.897 129.781 120.057C129.781 120.217 129.728 120.723 129.621 121.577C129.408 122.27 129.141 122.776 128.821 123.096H127.781C126.128 122.99 123.249 122.936 119.143 122.936C117.649 122.936 116.29 122.936 115.063 122.936C113.837 122.936 112.85 122.936 112.103 122.936C111.357 122.936 110.904 122.963 110.744 123.016C109.944 123.016 109.544 122.776 109.544 122.297C109.544 122.083 109.624 121.657 109.784 121.017C109.944 120.377 110.077 120.004 110.184 119.897C110.29 119.577 110.904 119.417 112.024 119.417C115.65 119.257 117.996 118.217 119.063 116.297C119.276 115.977 121.169 108.592 124.742 94.1402L130.181 72.383C130.075 72.3296 128.608 72.2496 125.782 72.143Z" fill="#EF224B"/>
<path d="M199.488 134.298H199.261C198.356 134.298 197.677 133.77 197.225 132.714V77.728L197.338 22.7422C198.092 21.7616 198.809 21.2714 199.488 21.2714C200.468 21.2714 201.222 21.8371 201.75 22.9685V132.714C201.147 133.77 200.468 134.298 199.714 134.298H199.488Z" fill="#EF224B"/>
<path d="M252.98 66.8662C252.98 65.8857 253.508 65.1314 254.564 64.6035H326.634C327.765 65.2069 328.331 65.9611 328.331 66.8662C328.331 67.6959 327.803 68.4125 326.747 69.0159L290.769 69.129H254.79C253.584 68.7519 252.98 67.9976 252.98 66.8662ZM252.98 88.8153C252.98 87.6839 253.584 86.9297 254.79 86.5525H326.747C327.803 87.3068 328.331 88.0611 328.331 88.8153C328.331 89.7959 327.765 90.5501 326.634 91.0781H254.564C253.508 90.5501 252.98 89.7959 252.98 88.8153Z" fill="black"/>
<path d="M368.473 73.6543C368.549 73.2017 368.662 72.5983 368.813 71.844C368.963 71.0898 369.416 69.6567 370.17 67.5447C370.924 65.4328 371.679 63.6603 372.433 62.2272C373.187 60.7941 374.394 59.3987 376.053 58.041C377.713 56.6833 379.372 56.0422 381.032 56.1176C382.691 56.1931 384.313 56.4571 385.897 56.9096C387.481 57.3622 388.612 58.041 389.291 58.9461C389.97 59.8512 390.573 60.6809 391.101 61.4352C391.629 62.1895 391.931 62.906 392.006 63.5848L392.232 64.3768C392.232 64.5277 392.27 64.6031 392.346 64.6031L393.59 63.3586C398.116 58.5313 403.433 56.1176 409.543 56.1176C410.825 56.1176 411.994 56.1931 413.05 56.3439C414.106 56.4948 415.087 56.7588 415.992 57.1359C416.897 57.513 417.613 57.8902 418.141 58.2673C418.669 58.6444 419.235 59.097 419.838 59.625C420.442 60.1529 420.819 60.6432 420.97 61.0958C421.121 61.5483 421.422 62.0386 421.875 62.5666C422.328 63.0946 422.478 63.5471 422.328 63.9243C422.177 64.3014 422.29 64.6408 422.667 64.9425C423.044 65.2442 423.12 65.5082 422.893 65.7345L423.798 64.6031C428.55 58.9461 434.169 56.1176 440.656 56.1176C444.729 56.1176 448.01 57.1359 450.499 59.1724C452.988 61.2089 454.271 64.1883 454.346 68.1104C454.346 71.9572 452.913 77.9159 450.047 85.9865C447.181 94.0571 445.747 98.8844 445.747 100.468C445.823 101.524 446.011 102.241 446.313 102.618C446.615 102.995 447.181 103.184 448.01 103.184C450.122 103.184 452.083 102.052 453.893 99.7895C455.704 97.5267 457.175 94.4342 458.306 90.5121C458.532 89.6824 458.758 89.1921 458.985 89.0413C459.211 88.8904 459.814 88.815 460.795 88.815C462.304 88.815 463.058 89.1167 463.058 89.7201C463.058 89.7955 462.907 90.3612 462.605 91.4172C462.002 93.6046 461.172 95.7542 460.116 97.8661C459.06 99.9781 457.325 102.09 454.912 104.202C452.498 106.314 449.896 107.332 447.105 107.257C443.56 107.257 440.996 106.238 439.412 104.202C437.828 102.165 437.036 100.054 437.036 97.8661C437.036 96.433 438.393 91.9075 441.109 84.2894C443.824 76.6713 445.219 70.9389 445.295 67.0922C445.295 62.642 443.635 60.4169 440.317 60.4169H439.751C433.264 60.4169 427.796 64.226 423.346 71.844L422.554 73.2017L418.82 88.3624C416.331 98.2433 414.898 103.561 414.521 104.315C413.54 106.352 411.919 107.37 409.656 107.37C408.675 107.37 407.883 107.106 407.28 106.578C406.677 106.05 406.262 105.597 406.035 105.22C405.809 104.843 405.696 104.466 405.696 104.089C405.696 103.259 406.978 97.8661 409.543 87.9099L413.616 71.3915C413.842 70.2601 413.955 68.827 413.955 67.0922C413.955 62.642 412.296 60.4169 408.977 60.4169H408.411C401.925 60.4169 396.456 64.226 392.006 71.844L391.214 73.2017L387.481 88.3624C384.991 98.2433 383.558 103.561 383.181 104.315C382.201 106.352 380.579 107.37 378.316 107.37C377.336 107.37 376.544 107.144 375.94 106.691C375.337 106.238 374.922 105.786 374.696 105.333C374.469 104.881 374.394 104.504 374.469 104.202C374.469 103.221 375.903 97.0365 378.769 85.6471C381.71 74.0314 383.181 67.9596 383.181 67.4316C383.408 66.3002 383.521 65.2819 383.521 64.3768C383.521 61.6615 382.578 60.3038 380.692 60.3038C379.033 60.3038 377.637 61.3598 376.506 63.4717C375.375 65.5836 374.507 67.8842 373.904 70.3732C373.3 72.8623 372.848 74.22 372.546 74.4462C372.395 74.5971 371.792 74.6725 370.736 74.6725H369.152C368.699 74.22 368.473 73.8806 368.473 73.6543Z" fill="#D46FA0"/>
<path d="M500.62 101.26C499.489 102.241 497.829 103.297 495.642 104.428C493.455 105.56 491.154 106.125 488.74 106.125C483.989 106.125 480.18 104.428 477.313 101.034C474.447 97.6398 472.976 93.3027 472.901 88.0229C472.901 80.1031 475.805 72.8245 481.613 66.1869C487.42 59.5494 493.869 56.1929 500.96 56.1175C504.505 56.1175 507.786 57.9278 510.803 61.5482L511.142 61.0957C511.293 60.8694 511.481 60.6431 511.708 60.4168C511.934 60.1905 512.273 59.8888 512.726 59.5117C513.179 59.1346 513.669 58.8706 514.197 58.7197C514.725 58.5689 515.328 58.4557 516.007 58.3803C517.063 58.3803 517.93 58.7197 518.609 59.3986C519.288 60.0774 519.665 60.794 519.741 61.5482C519.741 62.6796 517.591 71.8062 513.292 88.928C508.992 106.05 506.73 114.799 506.503 115.176C505.146 119.249 502.242 122.606 497.792 125.246C493.341 127.886 488.25 129.243 482.518 129.319C471.883 129.319 466.565 126.754 466.565 121.625C466.565 119.664 467.244 117.929 468.602 116.421C469.959 114.912 471.694 114.158 473.806 114.158C474.937 114.158 475.993 114.498 476.974 115.176C477.954 115.855 478.482 117.024 478.558 118.684C478.558 119.438 478.482 120.155 478.332 120.833C478.181 121.512 477.917 122.04 477.54 122.417C477.162 122.794 476.861 123.172 476.634 123.549C476.408 123.926 476.144 124.228 475.843 124.454L475.616 124.68H475.729C476.484 124.906 478.746 125.02 482.518 125.02C485.384 125.02 487.647 124.567 489.306 123.662C491.041 122.832 492.663 121.588 494.171 119.928C495.68 118.269 496.736 116.496 497.339 114.611C497.792 113.178 498.395 110.839 499.149 107.596C500.13 103.976 500.62 101.864 500.62 101.26ZM508.879 69.0154L508.427 67.7709C508.2 66.9412 508.012 66.3755 507.861 66.0738C507.71 65.7721 507.484 65.2441 507.182 64.4899C506.88 63.7356 506.503 63.2076 506.051 62.9059C505.598 62.6042 505.108 62.1893 504.58 61.6614C504.052 61.1334 503.373 60.794 502.543 60.6431C501.714 60.4923 500.884 60.3791 500.054 60.3037C496.736 60.3037 493.53 62.3025 490.438 66.3001C488.175 69.2417 486.289 73.7296 484.781 79.7637C483.272 85.7978 482.518 90.1725 482.518 92.8879C482.518 98.8466 484.856 101.826 489.532 101.826C493.756 101.826 497.905 99.186 501.978 93.9062L502.883 92.7748L508.879 69.0154Z" fill="#D46FA0"/>
<path d="M554.045 79.3115C554.045 79.3115 554.045 78.8213 554.045 77.8407C554.045 76.8602 554.573 76.1059 555.629 75.5779H621.363C622.494 76.1813 623.06 76.9356 623.06 77.8407C623.06 78.7458 622.494 79.5001 621.363 80.1035H555.629C554.573 79.5755 554.045 78.8213 554.045 77.8407V79.3115Z" fill="black"/>
<path d="M673.43 134.298H673.203C672.298 134.298 671.619 133.77 671.167 132.714V77.728L671.28 22.7422C672.034 21.7616 672.751 21.2714 673.43 21.2714C674.41 21.2714 675.164 21.8371 675.692 22.9685V132.714C675.089 133.77 674.41 134.298 673.656 134.298H673.43Z" fill="#6C63FF"/>
<path d="M694.587 106.012C693.305 106.012 692.664 105.634 692.664 104.88C692.664 104.729 692.777 104.201 693.003 103.296C693.305 102.089 693.606 101.411 693.908 101.26C694.21 101.109 695.077 100.996 696.51 100.92C698.547 100.92 700.81 100.807 703.299 100.581C704.355 100.355 705.071 99.9021 705.448 99.2232C705.599 98.8461 708.277 88.2487 713.481 67.431C718.686 46.6133 721.326 36.0536 721.401 35.7519C721.401 35.2239 721.25 34.9599 720.948 34.9599C720.345 34.7337 718.346 34.5451 714.952 34.3942H711.445C710.992 33.9417 710.766 33.64 710.766 33.4891C710.766 33.3383 710.841 32.6972 710.992 31.5658C711.294 30.2835 711.671 29.4915 712.124 29.1898H773.106C773.634 29.4915 773.898 29.9064 773.898 30.4344C773.898 30.8115 773.408 35.0354 772.427 43.106C771.446 51.1766 770.918 55.3251 770.843 55.5514C770.692 56.0793 769.938 56.3433 768.58 56.3433H767.223C766.695 55.9662 766.431 55.4759 766.431 54.8725C766.431 54.7971 766.544 53.892 766.77 52.1572C766.996 50.4224 767.109 48.4236 767.109 46.1608C767.109 43.898 766.845 42.05 766.317 40.6169C765.789 39.1838 765.073 38.0147 764.168 37.1096C763.263 36.2045 761.867 35.6011 759.982 35.2994C758.096 34.9977 756.173 34.7337 754.212 34.5074C752.25 34.2811 749.535 34.2434 746.065 34.3942H743.463C737.278 34.4697 733.997 34.5828 733.62 34.7337C733.243 34.8845 732.979 35.1862 732.828 35.6388C732.753 35.7142 731.47 40.6546 728.981 50.4601L725.361 65.0551H731.584C731.81 65.0551 732.677 65.0551 734.186 65.0551C735.694 65.0551 736.75 65.0174 737.354 64.9419C737.957 64.8665 738.787 64.7534 739.843 64.6025C740.899 64.4517 741.804 64.1877 742.558 63.8105C743.312 63.4334 743.954 62.9809 744.482 62.4529C745.462 61.5478 746.292 60.3032 746.971 58.7193C747.649 57.1353 748.14 55.7022 748.441 54.42C748.743 53.1377 748.932 52.4589 749.007 52.3834C749.233 52.0063 749.95 51.8177 751.157 51.8177H752.514C753.042 52.1949 753.306 52.572 753.306 52.9491C753.306 53.1754 752.137 58.1159 749.799 67.7704C747.461 77.425 746.179 82.4032 745.952 82.7049C745.801 83.2328 745.047 83.4968 743.69 83.4968H742.332C741.804 83.0443 741.54 82.5917 741.54 82.1392C741.54 81.9129 741.728 81.0832 742.106 79.6501C742.483 78.217 742.671 76.7085 742.671 75.1245C742.671 72.9371 741.917 71.5795 740.408 71.0515C738.9 70.5235 735.543 70.2595 730.339 70.2595H724.116L720.496 84.6282C718.082 93.9811 716.875 98.8838 716.875 99.3364C716.875 100.392 720.232 100.92 726.945 100.92H729.773C730.226 101.373 730.452 101.637 730.452 101.712C730.452 101.788 730.377 102.542 730.226 103.975C729.924 104.956 729.547 105.672 729.095 106.125H727.171C724.079 105.974 718.384 105.898 710.087 105.898C705.184 105.898 701.451 105.898 698.886 105.898C696.322 105.898 694.889 105.936 694.587 106.012Z" fill="#6C63FF"/>
<path d="M764.315 2.26276C764.315 1.65935 764.503 1.13137 764.88 0.678807C765.257 0.226248 765.823 -3.08603e-05 766.577 -3.08603e-05C767.105 -3.08603e-05 767.558 0.188535 767.935 0.565667C768.312 0.867373 768.689 1.58392 769.066 2.71532C769.821 5.5061 771.367 7.65575 773.705 9.16428C774.535 9.69226 774.95 10.3711 774.95 11.2008C774.95 11.8796 774.837 12.3322 774.61 12.5585C774.384 12.7847 773.856 13.1242 773.026 13.5767C769.783 15.2361 766.955 17.612 764.541 20.7045C764.39 20.8554 764.201 21.0816 763.975 21.3834C763.749 21.6851 763.56 21.9113 763.409 22.0622C763.259 22.213 763.07 22.2885 762.844 22.2885C762.618 22.2885 762.354 22.3262 762.052 22.4016C761.524 22.4016 761.034 22.213 760.581 21.8359C760.128 21.4588 759.864 20.8931 759.789 20.1388C759.789 18.7057 761.562 16.4806 765.107 13.4636H745.76L726.413 13.3504C725.432 12.6716 724.942 11.9551 724.942 11.2008C724.942 10.6728 725.432 9.91854 726.413 8.938H767.03C765.22 6.07179 764.315 3.84672 764.315 2.26276Z" fill="#6C63FF"/>
<path d="M793.957 134.298H793.731C792.826 134.298 792.147 133.77 791.694 132.714V77.728L791.807 22.7422C792.562 21.7616 793.278 21.2714 793.957 21.2714C794.938 21.2714 795.692 21.8371 796.22 22.9685V132.714C795.617 133.77 794.938 134.298 794.183 134.298H793.957Z" fill="#6C63FF"/>
<path d="M824.505 73.4283C824.505 71.0147 825.108 68.5633 826.315 66.0743C827.522 63.5852 829.634 61.2847 832.651 59.1727C835.668 57.0608 839.326 56.0426 843.626 56.118C848.302 56.118 851.696 57.1362 853.808 59.1727C855.92 61.2093 857.014 63.4721 857.089 65.9611C857.089 68.3748 856.448 70.1473 855.166 71.2787C853.884 72.4101 852.45 73.0135 850.866 73.0889C849.886 73.0889 848.981 72.7872 848.151 72.1838C847.321 71.5804 846.869 70.5998 846.793 69.2422C846.793 68.0353 847.133 66.9794 847.812 66.0743C848.491 65.1691 849.132 64.4903 849.735 64.0378C850.338 63.5852 850.829 63.3589 851.206 63.3589C851.281 63.3589 851.319 63.3212 851.319 63.2458C851.319 63.0195 851.055 62.6801 850.527 62.2275C849.999 61.775 849.056 61.3601 847.699 60.983C846.341 60.6058 844.87 60.3796 843.286 60.3041C839.666 60.3041 837.026 61.2847 835.366 63.2458C833.707 65.2069 832.84 67.2057 832.764 69.2422C832.764 71.1278 833.481 72.4478 834.914 73.2021C836.347 73.9563 838.421 74.5974 841.136 75.1254C843.852 75.6534 845.813 76.2191 847.02 76.8225C851.998 79.0099 854.487 82.6304 854.487 87.6839C854.487 89.7959 854.072 91.9078 853.242 94.0197C852.413 96.1317 851.168 98.2436 849.509 100.356C847.849 102.468 845.473 104.127 842.381 105.334C839.289 106.541 835.743 107.182 831.746 107.257C825.938 107.257 821.827 106.163 819.414 103.976C817 101.789 815.755 99.2242 815.68 96.2825C815.68 93.3409 816.472 91.229 818.056 89.9467C819.64 88.6645 821.299 88.0233 823.034 88.0233C824.166 88.0233 825.221 88.3628 826.202 89.0416C827.183 89.7204 827.711 90.8896 827.786 92.5489C827.786 94.51 827.107 96.1694 825.749 97.5271C824.392 98.8847 823.223 99.5636 822.242 99.5636C822.091 99.639 821.978 99.6767 821.903 99.6767C821.827 99.6767 821.79 99.7522 821.79 99.903C821.865 100.129 822.167 100.431 822.695 100.808C823.223 101.185 824.392 101.676 826.202 102.279C828.012 102.882 830.086 103.146 832.425 103.071C835.14 103.071 837.478 102.656 839.439 101.826C841.4 100.997 842.834 99.9407 843.739 98.6585C844.644 97.3762 845.285 96.2071 845.662 95.1511C846.039 94.0952 846.228 93.1523 846.228 92.3227C846.228 90.2107 845.436 88.6268 843.852 87.5708C842.268 86.5148 840.458 85.8737 838.421 85.6474C836.385 85.4211 834.16 84.8554 831.746 83.9503C829.332 83.0452 827.56 81.7252 826.428 79.9904C825.146 78.1048 824.505 75.9174 824.505 73.4283Z" fill="#6C63FF"/>
<path d="M883.564 38.2416C883.564 36.4313 884.28 34.8474 885.713 33.4897C887.146 32.132 888.806 31.4155 890.691 31.3401C892.049 31.3401 893.18 31.7926 894.086 32.6977C894.991 33.6028 895.481 34.7342 895.556 36.0919C895.556 37.8267 894.802 39.4107 893.294 40.8438C891.785 42.2769 890.126 43.0311 888.315 43.1066C887.184 43.1066 886.128 42.7294 885.148 41.9752C884.167 41.2209 883.639 39.9764 883.564 38.2416ZM865.122 73.6543C865.122 73.0509 865.461 71.8817 866.14 70.1469C866.819 68.4121 867.724 66.4888 868.855 64.3768C869.987 62.2649 871.646 60.3415 873.834 58.6067C876.021 56.8719 878.284 56.0422 880.622 56.1176C883.564 56.1176 886.015 56.985 887.976 58.7198C889.937 60.4546 890.955 62.7929 891.031 65.7345C891.031 67.0167 890.503 69.1287 889.447 72.0703C888.391 75.0119 886.882 78.9718 884.921 83.95C882.96 88.9281 881.376 93.1897 880.169 96.7347C879.792 98.3941 879.604 99.601 879.604 100.355C879.604 102.241 880.245 103.184 881.527 103.184C882.206 103.184 882.922 103.071 883.677 102.844C884.431 102.618 885.298 102.09 886.279 101.26C887.259 100.431 888.278 99.1107 889.334 97.3004C890.39 95.4902 891.333 93.2651 892.162 90.6252C892.388 89.7201 892.577 89.1921 892.728 89.0413C892.879 88.8904 893.52 88.815 894.651 88.815C896.16 88.815 896.914 89.1921 896.914 89.9464C896.914 90.5498 896.575 91.7189 895.896 93.4537C895.217 95.1885 894.274 97.1119 893.067 99.2238C891.86 101.336 890.163 103.221 887.976 104.881C885.789 106.54 883.45 107.37 880.961 107.37C878.548 107.37 876.323 106.578 874.286 104.994C872.25 103.41 871.194 100.996 871.118 97.753C871.118 96.4708 871.307 95.2639 871.684 94.1325C872.061 93.0011 873.683 88.7018 876.549 81.2346C879.415 73.6166 881.075 69.0533 881.527 67.5447C881.98 66.0362 882.244 64.5654 882.319 63.1323C882.319 61.3221 881.678 60.4169 880.396 60.4169H880.169C877.907 60.4169 875.832 61.6615 873.947 64.1505C872.061 66.6396 870.628 69.8075 869.647 73.6543C869.572 73.7297 869.497 73.8428 869.421 73.9937C869.346 74.1445 869.308 74.2577 869.308 74.3331C869.308 74.4085 869.233 74.484 869.082 74.5594C868.931 74.6348 868.818 74.6725 868.742 74.6725C868.667 74.6725 868.516 74.6725 868.29 74.6725C868.063 74.6725 867.762 74.6725 867.385 74.6725H865.801C865.348 74.22 865.122 73.8805 865.122 73.6543Z" fill="#6C63FF"/>
<path d="M904.155 73.6543C904.231 73.2017 904.344 72.5983 904.495 71.844C904.646 71.0898 905.098 69.6567 905.852 67.5447C906.607 65.4328 907.361 63.6603 908.115 62.2272C908.869 60.7941 910.114 59.3987 911.849 58.041C913.584 56.6833 915.318 56.0422 917.053 56.1176C919.769 56.1176 922.031 56.7965 923.842 58.1541C925.652 59.5118 926.783 60.7941 927.236 62.0009C927.688 63.2077 927.915 63.9997 927.915 64.3768C927.915 64.5277 927.952 64.6031 928.028 64.6031L929.272 63.3586C933.873 58.5313 939.115 56.1176 944.999 56.1176C949.072 56.1176 952.353 57.1359 954.842 59.1724C957.331 61.2089 958.613 64.1883 958.689 68.1104C958.764 72.0326 957.331 77.9536 954.389 85.8733C951.448 93.7931 950.015 98.5827 950.09 100.242C950.09 102.203 950.731 103.184 952.013 103.184C952.466 103.184 952.805 103.146 953.032 103.071C955.219 102.693 957.18 101.26 958.915 98.7713C960.65 96.2822 961.97 93.2651 962.875 89.7201C963.026 89.1167 963.78 88.815 965.138 88.815C966.646 88.815 967.4 89.1167 967.4 89.7201C967.4 89.7955 967.249 90.3612 966.948 91.4172C966.344 93.6046 965.515 95.7542 964.459 97.8661C963.403 99.9781 961.668 102.09 959.254 104.202C956.841 106.314 954.238 107.332 951.448 107.257C947.903 107.257 945.338 106.238 943.754 104.202C942.17 102.165 941.378 100.054 941.378 97.8661C941.378 96.433 942.736 91.9075 945.451 84.2894C948.167 76.6713 949.562 70.9389 949.637 67.0922C949.637 62.642 947.978 60.4169 944.659 60.4169H944.094C937.607 60.4169 932.138 64.226 927.688 71.844L926.896 73.2017L923.163 88.3624C920.674 98.2433 919.241 103.561 918.863 104.315C917.883 106.352 916.261 107.37 913.998 107.37C913.018 107.37 912.226 107.144 911.622 106.691C911.019 106.238 910.604 105.786 910.378 105.333C910.152 104.881 910.076 104.504 910.152 104.202C910.152 103.221 911.585 97.0742 914.451 85.7602C917.317 74.4462 918.826 68.299 918.977 67.3185C919.052 66.9413 919.09 66.0739 919.09 64.7162C919.09 61.7746 918.185 60.3038 916.374 60.3038C913.508 60.3038 911.132 64.0751 909.247 71.6178C908.794 73.1263 908.568 73.9183 908.568 73.9937C908.417 74.4462 907.7 74.6725 906.418 74.6725H904.834C904.382 74.22 904.155 73.8806 904.155 73.6543Z" fill="#6C63FF"/>
<path d="M980.298 77.8408C980.298 72.6364 980.675 67.696 981.43 63.0196C982.184 58.3431 983.051 54.3078 984.032 50.9136C985.012 47.5194 986.408 44.2007 988.218 40.9573C990.028 37.714 991.461 35.1872 992.517 33.377C993.573 31.5667 995.157 29.6057 997.269 27.4937C999.381 25.3818 1000.63 24.0995 1001 23.647C1001.38 23.1944 1002.32 22.4024 1003.83 21.271H1005.3H1005.75C1006.81 21.271 1007.34 21.6105 1007.34 22.2893C1007.34 22.5156 1006.7 23.3076 1005.42 24.6652C1004.13 26.0229 1002.59 28.0217 1000.78 30.6616C998.966 33.3016 997.118 36.5449 995.233 40.3916C993.347 44.2384 991.763 49.4428 990.481 56.0049C989.199 62.567 988.557 69.8456 988.557 77.8408C988.557 85.836 989.199 93.077 990.481 99.5636C991.763 106.05 993.309 111.292 995.12 115.29C996.93 119.288 998.778 122.531 1000.66 125.02C1002.55 127.509 1004.13 129.508 1005.42 131.016C1006.7 132.525 1007.34 133.317 1007.34 133.392C1007.34 134.071 1006.77 134.411 1005.64 134.411H1005.3H1003.83L1000.66 131.695C993.573 125.284 988.407 117.289 985.163 107.71C981.92 98.1305 980.298 88.1743 980.298 77.8408Z" fill="#6C63FF"/>
<path d="M1017.63 83.4978C1017.63 75.8043 1019.11 67.6959 1022.05 59.1728C1024.99 50.6496 1028.99 43.2955 1034.04 37.1105C1039.09 30.9256 1044.34 27.3805 1049.77 26.4754C1049.84 26.4754 1050.14 26.4754 1050.67 26.4754C1051.2 26.4754 1051.65 26.4377 1052.03 26.3623C1056.1 26.664 1059.27 28.5119 1061.53 31.9061C1064.47 36.4317 1065.95 42.5035 1065.95 50.1216C1065.95 58.7956 1064.25 67.6205 1060.85 76.5962C1057.46 85.572 1053.12 92.9261 1047.84 98.6585C1042.56 104.391 1037.51 107.257 1032.68 107.257H1031.89C1029.17 107.257 1026.84 106.503 1024.88 104.994C1022.91 103.486 1021.44 101.487 1020.46 98.9979C1019.48 96.5088 1018.77 93.982 1018.31 91.4175C1017.86 88.853 1017.63 86.2131 1017.63 83.4978ZM1057.01 42.0887C1057.01 34.3952 1055.01 30.5484 1051.01 30.5484C1048.3 30.5484 1045.66 32.2455 1043.09 35.6397C1040.53 39.0339 1038.41 42.8806 1036.75 47.18C1035.1 51.4793 1033.81 55.2506 1032.91 58.4939C1032 61.7372 1031.51 63.6229 1031.44 64.1509C1035.13 64.2263 1038.79 64.264 1042.41 64.264L1053.39 64.1509C1053.46 64.0755 1053.76 62.8309 1054.29 60.4173C1054.82 58.0036 1055.42 54.9866 1056.1 51.3661C1056.78 47.7457 1057.08 44.6532 1057.01 42.0887ZM1026.46 91.1913C1026.46 99.1865 1028.46 103.184 1032.46 103.184C1033.59 103.184 1034.79 102.807 1036.08 102.053C1037.36 101.298 1038.9 99.8653 1040.71 97.7534C1042.53 95.6414 1044.34 92.3604 1046.15 87.9102C1047.96 83.4601 1049.77 77.9539 1051.58 71.3918L1052.14 69.4685H1030.08C1030.08 69.6947 1029.74 71.1278 1029.06 73.7678C1028.38 76.4077 1027.78 79.3493 1027.25 82.5926C1026.72 85.836 1026.46 88.7022 1026.46 91.1913Z" fill="#6C63FF"/>
<path d="M1073.53 21.3842L1073.98 21.271C1074.36 21.271 1074.73 21.271 1075.11 21.271H1076.47L1079.63 23.9864C1086.73 30.3976 1091.89 38.3928 1095.14 47.972C1098.38 57.5511 1100 67.5074 1100 77.8408C1100 82.9698 1099.62 87.9103 1098.87 92.6621C1098.11 97.414 1097.25 101.449 1096.27 104.768C1095.29 108.087 1093.89 111.406 1092.08 114.724C1090.27 118.043 1088.84 120.57 1087.78 122.305C1086.73 124.04 1085.18 125.963 1083.14 128.075C1081.11 130.187 1079.9 131.431 1079.52 131.808C1079.14 132.186 1078.28 132.902 1076.92 133.958C1076.69 134.184 1076.54 134.335 1076.47 134.411H1075.11C1074.51 134.411 1074.09 134.411 1073.86 134.411C1073.64 134.411 1073.45 134.298 1073.3 134.071C1073.15 133.845 1073.04 133.506 1072.96 133.053C1073.04 132.978 1073.45 132.487 1074.2 131.582C1085.9 119.439 1091.74 101.525 1091.74 77.8408C1091.74 54.157 1085.9 36.2432 1074.2 24.0995C1073.45 23.1944 1073.04 22.7041 1072.96 22.6287C1072.96 22.0253 1073.15 21.6105 1073.53 21.3842Z" fill="#6C63FF"/>
</svg>
