<svg width="71" height="25" viewBox="0 0 71 25" fill="none" xmlns="http://www.w3.org/2000/svg">
<path d="M0 2.07438C0 1.17548 0.497498 0.484022 1.49249 -5.81145e-07H69.4009C70.467 0.553168 71 1.24463 71 2.07438C71 2.83499 70.5025 3.49188 69.5075 4.04504L35.6066 4.14876H1.70571C0.568569 3.80303 0 3.11157 0 2.07438ZM0 22.1959C0 21.1587 0.568569 20.4672 1.70571 20.1215H69.5075C70.5025 20.813 71 21.5044 71 22.1959C71 23.0948 70.467 23.7862 69.4009 24.2703H1.49249C0.497498 23.7862 0 23.0948 0 22.1959Z" fill="black"/>
</svg>
