<svg width="70" height="91" viewBox="0 0 70 91" fill="none" xmlns="http://www.w3.org/2000/svg">
<path d="M1.63619 90.6314C0.545396 90.6314 0 90.3106 0 89.669C0 89.5406 0.0962464 89.0915 0.288739 88.3215C0.545396 87.2949 0.802053 86.7174 1.05871 86.5891C1.31537 86.4607 2.05326 86.3645 3.27238 86.3003C5.00481 86.3003 6.92974 86.2041 9.04716 86.0116C9.94546 85.8191 10.555 85.4341 10.8758 84.8566C11.0042 84.5358 13.282 75.5207 17.7093 57.8114C22.1367 40.1021 24.3824 31.1191 24.4466 30.8624C24.4466 30.4133 24.3183 30.1887 24.0616 30.1887C23.5483 29.9962 21.8479 29.8358 18.9605 29.7074H15.9769C15.5919 29.3225 15.3994 29.0658 15.3994 28.9375C15.3994 28.8092 15.4636 28.2638 15.5919 27.3013C15.8486 26.2105 16.1694 25.5368 16.5544 25.2801H68.4312C68.8803 25.5368 69.1049 25.8897 69.1049 26.3388C69.1049 26.6596 68.6878 30.2528 67.8537 37.1184C67.0196 43.984 66.5704 47.513 66.5063 47.7055C66.3779 48.1547 65.7363 48.3792 64.5813 48.3792H63.4264C62.9772 48.0584 62.7527 47.6414 62.7527 47.128C62.7527 47.0639 62.8489 46.2939 63.0414 44.8181C63.2339 43.3424 63.3301 41.642 63.3301 39.7171C63.3301 37.7921 63.1056 36.2201 62.6564 35.001C62.2073 33.7819 61.5977 32.7873 60.8277 32.0174C60.0578 31.2474 58.8707 30.7341 57.2666 30.4774C55.6625 30.2208 54.0263 29.9962 52.358 29.8037C50.6898 29.6112 48.3799 29.5791 45.4283 29.7074H43.2146C37.9532 29.7716 35.162 29.8679 34.8412 29.9962C34.5204 30.1245 34.2958 30.3812 34.1675 30.7662C34.1033 30.8303 33.0125 35.0331 30.8951 43.3744L27.8152 55.7902H33.1088C33.3013 55.7902 34.0391 55.7902 35.3224 55.7902C36.6057 55.7902 37.504 55.7581 38.0173 55.694C38.5306 55.6298 39.2365 55.5336 40.1347 55.4052C41.033 55.2769 41.803 55.0523 42.4447 54.7315C43.0863 54.4107 43.6317 54.0257 44.0809 53.5766C44.915 52.8066 45.6208 51.7479 46.1983 50.4004C46.7757 49.053 47.1928 47.8339 47.4495 46.7431C47.7061 45.6523 47.8665 45.0748 47.9307 45.0106C48.1232 44.6898 48.7328 44.5294 49.7594 44.5294H50.9143C51.3635 44.8502 51.5881 45.171 51.5881 45.4919C51.5881 45.6843 50.5935 49.8871 48.6044 58.1001C46.6153 66.3132 45.5245 70.548 45.3321 70.8047C45.2037 71.2538 44.5621 71.4784 43.4071 71.4784H42.2522C41.803 71.0934 41.5784 70.7084 41.5784 70.3234C41.5784 70.1309 41.7389 69.4251 42.0597 68.206C42.3805 66.9869 42.5409 65.7036 42.5409 64.3561C42.5409 62.4954 41.8993 61.3404 40.616 60.8913C39.3327 60.4421 36.4774 60.2176 32.0501 60.2176H26.7565L23.6766 72.4408C21.6234 80.3972 20.5967 84.5679 20.5967 84.9529C20.5967 85.8512 23.452 86.3003 29.1627 86.3003H31.5688C31.9538 86.6853 32.1463 86.9099 32.1463 86.9741C32.1463 87.0382 32.0821 87.6799 31.9538 88.899C31.6971 89.7331 31.3763 90.3427 30.9913 90.7277H29.3552C26.7244 90.5993 21.88 90.5352 14.8219 90.5352C10.6513 90.5352 7.47514 90.5352 5.29355 90.5352C3.11197 90.5352 1.89285 90.5673 1.63619 90.6314Z" fill="#6C63FF"/>
<path d="M60.9529 2.37351C60.9529 1.8602 61.1133 1.41105 61.4341 1.02606C61.7549 0.641079 62.2361 0.448586 62.8778 0.448586C63.3269 0.448586 63.7119 0.608995 64.0327 0.929817C64.3536 1.18647 64.6744 1.79604 64.9952 2.7585C65.6368 5.13258 66.9522 6.96126 68.9413 8.24454C69.6471 8.69369 70 9.27117 70 9.97698C70 10.5545 69.9038 10.9394 69.7113 11.1319C69.5188 11.3244 69.0696 11.6132 68.3638 11.9982C65.6048 13.4098 63.1986 15.4309 61.1453 18.0617C61.017 18.19 60.8566 18.3825 60.6641 18.6392C60.4716 18.8958 60.3112 19.0883 60.1829 19.2166C60.0546 19.345 59.8941 19.4091 59.7016 19.4091C59.5092 19.4091 59.2846 19.4412 59.0279 19.5054C58.5788 19.5054 58.1617 19.345 57.7767 19.0241C57.3917 18.7033 57.1672 18.2221 57.103 17.5804C57.103 16.3613 58.6109 14.4685 61.6266 11.9019H45.1684L28.7103 11.8057C27.8762 11.2282 27.4591 10.6186 27.4591 9.97698C27.4591 9.52783 27.8762 8.88619 28.7103 8.05205H63.2628C61.7228 5.61381 60.9529 3.72096 60.9529 2.37351Z" fill="#6C63FF"/>
</svg>
