<svg width="314" height="255" viewBox="0 0 314 255" fill="none" xmlns="http://www.w3.org/2000/svg">
<path d="M314 -9.49647e-06L256.975 9.02807L293.306 53.899L314 -9.49647e-06ZM7.14635 254.886L282.173 32.2031L275.88 24.4312L0.853648 247.114L7.14635 254.886Z" fill="#6C63FF"/>
<path d="M176 193.133C176 185.171 177.522 176.779 180.567 167.958C183.611 159.137 187.749 151.525 192.979 145.124C198.209 138.723 203.635 135.054 209.255 134.117C209.333 134.117 209.646 134.117 210.192 134.117C210.738 134.117 211.207 134.078 211.597 134C215.813 134.312 219.091 136.225 221.433 139.738C224.478 144.422 226 150.706 226 158.59C226 167.568 224.244 176.701 220.731 185.991C217.218 195.28 212.729 202.891 207.265 208.824C201.8 214.757 196.57 217.724 191.574 217.724H190.754C187.944 217.724 185.524 216.943 183.494 215.382C181.464 213.82 179.942 211.752 178.927 209.176C177.913 206.6 177.171 203.984 176.703 201.33C176.234 198.676 176 195.944 176 193.133ZM216.749 150.276C216.749 142.314 214.681 138.333 210.543 138.333C207.733 138.333 205.001 140.089 202.347 143.602C199.692 147.115 197.507 151.096 195.789 155.546C194.072 159.995 192.745 163.898 191.808 167.255C190.871 170.612 190.364 172.564 190.286 173.11C194.111 173.188 197.897 173.227 201.644 173.227L213.002 173.11C213.08 173.032 213.393 171.744 213.939 169.246C214.486 166.748 215.11 163.625 215.813 159.878C216.515 156.131 216.827 152.931 216.749 150.276ZM185.133 201.096C185.133 209.371 187.202 213.508 191.34 213.508C192.511 213.508 193.76 213.118 195.087 212.337C196.414 211.557 198.014 210.073 199.888 207.888C201.761 205.702 203.635 202.306 205.508 197.7C207.382 193.094 209.255 187.396 211.129 180.604L211.714 178.614H188.881C188.881 178.848 188.529 180.331 187.827 183.063C187.124 185.795 186.5 188.84 185.953 192.197C185.407 195.553 185.133 198.52 185.133 201.096Z" fill="#6C63FF"/>
</svg>
