<svg width="80" height="82" viewBox="0 0 80 82" fill="none" xmlns="http://www.w3.org/2000/svg">
<path d="M1.41248 56.4159C0.470825 56.4159 0 56.139 0 55.5851C0 55.4743 0.0830868 55.0865 0.24926 54.4219C0.470825 53.5356 0.69239 53.0371 0.913955 52.9263C1.13552 52.8155 1.77252 52.7324 2.82495 52.677C4.32051 52.677 5.98225 52.5939 7.81016 52.4278C8.58563 52.2616 9.11185 51.9293 9.38881 51.4307C9.49959 51.1538 11.466 43.3713 15.288 28.0833C19.11 12.7954 21.0487 5.04061 21.104 4.81905C21.104 4.43131 20.9933 4.23744 20.7717 4.23744C20.3286 4.07126 18.8607 3.93279 16.3681 3.822H13.7924C13.4601 3.48966 13.2939 3.26809 13.2939 3.15731C13.2939 3.04653 13.3493 2.5757 13.4601 1.74483C13.6816 0.803184 13.9586 0.221577 14.2909 1.2219e-05H59.0747C59.4624 0.221577 59.6563 0.526229 59.6563 0.913967C59.6563 1.19092 59.2963 4.29283 58.5762 10.2197C57.8561 16.1465 57.4684 19.1931 57.413 19.3592C57.3022 19.747 56.7483 19.9408 55.7512 19.9408H54.7542C54.3665 19.6639 54.1726 19.3038 54.1726 18.8607C54.1726 18.8053 54.2557 18.1406 54.4218 16.8666C54.588 15.5926 54.6711 14.1248 54.6711 12.463C54.6711 10.8013 54.4772 9.44421 54.0895 8.39178C53.7018 7.33934 53.1755 6.48078 52.5108 5.81609C51.8462 5.15139 50.8214 4.70826 49.4366 4.4867C48.0519 4.26513 46.6394 4.07126 45.1992 3.90509C43.759 3.73892 41.765 3.71122 39.217 3.822H37.306C32.7639 3.8774 30.3544 3.96048 30.0774 4.07126C29.8005 4.18205 29.6066 4.40361 29.4958 4.73596C29.4404 4.79135 28.4988 8.41947 26.6709 15.6203L24.0121 26.3385H28.5819C28.748 26.3385 29.385 26.3385 30.4928 26.3385C31.6007 26.3385 32.3761 26.3108 32.8193 26.2554C33.2624 26.2 33.8717 26.117 34.6472 26.0062C35.4227 25.8954 36.0874 25.7015 36.6413 25.4246C37.1952 25.1476 37.666 24.8153 38.0537 24.4275C38.7738 23.7628 39.3831 22.8489 39.8817 21.6857C40.3802 20.5224 40.7402 19.47 40.9618 18.5284C41.1833 17.5867 41.3218 17.0882 41.3772 17.0328C41.5434 16.7558 42.0696 16.6174 42.9559 16.6174H43.9529C44.3406 16.8943 44.5345 17.1713 44.5345 17.4482C44.5345 17.6144 43.676 21.2425 41.9588 28.3326C40.2417 35.4227 39.3 39.0785 39.1339 39.3001C39.0231 39.6878 38.4692 39.8817 37.4721 39.8817H36.4751C36.0874 39.5493 35.8935 39.217 35.8935 38.8846C35.8935 38.7185 36.032 38.1091 36.3089 37.0567C36.5859 36.0043 36.7244 34.8965 36.7244 33.7332C36.7244 32.1269 36.1704 31.1299 35.0626 30.7421C33.9548 30.3544 31.4899 30.1605 27.6679 30.1605H23.0981L20.4393 40.7125C18.6668 47.581 17.7806 51.1815 17.7806 51.5138C17.7806 52.2893 20.2455 52.677 25.1753 52.677H27.2525C27.5848 53.0094 27.751 53.2032 27.751 53.2586C27.751 53.314 27.6956 53.8679 27.5848 54.9204C27.3632 55.6405 27.0863 56.1667 26.7539 56.499H25.3415C23.0704 56.3882 18.8884 56.3328 12.7954 56.3328C9.19494 56.3328 6.45307 56.3328 4.56977 56.3328C2.68647 56.3328 1.63404 56.3605 1.41248 56.4159Z" fill="#6C63FF"/>
<path d="M52.0827 52.103C52.0827 51.5547 52.3764 50.6148 52.9638 49.2833C53.5512 47.9518 54.4911 46.5616 55.7835 45.1126C57.0758 43.6637 58.5248 42.9587 60.1304 42.9979C61.736 42.9979 63.0283 43.4483 64.0074 44.349C64.9864 45.2497 65.4955 46.5029 65.5347 48.1085C65.4564 48.8526 65.3976 49.2638 65.3585 49.3421C65.3585 49.4596 65.0452 50.3603 64.4186 52.0442C63.792 53.7282 63.1458 55.6275 62.4801 57.7422C61.8143 59.857 61.501 61.5409 61.5402 62.7941C61.5402 64.478 61.8143 65.6529 62.3626 66.3186C62.9109 66.9844 63.7333 67.3368 64.8298 67.376C65.7305 67.376 66.5725 67.1606 67.3557 66.7298C68.1389 66.299 68.7459 65.8487 69.1767 65.3787C69.6075 64.9088 70.1362 64.2626 70.7628 63.4402C70.7628 63.4011 70.8607 63.0095 71.0565 62.2654C71.2523 61.5213 71.5264 60.3661 71.8789 58.7996C72.2313 57.2331 72.6034 55.7842 72.995 54.4527C74.4831 48.5784 75.3055 45.5042 75.4621 45.2301C75.9712 44.1728 76.8132 43.6441 77.9881 43.6441C78.4972 43.6441 78.9084 43.7811 79.2217 44.0553C79.535 44.3294 79.7503 44.5644 79.8678 44.7602C79.9853 44.956 80.0245 45.1322 79.9853 45.2889C79.9853 45.798 79.0258 49.9099 77.1069 57.6248C75.188 65.3396 74.0915 69.569 73.8174 70.3131C72.7208 73.5635 70.8215 76.1482 68.1194 78.0671C65.4172 79.986 62.7151 80.965 60.0129 81.0042C58.2506 81.0042 56.7038 80.5734 55.3723 79.7119C54.0408 78.8503 53.375 77.558 53.375 75.8349C53.375 74.9733 53.5121 74.2488 53.7862 73.6614C54.0604 73.074 54.4324 72.6432 54.9023 72.3691C55.3723 72.095 55.7639 71.8991 56.0772 71.7817C56.3905 71.6642 56.7233 71.6054 57.0758 71.6054C58.7989 71.6054 59.6605 72.4278 59.6605 74.0726C59.6605 74.8558 59.4255 75.5412 58.9555 76.1286C58.4856 76.716 58.0352 77.1076 57.6045 77.3034C57.1737 77.4993 56.9191 77.5972 56.8408 77.5972L56.6646 77.6559C56.7429 77.8517 57.115 78.0867 57.7807 78.3608C58.4464 78.6349 59.1122 78.772 59.7779 78.772H60.2479C60.9136 78.772 61.4227 78.7328 61.7752 78.6545C63.0675 78.3021 64.2619 77.558 65.3585 76.4223C66.455 75.2866 67.297 74.0726 67.8844 72.7803C68.4718 71.4879 68.9222 70.3914 69.2355 69.4907C69.5488 68.59 69.7054 68.0026 69.7054 67.7284L69.3529 67.9634C69.118 68.1201 68.7459 68.3354 68.2368 68.6096C67.7277 68.8837 67.2186 69.1187 66.7095 69.3145C65.9263 69.5103 65.1627 69.6082 64.4186 69.6082C62.6172 69.6082 61.0311 69.1774 59.6605 68.3159C58.2898 67.4543 57.3891 66.0641 56.9583 64.1452C56.9191 63.871 56.8996 63.264 56.8996 62.3241C56.8996 60.0919 57.5849 57.1744 58.9555 53.5715C60.3262 49.9687 61.0115 47.6777 61.0115 46.6987C61.0115 46.6595 61.0115 46.6204 61.0115 46.5812C61.0115 46.2287 61.0115 45.9938 61.0115 45.8763C61.0115 45.7588 60.9332 45.6217 60.7766 45.4651C60.6199 45.3084 60.4045 45.2301 60.1304 45.2301H59.8954C58.9947 45.2301 58.1723 45.6021 57.4282 46.3462C56.6842 47.0903 56.0968 47.8931 55.666 48.7547C55.2352 49.6162 54.9023 50.4386 54.6674 51.2218C54.4324 52.0051 54.2757 52.4358 54.1974 52.5142C54.1191 52.5925 53.8058 52.6317 53.2575 52.6317H52.4351C52.2002 52.3967 52.0827 52.2205 52.0827 52.103Z" fill="#6C63FF"/>
</svg>
