<svg width="1115" height="168" viewBox="0 0 1115 168" fill="none" xmlns="http://www.w3.org/2000/svg">
<path d="M2.24449 155.211H2.02004C1.12225 155.211 0.448899 154.687 0 153.64V99.0983L0.112225 44.5572C0.860389 43.5846 1.57114 43.0982 2.24449 43.0982C3.21711 43.0982 3.96527 43.6594 4.48899 44.7816V153.64C3.89045 154.687 3.21711 155.211 2.46894 155.211H2.24449Z" fill="#EF224B"/>
<path d="M23.2305 127.155C21.9586 127.155 21.3227 126.78 21.3227 126.032C21.3227 125.883 21.4349 125.359 21.6593 124.461C21.9586 123.264 22.2579 122.591 22.5571 122.441C22.8564 122.291 23.7168 122.179 25.1383 122.104C27.1583 122.104 29.4028 121.992 31.8718 121.768C32.9192 121.543 33.63 121.094 34.004 120.421C34.1537 120.047 36.8097 109.535 41.972 88.886C47.1343 68.2366 49.7529 57.7623 49.8277 57.4631C49.8277 56.9393 49.6781 56.6775 49.3788 56.6775C48.7803 56.453 46.7977 56.266 43.4309 56.1164H39.952C39.5031 55.6675 39.2786 55.3682 39.2786 55.2186C39.2786 55.0689 39.3534 54.433 39.5031 53.3107C39.8023 52.0389 40.1764 51.2533 40.6253 50.954H101.114C101.638 51.2533 101.9 51.6648 101.9 52.1885C101.9 52.5626 101.414 56.7523 100.441 64.7577C99.4684 72.763 98.9447 76.8779 98.8699 77.1024C98.7202 77.6261 97.9721 77.8879 96.6254 77.8879H95.2787C94.755 77.5139 94.4931 77.0276 94.4931 76.429C94.4931 76.3542 94.6053 75.4564 94.8298 73.7356C95.0542 72.0149 95.1665 70.0322 95.1665 67.7877C95.1665 65.5432 94.9046 63.7102 94.3809 62.2887C93.8572 60.8672 93.1464 59.7075 92.2486 58.8098C91.3508 57.912 89.9667 57.3134 88.0963 57.0142C86.2259 56.7149 84.3181 56.453 82.3729 56.2286C80.4276 56.0041 77.7342 55.9667 74.2927 56.1164H71.7115C65.5766 56.1912 62.3221 56.3034 61.948 56.453C61.5739 56.6027 61.312 56.9019 61.1624 57.3508C61.0876 57.4256 59.8157 62.3261 57.3468 72.0523L53.7556 86.5292H59.9279C60.1524 86.5292 61.0128 86.5292 62.5091 86.5292C64.0054 86.5292 65.0529 86.4918 65.6514 86.417C66.2499 86.3422 67.0729 86.23 68.1203 86.0803C69.1678 85.9307 70.0656 85.6688 70.8137 85.2948C71.5619 84.9207 72.1978 84.4718 72.7215 83.9481C73.6942 83.0503 74.5171 81.8158 75.1905 80.2447C75.8638 78.6735 76.3501 77.252 76.6494 75.9801C76.9487 74.7082 77.1357 74.0349 77.2105 73.9601C77.435 73.586 78.1457 73.399 79.3428 73.399H80.6895C81.2132 73.773 81.4751 74.1471 81.4751 74.5212C81.4751 74.7457 80.3154 79.6461 77.9961 89.2226C75.6768 98.7991 74.4049 103.737 74.1805 104.036C74.0308 104.56 73.2827 104.822 71.936 104.822H70.5893C70.0656 104.373 69.8037 103.924 69.8037 103.475C69.8037 103.251 69.9907 102.428 70.3648 101.006C70.7389 99.5847 70.9259 98.0884 70.9259 96.5172C70.9259 94.3476 70.1778 93.0009 68.6815 92.4771C67.1851 91.9534 63.8558 91.6916 58.6935 91.6916H52.5211L48.9299 105.944C46.5358 115.221 45.3387 120.084 45.3387 120.533C45.3387 121.581 48.6681 122.104 55.3267 122.104H58.1323C58.5812 122.553 58.8057 122.815 58.8057 122.89C58.8057 122.965 58.7309 123.713 58.5812 125.135C58.282 126.107 57.9079 126.818 57.459 127.267H55.5512C52.4837 127.117 46.8351 127.042 38.6053 127.042C33.7422 127.042 30.0388 127.042 27.495 127.042C24.9513 127.042 23.5297 127.08 23.2305 127.155Z" fill="#EF224B"/>
<path d="M92.3945 24.2445C92.3945 23.646 92.5815 23.1223 92.9556 22.6734C93.3297 22.2245 93.8908 22 94.639 22C95.1627 22 95.6116 22.1871 95.9857 22.5612C96.3598 22.8604 96.7339 23.5712 97.1079 24.6934C97.8561 27.4616 99.3898 29.5939 101.709 31.0902C102.532 31.614 102.944 32.2873 102.944 33.1103C102.944 33.7836 102.831 34.2325 102.607 34.457C102.382 34.6814 101.859 35.0181 101.036 35.467C97.8187 37.113 95.0131 39.4697 92.619 42.5372C92.4693 42.6868 92.2823 42.9112 92.0578 43.2105C91.8334 43.5098 91.6463 43.7342 91.4967 43.8838C91.3471 44.0335 91.16 44.1083 90.9356 44.1083C90.7111 44.1083 90.4493 44.1457 90.15 44.2205C89.6263 44.2205 89.14 44.0335 88.6911 43.6594C88.2422 43.2853 87.9803 42.7242 87.9055 41.976C87.9055 40.5545 89.6637 38.3474 93.1801 35.3548H73.9897L54.7993 35.2425C53.8266 34.5692 53.3403 33.8584 53.3403 33.1103C53.3403 32.5866 53.8266 31.8384 54.7993 30.8658H95.0879C93.2923 28.0228 92.3945 25.8157 92.3945 24.2445Z" fill="#EF224B"/>
<path d="M124.764 93.5591C124.606 93.5591 124.394 93.5591 124.13 93.5591C122.807 93.5591 122.014 93.5326 121.749 93.4797C121.485 93.4268 121.353 93.1359 121.353 92.6069C121.353 91.1788 121.644 90.306 122.225 89.9886C122.331 89.9357 124.897 89.9093 129.922 89.9093C133.995 89.9093 136.322 89.9093 136.904 89.9093C137.486 89.9093 137.856 90.068 138.015 90.3853C149.176 116.621 154.862 130.083 155.073 130.771L159.358 113.871C162.161 102.71 163.563 96.7592 163.563 96.0187C163.563 94.5905 161.87 93.7706 158.485 93.5591C157.216 93.5591 156.581 93.2681 156.581 92.6863C156.581 92.5805 156.634 92.2631 156.74 91.7342C156.951 90.8879 157.11 90.3853 157.216 90.2267C157.321 90.068 157.586 89.9622 158.009 89.9093C158.168 89.9093 158.988 89.9357 160.469 89.9886C161.95 90.0415 164.145 90.0944 167.054 90.1473C169.699 90.1473 171.709 90.1209 173.084 90.068C174.459 90.0151 175.253 89.9886 175.464 89.9886C176.258 89.9886 176.655 90.2531 176.655 90.7821C176.655 91.9458 176.443 92.7392 176.02 93.1623C175.914 93.4268 175.332 93.5591 174.274 93.5591C170.519 93.7706 168.165 94.8285 167.213 96.7328L155.391 143.545C155.285 143.915 154.73 144.1 153.725 144.1C152.984 144.1 152.534 144.048 152.376 143.942C152.217 143.783 148.805 135.769 142.14 119.901L132.064 96.1774L126.907 116.807C123.468 130.348 121.749 137.356 121.749 137.832C122.014 139.578 123.918 140.451 127.462 140.451H128.255C128.573 140.715 128.732 140.927 128.732 141.085C128.732 141.244 128.679 141.747 128.573 142.593C128.361 143.281 128.097 143.783 127.779 144.1H126.748C125.108 143.995 122.252 143.942 118.179 143.942C116.698 143.942 115.349 143.942 114.132 143.942C112.916 143.942 111.937 143.942 111.197 143.942C110.456 143.942 110.007 143.968 109.848 144.021C109.055 144.021 108.658 143.783 108.658 143.307C108.658 143.095 108.737 142.672 108.896 142.038C109.055 141.403 109.187 141.033 109.293 140.927C109.398 140.609 110.007 140.451 111.117 140.451C114.714 140.292 117.042 139.261 118.1 137.356C118.311 137.039 120.189 129.713 123.733 115.378L129.128 93.7971C129.022 93.7442 127.568 93.6649 124.764 93.5591Z" fill="#EF224B"/>
<path d="M197.874 155.211H197.65C196.752 155.211 196.079 154.687 195.63 153.64V99.0983L195.742 44.5572C196.49 43.5846 197.201 43.0982 197.874 43.0982C198.847 43.0982 199.595 43.6594 200.119 44.7816V153.64C199.52 154.687 198.847 155.211 198.099 155.211H197.874Z" fill="#EF224B"/>
<path d="M247.837 100.669C247.837 100.669 247.837 100.183 247.837 99.2105C247.837 98.2379 248.361 97.4897 249.408 96.966H314.611C315.733 97.5646 316.294 98.3127 316.294 99.2105C316.294 100.108 315.733 100.856 314.611 101.455H249.408C248.361 100.931 247.837 100.183 247.837 99.2105V100.669Z" fill="black"/>
<path d="M356.055 127.155C354.783 127.155 354.147 126.78 354.147 126.032C354.147 125.883 354.26 125.359 354.484 124.461C354.783 123.264 355.082 122.591 355.382 122.441C355.681 122.291 356.541 122.179 357.963 122.104C359.983 122.104 362.227 121.992 364.696 121.768C365.744 121.543 366.455 121.094 366.829 120.421C366.978 120.047 369.634 109.535 374.797 88.886C379.959 68.2366 382.578 57.7623 382.652 57.4631C382.652 56.9393 382.503 56.6775 382.203 56.6775C381.605 56.453 379.622 56.266 376.256 56.1164H372.777C372.328 55.6675 372.103 55.3682 372.103 55.2186C372.103 55.0689 372.178 54.433 372.328 53.3107C372.627 52.0389 373.001 51.2533 373.45 50.954H433.939C434.463 51.2533 434.725 51.6648 434.725 52.1885C434.725 52.5626 434.238 56.7523 433.266 64.7577C432.293 72.763 431.769 76.8779 431.695 77.1024C431.545 77.6261 430.797 77.8879 429.45 77.8879H428.103C427.58 77.5139 427.318 77.0276 427.318 76.429C427.318 76.3542 427.43 75.4564 427.654 73.7356C427.879 72.0149 427.991 70.0322 427.991 67.7877C427.991 65.5432 427.729 63.7102 427.206 62.2887C426.682 60.8672 425.971 59.7075 425.073 58.8098C424.175 57.912 422.791 57.3134 420.921 57.0142C419.051 56.7149 417.143 56.453 415.197 56.2286C413.252 56.0041 410.559 55.9667 407.117 56.1164H404.536C398.401 56.1912 395.147 56.3034 394.773 56.453C394.399 56.6027 394.137 56.9019 393.987 57.3508C393.912 57.4256 392.64 62.3261 390.171 72.0523L386.58 86.5292H392.753C392.977 86.5292 393.837 86.5292 395.334 86.5292C396.83 86.5292 397.877 86.4918 398.476 86.417C399.075 86.3422 399.898 86.23 400.945 86.0803C401.992 85.9307 402.89 85.6688 403.638 85.2948C404.387 84.9207 405.022 84.4718 405.546 83.9481C406.519 83.0503 407.342 81.8158 408.015 80.2447C408.688 78.6735 409.175 77.252 409.474 75.9801C409.773 74.7082 409.96 74.0349 410.035 73.9601C410.26 73.586 410.97 73.399 412.167 73.399H413.514C414.038 73.773 414.3 74.1471 414.3 74.5212C414.3 74.7457 413.14 79.6461 410.821 89.2226C408.501 98.7991 407.23 103.737 407.005 104.036C406.855 104.56 406.107 104.822 404.761 104.822H403.414C402.89 104.373 402.628 103.924 402.628 103.475C402.628 103.251 402.815 102.428 403.189 101.006C403.564 99.5847 403.751 98.0884 403.751 96.5172C403.751 94.3476 403.002 93.0009 401.506 92.4771C400.01 91.9534 396.68 91.6916 391.518 91.6916H385.346L381.755 105.944C379.36 115.221 378.163 120.084 378.163 120.533C378.163 121.581 381.493 122.104 388.151 122.104H390.957C391.406 122.553 391.63 122.815 391.63 122.89C391.63 122.965 391.555 123.713 391.406 125.135C391.107 126.107 390.733 126.818 390.284 127.267H388.376C385.308 127.117 379.66 127.042 371.43 127.042C366.567 127.042 362.863 127.042 360.32 127.042C357.776 127.042 356.354 127.08 356.055 127.155Z" fill="#6C63FF"/>
<path d="M424.495 121.329C424.495 120.588 424.892 119.319 425.685 117.521C426.479 115.722 427.748 113.844 429.494 111.887C431.239 109.93 433.196 108.978 435.365 109.031C437.534 109.031 439.279 109.639 440.602 110.856C441.924 112.072 442.612 113.765 442.664 115.934C442.559 116.939 442.479 117.494 442.426 117.6C442.426 117.759 442.003 118.975 441.157 121.25C440.311 123.524 439.438 126.09 438.539 128.946C437.639 131.802 437.216 134.077 437.269 135.769C437.269 138.044 437.639 139.631 438.38 140.53C439.12 141.429 440.231 141.905 441.712 141.958C442.929 141.958 444.066 141.667 445.124 141.085C446.182 140.504 447.002 139.895 447.584 139.261C448.166 138.626 448.88 137.753 449.726 136.642C449.726 136.589 449.858 136.06 450.123 135.055C450.387 134.05 450.757 132.49 451.233 130.374C451.71 128.258 452.212 126.301 452.741 124.503C454.751 116.568 455.862 112.416 456.073 112.046C456.761 110.618 457.898 109.904 459.485 109.904C460.173 109.904 460.728 110.089 461.151 110.459C461.575 110.829 461.865 111.147 462.024 111.411C462.183 111.676 462.236 111.914 462.183 112.125C462.183 112.813 460.887 118.367 458.295 128.787C455.703 139.208 454.222 144.92 453.852 145.925C452.371 150.316 449.805 153.807 446.156 156.399C442.506 158.99 438.856 160.313 435.206 160.366C432.826 160.366 430.737 159.784 428.938 158.62C427.14 157.456 426.241 155.711 426.241 153.384C426.241 152.22 426.426 151.241 426.796 150.448C427.166 149.654 427.669 149.073 428.303 148.702C428.938 148.332 429.467 148.068 429.89 147.909C430.313 147.75 430.763 147.671 431.239 147.671C433.566 147.671 434.73 148.782 434.73 151.003C434.73 152.061 434.413 152.987 433.778 153.78C433.143 154.574 432.535 155.103 431.953 155.367C431.371 155.632 431.028 155.764 430.922 155.764L430.684 155.843C430.789 156.108 431.292 156.425 432.191 156.795C433.09 157.166 433.99 157.351 434.889 157.351H435.524C436.423 157.351 437.11 157.298 437.587 157.192C439.332 156.716 440.945 155.711 442.426 154.177C443.908 152.643 445.045 151.003 445.838 149.258C446.632 147.512 447.24 146.031 447.663 144.814C448.086 143.598 448.298 142.804 448.298 142.434L447.822 142.752C447.504 142.963 447.002 143.254 446.314 143.624C445.627 143.995 444.939 144.312 444.251 144.576C443.193 144.841 442.162 144.973 441.157 144.973C438.724 144.973 436.582 144.391 434.73 143.228C432.879 142.064 431.662 140.186 431.08 137.594C431.028 137.224 431.001 136.404 431.001 135.135C431.001 132.12 431.927 128.179 433.778 123.313C435.629 118.446 436.555 115.352 436.555 114.029C436.555 113.977 436.555 113.924 436.555 113.871C436.555 113.395 436.555 113.077 436.555 112.919C436.555 112.76 436.449 112.575 436.238 112.363C436.026 112.152 435.735 112.046 435.365 112.046H435.048C433.831 112.046 432.72 112.548 431.715 113.553C430.71 114.558 429.917 115.643 429.335 116.806C428.753 117.97 428.303 119.081 427.986 120.139C427.669 121.197 427.457 121.779 427.351 121.884C427.246 121.99 426.822 122.043 426.082 122.043H424.971C424.654 121.726 424.495 121.488 424.495 121.329Z" fill="#6C63FF"/>
<path d="M501.689 100.669C501.689 100.669 501.689 100.183 501.689 99.2105C501.689 98.2379 502.213 97.4897 503.26 96.966H568.463C569.585 97.5646 570.146 98.3127 570.146 99.2105C570.146 100.108 569.585 100.856 568.463 101.455H503.26C502.213 100.931 501.689 100.183 501.689 99.2105V100.669Z" fill="black"/>
<path d="M620.109 155.211H619.884C618.986 155.211 618.313 154.687 617.864 153.64V99.0983L617.976 44.5572C618.724 43.5846 619.435 43.0982 620.109 43.0982C621.081 43.0982 621.829 43.6594 622.353 44.7816V153.64C621.754 154.687 621.081 155.211 620.333 155.211H620.109Z" fill="#D46FA0"/>
<path d="M641.094 127.155C639.823 127.155 639.187 126.78 639.187 126.032C639.187 125.883 639.299 125.359 639.523 124.461C639.823 123.264 640.122 122.591 640.421 122.441C640.72 122.291 641.581 122.179 643.002 122.104C645.022 122.104 647.267 121.992 649.736 121.768C650.783 121.543 651.494 121.094 651.868 120.421C652.018 120.047 654.674 109.535 659.836 88.886C664.998 68.2366 667.617 57.7623 667.692 57.4631C667.692 56.9393 667.542 56.6775 667.243 56.6775C666.644 56.453 664.662 56.266 661.295 56.1164H657.816C657.367 55.6675 657.143 55.3682 657.143 55.2186C657.143 55.0689 657.217 54.433 657.367 53.3107C657.666 52.0389 658.04 51.2533 658.489 50.954H718.978C719.502 51.2533 719.764 51.6648 719.764 52.1885C719.764 52.5626 719.278 56.7523 718.305 64.7577C717.332 72.763 716.809 76.8779 716.734 77.1024C716.584 77.6261 715.836 77.8879 714.489 77.8879H713.143C712.619 77.5139 712.357 77.0276 712.357 76.429C712.357 76.3542 712.469 75.4564 712.694 73.7356C712.918 72.0149 713.03 70.0322 713.03 67.7877C713.03 65.5432 712.769 63.7102 712.245 62.2887C711.721 60.8672 711.01 59.7075 710.113 58.8098C709.215 57.912 707.831 57.3134 705.96 57.0142C704.09 56.7149 702.182 56.453 700.237 56.2286C698.292 56.0041 695.598 55.9667 692.157 56.1164H689.576C683.441 56.1912 680.186 56.3034 679.812 56.453C679.438 56.6027 679.176 56.9019 679.026 57.3508C678.952 57.4256 677.68 62.3261 675.211 72.0523L671.62 86.5292H677.792C678.016 86.5292 678.877 86.5292 680.373 86.5292C681.869 86.5292 682.917 86.4918 683.515 86.417C684.114 86.3422 684.937 86.23 685.984 86.0803C687.032 85.9307 687.93 85.6688 688.678 85.2948C689.426 84.9207 690.062 84.4718 690.586 83.9481C691.558 83.0503 692.381 81.8158 693.054 80.2447C693.728 78.6735 694.214 77.252 694.513 75.9801C694.813 74.7082 695 74.0349 695.075 73.9601C695.299 73.586 696.01 73.399 697.207 73.399H698.554C699.077 73.773 699.339 74.1471 699.339 74.5212C699.339 74.7457 698.179 79.6461 695.86 89.2226C693.541 98.7991 692.269 103.737 692.044 104.036C691.895 104.56 691.147 104.822 689.8 104.822H688.453C687.93 104.373 687.668 103.924 687.668 103.475C687.668 103.251 687.855 102.428 688.229 101.006C688.603 99.5847 688.79 98.0884 688.79 96.5172C688.79 94.3476 688.042 93.0009 686.545 92.4771C685.049 91.9534 681.72 91.6916 676.557 91.6916H670.385L666.794 105.944C664.4 115.221 663.203 120.084 663.203 120.533C663.203 121.581 666.532 122.104 673.191 122.104H675.996C676.445 122.553 676.67 122.815 676.67 122.89C676.67 122.965 676.595 123.713 676.445 125.135C676.146 126.107 675.772 126.818 675.323 127.267H673.415C670.348 127.117 664.699 127.042 656.469 127.042C651.606 127.042 647.903 127.042 645.359 127.042C642.815 127.042 641.394 127.08 641.094 127.155Z" fill="#D46FA0"/>
<path d="M710.259 24.2445C710.259 23.646 710.446 23.1223 710.82 22.6734C711.194 22.2245 711.755 22 712.503 22C713.027 22 713.476 22.1871 713.85 22.5612C714.224 22.8604 714.598 23.5712 714.972 24.6934C715.72 27.4616 717.254 29.5939 719.573 31.0902C720.396 31.614 720.808 32.2873 720.808 33.1103C720.808 33.7836 720.695 34.2325 720.471 34.457C720.247 34.6814 719.723 35.0181 718.9 35.467C715.683 37.113 712.877 39.4697 710.483 42.5372C710.333 42.6868 710.146 42.9112 709.922 43.2105C709.697 43.5098 709.51 43.7342 709.361 43.8838C709.211 44.0335 709.024 44.1083 708.8 44.1083C708.575 44.1083 708.313 44.1457 708.014 44.2205C707.49 44.2205 707.004 44.0335 706.555 43.6594C706.106 43.2853 705.844 42.7242 705.77 41.976C705.77 40.5545 707.528 38.3474 711.044 35.3548H691.854L672.663 35.2425C671.691 34.5692 671.204 33.8584 671.204 33.1103C671.204 32.5866 671.691 31.8384 672.663 30.8658H712.952C711.156 28.0228 710.259 25.8157 710.259 24.2445Z" fill="#D46FA0"/>
<path d="M748.738 140.689C747.944 141.376 746.781 142.117 745.247 142.91C743.713 143.704 742.099 144.1 740.407 144.1C737.074 144.1 734.403 142.91 732.393 140.53C730.383 138.15 729.352 135.108 729.299 131.406C729.299 125.852 731.335 120.747 735.408 116.092C739.481 111.438 744.004 109.084 748.976 109.031C751.462 109.031 753.763 110.3 755.879 112.839L756.117 112.522C756.222 112.363 756.355 112.205 756.513 112.046C756.672 111.887 756.91 111.676 757.227 111.411C757.545 111.147 757.889 110.962 758.259 110.856C758.629 110.75 759.052 110.671 759.528 110.618C760.269 110.618 760.877 110.856 761.353 111.332C761.829 111.808 762.094 112.31 762.147 112.839C762.147 113.633 760.639 120.033 757.624 132.04C754.609 144.048 753.022 150.183 752.864 150.448C751.911 153.304 749.875 155.658 746.754 157.509C743.633 159.361 740.063 160.313 736.043 160.366C728.585 160.366 724.856 158.567 724.856 154.97C724.856 153.595 725.332 152.379 726.284 151.321C727.236 150.263 728.452 149.734 729.933 149.734C730.727 149.734 731.467 149.972 732.155 150.448C732.843 150.924 733.213 151.744 733.266 152.907C733.266 153.436 733.213 153.939 733.107 154.415C733.001 154.891 732.816 155.261 732.552 155.526C732.287 155.79 732.076 156.055 731.917 156.319C731.758 156.584 731.573 156.795 731.362 156.954L731.203 157.113H731.282C731.811 157.271 733.398 157.351 736.043 157.351C738.053 157.351 739.64 157.033 740.803 156.399C742.02 155.817 743.157 154.944 744.215 153.78C745.273 152.617 746.014 151.374 746.437 150.051C746.754 149.046 747.177 147.406 747.706 145.132C748.394 142.593 748.738 141.112 748.738 140.689ZM754.53 118.076L754.212 117.203C754.054 116.621 753.921 116.225 753.816 116.013C753.71 115.801 753.551 115.431 753.34 114.902C753.128 114.373 752.864 114.003 752.546 113.791C752.229 113.58 751.885 113.289 751.515 112.919C751.144 112.548 750.668 112.31 750.087 112.205C749.505 112.099 748.923 112.019 748.341 111.967C746.014 111.967 743.766 113.368 741.597 116.172C740.01 118.235 738.688 121.382 737.63 125.614C736.572 129.845 736.043 132.913 736.043 134.817C736.043 138.996 737.683 141.085 740.962 141.085C743.924 141.085 746.833 139.234 749.69 135.531L750.325 134.738L754.53 118.076Z" fill="#D46FA0"/>
<path d="M783.126 155.211H782.902C782.004 155.211 781.33 154.687 780.881 153.64V99.0983L780.994 44.5572C781.742 43.5846 782.453 43.0982 783.126 43.0982C784.099 43.0982 784.847 43.6594 785.37 44.7816V153.64C784.772 154.687 784.099 155.211 783.35 155.211H783.126Z" fill="#D46FA0"/>
<path d="M836.174 88.3247C836.174 87.3521 836.698 86.6039 837.746 86.0802H909.233C910.355 86.6788 910.916 87.4269 910.916 88.3247C910.916 89.1477 910.392 89.8585 909.345 90.457L873.657 90.5692H837.97C836.773 90.1951 836.174 89.447 836.174 88.3247ZM836.174 110.096C836.174 108.974 836.773 108.226 837.97 107.852H909.345C910.392 108.6 910.916 109.348 910.916 110.096C910.916 111.069 910.355 111.817 909.233 112.341H837.746C836.698 111.817 836.174 111.069 836.174 110.096Z" fill="black"/>
<path d="M959.15 61.6153C963.34 55.5552 969.063 52.5251 976.321 52.5251C979.912 52.5251 983.503 53.4977 987.094 55.443C990.685 57.3882 993.603 60.8297 995.848 65.7676C998.616 71.9774 1000 80.5065 1000 91.3548C1000 102.951 998.391 111.817 995.174 117.952C993.678 121.094 991.62 123.601 989.002 125.471C986.383 127.342 984.101 128.501 982.156 128.95C980.211 129.399 978.303 129.661 976.433 129.736C974.488 129.736 972.542 129.511 970.597 129.062C968.652 128.613 966.37 127.416 963.751 125.471C961.133 123.526 959.075 121.02 957.579 117.952C954.362 111.817 952.753 102.951 952.753 91.3548C952.753 78.3368 954.886 68.4236 959.15 61.6153ZM984.401 60.2686C982.156 57.8745 979.5 56.6774 976.433 56.6774C973.29 56.6774 970.597 57.8745 968.353 60.2686C966.482 62.2138 965.248 64.9072 964.649 68.3488C964.051 71.7903 963.751 78.9727 963.751 89.8959C963.751 101.717 964.051 109.498 964.649 113.239C965.248 116.979 966.594 119.935 968.689 122.104C970.784 124.349 973.365 125.471 976.433 125.471C979.425 125.471 981.969 124.349 984.064 122.104C986.234 119.86 987.58 116.718 988.104 112.678C988.628 108.637 988.927 101.044 989.002 89.8959C989.002 79.0475 988.703 71.9026 988.104 68.461C987.506 65.0195 986.271 62.2887 984.401 60.2686Z" fill="black"/>
<rect x="836" width="279" height="168" fill="#F4F4F4"/>
</svg>
