<svg width="808" height="168" viewBox="0 0 808 168" fill="none" xmlns="http://www.w3.org/2000/svg">
<path d="M1.93124 108.397C0.643747 108.397 0 108.018 0 107.261C0 107.11 0.113602 106.579 0.340807 105.671C0.643747 104.459 0.946687 103.777 1.24963 103.626C1.55257 103.474 2.42352 103.361 3.86248 103.285C5.90733 103.285 8.17938 103.171 10.6786 102.944C11.7389 102.717 12.4584 102.263 12.8371 101.581C12.9885 101.202 15.6771 90.5616 20.9029 69.6587C26.1286 48.7558 28.7793 38.1529 28.855 37.85C28.855 37.3199 28.7036 37.0548 28.4006 37.0548C27.7947 36.8276 25.7878 36.6382 22.3797 36.4868H18.858C18.4036 36.0324 18.1764 35.7294 18.1764 35.5779C18.1764 35.4265 18.2521 34.7827 18.4036 33.6467C18.7065 32.3592 19.0852 31.564 19.5396 31.2611H80.7714C81.3015 31.564 81.5666 31.9805 81.5666 32.5107C81.5666 32.8894 81.0743 37.1305 80.0897 45.2342C79.1052 53.3378 78.575 57.5032 78.4993 57.7304C78.3478 58.2606 77.5905 58.5257 76.2273 58.5257H74.864C74.3339 58.147 74.0688 57.6547 74.0688 57.0488C74.0688 56.9731 74.1824 56.0643 74.4096 54.3224C74.6368 52.5805 74.7504 50.5735 74.7504 48.3014C74.7504 46.0294 74.4854 44.1739 73.9552 42.7349C73.4251 41.2959 72.7056 40.122 71.7968 39.2132C70.8879 38.3044 69.4868 37.6985 67.5935 37.3956C65.7001 37.0926 63.7689 36.8276 61.7997 36.6004C59.8306 36.3732 57.1042 36.3353 53.6204 36.4868H51.0075C44.7972 36.5625 41.5028 36.6761 41.1241 36.8276C40.7454 36.979 40.4803 37.282 40.3289 37.7364C40.2531 37.8121 38.9656 42.7728 36.4664 52.6183L32.8311 67.273H39.0793C39.3065 67.273 40.1774 67.273 41.6921 67.273C43.2068 67.273 44.2671 67.2352 44.873 67.1594C45.4789 67.0837 46.3119 66.9701 47.3722 66.8186C48.4325 66.6672 49.3413 66.4021 50.0987 66.0234C50.856 65.6447 51.4998 65.1903 52.0299 64.6602C53.0145 63.7514 53.8476 62.5017 54.5292 60.9113C55.2108 59.3209 55.7031 57.8819 56.006 56.5944C56.309 55.3069 56.4983 54.6253 56.574 54.5496C56.8012 54.1709 57.5207 53.9816 58.7325 53.9816H60.0957C60.6259 54.3602 60.8909 54.7389 60.8909 55.1176C60.8909 55.3448 59.717 60.3054 57.3692 69.9995C55.0215 79.6936 53.734 84.6921 53.5068 84.995C53.3553 85.5252 52.5979 85.7902 51.2347 85.7902H49.8715C49.3413 85.3358 49.0763 84.8814 49.0763 84.427C49.0763 84.1998 49.2656 83.3667 49.6443 81.9278C50.023 80.4888 50.2123 78.9741 50.2123 77.3837C50.2123 75.1873 49.4549 73.8241 47.9402 73.294C46.4255 72.7638 43.0553 72.4988 37.8296 72.4988H31.5815L27.9462 86.9263C25.5227 96.3174 24.3109 101.24 24.3109 101.695C24.3109 102.755 27.6811 103.285 34.4215 103.285H37.2616C37.716 103.739 37.9432 104.005 37.9432 104.08C37.9432 104.156 37.8675 104.913 37.716 106.352C37.4131 107.337 37.0344 108.056 36.58 108.511H34.6488C31.5436 108.359 25.8256 108.284 17.4948 108.284C12.572 108.284 8.82313 108.284 6.24814 108.284C3.67315 108.284 2.23418 108.321 1.93124 108.397Z" fill="#6C63FF"/>
<path d="M73.7012 102.339C74.076 100.091 75.5217 97.4937 78.0383 94.5487C80.5549 91.6038 83.6605 90.1045 87.3551 90.051C89.2291 90.051 90.9426 90.5329 92.4954 91.4967C94.0482 92.4605 95.1994 93.6653 95.949 95.111C98.1979 91.7376 100.902 90.051 104.061 90.051C106.042 90.051 107.756 90.64 109.201 91.818C110.647 92.9959 111.397 94.5755 111.45 96.5567C111.45 98.1095 111.075 99.3678 110.326 100.332C109.576 101.295 108.853 101.884 108.157 102.099C107.461 102.313 106.845 102.42 106.31 102.42C105.293 102.42 104.463 102.125 103.82 101.536C103.178 100.947 102.856 100.171 102.856 99.2071C102.856 96.7441 104.195 95.0574 106.872 94.1472C106.283 93.4511 105.212 93.103 103.659 93.103C102.963 93.103 102.455 93.1566 102.133 93.2637C100.099 94.1204 98.5995 95.8874 97.6357 98.5646C94.423 110.398 92.8166 117.305 92.8166 119.286C92.8166 120.786 93.245 121.857 94.1017 122.499C94.9584 123.142 95.8955 123.463 96.9128 123.463C98.894 123.463 100.848 122.579 102.776 120.812C104.704 119.045 106.015 116.877 106.711 114.307C106.872 113.771 107.033 113.477 107.193 113.423C107.354 113.37 107.782 113.316 108.478 113.263H108.8C109.603 113.263 110.004 113.477 110.004 113.905C110.004 113.959 109.951 114.253 109.844 114.789C108.987 117.841 107.327 120.545 104.864 122.901C102.401 125.257 99.5365 126.435 96.2703 126.435C92.5221 126.435 89.6843 124.748 87.7567 121.375C85.5613 124.694 83.0447 126.354 80.2069 126.354H79.725C77.1013 126.354 75.2272 125.658 74.1028 124.266C72.9784 122.874 72.3894 121.401 72.3358 119.849C72.3358 118.135 72.8445 116.743 73.8618 115.672C74.8792 114.601 76.0839 114.066 77.4761 114.066C79.7785 114.066 80.9297 115.19 80.9297 117.439C80.9297 118.51 80.6085 119.447 79.9659 120.25C79.3234 121.053 78.7076 121.589 78.1186 121.857C77.5296 122.124 77.1816 122.258 77.0745 122.258L76.8336 122.338C76.8336 122.392 76.9942 122.499 77.3155 122.66C77.6367 122.82 78.0651 123.008 78.6005 123.222C79.136 123.436 79.6447 123.516 80.1266 123.463C82.0542 123.463 83.714 122.258 85.1062 119.849C85.5881 118.992 86.2039 117.171 86.9535 114.387C87.7031 111.603 88.4527 108.711 89.2024 105.713C89.952 102.714 90.3804 100.947 90.4874 100.412C90.7552 98.9662 90.889 97.9221 90.889 97.2795C90.889 95.7803 90.4874 94.7094 89.6843 94.0668C88.8811 93.4243 87.9708 93.103 86.9535 93.103C84.8117 93.103 82.8038 93.9597 80.9297 95.6732C79.0557 97.3866 77.7438 99.5819 76.9942 102.259C76.8871 102.741 76.7532 103.009 76.5926 103.062C76.432 103.116 76.0036 103.169 75.3075 103.223H74.1831C73.8618 102.902 73.7012 102.607 73.7012 102.339Z" fill="#6C63FF"/>
<path d="M155.942 81.587C155.942 81.587 155.942 81.0947 155.942 80.1102C155.942 79.1256 156.472 78.3682 157.533 77.8381H223.536C224.672 78.444 225.24 79.2013 225.24 80.1102C225.24 81.019 224.672 81.7763 223.536 82.3822H157.533C156.472 81.8521 155.942 81.0947 155.942 80.1102V81.587Z" fill="black"/>
<path d="M275.815 136.798H275.588C274.679 136.798 273.998 136.268 273.543 135.207V79.9965L273.657 24.7857C274.414 23.8011 275.134 23.3088 275.815 23.3088C276.8 23.3088 277.557 23.8769 278.087 25.0129V135.207C277.482 136.268 276.8 136.798 276.043 136.798H275.815Z" fill="#2BAB0A"/>
<path d="M297.059 108.397C295.772 108.397 295.128 108.018 295.128 107.261C295.128 107.11 295.241 106.579 295.469 105.671C295.772 104.459 296.074 103.777 296.377 103.626C296.68 103.474 297.551 103.361 298.99 103.285C301.035 103.285 303.307 103.171 305.806 102.944C306.867 102.717 307.586 102.263 307.965 101.581C308.116 101.202 310.805 90.5616 316.031 69.6587C321.256 48.7558 323.907 38.1529 323.983 37.85C323.983 37.3199 323.831 37.0548 323.528 37.0548C322.923 36.8276 320.916 36.6382 317.507 36.4868H313.986C313.531 36.0324 313.304 35.7294 313.304 35.5779C313.304 35.4265 313.38 34.7827 313.531 33.6467C313.834 32.3592 314.213 31.564 314.667 31.2611H375.899C376.429 31.564 376.694 31.9805 376.694 32.5107C376.694 32.8894 376.202 37.1305 375.218 45.2342C374.233 53.3378 373.703 57.5032 373.627 57.7304C373.476 58.2606 372.718 58.5257 371.355 58.5257H369.992C369.462 58.147 369.197 57.6547 369.197 57.0488C369.197 56.9731 369.31 56.0643 369.537 54.3224C369.765 52.5805 369.878 50.5735 369.878 48.3014C369.878 46.0294 369.613 44.1739 369.083 42.7349C368.553 41.2959 367.833 40.122 366.925 39.2132C366.016 38.3044 364.615 37.6985 362.721 37.3956C360.828 37.0926 358.897 36.8276 356.928 36.6004C354.958 36.3732 352.232 36.3353 348.748 36.4868H346.135C339.925 36.5625 336.631 36.6761 336.252 36.8276C335.873 36.979 335.608 37.282 335.457 37.7364C335.381 37.8121 334.093 42.7728 331.594 52.6183L327.959 67.273H334.207C334.434 67.273 335.305 67.273 336.82 67.273C338.335 67.273 339.395 67.2352 340.001 67.1594C340.607 67.0837 341.44 66.9701 342.5 66.8186C343.56 66.6672 344.469 66.4021 345.226 66.0234C345.984 65.6447 346.628 65.1903 347.158 64.6602C348.142 63.7514 348.975 62.5017 349.657 60.9113C350.339 59.3209 350.831 57.8819 351.134 56.5944C351.437 55.3069 351.626 54.6253 351.702 54.5496C351.929 54.1709 352.649 53.9816 353.86 53.9816H355.224C355.754 54.3602 356.019 54.7389 356.019 55.1176C356.019 55.3448 354.845 60.3054 352.497 69.9995C350.149 79.6936 348.862 84.6921 348.635 84.995C348.483 85.5252 347.726 85.7902 346.363 85.7902H344.999C344.469 85.3358 344.204 84.8814 344.204 84.427C344.204 84.1998 344.393 83.3667 344.772 81.9278C345.151 80.4888 345.34 78.9741 345.34 77.3837C345.34 75.1873 344.583 73.8241 343.068 73.294C341.553 72.7638 338.183 72.4988 332.957 72.4988H326.709L323.074 86.9263C320.65 96.3174 319.439 101.24 319.439 101.695C319.439 102.755 322.809 103.285 329.549 103.285H332.389C332.844 103.739 333.071 104.005 333.071 104.08C333.071 104.156 332.995 104.913 332.844 106.352C332.541 107.337 332.162 108.056 331.708 108.511H329.777C326.671 108.359 320.953 108.284 312.623 108.284C307.7 108.284 303.951 108.284 301.376 108.284C298.801 108.284 297.362 108.321 297.059 108.397Z" fill="#2BAB0A"/>
<path d="M367.072 4.2237C367.072 3.61782 367.262 3.08768 367.64 2.63327C368.019 2.17886 368.587 1.95165 369.344 1.95165C369.874 1.95165 370.329 2.14099 370.708 2.51967C371.086 2.82261 371.465 3.54209 371.844 4.67811C372.601 7.48031 374.153 9.63876 376.501 11.1535C377.334 11.6836 377.751 12.3652 377.751 13.1983C377.751 13.8799 377.637 14.3343 377.41 14.5615C377.183 14.7887 376.653 15.1295 375.82 15.584C372.563 17.2501 369.723 19.6358 367.299 22.7409C367.148 22.8924 366.959 23.1196 366.731 23.4225C366.504 23.7255 366.315 23.9527 366.163 24.1041C366.012 24.2556 365.823 24.3313 365.595 24.3313C365.368 24.3313 365.103 24.3692 364.8 24.4449C364.27 24.4449 363.778 24.2556 363.323 23.8769C362.869 23.4983 362.604 22.9302 362.528 22.1729C362.528 20.7339 364.308 18.4997 367.867 15.4704H348.441L329.015 15.3567C328.031 14.6751 327.539 13.9557 327.539 13.1983C327.539 12.6682 328.031 11.9108 329.015 10.9263H369.799C367.981 8.04832 367.072 5.81414 367.072 4.2237Z" fill="#2BAB0A"/>
<path d="M390.523 138.562C390.63 138.562 390.791 138.616 391.005 138.723C391.219 138.83 391.513 138.911 391.888 138.964C392.263 139.018 392.584 139.044 392.852 139.044C393.548 139.044 394.191 138.696 394.78 138C395.369 137.304 395.797 136.528 396.065 135.671C396.6 134.225 397.51 130.129 398.795 123.383C400.081 116.636 401.312 110.211 402.49 104.107C403.668 98.0024 404.257 94.9236 404.257 94.8701V94.6291H400.482C397.966 94.6291 396.627 94.5756 396.466 94.4685C396.252 94.3078 396.145 94.0401 396.145 93.6653L396.707 91.4164C396.814 91.1487 397.028 91.0148 397.35 91.0148C397.671 91.0148 398.929 90.9881 401.125 90.9345C403.695 90.9345 404.98 90.9078 404.98 90.8542C404.98 90.7471 405.221 89.4085 405.703 86.8384C406.185 84.2682 406.506 82.7154 406.667 82.18C408.648 73.3451 412.556 68.9277 418.393 68.9277C420.374 69.0348 422.007 69.6238 423.292 70.6947C424.577 71.7656 425.22 73.1845 425.22 74.9515C425.22 76.8791 424.657 78.2712 423.533 79.1279C422.409 79.9847 421.284 80.4398 420.16 80.4933C417.804 80.4933 416.626 79.3689 416.626 77.12C416.626 76.1027 416.92 75.2192 417.509 74.4696C418.098 73.7199 418.741 73.1577 419.437 72.7829L420.16 72.3813C419.303 72.06 418.5 71.8994 417.75 71.8994C417.108 71.8994 416.492 72.1671 415.903 72.7026C415.314 73.238 414.912 73.9877 414.698 74.9515C414.323 76.5043 413.895 78.5925 413.413 81.2162C412.931 83.8399 412.503 86.062 412.128 87.8825C411.753 89.703 411.566 90.6668 411.566 90.7739C411.566 90.881 413.038 90.9345 415.983 90.9345C418.393 90.9345 419.785 90.9613 420.16 91.0148C420.535 91.0684 420.829 91.229 421.043 91.4967C421.097 91.7109 421.043 92.1661 420.883 92.8621C420.722 93.5582 420.588 93.9866 420.481 94.1472C420.374 94.4149 420.133 94.5488 419.758 94.5488C419.383 94.5488 417.938 94.5756 415.421 94.6291H410.923L409.076 104.428C406.506 117.707 404.712 126.006 403.695 129.326C402.249 133.877 400.375 137.251 398.073 139.446C396.091 141.159 394.137 142.016 392.209 142.016C390.496 142.016 388.943 141.507 387.551 140.49C386.159 139.473 385.463 138.027 385.463 136.153C385.463 134.172 386.025 132.726 387.149 131.816C388.274 130.906 389.398 130.45 390.523 130.45C392.879 130.45 394.057 131.575 394.057 133.824C394.057 134.841 393.762 135.725 393.173 136.474C392.584 137.224 391.942 137.786 391.246 138.161L390.523 138.562Z" fill="#2BAB0A"/>
<path d="M427.272 100.859C427.272 100.481 427.347 100.045 427.499 99.5533C427.65 99.0612 427.877 98.8151 428.18 98.8151C428.218 98.8151 429.581 98.7205 432.269 98.5312C434.956 98.3419 436.338 98.2283 436.414 98.1905C436.868 98.1905 437.095 98.3419 437.095 98.6448C437.095 98.9097 436.149 102.866 434.256 110.513C432.363 118.008 431.417 121.888 431.417 122.153C432.136 121.775 432.685 121.415 433.064 121.074C433.972 120.393 435.278 119.201 436.982 117.497C438.685 115.794 440.01 114.639 440.957 114.033C442.471 113.011 443.909 112.5 445.272 112.5C446.408 112.5 447.297 112.86 447.941 113.579C448.585 114.298 448.925 115.32 448.963 116.645C448.963 117.592 448.831 118.387 448.566 119.03C448.301 119.674 447.941 120.147 447.487 120.45C447.032 120.753 446.635 120.961 446.294 121.074C445.954 121.188 445.613 121.245 445.272 121.245C444.515 121.245 443.909 121.037 443.455 120.62C443.001 120.204 442.774 119.655 442.774 118.973C442.774 118.027 443.076 117.251 443.682 116.645C444.288 116.04 444.894 115.642 445.499 115.453L446.408 115.282C445.954 114.828 445.499 114.601 445.045 114.601H444.818C443.606 114.715 442.414 115.188 441.24 116.021C440.067 116.854 438.685 118.065 437.095 119.655C435.505 121.245 434.256 122.399 433.347 123.119C433.423 123.157 433.707 123.213 434.199 123.289C434.691 123.365 435.146 123.478 435.562 123.63C435.978 123.781 436.471 123.933 437.038 124.084C437.606 124.235 438.117 124.5 438.572 124.879C439.026 125.258 439.442 125.598 439.821 125.901C440.199 126.204 440.521 126.696 440.786 127.378C441.051 128.059 441.165 128.684 441.127 129.251C441.127 129.895 441.032 130.671 440.843 131.58C440.654 132.488 440.54 133.245 440.502 133.851C440.502 135.365 441.013 136.122 442.035 136.122C443.853 136.122 445.329 133.87 446.465 129.365C446.54 129.062 446.919 128.911 447.6 128.911H447.827C448.433 128.911 448.736 129.081 448.736 129.422C448.736 129.611 448.679 129.876 448.566 130.217C447.014 135.554 444.78 138.223 441.865 138.223C440.162 138.223 438.78 137.731 437.72 136.747C436.66 135.763 436.13 134.343 436.13 132.488C436.13 131.807 436.187 131.22 436.3 130.728C436.414 130.236 436.471 129.781 436.471 129.365C436.471 128.532 436.206 127.813 435.676 127.207C435.146 126.601 434.483 126.166 433.688 125.901C432.893 125.636 432.25 125.428 431.758 125.276C431.265 125.125 430.925 125.068 430.735 125.106H430.622C430.168 126.696 429.77 128.229 429.429 129.706C429.089 131.182 428.824 132.28 428.634 132.999C428.445 133.718 428.275 134.419 428.123 135.1C427.972 135.782 427.839 136.236 427.726 136.463C427.612 136.69 427.48 136.936 427.328 137.201C427.177 137.466 426.969 137.636 426.704 137.712C426.212 138.053 425.682 138.223 425.114 138.223C424.47 138.223 423.978 138.034 423.637 137.655C423.297 137.277 423.126 136.955 423.126 136.69C423.126 136.312 423.827 133.283 425.227 127.605C426.628 121.926 428.01 116.342 429.373 110.853L431.474 102.62C431.511 102.128 431.379 101.825 431.076 101.711C430.773 101.598 430.035 101.503 428.862 101.427H428.578C428.199 101.427 427.953 101.427 427.839 101.427C427.726 101.427 427.593 101.37 427.442 101.257C427.291 101.143 427.234 101.011 427.272 100.859Z" fill="#2BAB0A"/>
<path d="M475.483 136.798H475.256C474.347 136.798 473.666 136.268 473.211 135.207V79.9965L473.325 24.7857C474.082 23.8011 474.802 23.3088 475.483 23.3088C476.468 23.3088 477.225 23.8769 477.755 25.0129V135.207C477.149 136.268 476.468 136.798 475.71 136.798H475.483Z" fill="#2BAB0A"/>
<path d="M529.194 69.0907C529.194 68.1061 529.725 67.3488 530.785 66.8186H603.15C604.286 67.4245 604.854 68.1819 604.854 69.0907C604.854 69.9238 604.323 70.6432 603.263 71.2491L567.138 71.3627H531.012C529.8 70.9841 529.194 70.2267 529.194 69.0907ZM529.194 91.1296C529.194 89.9935 529.8 89.2362 531.012 88.8575H603.263C604.323 89.6149 604.854 90.3722 604.854 91.1296C604.854 92.1141 604.286 92.8715 603.15 93.4016H530.785C529.725 92.8715 529.194 92.1141 529.194 91.1296Z" fill="black"/>
<path d="M645.16 75.9068C645.236 75.4524 645.349 74.8465 645.501 74.0892C645.652 73.3318 646.107 71.8929 646.864 69.7723C647.621 67.6517 648.379 65.8719 649.136 64.433C649.893 62.994 651.105 61.5929 652.771 60.2297C654.437 58.8665 656.104 58.2227 657.77 58.2984C659.436 58.3742 661.064 58.6393 662.655 59.0937C664.245 59.5481 665.381 60.2297 666.063 61.1385C666.744 62.0473 667.35 62.8804 667.88 63.6378C668.41 64.3951 668.713 65.1146 668.789 65.7962L669.016 66.5914C669.016 66.7429 669.054 66.8186 669.13 66.8186L670.38 65.569C674.924 60.722 680.263 58.2984 686.398 58.2984C687.685 58.2984 688.859 58.3742 689.919 58.5257C690.98 58.6771 691.964 58.9422 692.873 59.3209C693.782 59.6995 694.501 60.0782 695.031 60.4569C695.561 60.8356 696.129 61.29 696.735 61.8201C697.341 62.3503 697.72 62.8425 697.871 63.297C698.023 63.7514 698.326 64.2436 698.78 64.7738C699.235 65.3039 699.386 65.7583 699.235 66.137C699.083 66.5157 699.197 66.8565 699.575 67.1594C699.954 67.4624 700.03 67.7275 699.803 67.9547L700.711 66.8186C705.483 61.1385 711.125 58.2984 717.638 58.2984C721.728 58.2984 725.022 59.3209 727.522 61.3657C730.021 63.4106 731.308 66.4021 731.384 70.3403C731.384 74.2028 729.945 80.1859 727.067 88.2895C724.189 96.3932 722.75 101.24 722.75 102.831C722.826 103.891 723.015 104.61 723.318 104.989C723.621 105.368 724.189 105.557 725.022 105.557C727.143 105.557 729.112 104.421 730.93 102.149C732.747 99.877 734.224 96.7718 735.36 92.8336C735.587 92.0005 735.815 91.5082 736.042 91.3568C736.269 91.2053 736.875 91.1296 737.859 91.1296C739.374 91.1296 740.132 91.4325 740.132 92.0384C740.132 92.1141 739.98 92.6821 739.677 93.7424C739.071 95.9387 738.238 98.0972 737.178 100.218C736.118 102.338 734.376 104.459 731.952 106.58C729.529 108.7 726.916 109.723 724.114 109.647C720.554 109.647 717.979 108.624 716.389 106.58C714.798 104.535 714.003 102.414 714.003 100.218C714.003 98.7788 715.366 94.2347 718.093 86.5855C720.819 78.9362 722.22 73.1804 722.296 69.3179C722.296 64.8495 720.63 62.6153 717.297 62.6153H716.729C710.216 62.6153 704.725 66.44 700.257 74.0892L699.462 75.4524L695.713 90.6752C693.214 100.596 691.775 105.936 691.396 106.693C690.412 108.738 688.783 109.76 686.511 109.76C685.527 109.76 684.731 109.495 684.126 108.965C683.52 108.435 683.103 107.981 682.876 107.602C682.649 107.223 682.535 106.845 682.535 106.466C682.535 105.633 683.823 100.218 686.398 90.2207L690.487 73.6348C690.714 72.4988 690.828 71.0598 690.828 69.3179C690.828 64.8495 689.162 62.6153 685.83 62.6153H685.262C678.748 62.6153 673.258 66.44 668.789 74.0892L667.994 75.4524L664.245 90.6752C661.746 100.596 660.307 105.936 659.928 106.693C658.944 108.738 657.315 109.76 655.043 109.76C654.059 109.76 653.263 109.533 652.658 109.079C652.052 108.624 651.635 108.17 651.408 107.716C651.181 107.261 651.105 106.882 651.181 106.58C651.181 105.595 652.62 99.3847 655.498 87.9487C658.451 76.2855 659.928 70.1888 659.928 69.6587C660.155 68.5227 660.269 67.5002 660.269 66.5914C660.269 63.865 659.322 62.5017 657.429 62.5017C655.763 62.5017 654.362 63.562 653.226 65.6826C652.09 67.8032 651.219 70.1131 650.613 72.6124C650.007 75.1116 649.552 76.4748 649.25 76.7021C649.098 76.8535 648.492 76.9293 647.432 76.9293H645.841C645.387 76.4748 645.16 76.134 645.16 75.9068Z" fill="black"/>
<path d="M746.266 90.6752C746.266 83.026 749.144 75.7554 754.9 68.8636C760.656 61.9717 767.131 58.4879 774.326 58.4121C778.188 58.4121 781.596 60.2676 784.55 63.9787C785.762 61.7066 787.504 60.5706 789.776 60.5706C790.76 60.5706 791.631 60.8735 792.389 61.4794C793.146 62.0853 793.525 62.8426 793.525 63.7514C793.525 64.736 792.124 70.7948 789.321 81.9278C786.519 93.0609 785.08 99.3469 785.004 100.786C785.004 102.679 785.27 103.929 785.8 104.535C786.33 105.141 787.125 105.481 788.185 105.557C788.867 105.481 789.624 105.141 790.457 104.535C792.048 103.02 793.6 99.3848 795.115 93.6289C795.57 92.1142 795.948 91.319 796.251 91.2432C796.403 91.1675 796.781 91.1296 797.387 91.1296H797.842C799.281 91.1296 800 91.4705 800 92.1521C800 92.6065 799.811 93.6289 799.432 95.2193C799.053 96.8098 798.296 98.8546 797.16 101.354C796.024 103.853 794.812 105.746 793.525 107.034C792.54 108.019 791.328 108.814 789.889 109.42C789.284 109.571 788.375 109.647 787.163 109.647C784.588 109.647 782.43 109.079 780.688 107.943C778.946 106.807 777.81 105.633 777.28 104.421L776.598 102.717C776.522 102.641 776.371 102.679 776.144 102.831C775.992 102.982 775.841 103.134 775.689 103.285C771.221 107.526 766.677 109.647 762.057 109.647C757.891 109.647 754.218 108.132 751.037 105.103C747.856 102.073 746.266 97.2642 746.266 90.6752ZM782.392 71.2492C782.392 70.7948 782.202 69.9617 781.824 68.75C781.445 67.5382 780.574 66.2128 779.211 64.7739C777.848 63.3349 776.106 62.5776 773.985 62.5018C771.334 62.5018 768.797 63.6757 766.374 66.0235C763.95 68.3713 762.057 71.4385 760.694 75.2253C758.497 81.2084 756.945 87.4186 756.036 93.8561C756.036 94.0833 756.036 94.4999 756.036 95.1057C756.036 95.7116 755.998 96.166 755.922 96.469C755.922 99.877 756.604 102.225 757.967 103.512C759.33 104.8 760.959 105.481 762.852 105.557C765.73 105.557 768.57 104.308 771.372 101.808C774.174 99.309 775.841 97.3778 776.371 96.0146C776.522 95.7116 777.545 91.6598 779.438 83.8591C781.331 76.0584 782.316 71.8551 782.392 71.2492Z" fill="black"/>
<rect x="529" width="279" height="168" fill="#F4F4F4"/>
</svg>
