<svg width="257" height="154" viewBox="0 0 257 154" fill="none" xmlns="http://www.w3.org/2000/svg">
<path d="M107 125L157 153.868V96.1325L107 125ZM257 120L152 120V130H257V120Z" fill="#2CAC0B"/>
<path d="M1.38094 76.1138C0.460312 76.1138 0 75.8431 0 75.3015C0 75.1932 0.0812315 74.8141 0.243695 74.1643C0.460312 73.2978 0.67693 72.8104 0.893547 72.7021C1.11016 72.5938 1.73294 72.5126 2.76187 72.4584C4.22404 72.4584 5.84867 72.3772 7.63576 72.2147C8.39393 72.0523 8.90839 71.7273 9.17916 71.2399C9.28747 70.9692 11.21 63.3605 14.9466 48.4139C18.6833 33.4673 20.5787 25.8857 20.6328 25.6691C20.6328 25.29 20.5245 25.1004 20.3079 25.1004C19.8747 24.938 18.4396 24.8026 16.0026 24.6943H13.4844C13.1595 24.3694 12.997 24.1527 12.997 24.0444C12.997 23.9361 13.0512 23.4758 13.1595 22.6635C13.3761 21.7429 13.6469 21.1742 13.9718 20.9576H57.7556C58.1347 21.1742 58.3242 21.4721 58.3242 21.8512C58.3242 22.1219 57.9722 25.1546 57.2682 30.9491C56.5642 36.7436 56.1851 39.7221 56.131 39.8846C56.0227 40.2637 55.4811 40.4532 54.5064 40.4532H53.5316C53.1525 40.1824 52.963 39.8304 52.963 39.3972C52.963 39.343 53.0442 38.6932 53.2067 37.4476C53.3691 36.2021 53.4504 34.767 53.4504 33.1424C53.4504 31.5177 53.2608 30.1909 52.8817 29.162C52.5027 28.1331 51.9882 27.2937 51.3383 26.6438C50.6885 25.994 49.6866 25.5607 48.3328 25.3441C46.9789 25.1275 45.598 24.938 44.19 24.7755C42.7819 24.613 40.8324 24.586 38.3413 24.6943H36.473C32.0323 24.7484 29.6766 24.8297 29.4058 24.938C29.135 25.0463 28.9455 25.2629 28.8372 25.5878C28.783 25.642 27.8624 29.1891 26.0753 36.2292L23.4759 46.708H27.9437C28.1061 46.708 28.7289 46.708 29.812 46.708C30.8951 46.708 31.6532 46.6809 32.0865 46.6268C32.5197 46.5726 33.1154 46.4914 33.8736 46.3831C34.6317 46.2748 35.2816 46.0852 35.8231 45.8145C36.3647 45.5437 36.825 45.2188 37.204 44.8397C37.9081 44.1898 38.5038 43.2963 38.9911 42.1591C39.4785 41.0218 39.8305 39.9929 40.0472 39.0723C40.2638 38.1516 40.3992 37.6642 40.4533 37.6101C40.6158 37.3393 41.1302 37.2039 41.9967 37.2039H42.9715C43.3506 37.4747 43.5401 37.7455 43.5401 38.0163C43.5401 38.1787 42.7007 41.7258 41.0219 48.6576C39.3431 55.5893 38.4225 59.1635 38.2601 59.3801C38.1517 59.7592 37.6102 59.9488 36.6354 59.9488H35.6606C35.2816 59.6238 35.092 59.2989 35.092 58.974C35.092 58.8115 35.2274 58.2158 35.4982 57.1869C35.769 56.158 35.9043 55.0749 35.9043 53.9376C35.9043 52.3672 35.3628 51.3924 34.2797 51.0133C33.1966 50.6342 30.7868 50.4447 27.0501 50.4447H22.5824L19.983 60.7611C18.25 67.4762 17.3835 70.9963 17.3835 71.3212C17.3835 72.0793 19.7934 72.4584 24.6132 72.4584H26.6439C26.9689 72.7833 27.1313 72.9729 27.1313 73.027C27.1313 73.0812 27.0772 73.6227 26.9689 74.6517C26.7523 75.3557 26.4815 75.8701 26.1566 76.1951H24.7756C22.5553 76.0868 18.4666 76.0326 12.5097 76.0326C8.98962 76.0326 6.30898 76.0326 4.46773 76.0326C2.62649 76.0326 1.59755 76.0597 1.38094 76.1138Z" fill="#2CAC0B"/>
<path d="M51.4439 1.62465C51.4439 1.19141 51.5793 0.812334 51.8501 0.487408C52.1209 0.162482 52.527 1.84774e-05 53.0686 1.84774e-05C53.4476 1.84774e-05 53.7726 0.135404 54.0433 0.406176C54.3141 0.622794 54.5849 1.13726 54.8556 1.94958C55.3972 3.95329 56.5074 5.49669 58.1861 6.57977C58.7818 6.95885 59.0797 7.44624 59.0797 8.04194C59.0797 8.52933 58.9985 8.85426 58.836 9.01672C58.6735 9.17918 58.2945 9.42288 57.6988 9.7478C55.3701 10.9392 53.3393 12.6451 51.6064 14.8654C51.4981 14.9737 51.3627 15.1362 51.2002 15.3528C51.0378 15.5694 50.9024 15.7319 50.7941 15.8402C50.6858 15.9485 50.5504 16.0026 50.3879 16.0026C50.2255 16.0026 50.0359 16.0297 49.8193 16.0839C49.4402 16.0839 49.0882 15.9485 48.7633 15.6777C48.4384 15.4069 48.2488 15.0008 48.1947 14.4592C48.1947 13.4303 49.4673 11.8327 52.0125 9.66657H38.122L24.2314 9.58534C23.5274 9.09795 23.1754 8.58348 23.1754 8.04194C23.1754 7.66286 23.5274 7.12132 24.2314 6.41731H53.3935C52.0938 4.35944 51.4439 2.76189 51.4439 1.62465Z" fill="#2CAC0B"/>
<path d="M68.2122 97.6837C68.2888 97.6837 68.4036 97.722 68.5568 97.7985C68.7099 97.8751 68.9205 97.9325 69.1885 97.9708C69.4565 98.0091 69.6862 98.0283 69.8777 98.0283C70.3754 98.0283 70.8349 97.7794 71.256 97.2817C71.6772 96.7839 71.9835 96.2288 72.1749 95.6162C72.5578 94.5824 73.2087 91.6535 74.1275 86.8293C75.0464 82.0051 75.927 77.4106 76.7694 73.0459C77.6117 68.6812 78.0328 66.4797 78.0328 66.4414V66.2691H75.3336C73.5341 66.2691 72.5769 66.2308 72.4621 66.1542C72.3089 66.0394 72.2323 65.8479 72.2323 65.5799L72.6344 63.9719C72.7109 63.7804 72.8641 63.6847 73.0938 63.6847C73.3235 63.6847 74.2233 63.6656 75.793 63.6273C77.6308 63.6273 78.5497 63.6081 78.5497 63.5698C78.5497 63.4933 78.722 62.5361 79.0666 60.6983C79.4112 58.8605 79.6409 57.7502 79.7558 57.3673C81.1724 51.05 83.9673 47.8913 88.1406 47.8913C89.5573 47.9678 90.725 48.389 91.6439 49.1547C92.5628 49.9205 93.0222 50.9351 93.0222 52.1986C93.0222 53.5769 92.6202 54.5724 91.8162 55.185C91.0122 55.7976 90.2081 56.123 89.4041 56.1613C87.7195 56.1613 86.8772 55.3573 86.8772 53.7492C86.8772 53.0217 87.0877 52.39 87.5089 51.854C87.9301 51.318 88.3895 50.9159 88.8872 50.6479L89.4041 50.3608C88.7915 50.1311 88.2172 50.0162 87.6812 50.0162C87.2217 50.0162 86.7814 50.2076 86.3603 50.5905C85.9391 50.9734 85.652 51.5094 85.4988 52.1986C85.2308 53.3089 84.9245 54.8021 84.5799 56.6782C84.2353 58.5542 83.9291 60.1431 83.661 61.4449C83.393 62.7467 83.259 63.4358 83.259 63.5124C83.259 63.589 84.3119 63.6273 86.4177 63.6273C88.1406 63.6273 89.1361 63.6464 89.4041 63.6847C89.6721 63.723 89.8827 63.8379 90.0358 64.0293C90.0741 64.1824 90.0358 64.5079 89.921 65.0056C89.8061 65.5033 89.7104 65.8096 89.6338 65.9245C89.5573 66.1159 89.385 66.2117 89.117 66.2117C88.8489 66.2117 87.8152 66.2308 86.0157 66.2691H82.7996L81.4787 73.2756C79.6409 82.7708 78.3583 88.7053 77.6308 91.0791C76.5971 94.3336 75.257 96.7456 73.6107 98.3154C72.194 99.5406 70.7966 100.153 69.4182 100.153C68.193 100.153 67.0827 99.7895 66.0873 99.062C65.0918 98.3346 64.5941 97.3008 64.5941 95.9608C64.5941 94.5441 64.9961 93.5104 65.8001 92.8595C66.6041 92.2086 67.4082 91.8832 68.2122 91.8832C69.8968 91.8832 70.7391 92.6872 70.7391 94.2953C70.7391 95.0227 70.5286 95.6545 70.1074 96.1905C69.6862 96.7265 69.2268 97.1285 68.7291 97.3965L68.2122 97.6837Z" fill="#2CAC0B"/>
<path d="M94.4894 70.7241C94.4894 70.4534 94.5436 70.1421 94.6519 69.7902C94.7601 69.4383 94.9226 69.2623 95.1391 69.2623C95.1662 69.2623 96.1407 69.1947 98.0626 69.0593C99.9845 68.924 100.972 68.8428 101.027 68.8157C101.351 68.8157 101.514 68.924 101.514 69.1405C101.514 69.33 100.837 72.1587 99.4837 77.6267C98.1302 82.9863 97.4535 85.7609 97.4535 85.9504C97.9678 85.6797 98.3603 85.4225 98.631 85.1789C99.2807 84.6917 100.215 83.839 101.433 82.6209C102.651 81.4028 103.598 80.5772 104.275 80.1441C105.358 79.4132 106.386 79.0478 107.361 79.0478C108.173 79.0478 108.809 79.3049 109.269 79.8192C109.729 80.3336 109.973 81.0644 110 82.0118C110 82.6886 109.905 83.257 109.716 83.7172C109.526 84.1774 109.269 84.5157 108.944 84.7323C108.619 84.9488 108.335 85.0977 108.092 85.1789C107.848 85.2601 107.604 85.3007 107.361 85.3007C106.819 85.3007 106.386 85.1518 106.061 84.8541C105.737 84.5563 105.574 84.1638 105.574 83.6766C105.574 82.9999 105.791 82.4449 106.224 82.0118C106.657 81.5787 107.09 81.2945 107.523 81.1592L108.173 81.0373C107.848 80.7125 107.523 80.5501 107.198 80.5501H107.036C106.17 80.6313 105.317 80.9697 104.478 81.5652C103.639 82.1607 102.651 83.0269 101.514 84.1638C100.377 85.3007 99.4837 86.1263 98.834 86.6406C98.8882 86.6677 99.0912 86.7083 99.4431 86.7624C99.795 86.8166 100.12 86.8978 100.418 87.0061C100.715 87.1143 101.067 87.2226 101.473 87.3309C101.879 87.4392 102.245 87.6287 102.57 87.8993C102.894 88.17 103.192 88.4137 103.463 88.6302C103.734 88.8468 103.964 89.1987 104.153 89.6859C104.343 90.1731 104.424 90.6198 104.397 91.0258C104.397 91.486 104.329 92.0409 104.194 92.6906C104.058 93.3402 103.977 93.8816 103.95 94.3147C103.95 95.3975 104.315 95.9388 105.046 95.9388C106.346 95.9388 107.401 94.3282 108.213 91.107C108.268 90.8905 108.538 90.7822 109.026 90.7822H109.188C109.621 90.7822 109.838 90.904 109.838 91.1476C109.838 91.283 109.797 91.4724 109.716 91.7161C108.606 95.5328 107.009 97.4412 104.925 97.4412C103.706 97.4412 102.718 97.0893 101.96 96.3855C101.203 95.6817 100.824 94.6666 100.824 93.3402C100.824 92.853 100.864 92.4334 100.945 92.0815C101.027 91.7296 101.067 91.4048 101.067 91.107C101.067 90.5115 100.878 89.9972 100.499 89.5641C100.12 89.131 99.6461 88.8197 99.0776 88.6302C98.5092 88.4407 98.049 88.2918 97.6971 88.1836C97.3452 88.0753 97.1016 88.0347 96.9663 88.0618H96.8851C96.5602 89.1987 96.276 90.2949 96.0324 91.3506C95.7888 92.4063 95.5993 93.1913 95.4639 93.7056C95.3286 94.22 95.2068 94.7207 95.0985 95.208C94.9902 95.6952 94.8955 96.02 94.8143 96.1825C94.7331 96.3449 94.6383 96.5208 94.53 96.7103C94.4218 96.8998 94.2729 97.0216 94.0834 97.0757C93.7315 97.3194 93.3525 97.4412 92.9465 97.4412C92.4863 97.4412 92.1344 97.3058 91.8908 97.0351C91.6472 96.7644 91.5254 96.5344 91.5254 96.3449C91.5254 96.0742 92.0262 93.9087 93.0277 89.8483C94.0293 85.788 95.0173 81.7953 95.9918 77.8703L97.4941 71.9828C97.5212 71.6309 97.4264 71.4143 97.2099 71.3331C96.9933 71.2519 96.4655 71.1842 95.6263 71.1301H95.4233C95.1526 71.1301 94.9767 71.1301 94.8955 71.1301C94.8143 71.1301 94.7195 71.0895 94.6113 71.0083C94.503 70.9271 94.4624 70.8323 94.4894 70.7241Z" fill="#2CAC0B"/>
</svg>
