<svg width="150" height="104" viewBox="0 0 150 104" fill="none" xmlns="http://www.w3.org/2000/svg">
<path d="M1.66889 99.3427H1.502C0.834446 99.3427 0.333778 98.9532 0 98.1744V57.6204L0.0834446 17.0663C0.639742 16.3431 1.16822 15.9815 1.66889 15.9815C2.39208 15.9815 2.94838 16.3987 3.33778 17.2332V98.1744C2.89275 98.9532 2.39208 99.3427 1.83578 99.3427H1.66889Z" fill="#2CAC0B"/>
<path d="M17.273 78.4815C16.3273 78.4815 15.8545 78.2033 15.8545 77.6471C15.8545 77.5358 15.9379 77.1464 16.1048 76.4788C16.3273 75.5888 16.5498 75.0881 16.7724 74.9768C16.9949 74.8656 17.6346 74.7821 18.6916 74.7265C20.1936 74.7265 21.8625 74.643 23.6983 74.4762C24.4771 74.3093 25.0056 73.9755 25.2837 73.4748C25.395 73.1967 27.3698 65.3807 31.2083 50.0269C35.0467 34.6731 36.9938 26.8849 37.0494 26.6624C37.0494 26.273 36.9381 26.0783 36.7156 26.0783C36.2706 25.9114 34.7964 25.7723 32.293 25.6611H29.7063C29.3725 25.3273 29.2056 25.1048 29.2056 24.9935C29.2056 24.8823 29.2612 24.4094 29.3725 23.575C29.595 22.6292 29.8732 22.0451 30.2069 21.8226H75.1836C75.573 22.0451 75.7677 22.3511 75.7677 22.7405C75.7677 23.0187 75.4061 26.1339 74.6829 32.0863C73.9597 38.0387 73.5703 41.0983 73.5147 41.2652C73.4034 41.6546 72.8471 41.8493 71.8458 41.8493H70.8444C70.455 41.5712 70.2603 41.2096 70.2603 40.7645C70.2603 40.7089 70.3438 40.0414 70.5107 38.7619C70.6776 37.4824 70.761 36.0082 70.761 34.3393C70.761 32.6704 70.5663 31.3075 70.1769 30.2505C69.7875 29.1936 69.259 28.3313 68.5914 27.6637C67.9239 26.9962 66.8947 26.5511 65.504 26.3286C64.1133 26.1061 62.6947 25.9114 61.2483 25.7445C59.8019 25.5776 57.7993 25.5498 55.2403 25.6611H53.3211C48.7594 25.7167 46.3396 25.8001 46.0614 25.9114C45.7833 26.0227 45.5886 26.2452 45.4773 26.579C45.4217 26.6346 44.476 30.2783 42.6402 37.5102L39.9699 48.2746H44.5594C44.7263 48.2746 45.366 48.2746 46.4786 48.2746C47.5912 48.2746 48.37 48.2467 48.8151 48.1911C49.2601 48.1355 49.872 48.052 50.6509 47.9408C51.4297 47.8295 52.0972 47.6348 52.6535 47.3567C53.2098 47.0785 53.6827 46.7447 54.0721 46.3553C54.7953 45.6878 55.4072 44.7699 55.9079 43.6017C56.4085 42.4334 56.7701 41.3765 56.9926 40.4308C57.2152 39.4851 57.3542 38.9844 57.4099 38.9288C57.5768 38.6506 58.1052 38.5115 58.9953 38.5115H59.9967C60.3861 38.7897 60.5808 39.0678 60.5808 39.346C60.5808 39.5129 59.7185 43.1566 57.994 50.2772C56.2695 57.3978 55.3238 61.0694 55.1569 61.2919C55.0456 61.6813 54.4893 61.876 53.488 61.876H52.4866C52.0972 61.5422 51.9025 61.2085 51.9025 60.8747C51.9025 60.7078 52.0416 60.0959 52.3197 59.0389C52.5979 57.9819 52.737 56.8693 52.737 55.7011C52.737 54.0879 52.1807 53.0865 51.0681 52.6971C49.9555 52.3077 47.48 52.113 43.6415 52.113H39.0521L36.3818 62.7105C34.6017 69.6086 33.7116 73.2245 33.7116 73.5583C33.7116 74.3371 36.1871 74.7265 41.1382 74.7265H43.2243C43.5581 75.0603 43.725 75.255 43.725 75.3106C43.725 75.3662 43.6693 75.9225 43.5581 76.9795C43.3355 77.7027 43.0574 78.2312 42.7236 78.5649H41.3051C39.0242 78.4537 34.8242 78.3981 28.7049 78.3981C25.089 78.3981 22.3353 78.3981 20.4439 78.3981C18.5525 78.3981 17.4955 78.4259 17.273 78.4815Z" fill="#2CAC0B"/>
<path d="M68.6999 1.96278C68.6999 1.51774 68.839 1.12833 69.1171 0.794556C69.3953 0.460777 69.8125 0.293888 70.3688 0.293888C70.7582 0.293888 71.092 0.432962 71.3701 0.711111C71.6483 0.93363 71.9264 1.46211 72.2046 2.29656C72.7609 4.35486 73.9013 5.94031 75.6258 7.0529C76.2377 7.44231 76.5437 7.94298 76.5437 8.5549C76.5437 9.05557 76.4603 9.38935 76.2934 9.55624C76.1265 9.72313 75.7371 9.97346 75.1251 10.3072C72.7331 11.5311 70.647 13.2834 68.8668 15.5642C68.7555 15.6755 68.6165 15.8424 68.4496 16.0649C68.2827 16.2874 68.1436 16.4543 68.0324 16.5656C67.9211 16.6768 67.782 16.7325 67.6151 16.7325C67.4482 16.7325 67.2535 16.7603 67.031 16.8159C66.6416 16.8159 66.28 16.6768 65.9462 16.3987C65.6125 16.1205 65.4178 15.7033 65.3621 15.147C65.3621 14.0901 66.6694 12.449 69.284 10.2238H55.015L40.746 10.1404C40.0228 9.63968 39.6612 9.1112 39.6612 8.5549C39.6612 8.16549 40.0228 7.6092 40.746 6.88601H70.7026C69.3675 4.77208 68.6999 3.131 68.6999 1.96278Z" fill="#2CAC0B"/>
<path d="M85.9251 100.639C86.0037 100.639 86.1217 100.678 86.2791 100.757C86.4364 100.836 86.6527 100.895 86.928 100.934C87.2033 100.973 87.4393 100.993 87.6359 100.993C88.1472 100.993 88.6192 100.737 89.0518 100.226C89.4845 99.7146 89.7991 99.1443 89.9958 98.515C90.3891 97.4531 91.0577 94.4443 92.0016 89.4887C92.9455 84.5331 93.8501 79.8135 94.7154 75.3299C95.5806 70.8462 96.0133 68.5847 96.0133 68.5454V68.3684H93.2405C91.392 68.3684 90.4087 68.3291 90.2907 68.2504C90.1334 68.1324 90.0548 67.9358 90.0548 67.6605L90.4677 66.0086C90.5464 65.8119 90.7037 65.7136 90.9397 65.7136C91.1757 65.7136 92.0999 65.694 93.7125 65.6546C95.6003 65.6546 96.5442 65.635 96.5442 65.5956C96.5442 65.517 96.7212 64.5337 97.0752 62.6459C97.4292 60.758 97.6651 59.6174 97.7831 59.2241C99.2384 52.7346 102.109 49.4899 106.396 49.4899C107.852 49.5686 109.051 50.0012 109.995 50.7878C110.939 51.5744 111.411 52.6167 111.411 53.9146C111.411 55.3304 110.998 56.353 110.172 56.9823C109.346 57.6116 108.52 57.9459 107.694 57.9852C105.964 57.9852 105.099 57.1593 105.099 55.5074C105.099 54.7602 105.315 54.1112 105.748 53.5606C106.18 53.01 106.652 52.597 107.163 52.3217L107.694 52.0267C107.065 51.7907 106.475 51.6727 105.924 51.6727C105.453 51.6727 105 51.8694 104.568 52.2627C104.135 52.656 103.84 53.2066 103.683 53.9146C103.407 55.0551 103.093 56.589 102.739 58.5162C102.385 60.4434 102.07 62.0756 101.795 63.4128C101.52 64.75 101.382 65.458 101.382 65.5366C101.382 65.6153 102.463 65.6546 104.627 65.6546C106.396 65.6546 107.419 65.6743 107.694 65.7136C107.97 65.753 108.186 65.8709 108.343 66.0676C108.383 66.2249 108.343 66.5592 108.225 67.0705C108.107 67.5818 108.009 67.8965 107.93 68.0144C107.852 68.2111 107.675 68.3094 107.399 68.3094C107.124 68.3094 106.062 68.3291 104.214 68.3684H100.91L99.553 75.5658C97.6651 85.3197 96.3476 91.4159 95.6003 93.8544C94.5384 97.1975 93.1618 99.6753 91.4706 101.288C90.0154 102.546 88.5799 103.176 87.164 103.176C85.9054 103.176 84.7648 102.802 83.7423 102.055C82.7197 101.307 82.2084 100.246 82.2084 98.869C82.2084 97.4138 82.6213 96.3519 83.4473 95.6833C84.2732 95.0146 85.0991 94.6803 85.9251 94.6803C87.6556 94.6803 88.5209 95.5063 88.5209 97.1581C88.5209 97.9054 88.3046 98.5544 87.8719 99.105C87.4393 99.6556 86.9673 100.069 86.456 100.344L85.9251 100.639Z" fill="#2CAC0B"/>
<path d="M112.918 72.9447C112.918 72.6667 112.974 72.3469 113.085 71.9854C113.196 71.6239 113.363 71.4432 113.586 71.4432C113.613 71.4432 114.614 71.3737 116.589 71.2346C118.563 71.0956 119.578 71.0122 119.633 70.9844C119.967 70.9844 120.134 71.0956 120.134 71.318C120.134 71.5127 119.439 74.4185 118.049 80.0354C116.658 85.5411 115.963 88.3912 115.963 88.5859C116.491 88.3078 116.895 88.0436 117.173 87.7934C117.84 87.2929 118.799 86.417 120.051 85.1657C121.302 83.9144 122.275 83.0663 122.97 82.6214C124.083 81.8706 125.139 81.4952 126.14 81.4952C126.974 81.4952 127.628 81.7594 128.101 82.2877C128.573 82.816 128.824 83.5668 128.851 84.54C128.851 85.2352 128.754 85.8191 128.559 86.2918C128.365 86.7645 128.101 87.1121 127.767 87.3346C127.433 87.557 127.141 87.71 126.891 87.7934C126.641 87.8768 126.39 87.9185 126.14 87.9185C125.584 87.9185 125.139 87.7656 124.805 87.4597C124.472 87.1538 124.305 86.7506 124.305 86.2501C124.305 85.555 124.527 84.9849 124.972 84.54C125.417 84.0951 125.862 83.8032 126.307 83.6641L126.974 83.539C126.641 83.2053 126.307 83.0385 125.973 83.0385H125.807C124.917 83.1219 124.041 83.4695 123.179 84.0812C122.317 84.693 121.302 85.5828 120.134 86.7506C118.966 87.9185 118.049 88.7666 117.381 89.2949C117.437 89.3227 117.645 89.3644 118.007 89.4201C118.368 89.4757 118.702 89.5591 119.008 89.6703C119.314 89.7815 119.675 89.8928 120.092 90.004C120.509 90.1152 120.885 90.3099 121.218 90.5879C121.552 90.866 121.858 91.1163 122.136 91.3387C122.414 91.5612 122.65 91.9226 122.845 92.4232C123.04 92.9237 123.123 93.3825 123.095 93.7996C123.095 94.2723 123.026 94.8423 122.887 95.5097C122.748 96.177 122.664 96.7332 122.637 97.1781C122.637 98.2903 123.012 98.8465 123.763 98.8465C125.097 98.8465 126.182 97.192 127.016 93.883C127.072 93.6605 127.35 93.5493 127.85 93.5493H128.017C128.462 93.5493 128.684 93.6744 128.684 93.9247C128.684 94.0637 128.643 94.2584 128.559 94.5086C127.419 98.4294 125.779 100.39 123.638 100.39C122.386 100.39 121.371 100.028 120.593 99.3053C119.814 98.5823 119.425 97.5395 119.425 96.177C119.425 95.6765 119.467 95.2455 119.55 94.884C119.633 94.5225 119.675 94.1889 119.675 93.883C119.675 93.2713 119.481 92.7429 119.091 92.298C118.702 91.8531 118.215 91.5334 117.631 91.3387C117.047 91.1441 116.575 90.9911 116.213 90.8799C115.852 90.7687 115.602 90.727 115.463 90.7548H115.379C115.045 91.9226 114.753 93.0488 114.503 94.1333C114.253 95.2177 114.058 96.0241 113.919 96.5524C113.78 97.0807 113.655 97.5952 113.544 98.0957C113.433 98.5962 113.335 98.9299 113.252 99.0967C113.168 99.2635 113.071 99.4443 112.96 99.6389C112.849 99.8336 112.696 99.9587 112.501 100.014C112.14 100.265 111.75 100.39 111.333 100.39C110.861 100.39 110.499 100.251 110.249 99.9726C109.999 99.6945 109.873 99.4582 109.873 99.2635C109.873 98.9855 110.388 96.761 111.417 92.59C112.446 88.419 113.46 84.3176 114.461 80.2856L116.005 74.2377C116.033 73.8762 115.935 73.6538 115.713 73.5704C115.49 73.487 114.948 73.4174 114.086 73.3618H113.878C113.599 73.3618 113.419 73.3618 113.335 73.3618C113.252 73.3618 113.155 73.3201 113.043 73.2367C112.932 73.1533 112.89 73.056 112.918 72.9447Z" fill="#2CAC0B"/>
<path d="M148.331 99.3427H148.164C147.497 99.3427 146.996 98.9532 146.662 98.1744V57.6204L146.746 17.0663C147.302 16.3431 147.83 15.9815 148.331 15.9815C149.054 15.9815 149.611 16.3987 150 17.2332V98.1744C149.555 98.9532 149.054 99.3427 148.498 99.3427H148.331Z" fill="#2CAC0B"/>
</svg>
