<svg width="147" height="122" viewBox="0 0 147 122" fill="none" xmlns="http://www.w3.org/2000/svg">
<path d="M1.96972 116.903H1.77275C0.984859 116.903 0.393943 116.443 0 115.524V67.6598L0.0984859 19.7956C0.755058 18.9421 1.3788 18.5153 1.96972 18.5153C2.82326 18.5153 3.47983 19.0078 3.93943 19.9926V115.524C3.41418 116.443 2.82326 116.903 2.16669 116.903H1.96972Z" fill="#D46FA0"/>
<path d="M20.3866 92.2812C19.2704 92.2812 18.7123 91.9529 18.7123 91.2963C18.7123 91.165 18.8108 90.7054 19.0078 89.9175C19.2704 88.867 19.533 88.2761 19.7957 88.1447C20.0583 88.0134 20.8133 87.9149 22.0608 87.8493C23.8336 87.8493 25.8033 87.7508 27.97 87.5538C28.8892 87.3569 29.5129 86.9629 29.8412 86.372C29.9725 86.0437 32.3034 76.8189 36.8337 58.6975C41.3641 40.5761 43.6621 31.3841 43.7277 31.1214C43.7277 30.6618 43.5964 30.432 43.3338 30.432C42.8085 30.2351 41.0686 30.0709 38.114 29.9396H35.061C34.667 29.5457 34.47 29.283 34.47 29.1517C34.47 29.0204 34.5357 28.4623 34.667 27.4775C34.9296 26.3613 35.2579 25.6719 35.6519 25.4093H88.7358C89.1954 25.6719 89.4252 26.033 89.4252 26.4926C89.4252 26.8209 88.9984 30.4977 88.1448 37.523C87.2913 44.5483 86.8317 48.1595 86.766 48.3565C86.6347 48.8161 85.9782 49.0459 84.7963 49.0459H83.6145C83.1549 48.7176 82.9251 48.2908 82.9251 47.7655C82.9251 47.6999 83.0236 46.912 83.2206 45.4019C83.4175 43.8918 83.516 42.1518 83.516 40.1821C83.516 38.2124 83.2862 36.6038 82.8266 35.3563C82.367 34.1088 81.7433 33.0911 80.9554 32.3033C80.1675 31.5154 78.9528 30.9901 77.3114 30.7275C75.67 30.4649 73.9957 30.2351 72.2886 30.0381C70.5815 29.8411 68.2179 29.8083 65.1976 29.9396H62.9325C57.5486 30.0053 54.6925 30.1037 54.3642 30.2351C54.0359 30.3664 53.8061 30.629 53.6748 31.0229C53.6091 31.0886 52.493 35.3892 50.3263 43.9246L47.1747 56.6293H52.5914C52.7884 56.6293 53.5435 56.6293 54.8566 56.6293C56.1698 56.6293 57.089 56.5964 57.6142 56.5308C58.1395 56.4651 58.8617 56.3666 59.7809 56.2353C60.7001 56.104 61.488 55.8742 62.1446 55.5459C62.8011 55.2176 63.3592 54.8237 63.8188 54.3641C64.6724 53.5762 65.3946 52.4929 65.9855 51.1141C66.5764 49.7353 67.0032 48.4878 67.2658 47.3716C67.5285 46.2554 67.6926 45.6645 67.7583 45.5989C67.9552 45.2706 68.579 45.1064 69.6295 45.1064H70.8113C71.2709 45.4347 71.5007 45.763 71.5007 46.0913C71.5007 46.2883 70.483 50.5888 68.4477 58.9929C66.4123 67.3971 65.2961 71.7304 65.0992 71.9931C64.9678 72.4527 64.3113 72.6825 63.1294 72.6825H61.9476C61.488 72.2885 61.2582 71.8946 61.2582 71.5006C61.2582 71.3037 61.4223 70.5814 61.7506 69.3339C62.0789 68.0865 62.2431 66.7733 62.2431 65.3945C62.2431 63.4905 61.5865 62.3086 60.2733 61.849C58.9602 61.3894 56.0385 61.1596 51.5081 61.1596H46.0914L42.9398 73.6673C40.8388 81.8088 39.7883 86.0765 39.7883 86.4705C39.7883 87.3897 42.71 87.8493 48.5535 87.8493H51.0157C51.4096 88.2432 51.6066 88.473 51.6066 88.5387C51.6066 88.6043 51.5409 89.2609 51.4096 90.5084C51.147 91.362 50.8187 91.9857 50.4248 92.3796H48.7505C46.0586 92.2483 41.1014 92.1827 33.8791 92.1827C29.6114 92.1827 26.3614 92.1827 24.129 92.1827C21.8967 92.1827 20.6492 92.2155 20.3866 92.2812Z" fill="#D46FA0"/>
<path d="M81.0834 1.96964C81.0834 1.44438 81.2476 0.984778 81.5758 0.590835C81.9041 0.196891 82.3966 -8.06153e-05 83.0531 -8.06153e-05C83.5127 -8.06153e-05 83.9067 0.164063 84.235 0.492349C84.5633 0.754978 84.8915 1.37872 85.2198 2.36358C85.8764 4.7929 87.2224 6.66413 89.2577 7.97728C89.98 8.43688 90.3411 9.02779 90.3411 9.75002C90.3411 10.3409 90.2426 10.7349 90.0456 10.9319C89.8487 11.1288 89.3891 11.4243 88.6668 11.8182C85.8436 13.2627 83.3814 15.3309 81.2804 18.0228C81.1491 18.1541 80.9849 18.3511 80.788 18.6137C80.591 18.8764 80.4268 19.0733 80.2955 19.2047C80.1642 19.336 80.0001 19.4016 79.8031 19.4016C79.6061 19.4016 79.3763 19.4345 79.1137 19.5001C78.6541 19.5001 78.2273 19.336 77.8334 19.0077C77.4394 18.6794 77.2096 18.187 77.144 17.5304C77.144 16.2829 78.6869 14.346 81.7728 11.7197H64.9317L48.0906 11.6213C47.2371 11.0303 46.8103 10.4066 46.8103 9.75002C46.8103 9.29042 47.2371 8.63385 48.0906 7.7803H83.4471C81.8713 5.28533 81.0834 3.34844 81.0834 1.96964Z" fill="#D46FA0"/>
<path d="M114.852 104.159C114.156 104.762 113.134 105.412 111.788 106.108C110.442 106.804 109.026 107.153 107.541 107.153C104.616 107.153 102.272 106.108 100.508 104.019C98.7443 101.93 97.8391 99.2612 97.7927 96.0119C97.7927 91.1378 99.5799 86.6583 103.154 82.5734C106.729 78.4884 110.697 76.4228 115.061 76.3763C117.243 76.3763 119.262 77.4904 121.119 79.7186L121.327 79.44C121.42 79.3008 121.536 79.1615 121.676 79.0223C121.815 78.883 122.024 78.6973 122.302 78.4652C122.581 78.2331 122.883 78.0707 123.207 77.9778C123.532 77.885 123.904 77.8154 124.322 77.7689C124.971 77.7689 125.505 77.9778 125.923 78.3956C126.341 78.8134 126.573 79.2544 126.619 79.7186C126.619 80.4149 125.296 86.0316 122.65 96.5689C120.005 107.106 118.612 112.491 118.473 112.723C117.637 115.23 115.85 117.295 113.111 118.92C110.372 120.545 107.239 121.38 103.711 121.427C97.166 121.427 93.8935 119.848 93.8935 116.692C93.8935 115.485 94.3112 114.417 95.1468 113.489C95.9823 112.56 97.05 112.096 98.3498 112.096C99.046 112.096 99.6959 112.305 100.299 112.723C100.903 113.141 101.228 113.86 101.274 114.881C101.274 115.346 101.228 115.787 101.135 116.204C101.042 116.622 100.88 116.947 100.648 117.179C100.415 117.411 100.23 117.643 100.09 117.876C99.9512 118.108 99.7888 118.293 99.6031 118.433L99.4638 118.572H99.5335C99.9976 118.711 101.39 118.781 103.711 118.781C105.475 118.781 106.868 118.502 107.889 117.945C108.957 117.435 109.955 116.669 110.883 115.647C111.811 114.626 112.461 113.535 112.833 112.375C113.111 111.493 113.483 110.054 113.947 108.058C114.55 105.83 114.852 104.53 114.852 104.159ZM119.935 84.3141L119.656 83.5482C119.517 83.0376 119.401 82.6894 119.308 82.5037C119.215 82.3181 119.076 81.9931 118.89 81.5289C118.705 81.0647 118.473 80.7398 118.194 80.5541C117.916 80.3684 117.614 80.1131 117.289 79.7882C116.964 79.4633 116.546 79.2544 116.036 79.1615C115.525 79.0687 115.014 78.9991 114.504 78.9526C112.461 78.9526 110.488 80.1828 108.585 82.643C107.193 84.4534 106.032 87.2153 105.104 90.9289C104.175 94.6425 103.711 97.3348 103.711 99.0059C103.711 102.673 105.15 104.507 108.028 104.507C110.628 104.507 113.181 102.882 115.687 99.6326L116.245 98.9363L119.935 84.3141Z" fill="#D46FA0"/>
<path d="M145.03 116.903H144.833C144.045 116.903 143.455 116.443 143.061 115.524V67.6598L143.159 19.7956C143.816 18.9421 144.439 18.5153 145.03 18.5153C145.884 18.5153 146.54 19.0078 147 19.9926V115.524C146.475 116.443 145.884 116.903 145.227 116.903H145.03Z" fill="#D46FA0"/>
</svg>
