<svg width="105" height="119" viewBox="0 0 105 119" fill="none" xmlns="http://www.w3.org/2000/svg">
<path d="M1.62916 89.7952C0.543052 89.7952 0 89.4757 0 88.8368C0 88.7091 0.0958327 88.2618 0.287498 87.4952C0.543052 86.473 0.798605 85.898 1.05416 85.7702C1.30971 85.6424 2.04443 85.5466 3.25831 85.4827C4.9833 85.4827 6.89995 85.3869 9.00827 85.1952C9.90271 85.0035 10.5096 84.6202 10.8291 84.0452C10.9569 83.7258 13.2249 74.7494 17.6332 57.1162C22.0415 39.483 24.2776 30.5386 24.3415 30.2831C24.3415 29.8359 24.2137 29.6123 23.9582 29.6123C23.4471 29.4206 21.754 29.2609 18.879 29.1331H15.9082C15.5249 28.7498 15.3332 28.4942 15.3332 28.3664C15.3332 28.2387 15.3971 27.6956 15.5249 26.7373C15.7804 25.6512 16.0999 24.9803 16.4832 24.7248H68.137C68.5842 24.9803 68.8078 25.3317 68.8078 25.7789C68.8078 26.0984 68.3926 29.6761 67.562 36.5122C66.7315 43.3483 66.2843 46.8621 66.2204 47.0538C66.0926 47.501 65.4537 47.7246 64.3037 47.7246H63.1537C62.7065 47.4052 62.4829 46.9899 62.4829 46.4788C62.4829 46.4149 62.5787 45.6482 62.7704 44.1788C62.9621 42.7094 63.0579 41.0163 63.0579 39.0997C63.0579 37.183 62.8343 35.6178 62.3871 34.4039C61.9398 33.19 61.3329 32.1997 60.5662 31.4331C59.7996 30.6664 58.6176 30.1553 57.0204 29.8998C55.4232 29.6442 53.7941 29.4206 52.133 29.2289C50.4719 29.0373 48.1719 29.0053 45.233 29.1331H43.0289C37.79 29.197 35.0109 29.2928 34.6914 29.4206C34.372 29.5484 34.1484 29.8039 34.0206 30.1872C33.9567 30.2511 32.8706 34.4358 30.7623 42.7413L27.6956 55.1037H32.9664C33.1581 55.1037 33.8928 55.1037 35.1706 55.1037C36.4484 55.1037 37.3428 55.0718 37.8539 55.0079C38.365 54.944 39.0678 54.8482 39.9622 54.7204C40.8567 54.5926 41.6233 54.369 42.2622 54.0496C42.9011 53.7301 43.4441 53.3468 43.8914 52.8996C44.7219 52.1329 45.4247 51.0788 45.9997 49.7371C46.5747 48.3955 46.9899 47.1816 47.2455 46.0955C47.5011 45.0094 47.6608 44.4344 47.7247 44.3705C47.9163 44.051 48.5233 43.8913 49.5455 43.8913H50.6955C51.1427 44.2108 51.3663 44.5302 51.3663 44.8496C51.3663 45.0413 50.376 49.226 48.3955 57.4037C46.4149 65.5814 45.3288 69.7981 45.1372 70.0536C45.0094 70.5009 44.3705 70.7245 43.2205 70.7245H42.0705C41.6233 70.3411 41.3997 69.9578 41.3997 69.5745C41.3997 69.3828 41.5594 68.68 41.8789 67.4662C42.1983 66.2523 42.358 64.9745 42.358 63.6328C42.358 61.7801 41.7191 60.6301 40.4414 60.1829C39.1636 59.7356 36.3206 59.512 31.9123 59.512H26.6415L23.5748 71.6828C21.5304 79.605 20.5082 83.7577 20.5082 84.141C20.5082 85.0355 23.3512 85.4827 29.0373 85.4827H31.4331C31.8164 85.866 32.0081 86.0896 32.0081 86.1535C32.0081 86.2174 31.9442 86.8563 31.8164 88.0702C31.5609 88.9007 31.2414 89.5077 30.8581 89.891H29.229C26.6095 89.7632 21.786 89.6993 14.7582 89.6993C10.6055 89.6993 7.443 89.6993 5.2708 89.6993C3.09859 89.6993 1.88471 89.7313 1.62916 89.7952Z" fill="#D46FA0"/>
<path d="M60.6908 1.91664C60.6908 1.40553 60.8505 0.958315 61.17 0.574984C61.4894 0.191653 61.9686 -1.18464e-05 62.6075 -1.18464e-05C63.0547 -1.18464e-05 63.438 0.159709 63.7575 0.479151C64.0769 0.734705 64.3963 1.34165 64.7158 2.29997C65.3547 4.66384 66.6644 6.48466 68.6449 7.76243C69.3477 8.20965 69.6991 8.78465 69.6991 9.48742C69.6991 10.0624 69.6032 10.4457 69.4116 10.6374C69.2199 10.8291 68.7727 11.1166 68.0699 11.4999C65.3227 12.9055 62.9269 14.9179 60.8825 17.5374C60.7547 17.6651 60.595 17.8568 60.4033 18.1124C60.2116 18.3679 60.0519 18.5596 59.9242 18.6874C59.7964 18.8151 59.6367 18.879 59.445 18.879C59.2533 18.879 59.0297 18.911 58.7742 18.9749C58.3269 18.9749 57.9117 18.8151 57.5283 18.4957C57.145 18.1762 56.9214 17.6971 56.8575 17.0582C56.8575 15.8443 58.3589 13.9596 61.3616 11.4041H44.9743L28.5869 11.3082C27.7563 10.7332 27.341 10.1263 27.341 9.48742C27.341 9.0402 27.7563 8.40132 28.5869 7.57077H62.9908C61.4575 5.14301 60.6908 3.2583 60.6908 1.91664Z" fill="#D46FA0"/>
<path d="M93.5496 101.352C92.8721 101.94 91.8784 102.572 90.5685 103.25C89.2586 103.927 87.8809 104.266 86.4355 104.266C83.5898 104.266 81.3088 103.25 79.5924 101.217C77.876 99.1844 76.9952 96.5871 76.95 93.4253C76.95 88.6825 78.689 84.3237 82.167 80.3488C85.645 76.374 89.507 74.3639 93.7529 74.3188C95.8758 74.3188 97.8407 75.4028 99.6475 77.5709L99.8507 77.2999C99.9411 77.1644 100.054 77.0289 100.189 76.8934C100.325 76.7579 100.528 76.5772 100.799 76.3514C101.07 76.1255 101.364 75.9674 101.68 75.8771C101.996 75.7868 102.358 75.719 102.764 75.6738C103.397 75.6738 103.916 75.8771 104.322 76.2836C104.729 76.6901 104.955 77.1192 105 77.5709C105 78.2485 103.713 83.7139 101.138 93.9673C98.5634 104.221 97.2083 109.46 97.0728 109.686C96.2598 112.125 94.5208 114.135 91.8558 115.716C89.1908 117.297 86.1419 118.11 82.709 118.155C76.3402 118.155 73.1558 116.62 73.1558 113.548C73.1558 112.374 73.5623 111.335 74.3753 110.431C75.1884 109.528 76.2273 109.076 77.492 109.076C78.1695 109.076 78.8019 109.28 79.3891 109.686C79.9763 110.093 80.2925 110.793 80.3377 111.787C80.3377 112.238 80.2925 112.667 80.2022 113.074C80.1118 113.48 79.9537 113.797 79.7279 114.022C79.502 114.248 79.3214 114.474 79.1859 114.7C79.0503 114.926 78.8923 115.106 78.7116 115.242L78.5761 115.377H78.6438C79.0955 115.513 80.4506 115.581 82.709 115.581C84.4255 115.581 85.7805 115.31 86.7743 114.768C87.8132 114.271 88.7843 113.526 89.6877 112.532C90.5911 111.538 91.2234 110.477 91.5848 109.347C91.8558 108.489 92.2171 107.089 92.6688 105.147C93.256 102.979 93.5496 101.714 93.5496 101.352ZM98.4957 82.0427L98.2246 81.2974C98.0891 80.8005 97.9762 80.4618 97.8859 80.2811C97.7955 80.1004 97.66 79.7842 97.4794 79.3325C97.2987 78.8808 97.0728 78.5647 96.8018 78.384C96.5308 78.2033 96.2372 77.9549 95.921 77.6387C95.6048 77.3225 95.1983 77.1192 94.7014 77.0289C94.2046 76.9386 93.7077 76.8708 93.2109 76.8256C91.2234 76.8256 89.3037 78.0226 87.4518 80.4166C86.0967 82.1782 84.9675 84.8658 84.0641 88.4793C83.1607 92.0928 82.709 94.7126 82.709 96.3387C82.709 99.9071 84.1093 101.691 86.9098 101.691C89.4392 101.691 91.9235 100.11 94.3627 96.9485L94.9047 96.271L98.4957 82.0427Z" fill="#D46FA0"/>
</svg>
