<svg width="161" height="389" viewBox="0 0 161 389" fill="none" xmlns="http://www.w3.org/2000/svg">
<path d="M132 371L160.868 321H103.132L132 371ZM127 0L127 326H137L137 0L127 0Z" fill="#D46FA0"/>
<path d="M1.62916 359.795C0.543052 359.795 0 359.476 0 358.837C0 358.709 0.0958327 358.262 0.287498 357.495C0.543052 356.473 0.798605 355.898 1.05416 355.77C1.30971 355.642 2.04443 355.547 3.25831 355.483C4.9833 355.483 6.89995 355.387 9.00827 355.195C9.90271 355.004 10.5096 354.62 10.8291 354.045C10.9569 353.726 13.2249 344.749 17.6332 327.116C22.0415 309.483 24.2776 300.539 24.3415 300.283C24.3415 299.836 24.2137 299.612 23.9582 299.612C23.4471 299.421 21.754 299.261 18.879 299.133H15.9082C15.5249 298.75 15.3332 298.494 15.3332 298.366C15.3332 298.239 15.3971 297.696 15.5249 296.737C15.7804 295.651 16.0999 294.98 16.4832 294.725H68.137C68.5842 294.98 68.8078 295.332 68.8078 295.779C68.8078 296.098 68.3926 299.676 67.562 306.512C66.7315 313.348 66.2843 316.862 66.2204 317.054C66.0926 317.501 65.4537 317.725 64.3037 317.725H63.1537C62.7065 317.405 62.4829 316.99 62.4829 316.479C62.4829 316.415 62.5787 315.648 62.7704 314.179C62.9621 312.709 63.0579 311.016 63.0579 309.1C63.0579 307.183 62.8343 305.618 62.3871 304.404C61.9398 303.19 61.3329 302.2 60.5662 301.433C59.7996 300.666 58.6176 300.155 57.0204 299.9C55.4232 299.644 53.7941 299.421 52.133 299.229C50.4719 299.037 48.1719 299.005 45.233 299.133H43.0289C37.79 299.197 35.0109 299.293 34.6914 299.421C34.372 299.548 34.1484 299.804 34.0206 300.187C33.9567 300.251 32.8706 304.436 30.7623 312.741L27.6956 325.104H32.9664C33.1581 325.104 33.8928 325.104 35.1706 325.104C36.4484 325.104 37.3428 325.072 37.8539 325.008C38.365 324.944 39.0678 324.848 39.9622 324.72C40.8567 324.593 41.6233 324.369 42.2622 324.05C42.9011 323.73 43.4441 323.347 43.8914 322.9C44.7219 322.133 45.4247 321.079 45.9997 319.737C46.5747 318.395 46.9899 317.182 47.2455 316.095C47.5011 315.009 47.6608 314.434 47.7247 314.37C47.9163 314.051 48.5233 313.891 49.5455 313.891H50.6955C51.1427 314.211 51.3663 314.53 51.3663 314.85C51.3663 315.041 50.376 319.226 48.3955 327.404C46.4149 335.581 45.3288 339.798 45.1372 340.054C45.0094 340.501 44.3705 340.724 43.2205 340.724H42.0705C41.6233 340.341 41.3997 339.958 41.3997 339.574C41.3997 339.383 41.5594 338.68 41.8789 337.466C42.1983 336.252 42.358 334.975 42.358 333.633C42.358 331.78 41.7191 330.63 40.4414 330.183C39.1636 329.736 36.3206 329.512 31.9123 329.512H26.6415L23.5748 341.683C21.5304 349.605 20.5082 353.758 20.5082 354.141C20.5082 355.035 23.3512 355.483 29.0373 355.483H31.4331C31.8164 355.866 32.0081 356.09 32.0081 356.154C32.0081 356.217 31.9442 356.856 31.8164 358.07C31.5609 358.901 31.2414 359.508 30.8581 359.891H29.229C26.6095 359.763 21.786 359.699 14.7582 359.699C10.6055 359.699 7.443 359.699 5.2708 359.699C3.09859 359.699 1.88471 359.731 1.62916 359.795Z" fill="#D46FA0"/>
<path d="M60.6908 271.917C60.6908 271.406 60.8505 270.958 61.17 270.575C61.4894 270.192 61.9686 270 62.6075 270C63.0547 270 63.438 270.16 63.7575 270.479C64.0769 270.735 64.3963 271.342 64.7158 272.3C65.3547 274.664 66.6644 276.485 68.6449 277.762C69.3477 278.21 69.6991 278.785 69.6991 279.487C69.6991 280.062 69.6032 280.446 69.4116 280.637C69.2199 280.829 68.7727 281.117 68.0699 281.5C65.3227 282.905 62.9269 284.918 60.8825 287.537C60.7547 287.665 60.595 287.857 60.4033 288.112C60.2116 288.368 60.0519 288.56 59.9242 288.687C59.7964 288.815 59.6367 288.879 59.445 288.879C59.2533 288.879 59.0297 288.911 58.7742 288.975C58.3269 288.975 57.9117 288.815 57.5283 288.496C57.145 288.176 56.9214 287.697 56.8575 287.058C56.8575 285.844 58.3589 283.96 61.3616 281.404H44.9743L28.5869 281.308C27.7563 280.733 27.341 280.126 27.341 279.487C27.341 279.04 27.7563 278.401 28.5869 277.571H62.9908C61.4575 275.143 60.6908 273.258 60.6908 271.917Z" fill="#D46FA0"/>
<path d="M93.5496 371.352C92.8721 371.94 91.8784 372.572 90.5685 373.25C89.2586 373.927 87.8809 374.266 86.4355 374.266C83.5898 374.266 81.3088 373.25 79.5924 371.217C77.876 369.184 76.9952 366.587 76.95 363.425C76.95 358.683 78.689 354.324 82.167 350.349C85.645 346.374 89.507 344.364 93.7529 344.319C95.8758 344.319 97.8407 345.403 99.6475 347.571L99.8507 347.3C99.9411 347.164 100.054 347.029 100.189 346.893C100.325 346.758 100.528 346.577 100.799 346.351C101.07 346.126 101.364 345.967 101.68 345.877C101.996 345.787 102.358 345.719 102.764 345.674C103.397 345.674 103.916 345.877 104.322 346.284C104.729 346.69 104.955 347.119 105 347.571C105 348.248 103.713 353.714 101.138 363.967C98.5634 374.221 97.2083 379.46 97.0728 379.686C96.2598 382.125 94.5208 384.135 91.8558 385.716C89.1908 387.297 86.1419 388.11 82.709 388.155C76.3402 388.155 73.1558 386.62 73.1558 383.548C73.1558 382.374 73.5623 381.335 74.3753 380.431C75.1884 379.528 76.2273 379.076 77.492 379.076C78.1695 379.076 78.8019 379.28 79.3891 379.686C79.9763 380.093 80.2925 380.793 80.3377 381.787C80.3377 382.238 80.2925 382.667 80.2022 383.074C80.1118 383.48 79.9537 383.797 79.7279 384.022C79.502 384.248 79.3214 384.474 79.1859 384.7C79.0503 384.926 78.8923 385.106 78.7116 385.242L78.5761 385.377H78.6438C79.0955 385.513 80.4506 385.581 82.709 385.581C84.4255 385.581 85.7805 385.31 86.7743 384.768C87.8132 384.271 88.7843 383.526 89.6877 382.532C90.5911 381.538 91.2234 380.477 91.5848 379.347C91.8558 378.489 92.2171 377.089 92.6688 375.147C93.256 372.979 93.5496 371.714 93.5496 371.352ZM98.4957 352.043L98.2246 351.297C98.0891 350.801 97.9762 350.462 97.8859 350.281C97.7955 350.1 97.66 349.784 97.4794 349.333C97.2987 348.881 97.0728 348.565 96.8018 348.384C96.5308 348.203 96.2372 347.955 95.921 347.639C95.6048 347.323 95.1983 347.119 94.7014 347.029C94.2046 346.939 93.7077 346.871 93.2109 346.826C91.2234 346.826 89.3037 348.023 87.4518 350.417C86.0967 352.178 84.9675 354.866 84.0641 358.479C83.1607 362.093 82.709 364.713 82.709 366.339C82.709 369.907 84.1093 371.691 86.9098 371.691C89.4392 371.691 91.9235 370.11 94.3627 366.948L94.9047 366.271L98.4957 352.043Z" fill="#D46FA0"/>
</svg>
