<svg width="110" height="88" viewBox="0 0 110 88" fill="none" xmlns="http://www.w3.org/2000/svg">
<path d="M1.35104 75.1874C0.450348 75.1874 0 74.9225 0 74.3926C0 74.2867 0.0794731 73.9158 0.238419 73.28C0.450348 72.4323 0.662276 71.9555 0.874204 71.8495C1.08613 71.7435 1.69543 71.6641 2.70209 71.6111C4.1326 71.6111 5.72206 71.5316 7.47047 71.3727C8.21222 71.2137 8.71555 70.8958 8.98046 70.419C9.08643 70.1541 10.9673 62.7101 14.6231 48.087C18.2788 33.464 20.1332 26.0465 20.1862 25.8346C20.1862 25.4637 20.0802 25.2782 19.8683 25.2782C19.4444 25.1193 18.0404 24.9868 15.6562 24.8809H13.1925C12.8746 24.563 12.7157 24.3511 12.7157 24.2451C12.7157 24.1391 12.7687 23.6888 12.8746 22.8941C13.0866 21.9934 13.3515 21.437 13.6694 21.2251H56.5054C56.8763 21.437 57.0617 21.7284 57.0617 22.0993C57.0617 22.3642 56.7173 25.3312 56.0285 31.0003C55.3398 36.6694 54.9689 39.5834 54.9159 39.7424C54.81 40.1132 54.2801 40.2987 53.3265 40.2987H52.3728C52.0019 40.0338 51.8165 39.6894 51.8165 39.2655C51.8165 39.2125 51.8959 38.5768 52.0549 37.3582C52.2138 36.1396 52.2933 34.7355 52.2933 33.1461C52.2933 31.5566 52.1079 30.2586 51.737 29.2519C51.3661 28.2452 50.8628 27.424 50.227 26.7882C49.5912 26.1525 48.6111 25.7286 47.2865 25.5167C45.962 25.3047 44.6109 25.1193 43.2334 24.9604C41.8558 24.8014 39.9485 24.7749 37.5113 24.8809H35.6834C31.3389 24.9339 29.0342 25.0133 28.7693 25.1193C28.5044 25.2253 28.3189 25.4372 28.213 25.7551C28.16 25.8081 27.2593 29.2784 25.5109 36.1661L22.9677 46.4181H27.3388C27.4977 46.4181 28.107 46.4181 29.1666 46.4181C30.2263 46.4181 30.968 46.3916 31.3919 46.3386C31.8157 46.2856 32.3985 46.2062 33.1403 46.1002C33.882 45.9942 34.5178 45.8088 35.0476 45.5439C35.5775 45.279 36.0278 44.9611 36.3987 44.5902C37.0875 43.9544 37.6703 43.0802 38.1471 41.9676C38.6239 40.855 38.9683 39.8483 39.1802 38.9476C39.3922 38.0469 39.5246 37.5701 39.5776 37.5171C39.7366 37.2522 40.2399 37.1197 41.0876 37.1197H42.0413C42.4122 37.3847 42.5976 37.6496 42.5976 37.9145C42.5976 38.0734 41.7764 41.5437 40.1339 48.3255C38.4915 55.1072 37.5908 58.604 37.4318 58.8159C37.3259 59.1868 36.7961 59.3722 35.8424 59.3722H34.8887C34.5178 59.0543 34.3324 58.7364 34.3324 58.4185C34.3324 58.2596 34.4648 57.6768 34.7298 56.6701C34.9947 55.6635 35.1271 54.6038 35.1271 53.4912C35.1271 51.9547 34.5973 51.001 33.5377 50.6302C32.478 50.2593 30.1203 50.0739 26.4645 50.0739H22.0935L19.5504 60.167C17.855 66.7367 17.0072 70.1806 17.0072 70.4985C17.0072 71.2402 19.3649 71.6111 24.0804 71.6111H26.0672C26.3851 71.929 26.544 72.1144 26.544 72.1674C26.544 72.2204 26.491 72.7502 26.3851 73.7569C26.1731 74.4456 25.9082 74.949 25.5903 75.2668H24.2393C22.067 75.1609 18.0669 75.1079 12.2389 75.1079C8.79502 75.1079 6.17241 75.1079 4.37102 75.1079C2.56963 75.1079 1.56297 75.1344 1.35104 75.1874Z" fill="#EF224B"/>
<path d="M50.3303 2.31069C50.3303 1.88684 50.4628 1.51596 50.7277 1.19807C50.9926 0.880177 51.39 0.721231 51.9198 0.721231C52.2907 0.721231 52.6085 0.853686 52.8735 1.1186C53.1384 1.33052 53.4033 1.83385 53.6682 2.62859C54.198 4.58892 55.2841 6.09891 56.9266 7.15855C57.5094 7.52943 57.8008 8.00627 57.8008 8.58907C57.8008 9.06591 57.7213 9.3838 57.5624 9.54275C57.4034 9.70169 57.0326 9.94011 56.4497 10.258C54.1715 11.4236 52.1847 13.0925 50.4893 15.2648C50.3833 15.3708 50.2508 15.5297 50.0919 15.7417C49.933 15.9536 49.8005 16.1125 49.6945 16.2185C49.5886 16.3245 49.4561 16.3774 49.2972 16.3774C49.1382 16.3774 48.9528 16.4039 48.7409 16.4569C48.37 16.4569 48.0256 16.3245 47.7077 16.0595C47.3898 15.7946 47.2044 15.3973 47.1514 14.8674C47.1514 13.8608 48.3965 12.2978 50.8866 10.1785H37.2967L23.7068 10.0991C23.0181 9.62222 22.6737 9.11889 22.6737 8.58907C22.6737 8.2182 23.0181 7.68837 23.7068 6.99961H52.2377C50.9661 4.98629 50.3303 3.42332 50.3303 2.31069Z" fill="#EF224B"/>
<path d="M73.2534 51.3964C73.141 51.3964 72.9912 51.3964 72.8039 51.3964C71.8674 51.3964 71.3055 51.3777 71.1182 51.3402C70.931 51.3028 70.8373 51.0968 70.8373 50.7222C70.8373 49.7108 71.0433 49.0927 71.4554 48.868C71.5303 48.8305 73.347 48.8118 76.9056 48.8118C79.7899 48.8118 81.438 48.8118 81.8501 48.8118C82.2621 48.8118 82.5243 48.9242 82.6367 49.1489C90.5404 67.7283 94.5672 77.2614 94.717 77.7484L97.7511 65.7804C99.7364 57.8767 100.729 53.6627 100.729 53.1382C100.729 52.1269 99.5304 51.5463 97.1331 51.3964C96.2341 51.3964 95.7846 51.1904 95.7846 50.7784C95.7846 50.7035 95.822 50.4787 95.8969 50.1041C96.0468 49.5048 96.1591 49.1489 96.2341 49.0366C96.309 48.9242 96.4963 48.8493 96.7959 48.8118C96.9083 48.8118 97.4889 48.8305 98.5377 48.868C99.5866 48.9055 101.141 48.9429 103.201 48.9804C105.074 48.9804 106.498 48.9616 107.472 48.9242C108.445 48.8867 109.007 48.868 109.157 48.868C109.719 48.868 110 49.0553 110 49.4299C110 50.254 109.85 50.8158 109.55 51.1155C109.476 51.3028 109.064 51.3964 108.314 51.3964C105.655 51.5463 103.988 52.2954 103.314 53.6439L94.9417 86.7946C94.8668 87.0568 94.4735 87.1879 93.7618 87.1879C93.2374 87.1879 92.919 87.1504 92.8066 87.0755C92.6942 86.9631 90.2782 81.2882 85.5584 70.0507L78.4226 53.2506L74.7704 67.8594C72.3356 77.4487 71.1182 82.4119 71.1182 82.7491C71.3055 83.9852 72.654 84.6032 75.1637 84.6032H75.7256C75.9504 84.7905 76.0627 84.9404 76.0627 85.0527C76.0627 85.1651 76.0253 85.521 75.9504 86.1203C75.8005 86.6073 75.6132 86.9631 75.3885 87.1879H74.6581C73.4969 87.1129 71.4741 87.0755 68.5898 87.0755C67.541 87.0755 66.5858 87.0755 65.7242 87.0755C64.8627 87.0755 64.1697 87.0755 63.6453 87.0755C63.1209 87.0755 62.8025 87.0942 62.6901 87.1317C62.1283 87.1317 61.8473 86.9631 61.8473 86.626C61.8473 86.4762 61.9035 86.1765 62.0159 85.727C62.1283 85.2775 62.2219 85.0153 62.2968 84.9404C62.3717 84.7156 62.8025 84.6032 63.5891 84.6032C66.1363 84.4909 67.7845 83.7604 68.5336 82.4119C68.6835 82.1872 70.0132 76.9992 72.5229 66.848L76.3437 51.565C76.2688 51.5275 75.2387 51.4713 73.2534 51.3964Z" fill="#EF224B"/>
</svg>
