<svg width="145" height="97" viewBox="0 0 145 97" fill="none" xmlns="http://www.w3.org/2000/svg">
<path d="M1.62629 96.8486H1.46366C0.813145 96.8486 0.325258 96.4691 0 95.7102V56.1913L0.0813145 16.6725C0.623411 15.9678 1.1384 15.6154 1.62629 15.6154C2.33102 15.6154 2.87311 16.022 3.25258 16.8351V95.7102C2.8189 96.4691 2.33102 96.8486 1.78892 96.8486H1.62629Z" fill="#EF224B"/>
<path d="M16.8321 76.52C15.9105 76.52 15.4497 76.249 15.4497 75.7069C15.4497 75.5984 15.5311 75.219 15.6937 74.5685C15.9105 73.7011 16.1274 73.2132 16.3442 73.1048C16.561 72.9964 17.1844 72.9151 18.2144 72.8609C19.6781 72.8609 21.3044 72.7795 23.0933 72.6169C23.8522 72.4543 24.3672 72.129 24.6383 71.6411C24.7467 71.3701 26.6711 63.7536 30.4116 48.7918C34.1521 33.8299 36.0494 26.2405 36.1036 26.0237C36.1036 25.6442 35.9952 25.4545 35.7784 25.4545C35.3447 25.2919 33.9081 25.1564 31.4687 25.0479H28.9479C28.6227 24.7227 28.4601 24.5058 28.4601 24.3974C28.4601 24.289 28.5143 23.8282 28.6227 23.0151C28.8395 22.0935 29.1106 21.5243 29.4358 21.3075H73.2643C73.6438 21.5243 73.8335 21.8225 73.8335 22.2019C73.8335 22.473 73.4812 25.5087 72.7765 31.3091C72.0717 37.1096 71.6923 40.0911 71.638 40.2537C71.5296 40.6332 70.9875 40.8229 70.0118 40.8229H69.036C68.6565 40.5519 68.4668 40.1995 68.4668 39.7659C68.4668 39.7116 68.5481 39.0611 68.7107 37.8143C68.8734 36.5675 68.9547 35.1309 68.9547 33.5046C68.9547 31.8783 68.7649 30.5502 68.3855 29.5202C68.006 28.4902 67.491 27.65 66.8405 26.9995C66.19 26.349 65.1871 25.9153 63.8319 25.6984C62.4766 25.4816 61.0943 25.2919 59.6848 25.1292C58.2754 24.9666 56.3238 24.9395 53.8302 25.0479H51.9599C47.5148 25.1021 45.1566 25.1835 44.8856 25.2919C44.6145 25.4003 44.4248 25.6171 44.3164 25.9424C44.2622 25.9966 43.3406 29.5473 41.5517 36.5946L38.9496 47.0842H43.4219C43.5846 47.0842 44.208 47.0842 45.2922 47.0842C46.3763 47.0842 47.1353 47.0571 47.569 47.0028C48.0026 46.9486 48.5989 46.8673 49.3579 46.7589C50.1168 46.6505 50.7673 46.4607 51.3094 46.1897C51.8515 45.9187 52.3123 45.5934 52.6918 45.2139C53.3965 44.5634 53.9928 43.669 54.4807 42.5305C54.9686 41.3921 55.3209 40.3622 55.5378 39.4406C55.7546 38.519 55.8901 38.0311 55.9444 37.9769C56.107 37.7059 56.622 37.5704 57.4893 37.5704H58.4651C58.8446 37.8414 59.0343 38.1125 59.0343 38.3835C59.0343 38.5461 58.1941 42.0969 56.5136 49.0357C54.8331 55.9745 53.9115 59.5524 53.7489 59.7692C53.6404 60.1487 53.0983 60.3384 52.1226 60.3384H51.1468C50.7673 60.0132 50.5776 59.6879 50.5776 59.3626C50.5776 59.2 50.7131 58.6037 50.9842 57.5737C51.2552 56.5437 51.3907 55.4596 51.3907 54.3211C51.3907 52.7491 50.8486 51.7733 49.7645 51.3938C48.6803 51.0144 46.2679 50.8246 42.5275 50.8246H38.0552L35.4531 61.1516C33.7184 67.8736 32.851 71.3972 32.851 71.7224C32.851 72.4814 35.2634 72.8609 40.088 72.8609H42.1209C42.4461 73.1861 42.6088 73.3758 42.6088 73.4301C42.6088 73.4843 42.5546 74.0264 42.4461 75.0563C42.2293 75.7611 41.9583 76.2761 41.633 76.6013H40.2507C38.0281 76.4929 33.9352 76.4387 27.9722 76.4387C24.4485 76.4387 21.7652 76.4387 19.922 76.4387C18.0789 76.4387 17.0489 76.4658 16.8321 76.52Z" fill="#EF224B"/>
<path d="M66.9462 1.95461C66.9462 1.52093 67.0817 1.14146 67.3528 0.816207C67.6238 0.490949 68.0304 0.32832 68.5725 0.32832C68.952 0.32832 69.2772 0.463844 69.5483 0.734892C69.8193 0.951731 70.0904 1.46672 70.3614 2.27987C70.9035 4.28563 72.0148 5.8306 73.6953 6.91479C74.2916 7.29426 74.5898 7.78215 74.5898 8.37845C74.5898 8.86634 74.5085 9.1916 74.3458 9.35423C74.1832 9.51686 73.8037 9.7608 73.2074 10.0861C70.8764 11.2787 68.8436 12.9863 67.1088 15.2089C67.0004 15.3173 66.8649 15.4799 66.7023 15.6968C66.5396 15.9136 66.4041 16.0762 66.2957 16.1846C66.1873 16.2931 66.0518 16.3473 65.8891 16.3473C65.7265 16.3473 65.5368 16.3744 65.3199 16.4286C64.9405 16.4286 64.5881 16.2931 64.2628 16.022C63.9376 15.751 63.7479 15.3444 63.6936 14.8023C63.6936 13.7723 64.9676 12.1731 67.5154 10.0047H53.6106L39.7059 9.92343C39.0011 9.43554 38.6488 8.92055 38.6488 8.37845C38.6488 7.99899 39.0011 7.45689 39.7059 6.75216H68.8978C67.5967 4.6922 66.9462 3.09301 66.9462 1.95461Z" fill="#EF224B"/>
<path d="M90.4004 52.1777C90.2854 52.1777 90.1321 52.1777 89.9405 52.1777C88.9824 52.1777 88.4075 52.1586 88.2158 52.1203C88.0242 52.0819 87.9284 51.8711 87.9284 51.4879C87.9284 50.4531 88.1392 49.8207 88.5608 49.5907C88.6374 49.5524 90.4962 49.5332 94.1372 49.5332C97.0884 49.5332 98.7747 49.5332 99.1963 49.5332C99.6179 49.5332 99.8862 49.6482 100.001 49.8782C108.088 68.888 112.208 78.642 112.361 79.1403L115.466 66.895C117.497 58.8082 118.513 54.4965 118.513 53.9599C118.513 52.9251 117.286 52.3311 114.833 52.1777C113.914 52.1777 113.454 51.967 113.454 51.5454C113.454 51.4687 113.492 51.2388 113.569 50.8555C113.722 50.2423 113.837 49.8782 113.914 49.7632C113.99 49.6482 114.182 49.5716 114.488 49.5332C114.603 49.5332 115.197 49.5524 116.271 49.5907C117.344 49.6291 118.934 49.6674 121.042 49.7057C122.959 49.7057 124.415 49.6865 125.411 49.6482C126.408 49.6099 126.983 49.5907 127.136 49.5907C127.711 49.5907 127.998 49.7824 127.998 50.1656C127.998 51.0088 127.845 51.5837 127.539 51.8903C127.462 52.0819 127.04 52.1777 126.274 52.1777C123.553 52.3311 121.847 53.0976 121.157 54.4773L112.591 88.396C112.515 88.6643 112.112 88.7985 111.384 88.7985C110.847 88.7985 110.522 88.7601 110.407 88.6835C110.292 88.5685 107.82 82.7621 102.991 71.2642L95.6894 54.0749L91.9526 69.0221C89.4614 78.8336 88.2158 83.9119 88.2158 84.2568C88.4075 85.5216 89.7872 86.154 92.3551 86.154H92.93C93.1599 86.3456 93.2749 86.4989 93.2749 86.6139C93.2749 86.7288 93.2366 87.0929 93.1599 87.7062C93.0066 88.2044 92.815 88.5685 92.585 88.7985H91.8377C90.6495 88.7218 88.5799 88.6835 85.6288 88.6835C84.5557 88.6835 83.5784 88.6835 82.6969 88.6835C81.8153 88.6835 81.1063 88.6835 80.5697 88.6835C80.0332 88.6835 79.7074 88.7026 79.5924 88.741C79.0175 88.741 78.7301 88.5685 78.7301 88.2236C78.7301 88.0703 78.7876 87.7637 78.9026 87.3037C79.0175 86.8438 79.1133 86.5755 79.19 86.4989C79.2667 86.2689 79.7074 86.154 80.5123 86.154C83.1184 86.039 84.8048 85.2916 85.5713 83.9119C85.7246 83.6819 87.0852 78.3737 89.6531 67.9873L93.5623 52.3502C93.4857 52.3119 92.4317 52.2544 90.4004 52.1777Z" fill="#EF224B"/>
<path d="M143.374 96.8486H143.211C142.561 96.8486 142.073 96.4691 141.747 95.7102V56.1913L141.829 16.6725C142.371 15.9678 142.886 15.6154 143.374 15.6154C144.078 15.6154 144.621 16.022 145 16.8351V95.7102C144.566 96.4691 144.078 96.8486 143.536 96.8486H143.374Z" fill="#EF224B"/>
</svg>
