<svg width="200" height="126" viewBox="0 0 200 126" fill="none" xmlns="http://www.w3.org/2000/svg">
<path d="M1.95036 107.499C0.650119 107.499 0 107.117 0 106.352C0 106.199 0.114727 105.664 0.34418 104.746C0.650118 103.522 0.956057 102.834 1.26199 102.681C1.56793 102.528 2.4475 102.413 3.90071 102.336C5.96579 102.336 8.26033 102.222 10.7843 101.992C11.8551 101.763 12.5817 101.304 12.9641 100.616C13.1171 100.233 15.8323 89.4871 21.1097 68.3773C26.3872 47.2676 29.0641 36.5598 29.1406 36.2538C29.1406 35.7184 28.9876 35.4507 28.6817 35.4507C28.0698 35.2213 26.043 35.0301 22.6012 34.8771H19.0446C18.5857 34.4182 18.3563 34.1123 18.3563 33.9593C18.3563 33.8063 18.4328 33.1562 18.5857 32.0089C18.8917 30.7087 19.2741 29.9056 19.733 29.5997H81.5707C82.1061 29.9056 82.3738 30.3263 82.3738 30.8617C82.3738 31.2441 81.8767 35.5272 80.8824 43.7111C79.8881 51.8949 79.3527 56.1016 79.2762 56.331C79.1232 56.8664 78.3584 57.1341 76.9817 57.1341H75.605C75.0696 56.7517 74.8019 56.2545 74.8019 55.6427C74.8019 55.5662 74.9166 54.6484 75.146 52.8892C75.3755 51.1301 75.4902 49.1032 75.4902 46.8087C75.4902 44.5142 75.2225 42.6403 74.6871 41.1871C74.1517 39.7339 73.4251 38.5484 72.5073 37.6305C71.5895 36.7127 70.1746 36.1009 68.2624 35.7949C66.3503 35.489 64.4 35.2213 62.4114 34.9918C60.4228 34.7624 57.6693 34.7241 54.151 34.8771H51.5123C45.2406 34.9536 41.9135 35.0683 41.5311 35.2213C41.1487 35.3743 40.881 35.6802 40.728 36.1391C40.6515 36.2156 39.3513 41.2253 36.8273 51.1683L33.156 65.9681H39.466C39.6955 65.9681 40.575 65.9681 42.1047 65.9681C43.6344 65.9681 44.7052 65.9298 45.3171 65.8533C45.929 65.7769 46.7703 65.6621 47.8411 65.5092C48.9119 65.3562 49.8297 65.0885 50.5945 64.7061C51.3594 64.3236 52.0095 63.8647 52.5449 63.3293C53.5392 62.4115 54.3805 61.1495 55.0689 59.5434C55.7572 57.9372 56.2544 56.484 56.5603 55.1837C56.8662 53.8835 57.0575 53.1951 57.1339 53.1187C57.3634 52.7362 58.09 52.545 59.3138 52.545H60.6905C61.2259 52.9275 61.4936 53.3099 61.4936 53.6923C61.4936 53.9218 60.308 58.9315 57.937 68.7215C55.566 78.5115 54.2658 83.5595 54.0363 83.8654C53.8833 84.4008 53.1185 84.6685 51.7418 84.6685H50.3651C49.8297 84.2096 49.562 83.7507 49.562 83.2918C49.562 83.0624 49.7532 82.221 50.1356 80.7678C50.518 79.3146 50.7092 77.7849 50.7092 76.1787C50.7092 73.9607 49.9444 72.584 48.4147 72.0486C46.885 71.5132 43.4815 71.2455 38.204 71.2455H31.894L28.2228 85.8158C25.7753 95.2999 24.5515 100.271 24.5515 100.73C24.5515 101.801 27.9551 102.336 34.7622 102.336H37.6304C38.0893 102.795 38.3187 103.063 38.3187 103.14C38.3187 103.216 38.2423 103.981 38.0893 105.434C37.7834 106.428 37.4009 107.155 36.942 107.614H34.9917C31.8558 107.461 26.0812 107.384 17.6679 107.384C12.6964 107.384 8.91045 107.384 6.30997 107.384C3.7095 107.384 2.25629 107.423 1.95036 107.499Z" fill="black"/>
<path d="M72.6565 2.2947C72.6565 1.68282 72.8477 1.14743 73.2301 0.688521C73.6125 0.229614 74.1862 0.000160173 74.951 0.000160173C75.4864 0.000160173 75.9453 0.191371 76.3277 0.573794C76.7102 0.879732 77.0926 1.60634 77.475 2.7536C78.2399 5.58353 79.8078 7.76334 82.1788 9.29303C83.0201 9.82842 83.4408 10.5168 83.4408 11.3581C83.4408 12.0465 83.3261 12.5054 83.0966 12.7348C82.8672 12.9643 82.3318 13.3085 81.4905 13.7674C78.2016 15.45 75.3334 17.8593 72.8859 20.9952C72.733 21.1481 72.5418 21.3776 72.3123 21.6835C72.0829 21.9895 71.8916 22.2189 71.7387 22.3719C71.5857 22.5249 71.3945 22.6013 71.165 22.6013C70.9356 22.6013 70.6679 22.6396 70.362 22.7161C69.8266 22.7161 69.3294 22.5249 68.8705 22.1424C68.4116 21.76 68.1439 21.1864 68.0674 20.4215C68.0674 18.9683 69.8648 16.712 73.4596 13.6526H53.8413L34.223 13.5379C33.2287 12.8496 32.7316 12.123 32.7316 11.3581C32.7316 10.8227 33.2287 10.0579 34.223 9.06358H75.4099C73.5743 6.15716 72.6565 3.90087 72.6565 2.2947Z" fill="black"/>
<path d="M88.4712 101.544C88.5253 101.219 88.6064 100.787 88.7145 100.246C88.8227 99.7052 89.1471 98.6778 89.6879 97.1637C90.2286 95.6496 90.7694 94.3789 91.3101 93.3515C91.8509 92.324 92.7431 91.3237 93.9868 90.3503C95.2305 89.377 96.4742 88.9173 97.7179 88.9714C99.6646 88.9714 101.287 89.4581 102.585 90.4314C103.882 91.4048 104.694 92.324 105.018 93.1892C105.342 94.0544 105.505 94.6222 105.505 94.8926C105.505 95.0007 105.532 95.0548 105.586 95.0548L106.478 94.1626C109.777 90.7018 113.535 88.9714 117.753 88.9714C120.673 88.9714 123.025 89.7014 124.809 91.1614C126.594 92.6215 127.513 94.7574 127.567 97.5693C127.621 100.381 126.594 104.626 124.485 110.304C122.376 115.982 121.349 119.415 121.403 120.605C121.403 122.011 121.862 122.714 122.782 122.714C123.106 122.714 123.349 122.687 123.512 122.633C125.08 122.362 126.486 121.335 127.729 119.551C128.973 117.766 129.919 115.603 130.568 113.062C130.676 112.629 131.217 112.413 132.19 112.413C133.272 112.413 133.813 112.629 133.813 113.062C133.813 113.116 133.705 113.521 133.488 114.278C133.056 115.846 132.461 117.388 131.704 118.902C130.947 120.416 129.703 121.93 127.973 123.444C126.242 124.958 124.377 125.688 122.376 125.634C119.834 125.634 117.996 124.904 116.86 123.444C115.725 121.984 115.157 120.47 115.157 118.902C115.157 117.874 116.13 114.63 118.077 109.168C120.024 103.707 121.024 99.5971 121.078 96.8393C121.078 93.6489 119.889 92.0537 117.509 92.0537H117.104C112.453 92.0537 108.533 94.7844 105.342 100.246L104.775 101.219L102.098 112.088C100.314 119.172 99.2861 122.984 99.0157 123.525C98.3128 124.985 97.1502 125.715 95.5279 125.715C94.825 125.715 94.2572 125.553 93.8246 125.228C93.392 124.904 93.0946 124.58 92.9323 124.255C92.7701 123.931 92.716 123.66 92.7701 123.444C92.7701 122.741 93.7975 118.334 95.8524 110.223C97.9072 102.112 98.9887 97.7045 99.0968 97.0015C99.1509 96.7311 99.178 96.1093 99.178 95.1359C99.178 93.027 98.5291 91.9726 97.2313 91.9726C95.1764 91.9726 93.4731 94.6763 92.1212 100.084C91.7968 101.165 91.6346 101.733 91.6346 101.787C91.5264 102.112 91.0127 102.274 90.0934 102.274H88.9579C88.6334 101.949 88.4712 101.706 88.4712 101.544Z" fill="black"/>
<path d="M138.598 111.196C138.598 108.114 139.112 105.302 140.139 102.76C141.167 100.219 142.492 98.11 144.114 96.4337C145.736 94.7574 147.548 93.3515 149.548 92.2159C151.549 91.0803 153.442 90.2422 155.226 89.7014C157.011 89.1607 158.714 88.9173 160.336 88.9714H160.58C163.013 88.9714 165.122 89.5662 166.906 90.7559C168.691 91.9455 169.583 93.7029 169.583 96.0282C169.583 100.895 166.582 104.085 160.58 105.599C157.93 106.302 154.307 106.681 149.711 106.735C147.71 106.735 146.682 106.789 146.628 106.897C146.628 107.005 146.466 107.952 146.142 109.736C145.817 111.521 145.628 113.089 145.574 114.441C145.574 116.982 146.142 118.983 147.277 120.443C148.413 121.903 150.116 122.66 152.387 122.714C154.658 122.768 157.173 122.254 159.931 121.173C162.689 120.091 165.176 118.307 167.393 115.819C167.88 115.279 168.204 115.008 168.366 115.008C168.583 115.008 168.934 115.252 169.421 115.738C169.907 116.225 170.178 116.604 170.232 116.874C170.286 117.144 170.043 117.577 169.502 118.172C168.961 118.767 168.15 119.497 167.069 120.362C165.987 121.227 164.743 122.065 163.337 122.876C161.932 123.687 160.228 124.363 158.227 124.904C156.227 125.445 154.172 125.715 152.063 125.715C147.791 125.715 144.492 124.282 142.167 121.416C139.842 118.55 138.652 115.144 138.598 111.196ZM165.69 96.1904C165.365 93.3785 163.527 91.9726 160.174 91.9726C158.39 91.9726 156.74 92.3511 155.226 93.1081C153.712 93.8652 152.495 94.7844 151.576 95.8659C150.657 96.9474 149.873 98.056 149.224 99.1915C148.575 100.327 148.142 101.3 147.926 102.112C147.71 102.923 147.575 103.436 147.521 103.653C147.521 103.707 148.061 103.734 149.143 103.734C155.253 103.734 159.525 103.085 161.959 101.787C164.392 100.489 165.636 98.6237 165.69 96.1904Z" fill="black"/>
<path d="M175.342 93.5948C174.963 93.2163 174.774 92.9459 174.774 92.7837C174.774 92.5674 174.855 92.1348 175.018 91.4859C175.18 90.837 175.315 90.4585 175.423 90.3503C175.531 90.08 175.775 89.9448 176.153 89.9448C176.532 89.9448 177.91 89.9177 180.29 89.8637H184.589L186.13 83.3747C186.292 82.7799 186.481 81.9958 186.698 81.0225C186.914 80.0491 187.103 79.3462 187.265 78.9136C187.428 78.481 187.59 77.9402 187.752 77.2913C187.914 76.6424 188.131 76.1828 188.401 75.9124C188.671 75.642 188.942 75.3176 189.212 74.9391C189.482 74.5606 189.861 74.3172 190.348 74.2091C190.834 74.1009 191.321 74.0468 191.808 74.0468C192.781 74.1009 193.457 74.3983 193.835 74.9391C194.214 75.4798 194.403 75.9935 194.403 76.4802C194.403 76.8587 194.16 78.1295 193.673 80.2925C193.187 82.4554 192.646 84.5914 192.051 86.7003L191.24 89.7014C191.24 89.8096 192.592 89.8637 195.295 89.8637H199.432C199.811 90.2422 200 90.5396 200 90.7559C200 91.9455 199.648 92.8918 198.945 93.5948H190.267L187.347 105.356C185.238 114.008 184.183 118.658 184.183 119.307C184.183 121.578 184.913 122.714 186.373 122.714C188.266 122.714 190.104 121.795 191.889 119.956C193.673 118.118 195.106 115.846 196.188 113.143C196.296 112.818 196.431 112.629 196.593 112.575C196.755 112.521 197.161 112.467 197.81 112.413H198.134C198.945 112.413 199.351 112.629 199.351 113.062C199.351 113.224 199.27 113.548 199.108 114.035C198.837 114.9 198.351 115.928 197.648 117.117C196.945 118.307 196.025 119.578 194.89 120.929C193.754 122.281 192.375 123.417 190.753 124.336C189.131 125.255 187.482 125.715 185.805 125.715C184.183 125.715 182.642 125.31 181.182 124.498C179.722 123.687 178.668 122.281 178.019 120.281C177.91 119.848 177.856 119.118 177.856 118.091V116.631L180.695 105.275C182.588 97.6504 183.561 93.8111 183.615 93.757C183.615 93.6489 182.236 93.5948 179.479 93.5948H175.342Z" fill="black"/>
</svg>
