<svg width="200" height="101" viewBox="0 0 200 101" fill="none" xmlns="http://www.w3.org/2000/svg">
<path d="M1.80677 72.1645C0.602257 72.1645 0 71.8103 0 71.1017C0 70.96 0.106281 70.464 0.318842 69.6138C0.602257 68.4801 0.885672 67.8425 1.16909 67.7007C1.4525 67.559 2.26732 67.4528 3.61354 67.3819C5.52659 67.3819 7.65221 67.2756 9.99038 67.0631C10.9823 66.8505 11.6554 66.4254 12.0097 65.7877C12.1514 65.4334 14.6667 55.4785 19.5556 35.9228C24.4446 16.3672 26.9244 6.44766 26.9953 6.16425C26.9953 5.66827 26.8536 5.42028 26.5702 5.42028C26.0033 5.20772 24.1257 5.03059 20.9373 4.88888H17.6426C17.2175 4.46376 17.0049 4.18034 17.0049 4.03863C17.0049 3.89693 17.0758 3.29467 17.2175 2.23186C17.5009 1.02735 17.8551 0.283383 18.2803 -3.21865e-05H75.5655C76.0615 0.283383 76.3095 0.673079 76.3095 1.16906C76.3095 1.52332 75.849 5.49113 74.9279 13.0725C74.0068 20.6538 73.5108 24.5508 73.4399 24.7634C73.2982 25.2593 72.5897 25.5073 71.3143 25.5073H70.039C69.543 25.1531 69.295 24.6925 69.295 24.1257C69.295 24.0548 69.4013 23.2046 69.6138 21.5749C69.8264 19.9453 69.9327 18.0677 69.9327 15.9421C69.9327 13.8165 69.6847 12.0805 69.1887 10.7343C68.6927 9.38809 68.0196 8.28986 67.1694 7.43961C66.3191 6.58937 65.0083 6.02254 63.237 5.73912C61.4656 5.45571 59.6589 5.20772 57.8167 4.99516C55.9745 4.7826 53.4237 4.74717 50.1645 4.88888H47.72C41.91 4.95973 38.8279 5.06601 38.4736 5.20772C38.1193 5.34943 37.8713 5.63284 37.7296 6.05797C37.6588 6.12882 36.4543 10.7697 34.1161 19.9807L30.7151 33.6909H36.5605C36.7731 33.6909 37.5879 33.6909 39.005 33.6909C40.4221 33.6909 41.414 33.6555 41.9809 33.5847C42.5477 33.5138 43.3271 33.4075 44.319 33.2658C45.311 33.1241 46.1612 32.8761 46.8698 32.5218C47.5783 32.1676 48.1806 31.7425 48.6765 31.2465C49.5976 30.3962 50.377 29.2271 51.0147 27.7392C51.6524 26.2513 52.1129 24.9051 52.3964 23.7006C52.6798 22.496 52.8569 21.8584 52.9278 21.7875C53.1403 21.4332 53.8134 21.2561 54.9471 21.2561H56.2225C56.7184 21.6104 56.9664 21.9646 56.9664 22.3189C56.9664 22.5315 55.8682 27.1724 53.6717 36.2417C51.4753 45.311 50.2707 49.9873 50.0582 50.2707C49.9165 50.7667 49.2079 51.0147 47.9326 51.0147H46.6572C46.1612 50.5896 45.9132 50.1644 45.9132 49.7393C45.9132 49.5268 46.0904 48.7474 46.4446 47.4011C46.7989 46.0549 46.976 44.6378 46.976 43.1499C46.976 41.0952 46.2675 39.8198 44.8504 39.3238C43.4334 38.8278 40.2804 38.5798 35.3915 38.5798H29.546L26.145 52.0775C23.8777 60.8634 22.7441 65.4689 22.7441 65.894C22.7441 66.8859 25.8971 67.3819 32.203 67.3819H34.8601C35.2852 67.807 35.4977 68.055 35.4977 68.1259C35.4977 68.1967 35.4269 68.9053 35.2852 70.2515C35.0018 71.1726 34.6475 71.8457 34.2224 72.2708H32.4156C29.5106 72.1291 24.1611 72.0583 16.3672 72.0583C11.7617 72.0583 8.25446 72.0583 5.84544 72.0583C3.43641 72.0583 2.09019 72.0937 1.80677 72.1645Z" fill="black"/>
<path d="M66.6217 66.6476C66.6718 66.3471 66.7469 65.9463 66.8471 65.4454C66.9473 64.9444 67.2479 63.9927 67.7488 62.59C68.2497 61.1874 68.7507 60.0102 69.2516 59.0584C69.7526 58.1067 70.5791 57.1799 71.7313 56.2782C72.8834 55.3765 74.0356 54.9508 75.1877 55.0008C76.9911 55.0008 78.4939 55.4517 79.6961 56.3534C80.8984 57.2551 81.6498 58.1067 81.9504 58.9081C82.2509 59.7096 82.4012 60.2356 82.4012 60.4861C82.4012 60.5863 82.4262 60.6364 82.4763 60.6364L83.3029 59.8098C86.3586 56.6038 89.8401 55.0008 93.7474 55.0008C96.4525 55.0008 98.6315 55.6771 100.285 57.0296C101.938 58.3822 102.789 60.3609 102.839 62.9657C102.889 65.5706 101.938 69.5029 99.9841 74.7628C98.0304 80.0226 97.0786 83.2036 97.1287 84.3056C97.1287 85.608 97.5545 86.2593 98.4061 86.2593C98.7067 86.2593 98.9321 86.2342 99.0824 86.1841C100.535 85.9337 101.838 84.9819 102.99 83.3288C104.142 81.6757 105.018 79.672 105.62 77.3176C105.72 76.9168 106.221 76.7164 107.122 76.7164C108.124 76.7164 108.625 76.9168 108.625 77.3176C108.625 77.3676 108.525 77.7433 108.325 78.4447C107.924 79.8974 107.373 81.325 106.672 82.7277C105.97 84.1303 104.818 85.5329 103.215 86.9355C101.612 88.3381 99.8839 89.0144 98.0304 88.9643C95.676 88.9643 93.9728 88.2881 92.9209 86.9355C91.8689 85.583 91.3429 84.1804 91.3429 82.7277C91.3429 81.7759 92.2446 78.7703 94.048 73.7108C95.8513 68.6514 96.7781 64.8442 96.8282 62.2895C96.8282 59.3339 95.7261 57.8562 93.522 57.8562H93.1463C88.8382 57.8562 85.2064 60.3859 82.2509 65.4454L81.7249 66.3471L79.2453 76.4159C77.5922 82.9781 76.6404 86.5097 76.39 87.0107C75.7387 88.3632 74.6617 89.0395 73.1589 89.0395C72.5077 89.0395 71.9817 88.8892 71.581 88.5886C71.1802 88.2881 70.9047 87.9875 70.7544 87.6869C70.6041 87.3864 70.5541 87.1359 70.6041 86.9355C70.6041 86.2843 71.5559 82.2017 73.4595 74.6876C75.363 67.1736 76.3649 63.091 76.4651 62.4397C76.5152 62.1893 76.5402 61.6132 76.5402 60.7115C76.5402 58.7579 75.9391 57.781 74.7369 57.781C72.8333 57.781 71.2554 60.2857 70.003 65.2951C69.7025 66.297 69.5522 66.8229 69.5522 66.873C69.452 67.1736 68.9761 67.3239 68.1245 67.3239H67.0725C66.772 67.0233 66.6217 66.7979 66.6217 66.6476Z" fill="black"/>
<path d="M113.058 75.5893C113.058 72.734 113.534 70.1291 114.486 67.7747C115.438 65.4203 116.665 63.4667 118.168 61.9138C119.671 60.3609 121.349 59.0584 123.202 58.0065C125.056 56.9545 126.809 56.1781 128.462 55.6771C130.115 55.1762 131.693 54.9508 133.196 55.0009H133.422C135.676 55.0009 137.629 55.5519 139.282 56.6539C140.936 57.756 141.762 59.384 141.762 61.5381C141.762 66.0465 138.982 69.002 133.422 70.4046C130.967 71.0559 127.611 71.4065 123.353 71.4566C121.499 71.4566 120.547 71.5067 120.497 71.6069C120.497 71.7071 120.347 72.5837 120.047 74.2368C119.746 75.8899 119.571 77.3426 119.521 78.5949C119.521 80.9493 120.047 82.8028 121.098 84.1553C122.15 85.5079 123.728 86.2092 125.832 86.2593C127.936 86.3094 130.266 85.8335 132.82 84.8316C135.375 83.8297 137.679 82.1766 139.733 79.8723C140.184 79.3714 140.485 79.1209 140.635 79.1209C140.835 79.1209 141.161 79.3463 141.612 79.7972C142.063 80.248 142.313 80.5987 142.363 80.8492C142.413 81.0996 142.188 81.5004 141.687 82.0514C141.186 82.6024 140.435 83.2787 139.433 84.0802C138.431 84.8817 137.279 85.6581 135.976 86.4095C134.674 87.1609 133.096 87.7871 131.242 88.2881C129.389 88.789 127.485 89.0395 125.532 89.0395C121.574 89.0395 118.519 87.712 116.365 85.057C114.211 82.4021 113.109 79.2462 113.058 75.5893ZM138.155 61.6883C137.855 59.0835 136.152 57.781 133.046 57.781C131.393 57.781 129.865 58.1317 128.462 58.833C127.06 59.5343 125.933 60.3859 125.081 61.3878C124.229 62.3897 123.503 63.4166 122.902 64.4685C122.301 65.5205 121.9 66.4222 121.7 67.1736C121.499 67.925 121.374 68.4009 121.324 68.6013C121.324 68.6514 121.825 68.6764 122.827 68.6764C128.487 68.6764 132.445 68.0753 134.699 66.873C136.953 65.6708 138.105 63.9426 138.155 61.6883Z" fill="black"/>
<path d="M147.097 59.2839C146.746 58.9332 146.571 58.6827 146.571 58.5324C146.571 58.3321 146.646 57.9313 146.797 57.3302C146.947 56.7291 147.072 56.3784 147.172 56.2782C147.272 56.0278 147.498 55.9025 147.848 55.9025C148.199 55.9025 149.477 55.8775 151.681 55.8274H155.663L157.091 49.8162C157.241 49.2651 157.416 48.5388 157.617 47.6371C157.817 46.7354 157.992 46.0842 158.143 45.6834C158.293 45.2827 158.443 44.7817 158.594 44.1806C158.744 43.5795 158.944 43.1537 159.195 42.9032C159.445 42.6528 159.696 42.3522 159.946 42.0016C160.197 41.6509 160.547 41.4255 160.998 41.3253C161.449 41.2251 161.9 41.175 162.351 41.175C163.252 41.2251 163.878 41.5006 164.229 42.0016C164.58 42.5025 164.755 42.9784 164.755 43.4292C164.755 43.7799 164.53 44.9571 164.079 46.9608C163.628 48.9646 163.127 50.9433 162.576 52.8969L161.825 55.6771C161.825 55.7773 163.077 55.8274 165.582 55.8274H169.414C169.764 56.178 169.94 56.4536 169.94 56.6539C169.94 57.756 169.614 58.6326 168.963 59.2839H160.923L158.218 70.1792C156.264 78.1942 155.287 82.5022 155.287 83.1034C155.287 85.2073 155.964 86.2593 157.316 86.2593C159.069 86.2593 160.773 85.4077 162.426 83.7045C164.079 82.0013 165.406 79.8974 166.408 77.3927C166.508 77.0921 166.634 76.9168 166.784 76.8667C166.934 76.8166 167.31 76.7665 167.911 76.7164H168.212C168.963 76.7164 169.339 76.9168 169.339 77.3176C169.339 77.4678 169.264 77.7684 169.113 78.2192C168.863 79.0207 168.412 79.9725 167.761 81.0746C167.109 82.1766 166.258 83.3538 165.206 84.6062C164.154 85.8585 162.877 86.9105 161.374 87.7621C159.871 88.6137 158.343 89.0395 156.79 89.0395C155.287 89.0395 153.86 88.6638 152.507 87.9124C151.155 87.1609 150.178 85.8585 149.577 84.0051C149.477 83.6043 149.426 82.928 149.426 81.9763V80.6237L152.056 70.1041C153.81 63.0409 154.711 59.4842 154.761 59.4341C154.761 59.3339 153.484 59.2839 150.929 59.2839H147.097Z" fill="black"/>
<path d="M175.032 84.1311C175.28 82.6436 176.236 80.9259 177.9 78.978C179.565 77.0301 181.619 76.0385 184.063 76.0031C185.302 76.0031 186.436 76.3218 187.463 76.9593C188.49 77.5968 189.251 78.3937 189.747 79.3499C191.234 77.1187 193.023 76.0031 195.113 76.0031C196.423 76.0031 197.556 76.3926 198.513 77.1718C199.469 77.951 199.965 78.9957 200 80.3061C200 81.3332 199.752 82.1655 199.256 82.803C198.76 83.4405 198.282 83.83 197.822 83.9717C197.361 84.1134 196.954 84.1842 196.6 84.1842C195.927 84.1842 195.378 83.9894 194.953 83.5998C194.528 83.2103 194.316 82.6967 194.316 82.0592C194.316 80.4301 195.201 79.3145 196.972 78.7124C196.582 78.252 195.874 78.0218 194.847 78.0218C194.387 78.0218 194.05 78.0572 193.838 78.128C192.492 78.6947 191.5 79.8634 190.863 81.6342C188.738 89.4612 187.675 94.0299 187.675 95.3403C187.675 96.332 187.958 97.0403 188.525 97.4653C189.092 97.8903 189.712 98.1028 190.385 98.1028C191.695 98.1028 192.988 97.5184 194.263 96.3497C195.538 95.1809 196.405 93.7466 196.866 92.0466C196.972 91.6924 197.078 91.4976 197.184 91.4622C197.291 91.4268 197.574 91.3914 198.034 91.356H198.247C198.778 91.356 199.044 91.4976 199.044 91.781C199.044 91.8164 199.008 92.0112 198.938 92.3653C198.371 94.3841 197.273 96.1726 195.644 97.7309C194.015 99.2892 192.12 100.068 189.96 100.068C187.48 100.068 185.603 98.9527 184.328 96.7215C182.876 98.9173 181.212 100.015 179.335 100.015H179.016C177.281 100.015 176.041 99.5548 175.297 98.634C174.553 97.7132 174.164 96.7392 174.128 95.7122C174.128 94.5789 174.465 93.658 175.138 92.9497C175.811 92.2414 176.608 91.8872 177.528 91.8872C179.051 91.8872 179.813 92.631 179.813 94.1184C179.813 94.8268 179.6 95.4465 179.175 95.9778C178.75 96.509 178.343 96.8632 177.953 97.0403C177.564 97.2174 177.334 97.3059 177.263 97.3059L177.103 97.359C177.103 97.3944 177.21 97.4653 177.422 97.5715C177.635 97.6778 177.918 97.8017 178.272 97.9434C178.626 98.0851 178.963 98.1382 179.282 98.1028C180.557 98.1028 181.654 97.3059 182.575 95.7122C182.894 95.1455 183.301 93.9414 183.797 92.0997C184.293 90.2581 184.789 88.3456 185.285 86.3623C185.78 84.379 186.064 83.2103 186.135 82.8561C186.312 81.8999 186.4 81.2092 186.4 80.7842C186.4 79.7926 186.135 79.0843 185.603 78.6593C185.072 78.2343 184.47 78.0218 183.797 78.0218C182.38 78.0218 181.052 78.5884 179.813 79.7218C178.573 80.8551 177.706 82.3071 177.21 84.078C177.139 84.3967 177.05 84.5738 176.944 84.6092C176.838 84.6446 176.554 84.68 176.094 84.7154H175.35C175.138 84.5029 175.032 84.3082 175.032 84.1311Z" fill="black"/>
</svg>
