<svg width="200" height="112" viewBox="0 0 200 112" fill="none" xmlns="http://www.w3.org/2000/svg">
<path d="M1.81921 72.6615C0.606405 72.6615 0 72.3048 0 71.5914C0 71.4487 0.107013 70.9493 0.321038 70.0932C0.606405 68.9518 0.891772 68.3097 1.17714 68.167C1.46251 68.0243 2.28294 67.9173 3.63843 67.846C5.56465 67.846 7.70491 67.739 10.0592 67.5249C11.058 67.3109 11.7357 66.8829 12.0924 66.2408C12.2351 65.8841 14.7677 55.8606 19.6903 36.1703C24.6129 16.4799 27.1099 6.4921 27.1812 6.20673C27.1812 5.70734 27.0385 5.45764 26.7531 5.45764C26.1824 5.24362 24.2919 5.06526 21.0815 4.92258H17.7641C17.336 4.49453 17.122 4.20916 17.122 4.06648C17.122 3.9238 17.1934 3.31739 17.336 2.24727C17.6214 1.03446 17.9781 0.285369 18.4062 2.08616e-06H76.0859C76.5853 0.285369 76.835 0.677748 76.835 1.17714C76.835 1.53385 76.3713 5.52898 75.4439 13.1625C74.5164 20.7961 74.017 24.7199 73.9457 24.9339C73.803 25.4333 73.0896 25.683 71.8054 25.683H70.5213C70.0219 25.3263 69.7722 24.8626 69.7722 24.2919C69.7722 24.2205 69.8792 23.3644 70.0932 21.7236C70.3073 20.0827 70.4143 18.1921 70.4143 16.0519C70.4143 13.9116 70.1646 12.1638 69.6652 10.8083C69.1658 9.45278 68.4881 8.34698 67.632 7.49088C66.7759 6.63478 65.456 6.06405 63.6725 5.77868C61.8889 5.49331 60.0697 5.24362 58.2148 5.02959C56.36 4.81557 53.7917 4.7799 50.5099 4.92258H48.0487C42.1986 4.99392 39.0953 5.10093 38.7386 5.24362C38.3818 5.3863 38.1322 5.67167 37.9895 6.09972C37.9181 6.17106 36.7053 10.8439 34.351 20.1184L30.9266 33.923H36.8123C37.0264 33.923 37.8468 33.923 39.2736 33.923C40.7005 33.923 41.6992 33.8873 42.27 33.816C42.8407 33.7446 43.6255 33.6376 44.6242 33.4949C45.623 33.3523 46.4791 33.1026 47.1925 32.7459C47.906 32.3891 48.5124 31.9611 49.0118 31.4617C49.9392 30.6056 50.724 29.4285 51.366 27.9303C52.0081 26.4321 52.4718 25.0766 52.7572 23.8638C53.0426 22.651 53.2209 22.0089 53.2923 21.9376C53.5063 21.5809 54.184 21.4025 55.3255 21.4025H56.6097C57.109 21.7592 57.3587 22.1159 57.3587 22.4726C57.3587 22.6867 56.2529 27.3596 54.0414 36.4913C51.8298 45.623 50.617 50.3316 50.4029 50.617C50.2602 51.1163 49.5468 51.366 48.2627 51.366H46.9785C46.4791 50.938 46.2294 50.5099 46.2294 50.0819C46.2294 49.8679 46.4078 49.0831 46.7645 47.7276C47.1212 46.3721 47.2996 44.9453 47.2996 43.4471C47.2996 41.3782 46.5861 40.094 45.1593 39.5947C43.7325 39.0953 40.5578 38.8456 35.6352 38.8456H29.7495L26.3251 52.4362C24.0422 61.2825 22.9007 65.9197 22.9007 66.3478C22.9007 67.3466 26.0754 67.846 32.4248 67.846H35.1001C35.5282 68.274 35.7422 68.5237 35.7422 68.5951C35.7422 68.6664 35.6709 69.3798 35.5282 70.7353C35.2428 71.6628 34.8861 72.3405 34.4581 72.7686H32.6388C29.7138 72.6259 24.3275 72.5545 16.4799 72.5545C11.8427 72.5545 8.31131 72.5545 5.88569 72.5545C3.46007 72.5545 2.10458 72.5902 1.81921 72.6615Z" fill="black"/>
<path d="M67.0805 67.1066C67.1309 66.804 67.2066 66.4005 67.3075 65.8961C67.4084 65.3917 67.711 64.4334 68.2154 63.0211C68.7198 61.6088 69.2241 60.4235 69.7285 59.4652C70.2329 58.5068 71.0652 57.5737 72.2252 56.6658C73.3853 55.7579 74.5454 55.3292 75.7055 55.3796C77.5213 55.3796 79.0345 55.8336 80.245 56.7415C81.4555 57.6494 82.2121 58.5068 82.5147 59.3139C82.8173 60.1209 82.9687 60.6505 82.9687 60.9027C82.9687 61.0036 82.9939 61.054 83.0443 61.054L83.8766 60.2218C86.9533 56.9937 90.4588 55.3796 94.393 55.3796C97.1167 55.3796 99.3108 56.0606 100.975 57.4224C102.64 58.7843 103.497 60.7766 103.548 63.3994C103.598 66.0222 102.64 69.9816 100.673 75.2777C98.7055 80.5737 97.7472 83.7766 97.7976 84.8862C97.7976 86.1976 98.2263 86.8533 99.0838 86.8533C99.3864 86.8533 99.6134 86.8281 99.7647 86.7777C101.227 86.5255 102.539 85.5672 103.699 83.9027C104.859 82.2382 105.742 80.2207 106.347 77.85C106.448 77.4465 106.952 77.2448 107.86 77.2448C108.869 77.2448 109.373 77.4465 109.373 77.85C109.373 77.9005 109.272 78.2788 109.071 78.9849C108.667 80.4476 108.112 81.8851 107.406 83.2974C106.7 84.7097 105.54 86.122 103.926 87.5343C102.312 88.9465 100.572 89.6275 98.7055 89.577C96.3349 89.577 94.62 88.8961 93.5608 87.5343C92.5016 86.1724 91.972 84.7601 91.972 83.2974C91.972 82.3391 92.8799 79.3128 94.6956 74.2185C96.5114 69.1242 97.4445 65.2908 97.495 62.7185C97.495 59.7426 96.3853 58.2546 94.166 58.2546H93.7877C89.45 58.2546 85.7932 60.8018 82.8173 65.8961L82.2877 66.804L79.791 76.9422C78.1266 83.5496 77.1682 87.1055 76.916 87.6099C76.2603 88.9718 75.1759 89.6527 73.6627 89.6527C73.007 89.6527 72.4774 89.5014 72.0739 89.1987C71.6704 88.8961 71.393 88.5935 71.2417 88.2908C71.0904 87.9882 71.0399 87.736 71.0904 87.5343C71.0904 86.8786 72.0487 82.7678 73.9654 75.202C75.882 67.6362 76.8908 63.5255 76.9917 62.8698C77.0421 62.6176 77.0673 62.0375 77.0673 61.1296C77.0673 59.1625 76.4621 58.179 75.2516 58.179C73.3349 58.179 71.7461 60.7009 70.4851 65.7448C70.1825 66.7536 70.0312 67.2832 70.0312 67.3336C69.9303 67.6362 69.4511 67.7875 68.5937 67.7875H67.5345C67.2318 67.4849 67.0805 67.2579 67.0805 67.1066Z" fill="black"/>
<path d="M113.837 76.1099C113.837 73.2349 114.316 70.6121 115.275 68.2415C116.233 65.8709 117.469 63.9038 118.982 62.3402C120.495 60.7766 122.185 59.4652 124.051 58.406C125.917 57.3468 127.682 56.565 129.347 56.0606C131.011 55.5562 132.6 55.3292 134.113 55.3797H134.34C136.61 55.3797 138.577 55.9345 140.242 57.0441C141.906 58.1538 142.738 59.793 142.738 61.9619C142.738 66.5014 139.939 69.4772 134.34 70.8895C131.869 71.5452 128.489 71.8983 124.202 71.9487C122.336 71.9487 121.378 71.9992 121.327 72.1C121.327 72.2009 121.176 73.0836 120.873 74.7481C120.571 76.4125 120.394 77.8753 120.344 79.1362C120.344 81.5068 120.873 83.3731 121.932 84.7349C122.992 86.0968 124.58 86.8029 126.699 86.8533C128.817 86.9038 131.163 86.4246 133.735 85.4158C136.307 84.4071 138.628 82.7426 140.696 80.4224C141.15 79.918 141.452 79.6658 141.604 79.6658C141.805 79.6658 142.133 79.8928 142.587 80.3468C143.041 80.8007 143.293 81.1538 143.344 81.406C143.394 81.6582 143.167 82.0617 142.663 82.6165C142.158 83.1713 141.402 83.8522 140.393 84.6593C139.384 85.4663 138.224 86.2481 136.913 87.0047C135.601 87.7612 134.013 88.3917 132.146 88.8961C130.28 89.4005 128.363 89.6527 126.396 89.6527C122.412 89.6527 119.335 88.3161 117.166 85.6428C114.997 82.9696 113.888 79.7919 113.837 76.1099ZM139.107 62.1132C138.804 59.4904 137.089 58.179 133.962 58.179C132.298 58.179 130.759 58.5321 129.347 59.2382C127.935 59.9443 126.8 60.8018 125.942 61.8106C125.085 62.8193 124.354 63.8533 123.748 64.9125C123.143 65.9718 122.739 66.8797 122.538 67.6362C122.336 68.3928 122.21 68.872 122.159 69.0737C122.159 69.1242 122.664 69.1494 123.673 69.1494C129.372 69.1494 133.357 68.5441 135.627 67.3336C137.896 66.1231 139.056 64.3829 139.107 62.1132Z" fill="black"/>
<path d="M148.11 59.6921C147.757 59.3391 147.581 59.0869 147.581 58.9356C147.581 58.7338 147.656 58.3303 147.807 57.725C147.959 57.1198 148.085 56.7667 148.186 56.6658C148.287 56.4136 148.514 56.2875 148.867 56.2875C149.22 56.2875 150.506 56.2623 152.725 56.2119H156.735L158.173 50.1593C158.324 49.6044 158.5 48.8731 158.702 47.9652C158.904 47.0573 159.081 46.4016 159.232 45.9981C159.383 45.5946 159.534 45.0902 159.686 44.4849C159.837 43.8796 160.039 43.4509 160.291 43.1987C160.543 42.9465 160.795 42.6439 161.048 42.2908C161.3 41.9378 161.653 41.7108 162.107 41.6099C162.561 41.509 163.015 41.4586 163.469 41.4586C164.377 41.509 165.007 41.7864 165.36 42.2908C165.713 42.7952 165.89 43.2744 165.89 43.7283C165.89 44.0814 165.663 45.2667 165.209 47.2843C164.755 49.3018 164.25 51.2941 163.696 53.2612L162.939 56.0606C162.939 56.1614 164.2 56.2119 166.722 56.2119H170.581C170.934 56.565 171.11 56.8424 171.11 57.0441C171.11 58.1538 170.782 59.0364 170.127 59.6921H162.031L159.307 70.6625C157.34 78.7327 156.357 83.0704 156.357 83.6757C156.357 85.7941 157.038 86.8533 158.4 86.8533C160.165 86.8533 161.88 85.9959 163.544 84.281C165.209 82.5661 166.545 80.4476 167.554 77.9257C167.655 77.6231 167.781 77.4465 167.932 77.3961C168.084 77.3457 168.462 77.2952 169.067 77.2448H169.37C170.127 77.2448 170.505 77.4465 170.505 77.85C170.505 78.0014 170.429 78.304 170.278 78.7579C170.026 79.565 169.572 80.5233 168.916 81.6329C168.26 82.7426 167.403 83.9279 166.344 85.1889C165.284 86.4498 163.998 87.509 162.485 88.3665C160.972 89.224 159.434 89.6527 157.87 89.6527C156.357 89.6527 154.919 89.2744 153.557 88.5178C152.196 87.7612 151.212 86.4498 150.607 84.5836C150.506 84.1801 150.456 83.4992 150.456 82.5408V81.179L153.104 70.5869C154.869 63.475 155.777 59.8939 155.827 59.8435C155.827 59.7426 154.541 59.6921 151.969 59.6921H148.11Z" fill="black"/>
<path d="M174.579 84.8175C174.579 84.3182 174.846 83.4624 175.381 82.2499C175.916 81.0375 176.772 79.7716 177.949 78.4521C179.125 77.1327 180.445 76.4908 181.907 76.5265C183.369 76.5265 184.546 76.9366 185.437 77.7568C186.329 78.5769 186.792 79.7181 186.828 81.1801C186.757 81.8577 186.703 82.2321 186.668 82.3034C186.668 82.4104 186.382 83.2306 185.812 84.764C185.241 86.2973 184.653 88.0269 184.047 89.9525C183.44 91.8782 183.155 93.4115 183.191 94.5527C183.191 96.086 183.44 97.1558 183.94 97.7621C184.439 98.3683 185.188 98.6892 186.186 98.7249C187.006 98.7249 187.773 98.5288 188.486 98.1365C189.199 97.7442 189.752 97.3341 190.144 96.9062C190.537 96.4783 191.018 95.8899 191.589 95.141C191.589 95.1054 191.678 94.7488 191.856 94.0712C192.034 93.3937 192.284 92.3417 192.605 90.9153C192.926 89.4889 193.265 88.1695 193.621 86.9571C194.976 81.608 195.725 78.8087 195.868 78.5591C196.331 77.5963 197.098 77.1149 198.168 77.1149C198.632 77.1149 199.006 77.2397 199.291 77.4893C199.577 77.7389 199.773 77.9529 199.88 78.1312C199.987 78.3095 200.022 78.47 199.987 78.6126C199.987 79.0762 199.113 82.8205 197.366 89.8455C195.618 96.8706 194.62 100.722 194.37 101.399C193.372 104.359 191.642 106.713 189.182 108.46C186.721 110.207 184.261 111.099 181.8 111.135C180.195 111.135 178.787 110.742 177.574 109.958C176.362 109.173 175.756 107.997 175.756 106.427C175.756 105.643 175.88 104.983 176.13 104.448C176.38 103.913 176.718 103.521 177.146 103.272C177.574 103.022 177.931 102.844 178.216 102.737C178.501 102.63 178.805 102.576 179.125 102.576C180.695 102.576 181.479 103.325 181.479 104.823C181.479 105.536 181.265 106.16 180.837 106.695C180.409 107.23 179.999 107.586 179.607 107.765C179.215 107.943 178.983 108.032 178.912 108.032L178.751 108.086C178.822 108.264 179.161 108.478 179.767 108.728C180.374 108.977 180.98 109.102 181.586 109.102H182.014C182.62 109.102 183.084 109.066 183.405 108.995C184.581 108.674 185.669 107.997 186.668 106.962C187.666 105.928 188.433 104.823 188.968 103.646C189.503 102.469 189.913 101.471 190.198 100.651C190.483 99.8303 190.626 99.2954 190.626 99.0458L190.305 99.2598C190.091 99.4024 189.752 99.5986 189.289 99.8482C188.825 100.098 188.361 100.312 187.898 100.49C187.185 100.668 186.489 100.758 185.812 100.758C184.171 100.758 182.727 100.365 181.479 99.5807C180.231 98.7962 179.411 97.5303 179.018 95.7829C178.983 95.5333 178.965 94.9806 178.965 94.1247C178.965 92.0921 179.589 89.4354 180.837 86.1547C182.085 82.874 182.709 80.7879 182.709 79.8964C182.709 79.8607 182.709 79.825 182.709 79.7894C182.709 79.4684 182.709 79.2545 182.709 79.1475C182.709 79.0405 182.638 78.9157 182.495 78.7731C182.353 78.6304 182.157 78.5591 181.907 78.5591H181.693C180.873 78.5591 180.124 78.8979 179.446 79.5754C178.769 80.253 178.234 80.984 177.842 81.7685C177.449 82.553 177.146 83.3019 176.932 84.0151C176.718 84.7283 176.576 85.1206 176.504 85.1919C176.433 85.2632 176.148 85.2989 175.649 85.2989H174.9C174.686 85.0849 174.579 84.9244 174.579 84.8175Z" fill="black"/>
</svg>
