<svg width="972" height="926" viewBox="0 0 972 926" fill="none" xmlns="http://www.w3.org/2000/svg">
<path d="M602.419 403.188C601.473 403.188 601 402.909 601 402.353C601 402.242 601.083 401.852 601.25 401.185C601.473 400.295 601.695 399.794 601.918 399.683C602.14 399.572 602.78 399.488 603.837 399.433C605.339 399.433 607.008 399.349 608.844 399.182C609.623 399.015 610.151 398.682 610.429 398.181C610.54 397.903 612.515 390.087 616.354 374.733C620.192 359.379 622.139 351.591 622.195 351.368C622.195 350.979 622.084 350.784 621.861 350.784C621.416 350.617 619.942 350.478 617.439 350.367H614.852C614.518 350.033 614.351 349.811 614.351 349.7C614.351 349.588 614.407 349.115 614.518 348.281C614.741 347.335 615.019 346.751 615.352 346.529H660.329C660.719 346.751 660.913 347.057 660.913 347.447C660.913 347.725 660.552 350.84 659.828 356.792C659.105 362.745 658.716 365.804 658.66 365.971C658.549 366.361 657.993 366.555 656.991 366.555H655.99C655.601 366.277 655.406 365.916 655.406 365.471C655.406 365.415 655.489 364.747 655.656 363.468C655.823 362.188 655.907 360.714 655.907 359.045C655.907 357.376 655.712 356.014 655.322 354.957C654.933 353.9 654.405 353.037 653.737 352.37C653.069 351.702 652.04 351.257 650.65 351.035C649.259 350.812 647.84 350.617 646.394 350.451C644.947 350.284 642.945 350.256 640.386 350.367H638.467C633.905 350.423 631.485 350.506 631.207 350.617C630.929 350.729 630.734 350.951 630.623 351.285C630.567 351.341 629.621 354.984 627.786 362.216L625.115 372.981H629.705C629.872 372.981 630.512 372.981 631.624 372.981C632.737 372.981 633.516 372.953 633.961 372.897C634.406 372.842 635.018 372.758 635.796 372.647C636.575 372.536 637.243 372.341 637.799 372.063C638.355 371.785 638.828 371.451 639.218 371.061C639.941 370.394 640.553 369.476 641.053 368.308C641.554 367.139 641.916 366.083 642.138 365.137C642.361 364.191 642.5 363.69 642.555 363.635C642.722 363.357 643.251 363.218 644.141 363.218H645.142C645.532 363.496 645.726 363.774 645.726 364.052C645.726 364.219 644.864 367.863 643.14 374.983C641.415 382.104 640.469 385.775 640.302 385.998C640.191 386.387 639.635 386.582 638.634 386.582H637.632C637.243 386.248 637.048 385.915 637.048 385.581C637.048 385.414 637.187 384.802 637.465 383.745C637.743 382.688 637.883 381.575 637.883 380.407C637.883 378.794 637.326 377.793 636.214 377.403C635.101 377.014 632.626 376.819 628.787 376.819H624.198L621.527 387.417C619.747 394.315 618.857 397.931 618.857 398.264C618.857 399.043 621.333 399.433 626.284 399.433H628.37C628.704 399.766 628.87 399.961 628.87 400.017C628.87 400.072 628.815 400.629 628.704 401.686C628.481 402.409 628.203 402.937 627.869 403.271H626.451C624.17 403.16 619.97 403.104 613.85 403.104C610.235 403.104 607.481 403.104 605.589 403.104C603.698 403.104 602.641 403.132 602.419 403.188Z" fill="#2CAC0B"/>
<path d="M653.845 326.669C653.845 326.224 653.984 325.834 654.263 325.501C654.541 325.167 654.958 325 655.514 325C655.904 325 656.237 325.139 656.516 325.417C656.794 325.64 657.072 326.168 657.35 327.003C657.906 329.061 659.047 330.646 660.771 331.759C661.383 332.148 661.689 332.649 661.689 333.261C661.689 333.762 661.606 334.095 661.439 334.262C661.272 334.429 660.883 334.68 660.271 335.013C657.879 336.237 655.792 337.989 654.012 340.27C653.901 340.382 653.762 340.548 653.595 340.771C653.428 340.993 653.289 341.16 653.178 341.272C653.067 341.383 652.927 341.439 652.761 341.439C652.594 341.439 652.399 341.466 652.176 341.522C651.787 341.522 651.425 341.383 651.092 341.105C650.758 340.827 650.563 340.409 650.508 339.853C650.508 338.796 651.815 337.155 654.429 334.93H640.16L625.891 334.846C625.168 334.346 624.807 333.817 624.807 333.261C624.807 332.872 625.168 332.315 625.891 331.592H655.848C654.513 329.478 653.845 327.837 653.845 326.669Z" fill="#2CAC0B"/>
<path d="M671.071 425.345C671.149 425.345 671.267 425.384 671.425 425.463C671.582 425.542 671.798 425.601 672.074 425.64C672.349 425.679 672.585 425.699 672.782 425.699C673.293 425.699 673.765 425.443 674.197 424.932C674.63 424.421 674.945 423.85 675.141 423.221C675.535 422.159 676.203 419.15 677.147 414.195C678.091 409.239 678.996 404.52 679.861 400.036C680.726 395.552 681.159 393.291 681.159 393.251V393.074H678.386C676.538 393.074 675.554 393.035 675.436 392.956C675.279 392.838 675.2 392.642 675.2 392.367L675.613 390.715C675.692 390.518 675.849 390.42 676.085 390.42C676.321 390.42 677.246 390.4 678.858 390.361C680.746 390.361 681.69 390.341 681.69 390.302C681.69 390.223 681.867 389.24 682.221 387.352C682.575 385.464 682.811 384.323 682.929 383.93C684.384 377.441 687.255 374.196 691.542 374.196C692.997 374.275 694.197 374.707 695.141 375.494C696.085 376.28 696.557 377.323 696.557 378.621C696.557 380.036 696.144 381.059 695.318 381.688C694.492 382.318 693.666 382.652 692.84 382.691C691.109 382.691 690.244 381.865 690.244 380.213C690.244 379.466 690.461 378.817 690.893 378.267C691.326 377.716 691.798 377.303 692.309 377.028L692.84 376.733C692.211 376.497 691.621 376.379 691.07 376.379C690.598 376.379 690.146 376.575 689.713 376.969C689.281 377.362 688.986 377.913 688.828 378.621C688.553 379.761 688.238 381.295 687.884 383.222C687.53 385.149 687.216 386.782 686.94 388.119C686.665 389.456 686.527 390.164 686.527 390.243C686.527 390.321 687.609 390.361 689.772 390.361C691.542 390.361 692.565 390.38 692.84 390.42C693.115 390.459 693.332 390.577 693.489 390.774C693.528 390.931 693.489 391.265 693.371 391.777C693.253 392.288 693.155 392.603 693.076 392.72C692.997 392.917 692.82 393.015 692.545 393.015C692.27 393.015 691.208 393.035 689.359 393.074H686.056L684.699 400.272C682.811 410.026 681.493 416.122 680.746 418.56C679.684 421.904 678.307 424.381 676.616 425.994C675.161 427.252 673.725 427.882 672.31 427.882C671.051 427.882 669.91 427.508 668.888 426.761C667.865 426.014 667.354 424.952 667.354 423.575C667.354 422.12 667.767 421.058 668.593 420.389C669.419 419.721 670.245 419.386 671.071 419.386C672.801 419.386 673.667 420.212 673.667 421.864C673.667 422.611 673.45 423.26 673.018 423.811C672.585 424.362 672.113 424.775 671.602 425.05L671.071 425.345Z" fill="#2CAC0B"/>
<path d="M698.064 397.651C698.064 397.373 698.119 397.053 698.231 396.691C698.342 396.33 698.509 396.149 698.731 396.149C698.759 396.149 699.76 396.08 701.734 395.941C703.709 395.802 704.723 395.718 704.779 395.69C705.113 395.69 705.28 395.802 705.28 396.024C705.28 396.219 704.584 399.124 703.194 404.741C701.804 410.247 701.109 413.097 701.109 413.292C701.637 413.014 702.04 412.75 702.318 412.499C702.986 411.999 703.945 411.123 705.196 409.872C706.448 408.62 707.421 407.772 708.116 407.327C709.228 406.577 710.285 406.201 711.286 406.201C712.12 406.201 712.773 406.465 713.246 406.994C713.719 407.522 713.969 408.273 713.997 409.246C713.997 409.941 713.9 410.525 713.705 410.998C713.51 411.471 713.246 411.818 712.913 412.041C712.579 412.263 712.287 412.416 712.037 412.499C711.786 412.583 711.536 412.625 711.286 412.625C710.73 412.625 710.285 412.472 709.951 412.166C709.617 411.86 709.451 411.457 709.451 410.956C709.451 410.261 709.673 409.691 710.118 409.246C710.563 408.801 711.008 408.509 711.453 408.37L712.12 408.245C711.786 407.911 711.453 407.744 711.119 407.744H710.952C710.062 407.828 709.186 408.175 708.324 408.787C707.462 409.399 706.448 410.289 705.28 411.457C704.112 412.625 703.194 413.473 702.527 414.001C702.582 414.029 702.791 414.07 703.152 414.126C703.514 414.182 703.848 414.265 704.153 414.376C704.459 414.488 704.821 414.599 705.238 414.71C705.655 414.821 706.03 415.016 706.364 415.294C706.698 415.572 707.004 415.822 707.282 416.045C707.56 416.267 707.796 416.629 707.991 417.129C708.185 417.63 708.269 418.088 708.241 418.506C708.241 418.978 708.172 419.548 708.032 420.216C707.893 420.883 707.81 421.439 707.782 421.884C707.782 422.996 708.158 423.552 708.908 423.552C710.243 423.552 711.328 421.898 712.162 418.589C712.217 418.367 712.495 418.255 712.996 418.255H713.163C713.608 418.255 713.83 418.38 713.83 418.631C713.83 418.77 713.788 418.964 713.705 419.215C712.565 423.135 710.924 425.096 708.783 425.096C707.532 425.096 706.517 424.734 705.738 424.011C704.96 423.288 704.571 422.246 704.571 420.883C704.571 420.383 704.612 419.952 704.696 419.59C704.779 419.229 704.821 418.895 704.821 418.589C704.821 417.977 704.626 417.449 704.237 417.004C703.848 416.559 703.361 416.239 702.777 416.045C702.193 415.85 701.72 415.697 701.359 415.586C700.997 415.475 700.747 415.433 700.608 415.461H700.525C700.191 416.629 699.899 417.755 699.649 418.839C699.399 419.924 699.204 420.73 699.065 421.258C698.926 421.787 698.801 422.301 698.689 422.802C698.578 423.302 698.481 423.636 698.398 423.803C698.314 423.97 698.217 424.15 698.106 424.345C697.994 424.54 697.841 424.665 697.647 424.72C697.285 424.971 696.896 425.096 696.479 425.096C696.006 425.096 695.645 424.957 695.394 424.679C695.144 424.401 695.019 424.164 695.019 423.97C695.019 423.691 695.533 421.467 696.562 417.296C697.591 413.125 698.606 409.024 699.607 404.992L701.15 398.944C701.178 398.582 701.081 398.36 700.858 398.276C700.636 398.193 700.094 398.123 699.232 398.068H699.023C698.745 398.068 698.564 398.068 698.481 398.068C698.398 398.068 698.3 398.026 698.189 397.943C698.078 397.859 698.036 397.762 698.064 397.651Z" fill="#2CAC0B"/>
<path d="M85.9381 464.939C85.3523 465.525 85.3523 466.475 85.9381 467.061L95.4841 476.607C96.0698 477.192 97.0196 477.192 97.6054 476.607C98.1912 476.021 98.1912 475.071 97.6054 474.485L89.1201 466L97.6054 457.515C98.1912 456.929 98.1912 455.979 97.6054 455.393C97.0196 454.808 96.0698 454.808 95.4841 455.393L85.9381 464.939ZM888.059 467.061C888.645 466.475 888.645 465.525 888.059 464.939L878.513 455.393C877.928 454.808 876.978 454.808 876.392 455.393C875.806 455.979 875.806 456.929 876.392 457.515L884.877 466L876.392 474.485C875.806 475.071 875.806 476.021 876.392 476.607C876.978 477.192 877.928 477.192 878.513 476.607L888.059 467.061ZM86.9988 467.5H886.999V464.5H86.9988V467.5Z" fill="black"/>
<path d="M897 466.86C897 466.86 897 466.599 897 466.076C897 465.554 897.281 465.152 897.844 464.871H915.871V455.827L915.931 446.784C916.333 446.261 916.715 446 917.076 446C917.599 446 918.001 446.301 918.282 446.904V464.871H936.248C936.851 465.192 937.153 465.594 937.153 466.076C937.153 466.559 936.851 466.961 936.248 467.282H918.282V485.248C917.961 485.811 917.599 486.092 917.197 486.092H917.076H916.956C916.473 486.092 916.112 485.811 915.871 485.248V467.282H897.844C897.281 467.001 897 466.599 897 466.076V466.86Z" fill="black"/>
<path d="M943.664 463.725C943.945 462.037 945.031 460.088 946.92 457.877C948.809 455.666 951.14 454.541 953.913 454.501C955.32 454.501 956.606 454.863 957.772 455.586C958.937 456.309 959.802 457.214 960.364 458.299C962.052 455.767 964.082 454.501 966.453 454.501C967.941 454.501 969.227 454.943 970.312 455.827C971.397 456.711 971.96 457.897 972 459.384C972 460.55 971.719 461.494 971.156 462.218C970.593 462.941 970.051 463.383 969.528 463.544C969.006 463.705 968.544 463.785 968.142 463.785C967.378 463.785 966.755 463.564 966.273 463.122C965.79 462.68 965.549 462.097 965.549 461.374C965.549 459.525 966.554 458.259 968.564 457.576C968.121 457.053 967.318 456.792 966.152 456.792C965.63 456.792 965.248 456.832 965.007 456.912C963.479 457.555 962.354 458.882 961.63 460.891C959.219 469.774 958.013 474.959 958.013 476.446C958.013 477.572 958.334 478.375 958.978 478.858C959.621 479.34 960.324 479.581 961.088 479.581C962.575 479.581 964.042 478.918 965.489 477.592C966.936 476.265 967.921 474.637 968.443 472.708C968.564 472.306 968.684 472.085 968.805 472.045C968.925 472.005 969.247 471.965 969.769 471.924H970.011C970.613 471.924 970.915 472.085 970.915 472.407C970.915 472.447 970.875 472.668 970.794 473.07C970.151 475.361 968.905 477.391 967.056 479.159C965.207 480.928 963.057 481.812 960.605 481.812C957.792 481.812 955.662 480.546 954.215 478.014C952.567 480.506 950.678 481.752 948.548 481.752H948.186C946.216 481.752 944.81 481.229 943.966 480.184C943.121 479.139 942.679 478.034 942.639 476.868C942.639 475.582 943.021 474.537 943.785 473.733C944.548 472.929 945.453 472.527 946.498 472.527C948.226 472.527 949.09 473.371 949.09 475.059C949.09 475.863 948.849 476.567 948.367 477.17C947.884 477.773 947.422 478.174 946.98 478.375C946.538 478.576 946.277 478.677 946.196 478.677L946.015 478.737C946.015 478.777 946.136 478.858 946.377 478.978C946.618 479.099 946.94 479.24 947.342 479.4C947.744 479.561 948.125 479.621 948.487 479.581C949.934 479.581 951.18 478.677 952.225 476.868C952.587 476.225 953.049 474.859 953.612 472.768C954.175 470.678 954.737 468.508 955.3 466.257C955.863 464.006 956.184 462.68 956.265 462.278C956.466 461.193 956.566 460.409 956.566 459.927C956.566 458.801 956.265 457.998 955.662 457.515C955.059 457.033 954.375 456.792 953.612 456.792C952.004 456.792 950.497 457.435 949.09 458.721C947.683 460.007 946.699 461.655 946.136 463.665C946.056 464.027 945.955 464.227 945.834 464.268C945.714 464.308 945.392 464.348 944.87 464.388H944.026C943.785 464.147 943.664 463.926 943.664 463.725Z" fill="black"/>
<path d="M0 465.318C0 465.318 0 465.037 0 464.474C0 463.911 0.30318 463.478 0.90954 463.174H38.6554C39.3051 463.521 39.6299 463.954 39.6299 464.474C39.6299 464.993 39.3051 465.427 38.6554 465.773H0.90954C0.30318 465.47 0 465.037 0 464.474V465.318Z" fill="black"/>
<path d="M48.4654 461.94C48.7686 460.121 49.938 458.02 51.9736 455.638C54.0093 453.256 56.5213 452.043 59.5098 452C61.0257 452 62.4117 452.39 63.6677 453.169C64.9237 453.949 65.8549 454.924 66.4613 456.093C68.2804 453.364 70.4676 452 73.023 452C74.6255 452 76.0115 452.477 77.1809 453.429C78.3503 454.382 78.9566 455.66 78.9999 457.262C78.9999 458.518 78.6968 459.536 78.0904 460.316C77.484 461.095 76.8993 461.572 76.3363 461.745C75.7732 461.918 75.2752 462.005 74.842 462.005C74.0191 462.005 73.3478 461.767 72.8281 461.29C72.3083 460.814 72.0485 460.186 72.0485 459.406C72.0485 457.414 73.1312 456.05 75.2968 455.313C74.8204 454.75 73.9542 454.469 72.6981 454.469C72.1351 454.469 71.7236 454.512 71.4638 454.599C69.8179 455.292 68.6052 456.721 67.8256 458.887C65.2269 468.458 63.9276 474.046 63.9276 475.648C63.9276 476.861 64.2741 477.727 64.967 478.247C65.66 478.767 66.418 479.026 67.2409 479.026C68.8434 479.026 70.4243 478.312 71.9835 476.882C73.5427 475.453 74.6038 473.699 75.1669 471.62C75.2968 471.187 75.4267 470.949 75.5567 470.906C75.6866 470.862 76.0331 470.819 76.5962 470.776H76.856C77.5057 470.776 77.8305 470.949 77.8305 471.295C77.8305 471.339 77.7872 471.577 77.7006 472.01C77.0076 474.479 75.665 476.666 73.6726 478.572C71.6803 480.477 69.3632 481.43 66.7212 481.43C63.6894 481.43 61.3939 480.066 59.8346 477.337C58.0589 480.023 56.0232 481.365 53.7277 481.365H53.3379C51.2157 481.365 49.6998 480.802 48.7902 479.676C47.8807 478.55 47.4043 477.359 47.361 476.103C47.361 474.717 47.7724 473.591 48.5953 472.725C49.4183 471.858 50.3928 471.425 51.5189 471.425C53.3812 471.425 54.3124 472.335 54.3124 474.154C54.3124 475.02 54.0526 475.778 53.5328 476.428C53.0131 477.077 52.515 477.51 52.0386 477.727C51.5622 477.944 51.2806 478.052 51.194 478.052L50.9991 478.117C50.9991 478.16 51.1291 478.247 51.3889 478.377C51.6488 478.507 51.9953 478.658 52.4284 478.831C52.8615 479.005 53.273 479.07 53.6628 479.026C55.222 479.026 56.5646 478.052 57.6907 476.103C58.0805 475.41 58.5786 473.937 59.185 471.685C59.7913 469.433 60.3977 467.094 61.0041 464.669C61.6104 462.243 61.9569 460.814 62.0435 460.381C62.2601 459.211 62.3684 458.367 62.3684 457.847C62.3684 456.634 62.0435 455.768 61.3939 455.248C60.7442 454.729 60.0079 454.469 59.185 454.469C57.4525 454.469 55.8283 455.162 54.3124 456.548C52.7965 457.934 51.7354 459.71 51.1291 461.875C51.0424 462.265 50.9342 462.481 50.8042 462.525C50.6743 462.568 50.3278 462.611 49.7647 462.655H48.8552C48.5953 462.395 48.4654 462.157 48.4654 461.94Z" fill="black"/>
<path d="M485.938 867.061C486.524 867.646 487.474 867.646 488.059 867.061L497.605 857.515C498.191 856.929 498.191 855.979 497.605 855.393C497.02 854.808 496.07 854.808 495.484 855.393L486.999 863.879L478.513 855.393C477.928 854.808 476.978 854.808 476.392 855.393C475.806 855.979 475.806 856.929 476.392 857.515L485.938 867.061ZM488.059 64.9393C487.474 64.3536 486.524 64.3536 485.938 64.9393L476.392 74.4853C475.806 75.0711 475.806 76.0208 476.392 76.6066C476.978 77.1924 477.928 77.1924 478.513 76.6066L486.999 68.1213L495.484 76.6066C496.07 77.1924 497.02 77.1924 497.605 76.6066C498.191 76.0208 498.191 75.0711 497.605 74.4853L488.059 64.9393ZM488.499 866L488.499 66H485.499L485.499 866H488.499Z" fill="black"/>
<path d="M425 21.869C425 21.869 425 21.5951 425 21.0474C425 20.4996 425.295 20.0782 425.885 19.7832H444.783V10.3024L444.847 0.821626C445.268 0.273845 445.668 -4.48152e-05 446.047 -4.48152e-05C446.595 -4.48152e-05 447.017 0.315982 447.312 0.948036V19.7832H466.147C466.779 20.1203 467.095 20.5417 467.095 21.0474C467.095 21.553 466.779 21.9744 466.147 22.3115H447.312V41.1467C446.974 41.7366 446.595 42.0316 446.174 42.0316H446.047H445.921C445.415 42.0316 445.036 41.7366 444.783 41.1467V22.3115H425.885C425.295 22.0165 425 21.5951 425 21.0474V21.869Z" fill="black"/>
<path d="M471.962 18.7088C471.962 18.1189 472.278 17.1076 472.91 15.6749C473.542 14.2423 474.553 12.7464 475.944 11.1873C477.334 9.62827 478.893 8.8698 480.621 8.91194C482.348 8.91194 483.739 9.39651 484.792 10.3657C485.846 11.3348 486.394 12.6832 486.436 14.4108C486.351 15.2114 486.288 15.6539 486.246 15.7381C486.246 15.8645 485.909 16.8337 485.235 18.6456C484.561 20.4575 483.865 22.5011 483.149 24.7765C482.433 27.0519 482.096 28.8638 482.138 30.2122C482.138 32.0241 482.433 33.2882 483.023 34.0045C483.613 34.7208 484.497 35.1001 485.677 35.1422C486.646 35.1422 487.552 34.9104 488.395 34.4469C489.238 33.9834 489.891 33.4988 490.354 32.9932C490.818 32.4876 491.387 31.7923 492.061 30.9074C492.061 30.8653 492.166 30.4439 492.377 29.6433C492.588 28.8427 492.883 27.5997 493.262 25.9142C493.641 24.2287 494.041 22.6697 494.463 21.237C496.064 14.9165 496.949 11.6087 497.117 11.3137C497.665 10.176 498.571 9.6072 499.835 9.6072C500.383 9.6072 500.825 9.75468 501.163 10.0496C501.5 10.3446 501.731 10.5974 501.858 10.8081C501.984 11.0188 502.026 11.2084 501.984 11.377C501.984 11.9247 500.952 16.3491 498.887 24.6501C496.822 32.9511 495.643 37.5019 495.348 38.3025C494.168 41.7998 492.124 44.5809 489.217 46.6456C486.309 48.7103 483.402 49.7637 480.494 49.8058C478.598 49.8058 476.934 49.3423 475.501 48.4153C474.069 47.4883 473.352 46.0978 473.352 44.2438C473.352 43.3168 473.5 42.5372 473.795 41.9052C474.09 41.2731 474.49 40.8096 474.996 40.5147C475.501 40.2197 475.923 40.009 476.26 39.8826C476.597 39.7562 476.955 39.693 477.334 39.693C479.188 39.693 480.115 40.5779 480.115 42.3476C480.115 43.1903 479.862 43.9277 479.357 44.5598C478.851 45.1919 478.366 45.6132 477.903 45.8239C477.439 46.0346 477.166 46.1399 477.081 46.1399L476.892 46.2031C476.976 46.4138 477.376 46.6666 478.093 46.9616C478.809 47.2566 479.525 47.404 480.242 47.404H480.747C481.464 47.404 482.011 47.3619 482.391 47.2776C483.781 46.8984 485.066 46.0978 486.246 44.8758C487.426 43.6539 488.332 42.3476 488.964 40.9571C489.596 39.5666 490.081 38.3867 490.418 37.4176C490.755 36.4484 490.923 35.8164 490.923 35.5214L490.544 35.7742C490.291 35.9428 489.891 36.1745 489.343 36.4695C488.795 36.7645 488.248 37.0173 487.7 37.228C486.857 37.4387 486.035 37.544 485.235 37.544C483.297 37.544 481.59 37.0805 480.115 36.1535C478.64 35.2265 477.671 33.7306 477.208 31.6659C477.166 31.3709 477.145 30.7178 477.145 29.7065C477.145 27.3047 477.882 24.1655 479.357 20.2889C480.831 16.4123 481.569 13.9473 481.569 12.8939C481.569 12.8517 481.569 12.8096 481.569 12.7675C481.569 12.3882 481.569 12.1354 481.569 12.009C481.569 11.8826 481.485 11.7351 481.316 11.5666C481.148 11.398 480.916 11.3137 480.621 11.3137H480.368C479.399 11.3137 478.514 11.714 477.713 12.5146C476.913 13.3153 476.281 14.1791 475.817 15.1061C475.354 16.0331 474.996 16.918 474.743 17.7607C474.49 18.6034 474.321 19.0669 474.237 19.1512C474.153 19.2355 473.816 19.2776 473.226 19.2776H472.341C472.088 19.0248 471.962 18.8352 471.962 18.7088Z" fill="black"/>
<path d="M423 895.78C423 895.78 423 895.489 423 894.907C423 894.324 423.314 893.876 423.941 893.562H462.992C463.664 893.921 464 894.369 464 894.907C464 895.444 463.664 895.892 462.992 896.251H423.941C423.314 895.937 423 895.489 423 894.907V895.78Z" fill="black"/>
<path d="M471.057 892.42C471.057 891.792 471.393 890.717 472.065 889.194C472.737 887.67 473.813 886.079 475.292 884.421C476.77 882.763 478.428 881.957 480.265 882.002C482.102 882.002 483.581 882.517 484.701 883.548C485.822 884.578 486.404 886.012 486.449 887.849C486.359 888.701 486.292 889.171 486.247 889.261C486.247 889.395 485.889 890.426 485.172 892.353C484.455 894.279 483.716 896.452 482.954 898.872C482.192 901.292 481.834 903.219 481.878 904.652C481.878 906.579 482.192 907.923 482.819 908.685C483.447 909.447 484.388 909.85 485.642 909.895C486.673 909.895 487.636 909.649 488.532 909.156C489.429 908.663 490.123 908.148 490.616 907.61C491.109 907.072 491.714 906.333 492.431 905.392C492.431 905.347 492.543 904.899 492.767 904.048C492.991 903.196 493.305 901.874 493.708 900.082C494.111 898.29 494.537 896.632 494.985 895.108C496.688 888.387 497.629 884.869 497.808 884.556C498.39 883.346 499.354 882.741 500.698 882.741C501.28 882.741 501.751 882.898 502.109 883.212C502.468 883.525 502.714 883.794 502.849 884.018C502.983 884.242 503.028 884.444 502.983 884.623C502.983 885.206 501.885 889.91 499.69 898.738C497.494 907.565 496.24 912.404 495.926 913.256C494.671 916.975 492.498 919.932 489.406 922.128C486.314 924.323 483.223 925.444 480.131 925.488C478.114 925.488 476.345 924.996 474.821 924.01C473.298 923.024 472.536 921.545 472.536 919.574C472.536 918.588 472.693 917.759 473.006 917.087C473.32 916.415 473.746 915.922 474.283 915.608C474.821 915.294 475.269 915.07 475.628 914.936C475.986 914.802 476.367 914.734 476.77 914.734C478.742 914.734 479.728 915.675 479.728 917.557C479.728 918.453 479.459 919.238 478.921 919.91C478.383 920.582 477.868 921.03 477.375 921.254C476.882 921.478 476.591 921.59 476.501 921.59L476.3 921.657C476.389 921.881 476.815 922.15 477.577 922.464C478.339 922.777 479.1 922.934 479.862 922.934H480.4C481.161 922.934 481.744 922.89 482.147 922.8C483.626 922.397 484.993 921.545 486.247 920.246C487.502 918.946 488.465 917.557 489.137 916.079C489.809 914.6 490.325 913.345 490.683 912.315C491.042 911.284 491.221 910.612 491.221 910.298L490.818 910.567C490.549 910.746 490.123 910.993 489.541 911.307C488.958 911.62 488.376 911.889 487.793 912.113C486.897 912.337 486.023 912.449 485.172 912.449C483.111 912.449 481.296 911.956 479.728 910.97C478.159 909.985 477.129 908.394 476.636 906.198C476.591 905.885 476.569 905.19 476.569 904.115C476.569 901.561 477.353 898.222 478.921 894.1C480.489 889.978 481.273 887.356 481.273 886.236C481.273 886.191 481.273 886.147 481.273 886.102C481.273 885.698 481.273 885.43 481.273 885.295C481.273 885.161 481.184 885.004 481.005 884.825C480.825 884.645 480.579 884.556 480.265 884.556H479.996C478.966 884.556 478.025 884.982 477.173 885.833C476.322 886.684 475.65 887.603 475.157 888.589C474.664 889.574 474.283 890.515 474.014 891.412C473.746 892.308 473.566 892.801 473.477 892.89C473.387 892.98 473.029 893.025 472.401 893.025H471.46C471.192 892.756 471.057 892.554 471.057 892.42Z" fill="black"/>
<path d="M173 222L194.745 275.484L230.191 229.91L173 222ZM491.07 463.053L211.591 245.681L205.451 253.574L484.93 470.947L491.07 463.053Z" fill="#6C63FF"/>
<path d="M103.636 219.183C102.545 219.183 102 218.862 102 218.22C102 218.092 102.096 217.643 102.289 216.873C102.545 215.846 102.802 215.269 103.059 215.141C103.315 215.012 104.053 214.916 105.272 214.852C107.005 214.852 108.93 214.756 111.047 214.563C111.945 214.371 112.555 213.986 112.876 213.408C113.004 213.087 115.282 204.072 119.709 186.363C124.137 168.654 126.382 159.671 126.447 159.414C126.447 158.965 126.318 158.74 126.062 158.74C125.548 158.548 123.848 158.387 120.961 158.259H117.977C117.592 157.874 117.399 157.617 117.399 157.489C117.399 157.361 117.464 156.815 117.592 155.853C117.849 154.762 118.169 154.088 118.554 153.832H170.431C170.88 154.088 171.105 154.441 171.105 154.89C171.105 155.211 170.688 158.804 169.854 165.67C169.02 172.536 168.57 176.065 168.506 176.257C168.378 176.706 167.736 176.931 166.581 176.931H165.426C164.977 176.61 164.753 176.193 164.753 175.68C164.753 175.615 164.849 174.845 165.041 173.37C165.234 171.894 165.33 170.194 165.33 168.269C165.33 166.344 165.106 164.772 164.656 163.553C164.207 162.333 163.598 161.339 162.828 160.569C162.058 159.799 160.871 159.286 159.267 159.029C157.663 158.772 156.026 158.548 154.358 158.355C152.69 158.163 150.38 158.131 147.428 158.259H145.215C139.953 158.323 137.162 158.419 136.841 158.548C136.52 158.676 136.296 158.933 136.167 159.318C136.103 159.382 135.013 163.585 132.895 171.926L129.815 184.342H135.109C135.301 184.342 136.039 184.342 137.322 184.342C138.606 184.342 139.504 184.31 140.017 184.245C140.531 184.181 141.236 184.085 142.135 183.957C143.033 183.828 143.803 183.604 144.445 183.283C145.086 182.962 145.632 182.577 146.081 182.128C146.915 181.358 147.621 180.299 148.198 178.952C148.776 177.604 149.193 176.385 149.449 175.295C149.706 174.204 149.867 173.626 149.931 173.562C150.123 173.241 150.733 173.081 151.759 173.081H152.914C153.363 173.402 153.588 173.723 153.588 174.043C153.588 174.236 152.594 178.439 150.604 186.652C148.615 194.865 147.525 199.1 147.332 199.356C147.204 199.805 146.562 200.03 145.407 200.03H144.252C143.803 199.645 143.578 199.26 143.578 198.875C143.578 198.682 143.739 197.977 144.06 196.758C144.38 195.538 144.541 194.255 144.541 192.908C144.541 191.047 143.899 189.892 142.616 189.443C141.333 188.994 138.477 188.769 134.05 188.769H128.756L125.677 200.992C123.623 208.949 122.597 213.119 122.597 213.504C122.597 214.403 125.452 214.852 131.163 214.852H133.569C133.954 215.237 134.146 215.461 134.146 215.526C134.146 215.59 134.082 216.231 133.954 217.45C133.697 218.285 133.376 218.894 132.991 219.279H131.355C128.724 219.151 123.88 219.087 116.822 219.087C112.651 219.087 109.475 219.087 107.294 219.087C105.112 219.087 103.893 219.119 103.636 219.183Z" fill="#6C63FF"/>
<path d="M162.953 130.925C162.953 130.412 163.113 129.963 163.434 129.578C163.755 129.193 164.236 129 164.878 129C165.327 129 165.712 129.161 166.033 129.481C166.354 129.738 166.674 130.348 166.995 131.31C167.637 133.684 168.952 135.513 170.941 136.796C171.647 137.245 172 137.823 172 138.528C172 139.106 171.904 139.491 171.711 139.683C171.519 139.876 171.07 140.165 170.364 140.55C167.605 141.961 165.199 143.982 163.145 146.613C163.017 146.742 162.857 146.934 162.664 147.191C162.472 147.447 162.311 147.64 162.183 147.768C162.055 147.896 161.894 147.961 161.702 147.961C161.509 147.961 161.285 147.993 161.028 148.057C160.579 148.057 160.162 147.896 159.777 147.576C159.392 147.255 159.167 146.774 159.103 146.132C159.103 144.913 160.611 143.02 163.627 140.453H147.168L130.71 140.357C129.876 139.78 129.459 139.17 129.459 138.528C129.459 138.079 129.876 137.438 130.71 136.604H165.263C163.723 134.165 162.953 132.272 162.953 130.925Z" fill="#6C63FF"/>
<path d="M232 408.133C232 400.171 233.522 391.779 236.567 382.958C239.611 374.137 243.749 366.525 248.979 360.124C254.209 353.723 259.635 350.054 265.255 349.117C265.333 349.117 265.646 349.117 266.192 349.117C266.738 349.117 267.207 349.078 267.597 349C271.813 349.312 275.091 351.225 277.433 354.738C280.478 359.422 282 365.706 282 373.59C282 382.568 280.244 391.701 276.731 400.991C273.218 410.28 268.729 417.891 263.265 423.824C257.8 429.757 252.57 432.724 247.574 432.724H246.754C243.944 432.724 241.524 431.943 239.494 430.382C237.464 428.82 235.942 426.752 234.927 424.176C233.913 421.6 233.171 418.984 232.703 416.33C232.234 413.676 232 410.944 232 408.133ZM272.749 365.276C272.749 357.314 270.681 353.333 266.543 353.333C263.733 353.333 261.001 355.089 258.347 358.602C255.692 362.115 253.507 366.096 251.789 370.546C250.072 374.995 248.745 378.898 247.808 382.255C246.871 385.612 246.364 387.564 246.286 388.11C250.111 388.188 253.897 388.227 257.644 388.227L269.002 388.11C269.08 388.032 269.393 386.744 269.939 384.246C270.486 381.748 271.11 378.625 271.813 374.878C272.515 371.131 272.827 367.931 272.749 365.276ZM241.133 416.096C241.133 424.371 243.202 428.508 247.34 428.508C248.511 428.508 249.76 428.118 251.087 427.337C252.414 426.557 254.014 425.073 255.888 422.888C257.761 420.702 259.635 417.306 261.508 412.7C263.382 408.094 265.255 402.396 267.129 395.604L267.714 393.614H244.881C244.881 393.848 244.529 395.331 243.827 398.063C243.124 400.795 242.5 403.84 241.953 407.197C241.407 410.553 241.133 413.52 241.133 416.096Z" fill="#6C63FF"/>
<path d="M668 466L618 437.132V494.868L668 466ZM487 471H623V461H487V471Z" fill="#2CAC0B"/>
<path d="M487 814L515.868 764H458.132L487 814ZM482 466V769H492V466H482Z" fill="#D46FA0"/>
<path d="M341.629 778.795C340.543 778.795 340 778.476 340 777.837C340 777.709 340.096 777.262 340.287 776.495C340.543 775.473 340.799 774.898 341.054 774.77C341.31 774.642 342.044 774.547 343.258 774.483C344.983 774.483 346.9 774.387 349.008 774.195C349.903 774.004 350.51 773.62 350.829 773.045C350.957 772.726 353.225 763.749 357.633 746.116C362.042 728.483 364.278 719.539 364.341 719.283C364.341 718.836 364.214 718.612 363.958 718.612C363.447 718.421 361.754 718.261 358.879 718.133H355.908C355.525 717.75 355.333 717.494 355.333 717.366C355.333 717.239 355.397 716.696 355.525 715.737C355.78 714.651 356.1 713.98 356.483 713.725H408.137C408.584 713.98 408.808 714.332 408.808 714.779C408.808 715.098 408.393 718.676 407.562 725.512C406.731 732.348 406.284 735.862 406.22 736.054C406.093 736.501 405.454 736.725 404.304 736.725H403.154C402.706 736.405 402.483 735.99 402.483 735.479C402.483 735.415 402.579 734.648 402.77 733.179C402.962 731.709 403.058 730.016 403.058 728.1C403.058 726.183 402.834 724.618 402.387 723.404C401.94 722.19 401.333 721.2 400.566 720.433C399.8 719.666 398.618 719.155 397.02 718.9C395.423 718.644 393.794 718.421 392.133 718.229C390.472 718.037 388.172 718.005 385.233 718.133H383.029C377.79 718.197 375.011 718.293 374.691 718.421C374.372 718.548 374.148 718.804 374.021 719.187C373.957 719.251 372.871 723.436 370.762 731.741L367.696 744.104H372.966C373.158 744.104 373.893 744.104 375.171 744.104C376.448 744.104 377.343 744.072 377.854 744.008C378.365 743.944 379.068 743.848 379.962 743.72C380.857 743.593 381.623 743.369 382.262 743.05C382.901 742.73 383.444 742.347 383.891 741.9C384.722 741.133 385.425 740.079 386 738.737C386.575 737.395 386.99 736.182 387.245 735.095C387.501 734.009 387.661 733.434 387.725 733.37C387.916 733.051 388.523 732.891 389.545 732.891H390.695C391.143 733.211 391.366 733.53 391.366 733.85C391.366 734.041 390.376 738.226 388.395 746.404C386.415 754.581 385.329 758.798 385.137 759.054C385.009 759.501 384.371 759.724 383.221 759.724H382.071C381.623 759.341 381.4 758.958 381.4 758.574C381.4 758.383 381.559 757.68 381.879 756.466C382.198 755.252 382.358 753.975 382.358 752.633C382.358 750.78 381.719 749.63 380.441 749.183C379.164 748.736 376.321 748.512 371.912 748.512H366.641L363.575 760.683C361.53 768.605 360.508 772.758 360.508 773.141C360.508 774.035 363.351 774.483 369.037 774.483H371.433C371.816 774.866 372.008 775.09 372.008 775.154C372.008 775.217 371.944 775.856 371.816 777.07C371.561 777.901 371.241 778.508 370.858 778.891H369.229C366.61 778.763 361.786 778.699 354.758 778.699C350.605 778.699 347.443 778.699 345.271 778.699C343.099 778.699 341.885 778.731 341.629 778.795Z" fill="#D46FA0"/>
<path d="M400.691 690.917C400.691 690.406 400.851 689.958 401.17 689.575C401.489 689.192 401.969 689 402.607 689C403.055 689 403.438 689.16 403.757 689.479C404.077 689.735 404.396 690.342 404.716 691.3C405.355 693.664 406.664 695.485 408.645 696.762C409.348 697.21 409.699 697.785 409.699 698.487C409.699 699.062 409.603 699.446 409.412 699.637C409.22 699.829 408.773 700.117 408.07 700.5C405.323 701.905 402.927 703.918 400.882 706.537C400.755 706.665 400.595 706.857 400.403 707.112C400.212 707.368 400.052 707.56 399.924 707.687C399.796 707.815 399.637 707.879 399.445 707.879C399.253 707.879 399.03 707.911 398.774 707.975C398.327 707.975 397.912 707.815 397.528 707.496C397.145 707.176 396.921 706.697 396.858 706.058C396.858 704.844 398.359 702.96 401.362 700.404H384.974L368.587 700.308C367.756 699.733 367.341 699.126 367.341 698.487C367.341 698.04 367.756 697.401 368.587 696.571H402.991C401.457 694.143 400.691 692.258 400.691 690.917Z" fill="#D46FA0"/>
<path d="M433.55 790.352C432.872 790.94 431.878 791.572 430.568 792.25C429.259 792.927 427.881 793.266 426.435 793.266C423.59 793.266 421.309 792.25 419.592 790.217C417.876 788.184 416.995 785.587 416.95 782.425C416.95 777.683 418.689 773.324 422.167 769.349C425.645 765.374 429.507 763.364 433.753 763.319C435.876 763.319 437.841 764.403 439.647 766.571L439.851 766.3C439.941 766.164 440.054 766.029 440.189 765.893C440.325 765.758 440.528 765.577 440.799 765.351C441.07 765.126 441.364 764.967 441.68 764.877C441.996 764.787 442.358 764.719 442.764 764.674C443.396 764.674 443.916 764.877 444.322 765.284C444.729 765.69 444.955 766.119 445 766.571C445 767.248 443.713 772.714 441.138 782.967C438.563 793.221 437.208 798.46 437.073 798.686C436.26 801.125 434.521 803.135 431.856 804.716C429.191 806.297 426.142 807.11 422.709 807.155C416.34 807.155 413.156 805.62 413.156 802.548C413.156 801.374 413.562 800.335 414.375 799.431C415.188 798.528 416.227 798.076 417.492 798.076C418.17 798.076 418.802 798.28 419.389 798.686C419.976 799.093 420.292 799.793 420.338 800.787C420.338 801.238 420.292 801.667 420.202 802.074C420.112 802.48 419.954 802.797 419.728 803.022C419.502 803.248 419.321 803.474 419.186 803.7C419.05 803.926 418.892 804.106 418.712 804.242L418.576 804.377H418.644C419.096 804.513 420.451 804.581 422.709 804.581C424.425 804.581 425.781 804.31 426.774 803.768C427.813 803.271 428.784 802.526 429.688 801.532C430.591 800.538 431.223 799.477 431.585 798.347C431.856 797.489 432.217 796.089 432.669 794.147C433.256 791.979 433.55 790.714 433.55 790.352ZM438.496 771.043L438.225 770.297C438.089 769.801 437.976 769.462 437.886 769.281C437.796 769.1 437.66 768.784 437.479 768.333C437.299 767.881 437.073 767.565 436.802 767.384C436.531 767.203 436.237 766.955 435.921 766.639C435.605 766.323 435.198 766.119 434.701 766.029C434.205 765.939 433.708 765.871 433.211 765.826C431.223 765.826 429.304 767.023 427.452 769.417C426.097 771.178 424.967 773.866 424.064 777.479C423.161 781.093 422.709 783.713 422.709 785.339C422.709 788.907 424.109 790.691 426.91 790.691C429.439 790.691 431.924 789.11 434.363 785.948L434.905 785.271L438.496 771.043Z" fill="#D46FA0"/>
<path d="M487 344L458.133 394L515.868 394L487 344ZM492 466L492 389L482 389L482 466L492 466Z" fill="#EE224B"/>
<path d="M356.597 331.006C355.532 331.006 355 330.693 355 330.066C355 329.941 355.094 329.503 355.282 328.752C355.532 327.75 355.783 327.186 356.033 327.061C356.284 326.936 357.004 326.842 358.193 326.779C359.884 326.779 361.762 326.685 363.829 326.497C364.705 326.31 365.3 325.934 365.613 325.37C365.739 325.057 367.961 316.26 372.282 298.978C376.602 281.696 378.794 272.93 378.856 272.68C378.856 272.241 378.731 272.022 378.481 272.022C377.98 271.834 376.32 271.678 373.503 271.553H370.591C370.215 271.177 370.028 270.926 370.028 270.801C370.028 270.676 370.09 270.144 370.215 269.205C370.466 268.14 370.779 267.483 371.155 267.232H421.779C422.217 267.483 422.437 267.827 422.437 268.265C422.437 268.578 422.03 272.085 421.216 278.785C420.402 285.484 419.963 288.928 419.901 289.116C419.775 289.554 419.149 289.774 418.022 289.774H416.895C416.457 289.461 416.238 289.054 416.238 288.553C416.238 288.49 416.332 287.739 416.519 286.298C416.707 284.858 416.801 283.199 416.801 281.321C416.801 279.442 416.582 277.908 416.144 276.718C415.705 275.529 415.111 274.558 414.359 273.807C413.608 273.055 412.449 272.554 410.884 272.304C409.319 272.053 407.722 271.834 406.094 271.646C404.466 271.459 402.212 271.427 399.332 271.553H397.171C392.037 271.615 389.313 271.709 389 271.834C388.687 271.96 388.468 272.21 388.343 272.586C388.28 272.648 387.216 276.75 385.149 284.89L382.144 297.006H387.309C387.497 297.006 388.217 297.006 389.47 297.006C390.722 297.006 391.599 296.974 392.099 296.912C392.6 296.849 393.289 296.755 394.166 296.63C395.042 296.505 395.794 296.286 396.42 295.972C397.046 295.659 397.578 295.284 398.017 294.845C398.831 294.094 399.519 293.061 400.083 291.746C400.646 290.431 401.053 289.241 401.304 288.177C401.554 287.112 401.711 286.549 401.774 286.486C401.961 286.173 402.556 286.017 403.558 286.017H404.685C405.123 286.33 405.343 286.643 405.343 286.956C405.343 287.144 404.372 291.245 402.431 299.26C400.49 307.275 399.425 311.407 399.238 311.658C399.112 312.096 398.486 312.315 397.359 312.315H396.232C395.794 311.939 395.575 311.564 395.575 311.188C395.575 311 395.731 310.311 396.044 309.122C396.357 307.932 396.514 306.68 396.514 305.365C396.514 303.549 395.888 302.422 394.635 301.984C393.383 301.545 390.597 301.326 386.276 301.326H381.111L378.105 313.254C376.101 321.019 375.099 325.089 375.099 325.464C375.099 326.341 377.886 326.779 383.459 326.779H385.807C386.182 327.155 386.37 327.374 386.37 327.437C386.37 327.499 386.308 328.125 386.182 329.315C385.932 330.129 385.619 330.724 385.243 331.1H383.646C381.079 330.974 376.352 330.912 369.464 330.912C365.394 330.912 362.295 330.912 360.166 330.912C358.037 330.912 356.847 330.943 356.597 331.006Z" fill="#EE224B"/>
<path d="M414.481 244.879C414.481 244.378 414.638 243.939 414.951 243.564C415.264 243.188 415.734 243 416.36 243C416.798 243 417.174 243.157 417.487 243.47C417.8 243.72 418.113 244.315 418.426 245.254C419.052 247.571 420.336 249.356 422.277 250.608C422.966 251.046 423.31 251.61 423.31 252.298C423.31 252.862 423.216 253.238 423.028 253.426C422.841 253.613 422.402 253.895 421.713 254.271C419.021 255.648 416.673 257.621 414.669 260.188C414.544 260.313 414.387 260.501 414.2 260.751C414.012 261.002 413.855 261.19 413.73 261.315C413.605 261.44 413.448 261.503 413.26 261.503C413.073 261.503 412.853 261.534 412.603 261.597C412.165 261.597 411.758 261.44 411.382 261.127C411.006 260.814 410.787 260.344 410.724 259.718C410.724 258.529 412.196 256.682 415.139 254.177H399.078L383.017 254.083C382.203 253.519 381.796 252.925 381.796 252.298C381.796 251.86 382.203 251.234 383.017 250.42H416.736C415.233 248.041 414.481 246.193 414.481 244.879Z" fill="#EE224B"/>
<path d="M441.572 302.889C441.439 302.889 441.262 302.889 441.041 302.889C439.934 302.889 439.27 302.867 439.049 302.823C438.827 302.778 438.717 302.535 438.717 302.092C438.717 300.897 438.96 300.166 439.447 299.901C439.536 299.857 441.683 299.834 445.888 299.834C449.297 299.834 451.245 299.834 451.732 299.834C452.219 299.834 452.529 299.967 452.661 300.233C462.002 322.19 466.761 333.457 466.938 334.032L470.524 319.888C472.87 310.548 474.043 305.567 474.043 304.948C474.043 303.752 472.627 303.066 469.793 302.889C468.731 302.889 468.2 302.646 468.2 302.159C468.2 302.07 468.244 301.804 468.333 301.362C468.51 300.653 468.642 300.233 468.731 300.1C468.82 299.967 469.041 299.879 469.395 299.834C469.528 299.834 470.214 299.857 471.454 299.901C472.693 299.945 474.53 299.989 476.965 300.034C479.179 300.034 480.861 300.012 482.012 299.967C483.163 299.923 483.827 299.901 484.004 299.901C484.668 299.901 485 300.122 485 300.565C485 301.539 484.823 302.203 484.469 302.557C484.38 302.778 483.893 302.889 483.008 302.889C479.865 303.066 477.895 303.951 477.098 305.545L467.204 344.723C467.115 345.033 466.65 345.188 465.809 345.188C465.19 345.188 464.813 345.144 464.68 345.055C464.548 344.922 461.692 338.216 456.114 324.935L447.681 305.08L443.365 322.345C440.487 333.678 439.049 339.544 439.049 339.942C439.27 341.403 440.864 342.133 443.83 342.133H444.494C444.759 342.355 444.892 342.532 444.892 342.665C444.892 342.797 444.848 343.218 444.759 343.926C444.582 344.502 444.361 344.922 444.095 345.188H443.232C441.86 345.099 439.469 345.055 436.061 345.055C434.821 345.055 433.692 345.055 432.674 345.055C431.656 345.055 430.837 345.055 430.217 345.055C429.597 345.055 429.221 345.077 429.088 345.122C428.424 345.122 428.092 344.922 428.092 344.524C428.092 344.347 428.159 343.993 428.291 343.461C428.424 342.93 428.535 342.62 428.623 342.532C428.712 342.266 429.221 342.133 430.151 342.133C433.161 342.001 435.109 341.137 435.994 339.544C436.171 339.278 437.743 333.147 440.709 321.15L445.224 303.088C445.136 303.044 443.918 302.978 441.572 302.889Z" fill="#EE224B"/>
</svg>
