<svg width="2115" height="1424" viewBox="0 0 2115 1424" fill="none" xmlns="http://www.w3.org/2000/svg">
<path d="M1214.73 778.762C1213.56 778.762 1212.97 778.419 1212.97 777.732C1212.97 777.594 1213.08 777.114 1213.28 776.29C1213.56 775.191 1213.83 774.573 1214.11 774.435C1214.38 774.298 1215.17 774.195 1216.48 774.126C1218.33 774.126 1220.39 774.023 1222.66 773.817C1223.62 773.611 1224.27 773.199 1224.62 772.581C1224.75 772.237 1227.19 762.588 1231.93 743.633C1236.67 724.678 1239.07 715.062 1239.14 714.788C1239.14 714.307 1239 714.067 1238.73 714.067C1238.18 713.861 1236.36 713.689 1233.27 713.552H1230.08C1229.66 713.139 1229.46 712.865 1229.46 712.727C1229.46 712.59 1229.53 712.006 1229.66 710.976C1229.94 709.809 1230.28 709.087 1230.69 708.813H1286.22C1286.7 709.087 1286.94 709.465 1286.94 709.946C1286.94 710.289 1286.5 714.135 1285.6 721.484C1284.71 728.833 1284.23 732.61 1284.16 732.816C1284.02 733.297 1283.34 733.537 1282.1 733.537H1280.86C1280.38 733.194 1280.14 732.747 1280.14 732.198C1280.14 732.129 1280.25 731.305 1280.45 729.725C1280.66 728.146 1280.76 726.326 1280.76 724.265C1280.76 722.205 1280.52 720.522 1280.04 719.218C1279.56 717.913 1278.91 716.848 1278.08 716.024C1277.26 715.2 1275.99 714.65 1274.27 714.376C1272.55 714.101 1270.8 713.861 1269.02 713.655C1267.23 713.449 1264.76 713.414 1261.6 713.552H1259.23C1253.6 713.62 1250.61 713.723 1250.27 713.861C1249.92 713.998 1249.68 714.273 1249.55 714.685C1249.48 714.753 1248.31 719.252 1246.04 728.18L1242.75 741.469H1248.41C1248.62 741.469 1249.41 741.469 1250.78 741.469C1252.16 741.469 1253.12 741.435 1253.67 741.366C1254.22 741.298 1254.97 741.195 1255.93 741.057C1256.89 740.92 1257.72 740.68 1258.41 740.336C1259.09 739.993 1259.68 739.581 1260.16 739.1C1261.05 738.276 1261.81 737.143 1262.42 735.7C1263.04 734.258 1263.49 732.953 1263.76 731.786C1264.04 730.618 1264.21 730 1264.28 729.931C1264.48 729.588 1265.14 729.416 1266.24 729.416H1267.47C1267.95 729.76 1268.19 730.103 1268.19 730.447C1268.19 730.653 1267.13 735.151 1265 743.942C1262.87 752.733 1261.7 757.266 1261.5 757.54C1261.36 758.021 1260.67 758.261 1259.44 758.261H1258.2C1257.72 757.849 1257.48 757.437 1257.48 757.025C1257.48 756.819 1257.65 756.064 1257.99 754.759C1258.34 753.454 1258.51 752.08 1258.51 750.638C1258.51 748.646 1257.82 747.41 1256.45 746.929C1255.07 746.449 1252.02 746.208 1247.28 746.208H1241.61L1238.32 759.292C1236.12 767.808 1235.02 772.272 1235.02 772.684C1235.02 773.645 1238.08 774.126 1244.19 774.126H1246.76C1247.18 774.538 1247.38 774.779 1247.38 774.847C1247.38 774.916 1247.31 775.603 1247.18 776.908C1246.9 777.8 1246.56 778.453 1246.15 778.865H1244.4C1241.58 778.728 1236.39 778.659 1228.84 778.659C1224.38 778.659 1220.98 778.659 1218.64 778.659C1216.31 778.659 1215 778.693 1214.73 778.762Z" fill="#2CAC0B"/>
<path d="M1278.22 684.294C1278.22 683.745 1278.39 683.264 1278.73 682.852C1279.07 682.44 1279.59 682.234 1280.28 682.234C1280.76 682.234 1281.17 682.406 1281.51 682.749C1281.86 683.024 1282.2 683.676 1282.54 684.706C1283.23 687.248 1284.64 689.205 1286.77 690.578C1287.52 691.059 1287.9 691.677 1287.9 692.433C1287.9 693.051 1287.8 693.463 1287.59 693.669C1287.38 693.875 1286.9 694.184 1286.15 694.596C1283.2 696.107 1280.62 698.27 1278.42 701.086C1278.28 701.224 1278.11 701.43 1277.91 701.704C1277.7 701.979 1277.53 702.185 1277.39 702.323C1277.25 702.46 1277.08 702.529 1276.88 702.529C1276.67 702.529 1276.43 702.563 1276.16 702.632C1275.67 702.632 1275.23 702.46 1274.82 702.117C1274.4 701.773 1274.16 701.258 1274.1 700.571C1274.1 699.266 1275.71 697.24 1278.94 694.493H1261.32L1243.7 694.39C1242.81 693.772 1242.37 693.12 1242.37 692.433C1242.37 691.952 1242.81 691.265 1243.7 690.372H1280.69C1279.04 687.763 1278.22 685.737 1278.22 684.294Z" fill="#2CAC0B"/>
<path d="M1299.48 806.117C1299.58 806.117 1299.73 806.165 1299.92 806.262C1300.11 806.359 1300.38 806.432 1300.72 806.481C1301.06 806.529 1301.35 806.554 1301.59 806.554C1302.23 806.554 1302.81 806.238 1303.34 805.607C1303.88 804.976 1304.27 804.272 1304.51 803.495C1304.99 802.184 1305.82 798.469 1306.98 792.351C1308.15 786.233 1309.27 780.406 1310.33 774.871C1311.4 769.336 1311.94 766.544 1311.94 766.495V766.277H1308.51C1306.23 766.277 1305.02 766.228 1304.87 766.131C1304.68 765.985 1304.58 765.743 1304.58 765.403L1305.09 763.363C1305.19 763.121 1305.38 762.999 1305.67 762.999C1305.96 762.999 1307.11 762.975 1309.1 762.926C1311.43 762.926 1312.59 762.902 1312.59 762.853C1312.59 762.756 1312.81 761.542 1313.25 759.212C1313.68 756.881 1313.98 755.473 1314.12 754.987C1315.92 746.976 1319.46 742.97 1324.76 742.97C1326.55 743.067 1328.03 743.601 1329.2 744.572C1330.36 745.543 1330.95 746.83 1330.95 748.432C1330.95 750.18 1330.44 751.443 1329.42 752.22C1328.4 752.997 1327.38 753.409 1326.36 753.458C1324.22 753.458 1323.15 752.438 1323.15 750.399C1323.15 749.476 1323.42 748.675 1323.95 747.995C1324.49 747.316 1325.07 746.806 1325.7 746.466L1326.36 746.102C1325.58 745.81 1324.85 745.665 1324.17 745.665C1323.59 745.665 1323.03 745.907 1322.5 746.393C1321.96 746.879 1321.6 747.558 1321.41 748.432C1321.07 749.84 1320.68 751.734 1320.24 754.113C1319.8 756.493 1319.41 758.508 1319.07 760.159C1318.73 761.809 1318.56 762.683 1318.56 762.781C1318.56 762.878 1319.9 762.926 1322.57 762.926C1324.76 762.926 1326.02 762.951 1326.36 762.999C1326.7 763.048 1326.96 763.193 1327.16 763.436C1327.21 763.63 1327.16 764.043 1327.01 764.674C1326.87 765.306 1326.75 765.694 1326.65 765.84C1326.55 766.082 1326.33 766.204 1325.99 766.204C1325.65 766.204 1324.34 766.228 1322.06 766.277H1317.98L1316.31 775.162C1313.98 787.204 1312.35 794.73 1311.43 797.741C1310.12 801.868 1308.42 804.927 1306.33 806.918C1304.53 808.472 1302.76 809.249 1301.01 809.249C1299.46 809.249 1298.05 808.787 1296.79 807.865C1295.53 806.942 1294.89 805.631 1294.89 803.932C1294.89 802.135 1295.4 800.824 1296.42 799.999C1297.44 799.173 1298.46 798.76 1299.48 798.76C1301.62 798.76 1302.69 799.78 1302.69 801.819C1302.69 802.742 1302.42 803.543 1301.89 804.223C1301.35 804.903 1300.77 805.413 1300.14 805.753L1299.48 806.117Z" fill="#2CAC0B"/>
<path d="M1332.81 771.927C1332.81 771.583 1332.88 771.189 1333.01 770.742C1333.15 770.296 1333.36 770.073 1333.63 770.073C1333.67 770.073 1334.9 769.987 1337.34 769.815C1339.78 769.644 1341.03 769.541 1341.1 769.506C1341.51 769.506 1341.72 769.644 1341.72 769.918C1341.72 770.159 1340.86 773.746 1339.14 780.681C1337.42 787.478 1336.57 790.996 1336.57 791.237C1337.22 790.893 1337.72 790.567 1338.06 790.258C1338.88 789.64 1340.07 788.559 1341.61 787.014C1343.16 785.469 1344.36 784.422 1345.22 783.873C1346.59 782.946 1347.89 782.483 1349.13 782.483C1350.16 782.483 1350.97 782.809 1351.55 783.461C1352.13 784.113 1352.44 785.04 1352.48 786.242C1352.48 787.1 1352.36 787.821 1352.12 788.405C1351.88 788.988 1351.55 789.417 1351.14 789.692C1350.73 789.967 1350.37 790.155 1350.06 790.258C1349.75 790.361 1349.44 790.413 1349.13 790.413C1348.44 790.413 1347.89 790.224 1347.48 789.846C1347.07 789.469 1346.86 788.971 1346.86 788.353C1346.86 787.495 1347.14 786.791 1347.69 786.242C1348.24 785.693 1348.79 785.332 1349.34 785.16L1350.16 785.006C1349.75 784.594 1349.34 784.388 1348.92 784.388H1348.72C1347.62 784.491 1346.54 784.92 1345.47 785.675C1344.41 786.431 1343.16 787.529 1341.72 788.971C1340.27 790.413 1339.14 791.46 1338.32 792.112C1338.39 792.146 1338.64 792.198 1339.09 792.267C1339.54 792.335 1339.95 792.438 1340.33 792.576C1340.7 792.713 1341.15 792.85 1341.66 792.987C1342.18 793.125 1342.64 793.365 1343.05 793.708C1343.47 794.052 1343.84 794.361 1344.19 794.635C1344.53 794.91 1344.82 795.356 1345.06 795.974C1345.3 796.592 1345.41 797.158 1345.37 797.673C1345.37 798.257 1345.29 798.961 1345.11 799.785C1344.94 800.608 1344.84 801.295 1344.81 801.844C1344.81 803.217 1345.27 803.904 1346.2 803.904C1347.84 803.904 1349.18 801.861 1350.21 797.776C1350.28 797.502 1350.62 797.364 1351.24 797.364H1351.45C1352 797.364 1352.27 797.519 1352.27 797.828C1352.27 797.999 1352.22 798.24 1352.12 798.549C1350.71 803.389 1348.68 805.809 1346.04 805.809C1344.5 805.809 1343.24 805.363 1342.28 804.47C1341.32 803.578 1340.84 802.291 1340.84 800.608C1340.84 799.991 1340.89 799.458 1340.99 799.012C1341.1 798.566 1341.15 798.154 1341.15 797.776C1341.15 797.021 1340.91 796.369 1340.43 795.82C1339.95 795.27 1339.35 794.876 1338.63 794.635C1337.9 794.395 1337.32 794.206 1336.88 794.069C1336.43 793.932 1336.12 793.88 1335.95 793.914H1335.85C1335.43 795.356 1335.07 796.746 1334.76 798.085C1334.45 799.424 1334.21 800.42 1334.04 801.072C1333.87 801.724 1333.72 802.359 1333.58 802.977C1333.44 803.595 1333.32 804.007 1333.22 804.213C1333.12 804.419 1333 804.642 1332.86 804.882C1332.72 805.123 1332.53 805.277 1332.29 805.346C1331.85 805.655 1331.37 805.809 1330.85 805.809C1330.27 805.809 1329.82 805.638 1329.51 805.294C1329.2 804.951 1329.05 804.659 1329.05 804.419C1329.05 804.076 1329.68 801.329 1330.95 796.18C1332.22 791.031 1333.48 785.967 1334.71 780.989L1336.62 773.523C1336.65 773.077 1336.53 772.802 1336.26 772.699C1335.98 772.596 1335.31 772.51 1334.25 772.442H1333.99C1333.65 772.442 1333.43 772.442 1333.32 772.442C1333.22 772.442 1333.1 772.39 1332.96 772.287C1332.82 772.184 1332.77 772.064 1332.81 771.927Z" fill="#2CAC0B"/>
<path d="M577.345 855.248C576.759 855.834 576.759 856.784 577.345 857.369L586.891 866.915C587.477 867.501 588.427 867.501 589.012 866.915C589.598 866.33 589.598 865.38 589.012 864.794L580.527 856.309L589.012 847.824C589.598 847.238 589.598 846.288 589.012 845.702C588.427 845.116 587.477 845.116 586.891 845.702L577.345 855.248ZM1567.12 857.369C1567.71 856.784 1567.71 855.834 1567.12 855.248L1557.57 845.702C1556.99 845.116 1556.04 845.116 1555.45 845.702C1554.87 846.288 1554.87 847.238 1555.45 847.824L1563.94 856.309L1555.45 864.794C1554.87 865.38 1554.87 866.33 1555.45 866.915C1556.04 867.501 1556.99 867.501 1557.57 866.915L1567.12 857.369ZM578.406 857.809H1566.06V854.809H578.406V857.809Z" fill="black"/>
<path d="M1578.41 857.371C1578.41 857.371 1578.41 857.048 1578.41 856.403C1578.41 855.758 1578.75 855.262 1579.45 854.914H1601.7V843.75L1601.78 832.585C1602.27 831.94 1602.75 831.617 1603.19 831.617C1603.84 831.617 1604.33 831.99 1604.68 832.734V854.914H1626.86C1627.61 855.311 1627.98 855.808 1627.98 856.403C1627.98 856.998 1627.61 857.495 1626.86 857.892H1604.68V880.072C1604.28 880.767 1603.84 881.114 1603.34 881.114H1603.19H1603.04C1602.45 881.114 1602 880.767 1601.7 880.072V857.892H1579.45C1578.75 857.544 1578.41 857.048 1578.41 856.403V857.371Z" fill="black"/>
<path d="M1636.02 853.5C1636.36 851.416 1637.7 849.009 1640.04 846.28C1642.37 843.551 1645.25 842.162 1648.67 842.112C1650.41 842.112 1652 842.559 1653.43 843.452C1654.87 844.345 1655.94 845.462 1656.63 846.801C1658.72 843.675 1661.22 842.112 1664.15 842.112C1665.99 842.112 1667.58 842.658 1668.92 843.75C1670.26 844.841 1670.95 846.305 1671 848.141C1671 849.58 1670.65 850.746 1669.96 851.639C1669.26 852.533 1668.59 853.078 1667.95 853.277C1667.3 853.475 1666.73 853.575 1666.24 853.575C1665.29 853.575 1664.52 853.302 1663.93 852.756C1663.33 852.21 1663.04 851.491 1663.04 850.597C1663.04 848.315 1664.28 846.752 1666.76 845.908C1666.21 845.263 1665.22 844.941 1663.78 844.941C1663.14 844.941 1662.66 844.99 1662.37 845.089C1660.48 845.883 1659.09 847.521 1658.2 850.002C1655.22 860.968 1653.73 867.369 1653.73 869.205C1653.73 870.595 1654.13 871.587 1654.92 872.182C1655.72 872.778 1656.59 873.076 1657.53 873.076C1659.36 873.076 1661.18 872.257 1662.96 870.619C1664.75 868.982 1665.96 866.972 1666.61 864.59C1666.76 864.094 1666.91 863.821 1667.06 863.772C1667.2 863.722 1667.6 863.672 1668.25 863.623H1668.54C1669.29 863.623 1669.66 863.821 1669.66 864.218C1669.66 864.268 1669.61 864.541 1669.51 865.037C1668.72 867.865 1667.18 870.371 1664.9 872.555C1662.61 874.738 1659.96 875.83 1656.93 875.83C1653.46 875.83 1650.83 874.267 1649.04 871.14C1647.01 874.217 1644.68 875.755 1642.05 875.755H1641.6C1639.17 875.755 1637.43 875.11 1636.39 873.82C1635.35 872.53 1634.8 871.165 1634.75 869.726C1634.75 868.138 1635.22 866.848 1636.17 865.856C1637.11 864.863 1638.23 864.367 1639.52 864.367C1641.65 864.367 1642.72 865.409 1642.72 867.493C1642.72 868.486 1642.42 869.354 1641.82 870.098C1641.23 870.843 1640.66 871.339 1640.11 871.587C1639.57 871.835 1639.24 871.959 1639.14 871.959L1638.92 872.034C1638.92 872.083 1639.07 872.182 1639.37 872.331C1639.66 872.48 1640.06 872.654 1640.56 872.852C1641.05 873.051 1641.53 873.125 1641.97 873.076C1643.76 873.076 1645.3 871.959 1646.59 869.726C1647.03 868.932 1647.6 867.245 1648.3 864.665C1648.99 862.085 1649.69 859.405 1650.38 856.626C1651.08 853.848 1651.47 852.21 1651.57 851.714C1651.82 850.374 1651.95 849.406 1651.95 848.811C1651.95 847.422 1651.57 846.429 1650.83 845.834C1650.08 845.238 1649.24 844.941 1648.3 844.941C1646.31 844.941 1644.45 845.735 1642.72 847.322C1640.98 848.91 1639.76 850.945 1639.07 853.426C1638.97 853.872 1638.85 854.12 1638.7 854.17C1638.55 854.22 1638.15 854.269 1637.51 854.319H1636.46C1636.17 854.021 1636.02 853.748 1636.02 853.5Z" fill="black"/>
<path d="M471 855.467C471 855.467 471 855.12 471 854.424C471 853.729 471.374 853.195 472.123 852.82H518.723C519.525 853.248 519.926 853.783 519.926 854.424C519.926 855.066 519.525 855.601 518.723 856.029H472.123C471.374 855.654 471 855.12 471 854.424V855.467Z" fill="black"/>
<path d="M530.834 851.297C531.208 849.051 532.652 846.458 535.165 843.517C537.678 840.576 540.779 839.079 544.469 839.025C546.34 839.025 548.051 839.506 549.602 840.469C551.153 841.431 552.302 842.634 553.051 844.078C555.297 840.71 557.997 839.025 561.152 839.025C563.13 839.025 564.841 839.613 566.285 840.79C567.729 841.966 568.477 843.543 568.531 845.522C568.531 847.073 568.156 848.329 567.408 849.292C566.659 850.254 565.937 850.842 565.242 851.056C564.547 851.27 563.932 851.377 563.397 851.377C562.382 851.377 561.553 851.083 560.911 850.495C560.269 849.907 559.949 849.131 559.949 848.169C559.949 845.709 561.285 844.025 563.959 843.116C563.371 842.421 562.301 842.073 560.751 842.073C560.056 842.073 559.548 842.127 559.227 842.233C557.195 843.089 555.698 844.854 554.735 847.527C551.527 859.344 549.923 866.242 549.923 868.22C549.923 869.717 550.351 870.787 551.206 871.429C552.062 872.07 552.997 872.391 554.013 872.391C555.992 872.391 557.943 871.509 559.868 869.744C561.793 867.98 563.103 865.814 563.799 863.247C563.959 862.713 564.119 862.419 564.28 862.365C564.44 862.312 564.868 862.258 565.563 862.205H565.884C566.686 862.205 567.087 862.419 567.087 862.846C567.087 862.9 567.033 863.194 566.927 863.729C566.071 866.777 564.413 869.477 561.954 871.83C559.494 874.182 556.633 875.359 553.372 875.359C549.629 875.359 546.795 873.674 544.87 870.306C542.678 873.621 540.164 875.278 537.33 875.278H536.849C534.229 875.278 532.358 874.583 531.235 873.193C530.112 871.803 529.524 870.332 529.47 868.782C529.47 867.071 529.978 865.68 530.994 864.611C532.01 863.542 533.213 863.007 534.603 863.007C536.903 863.007 538.052 864.13 538.052 866.376C538.052 867.445 537.731 868.381 537.09 869.183C536.448 869.985 535.833 870.52 535.245 870.787C534.657 871.054 534.309 871.188 534.202 871.188L533.962 871.268C533.962 871.322 534.122 871.429 534.443 871.589C534.764 871.749 535.192 871.937 535.726 872.15C536.261 872.364 536.769 872.444 537.25 872.391C539.175 872.391 540.833 871.188 542.223 868.782C542.704 867.926 543.319 866.108 544.068 863.328C544.816 860.547 545.565 857.66 546.314 854.665C547.062 851.671 547.49 849.907 547.597 849.372C547.864 847.928 547.998 846.885 547.998 846.244C547.998 844.747 547.597 843.677 546.795 843.036C545.993 842.394 545.084 842.073 544.068 842.073C541.929 842.073 539.924 842.929 538.052 844.64C536.181 846.351 534.871 848.543 534.122 851.217C534.015 851.698 533.882 851.965 533.721 852.019C533.561 852.072 533.133 852.126 532.438 852.179H531.315C530.994 851.858 530.834 851.564 530.834 851.297Z" fill="black"/>
<path d="M1071.17 1351.2C1071.76 1351.78 1072.71 1351.78 1073.29 1351.2L1082.84 1341.65C1083.43 1341.06 1083.43 1340.12 1082.84 1339.53C1082.25 1338.94 1081.3 1338.94 1080.72 1339.53L1072.23 1348.01L1063.75 1339.53C1063.16 1338.94 1062.21 1338.94 1061.63 1339.53C1061.04 1340.12 1061.04 1341.06 1061.63 1341.65L1071.17 1351.2ZM1073.29 361.421C1072.71 360.835 1071.76 360.835 1071.17 361.421L1061.63 370.967C1061.04 371.553 1061.04 372.503 1061.63 373.088C1062.21 373.674 1063.16 373.674 1063.75 373.088L1072.23 364.603L1080.72 373.088C1081.3 373.674 1082.25 373.674 1082.84 373.088C1083.43 372.503 1083.43 371.553 1082.84 370.967L1073.29 361.421ZM1073.73 1350.14V362.482H1070.73V1350.14H1073.73Z" fill="black"/>
<path d="M995.691 307.999C995.691 307.999 995.691 307.661 995.691 306.984C995.691 306.308 996.056 305.788 996.784 305.424H1020.12V293.719L1020.19 282.014C1020.71 281.338 1021.21 281 1021.68 281C1022.35 281 1022.87 281.39 1023.24 282.17V305.424H1046.49C1047.27 305.84 1047.66 306.36 1047.66 306.984C1047.66 307.609 1047.27 308.129 1046.49 308.545H1023.24V331.798C1022.82 332.527 1022.35 332.891 1021.83 332.891H1021.68H1021.52C1020.9 332.891 1020.43 332.527 1020.12 331.798V308.545H996.784C996.056 308.181 995.691 307.661 995.691 306.984V307.999Z" fill="black"/>
<path d="M1053.67 304.097C1053.67 303.369 1054.06 302.121 1054.84 300.352C1055.62 298.583 1056.87 296.736 1058.58 294.812C1060.3 292.887 1062.23 291.95 1064.36 292.002C1066.49 292.002 1068.21 292.601 1069.51 293.797C1070.81 294.994 1071.49 296.658 1071.54 298.791C1071.43 299.78 1071.36 300.326 1071.3 300.43C1071.3 300.586 1070.89 301.782 1070.06 304.019C1069.22 306.256 1068.36 308.779 1067.48 311.588C1066.6 314.397 1066.18 316.634 1066.23 318.299C1066.23 320.536 1066.6 322.097 1067.32 322.981C1068.05 323.865 1069.14 324.333 1070.6 324.385C1071.8 324.385 1072.92 324.099 1073.96 323.527C1075 322.955 1075.8 322.357 1076.38 321.732C1076.95 321.108 1077.65 320.25 1078.48 319.157C1078.48 319.105 1078.61 318.585 1078.87 317.597C1079.13 316.608 1079.5 315.074 1079.97 312.993C1080.43 310.912 1080.93 308.987 1081.45 307.219C1083.42 299.415 1084.52 295.332 1084.73 294.968C1085.4 293.563 1086.52 292.861 1088.08 292.861C1088.76 292.861 1089.3 293.043 1089.72 293.407C1090.14 293.771 1090.42 294.083 1090.58 294.343C1090.73 294.604 1090.79 294.838 1090.73 295.046C1090.73 295.722 1089.46 301.184 1086.91 311.432C1084.36 321.68 1082.9 327.299 1082.54 328.287C1081.08 332.605 1078.56 336.038 1074.97 338.587C1071.38 341.136 1067.79 342.437 1064.2 342.489C1061.86 342.489 1059.81 341.917 1058.04 340.772C1056.27 339.628 1055.39 337.911 1055.39 335.622C1055.39 334.478 1055.57 333.515 1055.93 332.735C1056.3 331.955 1056.79 331.382 1057.41 331.018C1058.04 330.654 1058.56 330.394 1058.97 330.238C1059.39 330.082 1059.83 330.004 1060.3 330.004C1062.59 330.004 1063.73 331.096 1063.73 333.281C1063.73 334.321 1063.42 335.232 1062.8 336.012C1062.17 336.792 1061.58 337.313 1061 337.573C1060.43 337.833 1060.09 337.963 1059.99 337.963L1059.76 338.041C1059.86 338.301 1060.35 338.613 1061.24 338.977C1062.12 339.342 1063.01 339.524 1063.89 339.524H1064.52C1065.4 339.524 1066.08 339.472 1066.54 339.368C1068.26 338.899 1069.85 337.911 1071.3 336.402C1072.76 334.894 1073.88 333.281 1074.66 331.564C1075.44 329.848 1076.04 328.391 1076.45 327.195C1076.87 325.998 1077.08 325.218 1077.08 324.854L1076.61 325.166C1076.3 325.374 1075.8 325.66 1075.13 326.024C1074.45 326.388 1073.77 326.7 1073.1 326.961C1072.06 327.221 1071.04 327.351 1070.06 327.351C1067.66 327.351 1065.56 326.778 1063.73 325.634C1061.91 324.49 1060.72 322.643 1060.15 320.094C1060.09 319.73 1060.07 318.923 1060.07 317.675C1060.07 314.71 1060.98 310.834 1062.8 306.048C1064.62 301.262 1065.53 298.219 1065.53 296.918C1065.53 296.866 1065.53 296.814 1065.53 296.762C1065.53 296.294 1065.53 295.982 1065.53 295.826C1065.53 295.67 1065.43 295.488 1065.22 295.28C1065.01 295.072 1064.72 294.968 1064.36 294.968H1064.05C1062.85 294.968 1061.76 295.462 1060.77 296.45C1059.78 297.439 1059 298.505 1058.43 299.65C1057.86 300.794 1057.41 301.886 1057.1 302.927C1056.79 303.967 1056.58 304.54 1056.48 304.644C1056.37 304.748 1055.96 304.8 1055.23 304.8H1054.14C1053.82 304.487 1053.67 304.253 1053.67 304.097Z" fill="black"/>
<path d="M993.222 1386.9C993.222 1386.9 993.222 1386.54 993.222 1385.82C993.222 1385.1 993.609 1384.55 994.384 1384.16H1042.59C1043.42 1384.61 1043.84 1385.16 1043.84 1385.82C1043.84 1386.49 1043.42 1387.04 1042.59 1387.48H994.384C993.609 1387.1 993.222 1386.54 993.222 1385.82V1386.9Z" fill="black"/>
<path d="M1052.55 1382.75C1052.55 1381.98 1052.97 1380.65 1053.8 1378.77C1054.63 1376.89 1055.95 1374.93 1057.78 1372.88C1059.61 1370.83 1061.65 1369.84 1063.92 1369.89C1066.19 1369.89 1068.01 1370.53 1069.4 1371.8C1070.78 1373.07 1071.5 1374.84 1071.55 1377.11C1071.44 1378.16 1071.36 1378.74 1071.31 1378.85C1071.31 1379.02 1070.86 1380.29 1069.98 1382.67C1069.09 1385.05 1068.18 1387.73 1067.24 1390.72C1066.3 1393.71 1065.86 1396.08 1065.91 1397.85C1065.91 1400.23 1066.3 1401.89 1067.07 1402.83C1067.85 1403.77 1069.01 1404.27 1070.56 1404.33C1071.83 1404.33 1073.02 1404.02 1074.13 1403.41C1075.23 1402.81 1076.09 1402.17 1076.7 1401.51C1077.31 1400.84 1078.05 1399.93 1078.94 1398.77C1078.94 1398.71 1079.08 1398.16 1079.35 1397.11C1079.63 1396.06 1080.02 1394.43 1080.52 1392.21C1081.01 1390 1081.54 1387.95 1082.09 1386.07C1084.19 1377.77 1085.36 1373.43 1085.58 1373.04C1086.3 1371.55 1087.49 1370.8 1089.15 1370.8C1089.86 1370.8 1090.45 1371 1090.89 1371.38C1091.33 1371.77 1091.63 1372.1 1091.8 1372.38C1091.97 1372.66 1092.02 1372.91 1091.97 1373.13C1091.97 1373.85 1090.61 1379.65 1087.9 1390.55C1085.19 1401.45 1083.64 1407.43 1083.25 1408.48C1081.71 1413.07 1079.02 1416.72 1075.21 1419.43C1071.39 1422.14 1067.57 1423.52 1063.75 1423.58C1061.26 1423.58 1059.08 1422.97 1057.2 1421.75C1055.32 1420.54 1054.38 1418.71 1054.38 1416.28C1054.38 1415.06 1054.57 1414.04 1054.96 1413.21C1055.35 1412.38 1055.87 1411.77 1056.53 1411.38C1057.2 1410.99 1057.75 1410.72 1058.19 1410.55C1058.64 1410.38 1059.11 1410.3 1059.61 1410.3C1062.04 1410.3 1063.26 1411.46 1063.26 1413.79C1063.26 1414.89 1062.92 1415.86 1062.26 1416.69C1061.6 1417.52 1060.96 1418.07 1060.35 1418.35C1059.74 1418.63 1059.38 1418.77 1059.27 1418.77L1059.02 1418.85C1059.13 1419.13 1059.66 1419.46 1060.6 1419.84C1061.54 1420.23 1062.48 1420.43 1063.42 1420.43H1064.09C1065.03 1420.43 1065.75 1420.37 1066.24 1420.26C1068.07 1419.76 1069.76 1418.71 1071.31 1417.11C1072.85 1415.5 1074.04 1413.79 1074.87 1411.96C1075.7 1410.14 1076.34 1408.59 1076.78 1407.31C1077.22 1406.04 1077.45 1405.21 1077.45 1404.83L1076.95 1405.16C1076.62 1405.38 1076.09 1405.68 1075.37 1406.07C1074.65 1406.46 1073.93 1406.79 1073.21 1407.07C1072.11 1407.34 1071.03 1407.48 1069.98 1407.48C1067.43 1407.48 1065.19 1406.87 1063.26 1405.65C1061.32 1404.44 1060.05 1402.47 1059.44 1399.76C1059.38 1399.38 1059.36 1398.52 1059.36 1397.19C1059.36 1394.04 1060.32 1389.92 1062.26 1384.83C1064.2 1379.74 1065.16 1376.5 1065.16 1375.12C1065.16 1375.06 1065.16 1375.01 1065.16 1374.95C1065.16 1374.45 1065.16 1374.12 1065.16 1373.96C1065.16 1373.79 1065.05 1373.6 1064.83 1373.38C1064.61 1373.15 1064.31 1373.04 1063.92 1373.04H1063.59C1062.32 1373.04 1061.15 1373.57 1060.1 1374.62C1059.05 1375.67 1058.22 1376.81 1057.61 1378.02C1057.01 1379.24 1056.53 1380.4 1056.2 1381.51C1055.87 1382.61 1055.65 1383.22 1055.54 1383.33C1055.43 1383.44 1054.99 1383.5 1054.21 1383.5H1053.05C1052.72 1383.17 1052.55 1382.92 1052.55 1382.75Z" fill="black"/>
<path d="M684.58 555.074L706.325 608.558L741.771 562.984L684.58 555.074ZM1076.54 853.597L723.171 578.755L717.031 586.648L1070.4 861.49L1076.54 853.597Z" fill="#6C63FF"/>
<path d="M598.946 551.597C597.599 551.597 596.926 551.201 596.926 550.408C596.926 550.25 597.044 549.695 597.282 548.745C597.599 547.477 597.916 546.765 598.233 546.606C598.549 546.448 599.46 546.329 600.966 546.25C603.104 546.25 605.481 546.131 608.095 545.893C609.204 545.655 609.956 545.18 610.353 544.467C610.511 544.071 613.323 532.941 618.789 511.078C624.255 489.215 627.027 478.125 627.107 477.808C627.107 477.253 626.948 476.976 626.631 476.976C625.997 476.738 623.898 476.54 620.334 476.382H616.65C616.175 475.907 615.937 475.59 615.937 475.431C615.937 475.273 616.016 474.6 616.175 473.411C616.492 472.065 616.888 471.233 617.363 470.916H681.408C681.963 471.233 682.24 471.669 682.24 472.223C682.24 472.619 681.725 477.055 680.696 485.531C679.666 494.007 679.111 498.364 679.032 498.602C678.874 499.156 678.081 499.433 676.656 499.433H675.23C674.675 499.037 674.398 498.522 674.398 497.889C674.398 497.81 674.517 496.859 674.754 495.037C674.992 493.215 675.111 491.116 675.111 488.739C675.111 486.363 674.834 484.422 674.279 482.917C673.725 481.412 672.972 480.184 672.021 479.234C671.071 478.283 669.605 477.649 667.625 477.332C665.645 477.016 663.625 476.738 661.565 476.501C659.505 476.263 656.654 476.223 653.01 476.382H650.277C643.781 476.461 640.335 476.58 639.939 476.738C639.543 476.897 639.266 477.214 639.108 477.689C639.028 477.768 637.682 482.957 635.068 493.255L631.265 508.583H637.801C638.038 508.583 638.949 508.583 640.533 508.583C642.118 508.583 643.227 508.543 643.861 508.464C644.494 508.385 645.366 508.266 646.475 508.108C647.584 507.949 648.534 507.672 649.326 507.276C650.119 506.88 650.792 506.404 651.346 505.85C652.376 504.899 653.248 503.592 653.96 501.929C654.673 500.265 655.188 498.76 655.505 497.413C655.822 496.067 656.02 495.354 656.099 495.275C656.337 494.879 657.089 494.681 658.357 494.681H659.783C660.337 495.077 660.615 495.473 660.615 495.869C660.615 496.106 659.387 501.295 656.931 511.435C654.475 521.574 653.129 526.802 652.891 527.119C652.733 527.674 651.94 527.951 650.515 527.951H649.089C648.534 527.476 648.257 527 648.257 526.525C648.257 526.287 648.455 525.416 648.851 523.911C649.247 522.406 649.445 520.822 649.445 519.158C649.445 516.861 648.653 515.435 647.069 514.88C645.484 514.326 641.959 514.049 636.493 514.049H629.958L626.156 529.139C623.621 538.962 622.354 544.111 622.354 544.586C622.354 545.695 625.879 546.25 632.929 546.25H635.899C636.375 546.725 636.612 547.002 636.612 547.081C636.612 547.161 636.533 547.953 636.375 549.458C636.058 550.488 635.662 551.24 635.186 551.715H633.166C629.919 551.557 623.938 551.478 615.224 551.478C610.075 551.478 606.154 551.478 603.461 551.478C600.767 551.478 599.262 551.517 598.946 551.597Z" fill="#6C63FF"/>
<path d="M672.176 442.636C672.176 442.002 672.374 441.448 672.77 440.973C673.166 440.497 673.76 440.26 674.552 440.26C675.107 440.26 675.582 440.458 675.978 440.854C676.374 441.171 676.77 441.923 677.167 443.111C677.959 446.042 679.583 448.3 682.038 449.884C682.91 450.439 683.345 451.152 683.345 452.023C683.345 452.736 683.227 453.211 682.989 453.449C682.751 453.687 682.197 454.043 681.325 454.518C677.919 456.261 674.949 458.756 672.414 462.004C672.255 462.163 672.057 462.4 671.82 462.717C671.582 463.034 671.384 463.272 671.225 463.43C671.067 463.589 670.869 463.668 670.631 463.668C670.394 463.668 670.116 463.707 669.8 463.787C669.245 463.787 668.73 463.589 668.255 463.193C667.78 462.796 667.502 462.202 667.423 461.41C667.423 459.905 669.285 457.568 673.008 454.4H652.689L632.37 454.281C631.341 453.568 630.826 452.815 630.826 452.023C630.826 451.469 631.341 450.677 632.37 449.647H675.028C673.127 446.637 672.176 444.3 672.176 442.636Z" fill="#6C63FF"/>
<path d="M757.42 784.869C757.42 775.039 759.299 764.678 763.058 753.788C766.816 742.897 771.924 733.501 778.381 725.598C784.838 717.695 791.537 713.166 798.476 712.009C798.572 712.009 798.957 712.009 799.632 712.009C800.307 712.009 800.885 711.961 801.367 711.865C806.571 712.25 810.619 714.611 813.51 718.948C817.269 724.731 819.148 732.489 819.148 742.223C819.148 753.306 816.98 764.582 812.643 776.05C808.306 787.519 802.764 796.916 796.018 804.24C789.272 811.565 782.815 815.227 776.647 815.227H775.635C772.165 815.227 769.177 814.263 766.672 812.336C764.166 810.408 762.287 807.854 761.034 804.674C759.781 801.494 758.865 798.265 758.287 794.988C757.709 791.711 757.42 788.338 757.42 784.869ZM807.728 731.959C807.728 722.128 805.174 717.213 800.066 717.213C796.596 717.213 793.223 719.382 789.946 723.719C786.67 728.056 783.971 732.971 781.851 738.464C779.731 743.958 778.092 748.776 776.936 752.92C775.779 757.065 775.153 759.474 775.056 760.149C779.779 760.245 784.453 760.293 789.079 760.293L803.102 760.149C803.198 760.052 803.583 758.462 804.258 755.378C804.933 752.294 805.704 748.439 806.571 743.813C807.438 739.187 807.824 735.236 807.728 731.959ZM768.696 794.699C768.696 804.915 771.25 810.023 776.357 810.023C777.803 810.023 779.345 809.541 780.983 808.577C782.622 807.613 784.598 805.782 786.911 803.084C789.224 800.385 791.537 796.193 793.85 790.507C796.163 784.821 798.476 777.785 800.789 769.401L801.511 766.943H773.322C773.322 767.232 772.888 769.063 772.021 772.436C771.153 775.81 770.382 779.568 769.708 783.712C769.033 787.856 768.696 791.519 768.696 794.699Z" fill="#6C63FF"/>
<path d="M1295.69 856.309L1245.69 827.441V885.176L1295.69 856.309ZM1072.23 861.309H1250.69V851.309H1072.23V861.309Z" fill="#2CAC0B"/>
<path d="M1072.23 1285.94L1101.1 1235.94H1043.37L1072.23 1285.94ZM1067.23 856.309V1240.94H1077.23V856.309H1067.23Z" fill="#D46FA0"/>
<path d="M892.764 1242.48C891.424 1242.48 890.753 1242.08 890.753 1241.29C890.753 1241.13 890.871 1240.58 891.108 1239.64C891.424 1238.37 891.739 1237.66 892.055 1237.51C892.37 1237.35 893.277 1237.23 894.776 1237.15C896.905 1237.15 899.272 1237.03 901.874 1236.8C902.979 1236.56 903.728 1236.09 904.122 1235.38C904.28 1234.98 907.08 1223.9 912.523 1202.13C917.965 1180.36 920.726 1169.32 920.804 1169C920.804 1168.45 920.647 1168.18 920.331 1168.18C919.7 1167.94 917.61 1167.74 914.061 1167.58H910.393C909.92 1167.11 909.683 1166.8 909.683 1166.64C909.683 1166.48 909.762 1165.81 909.92 1164.63C910.235 1163.29 910.63 1162.46 911.103 1162.14H974.873C975.425 1162.46 975.701 1162.89 975.701 1163.44C975.701 1163.84 975.188 1168.25 974.163 1176.69C973.138 1185.13 972.586 1189.47 972.507 1189.71C972.349 1190.26 971.56 1190.54 970.14 1190.54H968.721C968.169 1190.14 967.893 1189.63 967.893 1189C967.893 1188.92 968.011 1187.97 968.247 1186.16C968.484 1184.35 968.602 1182.25 968.602 1179.89C968.602 1177.52 968.326 1175.59 967.774 1174.09C967.222 1172.59 966.473 1171.37 965.526 1170.42C964.58 1169.48 963.121 1168.85 961.149 1168.53C959.177 1168.22 957.166 1167.94 955.115 1167.7C953.064 1167.47 950.225 1167.43 946.596 1167.58H943.875C937.408 1167.66 933.976 1167.78 933.582 1167.94C933.188 1168.1 932.912 1168.41 932.754 1168.89C932.675 1168.96 931.334 1174.13 928.731 1184.38L924.945 1199.65H931.452C931.689 1199.65 932.596 1199.65 934.174 1199.65C935.751 1199.65 936.855 1199.61 937.486 1199.53C938.117 1199.45 938.985 1199.33 940.089 1199.17C941.193 1199.02 942.14 1198.74 942.929 1198.35C943.717 1197.95 944.388 1197.48 944.94 1196.93C945.965 1195.98 946.833 1194.68 947.543 1193.02C948.253 1191.36 948.765 1189.87 949.081 1188.53C949.396 1187.18 949.594 1186.47 949.673 1186.4C949.909 1186 950.658 1185.8 951.92 1185.8H953.34C953.892 1186.2 954.168 1186.59 954.168 1186.99C954.168 1187.22 952.946 1192.39 950.501 1202.49C948.056 1212.58 946.715 1217.79 946.478 1218.1C946.32 1218.66 945.532 1218.93 944.112 1218.93H942.692C942.14 1218.46 941.864 1217.99 941.864 1217.51C941.864 1217.28 942.061 1216.41 942.455 1214.91C942.85 1213.41 943.047 1211.83 943.047 1210.18C943.047 1207.89 942.258 1206.47 940.681 1205.92C939.103 1205.37 935.593 1205.09 930.151 1205.09H923.644L919.858 1220.11C917.334 1229.9 916.072 1235.02 916.072 1235.5C916.072 1236.6 919.582 1237.15 926.602 1237.15H929.559C930.033 1237.62 930.269 1237.9 930.269 1237.98C930.269 1238.06 930.19 1238.85 930.033 1240.35C929.717 1241.37 929.323 1242.12 928.85 1242.59H926.838C923.604 1242.44 917.649 1242.36 908.973 1242.36C903.846 1242.36 899.942 1242.36 897.26 1242.36C894.579 1242.36 893.08 1242.4 892.764 1242.48Z" fill="#D46FA0"/>
<path d="M965.68 1133.98C965.68 1133.35 965.877 1132.8 966.271 1132.33C966.666 1131.85 967.257 1131.62 968.046 1131.62C968.598 1131.62 969.071 1131.81 969.466 1132.21C969.86 1132.52 970.255 1133.27 970.649 1134.46C971.438 1137.38 973.055 1139.62 975.5 1141.2C976.367 1141.75 976.801 1142.46 976.801 1143.33C976.801 1144.04 976.683 1144.51 976.446 1144.75C976.21 1144.99 975.658 1145.34 974.79 1145.81C971.398 1147.55 968.44 1150.03 965.916 1153.27C965.759 1153.43 965.562 1153.66 965.325 1153.98C965.088 1154.29 964.891 1154.53 964.733 1154.69C964.576 1154.85 964.378 1154.92 964.142 1154.92C963.905 1154.92 963.629 1154.96 963.314 1155.04C962.762 1155.04 962.249 1154.85 961.776 1154.45C961.302 1154.06 961.026 1153.47 960.947 1152.68C960.947 1151.18 962.801 1148.85 966.508 1145.7H946.277L926.045 1145.58C925.02 1144.87 924.507 1144.12 924.507 1143.33C924.507 1142.78 925.02 1141.99 926.045 1140.96H968.519C966.626 1137.97 965.68 1135.64 965.68 1133.98Z" fill="#D46FA0"/>
<path d="M1006.25 1256.74C1005.41 1257.47 1004.18 1258.25 1002.57 1259.09C1000.95 1259.92 999.248 1260.34 997.464 1260.34C993.95 1260.34 991.134 1259.09 989.015 1256.58C986.896 1254.07 985.809 1250.86 985.753 1246.96C985.753 1241.1 987.9 1235.72 992.194 1230.81C996.488 1225.91 1001.26 1223.42 1006.5 1223.37C1009.12 1223.37 1011.54 1224.71 1013.77 1227.38L1014.03 1227.05C1014.14 1226.88 1014.28 1226.71 1014.44 1226.55C1014.61 1226.38 1014.86 1226.16 1015.2 1225.88C1015.53 1225.6 1015.89 1225.4 1016.28 1225.29C1016.67 1225.18 1017.12 1225.1 1017.62 1225.04C1018.4 1225.04 1019.04 1225.29 1019.55 1225.79C1020.05 1226.3 1020.33 1226.83 1020.38 1227.38C1020.38 1228.22 1018.79 1234.97 1015.61 1247.63C1012.44 1260.28 1010.76 1266.75 1010.6 1267.03C1009.59 1270.04 1007.45 1272.53 1004.16 1274.48C1000.87 1276.43 997.101 1277.43 992.863 1277.49C985 1277.49 981.069 1275.59 981.069 1271.8C981.069 1270.35 981.571 1269.07 982.574 1267.95C983.578 1266.84 984.861 1266.28 986.422 1266.28C987.259 1266.28 988.039 1266.53 988.764 1267.03C989.489 1267.53 989.88 1268.4 989.935 1269.63C989.935 1270.18 989.88 1270.71 989.768 1271.21C989.657 1271.72 989.461 1272.11 989.183 1272.39C988.904 1272.66 988.681 1272.94 988.513 1273.22C988.346 1273.5 988.151 1273.72 987.928 1273.89L987.761 1274.06H987.844C988.402 1274.23 990.075 1274.31 992.863 1274.31C994.982 1274.31 996.655 1273.98 997.882 1273.31C999.164 1272.69 1000.36 1271.77 1001.48 1270.55C1002.59 1269.32 1003.37 1268.01 1003.82 1266.61C1004.16 1265.55 1004.6 1263.83 1005.16 1261.43C1005.88 1258.75 1006.25 1257.19 1006.25 1256.74ZM1012.35 1232.9L1012.02 1231.98C1011.85 1231.37 1011.71 1230.95 1011.6 1230.73C1011.49 1230.51 1011.32 1230.12 1011.1 1229.56C1010.87 1229 1010.6 1228.61 1010.26 1228.39C1009.93 1228.16 1009.56 1227.86 1009.17 1227.47C1008.78 1227.08 1008.28 1226.83 1007.67 1226.71C1007.06 1226.6 1006.44 1226.52 1005.83 1226.46C1003.37 1226.46 1001 1227.94 998.718 1230.9C997.045 1233.07 995.651 1236.39 994.536 1240.85C993.421 1245.31 992.863 1248.55 992.863 1250.55C992.863 1254.96 994.592 1257.16 998.049 1257.16C1001.17 1257.16 1004.24 1255.21 1007.25 1251.31L1007.92 1250.47L1012.35 1232.9Z" fill="#D46FA0"/>
<path d="M1072.23 705.691L1043.37 755.691L1101.1 755.691L1072.23 705.691ZM1077.23 856.309L1077.23 750.691L1067.23 750.691L1067.23 856.309L1077.23 856.309Z" fill="#EE224B"/>
<path d="M911.243 689.649C909.929 689.649 909.271 689.263 909.271 688.49C909.271 688.335 909.387 687.794 909.619 686.866C909.929 685.629 910.238 684.934 910.547 684.779C910.856 684.625 911.745 684.509 913.214 684.431C915.301 684.431 917.62 684.315 920.171 684.083C921.253 683.851 921.988 683.388 922.374 682.692C922.529 682.305 925.273 671.444 930.607 650.109C935.941 628.773 938.647 617.951 938.724 617.642C938.724 617.101 938.569 616.83 938.26 616.83C937.642 616.598 935.593 616.405 932.114 616.25H928.52C928.056 615.786 927.824 615.477 927.824 615.323C927.824 615.168 927.901 614.511 928.056 613.351C928.365 612.037 928.752 611.226 929.216 610.916H991.715C992.256 611.226 992.526 611.651 992.526 612.192C992.526 612.578 992.024 616.907 991.019 625.179C990.014 633.45 989.473 637.702 989.396 637.934C989.241 638.475 988.468 638.745 987.077 638.745H985.685C985.144 638.359 984.874 637.856 984.874 637.238C984.874 637.161 984.989 636.233 985.221 634.455C985.453 632.677 985.569 630.629 985.569 628.31C985.569 625.99 985.299 624.097 984.758 622.628C984.216 621.159 983.482 619.961 982.554 619.033C981.627 618.106 980.197 617.487 978.264 617.178C976.332 616.869 974.36 616.598 972.35 616.366C970.341 616.134 967.558 616.096 964.002 616.25H961.335C954.996 616.328 951.633 616.444 951.247 616.598C950.86 616.753 950.59 617.062 950.435 617.526C950.358 617.603 949.044 622.666 946.493 632.716L942.782 647.674H949.16C949.392 647.674 950.281 647.674 951.827 647.674C953.373 647.674 954.455 647.635 955.073 647.558C955.692 647.481 956.542 647.365 957.624 647.21C958.707 647.055 959.634 646.785 960.407 646.398C961.18 646.012 961.837 645.548 962.378 645.007C963.383 644.079 964.234 642.804 964.929 641.18C965.625 639.557 966.128 638.088 966.437 636.774C966.746 635.46 966.939 634.764 967.017 634.687C967.248 634.3 967.983 634.107 969.22 634.107H970.611C971.152 634.494 971.423 634.88 971.423 635.267C971.423 635.499 970.225 640.562 967.828 650.457C965.432 660.351 964.118 665.453 963.886 665.763C963.731 666.304 962.958 666.574 961.567 666.574H960.175C959.634 666.111 959.364 665.647 959.364 665.183C959.364 664.951 959.557 664.101 959.943 662.632C960.33 661.163 960.523 659.617 960.523 657.994C960.523 655.752 959.75 654.361 958.204 653.819C956.658 653.278 953.218 653.008 947.884 653.008H941.507L937.796 667.734C935.322 677.319 934.086 682.344 934.086 682.808C934.086 683.89 937.526 684.431 944.406 684.431H947.304C947.768 684.895 948 685.166 948 685.243C948 685.32 947.923 686.093 947.768 687.562C947.459 688.567 947.072 689.301 946.609 689.765H944.637C941.468 689.611 935.632 689.533 927.128 689.533C922.104 689.533 918.277 689.533 915.649 689.533C913.021 689.533 911.552 689.572 911.243 689.649Z" fill="#EE224B"/>
<path d="M982.705 583.32C982.705 582.701 982.898 582.16 983.285 581.696C983.671 581.232 984.251 581 985.024 581C985.565 581 986.029 581.194 986.416 581.58C986.802 581.889 987.189 582.624 987.575 583.783C988.348 586.644 989.933 588.847 992.329 590.393C993.18 590.934 993.605 591.63 993.605 592.48C993.605 593.176 993.489 593.639 993.257 593.871C993.025 594.103 992.484 594.451 991.633 594.915C988.309 596.616 985.411 599.051 982.937 602.22C982.782 602.375 982.589 602.607 982.357 602.916C982.125 603.225 981.932 603.457 981.777 603.611C981.623 603.766 981.43 603.843 981.198 603.843C980.966 603.843 980.695 603.882 980.386 603.959C979.845 603.959 979.342 603.766 978.879 603.38C978.415 602.993 978.144 602.413 978.067 601.64C978.067 600.172 979.883 597.891 983.517 594.799H963.689L943.86 594.683C942.855 593.987 942.353 593.253 942.353 592.48C942.353 591.939 942.855 591.166 943.86 590.161H985.488C983.633 587.223 982.705 584.943 982.705 583.32Z" fill="#EE224B"/>
<path d="M1016.15 654.937C1015.99 654.937 1015.77 654.937 1015.49 654.937C1014.13 654.937 1013.31 654.91 1013.04 654.855C1012.76 654.801 1012.63 654.5 1012.63 653.954C1012.63 652.478 1012.93 651.576 1013.53 651.248C1013.64 651.194 1016.29 651.166 1021.48 651.166C1025.69 651.166 1028.09 651.166 1028.69 651.166C1029.29 651.166 1029.68 651.33 1029.84 651.658C1041.37 678.766 1047.25 692.675 1047.47 693.386L1051.89 675.924C1054.79 664.392 1056.24 658.244 1056.24 657.479C1056.24 656.003 1054.49 655.156 1050.99 654.937C1049.68 654.937 1049.02 654.637 1049.02 654.035C1049.02 653.926 1049.08 653.598 1049.19 653.052C1049.41 652.177 1049.57 651.658 1049.68 651.494C1049.79 651.33 1050.06 651.221 1050.5 651.166C1050.66 651.166 1051.51 651.194 1053.04 651.248C1054.57 651.303 1056.84 651.357 1059.85 651.412C1062.58 651.412 1064.66 651.385 1066.08 651.33C1067.5 651.276 1068.32 651.248 1068.54 651.248C1069.36 651.248 1069.77 651.521 1069.77 652.068C1069.77 653.27 1069.55 654.09 1069.11 654.527C1069 654.801 1068.4 654.937 1067.31 654.937C1063.43 655.156 1060.99 656.249 1060.01 658.216L1047.79 706.584C1047.69 706.967 1047.11 707.158 1046.07 707.158C1045.31 707.158 1044.84 707.104 1044.68 706.994C1044.52 706.83 1040.99 698.55 1034.1 682.154L1023.69 657.643L1018.36 678.957C1014.81 692.948 1013.04 700.19 1013.04 700.682C1013.31 702.485 1015.28 703.387 1018.94 703.387H1019.76C1020.09 703.66 1020.25 703.879 1020.25 704.043C1020.25 704.207 1020.19 704.726 1020.09 705.601C1019.87 706.311 1019.59 706.83 1019.27 707.158H1018.2C1016.51 707.049 1013.55 706.994 1009.35 706.994C1007.82 706.994 1006.42 706.994 1005.17 706.994C1003.91 706.994 1002.9 706.994 1002.13 706.994C1001.37 706.994 1000.9 707.022 1000.74 707.076C999.919 707.076 999.509 706.83 999.509 706.338C999.509 706.12 999.591 705.683 999.755 705.027C999.919 704.371 1000.06 703.988 1000.16 703.879C1000.27 703.551 1000.9 703.387 1002.05 703.387C1005.77 703.223 1008.17 702.157 1009.26 700.19C1009.48 699.862 1011.42 692.293 1015.08 677.482L1020.66 655.183C1020.55 655.129 1019.05 655.047 1016.15 654.937Z" fill="#EE224B"/>
<path d="M1.93124 106.446C0.643748 106.446 0 106.068 0 105.31C0 105.159 0.113603 104.629 0.340808 103.72C0.643748 102.508 0.946688 101.826 1.24963 101.675C1.55257 101.523 2.42352 101.41 3.86249 101.334C5.90733 101.334 8.17938 101.22 10.6786 100.993C11.7389 100.766 12.4584 100.312 12.8371 99.6301C12.9886 99.2514 15.6771 88.6106 20.9029 67.7077C26.1286 46.8049 28.7793 36.202 28.855 35.899C28.855 35.3689 28.7036 35.1038 28.4006 35.1038C27.7948 34.8766 25.7878 34.6873 22.3797 34.5358H18.858C18.4036 34.0814 18.1764 33.7785 18.1764 33.627C18.1764 33.4755 18.2521 32.8318 18.4036 31.6957C18.7065 30.4082 19.0852 29.613 19.5396 29.3101H80.7714C81.3015 29.613 81.5666 30.0296 81.5666 30.5597C81.5666 30.9384 81.0743 35.1796 80.0898 43.2832C79.1052 51.3869 78.5751 55.5523 78.4993 55.7795C78.3479 56.3096 77.5905 56.5747 76.2273 56.5747H74.8641C74.3339 56.196 74.0688 55.7037 74.0688 55.0979C74.0688 55.0221 74.1824 54.1133 74.4097 52.3714C74.6369 50.6295 74.7505 48.6225 74.7505 46.3505C74.7505 44.0784 74.4854 42.2229 73.9552 40.7839C73.4251 39.345 72.7056 38.1711 71.7968 37.2623C70.888 36.3534 69.4869 35.7476 67.5935 35.4446C65.7001 35.1417 63.7689 34.8766 61.7998 34.6494C59.8307 34.4222 57.1042 34.3843 53.6204 34.5358H51.0075C44.7973 34.6115 41.5028 34.7251 41.1241 34.8766C40.7454 35.0281 40.4804 35.331 40.3289 35.7854C40.2532 35.8612 38.9657 40.8218 36.4664 50.6674L32.8311 65.3221H39.0793C39.3065 65.3221 40.1774 65.3221 41.6921 65.3221C43.2068 65.3221 44.2671 65.2842 44.873 65.2085C45.4789 65.1328 46.312 65.0192 47.3723 64.8677C48.4325 64.7162 49.3414 64.4511 50.0987 64.0725C50.8561 63.6938 51.4998 63.2394 52.03 62.7092C53.0145 61.8004 53.8476 60.5508 54.5292 58.9604C55.2108 57.3699 55.7031 55.931 56.006 54.6435C56.309 53.356 56.4983 52.6743 56.5741 52.5986C56.8013 52.2199 57.5207 52.0306 58.7325 52.0306H60.0957C60.6259 52.4093 60.891 52.7879 60.891 53.1666C60.891 53.3938 59.7171 58.3545 57.3693 68.0486C55.0215 77.7426 53.734 82.7411 53.5068 83.0441C53.3553 83.5742 52.598 83.8393 51.2347 83.8393H49.8715C49.3414 83.3849 49.0763 82.9305 49.0763 82.4761C49.0763 82.2489 49.2656 81.4158 49.6443 79.9768C50.023 78.5379 50.2123 77.0232 50.2123 75.4327C50.2123 73.2364 49.455 71.8732 47.9403 71.343C46.4256 70.8129 43.0554 70.5478 37.8296 70.5478H31.5815L27.9462 84.9753C25.5227 94.3665 24.3109 99.2893 24.3109 99.7437C24.3109 100.804 27.6811 101.334 34.4216 101.334H37.2616C37.716 101.789 37.9432 102.054 37.9432 102.129C37.9432 102.205 37.8675 102.962 37.716 104.401C37.4131 105.386 37.0344 106.105 36.58 106.56H34.6488C31.5436 106.408 25.8256 106.333 17.4948 106.333C12.572 106.333 8.82313 106.333 6.24814 106.333C3.67315 106.333 2.23418 106.37 1.93124 106.446Z" fill="#6C63FF"/>
<path d="M73.7013 100.389C74.0761 98.1397 75.5218 95.5428 78.0384 92.5978C80.555 89.6528 83.6606 88.1536 87.3552 88.1C89.2293 88.1 90.9427 88.5819 92.4955 89.5458C94.0483 90.5096 95.1995 91.7143 95.9491 93.16C98.198 89.7867 100.902 88.1 104.061 88.1C106.042 88.1 107.756 88.689 109.201 89.867C110.647 91.045 111.397 92.6246 111.45 94.6057C111.45 96.1585 111.075 97.4168 110.326 98.3806C109.576 99.3444 108.853 99.9334 108.157 100.148C107.461 100.362 106.845 100.469 106.31 100.469C105.293 100.469 104.463 100.174 103.82 99.5854C103.178 98.9964 102.856 98.22 102.856 97.2562C102.856 94.7931 104.195 93.1065 106.872 92.1962C106.283 91.5001 105.212 91.1521 103.66 91.1521C102.963 91.1521 102.455 91.2056 102.134 91.3127C100.099 92.1694 98.5996 93.9364 97.6358 96.6136C94.4231 108.447 92.8168 115.354 92.8168 117.335C92.8168 118.835 93.2451 119.906 94.1018 120.548C94.9586 121.191 95.8956 121.512 96.9129 121.512C98.8941 121.512 100.848 120.628 102.776 118.861C104.704 117.094 106.016 114.926 106.712 112.356C106.872 111.82 107.033 111.526 107.194 111.472C107.354 111.419 107.782 111.365 108.479 111.312H108.8C109.603 111.312 110.005 111.526 110.005 111.954C110.005 112.008 109.951 112.302 109.844 112.838C108.987 115.89 107.327 118.594 104.864 120.95C102.401 123.306 99.5366 124.484 96.2704 124.484C92.5223 124.484 89.6844 122.797 87.7568 119.424C85.5615 122.743 83.0449 124.403 80.207 124.403H79.7251C77.1014 124.403 75.2273 123.707 74.1029 122.315C72.9785 120.923 72.3895 119.45 72.3359 117.898C72.3359 116.184 72.8446 114.792 73.862 113.721C74.8793 112.65 76.0841 112.115 77.4762 112.115C79.7786 112.115 80.9299 113.239 80.9299 115.488C80.9299 116.559 80.6086 117.496 79.9661 118.299C79.3235 119.102 78.7078 119.638 78.1188 119.906C77.5298 120.173 77.1817 120.307 77.0746 120.307L76.8337 120.387C76.8337 120.441 76.9943 120.548 77.3156 120.709C77.6369 120.869 78.0652 121.057 78.6007 121.271C79.1361 121.485 79.6448 121.565 80.1267 121.512C82.0543 121.512 83.7142 120.307 85.1063 117.898C85.5882 117.041 86.204 115.22 86.9536 112.436C87.7033 109.652 88.4529 106.76 89.2025 103.762C89.9521 100.763 90.3805 98.9964 90.4876 98.4609C90.7553 97.0152 90.8892 95.9711 90.8892 95.3286C90.8892 93.8293 90.4876 92.7584 89.6844 92.1159C88.8812 91.4734 87.971 91.1521 86.9536 91.1521C84.8118 91.1521 82.8039 92.0088 80.9299 93.7222C79.0558 95.4357 77.7439 97.631 76.9943 100.308C76.8872 100.79 76.7534 101.058 76.5927 101.111C76.4321 101.165 76.0037 101.218 75.3077 101.272H74.1832C73.862 100.951 73.7013 100.656 73.7013 100.389Z" fill="#6C63FF"/>
<path d="M155.942 79.6362C155.942 79.6362 155.942 79.1439 155.942 78.1593C155.942 77.1748 156.473 76.4174 157.533 75.8873H223.536C224.672 76.4932 225.24 77.2505 225.24 78.1593C225.24 79.0682 224.672 79.8255 223.536 80.4314H157.533C156.473 79.9013 155.942 79.1439 155.942 78.1593V79.6362Z" fill="black"/>
<path d="M275.815 134.847H275.588C274.679 134.847 273.998 134.317 273.543 133.256V78.0457L273.657 22.8348C274.414 21.8503 275.134 21.358 275.815 21.358C276.8 21.358 277.557 21.926 278.087 23.062V133.256C277.481 134.317 276.8 134.847 276.042 134.847H275.815Z" fill="#2CAC0B"/>
<path d="M297.059 106.446C295.772 106.446 295.128 106.068 295.128 105.31C295.128 105.159 295.242 104.629 295.469 103.72C295.772 102.508 296.075 101.826 296.378 101.675C296.681 101.523 297.552 101.41 298.991 101.334C301.036 101.334 303.308 101.22 305.807 100.993C306.867 100.766 307.587 100.312 307.965 99.6301C308.117 99.2514 310.805 88.6106 316.031 67.7077C321.257 46.8049 323.907 36.202 323.983 35.899C323.983 35.3689 323.832 35.1038 323.529 35.1038C322.923 34.8766 320.916 34.6873 317.508 34.5358H313.986C313.532 34.0814 313.305 33.7785 313.305 33.627C313.305 33.4755 313.38 32.8318 313.532 31.6957C313.835 30.4082 314.213 29.613 314.668 29.3101H375.9C376.43 29.613 376.695 30.0296 376.695 30.5597C376.695 30.9384 376.203 35.1796 375.218 43.2832C374.233 51.3869 373.703 55.5523 373.628 55.7795C373.476 56.3096 372.719 56.5747 371.355 56.5747H369.992C369.462 56.196 369.197 55.7037 369.197 55.0979C369.197 55.0221 369.311 54.1133 369.538 52.3714C369.765 50.6295 369.879 48.6225 369.879 46.3505C369.879 44.0784 369.614 42.2229 369.083 40.7839C368.553 39.345 367.834 38.1711 366.925 37.2623C366.016 36.3534 364.615 35.7476 362.722 35.4446C360.828 35.1417 358.897 34.8766 356.928 34.6494C354.959 34.4222 352.232 34.3843 348.749 34.5358H346.136C339.925 34.6115 336.631 34.7251 336.252 34.8766C335.874 35.0281 335.609 35.331 335.457 35.7854C335.381 35.8612 334.094 40.8218 331.595 50.6674L327.959 65.3221H334.207C334.435 65.3221 335.306 65.3221 336.82 65.3221C338.335 65.3221 339.395 65.2842 340.001 65.2085C340.607 65.1328 341.44 65.0192 342.5 64.8677C343.561 64.7162 344.47 64.4511 345.227 64.0725C345.984 63.6938 346.628 63.2394 347.158 62.7092C348.143 61.8004 348.976 60.5508 349.657 58.9604C350.339 57.3699 350.831 55.931 351.134 54.6435C351.437 53.356 351.626 52.6743 351.702 52.5986C351.929 52.2199 352.649 52.0306 353.861 52.0306H355.224C355.754 52.4093 356.019 52.7879 356.019 53.1666C356.019 53.3938 354.845 58.3545 352.497 68.0486C350.15 77.7426 348.862 82.7411 348.635 83.0441C348.483 83.5742 347.726 83.8393 346.363 83.8393H345C344.47 83.3849 344.204 82.9305 344.204 82.4761C344.204 82.2489 344.394 81.4158 344.772 79.9768C345.151 78.5379 345.34 77.0232 345.34 75.4327C345.34 73.2364 344.583 71.8732 343.068 71.343C341.554 70.8129 338.184 70.5478 332.958 70.5478H326.71L323.074 84.9753C320.651 94.3665 319.439 99.2893 319.439 99.7437C319.439 100.804 322.809 101.334 329.55 101.334H332.39C332.844 101.789 333.071 102.054 333.071 102.129C333.071 102.205 332.996 102.962 332.844 104.401C332.541 105.386 332.163 106.105 331.708 106.56H329.777C326.672 106.408 320.954 106.333 312.623 106.333C307.7 106.333 303.951 106.333 301.376 106.333C298.801 106.333 297.362 106.37 297.059 106.446Z" fill="#2CAC0B"/>
<path d="M367.073 2.27252C367.073 1.66664 367.262 1.1365 367.641 0.682086C368.02 0.227676 368.588 0.000471219 369.345 0.000471219C369.875 0.000471219 370.33 0.189809 370.708 0.568484C371.087 0.871424 371.466 1.59091 371.844 2.72693C372.602 5.52913 374.154 7.68758 376.502 9.20228C377.335 9.73242 377.752 10.414 377.752 11.2471C377.752 11.9287 377.638 12.3831 377.411 12.6104C377.184 12.8376 376.653 13.1784 375.82 13.6328C372.564 15.2989 369.724 17.6846 367.3 20.7897C367.149 20.9412 366.959 21.1684 366.732 21.4714C366.505 21.7743 366.316 22.0015 366.164 22.153C366.013 22.3044 365.823 22.3802 365.596 22.3802C365.369 22.3802 365.104 22.418 364.801 22.4938C364.271 22.4938 363.779 22.3044 363.324 21.9258C362.87 21.5471 362.605 20.9791 362.529 20.2217C362.529 18.7828 364.309 16.5486 367.868 13.5192H348.442L329.016 13.4056C328.032 12.724 327.539 12.0045 327.539 11.2471C327.539 10.717 328.032 9.95963 329.016 8.97507H369.799C367.982 6.09714 367.073 3.86296 367.073 2.27252Z" fill="#2CAC0B"/>
<path d="M390.523 136.612C390.63 136.612 390.791 136.665 391.005 136.772C391.219 136.879 391.514 136.96 391.888 137.013C392.263 137.067 392.585 137.093 392.852 137.093C393.548 137.093 394.191 136.745 394.78 136.049C395.369 135.353 395.797 134.577 396.065 133.72C396.6 132.274 397.511 128.178 398.796 121.432C400.081 114.685 401.312 108.26 402.49 102.156C403.668 96.0515 404.257 92.9727 404.257 92.9191V92.6782H400.482C397.966 92.6782 396.627 92.6246 396.467 92.5175C396.252 92.3569 396.145 92.0892 396.145 91.7144L396.708 89.4655C396.815 89.1978 397.029 89.0639 397.35 89.0639C397.671 89.0639 398.93 89.0371 401.125 88.9836C403.695 88.9836 404.98 88.9568 404.98 88.9033C404.98 88.7962 405.221 87.4576 405.703 84.8874C406.185 82.3173 406.506 80.7645 406.667 80.229C408.648 71.3942 412.557 66.9767 418.393 66.9767C420.374 67.0838 422.007 67.6728 423.292 68.7437C424.578 69.8146 425.22 71.2335 425.22 73.0005C425.22 74.9281 424.658 76.3203 423.533 77.177C422.409 78.0337 421.285 78.4888 420.16 78.5424C417.804 78.5424 416.626 77.4179 416.626 75.1691C416.626 74.1517 416.921 73.2682 417.51 72.5186C418.099 71.769 418.741 71.2068 419.437 70.8319L420.16 70.4304C419.303 70.1091 418.5 69.9485 417.751 69.9485C417.108 69.9485 416.492 70.2162 415.903 70.7516C415.314 71.2871 414.913 72.0367 414.699 73.0005C414.324 74.5533 413.895 76.6415 413.413 79.2652C412.932 81.8889 412.503 84.111 412.128 85.9315C411.754 87.7521 411.566 88.7159 411.566 88.8229C411.566 88.93 413.039 88.9836 415.984 88.9836C418.393 88.9836 419.785 89.0104 420.16 89.0639C420.535 89.1174 420.829 89.2781 421.044 89.5458C421.097 89.76 421.044 90.2151 420.883 90.9112C420.722 91.6073 420.588 92.0356 420.481 92.1963C420.374 92.464 420.133 92.5978 419.758 92.5978C419.384 92.5978 417.938 92.6246 415.421 92.6782H410.924L409.076 102.477C406.506 115.756 404.712 124.055 403.695 127.375C402.249 131.926 400.375 135.3 398.073 137.495C396.092 139.208 394.137 140.065 392.21 140.065C390.496 140.065 388.944 139.557 387.551 138.539C386.159 137.522 385.463 136.076 385.463 134.202C385.463 132.221 386.025 130.775 387.15 129.865C388.274 128.955 389.399 128.5 390.523 128.5C392.879 128.5 394.057 129.624 394.057 131.873C394.057 132.89 393.763 133.774 393.174 134.523C392.585 135.273 391.942 135.835 391.246 136.21L390.523 136.612Z" fill="#2CAC0B"/>
<path d="M427.271 98.9083C427.271 98.5297 427.347 98.0944 427.499 97.6022C427.65 97.1101 427.877 96.864 428.18 96.864C428.218 96.864 429.581 96.7694 432.268 96.5801C434.956 96.3908 436.338 96.2773 436.414 96.2394C436.868 96.2394 437.095 96.3908 437.095 96.6937C437.095 96.9587 436.149 100.915 434.256 108.562C432.363 116.057 431.417 119.937 431.417 120.202C432.136 119.824 432.685 119.464 433.063 119.123C433.972 118.442 435.278 117.25 436.982 115.546C438.685 113.842 440.01 112.688 440.956 112.082C442.471 111.06 443.909 110.549 445.272 110.549C446.408 110.549 447.297 110.909 447.941 111.628C448.584 112.347 448.925 113.369 448.963 114.694C448.963 115.641 448.83 116.436 448.566 117.079C448.301 117.723 447.941 118.196 447.487 118.499C447.032 118.802 446.635 119.01 446.294 119.123C445.953 119.237 445.613 119.294 445.272 119.294C444.515 119.294 443.909 119.086 443.455 118.669C443.001 118.253 442.774 117.704 442.774 117.022C442.774 116.076 443.076 115.3 443.682 114.694C444.288 114.089 444.893 113.691 445.499 113.502L446.408 113.331C445.953 112.877 445.499 112.65 445.045 112.65H444.818C443.606 112.764 442.414 113.237 441.24 114.07C440.067 114.902 438.685 116.114 437.095 117.704C435.505 119.294 434.256 120.448 433.347 121.168C433.423 121.205 433.707 121.262 434.199 121.338C434.691 121.414 435.146 121.527 435.562 121.679C435.978 121.83 436.47 121.982 437.038 122.133C437.606 122.284 438.117 122.549 438.571 122.928C439.026 123.307 439.442 123.647 439.821 123.95C440.199 124.253 440.521 124.745 440.786 125.426C441.051 126.108 441.165 126.732 441.127 127.3C441.127 127.944 441.032 128.72 440.843 129.628C440.654 130.537 440.54 131.294 440.502 131.9C440.502 133.414 441.013 134.171 442.035 134.171C443.852 134.171 445.329 131.919 446.464 127.414C446.54 127.111 446.919 126.96 447.6 126.96H447.827C448.433 126.96 448.736 127.13 448.736 127.471C448.736 127.66 448.679 127.925 448.566 128.266C447.013 133.603 444.78 136.272 441.865 136.272C440.161 136.272 438.78 135.78 437.72 134.796C436.66 133.812 436.13 132.392 436.13 130.537C436.13 129.856 436.187 129.269 436.3 128.777C436.414 128.285 436.47 127.83 436.47 127.414C436.47 126.581 436.205 125.862 435.676 125.256C435.146 124.65 434.483 124.215 433.688 123.95C432.893 123.685 432.25 123.477 431.757 123.325C431.265 123.174 430.925 123.117 430.735 123.155H430.622C430.167 124.745 429.77 126.278 429.429 127.755C429.089 129.231 428.824 130.329 428.634 131.048C428.445 131.767 428.275 132.468 428.123 133.149C427.972 133.83 427.839 134.285 427.726 134.512C427.612 134.739 427.48 134.985 427.328 135.25C427.177 135.515 426.969 135.685 426.704 135.761C426.211 136.102 425.682 136.272 425.114 136.272C424.47 136.272 423.978 136.083 423.637 135.704C423.297 135.326 423.126 135.004 423.126 134.739C423.126 134.36 423.827 131.332 425.227 125.654C426.628 119.975 428.01 114.391 429.372 108.902L431.473 100.669C431.511 100.176 431.379 99.8736 431.076 99.76C430.773 99.6465 430.035 99.5518 428.861 99.4761H428.577C428.199 99.4761 427.953 99.4761 427.839 99.4761C427.726 99.4761 427.593 99.4193 427.442 99.3058C427.29 99.1922 427.234 99.0597 427.271 98.9083Z" fill="#2CAC0B"/>
<path d="M475.483 134.847H475.256C474.347 134.847 473.666 134.317 473.211 133.256V78.0457L473.325 22.8348C474.082 21.8503 474.802 21.358 475.483 21.358C476.468 21.358 477.225 21.926 477.755 23.062V133.256C477.149 134.317 476.468 134.847 475.71 134.847H475.483Z" fill="#2CAC0B"/>
<path d="M529.195 67.14C529.195 66.1554 529.725 65.3981 530.785 64.8679H603.15C604.286 65.4738 604.854 66.2312 604.854 67.14C604.854 67.9731 604.324 68.6926 603.263 69.2984L567.138 69.412H531.012C529.8 69.0334 529.195 68.276 529.195 67.14ZM529.195 89.1789C529.195 88.0429 529.8 87.2855 531.012 86.9068H603.263C604.324 87.6642 604.854 88.4215 604.854 89.1789C604.854 90.1634 604.286 90.9208 603.15 91.4509H530.785C529.725 90.9208 529.195 90.1634 529.195 89.1789Z" fill="black"/>
<path d="M645.161 73.9558C645.236 73.5014 645.35 72.8955 645.501 72.1381C645.653 71.3808 646.107 69.9418 646.865 67.8212C647.622 65.7006 648.379 63.9209 649.137 62.4819C649.894 61.0429 651.106 59.6418 652.772 58.2786C654.438 56.9154 656.104 56.2716 657.771 56.3474C659.437 56.4231 661.065 56.6882 662.655 57.1426C664.246 57.597 665.382 58.2786 666.064 59.1874C666.745 60.0963 667.351 60.9293 667.881 61.6867C668.411 62.444 668.714 63.1635 668.79 63.8451L669.017 64.6404C669.017 64.7918 669.055 64.8676 669.131 64.8676L670.38 63.6179C674.925 58.7709 680.264 56.3474 686.398 56.3474C687.686 56.3474 688.86 56.4231 689.92 56.5746C690.98 56.726 691.965 56.9911 692.874 57.3698C693.783 57.7485 694.502 58.1271 695.032 58.5058C695.562 58.8845 696.13 59.3389 696.736 59.8691C697.342 60.3992 697.721 60.8915 697.872 61.3459C698.024 61.8003 698.327 62.2926 698.781 62.8227C699.235 63.3529 699.387 63.8073 699.235 64.1859C699.084 64.5646 699.198 64.9054 699.576 65.2084C699.955 65.5113 700.031 65.7764 699.803 66.0036L700.712 64.8676C705.484 59.1874 711.126 56.3474 717.639 56.3474C721.729 56.3474 725.023 57.3698 727.522 59.4146C730.022 61.4595 731.309 64.451 731.385 68.3892C731.385 72.2517 729.946 78.2348 727.068 86.3384C724.19 94.4421 722.751 99.2891 722.751 100.88C722.827 101.94 723.016 102.659 723.319 103.038C723.622 103.417 724.19 103.606 725.023 103.606C727.144 103.606 729.113 102.47 730.931 100.198C732.748 97.9259 734.225 94.8208 735.361 90.8825C735.588 90.0495 735.815 89.5572 736.043 89.4057C736.27 89.2542 736.876 89.1785 737.86 89.1785C739.375 89.1785 740.132 89.4814 740.132 90.0873C740.132 90.1631 739.981 90.7311 739.678 91.7914C739.072 93.9877 738.239 96.1461 737.179 98.2667C736.118 100.387 734.377 102.508 731.953 104.628C729.529 106.749 726.917 107.771 724.114 107.696C720.555 107.696 717.98 106.673 716.389 104.628C714.799 102.584 714.004 100.463 714.004 98.2667C714.004 96.8277 715.367 92.2836 718.093 84.6344C720.82 76.9852 722.221 71.2293 722.297 67.3668C722.297 62.8985 720.631 60.6643 717.298 60.6643H716.73C710.217 60.6643 704.726 64.4889 700.258 72.1381L699.463 73.5014L695.714 88.7241C693.215 98.6454 691.776 103.985 691.397 104.742C690.412 106.787 688.784 107.809 686.512 107.809C685.527 107.809 684.732 107.544 684.126 107.014C683.52 106.484 683.104 106.03 682.877 105.651C682.649 105.272 682.536 104.894 682.536 104.515C682.536 103.682 683.823 98.2667 686.398 88.2697L690.488 71.6837C690.715 70.5477 690.829 69.1087 690.829 67.3668C690.829 62.8985 689.163 60.6643 685.83 60.6643H685.262C678.749 60.6643 673.258 64.4889 668.79 72.1381L667.995 73.5014L664.246 88.7241C661.747 98.6454 660.308 103.985 659.929 104.742C658.944 106.787 657.316 107.809 655.044 107.809C654.06 107.809 653.264 107.582 652.658 107.128C652.053 106.673 651.636 106.219 651.409 105.764C651.182 105.31 651.106 104.931 651.182 104.628C651.182 103.644 652.621 97.4336 655.498 85.9976C658.452 74.3344 659.929 68.2378 659.929 67.7076C660.156 66.5716 660.27 65.5492 660.27 64.6404C660.27 61.9139 659.323 60.5507 657.43 60.5507C655.764 60.5507 654.362 61.611 653.226 63.7315C652.09 65.8521 651.219 68.162 650.614 70.6613C650.008 73.1605 649.553 74.5238 649.25 74.751C649.099 74.9025 648.493 74.9782 647.433 74.9782H645.842C645.388 74.5238 645.161 74.183 645.161 73.9558Z" fill="black"/>
<path d="M746.266 88.7244C746.266 81.0752 749.144 73.8046 754.9 66.9127C760.656 60.0208 767.131 56.537 774.326 56.4613C778.188 56.4613 781.597 58.3168 784.55 62.0278C785.762 59.7558 787.504 58.6198 789.776 58.6198C790.76 58.6198 791.631 58.9227 792.389 59.5286C793.146 60.1345 793.525 60.8918 793.525 61.8006C793.525 62.7852 792.124 68.844 789.321 79.977C786.519 91.1101 785.08 97.3961 785.005 98.835C785.005 100.728 785.27 101.978 785.8 102.584C786.33 103.19 787.125 103.531 788.185 103.606C788.867 103.531 789.624 103.19 790.458 102.584C792.048 101.069 793.601 97.4339 795.115 91.6781C795.57 90.1634 795.948 89.3682 796.251 89.2924C796.403 89.2167 796.781 89.1788 797.387 89.1788H797.842C799.281 89.1788 800 89.5196 800 90.2013C800 90.6557 799.811 91.6781 799.432 93.2685C799.053 94.859 798.296 96.9038 797.16 99.4031C796.024 101.902 794.812 103.796 793.525 105.083C792.54 106.068 791.328 106.863 789.889 107.469C789.284 107.62 788.375 107.696 787.163 107.696C784.588 107.696 782.43 107.128 780.688 105.992C778.946 104.856 777.81 103.682 777.28 102.47L776.598 100.766C776.522 100.691 776.371 100.728 776.144 100.88C775.992 101.031 775.841 101.183 775.689 101.334C771.221 105.575 766.677 107.696 762.057 107.696C757.891 107.696 754.218 106.181 751.037 103.152C747.857 100.123 746.266 95.3134 746.266 88.7244ZM782.392 69.2984C782.392 68.844 782.202 68.0109 781.824 66.7991C781.445 65.5874 780.574 64.262 779.211 62.823C777.848 61.3841 776.106 60.6267 773.985 60.551C771.334 60.551 768.797 61.7249 766.374 64.0727C763.95 66.4205 762.057 69.4877 760.694 73.2745C758.497 79.2575 756.945 85.4678 756.036 91.9053C756.036 92.1325 756.036 92.549 756.036 93.1549C756.036 93.7608 755.998 94.2152 755.922 94.5182C755.922 97.9262 756.604 100.274 757.967 101.562C759.33 102.849 760.959 103.531 762.852 103.606C765.73 103.606 768.57 102.357 771.372 99.8575C774.174 97.3582 775.841 95.427 776.371 94.0637C776.522 93.7608 777.545 89.709 779.438 81.9083C781.331 74.1076 782.316 69.9043 782.392 69.2984Z" fill="black"/>
<path d="M1116.89 115.126C1115.63 115.126 1115 114.756 1115 114.015C1115 113.866 1115.11 113.348 1115.33 112.459C1115.63 111.274 1115.93 110.607 1116.22 110.459C1116.52 110.31 1117.37 110.199 1118.78 110.125C1120.78 110.125 1123 110.014 1125.45 109.792C1126.48 109.57 1127.19 109.125 1127.56 108.458C1127.71 108.088 1130.34 97.679 1135.45 77.2316C1140.56 56.7842 1143.15 46.4123 1143.23 46.1159C1143.23 45.5974 1143.08 45.3381 1142.78 45.3381C1142.19 45.1158 1140.23 44.9306 1136.89 44.7824H1133.45C1133 44.3379 1132.78 44.0416 1132.78 43.8934C1132.78 43.7452 1132.85 43.1155 1133 42.0042C1133.3 40.7448 1133.67 39.9669 1134.11 39.6706H1194.01C1194.53 39.9669 1194.79 40.3744 1194.79 40.893C1194.79 41.2634 1194.31 45.4121 1193.34 53.3392C1192.38 61.2663 1191.86 65.341 1191.79 65.5632C1191.64 66.0818 1190.9 66.3411 1189.57 66.3411H1188.23C1187.71 65.9707 1187.45 65.4891 1187.45 64.8964C1187.45 64.8224 1187.57 63.9333 1187.79 62.2294C1188.01 60.5254 1188.12 58.5622 1188.12 56.3396C1188.12 54.1171 1187.86 52.302 1187.34 50.8944C1186.83 49.4868 1186.12 48.3385 1185.23 47.4495C1184.34 46.5605 1182.97 45.9678 1181.12 45.6714C1179.27 45.3751 1177.38 45.1158 1175.45 44.8935C1173.53 44.6713 1170.86 44.6343 1167.45 44.7824H1164.9C1158.82 44.8565 1155.6 44.9676 1155.23 45.1158C1154.86 45.264 1154.6 45.5603 1154.45 46.0048C1154.38 46.0789 1153.12 50.9315 1150.67 60.5625L1147.12 74.8979H1153.23C1153.45 74.8979 1154.3 74.8979 1155.78 74.8979C1157.27 74.8979 1158.3 74.8608 1158.9 74.7868C1159.49 74.7127 1160.3 74.6016 1161.34 74.4534C1162.38 74.3052 1163.27 74.0459 1164.01 73.6755C1164.75 73.3051 1165.38 72.8606 1165.9 72.342C1166.86 71.4529 1167.67 70.2305 1168.34 68.6748C1169.01 67.119 1169.49 65.7114 1169.79 64.4519C1170.08 63.1925 1170.27 62.5257 1170.34 62.4516C1170.56 62.0812 1171.27 61.896 1172.45 61.896H1173.79C1174.3 62.2664 1174.56 62.6369 1174.56 63.0073C1174.56 63.2295 1173.42 68.0821 1171.12 77.5649C1168.82 87.0478 1167.56 91.9374 1167.34 92.2337C1167.19 92.7523 1166.45 93.0116 1165.12 93.0116H1163.78C1163.27 92.5671 1163.01 92.1226 1163.01 91.6781C1163.01 91.4558 1163.19 90.6409 1163.56 89.2333C1163.93 87.8257 1164.12 86.344 1164.12 84.7882C1164.12 82.6398 1163.38 81.3062 1161.9 80.7876C1160.41 80.269 1157.12 80.0097 1152.01 80.0097H1145.89L1142.34 94.1229C1139.97 103.309 1138.78 108.125 1138.78 108.569C1138.78 109.607 1142.08 110.125 1148.67 110.125H1151.45C1151.89 110.57 1152.12 110.829 1152.12 110.903C1152.12 110.977 1152.04 111.718 1151.89 113.126C1151.6 114.089 1151.23 114.793 1150.78 115.237H1148.89C1145.86 115.089 1140.26 115.015 1132.11 115.015C1127.3 115.015 1123.63 115.015 1121.11 115.015C1118.59 115.015 1117.19 115.052 1116.89 115.126Z" fill="#6C63FF"/>
<path d="M1184.66 109.357C1184.66 108.624 1185.05 107.367 1185.84 105.586C1186.62 103.805 1187.88 101.946 1189.61 100.008C1191.34 98.0699 1193.28 97.1271 1195.42 97.1795C1197.57 97.1795 1199.3 97.7819 1200.61 98.9866C1201.92 100.191 1202.6 101.867 1202.65 104.015C1202.55 105.01 1202.47 105.56 1202.42 105.665C1202.42 105.822 1202 107.027 1201.16 109.279C1200.32 111.531 1199.46 114.071 1198.57 116.9C1197.68 119.728 1197.26 121.98 1197.31 123.657C1197.31 125.909 1197.68 127.48 1198.41 128.371C1199.14 129.261 1200.24 129.732 1201.71 129.785C1202.91 129.785 1204.04 129.497 1205.09 128.921C1206.13 128.344 1206.95 127.742 1207.52 127.114C1208.1 126.485 1208.81 125.621 1209.64 124.521C1209.64 124.468 1209.77 123.945 1210.04 122.949C1210.3 121.954 1210.67 120.409 1211.14 118.314C1211.61 116.219 1212.11 114.281 1212.63 112.5C1214.62 104.643 1215.72 100.532 1215.93 100.165C1216.61 98.7509 1217.74 98.0438 1219.31 98.0438C1219.99 98.0438 1220.54 98.2271 1220.96 98.5937C1221.38 98.9604 1221.66 99.2746 1221.82 99.5365C1221.98 99.7984 1222.03 100.034 1221.98 100.244C1221.98 100.925 1220.7 106.424 1218.13 116.743C1215.56 127.061 1214.1 132.718 1213.73 133.713C1212.26 138.061 1209.72 141.517 1206.11 144.084C1202.49 146.651 1198.88 147.96 1195.27 148.012C1192.91 148.012 1190.84 147.436 1189.06 146.284C1187.28 145.132 1186.39 143.403 1186.39 141.098C1186.39 139.946 1186.57 138.977 1186.94 138.191C1187.3 137.406 1187.8 136.83 1188.43 136.463C1189.06 136.096 1189.58 135.834 1190 135.677C1190.42 135.52 1190.87 135.442 1191.34 135.442C1193.64 135.442 1194.79 136.542 1194.79 138.741C1194.79 139.789 1194.48 140.706 1193.85 141.491C1193.22 142.277 1192.62 142.801 1192.04 143.063C1191.47 143.325 1191.13 143.455 1191.02 143.455L1190.79 143.534C1190.89 143.796 1191.39 144.11 1192.28 144.477C1193.17 144.843 1194.06 145.027 1194.95 145.027H1195.58C1196.47 145.027 1197.15 144.974 1197.62 144.87C1199.35 144.398 1200.95 143.403 1202.42 141.884C1203.88 140.365 1205.01 138.741 1205.79 137.013C1206.58 135.284 1207.18 133.818 1207.6 132.613C1208.02 131.409 1208.23 130.623 1208.23 130.256L1207.76 130.57C1207.44 130.78 1206.95 131.068 1206.27 131.435C1205.58 131.801 1204.9 132.116 1204.22 132.378C1203.18 132.639 1202.15 132.77 1201.16 132.77C1198.75 132.77 1196.63 132.194 1194.79 131.042C1192.96 129.89 1191.76 128.03 1191.18 125.464C1191.13 125.097 1191.1 124.285 1191.1 123.028C1191.1 120.043 1192.02 116.14 1193.85 111.322C1195.68 106.503 1196.6 103.439 1196.6 102.129C1196.6 102.077 1196.6 102.024 1196.6 101.972C1196.6 101.501 1196.6 101.186 1196.6 101.029C1196.6 100.872 1196.5 100.689 1196.29 100.479C1196.08 100.27 1195.79 100.165 1195.42 100.165H1195.11C1193.9 100.165 1192.8 100.663 1191.81 101.658C1190.81 102.653 1190.03 103.727 1189.45 104.879C1188.88 106.031 1188.43 107.131 1188.12 108.179C1187.8 109.226 1187.59 109.803 1187.49 109.907C1187.38 110.012 1186.96 110.065 1186.23 110.065H1185.13C1184.82 109.75 1184.66 109.515 1184.66 109.357Z" fill="#6C63FF"/>
<path d="M1257.99 88.9C1257.99 88.9 1257.99 88.4185 1257.99 87.4554C1257.99 86.4923 1258.51 85.7514 1259.54 85.2328H1292.77V68.5638L1292.88 51.8947C1293.62 50.9316 1294.33 50.45 1294.99 50.45C1295.96 50.45 1296.7 51.0057 1297.21 52.1169V85.2328H1330.33C1331.44 85.8255 1332 86.5664 1332 87.4554C1332 88.3444 1331.44 89.0852 1330.33 89.6779H1297.21V122.794C1296.62 123.831 1295.96 124.35 1295.21 124.35H1294.99H1294.77C1293.88 124.35 1293.21 123.831 1292.77 122.794V89.6779H1259.54C1258.51 89.1593 1257.99 88.4185 1257.99 87.4554V88.9Z" fill="black"/>
<path d="M1378.36 142.908H1378.14C1377.25 142.908 1376.58 142.389 1376.14 141.352V87.3444L1376.25 33.3365C1376.99 32.3734 1377.69 31.8919 1378.36 31.8919C1379.32 31.8919 1380.06 32.4475 1380.58 33.5588V141.352C1379.99 142.389 1379.32 142.908 1378.58 142.908H1378.36Z" fill="#EE224B"/>
<path d="M1399.14 115.126C1397.88 115.126 1397.25 114.756 1397.25 114.015C1397.25 113.866 1397.36 113.348 1397.59 112.459C1397.88 111.274 1398.18 110.607 1398.47 110.459C1398.77 110.31 1399.62 110.199 1401.03 110.125C1403.03 110.125 1405.25 110.014 1407.7 109.792C1408.74 109.57 1409.44 109.125 1409.81 108.458C1409.96 108.088 1412.59 97.679 1417.7 77.2316C1422.81 56.7842 1425.4 46.4123 1425.48 46.1159C1425.48 45.5974 1425.33 45.3381 1425.03 45.3381C1424.44 45.1158 1422.48 44.9306 1419.14 44.7824H1415.7C1415.25 44.3379 1415.03 44.0416 1415.03 43.8934C1415.03 43.7452 1415.11 43.1155 1415.25 42.0042C1415.55 40.7448 1415.92 39.9669 1416.37 39.6706H1476.26C1476.78 39.9669 1477.04 40.3744 1477.04 40.893C1477.04 41.2634 1476.56 45.4121 1475.6 53.3392C1474.63 61.2663 1474.12 65.341 1474.04 65.5632C1473.89 66.0818 1473.15 66.3411 1471.82 66.3411H1470.49C1469.97 65.9707 1469.71 65.4891 1469.71 64.8964C1469.71 64.8224 1469.82 63.9333 1470.04 62.2294C1470.26 60.5254 1470.37 58.5622 1470.37 56.3396C1470.37 54.1171 1470.11 52.302 1469.6 50.8944C1469.08 49.4868 1468.37 48.3385 1467.48 47.4495C1466.6 46.5605 1465.22 45.9678 1463.37 45.6714C1461.52 45.3751 1459.63 45.1158 1457.71 44.8935C1455.78 44.6713 1453.11 44.6343 1449.7 44.7824H1447.15C1441.07 44.8565 1437.85 44.9676 1437.48 45.1158C1437.11 45.264 1436.85 45.5603 1436.7 46.0048C1436.63 46.0789 1435.37 50.9315 1432.92 60.5625L1429.37 74.8979H1435.48C1435.7 74.8979 1436.55 74.8979 1438.04 74.8979C1439.52 74.8979 1440.55 74.8608 1441.15 74.7868C1441.74 74.7127 1442.56 74.6016 1443.59 74.4534C1444.63 74.3052 1445.52 74.0459 1446.26 73.6755C1447 73.3051 1447.63 72.8606 1448.15 72.342C1449.11 71.4529 1449.93 70.2305 1450.59 68.6748C1451.26 67.119 1451.74 65.7114 1452.04 64.4519C1452.33 63.1925 1452.52 62.5257 1452.59 62.4516C1452.82 62.0812 1453.52 61.896 1454.7 61.896H1456.04C1456.56 62.2664 1456.82 62.6369 1456.82 63.0073C1456.82 63.2295 1455.67 68.0821 1453.37 77.5649C1451.07 87.0478 1449.82 91.9374 1449.59 92.2337C1449.44 92.7523 1448.7 93.0116 1447.37 93.0116H1446.04C1445.52 92.5671 1445.26 92.1226 1445.26 91.6781C1445.26 91.4558 1445.44 90.6409 1445.81 89.2333C1446.19 87.8257 1446.37 86.344 1446.37 84.7882C1446.37 82.6398 1445.63 81.3062 1444.15 80.7876C1442.67 80.269 1439.37 80.0097 1434.26 80.0097H1428.15L1424.59 94.1229C1422.22 103.309 1421.03 108.125 1421.03 108.569C1421.03 109.607 1424.33 110.125 1430.92 110.125H1433.7C1434.15 110.57 1434.37 110.829 1434.37 110.903C1434.37 110.977 1434.29 111.718 1434.15 113.126C1433.85 114.089 1433.48 114.793 1433.04 115.237H1431.15C1428.11 115.089 1422.52 115.015 1414.37 115.015C1409.55 115.015 1405.88 115.015 1403.36 115.015C1400.85 115.015 1399.44 115.052 1399.14 115.126Z" fill="#EE224B"/>
<path d="M1467.63 13.2225C1467.63 12.6299 1467.81 12.1113 1468.18 11.6668C1468.55 11.2222 1469.11 11 1469.85 11C1470.37 11 1470.81 11.1852 1471.18 11.5556C1471.56 11.852 1471.93 12.5558 1472.3 13.667C1473.04 16.4082 1474.56 18.5196 1476.85 20.0013C1477.67 20.5199 1478.07 21.1866 1478.07 22.0016C1478.07 22.6683 1477.96 23.1129 1477.74 23.3351C1477.52 23.5574 1477 23.8907 1476.19 24.3353C1473 25.9651 1470.22 28.2988 1467.85 31.3363C1467.7 31.4844 1467.52 31.7067 1467.3 32.003C1467.07 32.2994 1466.89 32.5216 1466.74 32.6698C1466.59 32.818 1466.41 32.892 1466.18 32.892C1465.96 32.892 1465.7 32.9291 1465.41 33.0032C1464.89 33.0032 1464.41 32.818 1463.96 32.4475C1463.52 32.0771 1463.26 31.5215 1463.18 30.7806C1463.18 29.373 1464.92 27.1875 1468.41 24.2241H1449.4L1430.4 24.113C1429.44 23.4462 1428.96 22.7424 1428.96 22.0016C1428.96 21.483 1429.44 20.7421 1430.4 19.779H1470.3C1468.52 16.9638 1467.63 14.7783 1467.63 13.2225Z" fill="#EE224B"/>
<path d="M1499.68 81.8592C1499.52 81.8592 1499.32 81.8592 1499.05 81.8592C1497.74 81.8592 1496.96 81.8331 1496.7 81.7807C1496.43 81.7283 1496.3 81.4402 1496.3 80.9164C1496.3 79.5022 1496.59 78.638 1497.17 78.3237C1497.27 78.2714 1499.81 78.2452 1504.79 78.2452C1508.82 78.2452 1511.13 78.2452 1511.7 78.2452C1512.28 78.2452 1512.65 78.4023 1512.8 78.7166C1523.85 104.696 1529.49 118.026 1529.69 118.707L1533.94 101.972C1536.71 90.9206 1538.1 85.0281 1538.1 84.2948C1538.1 82.8806 1536.43 82.0688 1533.07 81.8592C1531.82 81.8592 1531.19 81.5712 1531.19 80.995C1531.19 80.8902 1531.24 80.576 1531.34 80.0522C1531.55 79.2142 1531.71 78.7166 1531.82 78.5594C1531.92 78.4023 1532.18 78.2975 1532.6 78.2452C1532.76 78.2452 1533.57 78.2714 1535.04 78.3237C1536.5 78.3761 1538.68 78.4285 1541.56 78.4809C1544.18 78.4809 1546.17 78.4547 1547.53 78.4023C1548.89 78.3499 1549.68 78.3237 1549.89 78.3237C1550.67 78.3237 1551.06 78.5856 1551.06 79.1094C1551.06 80.2617 1550.86 81.0474 1550.44 81.4664C1550.33 81.7283 1549.76 81.8592 1548.71 81.8592C1544.99 82.0688 1542.66 83.1163 1541.72 85.0019L1530.01 131.356C1529.9 131.723 1529.35 131.906 1528.36 131.906C1527.63 131.906 1527.18 131.854 1527.02 131.749C1526.87 131.592 1523.49 123.657 1516.89 107.943L1506.91 84.452L1501.8 104.879C1498.4 118.288 1496.7 125.228 1496.7 125.7C1496.96 127.428 1498.84 128.292 1502.35 128.292H1503.14C1503.45 128.554 1503.61 128.764 1503.61 128.921C1503.61 129.078 1503.56 129.576 1503.45 130.414C1503.24 131.095 1502.98 131.592 1502.67 131.906H1501.65C1500.02 131.802 1497.19 131.749 1493.16 131.749C1491.69 131.749 1490.36 131.749 1489.15 131.749C1487.95 131.749 1486.98 131.749 1486.25 131.749C1485.51 131.749 1485.07 131.775 1484.91 131.828C1484.13 131.828 1483.73 131.592 1483.73 131.121C1483.73 130.911 1483.81 130.492 1483.97 129.864C1484.13 129.235 1484.26 128.868 1484.36 128.764C1484.47 128.449 1485.07 128.292 1486.17 128.292C1489.73 128.135 1492.03 127.114 1493.08 125.228C1493.29 124.914 1495.15 117.66 1498.66 103.465L1504 82.0949C1503.9 82.0426 1502.46 81.964 1499.68 81.8592Z" fill="#EE224B"/>
<path d="M1572.08 142.908H1571.86C1570.97 142.908 1570.3 142.389 1569.85 141.352V87.3444L1569.97 33.3365C1570.71 32.3734 1571.41 31.8919 1572.08 31.8919C1573.04 31.8919 1573.78 32.4475 1574.3 33.5588V141.352C1573.71 142.389 1573.04 142.908 1572.3 142.908H1572.08Z" fill="#EE224B"/>
<path d="M1621.56 88.9001C1621.56 88.9001 1621.56 88.4185 1621.56 87.4554C1621.56 86.4923 1622.08 85.7515 1623.12 85.2329H1687.68C1688.79 85.8256 1689.35 86.5664 1689.35 87.4554C1689.35 88.3445 1688.79 89.0853 1687.68 89.678H1623.12C1622.08 89.1594 1621.56 88.4185 1621.56 87.4554V88.9001Z" fill="black"/>
<path d="M1738.82 142.908H1738.6C1737.71 142.908 1737.04 142.389 1736.6 141.352V87.3444L1736.71 33.3365C1737.45 32.3734 1738.16 31.8919 1738.82 31.8919C1739.79 31.8919 1740.53 32.4475 1741.05 33.5588V141.352C1740.45 142.389 1739.79 142.908 1739.04 142.908H1738.82Z" fill="#D46FA0"/>
<path d="M1759.6 115.126C1758.35 115.126 1757.72 114.756 1757.72 114.015C1757.72 113.866 1757.83 113.348 1758.05 112.459C1758.35 111.274 1758.64 110.607 1758.94 110.459C1759.23 110.31 1760.09 110.199 1761.49 110.125C1763.49 110.125 1765.72 110.014 1768.16 109.792C1769.2 109.57 1769.9 109.125 1770.27 108.458C1770.42 108.088 1773.05 97.679 1778.16 77.2316C1783.27 56.7842 1785.87 46.4123 1785.94 46.1159C1785.94 45.5974 1785.79 45.3381 1785.5 45.3381C1784.9 45.1158 1782.94 44.9306 1779.61 44.7824H1776.16C1775.72 44.3379 1775.5 44.0416 1775.5 43.8934C1775.5 43.7452 1775.57 43.1155 1775.72 42.0042C1776.01 40.7448 1776.38 39.9669 1776.83 39.6706H1836.73C1837.25 39.9669 1837.5 40.3744 1837.5 40.893C1837.5 41.2634 1837.02 45.4121 1836.06 53.3392C1835.1 61.2663 1834.58 65.341 1834.5 65.5632C1834.36 66.0818 1833.62 66.3411 1832.28 66.3411H1830.95C1830.43 65.9707 1830.17 65.4891 1830.17 64.8964C1830.17 64.8224 1830.28 63.9333 1830.5 62.2294C1830.73 60.5254 1830.84 58.5622 1830.84 56.3396C1830.84 54.1171 1830.58 52.302 1830.06 50.8944C1829.54 49.4868 1828.84 48.3385 1827.95 47.4495C1827.06 46.5605 1825.69 45.9678 1823.84 45.6714C1821.98 45.3751 1820.09 45.1158 1818.17 44.8935C1816.24 44.6713 1813.58 44.6343 1810.17 44.7824H1807.61C1801.54 44.8565 1798.31 44.9676 1797.94 45.1158C1797.57 45.264 1797.31 45.5603 1797.17 46.0048C1797.09 46.0789 1795.83 50.9315 1793.39 60.5625L1789.83 74.8979H1795.94C1796.17 74.8979 1797.02 74.8979 1798.5 74.8979C1799.98 74.8979 1801.02 74.8608 1801.61 74.7868C1802.2 74.7127 1803.02 74.6016 1804.06 74.4534C1805.09 74.3052 1805.98 74.0459 1806.72 73.6755C1807.46 73.3051 1808.09 72.8606 1808.61 72.342C1809.57 71.4529 1810.39 70.2305 1811.06 68.6748C1811.72 67.119 1812.2 65.7114 1812.5 64.4519C1812.8 63.1925 1812.98 62.5257 1813.06 62.4516C1813.28 62.0812 1813.98 61.896 1815.17 61.896H1816.5C1817.02 62.2664 1817.28 62.6369 1817.28 63.0073C1817.28 63.2295 1816.13 68.0821 1813.83 77.5649C1811.54 87.0478 1810.28 91.9374 1810.06 92.2337C1809.91 92.7523 1809.17 93.0116 1807.83 93.0116H1806.5C1805.98 92.5671 1805.72 92.1226 1805.72 91.6781C1805.72 91.4558 1805.91 90.6409 1806.28 89.2333C1806.65 87.8257 1806.83 86.344 1806.83 84.7882C1806.83 82.6398 1806.09 81.3062 1804.61 80.7876C1803.13 80.269 1799.83 80.0097 1794.72 80.0097H1788.61L1785.05 94.1229C1782.68 103.309 1781.5 108.125 1781.5 108.569C1781.5 109.607 1784.79 110.125 1791.39 110.125H1794.17C1794.61 110.57 1794.83 110.829 1794.83 110.903C1794.83 110.977 1794.76 111.718 1794.61 113.126C1794.31 114.089 1793.94 114.793 1793.5 115.237H1791.61C1788.57 115.089 1782.98 115.015 1774.83 115.015C1770.01 115.015 1766.35 115.015 1763.83 115.015C1761.31 115.015 1759.9 115.052 1759.6 115.126Z" fill="#D46FA0"/>
<path d="M1828.09 13.2225C1828.09 12.6299 1828.28 12.1113 1828.65 11.6668C1829.02 11.2222 1829.57 11 1830.31 11C1830.83 11 1831.28 11.1852 1831.65 11.5556C1832.02 11.852 1832.39 12.5558 1832.76 13.667C1833.5 16.4082 1835.02 18.5196 1837.32 20.0013C1838.13 20.5199 1838.54 21.1866 1838.54 22.0016C1838.54 22.6683 1838.43 23.1129 1838.2 23.3351C1837.98 23.5574 1837.46 23.8907 1836.65 24.3353C1833.46 25.9651 1830.68 28.2988 1828.31 31.3363C1828.17 31.4844 1827.98 31.7067 1827.76 32.003C1827.54 32.2994 1827.35 32.5216 1827.2 32.6698C1827.05 32.818 1826.87 32.892 1826.65 32.892C1826.42 32.892 1826.17 32.9291 1825.87 33.0032C1825.35 33.0032 1824.87 32.818 1824.42 32.4475C1823.98 32.0771 1823.72 31.5215 1823.65 30.7806C1823.65 29.373 1825.39 27.1875 1828.87 24.2241H1809.87L1790.86 24.113C1789.9 23.4462 1789.42 22.7424 1789.42 22.0016C1789.42 21.483 1789.9 20.7421 1790.86 19.779H1830.76C1828.98 16.9638 1828.09 14.7783 1828.09 13.2225Z" fill="#D46FA0"/>
<path d="M1866.2 128.528C1865.41 129.209 1864.26 129.942 1862.74 130.728C1861.22 131.513 1859.62 131.906 1857.95 131.906C1854.65 131.906 1852 130.728 1850.01 128.371C1848.02 126.014 1847 123.002 1846.95 119.335C1846.95 113.836 1848.96 108.781 1853 104.172C1857.03 99.5627 1861.51 97.2319 1866.43 97.1795C1868.89 97.1795 1871.17 98.4366 1873.27 100.951L1873.5 100.636C1873.61 100.479 1873.74 100.322 1873.9 100.165C1874.05 100.008 1874.29 99.7984 1874.6 99.5365C1874.92 99.2747 1875.26 99.0913 1875.62 98.9866C1875.99 98.8818 1876.41 98.8033 1876.88 98.7509C1877.61 98.7509 1878.22 98.9866 1878.69 99.458C1879.16 99.9294 1879.42 100.427 1879.47 100.951C1879.47 101.736 1877.98 108.074 1875 119.964C1872.01 131.854 1870.44 137.93 1870.28 138.191C1869.34 141.02 1867.32 143.351 1864.23 145.184C1861.14 147.017 1857.61 147.96 1853.62 148.012C1846.24 148.012 1842.55 146.231 1842.55 142.67C1842.55 141.308 1843.02 140.103 1843.96 139.056C1844.9 138.008 1846.11 137.484 1847.58 137.484C1848.36 137.484 1849.09 137.72 1849.78 138.191C1850.46 138.663 1850.82 139.475 1850.87 140.627C1850.87 141.151 1850.82 141.648 1850.72 142.12C1850.61 142.591 1850.43 142.958 1850.17 143.22C1849.91 143.482 1849.7 143.744 1849.54 144.005C1849.38 144.267 1849.2 144.477 1848.99 144.634L1848.83 144.791H1848.91C1849.43 144.948 1851.01 145.027 1853.62 145.027C1855.62 145.027 1857.19 144.713 1858.34 144.084C1859.54 143.508 1860.67 142.644 1861.72 141.491C1862.76 140.339 1863.5 139.108 1863.92 137.799C1864.23 136.803 1864.65 135.18 1865.17 132.927C1865.86 130.413 1866.2 128.947 1866.2 128.528ZM1871.93 106.136L1871.62 105.272C1871.46 104.696 1871.33 104.303 1871.22 104.093C1871.12 103.884 1870.96 103.517 1870.75 102.993C1870.54 102.47 1870.28 102.103 1869.97 101.894C1869.65 101.684 1869.31 101.396 1868.95 101.029C1868.58 100.663 1868.11 100.427 1867.53 100.322C1866.96 100.217 1866.38 100.139 1865.8 100.087C1863.5 100.087 1861.27 101.475 1859.12 104.251C1857.55 106.293 1856.24 109.41 1855.2 113.6C1854.15 117.79 1853.62 120.828 1853.62 122.714C1853.62 126.852 1855.25 128.921 1858.5 128.921C1861.43 128.921 1864.31 127.087 1867.14 123.421L1867.77 122.635L1871.93 106.136Z" fill="#D46FA0"/>
<path d="M1900.25 142.908H1900.03C1899.14 142.908 1898.47 142.389 1898.02 141.352V87.3444L1898.14 33.3365C1898.88 32.3734 1899.58 31.8919 1900.25 31.8919C1901.21 31.8919 1901.95 32.4475 1902.47 33.5588V141.352C1901.88 142.389 1901.21 142.908 1900.47 142.908H1900.25Z" fill="#D46FA0"/>
<path d="M1952.78 76.6762C1952.78 75.7131 1953.3 74.9722 1954.33 74.4536H2025.12C2026.23 75.0463 2026.79 75.7872 2026.79 76.6762C2026.79 77.4911 2026.27 78.1949 2025.23 78.7876L1989.89 78.8987H1954.55C1953.37 78.5283 1952.78 77.7875 1952.78 76.6762ZM1952.78 98.2349C1952.78 97.1236 1953.37 96.3827 1954.55 96.0123H2025.23C2026.27 96.7532 2026.79 97.494 2026.79 98.2349C2026.79 99.198 2026.23 99.9388 2025.12 100.457H1954.33C1953.3 99.9388 1952.78 99.198 1952.78 98.2349Z" fill="black"/>
<path d="M2074.55 50.2279C2078.7 44.2271 2084.37 41.2266 2091.55 41.2266C2095.11 41.2266 2098.66 42.1897 2102.22 44.1159C2105.78 46.0421 2108.67 49.45 2110.89 54.3396C2113.63 60.4887 2115 68.9343 2115 79.6766C2115 91.1598 2113.41 99.9388 2110.22 106.014C2108.74 109.125 2106.7 111.607 2104.11 113.459C2101.52 115.311 2099.26 116.46 2097.33 116.904C2095.4 117.349 2093.52 117.608 2091.66 117.682C2089.74 117.682 2087.81 117.46 2085.88 117.015C2083.96 116.571 2081.7 115.386 2079.11 113.459C2076.51 111.533 2074.48 109.051 2072.99 106.014C2069.81 99.9388 2068.22 91.1598 2068.22 79.6766C2068.22 66.7859 2070.33 56.9696 2074.55 50.2279ZM2099.55 48.8944C2097.33 46.5237 2094.7 45.3383 2091.66 45.3383C2088.55 45.3383 2085.88 46.5237 2083.66 48.8944C2081.81 50.8206 2080.59 53.4877 2079.99 56.8956C2079.4 60.3035 2079.11 67.4156 2079.11 78.232C2079.11 89.9374 2079.4 97.6422 2079.99 101.346C2080.59 105.051 2081.92 107.977 2084 110.125C2086.07 112.348 2088.63 113.459 2091.66 113.459C2094.63 113.459 2097.15 112.348 2099.22 110.125C2101.37 107.903 2102.7 104.791 2103.22 100.791C2103.74 96.7902 2104.04 89.2706 2104.11 78.232C2104.11 67.4897 2103.81 60.4146 2103.22 57.0067C2102.63 53.5988 2101.41 50.8947 2099.55 48.8944Z" fill="black"/>
</svg>
