<svg width="75" height="65" viewBox="0 0 75 65" fill="none" xmlns="http://www.w3.org/2000/svg">
<path d="M1.29962 51.9084C0.433208 51.9084 0 51.6536 0 51.1439C0 51.042 0.0764484 50.6852 0.229345 50.0737C0.433208 49.2582 0.63707 48.7995 0.840932 48.6976C1.04479 48.5957 1.6309 48.5192 2.59925 48.4682C3.97532 48.4682 5.50428 48.3918 7.18615 48.2389C7.89967 48.086 8.38384 47.7802 8.63867 47.3215C8.7406 47.0667 10.5499 39.906 14.0665 25.8395C17.5831 11.773 19.3669 4.63782 19.4179 4.43396C19.4179 4.0772 19.316 3.89882 19.1121 3.89882C18.7044 3.74593 17.3538 3.61851 15.0603 3.51658H12.6904C12.3846 3.21079 12.2317 3.00692 12.2317 2.90499C12.2317 2.80306 12.2827 2.36985 12.3846 1.60537C12.5885 0.738955 12.8433 0.203816 13.1491 -4.58956e-05H54.3548C54.7116 0.203816 54.8899 0.484127 54.8899 0.840886C54.8899 1.09571 54.5587 3.94979 53.8961 9.40311C53.2336 14.8564 52.8768 17.6595 52.8258 17.8124C52.7239 18.1692 52.2143 18.3476 51.2969 18.3476H50.3795C50.0227 18.0927 49.8444 17.7615 49.8444 17.3537C49.8444 17.3028 49.9208 16.6912 50.0737 15.519C50.2266 14.3468 50.303 12.9962 50.303 11.4672C50.303 9.93825 50.1247 8.68959 49.7679 7.72124C49.4111 6.7529 48.927 5.96293 48.3154 5.35134C47.7038 4.73975 46.7609 4.33203 45.4868 4.12817C44.2127 3.92431 42.913 3.74593 41.5879 3.59303C40.2628 3.44013 38.4281 3.41465 36.0836 3.51658H34.3253C30.1462 3.56755 27.9291 3.64399 27.6743 3.74593C27.4195 3.84786 27.2411 4.05172 27.1392 4.35751C27.0882 4.40848 26.2218 7.74673 24.5399 14.3723L22.0936 24.2341H26.2982C26.4511 24.2341 27.0372 24.2341 28.0566 24.2341C29.0759 24.2341 29.7894 24.2086 30.1971 24.1576C30.6048 24.1067 31.1655 24.0302 31.879 23.9283C32.5925 23.8264 33.2041 23.648 33.7137 23.3932C34.2234 23.1383 34.6566 22.8325 35.0134 22.4758C35.6759 21.8642 36.2365 21.0233 36.6952 19.953C37.1539 18.8827 37.4852 17.9144 37.6891 17.0479C37.8929 16.1815 38.0203 15.7228 38.0713 15.6719C38.2242 15.417 38.7084 15.2896 39.5238 15.2896H40.4412C40.798 15.5445 40.9763 15.7993 40.9763 16.0541C40.9763 16.207 40.1864 19.5453 38.6064 26.0689C37.0265 32.5925 36.1601 35.9562 36.0072 36.16C35.9053 36.5168 35.3956 36.6952 34.4782 36.6952H33.5608C33.2041 36.3894 33.0257 36.0836 33.0257 35.7778C33.0257 35.6249 33.1531 35.0643 33.4079 34.0959C33.6628 33.1276 33.7902 32.1083 33.7902 31.038C33.7902 29.56 33.2805 28.6426 32.2612 28.2859C31.2419 27.9291 28.9739 27.7507 25.4573 27.7507H21.2527L18.8063 37.4597C17.1754 43.7794 16.36 47.0922 16.36 47.398C16.36 48.1115 18.6279 48.4682 23.1639 48.4682H25.0751C25.3809 48.774 25.5338 48.9524 25.5338 49.0034C25.5338 49.0543 25.4828 49.564 25.3809 50.5323C25.177 51.1949 24.9222 51.6791 24.6164 51.9849H23.3168C21.2272 51.8829 17.3793 51.832 11.7731 51.832C8.46029 51.832 5.93749 51.832 4.20466 51.832C2.47183 51.832 1.50349 51.8574 1.29962 51.9084Z" fill="#6C63FF"/>
<path d="M49.597 47.8319C49.8492 46.3186 50.8221 44.571 52.5156 42.5892C54.2091 40.6074 56.299 39.5985 58.7853 39.5624C60.0464 39.5624 61.1995 39.8867 62.2444 40.5353C63.2894 41.1839 64.0641 41.9946 64.5685 42.9675C66.0819 40.6975 67.9016 39.5624 70.0275 39.5624C71.3607 39.5624 72.5137 39.9588 73.4866 40.7515C74.4595 41.5442 74.964 42.6072 75 43.9404C75 44.9853 74.7478 45.8321 74.2433 46.4807C73.7389 47.1293 73.2524 47.5256 72.784 47.6698C72.3156 47.8139 71.9012 47.886 71.5409 47.886C70.8562 47.886 70.2977 47.6878 69.8653 47.2914C69.433 46.8951 69.2168 46.3726 69.2168 45.724C69.2168 44.0665 70.1176 42.9315 71.9192 42.3189C71.5228 41.8505 70.8022 41.6163 69.7572 41.6163C69.2888 41.6163 68.9465 41.6523 68.7303 41.7244C67.3611 42.3009 66.3522 43.49 65.7036 45.2916C63.5416 53.2548 62.4606 57.9031 62.4606 59.2363C62.4606 60.2452 62.7489 60.9658 63.3254 61.3982C63.9019 61.8306 64.5325 62.0468 65.2171 62.0468C66.5503 62.0468 67.8655 61.4523 69.1627 60.2632C70.4599 59.0741 71.3427 57.6148 71.8111 55.8852C71.9192 55.5249 72.0273 55.3267 72.1354 55.2907C72.2435 55.2547 72.5318 55.2186 73.0002 55.1826H73.2164C73.7569 55.1826 74.0271 55.3267 74.0271 55.615C74.0271 55.651 73.9911 55.8492 73.919 56.2095C73.3425 58.2634 72.2255 60.083 70.568 61.6685C68.9105 63.2539 66.9827 64.0466 64.7847 64.0466C62.2625 64.0466 60.3527 62.9116 59.0555 60.6415C57.5782 62.8756 55.8847 63.9926 53.9749 63.9926H53.6506C51.885 63.9926 50.6239 63.5242 49.8672 62.5873C49.1105 61.6505 48.7142 60.6596 48.6781 59.6146C48.6781 58.4616 49.0204 57.5247 49.7051 56.8041C50.3897 56.0834 51.2004 55.7231 52.1373 55.7231C53.6867 55.7231 54.4614 56.4798 54.4614 57.9931C54.4614 58.7138 54.2452 59.3444 53.8128 59.8849C53.3804 60.4253 52.966 60.7857 52.5697 60.9658C52.1733 61.146 51.9391 61.2361 51.867 61.2361L51.7049 61.2901C51.7049 61.3262 51.813 61.3982 52.0292 61.5063C52.2454 61.6144 52.5336 61.7405 52.894 61.8847C53.2543 62.0288 53.5966 62.0828 53.9209 62.0468C55.2181 62.0468 56.3351 61.2361 57.2719 59.6146C57.5962 59.0381 58.0106 57.813 58.5151 55.9393C59.0195 54.0656 59.524 52.1198 60.0284 50.102C60.5329 48.0842 60.8211 46.8951 60.8932 46.5347C61.0734 45.5619 61.1635 44.8592 61.1635 44.4268C61.1635 43.4179 60.8932 42.6973 60.3527 42.2649C59.8122 41.8325 59.1997 41.6163 58.5151 41.6163C57.0737 41.6163 55.7225 42.1928 54.4614 43.3459C53.2002 44.4989 52.3174 45.9762 51.813 47.7779C51.7409 48.1022 51.6508 48.2823 51.5427 48.3184C51.4346 48.3544 51.1464 48.3904 50.6779 48.4265H49.9213C49.7051 48.2103 49.597 48.0121 49.597 47.8319Z" fill="#6C63FF"/>
</svg>
