<svg width="129" height="249" viewBox="0 0 129 249" fill="none" xmlns="http://www.w3.org/2000/svg">
<path d="M29 0.0201378L0.334372 50.1361L58.0689 49.9033L29 0.0201378ZM35 248L34.1814 44.9996L24.1815 45.0399L25.0001 248.04L35 248Z" fill="#6C63FF"/>
<path d="M50.4125 70.4159C49.4708 70.4159 49 70.139 49 69.5851C49 69.4743 49.0831 69.0865 49.2493 68.4219C49.4708 67.5356 49.6924 67.0371 49.914 66.9263C50.1355 66.8155 50.7725 66.7324 51.825 66.677C53.3205 66.677 54.9822 66.5939 56.8102 66.4278C57.5856 66.2616 58.1119 65.9293 58.3888 65.4307C58.4996 65.1538 60.466 57.3713 64.288 42.0833C68.11 26.7954 70.0487 19.0406 70.104 18.819C70.104 18.4313 69.9933 18.2374 69.7717 18.2374C69.3286 18.0713 67.8607 17.9328 65.3681 17.822H62.7924C62.4601 17.4897 62.2939 17.2681 62.2939 17.1573C62.2939 17.0465 62.3493 16.5757 62.4601 15.7448C62.6816 14.8032 62.9586 14.2216 63.2909 14H108.075C108.462 14.2216 108.656 14.5262 108.656 14.914C108.656 15.1909 108.296 18.2928 107.576 24.2197C106.856 30.1465 106.468 33.1931 106.413 33.3592C106.302 33.747 105.748 33.9408 104.751 33.9408H103.754C103.366 33.6639 103.173 33.3038 103.173 32.8607C103.173 32.8053 103.256 32.1406 103.422 30.8666C103.588 29.5926 103.671 28.1248 103.671 26.463C103.671 24.8013 103.477 23.4442 103.089 22.3918C102.702 21.3393 102.176 20.4808 101.511 19.8161C100.846 19.1514 99.8214 18.7083 98.4366 18.4867C97.0519 18.2651 95.6394 18.0713 94.1992 17.9051C92.759 17.7389 90.765 17.7112 88.217 17.822H86.306C81.7639 17.8774 79.3544 17.9605 79.0774 18.0713C78.8005 18.182 78.6066 18.4036 78.4958 18.736C78.4404 18.7913 77.4988 22.4195 75.6709 29.6203L73.0121 40.3385H77.5819C77.748 40.3385 78.385 40.3385 79.4928 40.3385C80.6007 40.3385 81.3761 40.3108 81.8193 40.2554C82.2624 40.2 82.8717 40.117 83.6472 40.0062C84.4227 39.8954 85.0874 39.7015 85.6413 39.4246C86.1952 39.1476 86.666 38.8153 87.0537 38.4275C87.7738 37.7628 88.3831 36.8489 88.8817 35.6857C89.3802 34.5224 89.7402 33.47 89.9618 32.5284C90.1833 31.5867 90.3218 31.0882 90.3772 31.0328C90.5434 30.7558 91.0696 30.6174 91.9559 30.6174H92.9529C93.3406 30.8943 93.5345 31.1713 93.5345 31.4482C93.5345 31.6144 92.676 35.2425 90.9588 42.3326C89.2417 49.4227 88.3 53.0785 88.1339 53.3001C88.0231 53.6878 87.4692 53.8817 86.4721 53.8817H85.4751C85.0874 53.5493 84.8935 53.217 84.8935 52.8846C84.8935 52.7185 85.032 52.1091 85.3089 51.0567C85.5859 50.0043 85.7244 48.8965 85.7244 47.7332C85.7244 46.1269 85.1704 45.1299 84.0626 44.7421C82.9548 44.3544 80.4899 44.1605 76.6679 44.1605H72.0981L69.4393 54.7125C67.6668 61.581 66.7806 65.1815 66.7806 65.5138C66.7806 66.2893 69.2455 66.677 74.1753 66.677H76.2525C76.5848 67.0094 76.751 67.2032 76.751 67.2586C76.751 67.314 76.6956 67.8679 76.5848 68.9204C76.3632 69.6405 76.0863 70.1667 75.7539 70.499H74.3415C72.0704 70.3882 67.8884 70.3328 61.7954 70.3328C58.1949 70.3328 55.4531 70.3328 53.5698 70.3328C51.6865 70.3328 50.634 70.3605 50.4125 70.4159Z" fill="black"/>
<path d="M101.083 66.103C101.083 65.5547 101.376 64.6148 101.964 63.2833C102.551 61.9518 103.491 60.5616 104.783 59.1126C106.076 57.6637 107.525 56.9587 109.13 56.9979C110.736 56.9979 112.028 57.4483 113.007 58.349C113.986 59.2497 114.496 60.5029 114.535 62.1085C114.456 62.8526 114.398 63.2638 114.358 63.3421C114.358 63.4596 114.045 64.3603 113.419 66.0442C112.792 67.7282 112.146 69.6275 111.48 71.7422C110.814 73.857 110.501 75.5409 110.54 76.7941C110.54 78.478 110.814 79.6529 111.363 80.3186C111.911 80.9844 112.733 81.3368 113.83 81.376C114.73 81.376 115.572 81.1606 116.356 80.7298C117.139 80.299 117.746 79.8487 118.177 79.3787C118.607 78.9088 119.136 78.2626 119.763 77.4402C119.763 77.4011 119.861 77.0095 120.056 76.2654C120.252 75.5213 120.526 74.3661 120.879 72.7996C121.231 71.2331 121.603 69.7842 121.995 68.4527C123.483 62.5784 124.306 59.5042 124.462 59.2301C124.971 58.1728 125.813 57.6441 126.988 57.6441C127.497 57.6441 127.908 57.7811 128.222 58.0553C128.535 58.3294 128.75 58.5644 128.868 58.7602C128.985 58.956 129.024 59.1322 128.985 59.2889C128.985 59.798 128.026 63.9099 126.107 71.6248C124.188 79.3396 123.091 83.569 122.817 84.3131C121.721 87.5635 119.822 90.1482 117.119 92.0671C114.417 93.986 111.715 94.965 109.013 95.0042C107.251 95.0042 105.704 94.5734 104.372 93.7119C103.041 92.8503 102.375 91.558 102.375 89.8349C102.375 88.9733 102.512 88.2488 102.786 87.6614C103.06 87.074 103.432 86.6432 103.902 86.3691C104.372 86.095 104.764 85.8991 105.077 85.7817C105.39 85.6642 105.723 85.6054 106.076 85.6054C107.799 85.6054 108.66 86.4278 108.66 88.0726C108.66 88.8558 108.425 89.5412 107.956 90.1286C107.486 90.716 107.035 91.1076 106.604 91.3034C106.174 91.4993 105.919 91.5972 105.841 91.5972L105.665 91.6559C105.743 91.8517 106.115 92.0867 106.781 92.3608C107.446 92.6349 108.112 92.772 108.778 92.772H109.248C109.914 92.772 110.423 92.7328 110.775 92.6545C112.068 92.3021 113.262 91.558 114.358 90.4223C115.455 89.2866 116.297 88.0726 116.884 86.7803C117.472 85.4879 117.922 84.3914 118.235 83.4907C118.549 82.59 118.705 82.0026 118.705 81.7284L118.353 81.9634C118.118 82.1201 117.746 82.3354 117.237 82.6096C116.728 82.8837 116.219 83.1187 115.71 83.3145C114.926 83.5103 114.163 83.6082 113.419 83.6082C111.617 83.6082 110.031 83.1774 108.66 82.3159C107.29 81.4543 106.389 80.0641 105.958 78.1452C105.919 77.871 105.9 77.264 105.9 76.3241C105.9 74.0919 106.585 71.1744 107.956 67.5715C109.326 63.9687 110.012 61.6777 110.012 60.6987C110.012 60.6595 110.012 60.6204 110.012 60.5812C110.012 60.2287 110.012 59.9938 110.012 59.8763C110.012 59.7588 109.933 59.6217 109.777 59.4651C109.62 59.3084 109.405 59.2301 109.13 59.2301H108.895C107.995 59.2301 107.172 59.6021 106.428 60.3462C105.684 61.0903 105.097 61.8931 104.666 62.7547C104.235 63.6162 103.902 64.4386 103.667 65.2218C103.432 66.0051 103.276 66.4358 103.197 66.5142C103.119 66.5925 102.806 66.6317 102.258 66.6317H101.435C101.2 66.3967 101.083 66.2205 101.083 66.103Z" fill="black"/>
</svg>
