<svg width="983" height="926" viewBox="0 0 983 926" fill="none" xmlns="http://www.w3.org/2000/svg">
<path d="M93.9381 464.939C93.3523 465.525 93.3523 466.475 93.9381 467.061L103.484 476.607C104.07 477.192 105.02 477.192 105.605 476.607C106.191 476.021 106.191 475.071 105.605 474.485L97.1201 466L105.605 457.515C106.191 456.929 106.191 455.979 105.605 455.393C105.02 454.808 104.07 454.808 103.484 455.393L93.9381 464.939ZM896.059 467.061C896.645 466.475 896.645 465.525 896.059 464.939L886.513 455.393C885.928 454.808 884.978 454.808 884.392 455.393C883.806 455.979 883.806 456.929 884.392 457.515L892.877 466L884.392 474.485C883.806 475.071 883.806 476.021 884.392 476.607C884.978 477.192 885.928 477.192 886.513 476.607L896.059 467.061ZM94.9988 467.5H894.999V464.5H94.9988V467.5Z" fill="black"/>
<path d="M908 466.86C908 466.86 908 466.599 908 466.076C908 465.554 908.281 465.152 908.844 464.871H926.871V455.827L926.931 446.784C927.333 446.261 927.715 446 928.076 446C928.599 446 929.001 446.301 929.282 446.904V464.871H947.248C947.851 465.192 948.153 465.594 948.153 466.076C948.153 466.559 947.851 466.961 947.248 467.282H929.282V485.248C928.961 485.811 928.599 486.092 928.197 486.092H928.076H927.956C927.473 486.092 927.112 485.811 926.871 485.248V467.282H908.844C908.281 467.001 908 466.599 908 466.076V466.86Z" fill="black"/>
<path d="M954.664 463.725C954.945 462.037 956.031 460.088 957.92 457.877C959.809 455.666 962.14 454.541 964.913 454.501C966.32 454.501 967.606 454.863 968.772 455.586C969.937 456.309 970.801 457.214 971.364 458.299C973.052 455.767 975.082 454.501 977.453 454.501C978.941 454.501 980.227 454.943 981.312 455.827C982.397 456.711 982.96 457.897 983 459.384C983 460.55 982.719 461.494 982.156 462.218C981.593 462.941 981.051 463.383 980.528 463.544C980.006 463.705 979.543 463.785 979.141 463.785C978.378 463.785 977.755 463.564 977.273 463.122C976.79 462.68 976.549 462.097 976.549 461.374C976.549 459.525 977.554 458.259 979.564 457.576C979.121 457.053 978.318 456.792 977.152 456.792C976.629 456.792 976.248 456.832 976.006 456.912C974.479 457.555 973.354 458.882 972.63 460.891C970.219 469.774 969.013 474.959 969.013 476.446C969.013 477.572 969.334 478.375 969.977 478.858C970.621 479.34 971.324 479.581 972.088 479.581C973.575 479.581 975.042 478.918 976.489 477.592C977.936 476.265 978.92 474.637 979.443 472.708C979.564 472.306 979.684 472.085 979.805 472.045C979.925 472.005 980.247 471.965 980.769 471.924H981.01C981.613 471.924 981.915 472.085 981.915 472.407C981.915 472.447 981.875 472.668 981.794 473.07C981.151 475.361 979.905 477.391 978.056 479.159C976.207 480.928 974.057 481.812 971.605 481.812C968.792 481.812 966.662 480.546 965.215 478.014C963.567 480.506 961.678 481.752 959.547 481.752H959.186C957.216 481.752 955.809 481.229 954.965 480.184C954.121 479.139 953.679 478.034 953.639 476.868C953.639 475.582 954.021 474.537 954.785 473.733C955.548 472.929 956.453 472.527 957.498 472.527C959.226 472.527 960.09 473.371 960.09 475.059C960.09 475.863 959.849 476.567 959.367 477.17C958.884 477.773 958.422 478.174 957.98 478.375C957.538 478.576 957.277 478.677 957.196 478.677L957.015 478.737C957.015 478.777 957.136 478.858 957.377 478.978C957.618 479.099 957.94 479.24 958.342 479.4C958.744 479.561 959.125 479.621 959.487 479.581C960.934 479.581 962.18 478.677 963.225 476.868C963.587 476.225 964.049 474.859 964.612 472.768C965.174 470.678 965.737 468.508 966.3 466.257C966.863 464.006 967.184 462.68 967.264 462.278C967.465 461.193 967.566 460.409 967.566 459.927C967.566 458.801 967.264 457.998 966.662 457.515C966.059 457.033 965.375 456.792 964.612 456.792C963.004 456.792 961.497 457.435 960.09 458.721C958.683 460.007 957.699 461.655 957.136 463.665C957.055 464.027 956.955 464.227 956.834 464.268C956.714 464.308 956.392 464.348 955.87 464.388H955.026C954.785 464.147 954.664 463.926 954.664 463.725Z" fill="black"/>
<path d="M0 463.318C0 463.318 0 463.037 0 462.474C0 461.911 0.30318 461.477 0.90954 461.174H38.6554C39.3051 461.521 39.6299 461.954 39.6299 462.474C39.6299 462.993 39.3051 463.426 38.6554 463.773H0.90954C0.30318 463.47 0 463.037 0 462.474V463.318Z" fill="black"/>
<path d="M48.4654 459.94C48.7686 458.121 49.938 456.02 51.9736 453.638C54.0092 451.256 56.5213 450.043 59.5098 450C61.0257 450 62.4116 450.39 63.6677 451.169C64.9237 451.949 65.8549 452.924 66.4613 454.093C68.2803 451.364 70.4676 450 73.0229 450C74.6255 450 76.0114 450.476 77.1808 451.429C78.3502 452.382 78.9566 453.66 78.9999 455.262C78.9999 456.518 78.6967 457.536 78.0904 458.316C77.484 459.095 76.8993 459.572 76.3363 459.745C75.7732 459.918 75.2751 460.005 74.842 460.005C74.0191 460.005 73.3478 459.767 72.828 459.29C72.3083 458.814 72.0484 458.186 72.0484 457.406C72.0484 455.414 73.1312 454.05 75.2968 453.313C74.8204 452.75 73.9541 452.469 72.6981 452.469C72.1351 452.469 71.7236 452.512 71.4637 452.599C69.8179 453.292 68.6052 454.721 67.8256 456.886C65.2269 466.458 63.9275 472.045 63.9275 473.648C63.9275 474.861 64.274 475.727 64.967 476.247C65.66 476.766 66.4179 477.026 67.2409 477.026C68.8434 477.026 70.4243 476.312 71.9835 474.882C73.5427 473.453 74.6038 471.699 75.1668 469.62C75.2968 469.187 75.4267 468.949 75.5567 468.905C75.6866 468.862 76.0331 468.819 76.5961 468.775H76.856C77.5057 468.775 77.8305 468.949 77.8305 469.295C77.8305 469.339 77.7872 469.577 77.7006 470.01C77.0076 472.479 75.6649 474.666 73.6726 476.572C71.6803 478.477 69.3631 479.43 66.7211 479.43C63.6893 479.43 61.3938 478.066 59.8346 475.337C58.0588 478.022 56.0232 479.365 53.7277 479.365H53.3379C51.2156 479.365 49.6997 478.802 48.7902 477.676C47.8807 476.55 47.4042 475.359 47.3609 474.103C47.3609 472.717 47.7724 471.591 48.5953 470.724C49.4182 469.858 50.3927 469.425 51.5188 469.425C53.3812 469.425 54.3124 470.335 54.3124 472.154C54.3124 473.02 54.0525 473.778 53.5328 474.428C53.0131 475.077 52.515 475.51 52.0386 475.727C51.5621 475.944 51.2806 476.052 51.194 476.052L50.9991 476.117C50.9991 476.16 51.129 476.247 51.3889 476.377C51.6488 476.507 51.9953 476.658 52.4284 476.831C52.8615 477.005 53.2729 477.07 53.6627 477.026C55.2219 477.026 56.5646 476.052 57.6907 474.103C58.0805 473.41 58.5786 471.937 59.1849 469.685C59.7913 467.433 60.3977 465.094 61.004 462.669C61.6104 460.243 61.9569 458.814 62.0435 458.381C62.2601 457.211 62.3683 456.367 62.3683 455.847C62.3683 454.634 62.0435 453.768 61.3938 453.248C60.7442 452.729 60.0079 452.469 59.1849 452.469C57.4525 452.469 55.8283 453.162 54.3124 454.548C52.7965 455.934 51.7354 457.709 51.129 459.875C51.0424 460.265 50.9341 460.481 50.8042 460.525C50.6743 460.568 50.3278 460.611 49.7647 460.655H48.8552C48.5953 460.395 48.4654 460.157 48.4654 459.94Z" fill="black"/>
<path d="M493.938 867.061C494.524 867.646 495.474 867.646 496.059 867.061L505.605 857.515C506.191 856.929 506.191 855.979 505.605 855.393C505.02 854.808 504.07 854.808 503.484 855.393L494.999 863.879L486.514 855.393C485.928 854.808 484.978 854.808 484.392 855.393C483.806 855.979 483.806 856.929 484.392 857.515L493.938 867.061ZM496.059 64.9393C495.474 64.3535 494.524 64.3535 493.938 64.9393L484.392 74.4852C483.806 75.071 483.806 76.0208 484.392 76.6065C484.978 77.1923 485.928 77.1923 486.514 76.6065L494.999 68.1213L503.484 76.6065C504.07 77.1923 505.02 77.1923 505.605 76.6065C506.191 76.0208 506.191 75.071 505.605 74.4852L496.059 64.9393ZM496.499 866L496.499 65.9999H493.499L493.499 866H496.499Z" fill="black"/>
<path d="M433 21.869C433 21.869 433 21.5951 433 21.0473C433 20.4996 433.295 20.0782 433.885 19.7832H452.783V10.3024L452.847 0.82161C453.268 0.27383 453.668 -6.0074e-05 454.047 -6.0074e-05C454.595 -6.0074e-05 455.017 0.315967 455.312 0.948021V19.7832H474.147C474.779 20.1203 475.095 20.5417 475.095 21.0473C475.095 21.553 474.779 21.9744 474.147 22.3115H455.312V41.1467C454.974 41.7366 454.595 42.0315 454.174 42.0315H454.047H453.921C453.415 42.0315 453.036 41.7366 452.783 41.1467V22.3115H433.885C433.295 22.0165 433 21.5951 433 21.0473V21.869Z" fill="black"/>
<path d="M479.962 18.7087C479.962 18.1188 480.278 17.1075 480.91 15.6749C481.542 14.2422 482.553 12.7464 483.944 11.1873C485.334 9.62824 486.893 8.86977 488.621 8.91191C490.348 8.91191 491.739 9.39648 492.792 10.3656C493.846 11.3348 494.394 12.6832 494.436 14.4108C494.351 15.2114 494.288 15.6538 494.246 15.7381C494.246 15.8645 493.909 16.8337 493.235 18.6455C492.561 20.4574 491.865 22.5011 491.149 24.7765C490.433 27.0519 490.096 28.8638 490.138 30.2121C490.138 32.024 490.433 33.2881 491.023 34.0045C491.613 34.7208 492.497 35.1 493.677 35.1422C494.646 35.1422 495.552 34.9104 496.395 34.4469C497.238 33.9834 497.891 33.4988 498.354 32.9932C498.818 32.4875 499.387 31.7923 500.061 30.9074C500.061 30.8653 500.166 30.4439 500.377 29.6433C500.588 28.8427 500.883 27.5996 501.262 25.9142C501.641 24.2287 502.041 22.6696 502.463 21.237C504.064 14.9164 504.949 11.6087 505.117 11.3137C505.665 10.176 506.571 9.60717 507.835 9.60717C508.383 9.60717 508.825 9.75465 509.163 10.0496C509.5 10.3446 509.731 10.5974 509.858 10.8081C509.984 11.0188 510.026 11.2084 509.984 11.3769C509.984 11.9247 508.952 16.3491 506.887 24.6501C504.822 32.951 503.643 37.5018 503.348 38.3024C502.168 41.7998 500.124 44.5808 497.217 46.6455C494.309 48.7103 491.402 49.7637 488.494 49.8058C486.598 49.8058 484.934 49.3423 483.501 48.4153C482.068 47.4883 481.352 46.0978 481.352 44.2437C481.352 43.3167 481.5 42.5372 481.795 41.9051C482.09 41.2731 482.49 40.8096 482.996 40.5146C483.501 40.2197 483.923 40.009 484.26 39.8826C484.597 39.7562 484.955 39.6929 485.334 39.6929C487.188 39.6929 488.115 40.5778 488.115 42.3476C488.115 43.1903 487.862 43.9277 487.357 44.5598C486.851 45.1918 486.366 45.6132 485.903 45.8239C485.439 46.0346 485.166 46.1399 485.081 46.1399L484.892 46.2031C484.976 46.4138 485.376 46.6666 486.093 46.9616C486.809 47.2565 487.525 47.404 488.242 47.404H488.747C489.464 47.404 490.011 47.3619 490.391 47.2776C491.781 46.8984 493.066 46.0978 494.246 44.8758C495.426 43.6538 496.332 42.3476 496.964 40.9571C497.596 39.5665 498.081 38.3867 498.418 37.4176C498.755 36.4484 498.923 35.8164 498.923 35.5214L498.544 35.7742C498.291 35.9428 497.891 36.1745 497.343 36.4695C496.795 36.7644 496.248 37.0173 495.7 37.2279C494.857 37.4386 494.035 37.544 493.235 37.544C491.296 37.544 489.59 37.0805 488.115 36.1534C486.64 35.2264 485.671 33.7306 485.208 31.6659C485.166 31.3709 485.144 30.7178 485.144 29.7065C485.144 27.3047 485.882 24.1655 487.357 20.2889C488.831 16.4123 489.569 13.9473 489.569 12.8939C489.569 12.8517 489.569 12.8096 489.569 12.7674C489.569 12.3882 489.569 12.1354 489.569 12.009C489.569 11.8826 489.485 11.7351 489.316 11.5665C489.147 11.398 488.916 11.3137 488.621 11.3137H488.368C487.399 11.3137 486.514 11.714 485.713 12.5146C484.913 13.3152 484.281 14.179 483.817 15.106C483.354 16.0331 482.996 16.9179 482.743 17.7607C482.49 18.6034 482.321 19.0669 482.237 19.1512C482.153 19.2355 481.816 19.2776 481.226 19.2776H480.341C480.088 19.0248 479.962 18.8352 479.962 18.7087Z" fill="black"/>
<path d="M431 895.78C431 895.78 431 895.489 431 894.907C431 894.324 431.314 893.876 431.941 893.562H470.992C471.664 893.921 472 894.369 472 894.907C472 895.444 471.664 895.892 470.992 896.251H431.941C431.314 895.937 431 895.489 431 894.907V895.78Z" fill="black"/>
<path d="M479.057 892.42C479.057 891.792 479.393 890.717 480.065 889.193C480.737 887.67 481.813 886.079 483.292 884.421C484.77 882.763 486.428 881.957 488.265 882.002C490.102 882.002 491.581 882.517 492.701 883.548C493.822 884.578 494.404 886.012 494.449 887.849C494.359 888.701 494.292 889.171 494.247 889.261C494.247 889.395 493.889 890.426 493.172 892.352C492.455 894.279 491.716 896.452 490.954 898.872C490.192 901.292 489.834 903.219 489.878 904.652C489.878 906.579 490.192 907.923 490.819 908.685C491.447 909.447 492.388 909.85 493.642 909.895C494.673 909.895 495.636 909.649 496.532 909.156C497.429 908.663 498.123 908.147 498.616 907.61C499.109 907.072 499.714 906.333 500.431 905.392C500.431 905.347 500.543 904.899 500.767 904.047C500.991 903.196 501.305 901.874 501.708 900.082C502.111 898.29 502.537 896.632 502.985 895.108C504.688 888.387 505.629 884.869 505.808 884.556C506.39 883.346 507.354 882.741 508.698 882.741C509.28 882.741 509.751 882.898 510.109 883.212C510.468 883.525 510.714 883.794 510.849 884.018C510.983 884.242 511.028 884.444 510.983 884.623C510.983 885.205 509.885 889.91 507.69 898.738C505.494 907.565 504.24 912.404 503.926 913.256C502.671 916.975 500.498 919.932 497.406 922.128C494.314 924.323 491.223 925.444 488.131 925.488C486.114 925.488 484.345 924.995 482.821 924.01C481.298 923.024 480.536 921.545 480.536 919.574C480.536 918.588 480.693 917.759 481.006 917.087C481.32 916.415 481.746 915.922 482.283 915.608C482.821 915.294 483.269 915.07 483.628 914.936C483.986 914.802 484.367 914.734 484.77 914.734C486.742 914.734 487.728 915.675 487.728 917.557C487.728 918.453 487.459 919.238 486.921 919.91C486.383 920.582 485.868 921.03 485.375 921.254C484.882 921.478 484.591 921.59 484.501 921.59L484.3 921.657C484.389 921.881 484.815 922.15 485.577 922.464C486.339 922.777 487.1 922.934 487.862 922.934H488.4C489.161 922.934 489.744 922.889 490.147 922.8C491.626 922.397 492.993 921.545 494.247 920.246C495.502 918.946 496.465 917.557 497.137 916.079C497.809 914.6 498.325 913.345 498.683 912.315C499.042 911.284 499.221 910.612 499.221 910.298L498.818 910.567C498.549 910.746 498.123 910.993 497.541 911.306C496.958 911.62 496.376 911.889 495.793 912.113C494.897 912.337 494.023 912.449 493.172 912.449C491.111 912.449 489.296 911.956 487.728 910.97C486.159 909.985 485.129 908.394 484.636 906.198C484.591 905.885 484.569 905.19 484.569 904.115C484.569 901.561 485.353 898.222 486.921 894.1C488.489 889.978 489.273 887.356 489.273 886.236C489.273 886.191 489.273 886.146 489.273 886.102C489.273 885.698 489.273 885.43 489.273 885.295C489.273 885.161 489.184 885.004 489.005 884.825C488.825 884.645 488.579 884.556 488.265 884.556H487.996C486.966 884.556 486.025 884.981 485.173 885.833C484.322 886.684 483.65 887.603 483.157 888.589C482.664 889.574 482.283 890.515 482.014 891.411C481.746 892.308 481.566 892.801 481.477 892.89C481.387 892.98 481.029 893.025 480.401 893.025H479.46C479.192 892.756 479.057 892.554 479.057 892.42Z" fill="black"/>
</svg>
