<svg width="275" height="82" viewBox="0 0 275 82" fill="none" xmlns="http://www.w3.org/2000/svg">
<path d="M0 40.6073C0 39.6075 0.538356 38.8384 1.61507 38.3001H75.1007C76.2543 38.9154 76.8311 39.6844 76.8311 40.6073C76.8311 41.4533 76.2927 42.1839 75.216 42.7992L38.5309 42.9146H1.84579C0.615264 42.53 0 41.7609 0 40.6073ZM0 62.9876C0 61.8339 0.615264 61.0649 1.84579 60.6803H75.216C76.2927 61.4494 76.8311 62.2185 76.8311 62.9876C76.8311 63.9874 76.2543 64.7564 75.1007 65.2948H1.61507C0.538356 64.7564 0 63.9874 0 62.9876Z" fill="black"/>
<path d="M117.762 47.5291C117.839 47.0677 117.954 46.4524 118.108 45.6833C118.261 44.9142 118.723 43.453 119.492 41.2995C120.261 39.1461 121.03 37.3388 121.799 35.8775C122.568 34.4163 123.799 32.9935 125.491 31.6091C127.183 30.2248 128.875 29.5711 130.567 29.648C132.259 29.7249 133.912 29.9941 135.527 30.4555C137.142 30.917 138.296 31.6091 138.988 32.532C139.68 33.4549 140.296 34.3009 140.834 35.07C141.372 35.8391 141.68 36.5697 141.757 37.2619L141.988 38.0694C141.988 38.2232 142.026 38.3001 142.103 38.3001L143.372 37.0312C147.986 32.109 153.408 29.648 159.638 29.648C160.945 29.648 162.138 29.7249 163.214 29.8787C164.291 30.0325 165.291 30.3017 166.214 30.6862C167.137 31.0708 167.867 31.4553 168.406 31.8399C168.944 32.2244 169.521 32.6859 170.136 33.2242C170.751 33.7626 171.136 34.2625 171.29 34.7239C171.443 35.1854 171.751 35.6853 172.212 36.2236C172.674 36.762 172.828 37.2234 172.674 37.608C172.52 37.9925 172.635 38.3386 173.02 38.6462C173.405 38.9539 173.481 39.223 173.251 39.4538L174.174 38.3001C179.019 32.532 184.748 29.648 191.363 29.648C195.516 29.648 198.861 30.6862 201.399 32.7628C203.937 34.8393 205.244 37.8771 205.321 41.8764C205.321 45.7987 203.86 51.8744 200.938 60.1036C198.015 68.3327 196.554 73.2548 196.554 74.8699C196.631 75.9466 196.823 76.6772 197.131 77.0618C197.438 77.4463 198.015 77.6386 198.861 77.6386C201.015 77.6386 203.014 76.485 204.86 74.1777C206.706 71.8705 208.205 68.7173 209.359 64.718C209.59 63.8721 209.82 63.3722 210.051 63.2183C210.282 63.0645 210.897 62.9876 211.897 62.9876C213.435 62.9876 214.204 63.2952 214.204 63.9105C214.204 63.9874 214.05 64.5642 213.743 65.6409C213.128 67.8713 212.282 70.0631 211.205 72.2166C210.128 74.37 208.359 76.5234 205.898 78.6768C203.437 80.8303 200.784 81.8685 197.938 81.7916C194.324 81.7916 191.709 80.7534 190.094 78.6768C188.479 76.6003 187.671 74.4469 187.671 72.2166C187.671 70.7553 189.055 66.1408 191.824 58.3731C194.593 50.6054 196.015 44.7604 196.092 40.8381C196.092 36.3005 194.4 34.0317 191.016 34.0317H190.44C183.826 34.0317 178.25 37.9156 173.712 45.6833L172.905 47.0677L169.098 62.5262C166.56 72.6011 165.098 78.0231 164.714 78.7922C163.714 80.8687 162.061 81.907 159.753 81.907C158.754 81.907 157.946 81.6378 157.331 81.0994C156.716 80.5611 156.293 80.0996 156.062 79.7151C155.831 79.3306 155.716 78.946 155.716 78.5615C155.716 77.7155 157.023 72.2166 159.638 62.0647L163.791 45.2219C164.022 44.0682 164.137 42.607 164.137 40.8381C164.137 36.3005 162.445 34.0317 159.061 34.0317H158.484C151.87 34.0317 146.294 37.9156 141.757 45.6833L140.949 47.0677L137.142 62.5262C134.604 72.6011 133.143 78.0231 132.759 78.7922C131.759 80.8687 130.105 81.907 127.798 81.907C126.798 81.907 125.991 81.6763 125.375 81.2148C124.76 80.7534 124.337 80.2919 124.107 79.8305C123.876 79.369 123.799 78.9845 123.876 78.6768C123.876 77.677 125.337 71.3706 128.26 59.7575C131.259 47.9136 132.759 41.7225 132.759 41.1842C132.989 40.0306 133.105 38.9923 133.105 38.0694C133.105 35.3007 132.143 33.9164 130.221 33.9164C128.529 33.9164 127.106 34.9931 125.952 37.1465C124.799 39.2999 123.914 41.6456 123.299 44.1836C122.684 46.7216 122.222 48.1059 121.915 48.3366C121.761 48.4904 121.146 48.5674 120.069 48.5674H118.454C117.992 48.1059 117.762 47.7598 117.762 47.5291Z" fill="black"/>
<path d="M220.434 62.5262C220.434 54.7585 223.356 47.3753 229.201 40.3767C235.046 33.378 241.622 29.8403 248.928 29.7634C252.851 29.7634 256.311 31.6476 259.311 35.4161C260.541 33.1089 262.31 31.9552 264.617 31.9552C265.617 31.9552 266.502 32.2629 267.271 32.8781C268.04 33.4934 268.424 34.2625 268.424 35.1854C268.424 36.1852 267.002 42.3378 264.156 53.6433C261.31 64.9488 259.849 71.3321 259.772 72.7934C259.772 74.7161 260.041 75.9851 260.58 76.6003C261.118 77.2156 261.926 77.5617 263.002 77.6386C263.695 77.5617 264.464 77.2156 265.31 76.6003C266.925 75.0622 268.501 71.3706 270.039 65.5256C270.501 63.9874 270.885 63.1799 271.193 63.103C271.347 63.0261 271.731 62.9876 272.347 62.9876H272.808C274.269 62.9876 275 63.3337 275 64.0259C275 64.4873 274.808 65.5256 274.423 67.1406C274.039 68.7557 273.27 70.8322 272.116 73.3702C270.962 75.9082 269.732 77.8309 268.424 79.1383C267.425 80.1381 266.194 80.9456 264.733 81.5609C264.118 81.7147 263.195 81.7916 261.964 81.7916C259.349 81.7916 257.157 81.2148 255.388 80.0612C253.62 78.9076 252.466 77.7155 251.928 76.485L251.235 74.7545C251.159 74.6776 251.005 74.7161 250.774 74.8699C250.62 75.0237 250.466 75.1775 250.313 75.3314C245.775 79.6382 241.16 81.7916 236.469 81.7916C232.239 81.7916 228.509 80.2535 225.279 77.1771C222.049 74.1008 220.434 69.2172 220.434 62.5262ZM257.119 42.7993C257.119 42.3378 256.927 41.4918 256.542 40.2613C256.158 39.0308 255.273 37.6849 253.889 36.2236C252.504 34.7624 250.736 33.9933 248.582 33.9164C245.89 33.9164 243.314 35.1085 240.853 37.4926C238.392 39.8768 236.469 42.9915 235.085 46.8369C232.854 52.9127 231.278 59.2191 230.355 65.7563C230.355 65.987 230.355 66.41 230.355 67.0253C230.355 67.6406 230.316 68.102 230.24 68.4096C230.24 71.8705 230.932 74.2546 232.316 75.5621C233.7 76.8695 235.354 77.5617 237.277 77.6386C240.199 77.6386 243.083 76.3696 245.929 73.8316C248.774 71.2937 250.466 69.3325 251.005 67.9482C251.159 67.6406 252.197 63.526 254.119 55.6044C256.042 47.6829 257.042 43.4145 257.119 42.7993Z" fill="black"/>
<path d="M261.791 2.30723C261.791 1.69197 261.983 1.15361 262.368 0.692166C262.752 0.230718 263.329 -6.30319e-06 264.098 -6.30319e-06C264.637 -6.30319e-06 265.098 0.192264 265.483 0.576804C265.867 0.884436 266.252 1.61506 266.636 2.76868C267.405 5.61428 268.982 7.80616 271.366 9.34432C272.212 9.88267 272.635 10.5748 272.635 11.4208C272.635 12.113 272.52 12.5745 272.289 12.8052C272.058 13.0359 271.52 13.382 270.674 13.8434C267.367 15.5354 264.483 17.958 262.022 21.1112C261.868 21.2651 261.676 21.4958 261.445 21.8034C261.214 22.111 261.022 22.3418 260.868 22.4956C260.714 22.6494 260.522 22.7263 260.291 22.7263C260.061 22.7263 259.791 22.7648 259.484 22.8417C258.945 22.8417 258.446 22.6494 257.984 22.2649C257.523 21.8803 257.253 21.3035 257.177 20.5344C257.177 19.0732 258.984 16.8044 262.599 13.7281H242.872L223.145 13.6127C222.145 12.9205 221.645 12.1899 221.645 11.4208C221.645 10.8825 222.145 10.1134 223.145 9.11359H264.56C262.714 6.19109 261.791 3.9223 261.791 2.30723Z" fill="black"/>
</svg>
