<svg width="200" height="69" viewBox="0 0 200 69" fill="none" xmlns="http://www.w3.org/2000/svg">
<path d="M0 17.6693C0.0759711 17.2135 0.189928 16.6057 0.34187 15.846C0.493812 15.0863 0.949638 13.6428 1.70935 11.5156C2.46906 9.38844 3.22877 7.60312 3.98848 6.15967C4.74819 4.71622 5.96373 3.31076 7.63509 1.94328C9.30646 0.5758 10.9778 -0.0699541 12.6492 0.00601694C14.3205 0.081988 15.9539 0.347887 17.5493 0.803713C19.1447 1.25954 20.2843 1.94328 20.968 2.85493C21.6518 3.76658 22.2595 4.60227 22.7913 5.36198C23.3231 6.12169 23.627 6.84341 23.703 7.52715L23.9309 8.32485C23.9309 8.47679 23.9689 8.55276 24.0448 8.55276L25.2984 7.29924C29.8566 2.43709 35.2126 0.00601694 41.3662 0.00601694C42.6578 0.00601694 43.8353 0.081988 44.8989 0.23393C45.9625 0.385872 46.9501 0.651771 47.8618 1.03163C48.7734 1.41148 49.4952 1.79134 50.0269 2.17119C50.5587 2.55105 51.1285 3.00687 51.7363 3.53867C52.3441 4.07047 52.7239 4.56428 52.8759 5.02011C53.0278 5.47593 53.3317 5.96975 53.7875 6.50154C54.2433 7.03334 54.3953 7.48917 54.2433 7.86902C54.0914 8.24888 54.2054 8.59075 54.5852 8.89463C54.9651 9.19852 55.041 9.46441 54.8131 9.69233L55.7248 8.55276C60.511 2.85493 66.1708 0.00601694 72.7043 0.00601694C76.8067 0.00601694 80.1115 1.03163 82.6185 3.08285C85.1256 5.13406 86.4171 8.13492 86.4931 12.0854C86.4931 15.9599 85.0496 21.9617 82.1627 30.0906C79.2758 38.2195 77.8324 43.0816 77.8324 44.677C77.9083 45.7406 78.0983 46.4623 78.4021 46.8422C78.706 47.222 79.2758 47.412 80.1115 47.412C82.2387 47.412 84.2139 46.2724 86.0372 43.9933C87.8605 41.7141 89.342 38.5993 90.4815 34.6488C90.7095 33.8131 90.9374 33.3193 91.1653 33.1674C91.3932 33.0154 92.001 32.9395 92.9886 32.9395C94.508 32.9395 95.2677 33.2434 95.2677 33.8511C95.2677 33.9271 95.1158 34.4969 94.8119 35.5605C94.2041 37.7636 93.3684 39.9288 92.3048 42.056C91.2413 44.1832 89.4939 46.3104 87.0628 48.4376C84.6318 50.5648 82.0108 51.5904 79.1998 51.5144C75.6292 51.5144 73.0462 50.4888 71.4508 48.4376C69.8554 46.3864 69.0577 44.2592 69.0577 42.056C69.0577 40.6126 70.4252 36.0543 73.1601 28.3812C75.8951 20.7081 77.3006 14.9343 77.3765 11.0598C77.3765 6.57751 75.7052 4.33637 72.3624 4.33637H71.7927C65.2591 4.33637 59.7512 8.17291 55.269 15.846L54.4713 17.2135L50.7107 32.4836C48.2036 42.4359 46.7602 47.7918 46.3803 48.5515C45.3927 50.6027 43.7593 51.6284 41.4802 51.6284C40.4926 51.6284 39.6949 51.3625 39.0871 50.8307C38.4793 50.2989 38.0615 49.843 37.8336 49.4632C37.6057 49.0833 37.4917 48.7035 37.4917 48.3236C37.4917 47.4879 38.7832 42.056 41.3662 32.0278L45.4687 15.3902C45.6966 14.2506 45.8106 12.8071 45.8106 11.0598C45.8106 6.57751 44.1392 4.33637 40.7965 4.33637H40.2267C33.6932 4.33637 28.1853 8.17291 23.703 15.846L22.9053 17.2135L19.1447 32.4836C16.6377 42.4359 15.1942 47.7918 14.8144 48.5515C13.8267 50.6027 12.1934 51.6284 9.91422 51.6284C8.9266 51.6284 8.1289 51.4004 7.52114 50.9446C6.91337 50.4888 6.49553 50.033 6.26761 49.5771C6.0397 49.1213 5.96373 48.7415 6.0397 48.4376C6.0397 47.4499 7.48315 41.2203 10.3701 29.7487C13.3329 18.0491 14.8144 11.9335 14.8144 11.4017C15.0423 10.2621 15.1562 9.2365 15.1562 8.32485C15.1562 5.58989 14.2066 4.22241 12.3073 4.22241C10.6359 4.22241 9.23048 5.28601 8.09092 7.4132C6.95135 9.54039 6.07769 11.8575 5.46992 14.3645C4.86215 16.8716 4.40632 18.2391 4.10244 18.467C3.9505 18.6189 3.34273 18.6949 2.27913 18.6949H0.68374C0.227913 18.2391 0 17.8972 0 17.6693Z" fill="black"/>
<path d="M101.421 32.4837C101.421 24.8106 104.308 17.5174 110.082 10.604C115.856 3.69062 122.351 0.195952 129.569 0.119981C133.443 0.119981 136.862 1.98127 139.825 5.70385C141.04 3.42472 142.788 2.28516 145.067 2.28516C146.054 2.28516 146.928 2.58904 147.688 3.19681C148.447 3.80458 148.827 4.56429 148.827 5.47594C148.827 6.46356 147.422 12.5412 144.611 23.709C141.8 34.8767 140.357 41.1823 140.281 42.6258C140.281 44.5251 140.546 45.7786 141.078 46.3864C141.61 46.9941 142.408 47.336 143.471 47.412C144.155 47.336 144.915 46.9941 145.75 46.3864C147.346 44.8669 148.903 41.2203 150.423 35.4465C150.879 33.9271 151.258 33.1294 151.562 33.0534C151.714 32.9775 152.094 32.9395 152.702 32.9395H153.158C154.601 32.9395 155.323 33.2813 155.323 33.9651C155.323 34.4209 155.133 35.4465 154.753 37.0419C154.373 38.6373 153.614 40.6885 152.474 43.1956C151.334 45.7026 150.119 47.6019 148.827 48.8934C147.84 49.881 146.624 50.6787 145.181 51.2865C144.573 51.4384 143.661 51.5144 142.446 51.5144C139.863 51.5144 137.698 50.9446 135.95 49.8051C134.203 48.6655 133.063 47.4879 132.532 46.2724L131.848 44.5631C131.772 44.4871 131.62 44.5251 131.392 44.677C131.24 44.829 131.088 44.9809 130.936 45.1328C126.454 49.3872 121.896 51.5144 117.261 51.5144C113.083 51.5144 109.398 49.995 106.208 46.9561C103.017 43.9173 101.421 39.0931 101.421 32.4837ZM137.66 12.9971C137.66 12.5412 137.47 11.7056 137.09 10.49C136.71 9.27449 135.836 7.945 134.469 6.50155C133.101 5.0581 131.354 4.29839 129.227 4.22242C126.568 4.22242 124.023 5.39997 121.592 7.75507C119.161 10.1102 117.261 13.187 115.894 16.9856C113.691 22.9873 112.133 29.2169 111.222 35.6744C111.222 35.9024 111.222 36.3202 111.222 36.928C111.222 37.5357 111.184 37.9916 111.108 38.2954C111.108 41.7141 111.791 44.0692 113.159 45.3607C114.526 46.6523 116.16 47.336 118.059 47.412C120.946 47.412 123.795 46.1584 126.606 43.6514C129.417 41.1444 131.088 39.2071 131.62 37.8396C131.772 37.5357 132.797 33.4713 134.697 25.6463C136.596 17.8212 137.584 13.6048 137.66 12.9971Z" fill="black"/>
<path d="M162.133 44.1844C162.509 41.9285 163.96 39.3235 166.484 36.3693C169.008 33.4152 172.124 31.9113 175.83 31.8576C177.71 31.8576 179.428 32.341 180.986 33.3078C182.544 34.2746 183.699 35.4831 184.451 36.9333C186.706 33.5495 189.419 31.8576 192.588 31.8576C194.575 31.8576 196.294 32.4484 197.744 33.63C199.194 34.8117 199.946 36.3962 200 38.3835C200 39.9411 199.624 41.2034 198.872 42.1702C198.12 43.137 197.395 43.7278 196.697 43.9427C195.998 44.1575 195.381 44.2649 194.844 44.2649C193.823 44.2649 192.991 43.9695 192.346 43.3787C191.702 42.7879 191.379 42.009 191.379 41.0422C191.379 38.5715 192.722 36.8796 195.408 35.9665C194.817 35.2682 193.743 34.9191 192.185 34.9191C191.487 34.9191 190.976 34.9728 190.654 35.0803C188.613 35.9396 187.109 37.7121 186.142 40.3977C182.92 52.2679 181.308 59.1967 181.308 61.1841C181.308 62.688 181.738 63.7622 182.597 64.4068C183.457 65.0513 184.397 65.3736 185.417 65.3736C187.405 65.3736 189.365 64.4873 191.299 62.7148C193.232 60.9424 194.548 58.767 195.247 56.1889C195.408 55.6518 195.569 55.3564 195.73 55.3026C195.891 55.2489 196.321 55.1952 197.019 55.1415H197.341C198.147 55.1415 198.55 55.3564 198.55 55.7861C198.55 55.8398 198.496 56.1352 198.389 56.6723C197.529 59.7339 195.864 62.4463 193.393 64.8096C190.923 67.1729 188.049 68.3546 184.773 68.3546C181.013 68.3546 178.166 66.6626 176.233 63.2788C174.03 66.6089 171.506 68.274 168.659 68.274H168.176C165.544 68.274 163.664 67.5757 162.536 66.1792C161.408 64.7827 160.817 63.3057 160.764 61.748C160.764 60.0293 161.274 58.6328 162.294 57.5585C163.315 56.4843 164.524 55.9472 165.92 55.9472C168.23 55.9472 169.384 57.0751 169.384 59.331C169.384 60.4052 169.062 61.3452 168.418 62.1509C167.773 62.9565 167.155 63.4937 166.565 63.7622C165.974 64.0308 165.625 64.1651 165.517 64.1651L165.275 64.2456C165.275 64.2993 165.437 64.4068 165.759 64.5679C166.081 64.729 166.511 64.917 167.048 65.1319C167.585 65.3467 168.095 65.4273 168.579 65.3736C170.512 65.3736 172.177 64.1651 173.574 61.748C174.057 60.8886 174.675 59.0625 175.427 56.2695C176.179 53.4765 176.931 50.576 177.683 47.5682C178.435 44.5603 178.865 42.7879 178.972 42.2507C179.24 40.8005 179.375 39.7532 179.375 39.1086C179.375 37.6047 178.972 36.5305 178.166 35.8859C177.361 35.2414 176.447 34.9191 175.427 34.9191C173.279 34.9191 171.264 35.7785 169.384 37.4973C167.505 39.216 166.189 41.4182 165.437 44.1038C165.329 44.5872 165.195 44.8558 165.034 44.9095C164.873 44.9632 164.443 45.0169 163.745 45.0706H162.617C162.294 44.7483 162.133 44.4529 162.133 44.1844Z" fill="black"/>
</svg>
