<svg width="200" height="85" viewBox="0 0 200 85" fill="none" xmlns="http://www.w3.org/2000/svg">
<path d="M0 17.8545C0.0767674 17.3939 0.191918 16.7797 0.345453 16.0121C0.498988 15.2444 0.959592 13.7858 1.72727 11.6363C2.49494 9.48684 3.26261 7.68281 4.03029 6.22423C4.79796 4.76565 6.02624 3.34545 7.71512 1.96364C9.404 0.581827 11.0929 -0.0706956 12.7818 0.00607178C14.4707 0.0828392 16.1211 0.351525 17.7333 0.812129C19.3454 1.27273 20.4969 1.96364 21.1878 2.88485C21.8787 3.80606 22.4928 4.6505 23.0302 5.41817C23.5676 6.18585 23.8747 6.91514 23.9514 7.60604L24.1817 8.4121C24.1817 8.56564 24.2201 8.6424 24.2969 8.6424L25.5635 7.37574C30.1696 2.46263 35.5817 0.00607178 41.7998 0.00607178C43.1049 0.00607178 44.2948 0.0828392 45.3695 0.236374C46.4443 0.389909 47.4422 0.658595 48.3634 1.04243C49.2847 1.42627 50.0139 1.81011 50.5513 2.19394C51.0887 2.57778 51.6644 3.03838 52.2786 3.57576C52.8927 4.11313 53.2766 4.61211 53.4301 5.07272C53.5836 5.53332 53.8907 6.03231 54.3513 6.56968C54.8119 7.10705 54.9654 7.56766 54.8119 7.9515C54.6584 8.33533 54.7735 8.68079 55.1574 8.98786C55.5412 9.29493 55.618 9.56361 55.3877 9.79391L56.3089 8.6424C61.1452 2.88485 66.8644 0.00607178 73.4664 0.00607178C77.6118 0.00607178 80.9512 1.04243 83.4845 3.11515C86.0178 5.18787 87.3229 8.22018 87.3997 12.2121C87.3997 16.1272 85.9411 22.1918 83.0239 30.406C80.1068 38.6201 78.6482 43.5332 78.6482 45.1453C78.7249 46.22 78.9169 46.9493 79.2239 47.3332C79.531 47.717 80.1068 47.9089 80.9512 47.9089C83.1007 47.9089 85.0966 46.7574 86.9391 44.4544C88.7815 42.1514 90.2784 39.0039 91.4299 35.012C91.6603 34.1676 91.8906 33.6686 92.1209 33.515C92.3512 33.3615 92.9653 33.2847 93.9633 33.2847C95.4986 33.2847 96.2663 33.5918 96.2663 34.2059C96.2663 34.2827 96.1128 34.8585 95.8057 35.9332C95.1916 38.1595 94.3471 40.3473 93.2724 42.4968C92.1976 44.6463 90.432 46.7958 87.9754 48.9453C85.5189 51.0948 82.8704 52.1311 80.03 52.0544C76.4219 52.0544 73.8118 51.018 72.1997 48.9453C70.5876 46.8726 69.7815 44.7231 69.7815 42.4968C69.7815 41.0382 71.1634 36.4322 73.927 28.6787C76.6906 20.9252 78.1108 15.0909 78.1876 11.1757C78.1876 6.64645 76.4987 4.38181 73.1209 4.38181H72.5452C65.9432 4.38181 60.3775 8.25857 55.8483 16.0121L55.0422 17.3939L51.2422 32.8241C48.7089 42.8807 47.2503 48.2928 46.8665 49.0604C45.8685 51.1332 44.218 52.1695 41.915 52.1695C40.917 52.1695 40.111 51.9008 39.4968 51.3635C38.8827 50.8261 38.4605 50.3655 38.2302 49.9816C37.9999 49.5978 37.8847 49.214 37.8847 48.8301C37.8847 47.9857 39.1897 42.4968 41.7998 32.3635L45.9453 15.5515C46.1756 14.4 46.2907 12.9414 46.2907 11.1757C46.2907 6.64645 44.6018 4.38181 41.2241 4.38181H40.6483C34.0463 4.38181 28.4807 8.25857 23.9514 16.0121L23.1454 17.3939L19.3454 32.8241C16.8121 42.8807 15.3535 48.2928 14.9696 49.0604C13.9717 51.1332 12.3212 52.1695 10.0181 52.1695C9.02017 52.1695 8.21411 51.9392 7.59997 51.4786C6.98583 51.018 6.56361 50.5574 6.33331 50.0968C6.10301 49.6362 6.02624 49.2523 6.10301 48.9453C6.10301 47.9473 7.56159 41.6524 10.4787 30.0605C13.4727 18.2383 14.9696 12.0586 14.9696 11.5212C15.1999 10.3697 15.3151 9.33331 15.3151 8.4121C15.3151 5.64847 14.3555 4.26666 12.4363 4.26666C10.7474 4.26666 9.32724 5.34141 8.17573 7.49089C7.02422 9.64038 6.14139 11.9818 5.52725 14.5151C4.91311 17.0484 4.45251 18.4302 4.14544 18.6605C3.9919 18.8141 3.37776 18.8908 2.30302 18.8908H0.690906C0.230302 18.4302 0 18.0848 0 17.8545Z" fill="black"/>
<path d="M102.484 32.8241C102.484 25.0706 105.402 17.7009 111.236 10.7151C117.07 3.72929 123.634 0.197987 130.927 0.121219C134.842 0.121219 138.296 2.00202 141.29 5.76362C142.519 3.4606 144.284 2.30909 146.587 2.30909C147.585 2.30909 148.468 2.61616 149.236 3.2303C150.003 3.84444 150.387 4.61211 150.387 5.53332C150.387 6.5313 148.967 12.6727 146.127 23.9575C143.286 35.2423 141.828 41.614 141.751 43.0726C141.751 44.9918 142.02 46.2584 142.557 46.8726C143.094 47.4867 143.9 47.8321 144.975 47.9089C145.666 47.8321 146.434 47.4867 147.278 46.8726C148.89 45.3372 150.464 41.6524 151.999 35.8181C152.46 34.2827 152.844 33.4766 153.151 33.3999C153.304 33.3231 153.688 33.2847 154.302 33.2847H154.763C156.222 33.2847 156.951 33.6302 156.951 34.3211C156.951 34.7817 156.759 35.8181 156.375 37.4302C155.991 39.0423 155.224 41.115 154.072 43.6483C152.921 46.1816 151.692 48.1008 150.387 49.4059C149.389 50.4039 148.161 51.2099 146.702 51.824C146.088 51.9776 145.167 52.0544 143.939 52.0544C141.329 52.0544 139.141 51.4786 137.375 50.3271C135.61 49.1756 134.458 47.9857 133.921 46.7574L133.23 45.0301C133.153 44.9534 132.999 44.9918 132.769 45.1453C132.616 45.2988 132.462 45.4524 132.309 45.6059C127.779 49.9049 123.173 52.0544 118.49 52.0544C114.268 52.0544 110.545 50.519 107.321 47.4483C104.097 44.3776 102.484 39.5029 102.484 32.8241ZM139.102 13.1333C139.102 12.6727 138.911 11.8282 138.527 10.6C138.143 9.37169 137.26 8.02826 135.878 6.56968C134.496 5.1111 132.731 4.34343 130.581 4.26666C127.894 4.26666 125.323 5.45655 122.866 7.83634C120.41 10.2161 118.49 13.3252 117.109 17.1636C114.882 23.2282 113.309 29.5231 112.387 36.0484C112.387 36.2787 112.387 36.7009 112.387 37.315C112.387 37.9292 112.349 38.3898 112.272 38.6968C112.272 42.1514 112.963 44.5311 114.345 45.8362C115.727 47.1412 117.377 47.8321 119.297 47.9089C122.214 47.9089 125.092 46.6423 127.933 44.1089C130.773 41.5756 132.462 39.618 132.999 38.2362C133.153 37.9292 134.189 33.8221 136.109 25.9151C138.028 18.008 139.026 13.7474 139.102 13.1333Z" fill="black"/>
<path d="M161.309 44.8103C161.309 44.0505 161.716 42.7479 162.53 40.9026C163.344 39.0572 164.647 37.1305 166.438 35.1223C168.229 33.1142 170.237 32.1372 172.462 32.1915C174.688 32.1915 176.479 32.8156 177.836 34.064C179.192 35.3123 179.898 37.0491 179.952 39.2743C179.844 40.3055 179.762 40.8754 179.708 40.984C179.708 41.1468 179.274 42.3951 178.406 44.7289C177.537 47.0627 176.642 49.695 175.719 52.6259C174.796 55.5567 174.362 57.8905 174.416 59.6273C174.416 61.9611 174.796 63.5893 175.556 64.512C176.316 65.4346 177.456 65.9231 178.975 65.9774C180.224 65.9774 181.391 65.6789 182.476 65.0819C183.562 64.4848 184.403 63.8607 185 63.2094C185.597 62.5581 186.33 61.6626 187.198 60.5228C187.198 60.4685 187.334 59.9258 187.605 58.8946C187.876 57.8633 188.256 56.2622 188.745 54.0913C189.233 51.9203 189.749 49.9121 190.292 48.0668C192.354 39.9256 193.494 35.6651 193.711 35.2851C194.417 33.8197 195.583 33.087 197.212 33.087C197.917 33.087 198.487 33.277 198.921 33.6569C199.355 34.0368 199.654 34.3625 199.817 34.6338C199.98 34.9052 200.034 35.1495 199.98 35.3665C199.98 36.0721 198.65 41.7709 195.99 52.463C193.331 63.1551 191.811 69.0168 191.431 70.048C189.912 74.5528 187.279 78.1349 183.534 80.7943C179.79 83.4538 176.045 84.8107 172.3 84.8649C169.857 84.8649 167.713 84.2679 165.868 83.0739C164.023 81.8798 163.1 80.0888 163.1 77.7007C163.1 76.5067 163.29 75.5026 163.67 74.6885C164.05 73.8743 164.566 73.2773 165.217 72.8974C165.868 72.5175 166.411 72.2461 166.845 72.0833C167.279 71.9205 167.741 71.839 168.229 71.839C170.617 71.839 171.811 72.9788 171.811 75.2583C171.811 76.3438 171.486 77.2936 170.834 78.1077C170.183 78.9219 169.559 79.4646 168.962 79.736C168.365 80.0074 168.012 80.143 167.903 80.143L167.659 80.2245C167.768 80.4958 168.283 80.8215 169.206 81.2014C170.129 81.5813 171.051 81.7713 171.974 81.7713H172.625C173.548 81.7713 174.254 81.717 174.742 81.6085C176.533 81.12 178.188 80.0888 179.708 78.5148C181.228 76.9408 182.395 75.2583 183.209 73.4673C184.023 71.6762 184.647 70.1565 185.081 68.9082C185.515 67.6599 185.733 66.8458 185.733 66.4659L185.244 66.7915C184.918 67.0086 184.403 67.3071 183.697 67.687C182.992 68.067 182.286 68.3926 181.581 68.664C180.495 68.9354 179.437 69.071 178.406 69.071C175.909 69.071 173.711 68.474 171.811 67.28C169.912 66.0859 168.663 64.1592 168.066 61.4997C168.012 61.1198 167.985 60.2786 167.985 58.976C167.985 55.8823 168.935 51.8389 170.834 46.8456C172.734 41.8524 173.684 38.6773 173.684 37.3204C173.684 37.2662 173.684 37.2119 173.684 37.1576C173.684 36.6691 173.684 36.3435 173.684 36.1807C173.684 36.0178 173.575 35.8279 173.358 35.6108C173.141 35.3937 172.842 35.2851 172.462 35.2851H172.137C170.888 35.2851 169.749 35.8007 168.718 36.832C167.686 37.8632 166.872 38.9758 166.275 40.1698C165.678 41.3639 165.217 42.5037 164.891 43.5891C164.566 44.6746 164.348 45.2717 164.24 45.3802C164.131 45.4888 163.697 45.543 162.937 45.543H161.798C161.472 45.2174 161.309 44.9731 161.309 44.8103Z" fill="black"/>
</svg>
