<svg width="200" height="69" viewBox="0 0 200 69" fill="none" xmlns="http://www.w3.org/2000/svg">
<path d="M0 18.3147C0.0759711 17.8589 0.189928 17.2511 0.34187 16.4914C0.493812 15.7317 0.949638 14.2883 1.70935 12.1611C2.46906 10.0339 3.22877 8.24857 3.98848 6.80512C4.74819 5.36167 5.96373 3.95621 7.63509 2.58873C9.30646 1.22125 10.9778 0.575493 12.6492 0.651464C14.3205 0.727435 15.9539 0.993334 17.5493 1.44916C19.1447 1.90499 20.2843 2.58873 20.968 3.50038C21.6518 4.41203 22.2595 5.24771 22.7913 6.00742C23.3231 6.76713 23.627 7.48886 23.703 8.1726L23.9309 8.9703C23.9309 9.12224 23.9689 9.19821 24.0448 9.19821L25.2984 7.94469C29.8566 3.08254 35.2126 0.651464 41.3662 0.651464C42.6578 0.651464 43.8353 0.727435 44.8989 0.879377C45.9625 1.03132 46.9501 1.29722 47.8618 1.67707C48.7734 2.05693 49.4952 2.43678 50.0269 2.81664C50.5587 3.19649 51.1285 3.65232 51.7363 4.18412C52.3441 4.71592 52.7239 5.20973 52.8759 5.66555C53.0278 6.12138 53.3317 6.61519 53.7875 7.14699C54.2433 7.67879 54.3953 8.13461 54.2433 8.51447C54.0914 8.89432 54.2054 9.23619 54.5852 9.54008C54.9651 9.84396 55.041 10.1099 54.8131 10.3378L55.7248 9.19821C60.511 3.50038 66.1708 0.651464 72.7043 0.651464C76.8067 0.651464 80.1115 1.67707 82.6185 3.72829C85.1256 5.77951 86.4171 8.78037 86.4931 12.7309C86.4931 16.6054 85.0496 22.6071 82.1627 30.736C79.2758 38.8649 77.8324 43.7271 77.8324 45.3225C77.9083 46.386 78.0983 47.1078 78.4021 47.4876C78.706 47.8675 79.2758 48.0574 80.1115 48.0574C82.2387 48.0574 84.2139 46.9178 86.0372 44.6387C87.8605 42.3596 89.342 39.2448 90.4815 35.2943C90.7095 34.4586 90.9374 33.9648 91.1653 33.8128C91.3932 33.6609 92.001 33.5849 92.9886 33.5849C94.508 33.5849 95.2677 33.8888 95.2677 34.4966C95.2677 34.5725 95.1158 35.1423 94.8119 36.2059C94.2041 38.4091 93.3684 40.5743 92.3048 42.7014C91.2413 44.8286 89.4939 46.9558 87.0628 49.083C84.6318 51.2102 82.0108 52.2358 79.1998 52.1598C75.6292 52.1598 73.0462 51.1342 71.4508 49.083C69.8554 47.0318 69.0577 44.9046 69.0577 42.7014C69.0577 41.258 70.4252 36.6997 73.1601 29.0267C75.8951 21.3536 77.3006 15.5798 77.3765 11.7053C77.3765 7.22296 75.7052 4.98181 72.3624 4.98181H71.7927C65.2591 4.98181 59.7512 8.81835 55.269 16.4914L54.4713 17.8589L50.7107 33.1291C48.2036 43.0813 46.7602 48.4373 46.3803 49.197C45.3927 51.2482 43.7593 52.2738 41.4802 52.2738C40.4926 52.2738 39.6949 52.0079 39.0871 51.4761C38.4793 50.9443 38.0615 50.4885 37.8336 50.1086C37.6057 49.7288 37.4917 49.3489 37.4917 48.9691C37.4917 48.1334 38.7832 42.7014 41.3662 32.6733L45.4687 16.0356C45.6966 14.896 45.8106 13.4526 45.8106 11.7053C45.8106 7.22296 44.1392 4.98181 40.7965 4.98181H40.2267C33.6932 4.98181 28.1853 8.81835 23.703 16.4914L22.9053 17.8589L19.1447 33.1291C16.6377 43.0813 15.1942 48.4373 14.8144 49.197C13.8267 51.2482 12.1934 52.2738 9.91422 52.2738C8.9266 52.2738 8.1289 52.0459 7.52114 51.5901C6.91337 51.1342 6.49553 50.6784 6.26761 50.2226C6.0397 49.7668 5.96373 49.3869 6.0397 49.083C6.0397 48.0954 7.48315 41.8658 10.3701 30.3941C13.3329 18.6946 14.8144 12.5789 14.8144 12.0471C15.0423 10.9076 15.1562 9.88195 15.1562 8.9703C15.1562 6.23534 14.2066 4.86786 12.3073 4.86786C10.6359 4.86786 9.23048 5.93145 8.09092 8.05864C6.95135 10.1858 6.07769 12.503 5.46992 15.01C4.86215 17.517 4.40632 18.8845 4.10244 19.1124C3.9505 19.2644 3.34273 19.3403 2.27913 19.3403H0.68374C0.227913 18.8845 0 18.5426 0 18.3147Z" fill="black"/>
<path d="M101.421 33.1291C101.421 25.456 104.308 18.1628 110.082 11.2494C115.856 4.33607 122.351 0.841399 129.569 0.765428C133.443 0.765428 136.862 2.62672 139.825 6.3493C141.04 4.07017 142.788 2.9306 145.067 2.9306C146.054 2.9306 146.928 3.23449 147.688 3.84226C148.447 4.45002 148.827 5.20973 148.827 6.12139C148.827 7.10901 147.422 13.1867 144.611 24.3544C141.8 35.5222 140.357 41.8278 140.281 43.2712C140.281 45.1705 140.546 46.424 141.078 47.0318C141.61 47.6396 142.408 47.9814 143.471 48.0574C144.155 47.9814 144.915 47.6396 145.751 47.0318C147.346 45.5124 148.903 41.8658 150.423 36.092C150.879 34.5726 151.258 33.7749 151.562 33.6989C151.714 33.6229 152.094 33.5849 152.702 33.5849H153.158C154.601 33.5849 155.323 33.9268 155.323 34.6105C155.323 35.0664 155.133 36.092 154.753 37.6874C154.373 39.2828 153.614 41.334 152.474 43.841C151.334 46.3481 150.119 48.2473 148.827 49.5388C147.84 50.5265 146.624 51.3242 145.181 51.9319C144.573 52.0839 143.661 52.1599 142.446 52.1599C139.863 52.1599 137.698 51.5901 135.95 50.4505C134.203 49.3109 133.063 48.1334 132.532 46.9178L131.848 45.2085C131.772 45.1325 131.62 45.1705 131.392 45.3225C131.24 45.4744 131.088 45.6263 130.936 45.7783C126.454 50.0327 121.896 52.1599 117.261 52.1599C113.083 52.1599 109.398 50.6404 106.208 47.6016C103.017 44.5627 101.421 39.7386 101.421 33.1291ZM137.66 13.6425C137.66 13.1867 137.47 12.351 137.09 11.1355C136.71 9.91994 135.836 8.59045 134.469 7.147C133.101 5.70355 131.354 4.94384 129.227 4.86786C126.568 4.86786 124.023 6.04542 121.592 8.40052C119.161 10.7556 117.261 13.8325 115.894 17.631C113.691 23.6327 112.133 29.8623 111.222 36.3199C111.222 36.5478 111.222 36.9656 111.222 37.5734C111.222 38.1812 111.184 38.637 111.108 38.9409C111.108 42.3596 111.791 44.7147 113.159 46.0062C114.526 47.2977 116.16 47.9814 118.059 48.0574C120.946 48.0574 123.795 46.8039 126.606 44.2968C129.417 41.7898 131.088 39.8525 131.62 38.4851C131.772 38.1812 132.797 34.1167 134.697 26.2917C136.596 18.4667 137.584 14.2503 137.66 13.6425Z" fill="black"/>
<path d="M162.133 44.8298C162.509 42.5739 163.96 39.9689 166.484 37.0148C169.008 34.0606 172.124 32.5567 175.83 32.503C177.71 32.503 179.428 32.9864 180.986 33.9532C182.544 34.92 183.699 36.1285 184.451 37.5787C186.706 34.1949 189.419 32.503 192.588 32.503C194.575 32.503 196.294 33.0938 197.744 34.2755C199.194 35.4571 199.946 37.0416 200 39.029C200 40.5866 199.624 41.8488 198.872 42.8156C198.12 43.7824 197.395 44.3733 196.697 44.5881C195.998 44.8029 195.381 44.9104 194.844 44.9104C193.823 44.9104 192.991 44.615 192.346 44.0241C191.702 43.4333 191.379 42.6545 191.379 41.6877C191.379 39.2169 192.722 37.525 195.408 36.6119C194.817 35.9137 193.743 35.5646 192.185 35.5646C191.487 35.5646 190.976 35.6183 190.654 35.7257C188.613 36.5851 187.109 38.3576 186.142 41.0431C182.92 52.9134 181.308 59.8422 181.308 61.8295C181.308 63.3334 181.738 64.4077 182.597 65.0522C183.457 65.6967 184.397 66.019 185.417 66.019C187.405 66.019 189.365 65.1328 191.299 63.3603C193.232 61.5878 194.548 59.4125 195.247 56.8343C195.408 56.2972 195.569 56.0018 195.73 55.9481C195.891 55.8944 196.321 55.8407 197.019 55.787H197.341C198.147 55.787 198.55 56.0018 198.55 56.4315C198.55 56.4852 198.496 56.7806 198.389 57.3177C197.529 60.3793 195.864 63.0917 193.393 65.455C190.923 67.8183 188.049 69 184.773 69C181.013 69 178.166 67.3081 176.233 63.9243C174.03 67.2544 171.506 68.9194 168.659 68.9194H168.176C165.544 68.9194 163.664 68.2212 162.536 66.8247C161.408 65.4282 160.817 63.9511 160.764 62.3935C160.764 60.6747 161.274 59.2782 162.294 58.204C163.315 57.1297 164.524 56.5926 165.92 56.5926C168.23 56.5926 169.384 57.7206 169.384 59.9765C169.384 61.0507 169.062 61.9906 168.418 62.7963C167.773 63.602 167.155 64.1391 166.565 64.4077C165.974 64.6762 165.625 64.8105 165.517 64.8105L165.275 64.8911C165.275 64.9448 165.437 65.0522 165.759 65.2133C166.081 65.3745 166.511 65.5625 167.048 65.7773C167.585 65.9922 168.095 66.0727 168.579 66.019C170.512 66.019 172.177 64.8105 173.574 62.3935C174.057 61.5341 174.675 59.7079 175.427 56.9149C176.179 54.1219 176.931 51.2215 177.683 48.2136C178.435 45.2058 178.865 43.4333 178.972 42.8962C179.24 41.446 179.375 40.3986 179.375 39.7541C179.375 38.2501 178.972 37.1759 178.166 36.5314C177.361 35.8868 176.447 35.5646 175.427 35.5646C173.279 35.5646 171.264 36.4239 169.384 38.1427C167.505 39.8615 166.189 42.0637 165.437 44.7492C165.329 45.2326 165.195 45.5012 165.034 45.5549C164.873 45.6086 164.443 45.6623 163.745 45.716H162.617C162.294 45.3938 162.133 45.0984 162.133 44.8298Z" fill="black"/>
</svg>
