<svg width="500" height="121" viewBox="0 0 500 121" fill="none" xmlns="http://www.w3.org/2000/svg">
<path d="M1.87518 103.355C0.62506 103.355 0 102.988 0 102.252C0 102.105 0.110305 101.591 0.330914 100.708C0.62506 99.5316 0.919206 98.8697 1.21335 98.7227C1.5075 98.5756 2.35317 98.4653 3.75036 98.3917C5.73584 98.3917 7.94194 98.2814 10.3686 98.0608C11.3981 97.8402 12.0967 97.399 12.4644 96.7372C12.6115 96.3695 15.222 86.0376 20.2961 65.7416C25.3701 45.4455 27.9438 35.1504 28.0174 34.8563C28.0174 34.3415 27.8703 34.0841 27.5762 34.0841C26.9879 33.8635 25.0392 33.6797 21.73 33.5326H18.3106C17.8694 33.0914 17.6487 32.7972 17.6487 32.6502C17.6487 32.5031 17.7223 31.878 17.8694 30.775C18.1635 29.5249 18.5312 28.7527 18.9724 28.4586H78.4266C78.9414 28.7527 79.1988 29.1572 79.1988 29.6719C79.1988 30.0396 78.7208 34.1577 77.7648 42.0261C76.8088 49.8945 76.2941 53.939 76.2205 54.1596C76.0735 54.6743 75.3381 54.9317 74.0144 54.9317H72.6908C72.176 54.564 71.9186 54.086 71.9186 53.4977C71.9186 53.4242 72.0289 52.5418 72.2496 50.8504C72.4702 49.1591 72.5805 47.2104 72.5805 45.0043C72.5805 42.7982 72.3231 40.9965 71.8083 39.5994C71.2936 38.2022 70.595 37.0623 69.7126 36.1799C68.8301 35.2975 67.4697 34.7092 65.6313 34.415C63.7929 34.1209 61.9177 33.8635 60.0057 33.6429C58.0938 33.4223 55.4465 33.3855 52.0638 33.5326H49.5268C43.4968 33.6061 40.298 33.7164 39.9303 33.8635C39.5626 34.0106 39.3052 34.3047 39.1582 34.7459C39.0846 34.8195 37.8345 39.6361 35.4078 49.1959L31.878 63.4252H37.9448C38.1654 63.4252 39.0111 63.4252 40.4818 63.4252C41.9525 63.4252 42.9821 63.3884 43.5703 63.3149C44.1586 63.2413 44.9675 63.131 45.997 62.9839C47.0266 62.8369 47.909 62.5795 48.6444 62.2118C49.3797 61.8441 50.0048 61.4029 50.5195 60.8882C51.4755 60.0057 52.2844 58.7924 52.9462 57.2481C53.6081 55.7038 54.0861 54.3066 54.3802 53.0565C54.6743 51.8064 54.8582 51.1446 54.9317 51.071C55.1523 50.7034 55.8509 50.5195 57.0275 50.5195H58.3512C58.8659 50.8872 59.1233 51.2549 59.1233 51.6226C59.1233 51.8432 57.9835 56.6598 55.7039 66.0725C53.4242 75.4851 52.1741 80.3385 51.9535 80.6327C51.8064 81.1474 51.0711 81.4048 49.7474 81.4048H48.4237C47.909 80.9636 47.6516 80.5224 47.6516 80.0812C47.6516 79.8606 47.8355 79.0517 48.2031 77.6545C48.5708 76.2573 48.7547 74.7865 48.7547 73.2423C48.7547 71.1097 48.0193 69.7861 46.5486 69.2713C45.0778 68.7566 41.8055 68.4992 36.7315 68.4992H30.6647L27.1349 82.5079C24.7818 91.6264 23.6052 96.4063 23.6052 96.8475C23.6052 97.877 26.8776 98.3917 33.4223 98.3917H36.1799C36.6211 98.833 36.8418 99.0903 36.8418 99.1639C36.8418 99.2374 36.7682 99.9728 36.6211 101.37C36.327 102.326 35.9593 103.025 35.5181 103.466H33.6429C30.6279 103.319 25.0759 103.245 16.9869 103.245C12.2071 103.245 8.567 103.245 6.06676 103.245C3.56652 103.245 2.16933 103.282 1.87518 103.355Z" fill="black"/>
<path d="M69.8559 2.2061C69.8559 1.61781 70.0398 1.10305 70.4075 0.661836C70.7751 0.220617 71.3267 7.6592e-06 72.062 7.6592e-06C72.5768 7.6592e-06 73.018 0.183849 73.3857 0.551531C73.7534 0.845677 74.121 1.54427 74.4887 2.64732C75.2241 5.36817 76.7316 7.46396 79.0112 8.93469C79.8201 9.44944 80.2246 10.1113 80.2246 10.9202C80.2246 11.582 80.1143 12.0232 79.8937 12.2438C79.673 12.4644 79.1583 12.7953 78.3494 13.2366C75.1873 14.8544 72.4297 17.1708 70.0765 20.1858C69.9295 20.3328 69.7456 20.5534 69.525 20.8476C69.3044 21.1417 69.1206 21.3623 68.9735 21.5094C68.8264 21.6565 68.6426 21.73 68.422 21.73C68.2014 21.73 67.944 21.7668 67.6498 21.8403C67.1351 21.8403 66.6571 21.6565 66.2159 21.2888C65.7747 20.9211 65.5173 20.3696 65.4437 19.6342C65.4437 18.237 67.1719 16.0677 70.6281 13.1263H51.766L32.9039 13.016C31.9479 12.3541 31.4699 11.6555 31.4699 10.9202C31.4699 10.4054 31.9479 9.67005 32.9039 8.71408H72.5032C70.7384 5.91969 69.8559 3.75037 69.8559 2.2061Z" fill="black"/>
<path d="M85.0611 97.6297C85.1131 97.3177 85.1911 96.9018 85.2951 96.3819C85.399 95.862 85.711 94.8742 86.2309 93.4185C86.7508 91.9627 87.2707 90.741 87.7906 89.7531C88.3105 88.7653 89.1683 87.8035 90.3641 86.8677C91.5599 85.9319 92.7557 85.4899 93.9514 85.5419C95.8231 85.5419 97.3828 86.0098 98.6306 86.9457C99.8783 87.8815 100.658 88.7653 100.97 89.5972C101.282 90.429 101.438 90.9749 101.438 91.2349C101.438 91.3389 101.464 91.3908 101.516 91.3908L102.374 90.533C105.545 87.2056 109.159 85.5419 113.214 85.5419C116.021 85.5419 118.283 86.2438 119.999 87.6475C121.714 89.0513 122.598 91.1049 122.65 93.8084C122.702 96.5119 121.714 100.593 119.687 106.052C117.659 111.511 116.671 114.812 116.723 115.956C116.723 117.308 117.165 117.984 118.049 117.984C118.361 117.984 118.595 117.958 118.751 117.906C120.259 117.646 121.61 116.658 122.806 114.942C124.002 113.227 124.912 111.147 125.536 108.704C125.64 108.288 126.159 108.08 127.095 108.08C128.135 108.08 128.655 108.288 128.655 108.704C128.655 108.756 128.551 109.146 128.343 109.873C127.927 111.381 127.355 112.863 126.627 114.319C125.899 115.774 124.704 117.23 123.04 118.686C121.376 120.141 119.583 120.843 117.659 120.791C115.215 120.791 113.448 120.089 112.356 118.686C111.264 117.282 110.718 115.826 110.718 114.319C110.718 113.331 111.654 110.211 113.526 104.96C115.397 99.7093 116.359 95.758 116.411 93.1065C116.411 90.0391 115.267 88.5054 112.98 88.5054H112.59C108.119 88.5054 104.349 91.1309 101.282 96.3819L100.736 97.3177L98.1626 107.768C96.447 114.579 95.4592 118.244 95.1992 118.764C94.5233 120.167 93.4055 120.869 91.8458 120.869C91.17 120.869 90.6241 120.713 90.2081 120.401C89.7922 120.089 89.5063 119.778 89.3503 119.466C89.1943 119.154 89.1423 118.894 89.1943 118.686C89.1943 118.01 90.1821 113.773 92.1578 105.974C94.1334 98.1756 95.1732 93.9384 95.2772 93.2625C95.3292 93.0025 95.3552 92.4047 95.3552 91.4688C95.3552 89.4412 94.7313 88.4274 93.4835 88.4274C91.5079 88.4274 89.8702 91.0269 88.5704 96.2259C88.2585 97.2657 88.1025 97.8116 88.1025 97.8636C87.9985 98.1756 87.5046 98.3315 86.6208 98.3315H85.529C85.2171 98.0196 85.0611 97.7856 85.0611 97.6297Z" fill="black"/>
<path d="M133.256 106.91C133.256 103.946 133.75 101.243 134.738 98.7995C135.726 96.3559 136.999 94.3283 138.559 92.7166C140.119 91.1049 141.86 89.7531 143.784 88.6614C145.708 87.5696 147.527 86.7637 149.243 86.2438C150.959 85.7239 152.596 85.4899 154.156 85.5419H154.39C156.73 85.5419 158.757 86.1138 160.473 87.2576C162.189 88.4014 163.046 90.0911 163.046 92.3267C163.046 97.0058 160.161 100.073 154.39 101.529C151.843 102.205 148.359 102.569 143.94 102.621C142.016 102.621 141.029 102.673 140.977 102.777C140.977 102.881 140.821 103.791 140.509 105.506C140.197 107.222 140.015 108.73 139.963 110.029C139.963 112.473 140.509 114.397 141.601 115.8C142.692 117.204 144.33 117.932 146.514 117.984C148.697 118.036 151.115 117.542 153.766 116.502C156.418 115.462 158.809 113.747 160.941 111.355C161.409 110.835 161.721 110.575 161.877 110.575C162.085 110.575 162.423 110.809 162.891 111.277C163.358 111.745 163.618 112.109 163.67 112.369C163.722 112.629 163.488 113.045 162.969 113.617C162.449 114.189 161.669 114.89 160.629 115.722C159.589 116.554 158.393 117.36 157.042 118.14C155.69 118.92 154.052 119.57 152.129 120.089C150.205 120.609 148.229 120.869 146.202 120.869C142.094 120.869 138.923 119.492 136.687 116.736C134.452 113.981 133.308 110.705 133.256 106.91ZM159.303 92.4826C158.991 89.7791 157.224 88.4274 154 88.4274C152.285 88.4274 150.699 88.7913 149.243 89.5192C147.787 90.2471 146.618 91.1309 145.734 92.1707C144.85 93.2105 144.096 94.2763 143.472 95.3681C142.848 96.4599 142.432 97.3957 142.224 98.1756C142.016 98.9554 141.886 99.4493 141.834 99.6573C141.834 99.7093 142.354 99.7353 143.394 99.7353C149.269 99.7353 153.376 99.1114 155.716 97.8636C158.055 96.6159 159.251 94.8222 159.303 92.4826Z" fill="black"/>
<path d="M168.583 89.9871C168.22 89.6232 168.038 89.3632 168.038 89.2072C168.038 88.9993 168.116 88.5834 168.271 87.9595C168.427 87.3356 168.557 86.9717 168.661 86.8677C168.765 86.6077 168.999 86.4778 169.363 86.4778C169.727 86.4778 171.053 86.4518 173.341 86.3998H177.474L178.955 80.1609C179.111 79.589 179.293 78.8352 179.501 77.8994C179.709 76.9635 179.891 76.2877 180.047 75.8717C180.203 75.4558 180.359 74.9359 180.515 74.312C180.671 73.6882 180.879 73.2462 181.139 72.9863C181.399 72.7263 181.659 72.4144 181.919 72.0505C182.179 71.6865 182.543 71.4526 183.011 71.3486C183.479 71.2446 183.947 71.1926 184.414 71.1926C185.35 71.2446 186 71.5306 186.364 72.0505C186.728 72.5704 186.91 73.0643 186.91 73.5322C186.91 73.8961 186.676 75.1179 186.208 77.1975C185.74 79.2771 185.22 81.3307 184.648 83.3583L183.869 86.2438C183.869 86.3478 185.168 86.3998 187.768 86.3998H191.745C192.109 86.7637 192.291 87.0497 192.291 87.2576C192.291 88.4014 191.953 89.3112 191.277 89.9871H182.933L180.125 101.295C178.098 109.613 177.084 114.085 177.084 114.708C177.084 116.892 177.786 117.984 179.189 117.984C181.009 117.984 182.777 117.1 184.492 115.332C186.208 113.565 187.586 111.381 188.626 108.782C188.73 108.47 188.86 108.288 189.016 108.236C189.172 108.184 189.562 108.132 190.185 108.08H190.497C191.277 108.08 191.667 108.288 191.667 108.704C191.667 108.86 191.589 109.172 191.433 109.639C191.173 110.471 190.705 111.459 190.029 112.603C189.354 113.747 188.47 114.968 187.378 116.268C186.286 117.568 184.96 118.66 183.401 119.544C181.841 120.427 180.255 120.869 178.644 120.869C177.084 120.869 175.602 120.479 174.198 119.7C172.795 118.92 171.781 117.568 171.157 115.644C171.053 115.228 171.001 114.527 171.001 113.539V112.135L173.73 101.217C175.55 93.8864 176.486 90.1951 176.538 90.1431C176.538 90.0391 175.212 89.9871 172.561 89.9871H168.583Z" fill="black"/>
<path d="M237.056 65.1901C237.056 64.2341 237.571 63.4988 238.6 62.984H308.864C309.967 63.5723 310.519 64.3077 310.519 65.1901C310.519 65.999 310.004 66.6976 308.974 67.2859L273.898 67.3962H238.821C237.644 67.0285 237.056 66.2931 237.056 65.1901ZM237.056 86.5892C237.056 85.4861 237.644 84.7508 238.821 84.3831H308.974C310.004 85.1185 310.519 85.8538 310.519 86.5892C310.519 87.5452 309.967 88.2805 308.864 88.7953H238.6C237.571 88.2805 237.056 87.5452 237.056 86.5892Z" fill="black"/>
<path d="M349.655 71.8084C349.728 71.3671 349.839 70.7788 349.986 70.0435C350.133 69.3081 350.574 67.9109 351.309 65.8519C352.045 63.7929 352.78 62.0648 353.515 60.6676C354.251 59.2704 355.427 57.91 357.045 56.5863C358.663 55.2627 360.281 54.6376 361.899 54.7111C363.516 54.7847 365.097 55.042 366.642 55.4833C368.186 55.9245 369.289 56.5863 369.951 57.4687C370.613 58.3512 371.201 59.1601 371.716 59.8954C372.23 60.6308 372.525 61.3294 372.598 61.9912L372.819 62.7634C372.819 62.9104 372.855 62.984 372.929 62.984L374.142 61.7706C378.555 57.0643 383.739 54.7111 389.695 54.7111C390.945 54.7111 392.085 54.7847 393.115 54.9317C394.144 55.0788 395.1 55.3362 395.983 55.7039C396.865 56.0716 397.564 56.4392 398.078 56.8069C398.593 57.1746 399.145 57.6158 399.733 58.1306C400.321 58.6453 400.689 59.1233 400.836 59.5645C400.983 60.0058 401.277 60.4837 401.719 60.9985C402.16 61.5133 402.307 61.9545 402.16 62.3222C402.013 62.6898 402.123 63.0207 402.491 63.3149C402.858 63.609 402.932 63.8664 402.711 64.087L403.594 62.984C408.226 57.4687 413.705 54.7111 420.029 54.7111C424 54.7111 427.199 55.7039 429.626 57.6894C432.052 59.6748 433.302 62.5795 433.376 66.4034C433.376 70.1538 431.979 75.9632 429.184 83.8316C426.39 91.7 424.993 96.4063 424.993 97.9506C425.066 98.9801 425.25 99.6787 425.544 100.046C425.838 100.414 426.39 100.598 427.199 100.598C429.258 100.598 431.17 99.4948 432.935 97.2887C434.7 95.0826 436.134 92.0676 437.237 88.2437C437.457 87.4348 437.678 86.9569 437.898 86.8098C438.119 86.6627 438.707 86.5892 439.663 86.5892C441.134 86.5892 441.869 86.8833 441.869 87.4716C441.869 87.5451 441.722 88.0967 441.428 89.1262C440.84 91.2587 440.031 93.3545 439.001 95.4135C437.972 97.4726 436.281 99.5316 433.927 101.591C431.574 103.65 429.037 104.642 426.316 104.569C422.86 104.569 420.36 103.576 418.816 101.591C417.271 99.6051 416.499 97.5461 416.499 95.4135C416.499 94.0164 417.823 89.6042 420.47 82.177C423.118 74.7498 424.478 69.161 424.552 65.4107C424.552 61.072 422.934 58.9027 419.698 58.9027H419.147C412.823 58.9027 407.491 62.6163 403.152 70.0435L402.38 71.3671L398.74 86.148C396.314 95.7812 394.916 100.966 394.549 101.701C393.593 103.686 392.012 104.679 389.806 104.679C388.85 104.679 388.078 104.422 387.489 103.907C386.901 103.392 386.496 102.951 386.276 102.583C386.055 102.216 385.945 101.848 385.945 101.48C385.945 100.671 387.195 95.4135 389.695 85.7067L393.666 69.6023C393.887 68.4992 393.997 67.102 393.997 65.4107C393.997 61.072 392.379 58.9027 389.144 58.9027H388.592C382.268 58.9027 376.937 62.6163 372.598 70.0435L371.826 71.3671L368.186 86.148C365.759 95.7812 364.362 100.966 363.994 101.701C363.038 103.686 361.457 104.679 359.251 104.679C358.295 104.679 357.523 104.459 356.935 104.017C356.347 103.576 355.942 103.135 355.721 102.694C355.501 102.252 355.427 101.885 355.501 101.591C355.501 100.635 356.898 94.6046 359.692 83.5006C362.56 72.176 363.994 66.2564 363.994 65.7416C364.215 64.6385 364.325 63.6458 364.325 62.7634C364.325 60.1161 363.406 58.7924 361.568 58.7924C359.95 58.7924 358.589 59.8219 357.486 61.8809C356.383 63.94 355.538 66.1828 354.949 68.6095C354.361 71.0362 353.92 72.3599 353.626 72.5805C353.479 72.7276 352.89 72.8011 351.861 72.8011H350.317C349.875 72.3599 349.655 72.029 349.655 71.8084Z" fill="black"/>
<path d="M447.826 86.148C447.826 78.7208 450.62 71.6613 456.209 64.9695C461.798 58.2777 468.085 54.895 475.071 54.8214C478.822 54.8214 482.131 56.6231 484.999 60.2264C486.175 58.0203 487.867 56.9172 490.073 56.9172C491.029 56.9172 491.874 57.2114 492.61 57.7997C493.345 58.388 493.713 59.1233 493.713 60.0058C493.713 60.9617 492.352 66.8447 489.631 77.6545C486.911 88.4644 485.513 94.5679 485.44 95.9651C485.44 97.8035 485.697 99.0168 486.212 99.6051C486.727 100.193 487.499 100.524 488.528 100.598C489.19 100.524 489.926 100.193 490.734 99.6051C492.279 98.1344 493.786 94.6047 495.257 89.0159C495.698 87.5452 496.066 86.773 496.36 86.6995C496.507 86.626 496.875 86.5892 497.463 86.5892H497.904C499.301 86.5892 500 86.9201 500 87.5819C500 88.0231 499.816 89.0159 499.449 90.5602C499.081 92.1044 498.345 94.0899 497.242 96.5166C496.139 98.9433 494.963 100.782 493.713 102.032C492.757 102.988 491.58 103.76 490.183 104.348C489.595 104.495 488.712 104.569 487.536 104.569C485.035 104.569 482.94 104.017 481.248 102.914C479.557 101.811 478.454 100.671 477.939 99.4948L477.277 97.8403C477.204 97.7667 477.057 97.8035 476.836 97.9506C476.689 98.0976 476.542 98.2447 476.395 98.3918C472.056 102.51 467.644 104.569 463.158 104.569C459.114 104.569 455.547 103.098 452.459 100.157C449.37 97.2152 447.826 92.5456 447.826 86.148ZM482.903 67.2859C482.903 66.8447 482.719 66.0358 482.351 64.8592C481.984 63.6826 481.138 62.3957 479.814 60.9985C478.491 59.6013 476.799 58.8659 474.74 58.7924C472.166 58.7924 469.703 59.9322 467.35 62.2119C464.997 64.4915 463.158 67.4697 461.835 71.1465C459.702 76.9559 458.195 82.9859 457.312 89.2365C457.312 89.4571 457.312 89.8616 457.312 90.4499C457.312 91.0381 457.275 91.4794 457.202 91.7735C457.202 95.0826 457.864 97.3623 459.187 98.6124C460.511 99.8625 462.092 100.524 463.93 100.598C466.725 100.598 469.482 99.3845 472.203 96.9578C474.924 94.5311 476.542 92.6559 477.057 91.3323C477.204 91.0381 478.196 87.1039 480.035 79.5297C481.873 71.9554 482.829 67.8742 482.903 67.2859Z" fill="black"/>
<path d="M487.37 28.569C487.37 27.9807 487.554 27.4659 487.922 27.0247C488.289 26.5835 488.841 26.3629 489.576 26.3629C490.091 26.3629 490.532 26.5467 490.9 26.9144C491.268 27.2085 491.635 27.9071 492.003 29.0102C492.738 31.731 494.246 33.8268 496.525 35.2975C497.334 35.8123 497.739 36.4741 497.739 37.283C497.739 37.9449 497.628 38.3861 497.408 38.6067C497.187 38.8273 496.673 39.1582 495.864 39.5994C492.702 41.2172 489.944 43.5336 487.591 46.5486C487.444 46.6957 487.26 46.9163 487.039 47.2104C486.819 47.5046 486.635 47.7252 486.488 47.8723C486.341 48.0193 486.157 48.0929 485.936 48.0929C485.716 48.0929 485.458 48.1296 485.164 48.2032C484.649 48.2032 484.171 48.0193 483.73 47.6517C483.289 47.284 483.032 46.7325 482.958 45.9971C482.958 44.5999 484.686 42.4306 488.142 39.4891H469.28L450.418 39.3788C449.462 38.717 448.984 38.0184 448.984 37.283C448.984 36.7683 449.462 36.0329 450.418 35.0769H490.017C488.253 32.2825 487.37 30.1132 487.37 28.569Z" fill="black"/>
</svg>
