<svg width="560" height="104" viewBox="0 0 560 104" fill="none" xmlns="http://www.w3.org/2000/svg">
<path d="M1.86592 74.5268C0.621972 74.5268 0 74.161 0 73.4292C0 73.2829 0.10976 72.7707 0.329279 71.8926C0.621972 70.7218 0.914664 70.0633 1.20736 69.9169C1.50005 69.7706 2.34154 69.6608 3.73183 69.5876C5.70751 69.5876 7.9027 69.4779 10.3174 69.2584C11.3418 69.0389 12.037 68.5998 12.4029 67.9413C12.5492 67.5754 15.1468 57.2946 20.1958 37.0988C25.2447 16.903 27.8058 6.65875 27.879 6.36606C27.879 5.85384 27.7326 5.59774 27.4399 5.59774C26.8545 5.37822 24.9155 5.19529 21.6227 5.04894H18.2201C17.7811 4.6099 17.5616 4.31721 17.5616 4.17086C17.5616 4.02452 17.6347 3.40254 17.7811 2.30495C18.0738 1.061 18.4396 0.292686 18.8787 -6.61612e-06H78.0392C78.5514 0.292686 78.8075 0.695138 78.8075 1.20735C78.8075 1.57322 78.3319 5.67091 77.3806 13.5004C76.4294 21.33 75.9172 25.3545 75.844 25.574C75.6976 26.0862 74.9659 26.3423 73.6488 26.3423H72.3317C71.8195 25.9765 71.5634 25.5008 71.5634 24.9154C71.5634 24.8423 71.6731 23.9642 71.8926 22.2812C72.1121 20.5982 72.2219 18.6591 72.2219 16.4639C72.2219 14.2688 71.9658 12.476 71.4536 11.0857C70.9414 9.69543 70.2462 8.56125 69.3682 7.68317C68.4901 6.8051 67.1364 6.21971 65.307 5.92702C63.4777 5.63433 61.6118 5.37822 59.7093 5.1587C57.8068 4.93918 55.1726 4.90259 51.8066 5.04894H49.2821C43.2819 5.12211 40.0989 5.23187 39.733 5.37822C39.3672 5.52457 39.1111 5.81726 38.9647 6.2563C38.8915 6.32947 37.6476 11.1223 35.2329 20.6348L31.7206 34.7938H37.7574C37.9769 34.7938 38.8184 34.7938 40.2818 34.7938C41.7453 34.7938 42.7697 34.7572 43.3551 34.6841C43.9405 34.6109 44.7454 34.5011 45.7698 34.3548C46.7942 34.2084 47.6723 33.9523 48.404 33.5865C49.1358 33.2206 49.7577 32.7816 50.27 32.2693C51.2212 31.3913 52.0261 30.1839 52.6847 28.6473C53.3432 27.1106 53.8189 25.7204 54.1116 24.4764C54.4042 23.2325 54.5872 22.5739 54.6604 22.5007C54.8799 22.1349 55.575 21.9519 56.7458 21.9519H58.0629C58.5751 22.3178 58.8312 22.6837 58.8312 23.0495C58.8312 23.2691 57.697 28.0619 55.4287 37.4281C53.1603 46.7942 51.9164 51.6236 51.6968 51.9163C51.5505 52.4285 50.8188 52.6847 49.5016 52.6847H48.1845C47.6723 52.2456 47.4162 51.8066 47.4162 51.3675C47.4162 51.148 47.5991 50.3431 47.965 48.9528C48.3309 47.5625 48.5138 46.0991 48.5138 44.5624C48.5138 42.4404 47.7821 41.1233 46.3186 40.6111C44.8551 40.0989 41.5989 39.8428 36.55 39.8428H30.5132L27.0009 53.7823C24.6594 62.8557 23.4886 67.612 23.4886 68.051C23.4886 69.0754 26.7448 69.5876 33.2572 69.5876H36.0012C36.4402 70.0267 36.6598 70.2828 36.6598 70.356C36.6598 70.4291 36.5866 71.1609 36.4402 72.5512C36.1475 73.5024 35.7817 74.1976 35.3426 74.6366H33.4767C30.4766 74.4903 24.952 74.4171 16.903 74.4171C12.1467 74.4171 8.52467 74.4171 6.03679 74.4171C3.5489 74.4171 2.15861 74.4537 1.86592 74.5268Z" fill="black"/>
<path d="M68.8025 68.8293C68.8543 68.5189 68.9319 68.1051 69.0353 67.5877C69.1388 67.0704 69.4492 66.0875 69.9665 64.6389C70.4839 63.1904 71.0012 61.9746 71.5185 60.9917C72.0359 60.0088 72.8895 59.0517 74.0793 58.1205C75.2692 57.1893 76.4591 56.7496 77.6489 56.8013C79.5113 56.8013 81.0633 57.2669 82.3049 58.1981C83.5465 59.1293 84.3225 60.0088 84.6329 60.8365C84.9433 61.6642 85.0985 62.2074 85.0985 62.4661C85.0985 62.5696 85.1244 62.6213 85.1761 62.6213L86.0297 61.7677C89.1855 58.4568 92.781 56.8013 96.8162 56.8013C99.6098 56.8013 101.86 57.4997 103.567 58.8965C105.275 60.2933 106.154 62.3368 106.206 65.0269C106.258 67.7171 105.275 71.7781 103.257 77.2101C101.239 82.6421 100.256 85.9272 100.308 87.0654C100.308 88.4104 100.748 89.083 101.627 89.083C101.938 89.083 102.171 89.0571 102.326 89.0054C103.826 88.7467 105.171 87.7638 106.361 86.0566C107.551 84.3493 108.456 82.28 109.077 79.8485C109.18 79.4347 109.698 79.2277 110.629 79.2277C111.664 79.2277 112.181 79.4347 112.181 79.8485C112.181 79.9003 112.078 80.2883 111.871 81.0125C111.457 82.5128 110.888 83.9872 110.163 85.4358C109.439 86.8843 108.249 88.3328 106.594 89.7814C104.938 91.2299 103.154 91.9283 101.239 91.8766C98.8079 91.8766 97.049 91.1782 95.9626 89.7814C94.8762 88.3846 94.333 86.936 94.333 85.4358C94.333 84.4528 95.2642 81.3488 97.1266 76.1237C98.989 70.8987 99.946 66.9669 99.9978 64.3285C99.9978 61.2762 98.8596 59.7501 96.5834 59.7501H96.1954C91.7463 59.7501 87.9956 62.3626 84.9433 67.5877L84.4001 68.5189L81.8393 78.9173C80.1321 85.6944 79.1492 89.3416 78.8905 89.859C78.218 91.2558 77.1057 91.9542 75.5537 91.9542C74.8812 91.9542 74.338 91.799 73.9241 91.4886C73.5103 91.1782 73.2257 90.8678 73.0705 90.5574C72.9153 90.247 72.8636 89.9883 72.9153 89.7814C72.9153 89.1088 73.8983 84.8926 75.8641 77.1325C77.83 69.3725 78.8647 65.1563 78.9681 64.4837C79.0199 64.225 79.0457 63.6301 79.0457 62.6989C79.0457 60.6813 78.4249 59.6725 77.1833 59.6725C75.2175 59.6725 73.5879 62.2592 72.2945 67.4325C71.9841 68.4672 71.8289 69.0104 71.8289 69.0621C71.7255 69.3725 71.234 69.5277 70.3545 69.5277H69.2681C68.9577 69.2173 68.8025 68.9845 68.8025 68.8293Z" fill="black"/>
<path d="M116.759 78.0637C116.759 75.1149 117.251 72.4248 118.234 69.9933C119.217 67.5619 120.484 65.5442 122.036 63.9405C123.588 62.3368 125.321 60.9917 127.235 59.9053C129.15 58.8189 130.96 58.017 132.667 57.4997C134.375 56.9824 136.004 56.7496 137.556 56.8013H137.789C140.117 56.8013 142.135 57.3704 143.842 58.5085C145.549 59.6466 146.403 61.328 146.403 63.5525C146.403 68.2085 143.531 71.2608 137.789 72.7093C135.254 73.3819 131.788 73.744 127.391 73.7957C125.476 73.7957 124.494 73.8475 124.442 73.9509C124.442 74.0544 124.287 74.9597 123.976 76.6669C123.666 78.3741 123.485 79.8744 123.433 81.1677C123.433 83.5992 123.976 85.5134 125.063 86.9102C126.149 88.307 127.779 89.0312 129.951 89.083C132.124 89.1347 134.53 88.6432 137.168 87.6086C139.807 86.5739 142.186 84.8667 144.307 82.4869C144.773 81.9696 145.083 81.7109 145.239 81.7109C145.446 81.7109 145.782 81.9437 146.247 82.4093C146.713 82.8749 146.972 83.2371 147.023 83.4957C147.075 83.7544 146.842 84.1683 146.325 84.7373C145.808 85.3064 145.032 86.0048 143.997 86.8326C142.962 87.6603 141.772 88.4622 140.427 89.2382C139.082 90.0142 137.453 90.6608 135.539 91.1782C133.624 91.6955 131.659 91.9542 129.641 91.9542C125.554 91.9542 122.398 90.5832 120.174 87.8414C117.949 85.0995 116.811 81.8403 116.759 78.0637ZM142.678 63.7077C142.367 61.0176 140.608 59.6725 137.401 59.6725C135.694 59.6725 134.116 60.0346 132.667 60.7589C131.219 61.4832 130.055 62.3626 129.175 63.3973C128.296 64.432 127.546 65.4925 126.925 66.5789C126.304 67.6653 125.89 68.5965 125.683 69.3725C125.476 70.1485 125.347 70.64 125.295 70.8469C125.295 70.8987 125.813 70.9245 126.847 70.9245C132.693 70.9245 136.78 70.3037 139.108 69.0621C141.436 67.8205 142.626 66.0357 142.678 63.7077Z" fill="black"/>
<path d="M151.912 61.2245C151.55 60.8624 151.369 60.6037 151.369 60.4485C151.369 60.2416 151.447 59.8277 151.602 59.2069C151.757 58.5861 151.886 58.224 151.99 58.1205C152.093 57.8618 152.326 57.7325 152.688 57.7325C153.05 57.7325 154.37 57.7066 156.646 57.6549H160.759L162.233 51.4469C162.388 50.8778 162.569 50.1277 162.776 49.1965C162.983 48.2653 163.164 47.5928 163.319 47.1789C163.475 46.765 163.63 46.2477 163.785 45.6269C163.94 45.0061 164.147 44.5664 164.406 44.3077C164.665 44.049 164.923 43.7386 165.182 43.3765C165.441 43.0144 165.803 42.7816 166.268 42.6781C166.734 42.5746 167.199 42.5229 167.665 42.5229C168.596 42.5746 169.243 42.8592 169.605 43.3765C169.967 43.8938 170.148 44.3853 170.148 44.8509C170.148 45.213 169.915 46.4288 169.45 48.4981C168.984 50.5674 168.467 52.6109 167.898 54.6285L167.122 57.4997C167.122 57.6032 168.415 57.6549 171.002 57.6549H174.959C175.322 58.017 175.503 58.3016 175.503 58.5085C175.503 59.6466 175.166 60.552 174.494 61.2245H166.191L163.397 72.4765C161.379 80.7539 160.371 85.203 160.371 85.8238C160.371 87.9966 161.069 89.083 162.466 89.083C164.277 89.083 166.035 88.2035 167.743 86.4446C169.45 84.6856 170.821 82.5128 171.855 79.9261C171.959 79.6157 172.088 79.4347 172.243 79.3829C172.399 79.3312 172.787 79.2795 173.407 79.2277H173.718C174.494 79.2277 174.882 79.4347 174.882 79.8485C174.882 80.0037 174.804 80.3141 174.649 80.7797C174.39 81.6075 173.925 82.5904 173.252 83.7285C172.58 84.8667 171.7 86.0824 170.614 87.3758C169.527 88.6691 168.208 89.7555 166.656 90.635C165.104 91.5144 163.526 91.9542 161.923 91.9542C160.371 91.9542 158.896 91.5662 157.499 90.7902C156.103 90.0142 155.094 88.6691 154.473 86.755C154.37 86.3411 154.318 85.6427 154.318 84.6598V83.2629L157.034 72.3989C158.845 65.1045 159.776 61.4314 159.827 61.3797C159.827 61.2762 158.508 61.2245 155.87 61.2245H151.912Z" fill="black"/>
<path d="M180.761 86.8851C181.017 85.3489 182.005 83.575 183.724 81.5634C185.443 79.5517 187.564 78.5276 190.088 78.491C191.368 78.491 192.538 78.8202 193.599 79.4786C194.66 80.1369 195.446 80.9599 195.958 81.9474C197.494 79.6431 199.342 78.491 201.499 78.491C202.853 78.491 204.023 78.8933 205.011 79.698C205.998 80.5027 206.51 81.5816 206.547 82.9349C206.547 83.9956 206.291 84.8552 205.779 85.5135C205.267 86.1719 204.773 86.5742 204.298 86.7205C203.822 86.8668 203.401 86.94 203.036 86.94C202.341 86.94 201.774 86.7388 201.335 86.3365C200.896 85.9341 200.677 85.4038 200.677 84.7454C200.677 83.063 201.591 81.9108 203.42 81.289C203.017 80.8136 202.286 80.5758 201.225 80.5758C200.75 80.5758 200.402 80.6124 200.183 80.6855C198.793 81.2708 197.769 82.4777 197.11 84.3065C194.916 92.3897 193.819 97.108 193.819 98.4613C193.819 99.4854 194.111 100.217 194.696 100.656C195.282 101.095 195.922 101.314 196.617 101.314C197.97 101.314 199.305 100.711 200.622 99.5037C201.938 98.2967 202.835 96.8154 203.31 95.0597C203.42 94.694 203.529 94.4928 203.639 94.4562C203.749 94.4197 204.041 94.3831 204.517 94.3465H204.736C205.285 94.3465 205.559 94.4928 205.559 94.7854C205.559 94.822 205.523 95.0232 205.45 95.3889C204.864 97.4737 203.731 99.3208 202.048 100.93C200.366 102.539 198.409 103.344 196.178 103.344C193.617 103.344 191.679 102.192 190.362 99.8877C188.863 102.155 187.144 103.289 185.205 103.289H184.876C183.084 103.289 181.804 102.814 181.035 101.863C180.267 100.912 179.865 99.906 179.829 98.8453C179.829 97.6749 180.176 96.7239 180.871 95.9924C181.566 95.2609 182.389 94.8951 183.34 94.8951C184.913 94.8951 185.699 95.6632 185.699 97.1994C185.699 97.9309 185.479 98.571 185.041 99.1196C184.602 99.6682 184.181 100.034 183.779 100.217C183.376 100.4 183.139 100.491 183.065 100.491L182.901 100.546C182.901 100.583 183.011 100.656 183.23 100.766C183.449 100.875 183.742 101.003 184.108 101.15C184.474 101.296 184.821 101.351 185.15 101.314C186.467 101.314 187.601 100.491 188.552 98.8453C188.881 98.2601 189.302 97.0165 189.814 95.1146C190.326 93.2127 190.838 91.2376 191.35 89.1894C191.862 87.1411 192.154 85.9341 192.228 85.5684C192.41 84.5808 192.502 83.8676 192.502 83.4287C192.502 82.4046 192.228 81.6731 191.679 81.2342C191.13 80.7953 190.509 80.5758 189.814 80.5758C188.351 80.5758 186.979 81.161 185.699 82.3314C184.419 83.5019 183.523 85.0015 183.011 86.8302C182.937 87.1594 182.846 87.3423 182.736 87.3789C182.627 87.4154 182.334 87.452 181.858 87.4886H181.09C180.871 87.2691 180.761 87.068 180.761 86.8851Z" fill="black"/>
<path d="M255.323 36.55C255.323 35.5987 255.835 34.867 256.86 34.3548H326.777C327.874 34.9402 328.423 35.6719 328.423 36.55C328.423 37.3549 327.911 38.05 326.886 38.6354L291.983 38.7452H257.079C255.908 38.3793 255.323 37.6476 255.323 36.55ZM255.323 57.8434C255.323 56.7458 255.908 56.0141 257.079 55.6482H326.886C327.911 56.3799 328.423 57.1116 328.423 57.8434C328.423 58.7946 327.874 59.5264 326.777 60.0386H256.86C255.835 59.5264 255.323 58.7946 255.323 57.8434Z" fill="black"/>
<path d="M367.366 43.1356C367.439 42.6965 367.549 42.1111 367.695 41.3794C367.841 40.6477 368.28 39.2574 369.012 37.2085C369.744 35.1597 370.476 33.4401 371.207 32.0498C371.939 30.6595 373.11 29.3058 374.72 27.9887C376.329 26.6716 377.939 26.0496 379.549 26.1228C381.159 26.196 382.732 26.4521 384.269 26.8911C385.805 27.3302 386.903 27.9887 387.562 28.8668C388.22 29.7449 388.805 30.5498 389.318 31.2815C389.83 32.0132 390.123 32.7084 390.196 33.3669L390.415 34.1353C390.415 34.2816 390.452 34.3548 390.525 34.3548L391.732 33.1474C396.123 28.4643 401.281 26.1228 407.209 26.1228C408.452 26.1228 409.587 26.196 410.611 26.3423C411.635 26.4887 412.587 26.7448 413.465 27.1106C414.343 27.4765 415.038 27.8424 415.55 28.2082C416.062 28.5741 416.611 29.0131 417.197 29.5254C417.782 30.0376 418.148 30.5132 418.294 30.9522C418.441 31.3913 418.733 31.8669 419.172 32.3791C419.611 32.8913 419.758 33.3304 419.611 33.6962C419.465 34.0621 419.575 34.3914 419.941 34.6841C420.306 34.9768 420.38 35.2329 420.16 35.4524L421.038 34.3548C425.648 28.8668 431.1 26.1228 437.392 26.1228C441.344 26.1228 444.527 27.1106 446.942 29.0863C449.356 31.062 450.6 33.9523 450.673 37.7573C450.673 41.4892 449.283 47.2698 446.502 55.0994C443.722 62.9289 442.332 67.612 442.332 69.1486C442.405 70.173 442.588 70.8682 442.88 71.2341C443.173 71.5999 443.722 71.7829 444.527 71.7829C446.576 71.7829 448.478 70.6853 450.234 68.4901C451.99 66.2949 453.417 63.2948 454.515 59.4898C454.734 58.6849 454.954 58.2092 455.173 58.0629C455.393 57.9165 455.978 57.8434 456.93 57.8434C458.393 57.8434 459.125 58.1361 459.125 58.7214C459.125 58.7946 458.979 59.3434 458.686 60.3678C458.1 62.4899 457.296 64.5753 456.271 66.6241C455.247 68.673 453.564 70.7218 451.222 72.7707C448.881 74.8195 446.356 75.8074 443.649 75.7342C440.21 75.7342 437.722 74.7464 436.185 72.7707C434.648 70.795 433.88 68.7462 433.88 66.6241C433.88 65.2339 435.197 60.8435 437.831 53.453C440.466 46.0625 441.819 40.5013 441.893 36.7695C441.893 32.4523 440.283 30.2937 437.063 30.2937H436.514C430.221 30.2937 424.916 33.9889 420.599 41.3794L419.831 42.6965L416.209 57.4043C413.794 66.99 412.404 72.1487 412.038 72.8805C411.087 74.8561 409.513 75.844 407.318 75.844C406.367 75.844 405.599 75.5879 405.013 75.0756C404.428 74.5634 404.025 74.1244 403.806 73.7585C403.586 73.3927 403.477 73.0268 403.477 72.6609C403.477 71.856 404.721 66.6241 407.209 56.9653L411.16 40.9404C411.379 39.8428 411.489 38.4525 411.489 36.7695C411.489 32.4523 409.879 30.2937 406.66 30.2937H406.111C399.818 30.2937 394.513 33.9889 390.196 41.3794L389.427 42.6965L385.805 57.4043C383.391 66.99 382 72.1487 381.634 72.8805C380.683 74.8561 379.11 75.844 376.915 75.844C375.964 75.844 375.195 75.6244 374.61 75.1854C374.024 74.7464 373.622 74.3073 373.403 73.8683C373.183 73.4292 373.11 73.0634 373.183 72.7707C373.183 71.8194 374.573 65.8192 377.354 54.7701C380.208 43.5014 381.634 37.611 381.634 37.0988C381.854 36.0012 381.964 35.0133 381.964 34.1353C381.964 31.501 381.049 30.1839 379.22 30.1839C377.61 30.1839 376.256 31.2083 375.159 33.2572C374.061 35.306 373.22 37.5378 372.634 39.9525C372.049 42.3672 371.61 43.6844 371.317 43.9039C371.171 44.0502 370.585 44.1234 369.561 44.1234H368.024C367.585 43.6844 367.366 43.3551 367.366 43.1356Z" fill="black"/>
<path d="M465.052 57.4043C465.052 50.0138 467.832 42.9892 473.394 36.3305C478.955 29.6717 485.211 26.3057 492.163 26.2326C495.894 26.2326 499.187 28.0253 502.041 31.6108C503.212 29.4156 504.895 28.318 507.09 28.318C508.041 28.318 508.883 28.6107 509.614 29.1961C510.346 29.7815 510.712 30.5132 510.712 31.3913C510.712 32.3425 509.358 38.1964 506.651 48.9528C503.943 59.7093 502.553 65.7826 502.48 67.1729C502.48 69.0023 502.736 70.2096 503.248 70.795C503.761 71.3804 504.529 71.7097 505.553 71.7828C506.212 71.7097 506.944 71.3804 507.748 70.795C509.285 69.3315 510.785 65.8192 512.249 60.2581C512.688 58.7946 513.053 58.0263 513.346 57.9531C513.493 57.8799 513.858 57.8434 514.444 57.8434H514.883C516.273 57.8434 516.968 58.1726 516.968 58.8312C516.968 59.2702 516.785 60.2581 516.419 61.7947C516.054 63.3313 515.322 65.307 514.224 67.7217C513.127 70.1364 511.956 71.9658 510.712 73.2097C509.761 74.161 508.59 74.9293 507.2 75.5147C506.614 75.661 505.736 75.7342 504.565 75.7342C502.078 75.7342 499.992 75.1854 498.309 74.0878C496.626 72.9902 495.529 71.856 495.016 70.6852L494.358 69.0388C494.285 68.9657 494.138 69.0023 493.919 69.1486C493.772 69.295 493.626 69.4413 493.48 69.5876C489.162 73.6853 484.772 75.7342 480.309 75.7342C476.284 75.7342 472.735 74.2707 469.662 71.3438C466.589 68.4169 465.052 63.7704 465.052 57.4043ZM499.955 38.6354C499.955 38.1964 499.773 37.3915 499.407 36.2207C499.041 35.0499 498.199 33.7694 496.882 32.3791C495.565 30.9888 493.882 30.2571 491.833 30.1839C489.272 30.1839 486.821 31.3181 484.479 33.5865C482.138 35.8548 480.309 38.8183 478.991 42.477C476.869 48.2577 475.369 54.2579 474.491 60.4776C474.491 60.6971 474.491 61.0996 474.491 61.6849C474.491 62.2703 474.455 62.7094 474.381 63.0021C474.381 66.2949 475.04 68.5632 476.357 69.8072C477.674 71.0511 479.247 71.7097 481.077 71.7828C483.857 71.7828 486.601 70.5755 489.309 68.1608C492.016 65.7461 493.626 63.8801 494.138 62.563C494.285 62.2703 495.272 58.3556 497.102 50.8187C498.931 43.2819 499.882 39.2208 499.955 38.6354Z" fill="black"/>
<path d="M523.528 68.6741C523.89 66.5013 525.287 63.9922 527.718 61.1469C530.15 58.3016 533.15 56.853 536.72 56.8013C538.531 56.8013 540.186 57.2669 541.686 58.1981C543.187 59.1293 544.299 60.2933 545.023 61.6901C547.196 58.4309 549.809 56.8013 552.861 56.8013C554.775 56.8013 556.43 57.3704 557.827 58.5085C559.224 59.6466 559.948 61.1728 560 63.0869C560 64.5872 559.638 65.8029 558.914 66.7341C558.189 67.6653 557.491 68.2344 556.818 68.4413C556.146 68.6483 555.551 68.7517 555.034 68.7517C554.051 68.7517 553.249 68.4672 552.628 67.8981C552.007 67.3291 551.697 66.5789 551.697 65.6477C551.697 63.268 552.99 61.6384 555.577 60.7589C555.008 60.0864 553.973 59.7501 552.473 59.7501C551.8 59.7501 551.309 59.8018 550.998 59.9053C549.033 60.733 547.584 62.4402 546.653 65.0269C543.549 76.46 541.997 83.1336 541.997 85.0478C541.997 86.4963 542.411 87.531 543.238 88.1518C544.066 88.7726 544.971 89.083 545.954 89.083C547.869 89.083 549.757 88.2294 551.619 86.5222C553.482 84.815 554.749 82.7197 555.422 80.2365C555.577 79.7192 555.732 79.4347 555.887 79.3829C556.042 79.3312 556.456 79.2795 557.129 79.2277H557.439C558.215 79.2277 558.603 79.4347 558.603 79.8485C558.603 79.9003 558.551 80.1848 558.448 80.7021C557.62 83.6509 556.017 86.2635 553.637 88.5398C551.257 90.816 548.489 91.9542 545.334 91.9542C541.712 91.9542 538.97 90.3246 537.108 87.0654C534.987 90.2728 532.555 91.8766 529.814 91.8766H529.348C526.813 91.8766 525.002 91.204 523.916 89.859C522.83 88.5139 522.26 87.0912 522.209 85.591C522.209 83.9355 522.7 82.5904 523.683 81.5557C524.666 80.5211 525.83 80.0037 527.175 80.0037C529.4 80.0037 530.512 81.0901 530.512 83.2629C530.512 84.2976 530.202 85.203 529.581 85.979C528.96 86.755 528.365 87.2723 527.796 87.531C527.227 87.7896 526.891 87.919 526.787 87.919L526.554 87.9966C526.554 88.0483 526.71 88.1518 527.02 88.307C527.33 88.4622 527.744 88.6432 528.262 88.8502C528.779 89.0571 529.27 89.1347 529.736 89.083C531.598 89.083 533.202 87.919 534.547 85.591C535.013 84.7632 535.608 83.0043 536.332 80.3141C537.056 77.624 537.78 74.8304 538.505 71.9333C539.229 69.0363 539.643 67.3291 539.746 66.8117C540.005 65.4149 540.134 64.4061 540.134 63.7853C540.134 62.3368 539.746 61.3021 538.97 60.6813C538.194 60.0605 537.315 59.7501 536.332 59.7501C534.263 59.7501 532.323 60.5778 530.512 62.2333C528.701 63.8888 527.434 66.0099 526.71 68.5965C526.606 69.0621 526.477 69.3208 526.322 69.3725C526.166 69.4243 525.752 69.476 525.08 69.5277H523.994C523.683 69.2173 523.528 68.9328 523.528 68.6741Z" fill="black"/>
</svg>
