<svg width="540" height="112" viewBox="0 0 540 112" fill="none" xmlns="http://www.w3.org/2000/svg">
<path d="M1.8204 72.7089C0.6068 72.7089 0 72.352 0 71.6381C0 71.4953 0.107082 70.9956 0.321247 70.1389C0.6068 68.9967 0.892353 68.3542 1.17791 68.2114C1.46346 68.0687 2.28442 67.9616 3.6408 67.8902C5.56828 67.8902 7.70993 67.7831 10.0657 67.5689C11.0652 67.3548 11.7434 66.9265 12.1003 66.284C12.2431 65.927 14.7774 55.897 19.7031 36.1938C24.6289 16.4907 27.1275 6.49634 27.1989 6.21078C27.1989 5.71107 27.0561 5.46121 26.7706 5.46121C26.1995 5.24704 24.3077 5.06857 21.0952 4.9258H17.7757C17.3473 4.49747 17.1332 4.21191 17.1332 4.06914C17.1332 3.92636 17.2046 3.31956 17.3473 2.24874C17.6329 1.03514 17.9898 0.285563 18.4182 1.00136e-05H76.1355C76.6352 0.285563 76.8851 0.678198 76.8851 1.17792C76.8851 1.53486 76.4211 5.5326 75.493 13.1711C74.565 20.8097 74.0653 24.736 73.9939 24.9502C73.8511 25.4499 73.1372 25.6998 71.8522 25.6998H70.5672C70.0675 25.3428 69.8177 24.8788 69.8177 24.3077C69.8177 24.2363 69.9248 23.3796 70.1389 21.7377C70.3531 20.0958 70.4602 18.204 70.4602 16.0624C70.4602 13.9207 70.2103 12.1717 69.7106 10.8153C69.2109 9.45895 68.5327 8.35243 67.676 7.49577C66.8194 6.63911 65.4987 6.06801 63.714 5.78245C61.9293 5.4969 60.1089 5.24704 58.2528 5.03288C56.3967 4.81871 53.8267 4.78302 50.5429 4.9258H48.08C42.2261 4.99718 39.1207 5.10427 38.7638 5.24704C38.4069 5.38982 38.157 5.67537 38.0142 6.1037C37.9428 6.17509 36.7292 10.851 34.3734 20.1315L30.9468 33.9451H36.8363C37.0505 33.9451 37.8714 33.9451 39.2992 33.9451C40.727 33.9451 41.7264 33.9094 42.2975 33.838C42.8686 33.7666 43.6539 33.6595 44.6533 33.5168C45.6528 33.374 46.5094 33.1241 47.2233 32.7672C47.9372 32.4103 48.544 31.9819 49.0437 31.4822C49.9717 30.6255 50.757 29.4476 51.3995 27.9485C52.042 26.4493 52.506 25.093 52.7916 23.8794C53.0771 22.6658 53.2556 22.0233 53.327 21.9519C53.5412 21.5949 54.2193 21.4165 55.3616 21.4165H56.6465C57.1463 21.7734 57.3961 22.1304 57.3961 22.4873C57.3961 22.7015 56.2896 27.3774 54.0766 36.5151C51.8635 45.6528 50.6499 50.3644 50.4358 50.6499C50.293 51.1497 49.5791 51.3995 48.2941 51.3995H47.0091C46.5094 50.9712 46.2596 50.5429 46.2596 50.1145C46.2596 49.9004 46.438 49.1151 46.795 47.7587C47.1519 46.4023 47.3304 44.9746 47.3304 43.4754C47.3304 41.4052 46.6165 40.1202 45.1887 39.6205C43.761 39.1207 40.5842 38.8709 35.6584 38.8709H29.7689L26.3422 52.4703C24.0578 61.3225 22.9156 65.9627 22.9156 66.391C22.9156 67.3905 26.0924 67.8902 32.4459 67.8902H35.123C35.5513 68.3185 35.7655 68.5684 35.7655 68.6398C35.7655 68.7112 35.6941 69.425 35.5513 70.7814C35.2658 71.7095 34.9088 72.3876 34.4805 72.816H32.6601C29.7332 72.6732 24.3434 72.6018 16.4907 72.6018C11.8504 72.6018 8.31673 72.6018 5.88953 72.6018C3.46233 72.6018 2.10595 72.6375 1.8204 72.7089Z" fill="black"/>
<path d="M67.1242 67.1504C67.1747 66.8475 67.2504 66.4438 67.3514 65.939C67.4523 65.4343 67.7551 64.4754 68.2598 63.0622C68.7646 61.649 69.2693 60.4629 69.774 59.5039C70.2787 58.545 71.1115 57.6113 72.2723 56.7028C73.4332 55.7943 74.594 55.3653 75.7549 55.4157C77.5718 55.4157 79.086 55.87 80.2973 56.7785C81.5086 57.687 82.2657 58.545 82.5685 59.3525C82.8713 60.1601 83.0227 60.69 83.0227 60.9424C83.0227 61.0433 83.048 61.0938 83.0985 61.0938L83.9312 60.261C87.01 57.0308 90.5178 55.4157 94.4545 55.4157C97.18 55.4157 99.3755 56.0971 101.041 57.4598C102.707 58.8226 103.565 60.8162 103.615 63.4407C103.666 66.0652 102.707 70.0272 100.738 75.3267C98.7698 80.6262 97.8109 83.8312 97.8614 84.9416C97.8614 86.2538 98.2904 86.9099 99.1484 86.9099C99.4512 86.9099 99.6783 86.8847 99.8297 86.8342C101.293 86.5819 102.606 85.6229 103.767 83.9574C104.927 82.2918 105.811 80.2729 106.416 77.9008C106.517 77.497 107.022 77.2951 107.93 77.2951C108.94 77.2951 109.445 77.497 109.445 77.9008C109.445 77.9513 109.344 78.3298 109.142 79.0364C108.738 80.5001 108.183 81.9385 107.476 83.3517C106.77 84.7649 105.609 86.1781 103.994 87.5913C102.379 89.0045 100.637 89.6859 98.7698 89.6354C96.3977 89.6354 94.6817 88.954 93.6218 87.5913C92.5619 86.2286 92.0319 84.8154 92.0319 83.3517C92.0319 82.3927 92.9404 79.3645 94.7574 74.2668C96.5743 69.1692 97.5081 65.3334 97.5585 62.7593C97.5585 59.7815 96.4482 58.2926 94.2274 58.2926H93.8489C89.5083 58.2926 85.8492 60.8414 82.8713 65.939L82.3414 66.8475L79.843 76.9923C78.1775 83.6041 77.2185 87.1623 76.9662 87.667C76.31 89.0297 75.2249 89.7111 73.7108 89.7111C73.0546 89.7111 72.5247 89.5597 72.1209 89.2569C71.7171 88.954 71.4395 88.6512 71.2881 88.3484C71.1367 88.0455 71.0862 87.7932 71.1367 87.5913C71.1367 86.9352 72.0957 82.8218 74.0136 75.251C75.9315 67.6803 76.9409 63.5669 77.0419 62.9108C77.0924 62.6584 77.1176 62.078 77.1176 61.1695C77.1176 59.2011 76.5119 58.2169 75.3006 58.2169C73.3827 58.2169 71.7928 60.7405 70.5311 65.7876C70.2282 66.7971 70.0768 67.327 70.0768 67.3775C69.9759 67.6803 69.4964 67.8317 68.6384 67.8317H67.5785C67.2757 67.5289 67.1242 67.3018 67.1242 67.1504Z" fill="black"/>
<path d="M113.911 76.1595C113.911 73.2826 114.391 70.6581 115.35 68.286C116.309 65.9138 117.545 63.9454 119.059 62.3808C120.574 60.8162 122.264 59.5039 124.132 58.444C125.999 57.3841 127.766 56.6018 129.431 56.0971C131.097 55.5924 132.687 55.3653 134.201 55.4157H134.428C136.699 55.4157 138.668 55.9709 140.333 57.0813C141.999 58.1917 142.831 59.832 142.831 62.0023C142.831 66.5447 140.03 69.5225 134.428 70.9357C131.955 71.5918 128.573 71.9451 124.283 71.9956C122.416 71.9956 121.457 72.0461 121.406 72.147C121.406 72.248 121.255 73.1312 120.952 74.7968C120.649 76.4623 120.473 77.926 120.422 79.1878C120.422 81.56 120.952 83.4274 122.012 84.7901C123.072 86.1529 124.662 86.8595 126.782 86.9099C128.901 86.9604 131.248 86.4809 133.822 85.4715C136.396 84.4621 138.718 82.7965 140.787 80.4748C141.242 79.9701 141.544 79.7178 141.696 79.7178C141.898 79.7178 142.226 79.9449 142.68 80.3991C143.134 80.8534 143.387 81.2067 143.437 81.459C143.488 81.7114 143.26 82.1151 142.756 82.6703C142.251 83.2255 141.494 83.9069 140.485 84.7144C139.475 85.522 138.314 86.3043 137.002 87.0614C135.69 87.8184 134.1 88.4493 132.232 88.954C130.365 89.4587 128.447 89.7111 126.479 89.7111C122.491 89.7111 119.413 88.3736 117.242 85.6986C115.072 83.0236 113.962 79.8439 113.911 76.1595ZM139.197 62.1537C138.895 59.5292 137.179 58.2169 134.049 58.2169C132.384 58.2169 130.844 58.5702 129.431 59.2768C128.018 59.9834 126.882 60.8414 126.024 61.8509C125.166 62.8603 124.435 63.895 123.829 64.9549C123.223 66.0148 122.819 66.9232 122.618 67.6803C122.416 68.4374 122.29 68.9169 122.239 69.1187C122.239 69.1692 122.744 69.1945 123.753 69.1945C129.456 69.1945 133.444 68.5888 135.715 67.3775C137.986 66.1662 139.147 64.4249 139.197 62.1537Z" fill="black"/>
<path d="M148.207 59.7311C147.853 59.3778 147.677 59.1254 147.677 58.974C147.677 58.7721 147.752 58.3683 147.904 57.7627C148.055 57.157 148.181 56.8037 148.282 56.7028C148.383 56.4504 148.61 56.3242 148.964 56.3242C149.317 56.3242 150.604 56.299 152.825 56.2485H156.837L158.276 50.1919C158.427 49.6368 158.604 48.9049 158.806 47.9964C159.008 47.088 159.184 46.4318 159.336 46.0281C159.487 45.6243 159.638 45.1196 159.79 44.5139C159.941 43.9083 160.143 43.4792 160.396 43.2269C160.648 42.9745 160.9 42.6717 161.153 42.3184C161.405 41.9651 161.758 41.738 162.212 41.637C162.667 41.5361 163.121 41.4856 163.575 41.4856C164.484 41.5361 165.115 41.8137 165.468 42.3184C165.821 42.8231 165.998 43.3026 165.998 43.7568C165.998 44.1101 165.771 45.2962 165.316 47.3151C164.862 49.3339 164.358 51.3276 163.802 53.2959L163.045 56.0971C163.045 56.1981 164.307 56.2485 166.831 56.2485H170.692C171.045 56.6018 171.222 56.8794 171.222 57.0813C171.222 58.1917 170.894 59.0749 170.237 59.7311H162.137L159.411 70.7086C157.443 78.784 156.459 83.1246 156.459 83.7302C156.459 85.85 157.14 86.9099 158.503 86.9099C160.269 86.9099 161.985 86.0519 163.651 84.3359C165.316 82.6199 166.654 80.5001 167.663 77.9765C167.764 77.6737 167.891 77.497 168.042 77.4465C168.193 77.3961 168.572 77.3456 169.178 77.2951H169.48C170.237 77.2951 170.616 77.497 170.616 77.9008C170.616 78.0522 170.54 78.355 170.389 78.8093C170.136 79.6168 169.682 80.5758 169.026 81.6861C168.37 82.7965 167.512 83.9826 166.452 85.2444C165.392 86.5062 164.105 87.5661 162.591 88.4241C161.077 89.2821 159.537 89.7111 157.973 89.7111C156.459 89.7111 155.02 89.3326 153.658 88.5755C152.295 87.8184 151.311 86.5062 150.705 84.6387C150.604 84.235 150.554 83.5536 150.554 82.5946V81.2319L153.203 70.6329C154.97 63.5164 155.878 59.9329 155.929 59.8825C155.929 59.7815 154.642 59.7311 152.068 59.7311H148.207Z" fill="black"/>
<path d="M174.693 84.8727C174.693 84.3732 174.96 83.5168 175.495 82.3035C176.031 81.0903 176.887 79.8235 178.065 78.5033C179.242 77.183 180.562 76.5407 182.026 76.5764C183.489 76.5764 184.666 76.9867 185.558 77.8074C186.45 78.6282 186.914 79.77 186.95 81.233C186.878 81.911 186.825 82.2857 186.789 82.3571C186.789 82.4641 186.504 83.2848 185.933 84.8192C185.362 86.3536 184.773 88.0842 184.167 90.0111C183.56 91.938 183.274 93.4724 183.31 94.6143C183.31 96.1487 183.56 97.2192 184.059 97.8258C184.559 98.4324 185.308 98.7536 186.308 98.7892C187.128 98.7892 187.895 98.593 188.609 98.2005C189.323 97.8079 189.876 97.3976 190.268 96.9694C190.661 96.5412 191.143 95.9524 191.714 95.2031C191.714 95.1674 191.803 94.8105 191.981 94.1326C192.16 93.4546 192.409 92.4019 192.731 90.9746C193.052 89.5473 193.391 88.227 193.747 87.0137C195.103 81.6612 195.853 78.8601 195.996 78.6103C196.459 77.6469 197.227 77.1651 198.297 77.1651C198.761 77.1651 199.136 77.29 199.421 77.5398C199.707 77.7896 199.903 78.0037 200.01 78.1821C200.117 78.3605 200.153 78.5211 200.117 78.6638C200.117 79.1277 199.243 82.8745 197.494 89.9041C195.746 96.9337 194.747 100.787 194.497 101.465C193.498 104.427 191.767 106.782 189.305 108.531C186.843 110.279 184.381 111.171 181.918 111.207C180.313 111.207 178.903 110.815 177.69 110.029C176.477 109.244 175.87 108.067 175.87 106.497C175.87 105.712 175.995 105.052 176.245 104.516C176.495 103.981 176.834 103.589 177.262 103.339C177.69 103.089 178.047 102.911 178.332 102.804C178.618 102.697 178.921 102.643 179.242 102.643C180.812 102.643 181.597 103.392 181.597 104.891C181.597 105.605 181.383 106.229 180.955 106.764C180.527 107.3 180.116 107.657 179.724 107.835C179.331 108.013 179.099 108.103 179.028 108.103L178.868 108.156C178.939 108.335 179.278 108.549 179.885 108.798C180.491 109.048 181.098 109.173 181.704 109.173H182.133C182.739 109.173 183.203 109.137 183.524 109.066C184.702 108.745 185.79 108.067 186.789 107.032C187.788 105.997 188.556 104.891 189.091 103.714C189.626 102.536 190.036 101.537 190.322 100.716C190.607 99.8954 190.75 99.3602 190.75 99.1104L190.429 99.3245C190.215 99.4672 189.876 99.6635 189.412 99.9133C188.948 100.163 188.484 100.377 188.02 100.556C187.307 100.734 186.611 100.823 185.933 100.823C184.291 100.823 182.846 100.431 181.597 99.6456C180.348 98.8606 179.528 97.5938 179.135 95.8454C179.099 95.5956 179.082 95.0425 179.082 94.1861C179.082 92.1521 179.706 89.4937 180.955 86.2109C182.204 82.928 182.828 80.8405 182.828 79.9484C182.828 79.9128 182.828 79.8771 182.828 79.8414C182.828 79.5202 182.828 79.3061 182.828 79.1991C182.828 79.092 182.757 78.9671 182.614 78.8244C182.472 78.6817 182.275 78.6103 182.026 78.6103H181.811C180.991 78.6103 180.241 78.9493 179.563 79.6273C178.885 80.3053 178.35 81.0368 177.958 81.8218C177.565 82.6068 177.262 83.3562 177.048 84.0699C176.834 84.7835 176.691 85.176 176.619 85.2474C176.548 85.3188 176.263 85.3545 175.763 85.3545H175.014C174.8 85.1404 174.693 84.9798 174.693 84.8727Z" fill="black"/>
<path d="M244.704 35.6584C244.704 34.7304 245.204 34.0165 246.204 33.5168H314.415C315.486 34.0879 316.021 34.8017 316.021 35.6584C316.021 36.4437 315.522 37.1219 314.522 37.693L280.47 37.8001H246.418C245.276 37.4431 244.704 36.7292 244.704 35.6584ZM244.704 56.4324C244.704 55.3616 245.276 54.6477 246.418 54.2907H314.522C315.522 55.0046 316.021 55.7185 316.021 56.4324C316.021 57.3604 315.486 58.0743 314.415 58.574H246.204C245.204 58.0743 244.704 57.3604 244.704 56.4324Z" fill="black"/>
<path d="M354.014 42.0834C354.085 41.655 354.193 41.0839 354.335 40.37C354.478 39.6562 354.906 38.2998 355.62 36.3009C356.334 34.302 357.048 32.6244 357.762 31.268C358.476 29.9117 359.618 28.591 361.189 27.306C362.759 26.021 364.33 25.4142 365.9 25.4856C367.471 25.557 369.006 25.8068 370.505 26.2352C372.004 26.6635 373.075 27.306 373.717 28.1627C374.36 29.0193 374.931 29.8046 375.431 30.5185C375.93 31.2323 376.216 31.9105 376.287 32.553L376.501 33.3026C376.501 33.4454 376.537 33.5168 376.608 33.5168L377.786 32.3389C382.07 27.77 387.103 25.4856 392.885 25.4856C394.099 25.4856 395.205 25.557 396.205 25.6998C397.204 25.8425 398.132 26.0924 398.989 26.4493C399.845 26.8063 400.524 27.1632 401.023 27.5202C401.523 27.8771 402.058 28.3054 402.629 28.8051C403.201 29.3049 403.558 29.7689 403.7 30.1972C403.843 30.6255 404.129 31.0896 404.557 31.5893C404.985 32.089 405.128 32.5173 404.985 32.8743C404.843 33.2312 404.95 33.5525 405.307 33.838C405.663 34.1236 405.735 34.3734 405.521 34.5876L406.377 33.5168C410.875 28.1627 416.193 25.4856 422.333 25.4856C426.188 25.4856 429.293 26.4493 431.649 28.3768C434.005 30.3043 435.218 33.1241 435.29 36.8363C435.29 40.4771 433.933 46.1168 431.22 53.7553C428.508 61.3939 427.151 65.9627 427.151 67.4619C427.223 68.4613 427.401 69.1395 427.687 69.4964C427.972 69.8534 428.508 70.0318 429.293 70.0318C431.292 70.0318 433.148 68.961 434.861 66.8194C436.575 64.6777 437.967 61.7508 439.037 58.0386C439.252 57.2533 439.466 56.7893 439.68 56.6465C439.894 56.5038 440.465 56.4324 441.393 56.4324C442.821 56.4324 443.535 56.7179 443.535 57.289C443.535 57.3604 443.392 57.8958 443.107 58.8953C442.535 60.9655 441.75 63.0001 440.751 64.999C439.751 66.9978 438.109 68.9967 435.825 70.9956C433.541 72.9944 431.078 73.9582 428.436 73.8868C425.081 73.8868 422.654 72.9231 421.155 70.9956C419.656 69.0681 418.906 67.0692 418.906 64.999C418.906 63.6426 420.191 59.3593 422.761 52.1491C425.331 44.9389 426.652 39.5134 426.723 35.8726C426.723 31.6607 425.152 29.5547 422.011 29.5547H421.476C415.337 29.5547 410.161 33.1598 405.949 40.37L405.199 41.655L401.666 56.0041C399.31 65.3559 397.954 70.3888 397.597 71.1027C396.669 73.0301 395.134 73.9939 392.992 73.9939C392.064 73.9939 391.314 73.744 390.743 73.2443C390.172 72.7446 389.78 72.3163 389.565 71.9593C389.351 71.6024 389.244 71.2454 389.244 70.8885C389.244 70.1032 390.458 64.999 392.885 55.5757L396.74 39.9417C396.954 38.8709 397.061 37.5145 397.061 35.8726C397.061 31.6607 395.491 29.5547 392.35 29.5547H391.814C385.675 29.5547 380.499 33.1598 376.287 40.37L375.538 41.655L372.004 56.0041C369.648 65.3559 368.292 70.3888 367.935 71.1027C367.007 73.0301 365.472 73.9939 363.33 73.9939C362.402 73.9939 361.653 73.7797 361.082 73.3514C360.51 72.9231 360.118 72.4947 359.904 72.0664C359.689 71.6381 359.618 71.2811 359.689 70.9956C359.689 70.0675 361.046 64.2137 363.759 53.4341C366.543 42.4403 367.935 36.6935 367.935 36.1938C368.149 35.123 368.256 34.1593 368.256 33.3026C368.256 30.7326 367.364 29.4476 365.579 29.4476C364.008 29.4476 362.688 30.4471 361.617 32.4459C360.546 34.4448 359.725 36.6222 359.154 38.978C358.583 41.3338 358.155 42.6188 357.869 42.8329C357.726 42.9757 357.155 43.0471 356.156 43.0471H354.657C354.228 42.6188 354.014 42.2975 354.014 42.0834Z" fill="black"/>
<path d="M449.317 56.004C449.317 48.7938 452.03 41.9406 457.456 35.4442C462.881 28.9479 468.985 25.664 475.767 25.5927C479.408 25.5927 482.62 27.3417 485.404 30.8397C486.546 28.698 488.188 27.6272 490.33 27.6272C491.258 27.6272 492.079 27.9128 492.793 28.4839C493.507 29.055 493.864 29.7689 493.864 30.6255C493.864 31.5536 492.543 37.2646 489.902 47.7587C487.26 58.2528 485.904 64.178 485.833 65.5344C485.833 67.3191 486.082 68.497 486.582 69.0681C487.082 69.6392 487.831 69.9604 488.831 70.0318C489.473 69.9604 490.187 69.6392 490.972 69.0681C492.472 67.6403 493.935 64.2137 495.363 58.7882C495.791 57.3604 496.148 56.6108 496.434 56.5394C496.576 56.4681 496.933 56.4324 497.505 56.4324H497.933C499.289 56.4324 499.967 56.7536 499.967 57.3961C499.967 57.8244 499.789 58.7882 499.432 60.2873C499.075 61.7865 498.361 63.714 497.29 66.0698C496.22 68.4256 495.077 70.2103 493.864 71.4239C492.936 72.3519 491.793 73.1015 490.437 73.6726C489.866 73.8154 489.009 73.8868 487.867 73.8868C485.44 73.8868 483.405 73.3514 481.763 72.2805C480.121 71.2097 479.051 70.1032 478.551 68.961L477.908 67.3548C477.837 67.2834 477.694 67.3191 477.48 67.4618C477.337 67.6046 477.195 67.7474 477.052 67.8902C472.84 71.8879 468.557 73.8868 464.202 73.8868C460.276 73.8868 456.813 72.459 453.815 69.6035C450.817 66.748 449.317 62.2148 449.317 56.004ZM483.37 37.693C483.37 37.2646 483.191 36.4794 482.834 35.3371C482.477 34.1949 481.656 32.9456 480.371 31.5893C479.086 30.2329 477.444 29.519 475.446 29.4476C472.947 29.4476 470.555 30.5541 468.271 32.7672C465.987 34.9802 464.202 37.8714 462.917 41.4408C460.847 47.0805 459.383 52.9343 458.527 59.0023C458.527 59.2165 458.527 59.6091 458.527 60.1802C458.527 60.7513 458.491 61.1797 458.419 61.4652C458.419 64.6777 459.062 66.8907 460.347 68.1043C461.632 69.3179 463.167 69.9604 464.951 70.0318C467.664 70.0318 470.341 68.8539 472.983 66.4981C475.624 64.1423 477.195 62.3219 477.694 61.0369C477.837 60.7513 478.801 56.9321 480.585 49.5791C482.37 42.2261 483.298 38.2641 483.37 37.693Z" fill="black"/>
<path d="M504.02 67.1504C504.02 66.4438 504.399 65.2324 505.156 63.5164C505.913 61.8004 507.124 60.0086 508.79 58.1412C510.455 56.2738 512.323 55.3653 514.392 55.4157C516.461 55.4157 518.127 55.9962 519.389 57.157C520.651 58.3179 521.307 59.9329 521.357 62.0023C521.256 62.9612 521.181 63.4912 521.13 63.5921C521.13 63.7435 520.726 64.9044 519.919 67.0747C519.111 69.2449 518.278 71.6928 517.42 74.4183C516.562 77.1437 516.159 79.314 516.209 80.9291C516.209 83.0993 516.562 84.6135 517.269 85.4715C517.976 86.3295 519.035 86.7838 520.449 86.8342C521.61 86.8342 522.695 86.5566 523.704 86.0015C524.714 85.4463 525.496 84.8658 526.051 84.2602C526.606 83.6545 527.288 82.8217 528.095 81.7618C528.095 81.7114 528.221 81.2067 528.474 80.2477C528.726 79.2887 529.079 77.7998 529.534 75.781C529.988 73.7621 530.467 71.8947 530.972 70.1786C532.89 62.6079 533.95 58.6459 534.152 58.2926C534.808 56.9299 535.893 56.2485 537.407 56.2485C538.063 56.2485 538.593 56.4252 538.997 56.7785C539.401 57.1318 539.678 57.4346 539.83 57.687C539.981 57.9393 540.032 58.1664 539.981 58.3683C539.981 59.0245 538.745 64.324 536.271 74.2668C533.798 84.2097 532.385 89.6606 532.032 90.6196C530.619 94.8087 528.171 98.1398 524.688 100.613C521.206 103.086 517.723 104.348 514.241 104.398C511.969 104.398 509.976 103.843 508.26 102.733C506.544 101.622 505.686 99.9568 505.686 97.7361C505.686 96.6257 505.862 95.692 506.216 94.9349C506.569 94.1778 507.048 93.6226 507.654 93.2693C508.26 92.916 508.765 92.6637 509.168 92.5123C509.572 92.3609 510.001 92.2851 510.455 92.2851C512.676 92.2851 513.786 93.345 513.786 95.4649C513.786 96.4743 513.484 97.3575 512.878 98.1146C512.272 98.8717 511.692 99.3764 511.137 99.6287C510.581 99.8811 510.253 100.007 510.152 100.007L509.925 100.083C510.026 100.335 510.506 100.638 511.364 100.991C512.222 101.345 513.08 101.521 513.938 101.521H514.544C515.402 101.521 516.058 101.471 516.512 101.37C518.177 100.916 519.717 99.9568 521.13 98.4931C522.543 97.0295 523.628 95.4649 524.385 93.7993C525.143 92.1337 525.723 90.7205 526.127 89.5597C526.53 88.3988 526.732 87.6418 526.732 87.2885L526.278 87.5913C525.975 87.7932 525.496 88.0708 524.84 88.4241C524.184 88.7774 523.527 89.0802 522.871 89.3326C521.862 89.5849 520.878 89.7111 519.919 89.7111C517.597 89.7111 515.553 89.1559 513.786 88.0455C512.02 86.9352 510.859 85.1434 510.304 82.6703C510.253 82.317 510.228 81.5347 510.228 80.3234C510.228 77.4465 511.111 73.6864 512.878 69.043C514.644 64.3997 515.528 61.4471 515.528 60.1853C515.528 60.1348 515.528 60.0844 515.528 60.0339C515.528 59.5796 515.528 59.2768 515.528 59.1254C515.528 58.974 515.427 58.7973 515.225 58.5954C515.023 58.3936 514.745 58.2926 514.392 58.2926H514.089C512.928 58.2926 511.869 58.7721 510.91 59.7311C509.951 60.69 509.194 61.7247 508.638 62.835C508.083 63.9454 507.654 65.0053 507.351 66.0148C507.048 67.0242 506.847 67.5794 506.746 67.6803C506.645 67.7813 506.241 67.8317 505.534 67.8317H504.474C504.172 67.5289 504.02 67.3018 504.02 67.1504Z" fill="black"/>
</svg>
