<svg width="200" height="184" viewBox="0 0 200 184" fill="none" xmlns="http://www.w3.org/2000/svg">
<path d="M0 91.8274C0 83.3793 0.612182 75.3597 1.83655 67.7687C3.06091 60.1776 4.46893 53.6272 6.06061 48.1176C7.65228 42.608 9.91736 37.2208 12.8558 31.956C15.7943 26.6912 18.1206 22.5896 19.8347 19.6511C21.5488 16.7126 24.12 13.5293 27.5482 10.1011C30.9764 6.67285 32.9966 4.59143 33.6088 3.85681C34.221 3.12219 35.7515 1.83661 38.2002 5.96046e-05H40.5877H41.3223C43.0364 5.96046e-05 43.8935 0.551024 43.8935 1.65295C43.8935 2.02026 42.8528 3.30584 40.7713 5.5097C38.6899 7.71356 36.18 10.9581 33.2415 15.2434C30.303 19.5287 27.3033 24.7934 24.2424 31.0377C21.1815 37.282 18.6103 45.7301 16.5289 56.3821C14.4475 67.034 13.4068 78.8492 13.4068 91.8274C13.4068 104.806 14.4475 116.56 16.5289 127.089C18.6103 137.619 21.1203 146.128 24.0588 152.617C26.9972 159.106 29.9969 164.371 33.0579 168.411C36.1188 172.452 38.6899 175.696 40.7713 178.145C42.8528 180.594 43.8935 181.879 43.8935 182.002C43.8935 183.104 42.9752 183.655 41.1387 183.655H40.5877H38.2002L33.0579 179.247C21.5488 168.84 13.1619 155.862 7.89715 140.312C2.63238 124.763 0 108.601 0 91.8274Z" fill="black"/>
<path d="M93.2966 31.5888L90.9091 32.5071C89.195 33.1192 86.7462 33.7314 83.5629 34.3436C80.3795 34.9558 76.8289 35.3843 72.9109 35.6292H69.4215V27.1811H72.9109C78.6654 26.9362 83.9914 26.0179 88.8889 24.4263C93.7863 22.8346 97.2146 21.3653 99.1735 20.0185C101.133 18.6717 102.847 17.3249 104.316 15.9781C104.561 15.6108 105.295 15.4272 106.52 15.4272C107.622 15.4272 108.662 15.7945 109.642 16.5291V71.4419L109.826 126.538C110.683 127.395 111.417 127.946 112.029 128.191C112.642 128.436 114.111 128.681 116.437 128.926C118.763 129.171 122.559 129.293 127.824 129.293H132.599V137.741H130.579C128.007 137.374 118.274 137.19 101.377 137.19C84.726 137.19 75.1148 137.374 72.5436 137.741H70.3398V129.293H75.1148C77.8084 129.293 80.1347 129.293 82.0937 129.293C84.0526 129.293 85.5831 129.232 86.685 129.109C87.787 128.987 88.7664 128.803 89.6235 128.558C90.4806 128.314 90.9703 128.191 91.0927 128.191C91.2152 128.191 91.5825 127.885 92.1947 127.273C92.8068 126.661 93.1742 126.416 93.2966 126.538V31.5888Z" fill="black"/>
<path d="M157.025 0.183714L157.759 5.96046e-05C158.372 5.96046e-05 158.984 5.96046e-05 159.596 5.96046e-05H161.8L166.942 4.40777C178.451 14.8149 186.838 27.7931 192.103 43.3426C197.368 58.892 200 75.0536 200 91.8274C200 100.153 199.388 108.173 198.163 115.886C196.939 123.6 195.531 130.15 193.939 135.537C192.348 140.924 190.083 146.312 187.144 151.699C184.206 157.086 181.879 161.188 180.165 164.004C178.451 166.82 175.941 169.942 172.635 173.37C169.33 176.798 167.371 178.819 166.758 179.431C166.146 180.043 164.738 181.206 162.534 182.92C162.167 183.287 161.922 183.532 161.8 183.655H159.596C158.616 183.655 157.943 183.655 157.576 183.655C157.208 183.655 156.902 183.471 156.657 183.104C156.413 182.737 156.229 182.186 156.107 181.451C156.229 181.328 156.902 180.533 158.127 179.063C177.104 159.351 186.593 130.272 186.593 91.8274C186.593 53.3824 177.104 24.3037 158.127 4.59143C156.902 3.12219 156.229 2.32635 156.107 2.20392C156.107 1.22442 156.413 0.551024 157.025 0.183714Z" fill="black"/>
</svg>
