<svg width="201" height="200" viewBox="0 0 201 200" fill="none" xmlns="http://www.w3.org/2000/svg">
<path d="M0.648193 104.065C0.648193 104.065 0.648193 102.764 0.648193 100.161C0.648193 97.5585 2.04959 95.5565 4.8524 94.1551H94.6422V49.11L94.9425 4.06498C96.9445 1.46238 98.8464 0.161079 100.648 0.161079C103.251 0.161079 105.253 1.66258 106.654 4.66558V94.1551H196.144C199.147 95.7567 200.648 97.7587 200.648 100.161C200.648 102.563 199.147 104.565 196.144 106.167H106.654V195.657C105.053 198.459 103.251 199.861 101.249 199.861H100.648H100.048C97.6452 199.861 95.8434 198.459 94.6422 195.657V106.167H4.8524C2.04959 104.766 0.648193 102.764 0.648193 100.161V104.065Z" fill="black"/>
</svg>
