<svg width="800" height="86" viewBox="0 0 800 86" fill="none" xmlns="http://www.w3.org/2000/svg">
<path d="M1.53308 61.3916C0.511025 61.3916 0 61.091 0 60.4898C0 60.3696 0.0901809 59.9487 0.270543 59.2273C0.511025 58.2654 0.751508 57.7243 0.99199 57.604C1.23247 57.4838 1.92386 57.3936 3.06615 57.3335C4.68941 57.3335 6.49303 57.2433 8.47701 57.0629C9.3187 56.8826 9.88984 56.5219 10.1904 55.9808C10.3107 55.6802 12.445 47.2332 16.5933 30.6399C20.7416 14.0466 22.8458 5.62975 22.906 5.38927C22.906 4.96842 22.7857 4.758 22.5452 4.758C22.0643 4.57764 20.4711 4.42734 17.7656 4.30709H14.97C14.6093 3.94637 14.429 3.70589 14.429 3.58565C14.429 3.46541 14.4891 2.95438 14.6093 2.05257C14.8498 1.03052 15.1504 0.399254 15.5111 0.158772H64.1186C64.5395 0.399254 64.7499 0.729918 64.7499 1.15076C64.7499 1.45137 64.3591 4.81812 63.5776 11.251C62.796 17.6839 62.3752 20.9906 62.315 21.1709C62.1948 21.5918 61.5936 21.8022 60.5114 21.8022H59.4292C59.0084 21.5016 58.798 21.1108 58.798 20.6298C58.798 20.5697 58.8882 19.8483 59.0685 18.4655C59.2489 17.0827 59.3391 15.4895 59.3391 13.6859C59.3391 11.8823 59.1286 10.4093 58.7078 9.26705C58.2869 8.12475 57.7158 7.19289 56.9944 6.47144C56.2729 5.74999 55.1607 5.26903 53.6577 5.02854C52.1546 4.78806 50.6216 4.57764 49.0584 4.39728C47.4953 4.21691 45.331 4.18685 42.5654 4.30709H40.4912C35.5614 4.36722 32.9461 4.4574 32.6455 4.57764C32.3449 4.69788 32.1345 4.93836 32.0142 5.29909C31.9541 5.35921 30.9321 9.29711 28.9481 17.1128L26.0623 28.7461H31.0222C31.2026 28.7461 31.894 28.7461 33.0964 28.7461C34.2988 28.7461 35.1405 28.7161 35.6215 28.6559C36.1024 28.5958 36.7638 28.5056 37.6055 28.3854C38.4471 28.2652 39.1686 28.0547 39.7698 27.7541C40.371 27.4535 40.882 27.0928 41.3029 26.672C42.0844 25.9505 42.7458 24.9585 43.2869 23.696C43.8279 22.4335 44.2187 21.2912 44.4592 20.2691C44.6997 19.2471 44.85 18.706 44.9101 18.6459C45.0905 18.3453 45.6616 18.195 46.6235 18.195H47.7057C48.1266 18.4956 48.337 18.7962 48.337 19.0968C48.337 19.2771 47.4051 23.215 45.5414 30.9105C43.6776 38.6059 42.6556 42.5739 42.4752 42.8144C42.355 43.2352 41.7538 43.4456 40.6716 43.4456H39.5894C39.1686 43.0849 38.9582 42.7242 38.9582 42.3635C38.9582 42.1831 39.1085 41.5218 39.4091 40.3795C39.7097 39.2372 39.86 38.0348 39.86 36.7722C39.86 35.0287 39.2588 33.9466 38.0564 33.5257C36.8539 33.1049 34.1786 32.8945 30.0303 32.8945H25.0703L22.1845 44.3474C20.2607 51.8024 19.2987 55.7102 19.2987 56.071C19.2987 56.9126 21.9741 57.3335 27.3248 57.3335H29.5793C29.9401 57.6942 30.1204 57.9046 30.1204 57.9648C30.1204 58.0249 30.0603 58.6261 29.9401 59.7684C29.6996 60.5499 29.399 61.1211 29.0383 61.4818H27.5052C25.0402 61.3616 20.5011 61.3014 13.8879 61.3014C9.98002 61.3014 7.00405 61.3014 4.95995 61.3014C2.91585 61.3014 1.77356 61.3315 1.53308 61.3916Z" fill="black"/>
<path d="M68.7712 38.157L67.9423 38.4757C67.3473 38.6883 66.4972 38.9008 65.392 39.1133C64.2869 39.3258 63.0542 39.4746 61.6941 39.5596H60.4827V36.6268H61.6941C63.6918 36.5418 65.5408 36.223 67.241 35.6704C68.9412 35.1178 70.1314 34.6078 70.8115 34.1402C71.4915 33.6726 72.0866 33.2051 72.5967 32.7375C72.6817 32.61 72.9367 32.5463 73.3618 32.5463C73.7443 32.5463 74.1056 32.6738 74.4457 32.9288V51.9924L74.5094 71.1198C74.8069 71.4173 75.062 71.6086 75.2745 71.6936C75.487 71.7786 75.9971 71.8636 76.8047 71.9487C77.6123 72.0337 78.93 72.0762 80.7577 72.0762H82.4154V75.009H81.7141C80.8214 74.8815 77.4423 74.8178 71.5765 74.8178C65.7958 74.8178 62.4592 74.8815 61.5666 75.009H60.8015V72.0762H62.4592C63.3943 72.0762 64.2019 72.0762 64.882 72.0762C65.562 72.0762 66.0934 72.0549 66.4759 72.0124C66.8585 71.9699 67.1985 71.9061 67.496 71.8211C67.7936 71.7361 67.9636 71.6936 68.0061 71.6936C68.0486 71.6936 68.1761 71.5874 68.3886 71.3748C68.6012 71.1623 68.7287 71.0773 68.7712 71.1198V38.157Z" fill="black"/>
<path d="M89.4138 71.5455C89.6241 70.2834 90.4355 68.8259 91.8479 67.1731C93.2603 65.5203 95.0033 64.6788 97.0768 64.6488C98.1286 64.6488 99.0903 64.9192 99.9617 65.4602C100.833 66.0011 101.479 66.6772 101.9 67.4886C103.162 65.5954 104.68 64.6488 106.453 64.6488C107.565 64.6488 108.526 64.9794 109.338 65.6405C110.149 66.3016 110.57 67.1881 110.6 68.3C110.6 69.1715 110.39 69.8777 109.969 70.4186C109.548 70.9595 109.142 71.2901 108.752 71.4103C108.361 71.5305 108.015 71.5906 107.715 71.5906C107.144 71.5906 106.678 71.4253 106.318 71.0948C105.957 70.7642 105.777 70.3285 105.777 69.7875C105.777 68.4052 106.528 67.4586 108.031 66.9477C107.7 66.557 107.099 66.3617 106.227 66.3617C105.837 66.3617 105.551 66.3918 105.371 66.4519C104.229 66.9327 103.388 67.9244 102.847 69.4269C101.044 76.0683 100.142 79.9449 100.142 81.0568C100.142 81.8982 100.382 82.4992 100.863 82.8598C101.344 83.2205 101.87 83.4008 102.441 83.4008C103.553 83.4008 104.65 82.9049 105.732 81.9132C106.813 80.9215 107.55 79.7045 107.94 78.262C108.031 77.9615 108.121 77.7962 108.211 77.7662C108.301 77.7361 108.541 77.7061 108.932 77.676H109.112C109.563 77.676 109.789 77.7962 109.789 78.0366C109.789 78.0667 109.758 78.2319 109.698 78.5325C109.218 80.2454 108.286 81.763 106.904 83.0852C105.521 84.4075 103.913 85.0686 102.08 85.0686C99.9768 85.0686 98.3841 84.122 97.3022 82.2288C96.0701 84.0919 94.6577 85.0235 93.065 85.0235H92.7945C91.322 85.0235 90.2702 84.6329 89.6392 83.8515C89.0081 83.0702 88.6775 82.2438 88.6475 81.3723C88.6475 80.4107 88.9329 79.6293 89.5039 79.0283C90.0749 78.4273 90.751 78.1268 91.5324 78.1268C92.8246 78.1268 93.4707 78.7578 93.4707 80.02C93.4707 80.621 93.2904 81.1469 92.9298 81.5977C92.5691 82.0485 92.2236 82.349 91.893 82.4992C91.5624 82.6495 91.3671 82.7246 91.307 82.7246L91.1718 82.7697C91.1718 82.7997 91.2619 82.8598 91.4422 82.95C91.6225 83.0401 91.8629 83.1453 92.1635 83.2655C92.464 83.3857 92.7495 83.4308 93.0199 83.4008C94.1018 83.4008 95.0333 82.7246 95.8147 81.3723C96.0851 80.8915 96.4307 79.8697 96.8514 78.3071C97.2722 76.7444 97.6929 75.1216 98.1136 73.4388C98.5343 71.7559 98.7747 70.7642 98.8348 70.4637C98.9851 69.6523 99.0602 69.0663 99.0602 68.7057C99.0602 67.8643 98.8348 67.2632 98.3841 66.9026C97.9333 66.542 97.4224 66.3617 96.8514 66.3617C95.6494 66.3617 94.5225 66.8425 93.4707 67.8042C92.4189 68.7658 91.6826 69.9979 91.2619 71.5005C91.2018 71.7709 91.1267 71.9212 91.0365 71.9512C90.9464 71.9813 90.706 72.0113 90.3153 72.0414H89.6842C89.5039 71.8611 89.4138 71.6958 89.4138 71.5455Z" fill="black"/>
<path d="M145.651 40.1091C145.651 40.1091 145.651 39.7183 145.651 38.9368C145.651 38.1552 146.072 37.554 146.914 37.1331H173.878V23.606L173.968 10.0789C174.569 9.29729 175.14 8.90651 175.681 8.90651C176.463 8.90651 177.064 9.35741 177.485 10.2592V37.1331H204.359C205.261 37.6141 205.712 38.2153 205.712 38.9368C205.712 39.6582 205.261 40.2594 204.359 40.7404H177.485V67.6143C177.004 68.456 176.463 68.8768 175.862 68.8768H175.681H175.501C174.78 68.8768 174.239 68.456 173.878 67.6143V40.7404H146.914C146.072 40.3195 145.651 39.7183 145.651 38.9368V40.1091Z" fill="black"/>
<path d="M235.138 61.3916C234.116 61.3916 233.605 61.091 233.605 60.4898C233.605 60.3696 233.695 59.9487 233.875 59.2273C234.116 58.2654 234.356 57.7243 234.597 57.604C234.837 57.4838 235.529 57.3936 236.671 57.3335C238.294 57.3335 240.098 57.2433 242.082 57.0629C242.923 56.8826 243.495 56.5219 243.795 55.9808C243.915 55.6802 246.05 47.2332 250.198 30.6399C254.346 14.0466 256.451 5.62975 256.511 5.38927C256.511 4.96842 256.39 4.758 256.15 4.758C255.669 4.57764 254.076 4.42734 251.37 4.30709H248.575C248.214 3.94637 248.034 3.70589 248.034 3.58565C248.034 3.46541 248.094 2.95438 248.214 2.05257C248.455 1.03052 248.755 0.399254 249.116 0.158772H297.723C298.144 0.399254 298.355 0.729918 298.355 1.15076C298.355 1.45137 297.964 4.81812 297.182 11.251C296.401 17.6839 295.98 20.9906 295.92 21.1709C295.8 21.5918 295.198 21.8022 294.116 21.8022H293.034C292.613 21.5016 292.403 21.1108 292.403 20.6298C292.403 20.5697 292.493 19.8483 292.673 18.4655C292.854 17.0827 292.944 15.4895 292.944 13.6859C292.944 11.8823 292.733 10.4093 292.313 9.26705C291.892 8.12475 291.321 7.19289 290.599 6.47144C289.878 5.74999 288.765 5.26903 287.262 5.02854C285.759 4.78806 284.226 4.57764 282.663 4.39728C281.1 4.21691 278.936 4.18685 276.17 4.30709H274.096C269.166 4.36722 266.551 4.4574 266.25 4.57764C265.95 4.69788 265.739 4.93836 265.619 5.29909C265.559 5.35921 264.537 9.29711 262.553 17.1128L259.667 28.7461H264.627C264.807 28.7461 265.499 28.7461 266.701 28.7461C267.904 28.7461 268.745 28.7161 269.226 28.6559C269.707 28.5958 270.368 28.5056 271.21 28.3854C272.052 28.2652 272.773 28.0547 273.375 27.7541C273.976 27.4535 274.487 27.0928 274.908 26.672C275.689 25.9505 276.351 24.9585 276.892 23.696C277.433 22.4335 277.823 21.2912 278.064 20.2691C278.304 19.2471 278.455 18.706 278.515 18.6459C278.695 18.3453 279.266 18.195 280.228 18.195H281.31C281.731 18.4956 281.942 18.7962 281.942 19.0968C281.942 19.2771 281.01 23.215 279.146 30.9105C277.282 38.6059 276.26 42.5739 276.08 42.8144C275.96 43.2352 275.359 43.4456 274.276 43.4456H273.194C272.773 43.0849 272.563 42.7242 272.563 42.3635C272.563 42.1831 272.713 41.5218 273.014 40.3795C273.314 39.2372 273.465 38.0348 273.465 36.7722C273.465 35.0287 272.864 33.9466 271.661 33.5257C270.459 33.1049 267.783 32.8945 263.635 32.8945H258.675L255.789 44.3474C253.865 51.8024 252.903 55.7102 252.903 56.071C252.903 56.9126 255.579 57.3335 260.93 57.3335H263.184C263.545 57.6942 263.725 57.9046 263.725 57.9648C263.725 58.0249 263.665 58.6261 263.545 59.7684C263.304 60.5499 263.004 61.1211 262.643 61.4818H261.11C258.645 61.3616 254.106 61.3014 247.493 61.3014C243.585 61.3014 240.609 61.3014 238.565 61.3014C236.521 61.3014 235.378 61.3315 235.138 61.3916Z" fill="black"/>
<path d="M295.745 47.6569C294.597 47.6569 293.684 47.2743 293.004 46.5092C292.323 45.7441 291.983 44.809 291.983 43.7039C291.983 40.686 293.11 38.0719 295.363 35.8617C297.615 33.6514 300.421 32.5463 303.779 32.5463C307.647 32.5463 310.877 33.7364 313.47 36.1167C316.063 38.497 317.38 41.5786 317.423 45.3616C317.423 47.1893 316.998 48.932 316.148 50.5897C315.298 52.2475 314.277 53.6926 313.087 54.9253C311.897 56.1579 310.197 57.7306 307.987 59.6434C306.456 60.961 304.331 62.9163 301.611 65.5091L297.849 69.0795L302.695 69.1433C309.368 69.1433 312.917 69.037 313.342 68.8245C313.64 68.7395 314.15 66.848 314.872 63.1501V62.9588H317.423V63.1501C317.38 63.2776 317.104 65.2116 316.594 68.952C316.084 72.6925 315.765 74.6477 315.638 74.8178V75.009H291.983V73.7976V73.0325C291.983 72.735 292.111 72.4162 292.366 72.0762C292.621 71.7361 293.259 70.9923 294.279 69.8446C295.511 68.4845 296.574 67.2943 297.467 66.2742C297.849 65.8491 298.572 65.0628 299.634 63.9152C300.697 62.7675 301.42 61.9812 301.802 61.5561C302.185 61.1311 302.801 60.4297 303.651 59.4521C304.501 58.4745 305.096 57.7519 305.436 57.2843C305.776 56.8168 306.265 56.1792 306.903 55.3716C307.54 54.564 307.987 53.8839 308.242 53.3313C308.497 52.7788 308.815 52.1624 309.198 51.4824C309.581 50.8023 309.857 50.1222 310.027 49.4421C310.197 48.762 310.346 48.1244 310.473 47.5294C310.601 46.9343 310.664 46.233 310.664 45.4254C310.664 42.7475 309.942 40.431 308.497 38.4757C307.052 36.5205 304.99 35.5429 302.312 35.5429C300.91 35.5429 299.677 35.9042 298.614 36.6268C297.552 37.3494 296.808 38.0507 296.383 38.7308C295.958 39.4109 295.745 39.8147 295.745 39.9422C295.745 39.9847 295.851 40.0059 296.064 40.0059C296.829 40.0059 297.615 40.3035 298.423 40.8985C299.231 41.4936 299.634 42.4712 299.634 43.8314C299.634 44.894 299.294 45.7867 298.614 46.5092C297.934 47.2318 296.978 47.6144 295.745 47.6569Z" fill="black"/>
<path d="M323.019 71.5455C323.229 70.2834 324.04 68.8259 325.453 67.1731C326.865 65.5203 328.608 64.6788 330.682 64.6488C331.733 64.6488 332.695 64.9192 333.566 65.4602C334.438 66.0011 335.084 66.6772 335.505 67.4886C336.767 65.5954 338.285 64.6488 340.058 64.6488C341.169 64.6488 342.131 64.9794 342.942 65.6405C343.754 66.3016 344.175 67.1881 344.205 68.3C344.205 69.1715 343.994 69.8777 343.574 70.4186C343.153 70.9595 342.747 71.2901 342.356 71.4103C341.966 71.5305 341.62 71.5906 341.32 71.5906C340.749 71.5906 340.283 71.4253 339.922 71.0948C339.562 70.7642 339.381 70.3285 339.381 69.7875C339.381 68.4052 340.133 67.4586 341.635 66.9477C341.305 66.557 340.704 66.3617 339.832 66.3617C339.442 66.3617 339.156 66.3918 338.976 66.4519C337.834 66.9327 336.992 67.9244 336.451 69.4269C334.648 76.0683 333.747 79.9449 333.747 81.0568C333.747 81.8982 333.987 82.4992 334.468 82.8598C334.949 83.2205 335.475 83.4008 336.046 83.4008C337.158 83.4008 338.254 82.9049 339.336 81.9132C340.418 80.9215 341.154 79.7045 341.545 78.262C341.635 77.9615 341.725 77.7962 341.816 77.7662C341.906 77.7361 342.146 77.7061 342.537 77.676H342.717C343.168 77.676 343.393 77.7962 343.393 78.0366C343.393 78.0667 343.363 78.2319 343.303 78.5325C342.822 80.2454 341.891 81.763 340.508 83.0852C339.126 84.4075 337.518 85.0686 335.685 85.0686C333.582 85.0686 331.989 84.122 330.907 82.2288C329.675 84.0919 328.262 85.0235 326.67 85.0235H326.399C324.927 85.0235 323.875 84.6329 323.244 83.8515C322.613 83.0702 322.282 82.2438 322.252 81.3723C322.252 80.4107 322.538 79.6293 323.109 79.0283C323.68 78.4273 324.356 78.1268 325.137 78.1268C326.429 78.1268 327.075 78.7578 327.075 80.02C327.075 80.621 326.895 81.1469 326.534 81.5977C326.174 82.0485 325.828 82.349 325.498 82.4992C325.167 82.6495 324.972 82.7246 324.912 82.7246L324.777 82.7697C324.777 82.7997 324.867 82.8598 325.047 82.95C325.227 83.0401 325.468 83.1453 325.768 83.2655C326.069 83.3857 326.354 83.4308 326.625 83.4008C327.706 83.4008 328.638 82.7246 329.419 81.3723C329.69 80.8915 330.035 79.8697 330.456 78.3071C330.877 76.7444 331.298 75.1216 331.718 73.4388C332.139 71.7559 332.379 70.7642 332.44 70.4637C332.59 69.6523 332.665 69.0663 332.665 68.7057C332.665 67.8643 332.44 67.2632 331.989 66.9026C331.538 66.542 331.027 66.3617 330.456 66.3617C329.254 66.3617 328.127 66.8425 327.075 67.8042C326.024 68.7658 325.287 69.9979 324.867 71.5005C324.807 71.7709 324.731 71.9212 324.641 71.9512C324.551 71.9813 324.311 72.0113 323.92 72.0414H323.289C323.109 71.8611 323.019 71.6958 323.019 71.5455Z" fill="black"/>
<path d="M359.218 40.1091C359.218 40.1091 359.218 39.7183 359.218 38.9368C359.218 38.1552 359.639 37.554 360.48 37.1331H387.444V23.606L387.535 10.0789C388.136 9.29729 388.707 8.90651 389.248 8.90651C390.03 8.90651 390.631 9.35741 391.052 10.2592V37.1331H417.926C418.827 37.6141 419.278 38.2153 419.278 38.9368C419.278 39.6582 418.827 40.2594 417.926 40.7404H391.052V67.6143C390.571 68.456 390.03 68.8768 389.428 68.8768H389.248H389.068C388.346 68.8768 387.805 68.456 387.444 67.6143V40.7404H360.48C359.639 40.3195 359.218 39.7183 359.218 38.9368V40.1091Z" fill="black"/>
<path d="M431.362 56.071C431.362 54.6281 431.873 53.3655 432.895 52.2834C433.918 51.2012 435.21 50.6601 436.773 50.6601C438.216 50.6601 439.479 51.1411 440.561 52.103C441.643 53.0649 442.214 54.3575 442.274 55.9808C442.274 57.4838 441.763 58.7764 440.741 59.8586C439.719 60.9407 438.427 61.4818 436.863 61.4818C435.3 61.4818 434.008 60.9708 432.986 59.9487C431.964 58.9267 431.423 57.6341 431.362 56.071Z" fill="black"/>
<path d="M471.457 56.071C471.457 54.6281 471.968 53.3655 472.99 52.2834C474.012 51.2012 475.305 50.6601 476.868 50.6601C478.311 50.6601 479.573 51.1411 480.655 52.103C481.738 53.0649 482.309 54.3575 482.369 55.9808C482.369 57.4838 481.858 58.7764 480.836 59.8586C479.814 60.9407 478.521 61.4818 476.958 61.4818C475.395 61.4818 474.102 60.9708 473.08 59.9487C472.058 58.9267 471.517 57.6341 471.457 56.071Z" fill="black"/>
<path d="M511.56 56.071C511.56 54.6281 512.071 53.3655 513.094 52.2834C514.116 51.2012 515.408 50.6601 516.971 50.6601C518.414 50.6601 519.677 51.1411 520.759 52.103C521.841 53.0649 522.412 54.3575 522.472 55.9808C522.472 57.4838 521.961 58.7764 520.939 59.8586C519.917 60.9407 518.625 61.4818 517.061 61.4818C515.498 61.4818 514.206 60.9708 513.184 59.9487C512.162 58.9267 511.621 57.6341 511.56 56.071Z" fill="black"/>
<path d="M549.68 30.1889C549.68 29.4074 550.101 28.8062 550.942 28.3853H608.388C609.289 28.8663 609.74 29.4675 609.74 30.1889C609.74 30.8503 609.319 31.4214 608.478 31.9024L579.8 31.9926H551.123C550.161 31.692 549.68 31.0908 549.68 30.1889ZM549.68 47.6841C549.68 46.7822 550.161 46.181 551.123 45.8804H608.478C609.319 46.4816 609.74 47.0828 609.74 47.6841C609.74 48.4656 609.289 49.0668 608.388 49.4877H550.942C550.101 49.0668 549.68 48.4656 549.68 47.6841Z" fill="black"/>
<path d="M641.728 35.6C641.788 35.2392 641.878 34.7583 641.998 34.1571C642.118 33.5559 642.479 32.4136 643.08 30.7302C643.681 29.0468 644.283 27.634 644.884 26.4917C645.485 25.3494 646.447 24.2372 647.77 23.155C649.092 22.0728 650.415 21.5618 651.738 21.6219C653.06 21.682 654.353 21.8925 655.615 22.2532C656.878 22.6139 657.78 23.155 658.321 23.8764C658.862 24.5979 659.343 25.2592 659.764 25.8604C660.185 26.4616 660.425 27.0328 660.485 27.5738L660.666 28.2051C660.666 28.3254 660.696 28.3855 660.756 28.3855L661.748 27.3935C665.355 23.5458 669.593 21.6219 674.463 21.6219C675.485 21.6219 676.417 21.682 677.259 21.8023C678.101 21.9225 678.882 22.1329 679.604 22.4335C680.325 22.7341 680.896 23.0347 681.317 23.3353C681.738 23.6359 682.189 23.9967 682.67 24.4175C683.151 24.8384 683.451 25.2291 683.571 25.5899C683.692 25.9506 683.932 26.3414 684.293 26.7622C684.654 27.1831 684.774 27.5438 684.654 27.8444C684.533 28.145 684.624 28.4155 684.924 28.656C685.225 28.8965 685.285 29.1069 685.105 29.2873L685.826 28.3855C689.614 23.8764 694.093 21.6219 699.263 21.6219C702.509 21.6219 705.125 22.4335 707.109 24.0568C709.093 25.6801 710.115 28.0548 710.175 31.1811C710.175 34.2472 709.033 38.9968 706.748 45.4297C704.463 51.8626 703.321 55.7103 703.321 56.9728C703.381 57.8145 703.532 58.3857 703.772 58.6863C704.013 58.9869 704.463 59.1372 705.125 59.1372C706.808 59.1372 708.371 58.2354 709.814 56.4318C711.257 54.6281 712.429 52.1632 713.331 49.0369C713.512 48.3756 713.692 47.9848 713.872 47.8646C714.053 47.7443 714.534 47.6842 715.315 47.6842C716.518 47.6842 717.119 47.9247 717.119 48.4056C717.119 48.4658 716.999 48.9167 716.758 49.7584C716.277 51.5019 715.616 53.2153 714.774 54.8987C713.932 56.5821 712.55 58.2654 710.626 59.9488C708.702 61.6322 706.628 62.4438 704.403 62.3837C701.578 62.3837 699.534 61.5721 698.271 59.9488C697.008 58.3256 696.377 56.6422 696.377 54.8987C696.377 53.7564 697.459 50.1491 699.624 44.077C701.788 38.0048 702.9 33.4356 702.96 30.3695C702.96 26.8223 701.638 25.0488 698.992 25.0488H698.542C693.371 25.0488 689.012 28.0849 685.465 34.1571L684.834 35.2392L681.858 47.3235C679.874 55.1993 678.732 59.4378 678.431 60.039C677.65 61.6622 676.357 62.4739 674.553 62.4739C673.772 62.4739 673.141 62.2635 672.66 61.8426C672.179 61.4218 671.848 61.061 671.668 60.7604C671.487 60.4598 671.397 60.1592 671.397 59.8586C671.397 59.1973 672.419 54.8987 674.463 46.9628L677.71 33.7963C677.89 32.8945 677.98 31.7522 677.98 30.3695C677.98 26.8223 676.658 25.0488 674.012 25.0488H673.561C668.391 25.0488 664.032 28.0849 660.485 34.1571L659.854 35.2392L656.878 47.3235C654.894 55.1993 653.752 59.4378 653.451 60.039C652.669 61.6622 651.377 62.4739 649.573 62.4739C648.792 62.4739 648.16 62.2935 647.679 61.9328C647.199 61.5721 646.868 61.2113 646.687 60.8506C646.507 60.4899 646.447 60.1893 646.507 59.9488C646.507 59.1672 647.649 54.2374 649.934 45.1591C652.279 35.9006 653.451 31.0608 653.451 30.64C653.631 29.7382 653.722 28.9266 653.722 28.2051C653.722 26.0408 652.97 24.9586 651.467 24.9586C650.144 24.9586 649.032 25.8003 648.13 27.4837C647.229 29.167 646.537 31.0007 646.056 32.9847C645.575 34.9687 645.215 36.0509 644.974 36.2312C644.854 36.3515 644.373 36.4116 643.531 36.4116H642.269C641.908 36.0509 641.728 35.7803 641.728 35.6Z" fill="black"/>
<path d="M721.989 47.3234C721.989 41.2513 724.273 35.4797 728.842 30.0087C733.412 24.5377 738.552 21.7722 744.263 21.7121C747.329 21.7121 750.035 23.185 752.38 26.1309C753.341 24.3273 754.724 23.4255 756.528 23.4255C757.309 23.4255 758.001 23.666 758.602 24.1469C759.203 24.6279 759.504 25.2291 759.504 25.9506C759.504 26.7321 758.392 31.5418 756.167 40.3795C753.943 49.2172 752.8 54.2073 752.74 55.3496C752.74 56.8526 752.951 57.8446 753.372 58.3255C753.792 58.8065 754.424 59.077 755.265 59.1372C755.806 59.077 756.408 58.8065 757.069 58.3255C758.332 57.1231 759.564 54.2373 760.766 49.6682C761.127 48.4657 761.428 47.8345 761.668 47.7744C761.788 47.7142 762.089 47.6842 762.57 47.6842H762.931C764.073 47.6842 764.644 47.9547 764.644 48.4958C764.644 48.8565 764.494 49.6682 764.193 50.9307C763.893 52.1932 763.291 53.8165 762.39 55.8005C761.488 57.7844 760.526 59.2875 759.504 60.3095C758.722 61.0911 757.76 61.7223 756.618 62.2033C756.137 62.3235 755.416 62.3837 754.454 62.3837C752.41 62.3837 750.696 61.9328 749.313 61.031C747.931 60.1291 747.029 59.1973 746.608 58.2353L746.067 56.8826C746.007 56.8225 745.887 56.8526 745.706 56.9728C745.586 57.0931 745.466 57.2133 745.345 57.3335C741.798 60.7003 738.191 62.3837 734.524 62.3837C731.217 62.3837 728.301 61.1813 725.776 58.7764C723.251 56.3716 721.989 52.5539 721.989 47.3234ZM750.666 31.9025C750.666 31.5418 750.516 30.8805 750.215 29.9185C749.915 28.9566 749.223 27.9045 748.141 26.7622C747.059 25.6199 745.676 25.0187 743.993 24.9586C741.889 24.9586 739.874 25.8904 737.951 27.7542C736.027 29.6179 734.524 32.0528 733.442 35.0588C731.698 39.8084 730.466 44.7383 729.744 49.8485C729.744 50.0289 729.744 50.3595 729.744 50.8405C729.744 51.3215 729.714 51.6822 729.654 51.9227C729.654 54.6281 730.195 56.4918 731.277 57.5139C732.359 58.5359 733.652 59.077 735.155 59.1372C737.44 59.1372 739.694 58.1452 741.919 56.1612C744.143 54.1772 745.466 52.6441 745.887 51.562C746.007 51.3215 746.818 48.105 748.321 41.9126C749.824 35.7202 750.606 32.3835 750.666 31.9025Z" fill="black"/>
<path d="M770.034 56.5829C770.331 54.7977 771.479 52.7362 773.477 50.3984C775.474 48.0606 777.94 46.8705 780.873 46.828C782.36 46.828 783.72 47.2105 784.953 47.9756C786.186 48.7407 787.1 49.6971 787.695 50.8447C789.48 48.1669 791.626 46.828 794.134 46.828C795.707 46.828 797.067 47.2955 798.215 48.2307C799.362 49.1658 799.957 50.4197 800 51.9924C800 53.225 799.702 54.2239 799.107 54.989C798.512 55.7541 797.938 56.2217 797.386 56.3917C796.833 56.5617 796.345 56.6467 795.919 56.6467C795.112 56.6467 794.453 56.4129 793.943 55.9454C793.433 55.4778 793.178 54.8615 793.178 54.0964C793.178 52.1411 794.241 50.8022 796.366 50.0796C795.898 49.5271 795.048 49.2508 793.815 49.2508C793.263 49.2508 792.859 49.2933 792.604 49.3783C790.989 50.0584 789.799 51.4611 789.034 53.5863C786.483 62.98 785.208 68.4632 785.208 70.0359C785.208 71.226 785.548 72.0761 786.228 72.5862C786.908 73.0963 787.652 73.3513 788.46 73.3513C790.033 73.3513 791.584 72.6499 793.114 71.2473C794.644 69.8446 795.686 68.1231 796.238 66.0829C796.366 65.6578 796.493 65.424 796.621 65.3815C796.748 65.339 797.088 65.2965 797.641 65.254H797.896C798.534 65.254 798.852 65.424 798.852 65.7641C798.852 65.8066 798.81 66.0404 798.725 66.4654C798.045 68.8882 796.727 71.0347 794.772 72.905C792.817 74.7752 790.543 75.7103 787.95 75.7103C784.974 75.7103 782.722 74.3714 781.191 71.6936C779.449 74.3289 777.451 75.6466 775.198 75.6466H774.816C772.733 75.6466 771.245 75.094 770.353 73.9889C769.46 72.8837 768.992 71.7148 768.95 70.4822C768.95 69.122 769.354 68.0169 770.161 67.1668C770.969 66.3167 771.925 65.8916 773.03 65.8916C774.858 65.8916 775.772 66.7842 775.772 68.5694C775.772 69.4195 775.517 70.1634 775.007 70.801C774.497 71.4385 774.008 71.8636 773.54 72.0761C773.073 72.2887 772.797 72.3949 772.712 72.3949L772.52 72.4587C772.52 72.5012 772.648 72.5862 772.903 72.7137C773.158 72.8412 773.498 72.99 773.923 73.16C774.348 73.33 774.752 73.3938 775.134 73.3513C776.665 73.3513 777.982 72.3949 779.087 70.4822C779.47 69.8021 779.959 68.3569 780.554 66.1466C781.149 63.9364 781.744 61.6411 782.339 59.2608C782.934 56.8805 783.274 55.4778 783.359 55.0528C783.572 53.9051 783.678 53.0763 783.678 52.5662C783.678 51.3761 783.359 50.5259 782.722 50.0159C782.084 49.5058 781.361 49.2508 780.554 49.2508C778.854 49.2508 777.26 49.9309 775.772 51.291C774.284 52.6512 773.243 54.3939 772.648 56.5192C772.563 56.9017 772.457 57.1143 772.329 57.1568C772.202 57.1993 771.862 57.2418 771.309 57.2843H770.416C770.161 57.0293 770.034 56.7955 770.034 56.5829Z" fill="black"/>
</svg>
