<svg width="620" height="101" viewBox="0 0 620 101" fill="none" xmlns="http://www.w3.org/2000/svg">
<path d="M1.81818 72.6201C0.606059 72.6201 0 72.2636 0 71.5506C0 71.408 0.106952 70.9088 0.320855 70.0532C0.606059 68.9124 0.891263 68.2707 1.17647 68.1281C1.46167 67.9855 2.28163 67.8786 3.63635 67.8073C5.56148 67.8073 7.70051 67.7003 10.0534 67.4864C11.0517 67.2725 11.729 66.8447 12.0855 66.203C12.2281 65.8465 14.7593 55.8287 19.6791 36.1496C24.5988 16.4705 27.0944 6.48839 27.1657 6.20319C27.1657 5.70408 27.0231 5.45453 26.7379 5.45453C26.1675 5.24063 24.278 5.06237 21.0694 4.91977H17.754C17.3261 4.49196 17.1122 4.20676 17.1122 4.06416C17.1122 3.92156 17.1835 3.3155 17.3261 2.24598C17.6113 1.03387 17.9679 0.285206 18.3957 1.96695e-06H76.0425C76.5416 0.285206 76.7912 0.677361 76.7912 1.17647C76.7912 1.53297 76.3277 5.52583 75.4008 13.155C74.4739 20.7842 73.9748 24.7058 73.9035 24.9197C73.7609 25.4188 73.0479 25.6684 71.7645 25.6684H70.481C69.9819 25.3119 69.7324 24.8484 69.7324 24.278C69.7324 24.2067 69.8393 23.3511 70.0532 21.7112C70.2671 20.0712 70.3741 18.1818 70.3741 16.0427C70.3741 13.9037 70.1245 12.1568 69.6254 10.8021C69.1263 9.44738 68.449 8.34222 67.5934 7.48661C66.7377 6.63099 65.4187 6.06059 63.6361 5.77538C61.8536 5.49018 60.0354 5.24063 58.1816 5.02672C56.3278 4.81282 53.761 4.77717 50.4811 4.91977H48.0212C42.1745 4.99107 39.073 5.09802 38.7164 5.24063C38.3599 5.38323 38.1104 5.66843 37.9678 6.09624C37.8965 6.16754 36.6844 10.8378 34.3314 20.1069L30.909 33.9036H36.7913C37.0052 33.9036 37.8252 33.9036 39.2512 33.9036C40.6772 33.9036 41.6754 33.868 42.2458 33.7967C42.8163 33.7254 43.6006 33.6184 44.5988 33.4758C45.597 33.3332 46.4526 33.0837 47.1656 32.7272C47.8786 32.3707 48.4847 31.9428 48.9838 31.4437C49.9107 30.5881 50.695 29.4117 51.3367 27.9143C51.9784 26.417 52.4419 25.0623 52.7271 23.8502C53.0123 22.6381 53.1906 21.9964 53.2619 21.9251C53.4758 21.5686 54.1531 21.3903 55.2939 21.3903H56.5774C57.0765 21.7468 57.326 22.1033 57.326 22.4598C57.326 22.6737 56.2208 27.3439 54.0105 36.4705C51.8002 45.597 50.5881 50.3029 50.3742 50.5881C50.2316 51.0872 49.5186 51.3367 48.2351 51.3367H46.9517C46.4526 50.9089 46.2031 50.4811 46.2031 50.0533C46.2031 49.8394 46.3813 49.0551 46.7378 47.7004C47.0943 46.3457 47.2726 44.9196 47.2726 43.4223C47.2726 41.3546 46.5596 40.0712 45.1335 39.5721C43.7075 39.0729 40.5346 38.8234 35.6149 38.8234H29.7325L26.3101 52.4062C24.0284 61.2476 22.8876 65.8821 22.8876 66.3099C22.8876 67.3081 26.0605 67.8073 32.4063 67.8073H35.0801C35.5079 68.2351 35.7218 68.4846 35.7218 68.5559C35.7218 68.6272 35.6505 69.3402 35.5079 70.6949C35.2227 71.6219 34.8662 72.2992 34.4384 72.727H32.6202C29.6969 72.5844 24.3136 72.5131 16.4705 72.5131C11.836 72.5131 8.30657 72.5131 5.88233 72.5131C3.4581 72.5131 2.10338 72.5488 1.81818 72.6201Z" fill="black"/>
<path d="M81.5603 45.0645L80.5773 45.4425C79.8715 45.6946 78.8633 45.9466 77.5527 46.1987C76.242 46.4507 74.7801 46.6272 73.167 46.728H71.7303V43.2497H73.167C75.5363 43.1489 77.7291 42.7708 79.7455 42.1155C81.7619 41.4602 83.1734 40.8553 83.9799 40.3007C84.7865 39.7462 85.4922 39.1917 86.0971 38.6372C86.198 38.486 86.5004 38.4104 87.0045 38.4104C87.4582 38.4104 87.8867 38.5616 88.29 38.8641V61.4729L88.3656 84.1573C88.7185 84.5101 89.0209 84.737 89.273 84.8378C89.525 84.9386 90.1299 85.0394 91.0877 85.1403C92.0455 85.2411 93.6082 85.2915 95.7758 85.2915H97.7418V88.7698H96.91C95.8514 88.6185 91.8439 88.5429 84.8873 88.5429C78.0316 88.5429 74.0744 88.6185 73.0158 88.7698H72.1084V85.2915H74.0744C75.1834 85.2915 76.1412 85.2915 76.9478 85.2915C77.7543 85.2915 78.3844 85.2663 78.8381 85.2159C79.2918 85.1655 79.6951 85.0899 80.048 84.989C80.4008 84.8882 80.6025 84.8378 80.6529 84.8378C80.7033 84.8378 80.8545 84.7118 81.1066 84.4597C81.3586 84.2077 81.5098 84.1069 81.5603 84.1573V45.0645Z" fill="black"/>
<path d="M106.042 84.6621C106.291 83.1653 107.253 81.4367 108.928 79.4766C110.603 77.5164 112.671 76.5185 115.13 76.4828C116.377 76.4828 117.518 76.8036 118.551 77.4451C119.585 78.0866 120.351 78.8885 120.85 79.8508C122.347 77.6055 124.147 76.4828 126.249 76.4828C127.568 76.4828 128.708 76.8749 129.671 77.6589C130.633 78.443 131.132 79.4944 131.168 80.813C131.168 81.8466 130.918 82.6841 130.419 83.3256C129.92 83.9672 129.439 84.3592 128.976 84.5018C128.512 84.6443 128.103 84.7156 127.746 84.7156C127.069 84.7156 126.517 84.5196 126.089 84.1275C125.661 83.7355 125.447 83.2187 125.447 82.5772C125.447 80.9378 126.338 79.8151 128.12 79.2093C127.728 78.7459 127.016 78.5143 125.982 78.5143C125.519 78.5143 125.18 78.5499 124.966 78.6212C123.612 79.1914 122.614 80.3675 121.973 82.1495C119.834 90.0259 118.765 94.6234 118.765 95.9421C118.765 96.94 119.05 97.6528 119.62 98.0805C120.191 98.5082 120.814 98.722 121.491 98.722C122.81 98.722 124.111 98.134 125.394 96.9578C126.677 95.7817 127.55 94.3383 128.013 92.6276C128.12 92.2712 128.227 92.0752 128.334 92.0396C128.441 92.0039 128.726 91.9683 129.19 91.9326H129.403C129.938 91.9326 130.205 92.0752 130.205 92.3603C130.205 92.396 130.17 92.592 130.098 92.9484C129.528 94.9798 128.423 96.7796 126.784 98.3478C125.144 99.9159 123.238 100.7 121.064 100.7C118.569 100.7 116.68 99.5774 115.397 97.3321C113.936 99.5417 112.261 100.647 110.372 100.647H110.051C108.305 100.647 107.057 100.183 106.309 99.2566C105.56 98.33 105.168 97.3499 105.133 96.3163C105.133 95.1759 105.471 94.2492 106.148 93.5364C106.826 92.8236 107.628 92.4672 108.554 92.4672C110.087 92.4672 110.853 93.2157 110.853 94.7125C110.853 95.4253 110.639 96.049 110.211 96.5836C109.784 97.1182 109.374 97.4746 108.982 97.6528C108.59 97.831 108.358 97.9201 108.287 97.9201L108.126 97.9736C108.126 98.0092 108.233 98.0805 108.447 98.1874C108.661 98.2943 108.946 98.4191 109.303 98.5616C109.659 98.7042 109.998 98.7576 110.318 98.722C111.601 98.722 112.706 97.9201 113.633 96.3163C113.954 95.7461 114.363 94.5343 114.862 92.6811C115.361 90.8278 115.86 88.9033 116.359 86.9074C116.858 84.9116 117.143 83.7355 117.215 83.3791C117.393 82.4168 117.482 81.7219 117.482 81.2942C117.482 80.2963 117.215 79.5835 116.68 79.1558C116.145 78.7281 115.54 78.5143 114.862 78.5143C113.437 78.5143 112.1 79.0845 110.853 80.225C109.606 81.3655 108.732 82.8267 108.233 84.6087C108.162 84.9294 108.073 85.1076 107.966 85.1433C107.859 85.1789 107.574 85.2145 107.111 85.2502H106.362C106.148 85.0364 106.042 84.8403 106.042 84.6621Z" fill="black"/>
<path d="M172.737 47.3795C172.737 47.3795 172.737 46.9161 172.737 45.9891C172.737 45.0622 173.236 44.3492 174.235 43.8501H206.213V27.8074L206.32 11.7647C207.033 10.8377 207.711 10.3743 208.352 10.3743C209.279 10.3743 209.992 10.909 210.491 11.9786V43.8501H242.363C243.432 44.4205 243.967 45.1335 243.967 45.9891C243.967 46.8448 243.432 47.5578 242.363 48.1282H210.491V79.9997C209.921 80.9979 209.279 81.497 208.566 81.497H208.352H208.138C207.283 81.497 206.641 80.9979 206.213 79.9997V48.1282H174.235C173.236 47.6291 172.737 46.9161 172.737 45.9891V47.3795Z" fill="black"/>
<path d="M278.865 72.6201C277.653 72.6201 277.047 72.2636 277.047 71.5506C277.047 71.408 277.154 70.9088 277.368 70.0532C277.653 68.9124 277.938 68.2707 278.224 68.1281C278.509 67.9855 279.329 67.8786 280.684 67.8073C282.609 67.8073 284.748 67.7003 287.101 67.4864C288.099 67.2725 288.776 66.8447 289.133 66.203C289.275 65.8465 291.806 55.8287 296.726 36.1496C301.646 16.4705 304.142 6.48839 304.213 6.20319C304.213 5.70408 304.07 5.45453 303.785 5.45453C303.215 5.24063 301.325 5.06237 298.117 4.91977H294.801C294.373 4.49196 294.159 4.20676 294.159 4.06416C294.159 3.92156 294.231 3.3155 294.373 2.24598C294.659 1.03387 295.015 0.285206 295.443 1.96695e-06H353.09C353.589 0.285206 353.838 0.677361 353.838 1.17647C353.838 1.53297 353.375 5.52583 352.448 13.155C351.521 20.7842 351.022 24.7058 350.951 24.9197C350.808 25.4188 350.095 25.6684 348.812 25.6684H347.528C347.029 25.3119 346.78 24.8484 346.78 24.278C346.78 24.2067 346.887 23.3511 347.1 21.7112C347.314 20.0712 347.421 18.1818 347.421 16.0427C347.421 13.9037 347.172 12.1568 346.673 10.8021C346.174 9.44738 345.496 8.34222 344.641 7.48661C343.785 6.63099 342.466 6.06059 340.683 5.77538C338.901 5.49018 337.083 5.24063 335.229 5.02672C333.375 4.81282 330.808 4.77717 327.528 4.91977H325.068C319.222 4.99107 316.12 5.09802 315.764 5.24063C315.407 5.38323 315.158 5.66843 315.015 6.09624C314.944 6.16754 313.732 10.8378 311.379 20.1069L307.956 33.9036H313.839C314.052 33.9036 314.872 33.9036 316.298 33.9036C317.724 33.9036 318.723 33.868 319.293 33.7967C319.863 33.7254 320.648 33.6184 321.646 33.4758C322.644 33.3332 323.5 33.0837 324.213 32.7272C324.926 32.3707 325.532 31.9428 326.031 31.4437C326.958 30.5881 327.742 29.4117 328.384 27.9143C329.026 26.417 329.489 25.0623 329.774 23.8502C330.059 22.6381 330.238 21.9964 330.309 21.9251C330.523 21.5686 331.2 21.3903 332.341 21.3903H333.625C334.124 21.7468 334.373 22.1033 334.373 22.4598C334.373 22.6737 333.268 27.3439 331.058 36.4705C328.847 45.597 327.635 50.3029 327.421 50.5881C327.279 51.0872 326.566 51.3367 325.282 51.3367H323.999C323.5 50.9089 323.25 50.4811 323.25 50.0533C323.25 49.8394 323.428 49.0551 323.785 47.7004C324.141 46.3457 324.32 44.9196 324.32 43.4223C324.32 41.3546 323.607 40.0712 322.181 39.5721C320.755 39.0729 317.582 38.8234 312.662 38.8234H306.78L303.357 52.4062C301.076 61.2476 299.935 65.8821 299.935 66.3099C299.935 67.3081 303.108 67.8073 309.453 67.8073H312.127C312.555 68.2351 312.769 68.4846 312.769 68.5559C312.769 68.6272 312.698 69.3402 312.555 70.6949C312.27 71.6219 311.913 72.2992 311.486 72.727H309.667C306.744 72.5844 301.361 72.5131 293.518 72.5131C288.883 72.5131 285.354 72.5131 282.93 72.5131C280.505 72.5131 279.151 72.5488 278.865 72.6201Z" fill="black"/>
<path d="M350.744 56.3311C349.382 56.3311 348.299 55.8774 347.492 54.97C346.686 54.0626 346.282 52.9536 346.282 51.643C346.282 48.0639 347.618 44.9637 350.29 42.3423C352.962 39.721 356.289 38.4104 360.271 38.4104C364.858 38.4104 368.689 39.8219 371.764 42.6448C374.839 45.4678 376.402 49.1225 376.453 53.6089C376.453 55.7766 375.948 57.8434 374.94 59.8093C373.932 61.7753 372.722 63.4893 371.311 64.9511C369.899 66.413 367.883 68.2782 365.262 70.5466C363.447 72.1093 360.926 74.4282 357.7 77.5032L353.239 81.7376L358.986 81.8132C366.9 81.8132 371.109 81.6872 371.613 81.4351C371.966 81.3343 372.571 79.0911 373.428 74.7054V74.4786H376.453V74.7054C376.402 74.8567 376.074 77.1503 375.47 81.5864C374.865 86.0224 374.487 88.3413 374.335 88.5429V88.7698H346.282V87.3331V86.4257C346.282 86.0729 346.433 85.6948 346.736 85.2915C347.038 84.8882 347.795 84.006 349.004 82.645C350.466 81.0319 351.727 79.6204 352.785 78.4106C353.239 77.9065 354.096 76.9739 355.356 75.6128C356.616 74.2518 357.473 73.3192 357.927 72.8151C358.381 72.311 359.112 71.4792 360.12 70.3198C361.128 69.1604 361.834 68.3034 362.237 67.7489C362.64 67.1944 363.22 66.4382 363.976 65.4804C364.732 64.5227 365.262 63.7161 365.564 63.0608C365.866 62.4054 366.245 61.6745 366.698 60.8679C367.152 60.0614 367.48 59.2548 367.681 58.4483C367.883 57.6417 368.059 56.8856 368.211 56.1798C368.362 55.4741 368.437 54.6423 368.437 53.6846C368.437 50.5087 367.58 47.7614 365.866 45.4425C364.153 43.1237 361.708 41.9643 358.532 41.9643C356.868 41.9643 355.406 42.3928 354.146 43.2497C352.886 44.1067 352.004 44.9385 351.5 45.745C350.996 46.5516 350.744 47.0305 350.744 47.1817C350.744 47.2321 350.87 47.2573 351.122 47.2573C352.029 47.2573 352.962 47.6102 353.919 48.3159C354.877 49.0216 355.356 50.1811 355.356 51.7942C355.356 53.0544 354.953 54.113 354.146 54.97C353.34 55.827 352.205 56.2807 350.744 56.3311Z" fill="black"/>
<path d="M383.089 84.6621C383.338 83.1653 384.301 81.4367 385.976 79.4766C387.651 77.5164 389.718 76.5185 392.177 76.4828C393.424 76.4828 394.565 76.8036 395.598 77.4451C396.632 78.0866 397.398 78.8885 397.897 79.8508C399.394 77.6055 401.194 76.4828 403.297 76.4828C404.615 76.4828 405.756 76.8749 406.718 77.6589C407.68 78.443 408.179 79.4944 408.215 80.813C408.215 81.8466 407.965 82.6841 407.466 83.3256C406.967 83.9672 406.486 84.3592 406.023 84.5018C405.56 84.6443 405.15 84.7156 404.793 84.7156C404.116 84.7156 403.564 84.5196 403.136 84.1275C402.708 83.7355 402.495 83.2187 402.495 82.5772C402.495 80.9378 403.386 79.8151 405.168 79.2093C404.776 78.7459 404.063 78.5143 403.029 78.5143C402.566 78.5143 402.227 78.5499 402.013 78.6212C400.659 79.1914 399.661 80.3675 399.02 82.1495C396.881 90.0259 395.812 94.6234 395.812 95.9421C395.812 96.94 396.097 97.6528 396.668 98.0805C397.238 98.5082 397.861 98.722 398.539 98.722C399.857 98.722 401.158 98.134 402.441 96.9578C403.724 95.7817 404.597 94.3383 405.061 92.6276C405.168 92.2712 405.275 92.0752 405.381 92.0396C405.488 92.0039 405.773 91.9683 406.237 91.9326H406.451C406.985 91.9326 407.253 92.0752 407.253 92.3603C407.253 92.396 407.217 92.592 407.146 92.9484C406.575 94.9798 405.471 96.7796 403.831 98.3478C402.192 99.9159 400.285 100.7 398.111 100.7C395.616 100.7 393.727 99.5774 392.444 97.3321C390.983 99.5417 389.308 100.647 387.419 100.647H387.098C385.352 100.647 384.105 100.183 383.356 99.2566C382.608 98.33 382.216 97.3499 382.18 96.3163C382.18 95.1759 382.519 94.2492 383.196 93.5364C383.873 92.8236 384.675 92.4672 385.601 92.4672C387.134 92.4672 387.9 93.2157 387.9 94.7125C387.9 95.4253 387.686 96.049 387.259 96.5836C386.831 97.1182 386.421 97.4746 386.029 97.6528C385.637 97.831 385.405 97.9201 385.334 97.9201L385.174 97.9736C385.174 98.0092 385.281 98.0805 385.494 98.1874C385.708 98.2943 385.993 98.4191 386.35 98.5616C386.706 98.7042 387.045 98.7576 387.366 98.722C388.649 98.722 389.753 97.9201 390.68 96.3163C391.001 95.7461 391.411 94.5343 391.91 92.6811C392.409 90.8278 392.908 88.9033 393.406 86.9074C393.905 84.9116 394.191 83.7355 394.262 83.3791C394.44 82.4168 394.529 81.7219 394.529 81.2942C394.529 80.2963 394.262 79.5835 393.727 79.1558C393.193 78.7281 392.587 78.5143 391.91 78.5143C390.484 78.5143 389.148 79.0845 387.9 80.225C386.653 81.3655 385.78 82.8267 385.281 84.6087C385.209 84.9294 385.12 85.1076 385.013 85.1433C384.906 85.1789 384.621 85.2145 384.158 85.2502H383.41C383.196 85.0364 383.089 84.8403 383.089 84.6621Z" fill="black"/>
<path d="M426.02 47.3795C426.02 47.3795 426.02 46.9161 426.02 45.9891C426.02 45.0622 426.519 44.3492 427.517 43.8501H459.496V27.8074L459.603 11.7647C460.316 10.8377 460.993 10.3743 461.635 10.3743C462.562 10.3743 463.275 10.909 463.774 11.9786V43.8501H495.645C496.715 44.4205 497.25 45.1335 497.25 45.9891C497.25 46.8448 496.715 47.5578 495.645 48.1282H463.774V79.9997C463.203 80.9979 462.562 81.497 461.849 81.497H461.635H461.421C460.565 81.497 459.924 80.9979 459.496 79.9997V48.1282H427.517C426.519 47.6291 426.02 46.9161 426.02 45.9891V47.3795Z" fill="black"/>
<path d="M511.581 66.3099C511.581 64.5987 512.187 63.1014 513.399 61.818C514.611 60.5346 516.144 59.8928 517.998 59.8928C519.709 59.8928 521.207 60.4632 522.49 61.6041C523.774 62.7449 524.451 64.2779 524.522 66.203C524.522 67.9855 523.916 69.5185 522.704 70.8019C521.492 72.0853 519.959 72.727 518.105 72.727C516.251 72.727 514.718 72.121 513.506 70.9088C512.294 69.6967 511.652 68.1638 511.581 66.3099Z" fill="black"/>
<path d="M559.132 66.3099C559.132 64.5987 559.738 63.1014 560.95 61.818C562.162 60.5346 563.695 59.8928 565.549 59.8928C567.26 59.8928 568.757 60.4632 570.041 61.6041C571.324 62.7449 572.002 64.2779 572.073 66.203C572.073 67.9855 571.467 69.5185 570.255 70.8019C569.043 72.0853 567.51 72.727 565.656 72.727C563.802 72.727 562.269 72.121 561.057 70.9088C559.845 69.6967 559.203 68.1638 559.132 66.3099Z" fill="black"/>
<path d="M606.693 66.3099C606.693 64.5987 607.299 63.1014 608.511 61.818C609.723 60.5346 611.256 59.8928 613.11 59.8928C614.821 59.8928 616.319 60.4632 617.602 61.6041C618.886 62.7449 619.563 64.2779 619.634 66.203C619.634 67.9855 619.028 69.5185 617.816 70.8019C616.604 72.0853 615.071 72.727 613.217 72.727C611.363 72.727 609.83 72.121 608.618 70.9088C607.406 69.6967 606.764 68.1638 606.693 66.3099Z" fill="black"/>
</svg>
