<svg width="563" height="111" viewBox="0 0 563 111" fill="none" xmlns="http://www.w3.org/2000/svg">
<path d="M1.67571 72.3774C0.558571 72.3774 0 72.0221 0 71.3115C0 71.1693 0.0985713 70.6719 0.295714 69.8192C0.558571 68.6822 0.821428 68.0426 1.08428 67.9005C1.34714 67.7583 2.10286 67.6517 3.35143 67.5807C5.12571 67.5807 7.09714 67.4741 9.26571 67.2609C10.1857 67.0477 10.81 66.6213 11.1386 65.9818C11.27 65.6265 13.6028 55.6421 18.1371 36.0288C22.6714 16.4155 24.9714 6.46673 25.0371 6.18248C25.0371 5.68504 24.9057 5.43632 24.6428 5.43632C24.1171 5.22313 22.3757 5.04547 19.4186 4.90335H16.3628C15.9686 4.47697 15.7714 4.19272 15.7714 4.0506C15.7714 3.90847 15.8371 3.30444 15.9686 2.2385C16.2314 1.03043 16.56 0.284271 16.9543 2.03848e-05H70.0842C70.5442 0.284271 70.7742 0.675116 70.7742 1.17256C70.7742 1.52787 70.3471 5.50738 69.4928 13.1111C68.6385 20.7148 68.1785 24.6233 68.1128 24.8364C67.9814 25.3339 67.3242 25.5826 66.1414 25.5826H64.9585C64.4985 25.2273 64.2685 24.7654 64.2685 24.1969C64.2685 24.1258 64.3671 23.2731 64.5642 21.6386C64.7614 20.0042 64.8599 18.121 64.8599 15.9891C64.8599 13.8573 64.6299 12.1162 64.1699 10.766C63.7099 9.41583 63.0857 8.31436 62.2971 7.46161C61.5085 6.60885 60.2928 6.04035 58.6499 5.7561C57.0071 5.47185 55.3314 5.22313 53.6228 5.00994C51.9142 4.79675 49.5485 4.76122 46.5257 4.90335H44.2585C38.87 4.97441 36.0114 5.08101 35.6828 5.22313C35.3543 5.36526 35.1243 5.64951 34.9928 6.07588C34.9271 6.14695 33.81 10.8016 31.6414 20.0397L28.4871 33.7904H33.9085C34.1057 33.7904 34.8614 33.7904 36.1757 33.7904C37.49 33.7904 38.41 33.7548 38.9357 33.6838C39.4614 33.6127 40.1842 33.5061 41.1042 33.364C42.0242 33.2218 42.8128 32.9731 43.47 32.6178C44.1271 32.2625 44.6857 31.8361 45.1457 31.3387C46 30.4859 46.7228 29.3134 47.3142 27.8211C47.9057 26.3288 48.3328 24.9786 48.5957 23.7705C48.8585 22.5624 49.0228 21.9229 49.0885 21.8518C49.2857 21.4965 49.91 21.3188 50.9614 21.3188H52.1442C52.6042 21.6742 52.8342 22.0295 52.8342 22.3848C52.8342 22.598 51.8157 27.2526 49.7785 36.3486C47.7414 45.4446 46.6242 50.1348 46.4271 50.419C46.2957 50.9165 45.6385 51.1652 44.4557 51.1652H43.2728C42.8128 50.7388 42.5828 50.3124 42.5828 49.8861C42.5828 49.6729 42.7471 48.8912 43.0757 47.541C43.4042 46.1908 43.5685 44.7695 43.5685 43.2772C43.5685 41.2164 42.9114 39.9373 41.5971 39.4398C40.2828 38.9424 37.3585 38.6937 32.8243 38.6937H27.4028L24.2485 52.2311C22.1457 61.0429 21.0943 65.662 21.0943 66.0884C21.0943 67.0832 24.0185 67.5807 29.8671 67.5807H32.3314C32.7257 68.0071 32.9228 68.2558 32.9228 68.3268C32.9228 68.3979 32.8571 69.1085 32.7257 70.4587C32.4628 71.3825 32.1343 72.0576 31.74 72.484H30.0643C27.37 72.3419 22.4085 72.2708 15.18 72.2708C10.9086 72.2708 7.65571 72.2708 5.42142 72.2708C3.18714 72.2708 1.93857 72.3064 1.67571 72.3774Z" fill="black"/>
<path d="M75.1696 44.9138L74.2637 45.2906C73.6132 45.5418 72.684 45.7931 71.4761 46.0443C70.2681 46.2955 68.9208 46.4713 67.4341 46.5718H66.11V43.1051H67.4341C69.6177 43.0047 71.6387 42.6278 73.4971 41.9747C75.3555 41.3216 76.6564 40.7187 77.3997 40.166C78.1431 39.6134 78.7935 39.0607 79.351 38.5081C79.444 38.3573 79.7227 38.282 80.1873 38.282C80.6055 38.282 81.0004 38.4327 81.372 38.7341V61.2674L81.4417 83.876C81.767 84.2277 82.0457 84.4538 82.278 84.5543C82.5103 84.6547 83.0678 84.7552 83.9506 84.8557C84.8333 84.9562 86.2736 85.0064 88.2714 85.0064H90.0833V88.4731H89.3167C88.341 88.3224 84.6475 88.247 78.236 88.247C71.9174 88.247 68.2703 88.3224 67.2947 88.4731H66.4584V85.0064H68.2703C69.2925 85.0064 70.1752 85.0064 70.9186 85.0064C71.6619 85.0064 72.2427 84.9813 72.6608 84.9311C73.0789 84.8808 73.4506 84.8055 73.7758 84.705C74.1011 84.6045 74.2869 84.5543 74.3334 84.5543C74.3798 84.5543 74.5192 84.4287 74.7515 84.1774C74.9838 83.9262 75.1232 83.8258 75.1696 83.876V44.9138Z" fill="black"/>
<path d="M96.2054 84.4858C96.2054 83.9885 96.4517 83.136 96.9444 81.9283C97.4371 80.7206 98.2255 79.4596 99.3094 78.1453C100.393 76.8311 101.609 76.1917 102.955 76.2272C104.302 76.2272 105.386 76.6357 106.207 77.4527C107.029 78.2697 107.456 79.4063 107.488 80.8627C107.423 81.5376 107.373 81.9105 107.341 81.9816C107.341 82.0881 107.078 82.9051 106.552 84.4325C106.027 85.9599 105.485 87.6826 104.926 89.6008C104.368 91.5189 104.105 93.0463 104.138 94.1829C104.138 95.7103 104.368 96.7759 104.828 97.3798C105.288 97.9836 105.977 98.3033 106.897 98.3388C107.653 98.3388 108.359 98.1435 109.016 97.7527C109.673 97.362 110.182 96.9535 110.543 96.5273C110.904 96.101 111.348 95.5149 111.873 94.769C111.873 94.7335 111.956 94.3783 112.12 93.7034C112.284 93.0285 112.514 91.9806 112.81 90.5598C113.105 89.139 113.417 87.8247 113.746 86.617C114.994 81.2889 115.684 78.5006 115.815 78.2519C116.242 77.2928 116.948 76.8133 117.934 76.8133C118.361 76.8133 118.706 76.9376 118.968 77.1863C119.231 77.4349 119.412 77.6481 119.51 77.8257C119.609 78.0033 119.642 78.1631 119.609 78.3052C119.609 78.767 118.804 82.4966 117.195 89.4942C115.585 96.4918 114.665 100.328 114.436 101.003C113.516 103.951 111.923 106.295 109.656 108.036C107.39 109.776 105.123 110.664 102.857 110.7C101.379 110.7 100.081 110.309 98.9645 109.528C97.8477 108.746 97.2893 107.574 97.2893 106.011C97.2893 105.23 97.4043 104.573 97.6342 104.04C97.8641 103.507 98.1762 103.116 98.5704 102.868C98.9645 102.619 99.293 102.441 99.5558 102.335C99.8186 102.228 100.098 102.175 100.393 102.175C101.839 102.175 102.561 102.921 102.561 104.413C102.561 105.123 102.364 105.745 101.97 106.278C101.576 106.811 101.198 107.166 100.837 107.343C100.475 107.521 100.262 107.61 100.196 107.61L100.048 107.663C100.114 107.841 100.426 108.054 100.985 108.302C101.543 108.551 102.101 108.675 102.66 108.675H103.054C103.612 108.675 104.039 108.64 104.335 108.569C105.419 108.249 106.421 107.574 107.341 106.544C108.26 105.514 108.966 104.413 109.459 103.241C109.952 102.068 110.33 101.074 110.592 100.257C110.855 99.44 110.987 98.9072 110.987 98.6585L110.691 98.8716C110.494 99.0137 110.182 99.2091 109.755 99.4577C109.328 99.7064 108.901 99.9195 108.474 100.097C107.817 100.275 107.176 100.364 106.552 100.364C105.041 100.364 103.711 99.9728 102.561 99.1913C101.412 98.4099 100.656 97.1489 100.295 95.4084C100.262 95.1597 100.246 94.6092 100.246 93.7567C100.246 91.732 100.82 89.0857 101.97 85.8178C103.12 82.5499 103.695 80.4719 103.695 79.5839C103.695 79.5484 103.695 79.5129 103.695 79.4774C103.695 79.1577 103.695 78.9446 103.695 78.838C103.695 78.7314 103.629 78.6071 103.497 78.465C103.366 78.3229 103.185 78.2519 102.955 78.2519H102.758C102.003 78.2519 101.313 78.5894 100.689 79.2642C100.065 79.9391 99.5722 80.6673 99.2109 81.4488C98.8496 82.2302 98.5704 82.9762 98.3733 83.6866C98.1762 84.397 98.0448 84.7877 97.9791 84.8587C97.9134 84.9298 97.6506 84.9653 97.1908 84.9653H96.501C96.3039 84.7522 96.2054 84.5923 96.2054 84.4858Z" fill="black"/>
<path d="M155.161 47.2212C155.161 47.2212 155.161 46.7592 155.161 45.8354C155.161 44.9116 155.621 44.201 156.541 43.7035H186.014V27.7144L186.113 11.7253C186.77 10.8015 187.394 10.3396 187.985 10.3396C188.84 10.3396 189.497 10.8726 189.957 11.9385V43.7035H219.331C220.317 44.272 220.81 44.9827 220.81 45.8354C220.81 46.6882 220.317 47.3988 219.331 47.9673H189.957V79.7324C189.431 80.7272 188.84 81.2247 188.182 81.2247H187.985H187.788C187 81.2247 186.408 80.7272 186.014 79.7324V47.9673H156.541C155.621 47.4699 155.161 46.7592 155.161 45.8354V47.2212Z" fill="black"/>
<path d="M252.973 72.3774C251.856 72.3774 251.298 72.0221 251.298 71.3115C251.298 71.1693 251.396 70.6719 251.593 69.8192C251.856 68.6822 252.119 68.0426 252.382 67.9005C252.645 67.7583 253.401 67.6517 254.649 67.5807C256.423 67.5807 258.395 67.4741 260.563 67.2609C261.483 67.0477 262.108 66.6213 262.436 65.9818C262.568 65.6265 264.901 55.6421 269.435 36.0288C273.969 16.4155 276.269 6.46673 276.335 6.18248C276.335 5.68504 276.203 5.43632 275.941 5.43632C275.415 5.22313 273.673 5.04547 270.716 4.90335H267.661C267.266 4.47697 267.069 4.19272 267.069 4.0506C267.069 3.90847 267.135 3.30444 267.266 2.2385C267.529 1.03043 267.858 0.284271 268.252 2.03848e-05H321.382C321.842 0.284271 322.072 0.675116 322.072 1.17256C322.072 1.52787 321.645 5.50738 320.791 13.1111C319.936 20.7148 319.476 24.6233 319.411 24.8364C319.279 25.3339 318.622 25.5826 317.439 25.5826H316.256C315.796 25.2273 315.566 24.7654 315.566 24.1969C315.566 24.1258 315.665 23.2731 315.862 21.6386C316.059 20.0042 316.158 18.121 316.158 15.9891C316.158 13.8573 315.928 12.1162 315.468 10.766C315.008 9.41583 314.383 8.31436 313.595 7.46161C312.806 6.60885 311.591 6.04035 309.948 5.7561C308.305 5.47185 306.629 5.22313 304.921 5.00994C303.212 4.79675 300.846 4.76122 297.823 4.90335H295.556C290.168 4.97441 287.309 5.08101 286.981 5.22313C286.652 5.36526 286.422 5.64951 286.291 6.07588C286.225 6.14695 285.108 10.8016 282.939 20.0397L279.785 33.7904H285.206C285.403 33.7904 286.159 33.7904 287.473 33.7904C288.788 33.7904 289.708 33.7548 290.233 33.6838C290.759 33.6127 291.482 33.5061 292.402 33.364C293.322 33.2218 294.111 32.9731 294.768 32.6178C295.425 32.2625 295.983 31.8361 296.443 31.3387C297.298 30.4859 298.021 29.3134 298.612 27.8211C299.203 26.3288 299.631 24.9786 299.893 23.7705C300.156 22.5624 300.321 21.9229 300.386 21.8518C300.583 21.4965 301.208 21.3188 302.259 21.3188H303.442C303.902 21.6742 304.132 22.0295 304.132 22.3848C304.132 22.598 303.113 27.2526 301.076 36.3486C299.039 45.4446 297.922 50.1348 297.725 50.419C297.593 50.9165 296.936 51.1652 295.753 51.1652H294.571C294.111 50.7388 293.881 50.3124 293.881 49.8861C293.881 49.6729 294.045 48.8912 294.373 47.541C294.702 46.1908 294.866 44.7695 294.866 43.2772C294.866 41.2164 294.209 39.9373 292.895 39.4398C291.581 38.9424 288.656 38.6937 284.122 38.6937H278.701L275.546 52.2311C273.443 61.0429 272.392 65.662 272.392 66.0884C272.392 67.0832 275.316 67.5807 281.165 67.5807H283.629C284.023 68.0071 284.221 68.2558 284.221 68.3268C284.221 68.3979 284.155 69.1085 284.023 70.4587C283.761 71.3825 283.432 72.0576 283.038 72.484H281.362C278.668 72.3419 273.706 72.2708 266.478 72.2708C262.206 72.2708 258.953 72.2708 256.719 72.2708C254.485 72.2708 253.236 72.3064 252.973 72.3774Z" fill="black"/>
<path d="M319.22 56.1428C317.965 56.1428 316.966 55.6906 316.223 54.7863C315.48 53.8819 315.108 52.7766 315.108 51.4703C315.108 47.9032 316.339 44.8133 318.801 42.2008C321.264 39.5882 324.33 38.282 328.001 38.282C332.228 38.282 335.759 39.6887 338.593 42.5022C341.427 45.3158 342.868 48.9583 342.914 53.4297C342.914 55.5901 342.45 57.65 341.52 59.6094C340.591 61.5688 339.476 63.277 338.175 64.734C336.874 66.191 335.016 68.05 332.6 70.3108C330.928 71.8683 328.605 74.1794 325.631 77.2441L321.519 81.4644L326.816 81.5398C334.11 81.5398 337.989 81.4142 338.454 81.163C338.779 81.0625 339.337 78.8267 340.127 74.4557V74.2297H342.914V74.4557C342.868 74.6065 342.566 76.8925 342.008 81.3137C341.451 85.7349 341.102 88.046 340.963 88.247V88.4731H315.108V87.0412V86.1369C315.108 85.7852 315.247 85.4084 315.526 85.0064C315.805 84.6045 316.502 83.7253 317.617 82.3688C318.964 80.761 320.126 79.3543 321.101 78.1485C321.519 77.6461 322.309 76.7166 323.471 75.3601C324.632 74.0036 325.422 73.0741 325.84 72.5717C326.258 72.0693 326.932 71.2403 327.861 70.0847C328.79 68.9292 329.441 68.0751 329.812 67.5224C330.184 66.9698 330.718 66.2162 331.415 65.2616C332.112 64.307 332.6 63.5031 332.879 62.85C333.158 62.1969 333.506 61.4684 333.924 60.6645C334.342 59.8606 334.644 59.0568 334.83 58.2529C335.016 57.449 335.179 56.6954 335.318 55.992C335.457 55.2887 335.527 54.4597 335.527 53.5051C335.527 50.3399 334.737 47.6017 333.158 45.2906C331.578 42.9795 329.325 41.824 326.398 41.824C324.864 41.824 323.517 42.251 322.356 43.1051C321.194 43.9592 320.381 44.7882 319.917 45.5921C319.452 46.3959 319.22 46.8732 319.22 47.024C319.22 47.0742 319.336 47.0993 319.568 47.0993C320.404 47.0993 321.264 47.451 322.147 48.1544C323.029 48.8578 323.471 50.0133 323.471 51.621C323.471 52.8771 323.099 53.9322 322.356 54.7863C321.612 55.6404 320.567 56.0925 319.22 56.1428Z" fill="black"/>
<path d="M347.503 84.4858C347.503 83.9885 347.749 83.136 348.242 81.9283C348.735 80.7206 349.523 79.4596 350.607 78.1453C351.691 76.8311 352.906 76.1917 354.253 76.2272C355.6 76.2272 356.684 76.6357 357.505 77.4527C358.326 78.2697 358.753 79.4063 358.786 80.8627C358.72 81.5376 358.671 81.9105 358.638 81.9816C358.638 82.0881 358.375 82.9051 357.85 84.4325C357.324 85.9599 356.782 87.6826 356.224 89.6008C355.666 91.5189 355.403 93.0463 355.436 94.1829C355.436 95.7103 355.666 96.7759 356.125 97.3798C356.585 97.9836 357.275 98.3033 358.195 98.3388C358.95 98.3388 359.656 98.1435 360.313 97.7527C360.97 97.362 361.479 96.9535 361.841 96.5273C362.202 96.101 362.646 95.5149 363.171 94.769C363.171 94.7335 363.253 94.3783 363.417 93.7034C363.582 93.0285 363.812 91.9806 364.107 90.5598C364.403 89.139 364.715 87.8247 365.043 86.617C366.292 81.2889 366.981 78.5006 367.113 78.2519C367.54 77.2928 368.246 76.8133 369.231 76.8133C369.658 76.8133 370.003 76.9376 370.266 77.1863C370.529 77.4349 370.71 77.6481 370.808 77.8257C370.907 78.0033 370.939 78.1631 370.907 78.3052C370.907 78.767 370.102 82.4966 368.492 89.4942C366.883 96.4918 365.963 100.328 365.733 101.003C364.813 103.951 363.22 106.295 360.954 108.036C358.687 109.776 356.421 110.664 354.155 110.7C352.676 110.7 351.379 110.309 350.262 109.528C349.145 108.746 348.587 107.574 348.587 106.011C348.587 105.23 348.702 104.573 348.932 104.04C349.162 103.507 349.474 103.116 349.868 102.868C350.262 102.619 350.591 102.441 350.853 102.335C351.116 102.228 351.395 102.175 351.691 102.175C353.136 102.175 353.859 102.921 353.859 104.413C353.859 105.123 353.662 105.745 353.268 106.278C352.874 106.811 352.496 107.166 352.134 107.343C351.773 107.521 351.56 107.61 351.494 107.61L351.346 107.663C351.412 107.841 351.724 108.054 352.282 108.302C352.841 108.551 353.399 108.675 353.957 108.675H354.352C354.91 108.675 355.337 108.64 355.633 108.569C356.717 108.249 357.718 107.574 358.638 106.544C359.558 105.514 360.264 104.413 360.757 103.241C361.25 102.068 361.627 101.074 361.89 100.257C362.153 99.44 362.284 98.9072 362.284 98.6585L361.989 98.8716C361.792 99.0137 361.479 99.2091 361.052 99.4577C360.625 99.7064 360.198 99.9195 359.771 100.097C359.114 100.275 358.474 100.364 357.85 100.364C356.339 100.364 355.009 99.9728 353.859 99.1913C352.709 98.4099 351.954 97.1489 351.592 95.4084C351.56 95.1597 351.543 94.6092 351.543 93.7567C351.543 91.732 352.118 89.0857 353.268 85.8178C354.417 82.5499 354.992 80.4719 354.992 79.5839C354.992 79.5484 354.992 79.5129 354.992 79.4774C354.992 79.1577 354.992 78.9446 354.992 78.838C354.992 78.7314 354.926 78.6071 354.795 78.465C354.664 78.3229 354.483 78.2519 354.253 78.2519H354.056C353.301 78.2519 352.611 78.5894 351.987 79.2642C351.363 79.9391 350.87 80.6673 350.509 81.4488C350.147 82.2302 349.868 82.9762 349.671 83.6866C349.474 84.397 349.342 84.7877 349.277 84.8587C349.211 84.9298 348.948 84.9653 348.488 84.9653H347.799C347.602 84.7522 347.503 84.5923 347.503 84.4858Z" fill="black"/>
<path d="M384.556 47.2212C384.556 47.2212 384.556 46.7592 384.556 45.8354C384.556 44.9116 385.016 44.201 385.936 43.7035H415.409V27.7144L415.508 11.7253C416.165 10.8015 416.789 10.3396 417.381 10.3396C418.235 10.3396 418.892 10.8726 419.352 11.9385V43.7035H448.726C449.712 44.272 450.205 44.9827 450.205 45.8354C450.205 46.6882 449.712 47.3988 448.726 47.9673H419.352V79.7324C418.826 80.7272 418.235 81.2247 417.578 81.2247H417.381H417.183C416.395 81.2247 415.803 80.7272 415.409 79.7324V47.9673H385.936C385.016 47.4699 384.556 46.7592 384.556 45.8354V47.2212Z" fill="black"/>
<path d="M463.413 66.0884C463.413 64.3829 463.972 62.8905 465.089 61.6114C466.206 60.3323 467.619 59.6927 469.328 59.6927C470.905 59.6927 472.285 60.2612 473.468 61.3982C474.65 62.5352 475.275 64.0631 475.34 65.9818C475.34 67.7583 474.782 69.2862 473.665 70.5653C472.548 71.8444 471.135 72.484 469.426 72.484C467.718 72.484 466.305 71.88 465.188 70.6719C464.071 69.4638 463.479 67.936 463.413 66.0884Z" fill="black"/>
<path d="M507.238 66.0884C507.238 64.3829 507.797 62.8905 508.914 61.6114C510.031 60.3323 511.444 59.6927 513.153 59.6927C514.73 59.6927 516.11 60.2612 517.292 61.3982C518.475 62.5352 519.1 64.0631 519.165 65.9818C519.165 67.7583 518.607 69.2862 517.49 70.5653C516.372 71.8444 514.96 72.484 513.251 72.484C511.543 72.484 510.13 71.88 509.013 70.6719C507.895 69.4638 507.304 67.936 507.238 66.0884Z" fill="black"/>
<path d="M551.073 66.0884C551.073 64.3829 551.632 62.8905 552.749 61.6114C553.866 60.3323 555.279 59.6927 556.987 59.6927C558.564 59.6927 559.944 60.2612 561.127 61.3982C562.31 62.5352 562.934 64.0631 563 65.9818C563 67.7583 562.441 69.2862 561.324 70.5653C560.207 71.8444 558.794 72.484 557.086 72.484C555.377 72.484 553.964 71.88 552.847 70.6719C551.73 69.4638 551.139 67.936 551.073 66.0884Z" fill="black"/>
</svg>
