<svg width="800" height="95" viewBox="0 0 800 95" fill="none" xmlns="http://www.w3.org/2000/svg">
<path d="M1.55059 61.9325C0.516864 61.9325 0 61.6284 0 61.0204C0 60.8987 0.0912112 60.4731 0.273634 59.7434C0.516864 58.7705 0.760094 58.2232 1.00332 58.1016C1.24655 57.98 1.94584 57.8888 3.10118 57.828C4.74298 57.828 6.56721 57.7368 8.57386 57.5543C9.42516 57.3719 10.0028 57.0071 10.3069 56.4598C10.4285 56.1558 12.5872 47.6123 16.7829 30.8294C20.9786 14.0466 23.1068 5.53352 23.1677 5.29029C23.1677 4.86464 23.046 4.65181 22.8028 4.65181C22.3163 4.46939 20.705 4.31737 17.9686 4.19576H15.1411C14.7762 3.83091 14.5938 3.58768 14.5938 3.46607C14.5938 3.34445 14.6546 2.82759 14.7762 1.91548C15.0195 0.881749 15.3235 0.24327 15.6883 4.04716e-05H64.8512C65.2768 0.24327 65.4897 0.577712 65.4897 1.00336C65.4897 1.3074 65.0944 4.71262 64.3039 11.219C63.5134 17.7254 63.0878 21.0698 63.027 21.2523C62.9053 21.6779 62.2973 21.8907 61.2027 21.8907H60.1082C59.6826 21.5867 59.4697 21.1915 59.4697 20.705C59.4697 20.6442 59.5609 19.9145 59.7434 18.5159C59.9258 17.1173 60.017 15.506 60.017 13.6817C60.017 11.8575 59.8042 10.3677 59.3785 9.21238C58.9529 8.05703 58.3752 7.11452 57.6455 6.38483C56.9158 5.65514 55.7909 5.16868 54.2707 4.92545C52.7505 4.68222 51.1999 4.46939 49.6189 4.28697C48.0379 4.10455 45.8488 4.07414 43.0517 4.19576H40.9538C35.9676 4.25656 33.3225 4.34778 33.0185 4.46939C32.7144 4.59101 32.5016 4.83424 32.38 5.19908C32.3192 5.25989 31.2855 9.24278 29.2788 17.1478L26.36 28.914H31.3767C31.5591 28.914 32.2584 28.914 33.4745 28.914C34.6907 28.914 35.542 28.8836 36.0284 28.8228C36.5149 28.762 37.1838 28.6708 38.0351 28.5492C38.8864 28.4275 39.6161 28.2147 40.2242 27.9107C40.8322 27.6066 41.3491 27.2418 41.7747 26.8161C42.5652 26.0865 43.2341 25.0831 43.7814 23.8062C44.3287 22.5292 44.7239 21.3739 44.9671 20.3401C45.2104 19.3064 45.3624 18.7592 45.4232 18.6983C45.6056 18.3943 46.1833 18.2423 47.1562 18.2423H48.2507C48.6764 18.5463 48.8892 18.8504 48.8892 19.1544C48.8892 19.3368 47.9467 23.3197 46.0617 31.1031C44.1766 38.8864 43.1429 42.8997 42.9605 43.143C42.8389 43.5686 42.2308 43.7814 41.1363 43.7814H40.0417C39.6161 43.4166 39.4033 43.0517 39.4033 42.6869C39.4033 42.5045 39.5553 41.8356 39.8593 40.6803C40.1633 39.5249 40.3154 38.3088 40.3154 37.0318C40.3154 35.2684 39.7073 34.1739 38.4911 33.7482C37.275 33.3225 34.5691 33.1097 30.3733 33.1097H25.3567L22.438 44.6935C20.4921 52.2337 19.5192 56.1862 19.5192 56.551C19.5192 57.4023 22.2251 57.828 27.637 57.828H29.9173C30.2821 58.1928 30.4646 58.4056 30.4646 58.4664C30.4646 58.5273 30.4037 59.1353 30.2821 60.2907C30.0389 61.0812 29.7349 61.6588 29.37 62.0237H27.8194C25.3263 61.9021 20.7354 61.8413 14.0465 61.8413C10.094 61.8413 7.08407 61.8413 5.01662 61.8413C2.94916 61.8413 1.79382 61.8717 1.55059 61.9325Z" fill="black"/>
<path d="M69.5569 38.4322L68.7186 38.7546C68.1167 38.9696 67.2569 39.1846 66.1392 39.3995C65.0214 39.6145 63.7747 39.7649 62.3989 39.8509H61.1737V36.8845H62.3989C64.4195 36.7986 66.2896 36.4761 68.0093 35.9172C69.7289 35.3584 70.9326 34.8425 71.6205 34.3696C72.3083 33.8967 72.9102 33.4238 73.4261 32.9509C73.5121 32.8219 73.77 32.7574 74.1999 32.7574C74.5869 32.7574 74.9523 32.8864 75.2962 33.1443V52.4258L75.3607 71.7717C75.6616 72.0726 75.9196 72.2661 76.1345 72.352C76.3495 72.438 76.8654 72.524 77.6822 72.61C78.499 72.696 79.8318 72.739 81.6804 72.739H83.357V75.7053H82.6477C81.7449 75.5763 78.3271 75.5119 72.3943 75.5119C66.5476 75.5119 63.1728 75.5763 62.27 75.7053H61.4961V72.739H63.1728C64.1186 72.739 64.9354 72.739 65.6233 72.739C66.3111 72.739 66.8485 72.7175 67.2354 72.6745C67.6223 72.6315 67.9663 72.567 68.2672 72.481C68.5681 72.395 68.7401 72.352 68.7831 72.352C68.8261 72.352 68.9551 72.2446 69.17 72.0296C69.385 71.8146 69.5139 71.7287 69.5569 71.7717V38.4322Z" fill="black"/>
<path d="M89.022 72.2934C89.022 71.8679 89.2499 71.1384 89.7059 70.105C90.1618 69.0716 90.8912 67.9926 91.8943 66.868C92.8973 65.7434 94.0219 65.1963 95.2681 65.2267C96.5142 65.2267 97.5173 65.5762 98.2771 66.2753C99.037 66.9744 99.4321 67.947 99.4625 69.1932C99.4017 69.7707 99.3561 70.0898 99.3257 70.1506C99.3257 70.2418 99.0826 70.9409 98.5963 72.2478C98.1099 73.5548 97.6084 75.0289 97.0917 76.6702C96.575 78.3115 96.3319 79.6185 96.3623 80.5911C96.3623 81.8981 96.575 82.8099 97.0005 83.3266C97.4261 83.8434 98.0644 84.1169 98.9154 84.1473C99.6145 84.1473 100.268 83.9801 100.876 83.6458C101.484 83.3114 101.955 82.9619 102.289 82.5972C102.624 82.2324 103.034 81.7309 103.52 81.0926C103.52 81.0623 103.596 80.7583 103.748 80.1808C103.9 79.6033 104.113 78.7067 104.386 77.4909C104.66 76.2751 104.949 75.1505 105.253 74.1171C106.408 69.5579 107.046 67.1719 107.168 66.9592C107.563 66.1385 108.216 65.7282 109.128 65.7282C109.523 65.7282 109.842 65.8346 110.085 66.0473C110.329 66.2601 110.496 66.4425 110.587 66.5944C110.678 66.7464 110.708 66.8832 110.678 67.0048C110.678 67.3999 109.933 70.5913 108.444 76.5791C106.955 82.5668 106.104 85.8494 105.891 86.4269C105.04 88.9496 103.566 90.9557 101.469 92.445C99.3713 93.9344 97.2741 94.6942 95.1769 94.7246C93.8091 94.7246 92.6085 94.3903 91.5751 93.7216C90.5417 93.0529 90.025 92.0499 90.025 90.7125C90.025 90.0438 90.1314 89.4815 90.3441 89.0256C90.5569 88.5697 90.8456 88.2354 91.2104 88.0226C91.5751 87.8098 91.8791 87.6579 92.1222 87.5667C92.3654 87.4755 92.6237 87.4299 92.8973 87.4299C94.2346 87.4299 94.9033 88.0682 94.9033 89.3448C94.9033 89.9527 94.721 90.4846 94.3562 90.9405C93.9915 91.3964 93.6419 91.7004 93.3076 91.8523C92.9733 92.0043 92.7757 92.0803 92.7149 92.0803L92.5781 92.1259C92.6389 92.2778 92.9277 92.4602 93.4444 92.673C93.9611 92.8857 94.4778 92.9921 94.9945 92.9921H95.3592C95.8759 92.9921 96.2711 92.9617 96.5446 92.9009C97.5476 92.6274 98.4747 92.0499 99.3257 91.1684C100.177 90.287 100.83 89.3448 101.286 88.3418C101.742 87.3387 102.092 86.4877 102.335 85.7886C102.578 85.0895 102.7 84.6336 102.7 84.4209L102.426 84.6032C102.244 84.7248 101.955 84.892 101.56 85.1047C101.165 85.3175 100.769 85.4999 100.374 85.6518C99.7665 85.8038 99.1738 85.8798 98.5963 85.8798C97.1981 85.8798 95.9671 85.5455 94.9033 84.8768C93.8395 84.2081 93.1404 83.1291 92.8061 81.6397C92.7757 81.427 92.7605 80.9559 92.7605 80.2264C92.7605 78.4939 93.2924 76.2295 94.3562 73.4332C95.42 70.6369 95.9519 68.8588 95.9519 68.099C95.9519 68.0686 95.9519 68.0382 95.9519 68.0078C95.9519 67.7342 95.9519 67.5519 95.9519 67.4607C95.9519 67.3695 95.8911 67.2631 95.7696 67.1415C95.648 67.02 95.4808 66.9592 95.2681 66.9592H95.0857C94.3866 66.9592 93.7483 67.2479 93.1708 67.8254C92.5933 68.4029 92.1374 69.026 91.8031 69.6947C91.4687 70.3634 91.2104 71.0017 91.028 71.6095C90.8456 72.2174 90.7241 72.5518 90.6633 72.6126C90.6025 72.6734 90.3593 72.7037 89.9338 72.7037H89.2955C89.1132 72.5214 89.022 72.3846 89.022 72.2934Z" fill="black"/>
<path d="M143.576 40.4065C143.576 40.4065 143.576 40.0113 143.576 39.2208C143.576 38.4303 144.001 37.8222 144.853 37.3966H172.125V23.7149L172.216 10.0332C172.824 9.2427 173.402 8.84745 173.949 8.84745C174.739 8.84745 175.347 9.30351 175.773 10.2156V37.3966H202.954C203.866 37.883 204.322 38.4911 204.322 39.2208C204.322 39.9505 203.866 40.5586 202.954 41.045H175.773V68.226C175.287 69.0773 174.739 69.5029 174.131 69.5029H173.949H173.766C173.037 69.5029 172.49 69.0773 172.125 68.226V41.045H144.853C144.001 40.6194 143.576 40.0113 143.576 39.2208V40.4065Z" fill="black"/>
<path d="M234.085 61.9325C233.051 61.9325 232.534 61.6284 232.534 61.0204C232.534 60.8987 232.625 60.4731 232.808 59.7434C233.051 58.7705 233.294 58.2232 233.537 58.1016C233.78 57.98 234.48 57.8888 235.635 57.828C237.277 57.828 239.101 57.7368 241.108 57.5543C241.959 57.3719 242.537 57.0071 242.841 56.4598C242.962 56.1558 245.121 47.6123 249.317 30.8294C253.513 14.0466 255.641 5.53352 255.702 5.29029C255.702 4.86464 255.58 4.65181 255.337 4.65181C254.85 4.46939 253.239 4.31737 250.503 4.19576H247.675C247.31 3.83091 247.128 3.58768 247.128 3.46607C247.128 3.34445 247.189 2.82759 247.31 1.91548C247.553 0.881749 247.857 0.24327 248.222 4.04716e-05H297.385C297.811 0.24327 298.024 0.577712 298.024 1.00336C298.024 1.3074 297.628 4.71262 296.838 11.219C296.047 17.7254 295.622 21.0698 295.561 21.2523C295.439 21.6779 294.831 21.8907 293.737 21.8907H292.642C292.216 21.5867 292.004 21.1915 292.004 20.705C292.004 20.6442 292.095 19.9145 292.277 18.5159C292.46 17.1173 292.551 15.506 292.551 13.6817C292.551 11.8575 292.338 10.3677 291.912 9.21238C291.487 8.05703 290.909 7.11452 290.179 6.38483C289.45 5.65514 288.325 5.16868 286.805 4.92545C285.284 4.68222 283.734 4.46939 282.153 4.28697C280.572 4.10455 278.383 4.07414 275.586 4.19576H273.488C268.502 4.25656 265.856 4.34778 265.552 4.46939C265.248 4.59101 265.036 4.83424 264.914 5.19908C264.853 5.25989 263.819 9.24278 261.813 17.1478L258.894 28.914H263.911C264.093 28.914 264.792 28.914 266.008 28.914C267.225 28.914 268.076 28.8836 268.562 28.8228C269.049 28.762 269.718 28.6708 270.569 28.5492C271.42 28.4275 272.15 28.2147 272.758 27.9107C273.366 27.6066 273.883 27.2418 274.309 26.8161C275.099 26.0865 275.768 25.0831 276.315 23.8062C276.863 22.5292 277.258 21.3739 277.501 20.3401C277.744 19.3064 277.896 18.7592 277.957 18.6983C278.14 18.3943 278.717 18.2423 279.69 18.2423H280.785C281.21 18.5463 281.423 18.8504 281.423 19.1544C281.423 19.3368 280.481 23.3197 278.596 31.1031C276.711 38.8864 275.677 42.8997 275.494 43.143C275.373 43.5686 274.765 43.7814 273.67 43.7814H272.576C272.15 43.4166 271.937 43.0517 271.937 42.6869C271.937 42.5045 272.089 41.8356 272.393 40.6803C272.697 39.5249 272.849 38.3088 272.849 37.0318C272.849 35.2684 272.241 34.1739 271.025 33.7482C269.809 33.3225 267.103 33.1097 262.907 33.1097H257.891L254.972 44.6935C253.026 52.2337 252.053 56.1862 252.053 56.551C252.053 57.4023 254.759 57.828 260.171 57.828H262.451C262.816 58.1928 262.998 58.4056 262.998 58.4664C262.998 58.5273 262.938 59.1353 262.816 60.2907C262.573 61.0812 262.269 61.6588 261.904 62.0237H260.353C257.86 61.9021 253.269 61.8413 246.58 61.8413C242.628 61.8413 239.618 61.8413 237.551 61.8413C235.483 61.8413 234.328 61.8717 234.085 61.9325Z" fill="black"/>
<path d="M295.384 48.0407C294.224 48.0407 293.299 47.6538 292.611 46.8799C291.924 46.1061 291.58 45.1603 291.58 44.0425C291.58 40.9902 292.719 38.3462 294.997 36.1107C297.276 33.8752 300.113 32.7574 303.51 32.7574C307.422 32.7574 310.689 33.9612 313.311 36.3687C315.934 38.7761 317.267 41.893 317.31 45.7192C317.31 47.5678 316.88 49.3304 316.02 51.0071C315.16 52.6837 314.128 54.1454 312.925 55.3921C311.721 56.6389 310.001 58.2295 307.766 60.1641C306.218 61.4968 304.068 63.4744 301.317 66.0969L297.512 69.7081L302.413 69.7726C309.163 69.7726 312.753 69.6651 313.183 69.4501C313.483 69.3642 313.999 67.4511 314.73 63.7109V63.5174H317.31V63.7109C317.267 63.8398 316.987 65.7959 316.471 69.5791C315.955 73.3623 315.633 75.3399 315.504 75.5119V75.7053H291.58V74.4801V73.7062C291.58 73.4053 291.709 73.0829 291.967 72.739C292.224 72.395 292.869 71.6427 293.901 70.4819C295.148 69.1062 296.223 67.9025 297.125 66.8707C297.512 66.4408 298.243 65.6455 299.318 64.4847C300.393 63.3239 301.124 62.5286 301.51 62.0987C301.897 61.6688 302.521 60.9594 303.381 59.9707C304.24 58.9819 304.842 58.251 305.186 57.7781C305.53 57.3052 306.025 56.6604 306.669 55.8435C307.314 55.0267 307.766 54.3388 308.024 53.78C308.282 53.2211 308.604 52.5977 308.991 51.9099C309.378 51.222 309.657 50.5342 309.829 49.8463C310.001 49.1584 310.152 48.5136 310.281 47.9117C310.41 47.3098 310.474 46.6005 310.474 45.7837C310.474 43.0752 309.743 40.7322 308.282 38.7546C306.82 36.7771 304.735 35.7883 302.026 35.7883C300.608 35.7883 299.361 36.1537 298.286 36.8845C297.211 37.6154 296.459 38.3247 296.029 39.0126C295.599 39.7004 295.384 40.1089 295.384 40.2378C295.384 40.2808 295.492 40.3023 295.707 40.3023C296.481 40.3023 297.276 40.6033 298.093 41.2051C298.91 41.807 299.318 42.7958 299.318 44.1715C299.318 45.2463 298.974 46.1491 298.286 46.8799C297.598 47.6108 296.631 47.9977 295.384 48.0407Z" fill="black"/>
<path d="M321.556 72.2934C321.556 71.8679 321.784 71.1384 322.24 70.105C322.696 69.0716 323.425 67.9926 324.428 66.868C325.431 65.7434 326.556 65.1963 327.802 65.2267C329.048 65.2267 330.051 65.5762 330.811 66.2753C331.571 66.9744 331.966 67.947 331.996 69.1932C331.936 69.7707 331.89 70.0898 331.86 70.1506C331.86 70.2418 331.617 70.9409 331.13 72.2478C330.644 73.5548 330.142 75.0289 329.626 76.6702C329.109 78.3115 328.866 79.6185 328.896 80.5911C328.896 81.8981 329.109 82.8099 329.534 83.3266C329.96 83.8434 330.598 84.1169 331.449 84.1473C332.148 84.1473 332.802 83.9801 333.41 83.6458C334.018 83.3114 334.489 82.9619 334.823 82.5972C335.157 82.2324 335.568 81.7309 336.054 81.0926C336.054 81.0623 336.13 80.7583 336.282 80.1808C336.434 79.6033 336.647 78.7067 336.92 77.4909C337.194 76.2751 337.483 75.1505 337.787 74.1171C338.942 69.5579 339.58 67.1719 339.701 66.9592C340.097 66.1385 340.75 65.7282 341.662 65.7282C342.057 65.7282 342.376 65.8346 342.619 66.0473C342.862 66.2601 343.03 66.4425 343.121 66.5944C343.212 66.7464 343.242 66.8832 343.212 67.0048C343.212 67.3999 342.467 70.5913 340.978 76.5791C339.489 82.5668 338.638 85.8494 338.425 86.4269C337.574 88.9496 336.1 90.9557 334.002 92.445C331.905 93.9344 329.808 94.6942 327.711 94.7246C326.343 94.7246 325.142 94.3903 324.109 93.7216C323.076 93.0529 322.559 92.0499 322.559 90.7125C322.559 90.0438 322.665 89.4815 322.878 89.0256C323.091 88.5697 323.38 88.2354 323.744 88.0226C324.109 87.8098 324.413 87.6579 324.656 87.5667C324.899 87.4755 325.158 87.4299 325.431 87.4299C326.769 87.4299 327.437 88.0682 327.437 89.3448C327.437 89.9527 327.255 90.4846 326.89 90.9405C326.525 91.3964 326.176 91.7004 325.842 91.8523C325.507 92.0043 325.31 92.0803 325.249 92.0803L325.112 92.1259C325.173 92.2778 325.462 92.4602 325.978 92.673C326.495 92.8857 327.012 92.9921 327.528 92.9921H327.893C328.41 92.9921 328.805 92.9617 329.079 92.9009C330.082 92.6274 331.009 92.0499 331.86 91.1684C332.711 90.287 333.364 89.3448 333.82 88.3418C334.276 87.3387 334.626 86.4877 334.869 85.7886C335.112 85.0895 335.233 84.6336 335.233 84.4209L334.96 84.6032C334.778 84.7248 334.489 84.892 334.094 85.1047C333.699 85.3175 333.303 85.4999 332.908 85.6518C332.3 85.8038 331.708 85.8798 331.13 85.8798C329.732 85.8798 328.501 85.5455 327.437 84.8768C326.373 84.2081 325.674 83.1291 325.34 81.6397C325.31 81.427 325.294 80.9559 325.294 80.2264C325.294 78.4939 325.826 76.2295 326.89 73.4332C327.954 70.6369 328.486 68.8588 328.486 68.099C328.486 68.0686 328.486 68.0382 328.486 68.0078C328.486 67.7342 328.486 67.5519 328.486 67.4607C328.486 67.3695 328.425 67.2631 328.304 67.1415C328.182 67.02 328.015 66.9592 327.802 66.9592H327.62C326.921 66.9592 326.282 67.2479 325.705 67.8254C325.127 68.4029 324.671 69.026 324.337 69.6947C324.003 70.3634 323.744 71.0017 323.562 71.6095C323.38 72.2174 323.258 72.5518 323.197 72.6126C323.136 72.6734 322.893 72.7037 322.468 72.7037H321.829C321.647 72.5214 321.556 72.3846 321.556 72.2934Z" fill="black"/>
<path d="M355.842 40.4065C355.842 40.4065 355.842 40.0113 355.842 39.2208C355.842 38.4303 356.268 37.8222 357.119 37.3966H384.392V23.7149L384.483 10.0332C385.091 9.2427 385.668 8.84745 386.216 8.84745C387.006 8.84745 387.614 9.30351 388.04 10.2156V37.3966H415.221C416.133 37.883 416.589 38.4911 416.589 39.2208C416.589 39.9505 416.133 40.5586 415.221 41.045H388.04V68.226C387.554 69.0773 387.006 69.5029 386.398 69.5029H386.216H386.033C385.304 69.5029 384.756 69.0773 384.392 68.226V41.045H357.119C356.268 40.6194 355.842 40.0113 355.842 39.2208V40.4065Z" fill="black"/>
<path d="M428.811 56.551C428.811 55.0916 429.328 53.8147 430.362 52.7201C431.396 51.6256 432.703 51.0783 434.284 51.0783C435.743 51.0783 437.02 51.5648 438.115 52.5377C439.209 53.5106 439.787 54.818 439.848 56.4598C439.848 57.98 439.331 59.2873 438.297 60.3819C437.264 61.4764 435.956 62.0237 434.375 62.0237C432.794 62.0237 431.487 61.5068 430.453 60.4731C429.419 59.4394 428.872 58.132 428.811 56.551Z" fill="black"/>
<path d="M469.364 56.551C469.364 55.0916 469.881 53.8147 470.914 52.7201C471.948 51.6256 473.256 51.0783 474.837 51.0783C476.296 51.0783 477.573 51.5648 478.667 52.5377C479.762 53.5106 480.34 54.818 480.4 56.4598C480.4 57.98 479.884 59.2873 478.85 60.3819C477.816 61.4764 476.509 62.0237 474.928 62.0237C473.347 62.0237 472.039 61.5068 471.006 60.4731C469.972 59.4394 469.425 58.132 469.364 56.551Z" fill="black"/>
<path d="M509.926 56.551C509.926 55.0916 510.442 53.8147 511.476 52.7201C512.51 51.6256 513.817 51.0783 515.398 51.0783C516.858 51.0783 518.135 51.5648 519.229 52.5377C520.324 53.5106 520.901 54.818 520.962 56.4598C520.962 57.98 520.445 59.2873 519.412 60.3819C518.378 61.4764 517.07 62.0237 515.489 62.0237C513.908 62.0237 512.601 61.5068 511.567 60.4731C510.534 59.4394 509.986 58.132 509.926 56.551Z" fill="black"/>
<path d="M548.48 30.3734C548.48 29.5829 548.906 28.9748 549.757 28.5491H607.859C608.771 29.0356 609.227 29.6437 609.227 30.3734C609.227 31.0423 608.802 31.6199 607.95 32.1064L578.945 32.1976H549.94C548.967 31.8936 548.48 31.2855 548.48 30.3734ZM548.48 48.0684C548.48 47.1562 548.967 46.5482 549.94 46.2441H607.95C608.802 46.8522 609.227 47.4603 609.227 48.0684C609.227 48.8589 608.771 49.4669 607.859 49.8926H549.757C548.906 49.4669 548.48 48.8589 548.48 48.0684Z" fill="black"/>
<path d="M641.58 35.8459C641.641 35.4811 641.732 34.9946 641.853 34.3865C641.975 33.7784 642.34 32.6231 642.948 30.9205C643.556 29.2179 644.164 27.7889 644.772 26.6336C645.38 25.4782 646.353 24.3533 647.691 23.2588C649.029 22.1642 650.367 21.6474 651.704 21.7082C653.042 21.769 654.349 21.9818 655.626 22.3466C656.903 22.7115 657.815 23.2588 658.363 23.9884C658.91 24.7181 659.396 25.387 659.822 25.9951C660.248 26.6032 660.491 27.1808 660.552 27.7281L660.734 28.3666C660.734 28.4882 660.765 28.549 660.825 28.549L661.829 27.5457C665.477 23.654 669.764 21.7082 674.69 21.7082C675.723 21.7082 676.666 21.769 677.517 21.8906C678.368 22.0122 679.159 22.225 679.889 22.5291C680.618 22.8331 681.196 23.1371 681.622 23.4412C682.047 23.7452 682.503 24.1101 682.99 24.5357C683.476 24.9614 683.78 25.3566 683.902 25.7215C684.023 26.0863 684.267 26.4816 684.632 26.9072C684.996 27.3329 685.118 27.6977 684.996 28.0017C684.875 28.3058 684.966 28.5794 685.27 28.8226C685.574 29.0659 685.635 29.2787 685.452 29.4611L686.182 28.549C690.013 23.9884 694.543 21.7082 699.773 21.7082C703.056 21.7082 705.701 22.5291 707.708 24.1709C709.715 25.8127 710.748 28.2146 710.809 31.3766C710.809 34.4777 709.654 39.2815 707.343 45.7879C705.032 52.2943 703.877 56.186 703.877 57.463C703.938 58.3143 704.09 58.8919 704.333 59.196C704.576 59.5 705.032 59.652 705.701 59.652C707.404 59.652 708.985 58.7399 710.444 56.9157C711.904 55.0915 713.089 52.5984 714.002 49.4364C714.184 48.7675 714.366 48.3722 714.549 48.2506C714.731 48.129 715.218 48.0682 716.008 48.0682C717.224 48.0682 717.832 48.3114 717.832 48.7979C717.832 48.8587 717.711 49.3148 717.468 50.1661C716.981 51.9295 716.312 53.6625 715.461 55.3651C714.61 57.0677 713.211 58.7703 711.265 60.4729C709.319 62.1756 707.222 62.9965 704.972 62.9356C702.114 62.9356 700.046 62.1147 698.769 60.4729C697.492 58.8311 696.854 57.1285 696.854 55.3651C696.854 54.2098 697.948 50.5613 700.137 44.4198C702.327 38.2782 703.451 33.6568 703.512 30.5557C703.512 26.968 702.175 25.1742 699.499 25.1742H699.043C693.813 25.1742 689.405 28.245 685.817 34.3865L685.179 35.4811L682.169 47.7034C680.162 55.6691 679.007 59.9561 678.703 60.5642C677.912 62.206 676.605 63.0269 674.781 63.0269C673.99 63.0269 673.352 62.814 672.865 62.3884C672.379 61.9627 672.044 61.5979 671.862 61.2938C671.68 60.9898 671.588 60.6858 671.588 60.3817C671.588 59.7128 672.622 55.3651 674.69 47.3385L677.973 34.0217C678.156 33.1096 678.247 31.9542 678.247 30.5557C678.247 26.968 676.909 25.1742 674.233 25.1742H673.777C668.548 25.1742 664.139 28.245 660.552 34.3865L659.913 35.4811L656.903 47.7034C654.897 55.6691 653.741 59.9561 653.437 60.5642C652.647 62.206 651.339 63.0269 649.515 63.0269C648.725 63.0269 648.086 62.8444 647.6 62.4796C647.113 62.1147 646.779 61.7499 646.596 61.3851C646.414 61.0202 646.353 60.7162 646.414 60.4729C646.414 59.6824 647.569 54.6962 649.88 45.5143C652.252 36.1499 653.437 31.2549 653.437 30.8293C653.62 29.9172 653.711 29.0963 653.711 28.3666C653.711 26.1775 652.951 25.083 651.431 25.083C650.093 25.083 648.968 25.9343 648.056 27.6369C647.144 29.3395 646.444 31.1941 645.958 33.2008C645.472 35.2074 645.107 36.302 644.863 36.4844C644.742 36.606 644.255 36.6668 643.404 36.6668H642.127C641.762 36.302 641.58 36.0283 641.58 35.8459Z" fill="black"/>
<path d="M722.758 47.7035C722.758 41.562 725.069 35.7244 729.69 30.191C734.311 24.6575 739.51 21.8603 745.287 21.7995C748.388 21.7995 751.125 23.2893 753.496 26.2689C754.469 24.4446 755.868 23.5325 757.692 23.5325C758.482 23.5325 759.182 23.7758 759.79 24.2622C760.398 24.7487 760.702 25.3568 760.702 26.0865C760.702 26.8769 759.577 31.7415 757.327 40.6802C755.077 49.619 753.922 54.666 753.861 55.8213C753.861 57.3415 754.074 58.3448 754.499 58.8313C754.925 59.3177 755.564 59.5914 756.415 59.6522C756.962 59.5914 757.57 59.3177 758.239 58.8313C759.516 57.6151 760.763 54.6964 761.979 50.075C762.344 48.8589 762.648 48.2204 762.891 48.1596C763.013 48.0988 763.317 48.0684 763.803 48.0684H764.168C765.323 48.0684 765.901 48.342 765.901 48.8893C765.901 49.2541 765.749 50.075 765.445 51.352C765.141 52.6289 764.533 54.2707 763.621 56.2774C762.708 58.284 761.736 59.8042 760.702 60.8379C759.911 61.6284 758.938 62.2669 757.783 62.7534C757.297 62.875 756.567 62.9358 755.594 62.9358C753.527 62.9358 751.794 62.4797 750.395 61.5676C748.996 60.6555 748.084 59.713 747.659 58.7401L747.111 57.3719C747.051 57.3111 746.929 57.3415 746.746 57.4631C746.625 57.5847 746.503 57.7063 746.382 57.828C742.794 61.2332 739.146 62.9358 735.436 62.9358C732.092 62.9358 729.143 61.7196 726.589 59.2873C724.035 56.855 722.758 52.9938 722.758 47.7035ZM751.763 32.1064C751.763 31.7415 751.611 31.0727 751.307 30.0997C751.003 29.1268 750.304 28.0627 749.209 26.9074C748.115 25.752 746.716 25.1439 745.013 25.0831C742.885 25.0831 740.848 26.0256 738.902 27.9107C736.956 29.7957 735.436 32.2584 734.342 35.2988C732.578 40.1026 731.332 45.0888 730.602 50.2574C730.602 50.4399 730.602 50.7743 730.602 51.2608C730.602 51.7472 730.572 52.1121 730.511 52.3553C730.511 55.0916 731.058 56.9767 732.153 58.0104C733.247 59.0441 734.555 59.5914 736.075 59.6522C738.385 59.6522 740.666 58.6489 742.916 56.6422C745.165 54.6356 746.503 53.085 746.929 51.9904C747.051 51.7472 747.871 48.494 749.392 42.2308C750.912 35.9677 751.702 32.5929 751.763 32.1064Z" fill="black"/>
<path d="M769.353 57.1978C769.353 56.5959 769.675 55.5641 770.32 54.1024C770.965 52.6407 771.997 51.1146 773.415 49.5239C774.834 47.9332 776.425 47.1594 778.187 47.2024C779.95 47.2024 781.369 47.6968 782.444 48.6856C783.518 49.6744 784.077 51.0501 784.12 52.8127C784.034 53.6295 783.97 54.0809 783.927 54.1669C783.927 54.2959 783.583 55.2847 782.895 57.1333C782.207 58.9819 781.498 61.0669 780.767 63.3885C780.036 65.71 779.692 67.5586 779.735 68.9343C779.735 70.7829 780.036 72.0726 780.638 72.8035C781.24 73.5343 782.143 73.9212 783.346 73.9642C784.335 73.9642 785.259 73.7278 786.119 73.2549C786.979 72.782 787.645 72.2876 788.118 71.7717C788.591 71.2558 789.172 70.5464 789.859 69.6436C789.859 69.6006 789.967 69.1707 790.182 68.3539C790.397 67.5371 790.698 66.2688 791.085 64.5492C791.472 62.8296 791.88 61.2389 792.31 59.7772C793.944 53.3286 794.846 49.9538 795.018 49.6529C795.577 48.4921 796.502 47.9117 797.791 47.9117C798.35 47.9117 798.802 48.0622 799.145 48.3631C799.489 48.6641 799.726 48.922 799.855 49.137C799.984 49.3519 800.027 49.5454 799.984 49.7173C799.984 50.2762 798.931 54.7903 796.824 63.2595C794.717 71.7287 793.514 76.3717 793.213 77.1885C792.009 80.7568 789.924 83.5942 786.958 85.7007C783.991 87.8073 781.025 88.8821 778.058 88.925C776.124 88.925 774.426 88.4521 772.964 87.5063C771.502 86.5605 770.771 85.1418 770.771 83.2503C770.771 82.3045 770.922 81.5091 771.223 80.8643C771.524 80.2194 771.932 79.7465 772.448 79.4456C772.964 79.1446 773.394 78.9297 773.738 78.8007C774.082 78.6717 774.447 78.6072 774.834 78.6072C776.726 78.6072 777.672 79.51 777.672 81.3157C777.672 82.1755 777.414 82.9278 776.898 83.5727C776.382 84.2175 775.887 84.6475 775.414 84.8624C774.942 85.0774 774.662 85.1848 774.576 85.1848L774.383 85.2493C774.469 85.4643 774.877 85.7222 775.608 86.0232C776.339 86.3241 777.07 86.4746 777.8 86.4746H778.316C779.047 86.4746 779.606 86.4316 779.993 86.3456C781.412 85.9587 782.723 85.1418 783.927 83.8951C785.13 82.6484 786.055 81.3157 786.7 79.897C787.344 78.4783 787.839 77.2745 788.183 76.2857C788.527 75.2969 788.699 74.6521 788.699 74.3511L788.312 74.6091C788.054 74.781 787.645 75.0175 787.087 75.3184C786.528 75.6194 785.969 75.8773 785.41 76.0923C784.55 76.3072 783.712 76.4147 782.895 76.4147C780.917 76.4147 779.176 75.9418 777.672 74.996C776.167 74.0502 775.178 72.524 774.705 70.4175C774.662 70.1165 774.641 69.4502 774.641 68.4184C774.641 65.9679 775.393 62.7651 776.898 58.8099C778.402 54.8548 779.155 52.3398 779.155 51.265C779.155 51.222 779.155 51.179 779.155 51.136C779.155 50.7491 779.155 50.4912 779.155 50.3622C779.155 50.2332 779.069 50.0828 778.897 49.9108C778.725 49.7388 778.488 49.6529 778.187 49.6529H777.929C776.941 49.6529 776.038 50.0613 775.221 50.8781C774.404 51.6949 773.759 52.5762 773.286 53.522C772.814 54.4678 772.448 55.3707 772.19 56.2305C771.932 57.0903 771.76 57.5632 771.674 57.6492C771.588 57.7352 771.244 57.7781 770.643 57.7781H769.74C769.482 57.5202 769.353 57.3267 769.353 57.1978Z" fill="black"/>
</svg>
