<svg width="200" height="184" viewBox="0 0 200 184" fill="none" xmlns="http://www.w3.org/2000/svg">
<path d="M0 91.8274C0 83.3793 0.612182 75.3597 1.83655 67.7687C3.06091 60.1776 4.46893 53.6272 6.06061 48.1176C7.65228 42.608 9.91736 37.2208 12.8558 31.956C15.7943 26.6912 18.1206 22.5896 19.8347 19.6511C21.5488 16.7126 24.12 13.5293 27.5482 10.1011C30.9764 6.67285 32.9966 4.59143 33.6088 3.85681C34.221 3.12219 35.7515 1.83661 38.2002 5.96046e-05H40.5877H41.3223C43.0364 5.96046e-05 43.8935 0.551024 43.8935 1.65295C43.8935 2.02026 42.8528 3.30584 40.7713 5.5097C38.6899 7.71356 36.18 10.9581 33.2415 15.2434C30.303 19.5287 27.3033 24.7934 24.2424 31.0377C21.1815 37.282 18.6103 45.7301 16.5289 56.3821C14.4475 67.034 13.4068 78.8492 13.4068 91.8274C13.4068 104.806 14.4475 116.56 16.5289 127.089C18.6103 137.619 21.1203 146.128 24.0588 152.617C26.9972 159.106 29.9969 164.371 33.0579 168.411C36.1188 172.452 38.6899 175.696 40.7713 178.145C42.8528 180.594 43.8935 181.879 43.8935 182.002C43.8935 183.104 42.9752 183.655 41.1387 183.655H40.5877H38.2002L33.0579 179.247C21.5488 168.84 13.1619 155.862 7.89715 140.312C2.63238 124.763 0 108.601 0 91.8274Z" fill="black"/>
<path d="M74.1965 58.9533C70.8907 58.9533 68.2583 57.8514 66.2993 55.6476C64.3404 53.4437 63.3609 50.7501 63.3609 47.5667C63.3609 38.8738 66.6054 31.3439 73.0946 24.9772C79.5837 18.6105 87.6645 15.4272 97.337 15.4272C108.479 15.4272 117.784 18.8554 125.253 25.7118C132.721 32.5683 136.517 41.4449 136.639 52.3418C136.639 57.6065 135.415 62.6264 132.966 67.4015C130.517 72.1765 127.579 76.3393 124.151 79.89C120.722 83.4406 115.825 87.9708 109.458 93.4804C105.05 97.276 98.9287 102.908 91.0927 110.377L80.2571 120.661L94.2149 120.845C113.437 120.845 123.661 120.539 124.885 119.927C125.742 119.682 127.211 114.233 129.293 103.581V103.03H136.639V103.581C136.517 103.949 135.721 109.52 134.252 120.294C132.782 131.068 131.864 136.701 131.497 137.19V137.741H63.3609V134.252V132.048C63.3609 131.191 63.7282 130.273 64.4628 129.293C65.1974 128.314 67.034 126.171 69.9724 122.865C73.5231 118.947 76.584 115.519 79.1552 112.581C80.2571 111.356 82.3385 109.091 85.3994 105.785C88.4603 102.48 90.5418 100.214 91.6437 98.9901C92.7456 97.7657 94.521 95.7455 96.9697 92.9295C99.4184 90.1134 101.133 88.032 102.112 86.6852C103.092 85.3384 104.5 83.5019 106.336 81.1756C108.173 78.8493 109.458 76.8903 110.193 75.2986C110.927 73.7069 111.846 71.9316 112.948 69.9726C114.05 68.0136 114.845 66.0547 115.335 64.0957C115.825 62.1367 116.253 60.3001 116.621 58.586C116.988 56.8719 117.172 54.8517 117.172 52.5254C117.172 44.8119 115.09 38.1391 110.927 32.5071C106.765 26.875 100.826 24.0589 93.1129 24.0589C89.0725 24.0589 85.5219 25.0997 82.461 27.1811C79.4 29.2625 77.2574 31.2827 76.033 33.2417C74.8087 35.2007 74.1965 36.3638 74.1965 36.7311C74.1965 36.8536 74.5026 36.9148 75.1148 36.9148C77.3186 36.9148 79.5837 37.7718 81.91 39.4859C84.2363 41.2001 85.3994 44.0161 85.3994 47.9341C85.3994 50.995 84.4199 53.5661 82.461 55.6476C80.502 57.729 77.7472 58.8309 74.1965 58.9533Z" fill="black"/>
<path d="M157.025 0.183714L157.759 5.96046e-05C158.372 5.96046e-05 158.984 5.96046e-05 159.596 5.96046e-05H161.8L166.942 4.40777C178.451 14.8149 186.838 27.7931 192.103 43.3426C197.368 58.892 200 75.0536 200 91.8274C200 100.153 199.388 108.173 198.163 115.886C196.939 123.6 195.531 130.15 193.939 135.537C192.348 140.924 190.083 146.312 187.144 151.699C184.206 157.086 181.879 161.188 180.165 164.004C178.451 166.82 175.941 169.942 172.635 173.37C169.33 176.798 167.371 178.819 166.758 179.431C166.146 180.043 164.738 181.206 162.534 182.92C162.167 183.287 161.922 183.532 161.8 183.655H159.596C158.616 183.655 157.943 183.655 157.576 183.655C157.208 183.655 156.902 183.471 156.657 183.104C156.413 182.737 156.229 182.186 156.107 181.451C156.229 181.328 156.902 180.533 158.127 179.063C177.104 159.351 186.593 130.272 186.593 91.8274C186.593 53.3824 177.104 24.3037 158.127 4.59143C156.902 3.12219 156.229 2.32635 156.107 2.20392C156.107 1.22442 156.413 0.551024 157.025 0.183714Z" fill="black"/>
</svg>
