<svg width="858" height="867" viewBox="0 0 858 867" fill="none" xmlns="http://www.w3.org/2000/svg">
<path d="M802.049 467.561C802.635 466.975 802.635 466.025 802.049 465.439L792.503 455.893C791.918 455.308 790.968 455.308 790.382 455.893C789.796 456.479 789.796 457.429 790.382 458.015L798.867 466.5L790.382 474.985C789.796 475.571 789.796 476.521 790.382 477.107C790.968 477.692 791.918 477.692 792.503 477.107L802.049 467.561ZM0.98877 468H800.989V465H0.98877V468Z" fill="black"/>
<path d="M402.049 65.4393C401.464 64.8536 400.514 64.8536 399.928 65.4393L390.382 74.9853C389.796 75.5711 389.796 76.5208 390.382 77.1066C390.968 77.6924 391.918 77.6924 392.503 77.1066L400.989 68.6213L409.474 77.1066C410.06 77.6924 411.01 77.6924 411.595 77.1066C412.181 76.5208 412.181 75.5711 411.595 74.9853L402.049 65.4393ZM402.489 866.5V66.5H399.489V866.5H402.489Z" fill="black"/>
<path d="M708.87 191.066C707.623 191.066 707 190.699 707 189.966C707 189.82 707.11 189.306 707.33 188.426C707.623 187.253 707.917 186.593 708.21 186.446C708.503 186.3 709.347 186.19 710.74 186.116C712.72 186.116 714.92 186.006 717.34 185.786C718.366 185.566 719.063 185.126 719.43 184.466C719.576 184.1 722.179 173.797 727.239 153.558C732.299 133.318 734.866 123.052 734.939 122.759C734.939 122.245 734.792 121.989 734.499 121.989C733.912 121.769 731.969 121.585 728.669 121.439H725.259C724.819 120.999 724.599 120.705 724.599 120.559C724.599 120.412 724.673 119.789 724.819 118.689C725.113 117.442 725.479 116.672 725.919 116.379H785.207C785.72 116.672 785.977 117.076 785.977 117.589C785.977 117.956 785.5 122.062 784.547 129.908C783.594 137.755 783.08 141.788 783.007 142.008C782.86 142.521 782.127 142.778 780.807 142.778H779.487C778.974 142.411 778.717 141.935 778.717 141.348C778.717 141.275 778.827 140.395 779.047 138.708C779.267 137.021 779.377 135.078 779.377 132.878C779.377 130.678 779.121 128.882 778.607 127.489C778.094 126.095 777.397 124.959 776.517 124.079C775.637 123.199 774.281 122.612 772.448 122.319C770.614 122.025 768.744 121.769 766.838 121.549C764.931 121.329 762.291 121.292 758.918 121.439H756.388C750.375 121.512 747.185 121.622 746.819 121.769C746.452 121.915 746.195 122.209 746.049 122.649C745.975 122.722 744.729 127.525 742.309 137.058L738.789 151.248H744.839C745.059 151.248 745.902 151.248 747.368 151.248C748.835 151.248 749.862 151.211 750.448 151.138C751.035 151.064 751.842 150.954 752.868 150.808C753.895 150.661 754.775 150.404 755.508 150.038C756.241 149.671 756.865 149.231 757.378 148.718C758.331 147.838 759.138 146.628 759.798 145.088C760.458 143.548 760.935 142.155 761.228 140.908C761.521 139.661 761.705 139.001 761.778 138.928C761.998 138.561 762.695 138.378 763.868 138.378H765.188C765.701 138.745 765.958 139.111 765.958 139.478C765.958 139.698 764.821 144.501 762.548 153.888C760.275 163.274 759.028 168.114 758.808 168.407C758.661 168.92 757.928 169.177 756.608 169.177H755.288C754.775 168.737 754.518 168.297 754.518 167.857C754.518 167.637 754.702 166.83 755.068 165.437C755.435 164.044 755.618 162.577 755.618 161.037C755.618 158.911 754.885 157.591 753.418 157.077C751.952 156.564 748.688 156.307 743.629 156.307H737.579L734.059 170.277C731.712 179.37 730.539 184.136 730.539 184.576C730.539 185.603 733.802 186.116 740.329 186.116H743.079C743.519 186.556 743.739 186.813 743.739 186.886C743.739 186.96 743.665 187.693 743.519 189.086C743.225 190.04 742.859 190.736 742.419 191.176H740.549C737.542 191.029 732.006 190.956 723.939 190.956C719.173 190.956 715.543 190.956 713.05 190.956C710.557 190.956 709.163 190.993 708.87 191.066Z" fill="#6C63FF"/>
<path d="M776.66 90.1999C776.66 89.6133 776.844 89.1 777.21 88.66C777.577 88.22 778.127 88 778.86 88C779.374 88 779.814 88.1833 780.18 88.55C780.547 88.8433 780.914 89.54 781.28 90.6399C782.014 93.3532 783.517 95.4431 785.79 96.9097C786.597 97.423 787 98.083 787 98.8896C787 99.5496 786.89 99.9896 786.67 100.21C786.45 100.43 785.937 100.76 785.13 101.2C781.977 102.813 779.227 105.123 776.88 108.129C776.734 108.276 776.55 108.496 776.33 108.789C776.11 109.083 775.927 109.303 775.78 109.449C775.634 109.596 775.45 109.669 775.23 109.669C775.01 109.669 774.754 109.706 774.46 109.779C773.947 109.779 773.471 109.596 773.031 109.229C772.591 108.863 772.334 108.313 772.261 107.579C772.261 106.186 773.984 104.023 777.43 101.09H758.621L739.812 100.98C738.858 100.32 738.382 99.6229 738.382 98.8896C738.382 98.3763 738.858 97.643 739.812 96.6897H779.3C777.54 93.9031 776.66 91.7399 776.66 90.1999Z" fill="#6C63FF"/>
<path d="M818.42 459.778C818.81 457.44 820.313 454.739 822.93 451.677C825.547 448.615 828.776 447.056 832.618 447C834.567 447 836.348 447.501 837.963 448.503C839.578 449.506 840.775 450.758 841.554 452.262C843.893 448.754 846.705 447 849.99 447C852.05 447 853.831 447.612 855.335 448.837C856.838 450.062 857.618 451.705 857.673 453.765C857.673 455.38 857.284 456.688 856.504 457.69C855.725 458.693 854.973 459.305 854.249 459.528C853.525 459.75 852.885 459.862 852.328 459.862C851.27 459.862 850.407 459.556 849.739 458.943C849.071 458.331 848.737 457.523 848.737 456.521C848.737 453.96 850.129 452.206 852.913 451.259C852.3 450.536 851.187 450.174 849.572 450.174C848.848 450.174 848.319 450.229 847.985 450.341C845.869 451.232 844.31 453.069 843.308 455.853C839.967 468.158 838.297 475.34 838.297 477.401C838.297 478.96 838.743 480.073 839.633 480.741C840.524 481.409 841.499 481.744 842.557 481.744C844.617 481.744 846.649 480.825 848.653 478.987C850.658 477.15 852.022 474.895 852.746 472.222C852.913 471.666 853.08 471.359 853.247 471.304C853.414 471.248 853.859 471.192 854.583 471.137H854.917C855.752 471.137 856.17 471.359 856.17 471.805C856.17 471.861 856.114 472.167 856.003 472.724C855.112 475.897 853.386 478.709 850.825 481.159C848.264 483.609 845.285 484.834 841.888 484.834C837.991 484.834 835.04 483.08 833.035 479.572C830.753 483.024 828.136 484.75 825.185 484.75H824.684C821.955 484.75 820.007 484.026 818.837 482.579C817.668 481.131 817.056 479.6 817 477.985C817 476.203 817.529 474.756 818.587 473.642C819.645 472.529 820.898 471.972 822.345 471.972C824.739 471.972 825.936 473.141 825.936 475.48C825.936 476.593 825.602 477.568 824.934 478.403C824.266 479.238 823.626 479.795 823.013 480.073C822.401 480.352 822.039 480.491 821.928 480.491L821.677 480.574C821.677 480.63 821.844 480.741 822.178 480.908C822.512 481.075 822.958 481.27 823.514 481.493C824.071 481.716 824.6 481.799 825.101 481.744C827.106 481.744 828.832 480.491 830.279 477.985C830.78 477.094 831.421 475.201 832.2 472.306C832.98 469.411 833.759 466.404 834.539 463.286C835.318 460.168 835.764 458.331 835.875 457.774C836.153 456.271 836.293 455.185 836.293 454.517C836.293 452.958 835.875 451.844 835.04 451.176C834.205 450.508 833.258 450.174 832.2 450.174C829.973 450.174 827.885 451.065 825.936 452.846C823.988 454.628 822.624 456.911 821.844 459.695C821.733 460.196 821.593 460.474 821.426 460.53C821.259 460.586 820.814 460.641 820.09 460.697H818.921C818.587 460.363 818.42 460.057 818.42 459.778Z" fill="black"/>
<path d="M381 13.0581C381 12.2719 381.421 10.9242 382.263 9.01499C383.106 7.10574 384.453 5.11226 386.307 3.03455C388.16 0.95684 390.237 -0.0539377 392.54 0.00221662C394.842 0.00221662 396.695 0.647991 398.099 1.93954C399.503 3.23109 400.233 5.02803 400.289 7.33036C400.177 8.39729 400.092 8.98691 400.036 9.09922C400.036 9.26768 399.587 10.5592 398.689 12.9739C397.79 15.3885 396.864 18.112 395.909 21.1443C394.954 24.1767 394.505 26.5913 394.561 28.3882C394.561 30.8029 394.954 32.4875 395.741 33.4421C396.527 34.3967 397.706 34.9021 399.278 34.9583C400.57 34.9583 401.777 34.6494 402.9 34.0317C404.023 33.414 404.894 32.7683 405.511 32.0944C406.129 31.4206 406.887 30.494 407.786 29.3148C407.786 29.2586 407.926 28.6971 408.207 27.6302C408.488 26.5632 408.881 24.9067 409.386 22.6605C409.891 20.4143 410.425 18.3366 410.986 16.4274C413.12 8.00421 414.3 3.59609 414.524 3.20301C415.254 1.68685 416.461 0.928763 418.146 0.928763C418.876 0.928763 419.466 1.1253 419.915 1.51838C420.364 1.91146 420.673 2.24839 420.842 2.52916C421.01 2.80993 421.066 3.06263 421.01 3.28725C421.01 4.01725 419.634 9.91346 416.883 20.9759C414.131 32.0383 412.559 38.1029 412.166 39.1699C410.593 43.8307 407.87 47.5369 403.995 50.2884C400.121 53.04 396.246 54.4438 392.371 54.5C389.844 54.5 387.626 53.8823 385.717 52.6469C383.808 51.4115 382.853 49.5584 382.853 47.0876C382.853 45.8522 383.05 44.8134 383.443 43.9711C383.836 43.1287 384.369 42.511 385.043 42.118C385.717 41.7249 386.279 41.4441 386.728 41.2757C387.177 41.1072 387.654 41.023 388.16 41.023C390.63 41.023 391.866 42.2022 391.866 44.5607C391.866 45.6838 391.529 46.6665 390.855 47.5088C390.181 48.3511 389.535 48.9126 388.918 49.1934C388.3 49.4742 387.935 49.6146 387.823 49.6146L387.57 49.6988C387.682 49.9796 388.216 50.3165 389.17 50.7096C390.125 51.1027 391.08 51.2992 392.034 51.2992H392.708C393.663 51.2992 394.393 51.243 394.898 51.1307C396.751 50.6254 398.464 49.5584 400.036 47.9299C401.609 46.3015 402.816 44.5607 403.658 42.7076C404.501 40.8545 405.146 39.2822 405.596 37.9906C406.045 36.6991 406.269 35.8568 406.269 35.4637L405.764 35.8006C405.427 36.0252 404.894 36.3341 404.164 36.7272C403.434 37.1202 402.704 37.4572 401.974 37.7379C400.851 38.0187 399.756 38.1591 398.689 38.1591C396.106 38.1591 393.831 37.5414 391.866 36.306C389.9 35.0706 388.609 33.0771 387.991 30.3256C387.935 29.9325 387.907 29.0621 387.907 27.7144C387.907 24.5136 388.89 20.3301 390.855 15.1639C392.82 9.99769 393.803 6.71266 393.803 5.3088C393.803 5.25265 393.803 5.19649 393.803 5.14034C393.803 4.63495 393.803 4.29802 393.803 4.12956C393.803 3.9611 393.691 3.76456 393.466 3.53994C393.242 3.31532 392.933 3.20301 392.54 3.20301H392.203C390.911 3.20301 389.732 3.73648 388.665 4.80341C387.598 5.87035 386.756 7.02151 386.138 8.2569C385.52 9.4923 385.043 10.6715 384.706 11.7946C384.369 12.9177 384.145 13.5354 384.032 13.6477C383.92 13.76 383.471 13.8162 382.685 13.8162H381.505C381.168 13.4793 381 13.2266 381 13.0581Z" fill="black"/>
<path d="M701 199L661.421 207.174L688.289 237.364L701 199ZM403.327 468.614L679.797 222.557L675.143 217.328L398.673 463.386L403.327 468.614Z" fill="#6C63FF"/>
<path d="M543 413.094C543 404.868 544.309 396.198 546.927 387.084C549.546 377.97 553.104 370.107 557.602 363.493C562.1 356.879 566.766 353.089 571.6 352.121C571.667 352.121 571.935 352.121 572.405 352.121C572.875 352.121 573.278 352.081 573.614 352C577.239 352.323 580.059 354.299 582.073 357.928C584.691 362.767 586 369.26 586 377.406C586 386.681 584.489 396.117 581.468 405.715C578.447 415.312 574.587 423.176 569.888 429.306C565.188 435.435 560.69 438.5 556.393 438.5H555.689C553.272 438.5 551.19 437.693 549.445 436.08C547.699 434.467 546.39 432.33 545.518 429.669C544.645 427.007 544.007 424.305 543.604 421.563C543.201 418.821 543 415.998 543 413.094ZM578.044 368.816C578.044 360.59 576.265 356.476 572.707 356.476C570.29 356.476 567.941 358.291 565.658 361.92C563.375 365.55 561.496 369.663 560.019 374.26C558.542 378.857 557.4 382.89 556.595 386.358C555.789 389.826 555.353 391.842 555.286 392.407C558.575 392.488 561.831 392.528 565.054 392.528L574.822 392.407C574.889 392.326 575.158 390.996 575.628 388.415C576.098 385.834 576.635 382.608 577.239 378.736C577.843 374.865 578.112 371.558 578.044 368.816ZM550.855 421.321C550.855 429.87 552.634 434.145 556.192 434.145C557.199 434.145 558.273 433.741 559.415 432.935C560.556 432.128 561.932 430.596 563.543 428.338C565.155 426.079 566.766 422.571 568.377 417.813C569.988 413.054 571.6 407.166 573.211 400.15L573.714 398.093H554.077C554.077 398.335 553.775 399.867 553.171 402.69C552.567 405.513 552.03 408.659 551.56 412.127C551.09 415.595 550.855 418.659 550.855 421.321Z" fill="black"/>
<path d="M702.5 199V466" stroke="black" stroke-width="3" stroke-dasharray="2 2"/>
<path d="M401 197.5H702" stroke="black" stroke-width="3" stroke-dasharray="2 2"/>
<path d="M440.677 522.287C440.226 522.287 440 522.155 440 521.889C440 521.836 440.04 521.651 440.119 521.332C440.226 520.908 440.332 520.669 440.438 520.616C440.544 520.563 440.849 520.523 441.353 520.497C442.069 520.497 442.865 520.457 443.741 520.377C444.112 520.298 444.364 520.138 444.497 519.9C444.55 519.767 445.492 516.04 447.322 508.717C449.153 501.395 450.081 497.681 450.108 497.575C450.108 497.389 450.055 497.296 449.949 497.296C449.736 497.217 449.033 497.151 447.839 497.097H446.606C446.447 496.938 446.367 496.832 446.367 496.779C446.367 496.726 446.394 496.501 446.447 496.103C446.553 495.652 446.685 495.373 446.845 495.267H468.294C468.479 495.373 468.572 495.519 468.572 495.705C468.572 495.837 468.4 497.323 468.055 500.162C467.71 503 467.524 504.459 467.498 504.539C467.445 504.725 467.18 504.818 466.702 504.818H466.224C466.039 504.685 465.946 504.513 465.946 504.3C465.946 504.274 465.986 503.955 466.065 503.345C466.145 502.735 466.185 502.032 466.185 501.236C466.185 500.44 466.092 499.79 465.906 499.286C465.72 498.782 465.468 498.371 465.15 498.053C464.832 497.734 464.341 497.522 463.678 497.416C463.014 497.31 462.338 497.217 461.648 497.137C460.958 497.058 460.003 497.044 458.783 497.097H457.868C455.692 497.124 454.538 497.164 454.406 497.217C454.273 497.27 454.18 497.376 454.127 497.535C454.1 497.562 453.649 499.299 452.774 502.748L451.501 507.882H453.689C453.769 507.882 454.074 507.882 454.605 507.882C455.135 507.882 455.507 507.868 455.719 507.842C455.931 507.815 456.223 507.776 456.594 507.723C456.966 507.67 457.284 507.577 457.549 507.444C457.815 507.311 458.04 507.152 458.226 506.966C458.571 506.648 458.863 506.21 459.101 505.653C459.34 505.096 459.512 504.592 459.619 504.141C459.725 503.69 459.791 503.451 459.818 503.425C459.897 503.292 460.149 503.226 460.574 503.226H461.051C461.237 503.358 461.33 503.491 461.33 503.624C461.33 503.703 460.919 505.441 460.096 508.837C459.274 512.233 458.823 513.984 458.743 514.09C458.69 514.275 458.425 514.368 457.947 514.368H457.47C457.284 514.209 457.191 514.05 457.191 513.891C457.191 513.811 457.257 513.519 457.39 513.015C457.523 512.511 457.589 511.981 457.589 511.423C457.589 510.654 457.324 510.177 456.793 509.991C456.263 509.805 455.082 509.712 453.252 509.712H451.063L449.789 514.766C448.94 518.056 448.516 519.78 448.516 519.939C448.516 520.311 449.697 520.497 452.058 520.497H453.053C453.212 520.656 453.291 520.749 453.291 520.775C453.291 520.802 453.265 521.067 453.212 521.571C453.106 521.916 452.973 522.168 452.814 522.327H452.137C451.05 522.274 449.047 522.248 446.128 522.248C444.404 522.248 443.091 522.248 442.189 522.248C441.287 522.248 440.783 522.261 440.677 522.287Z" fill="black"/>
<path d="M465.817 520.165C465.948 519.378 466.455 518.468 467.336 517.436C468.218 516.405 469.306 515.88 470.6 515.861C471.257 515.861 471.857 516.03 472.401 516.367C472.945 516.705 473.348 517.127 473.61 517.633C474.398 516.452 475.345 515.861 476.452 515.861C477.146 515.861 477.746 516.067 478.253 516.48C478.759 516.892 479.022 517.446 479.04 518.14C479.04 518.684 478.909 519.124 478.647 519.462C478.384 519.8 478.131 520.006 477.887 520.081C477.643 520.156 477.427 520.193 477.24 520.193C476.883 520.193 476.593 520.09 476.368 519.884C476.143 519.678 476.03 519.406 476.03 519.068C476.03 518.205 476.499 517.614 477.437 517.296C477.23 517.052 476.855 516.93 476.311 516.93C476.068 516.93 475.889 516.949 475.777 516.986C475.064 517.286 474.539 517.905 474.201 518.843C473.076 522.988 472.513 525.408 472.513 526.102C472.513 526.627 472.663 527.002 472.963 527.227C473.263 527.452 473.592 527.565 473.948 527.565C474.642 527.565 475.327 527.255 476.002 526.636C476.677 526.017 477.137 525.258 477.38 524.357C477.437 524.17 477.493 524.067 477.549 524.048C477.606 524.029 477.756 524.01 477.999 523.992H478.112C478.393 523.992 478.534 524.067 478.534 524.217C478.534 524.236 478.515 524.339 478.478 524.526C478.178 525.595 477.596 526.543 476.733 527.368C475.871 528.193 474.867 528.606 473.723 528.606C472.41 528.606 471.416 528.015 470.741 526.833C469.972 527.996 469.09 528.578 468.096 528.578H467.927C467.008 528.578 466.352 528.334 465.958 527.846C465.564 527.358 465.358 526.843 465.339 526.299C465.339 525.699 465.517 525.211 465.873 524.836C466.23 524.461 466.652 524.273 467.139 524.273C467.946 524.273 468.349 524.667 468.349 525.455C468.349 525.83 468.237 526.158 468.012 526.439C467.787 526.721 467.571 526.908 467.365 527.002C467.158 527.096 467.036 527.143 466.999 527.143L466.914 527.171C466.914 527.19 466.971 527.227 467.083 527.283C467.196 527.34 467.346 527.405 467.533 527.48C467.721 527.555 467.899 527.584 468.068 527.565C468.743 527.565 469.325 527.143 469.812 526.299C469.981 525.999 470.197 525.361 470.459 524.386C470.722 523.41 470.985 522.397 471.247 521.347C471.51 520.297 471.66 519.678 471.697 519.49C471.791 518.984 471.838 518.618 471.838 518.393C471.838 517.868 471.697 517.493 471.416 517.268C471.135 517.042 470.816 516.93 470.459 516.93C469.709 516.93 469.006 517.23 468.349 517.83C467.693 518.43 467.233 519.199 466.971 520.137C466.933 520.306 466.886 520.4 466.83 520.419C466.774 520.437 466.624 520.456 466.38 520.475H465.986C465.873 520.362 465.817 520.259 465.817 520.165Z" fill="black"/>
<path d="M495.72 508.518C495.72 508.174 495.906 507.908 496.277 507.723H521.626C522.024 507.935 522.223 508.2 522.223 508.518C522.223 508.81 522.037 509.062 521.666 509.275L509.011 509.314H496.357C495.932 509.182 495.72 508.916 495.72 508.518ZM495.72 516.239C495.72 515.841 495.932 515.575 496.357 515.443H521.666C522.037 515.708 522.223 515.973 522.223 516.239C522.223 516.583 522.024 516.849 521.626 517.034H496.277C495.906 516.849 495.72 516.583 495.72 516.239Z" fill="black"/>
<path d="M541.038 532.236H540.958C540.64 532.236 540.401 532.05 540.242 531.679V512.339L540.282 492.999C540.547 492.654 540.799 492.481 541.038 492.481C541.383 492.481 541.648 492.68 541.834 493.078V531.679C541.622 532.05 541.383 532.236 541.117 532.236H541.038Z" fill="black"/>
<path d="M548.479 522.287C548.028 522.287 547.803 522.155 547.803 521.889C547.803 521.836 547.843 521.651 547.922 521.332C548.028 520.908 548.135 520.669 548.241 520.616C548.347 520.563 548.652 520.523 549.156 520.497C549.872 520.497 550.668 520.457 551.544 520.377C551.915 520.298 552.167 520.138 552.3 519.9C552.353 519.767 553.295 516.04 555.125 508.717C556.956 501.395 557.884 497.681 557.911 497.575C557.911 497.389 557.858 497.296 557.751 497.296C557.539 497.217 556.836 497.151 555.642 497.097H554.409C554.25 496.938 554.17 496.832 554.17 496.779C554.17 496.726 554.197 496.501 554.25 496.103C554.356 495.652 554.488 495.373 554.648 495.267H576.097C576.282 495.373 576.375 495.519 576.375 495.705C576.375 495.837 576.203 497.323 575.858 500.162C575.513 503 575.327 504.459 575.301 504.539C575.248 504.725 574.982 504.818 574.505 504.818H574.027C573.842 504.685 573.749 504.513 573.749 504.3C573.749 504.274 573.789 503.955 573.868 503.345C573.948 502.735 573.988 502.032 573.988 501.236C573.988 500.44 573.895 499.79 573.709 499.286C573.523 498.782 573.271 498.371 572.953 498.053C572.635 497.734 572.144 497.522 571.481 497.416C570.817 497.31 570.141 497.217 569.451 497.137C568.761 497.058 567.806 497.044 566.586 497.097H565.671C563.495 497.124 562.341 497.164 562.208 497.217C562.076 497.27 561.983 497.376 561.93 497.535C561.903 497.562 561.452 499.299 560.577 502.748L559.303 507.882H561.492C561.572 507.882 561.877 507.882 562.407 507.882C562.938 507.882 563.309 507.868 563.522 507.842C563.734 507.815 564.026 507.776 564.397 507.723C564.769 507.67 565.087 507.577 565.352 507.444C565.617 507.311 565.843 507.152 566.029 506.966C566.374 506.648 566.665 506.21 566.904 505.653C567.143 505.096 567.315 504.592 567.421 504.141C567.528 503.69 567.594 503.451 567.62 503.425C567.7 503.292 567.952 503.226 568.377 503.226H568.854C569.04 503.358 569.133 503.491 569.133 503.624C569.133 503.703 568.721 505.441 567.899 508.837C567.077 512.233 566.626 513.984 566.546 514.09C566.493 514.275 566.228 514.368 565.75 514.368H565.273C565.087 514.209 564.994 514.05 564.994 513.891C564.994 513.811 565.06 513.519 565.193 513.015C565.326 512.511 565.392 511.981 565.392 511.423C565.392 510.654 565.127 510.177 564.596 509.991C564.066 509.805 562.885 509.712 561.054 509.712H558.866L557.592 514.766C556.743 518.056 556.319 519.78 556.319 519.939C556.319 520.311 557.499 520.497 559.861 520.497H560.855C561.015 520.656 561.094 520.749 561.094 520.775C561.094 520.802 561.068 521.067 561.015 521.571C560.908 521.916 560.776 522.168 560.617 522.327H559.94C558.852 522.274 556.849 522.248 553.931 522.248C552.207 522.248 550.894 522.248 549.992 522.248C549.09 522.248 548.586 522.261 548.479 522.287Z" fill="black"/>
<path d="M573.005 485.796C573.005 485.584 573.071 485.398 573.204 485.239C573.336 485.08 573.535 485 573.801 485C573.986 485 574.145 485.066 574.278 485.199C574.411 485.305 574.543 485.557 574.676 485.955C574.941 486.937 575.485 487.693 576.308 488.223C576.599 488.409 576.745 488.648 576.745 488.94C576.745 489.178 576.706 489.338 576.626 489.417C576.546 489.497 576.361 489.616 576.069 489.775C574.928 490.359 573.933 491.195 573.084 492.282C573.031 492.335 572.965 492.415 572.885 492.521C572.806 492.627 572.739 492.707 572.686 492.76C572.633 492.813 572.567 492.84 572.487 492.84C572.408 492.84 572.315 492.853 572.209 492.879C572.023 492.879 571.851 492.813 571.691 492.68C571.532 492.548 571.439 492.349 571.413 492.083C571.413 491.579 572.036 490.797 573.283 489.736H566.478L559.674 489.696C559.329 489.457 559.156 489.205 559.156 488.94C559.156 488.754 559.329 488.489 559.674 488.144H573.96C573.323 487.136 573.005 486.353 573.005 485.796Z" fill="black"/>
<path d="M583.431 532.236H583.351C583.033 532.236 582.794 532.05 582.635 531.679V512.339L582.675 492.999C582.94 492.654 583.192 492.481 583.431 492.481C583.776 492.481 584.041 492.68 584.227 493.078V531.679C584.014 532.05 583.776 532.236 583.51 532.236H583.431Z" fill="black"/>
<path d="M590.315 516C590.315 513.108 591.456 510.508 593.737 508.2C596.019 505.892 598.486 504.738 601.139 504.738C602.625 504.738 603.792 505.056 604.641 505.693C605.49 506.33 605.928 507.165 605.954 508.2C605.954 508.969 605.702 509.619 605.198 510.15C604.694 510.681 604.057 510.959 603.288 510.986C602.784 510.986 602.386 510.853 602.094 510.588C601.802 510.322 601.657 509.925 601.657 509.394C601.657 508.863 601.802 508.412 602.094 508.041C602.386 507.67 602.678 507.391 602.97 507.205C603.262 507.02 603.447 506.94 603.527 506.966H603.567C603.567 506.913 603.487 506.834 603.328 506.728C603.169 506.622 602.89 506.515 602.492 506.409C602.094 506.303 601.643 506.25 601.139 506.25C600.343 506.25 599.587 506.436 598.871 506.807C598.314 507.046 597.743 507.457 597.16 508.041C595.993 509.208 595.144 510.853 594.613 512.975C594.082 515.098 593.804 516.637 593.777 517.592C593.777 518.812 594.122 519.727 594.812 520.337C595.396 520.974 596.165 521.292 597.12 521.292H597.279C600.251 521.292 602.704 520.165 604.641 517.91C604.88 517.645 605.039 517.512 605.119 517.512C605.225 517.512 605.397 517.631 605.636 517.87C605.875 518.109 606.007 518.295 606.034 518.427C606.06 518.56 605.941 518.759 605.676 519.024C605.411 519.289 605.026 519.661 604.522 520.138C604.018 520.616 603.421 521.014 602.731 521.332C602.041 521.651 601.192 521.982 600.184 522.327C599.176 522.672 598.115 522.818 597.001 522.765C595.011 522.765 593.406 522.128 592.186 520.855C590.965 519.581 590.342 517.963 590.315 516Z" fill="black"/>
<path d="M614.192 522.765C612.202 522.765 610.597 522.115 609.377 520.815C608.156 519.515 607.546 517.95 607.546 516.119C607.546 514.395 607.944 512.763 608.74 511.224C609.536 509.686 610.624 508.346 612.003 507.205C614.019 505.587 616.075 504.778 618.171 504.778C619.02 504.778 619.551 504.791 619.763 504.818C620.108 504.897 620.453 504.99 620.798 505.096C621.142 505.202 621.607 505.415 622.19 505.733C622.774 506.051 623.252 506.449 623.623 506.927C623.994 507.404 624.339 508.054 624.658 508.877C624.976 509.699 625.135 510.628 625.135 511.662C625.135 514.501 623.994 517.061 621.713 519.343C619.431 521.624 616.924 522.765 614.192 522.765ZM611.008 517.552C611.008 518.878 611.353 519.833 612.043 520.417C612.733 521.001 613.515 521.292 614.391 521.292C615.558 521.292 616.659 520.868 617.694 520.019C618.728 519.17 619.551 518.056 620.161 516.676C620.4 516.119 620.705 515.138 621.076 513.732C621.448 512.325 621.633 511.105 621.633 510.07C621.633 508.903 621.395 508.014 620.917 507.404C620.28 506.608 619.431 506.21 618.37 506.21C616.699 506.21 615.226 506.98 613.953 508.518C612.971 509.686 612.242 511.238 611.764 513.174C611.287 515.111 611.035 516.57 611.008 517.552Z" fill="black"/>
<path d="M630.706 510.827C630.706 509.978 630.919 509.115 631.343 508.24C631.768 507.364 632.51 506.555 633.572 505.812C634.633 505.07 635.919 504.711 637.432 504.738C639.077 504.738 640.27 505.096 641.013 505.812C641.756 506.529 642.141 507.325 642.167 508.2C642.167 509.049 641.942 509.673 641.491 510.07C641.04 510.468 640.536 510.681 639.979 510.707C639.634 510.707 639.315 510.601 639.023 510.389C638.732 510.177 638.572 509.832 638.546 509.354C638.546 508.93 638.665 508.558 638.904 508.24C639.143 507.922 639.368 507.683 639.581 507.524C639.793 507.364 639.965 507.285 640.098 507.285C640.124 507.285 640.138 507.272 640.138 507.245C640.138 507.165 640.045 507.046 639.859 506.887C639.673 506.728 639.342 506.582 638.864 506.449C638.387 506.317 637.869 506.237 637.312 506.21C636.039 506.21 635.11 506.555 634.527 507.245C633.943 507.935 633.638 508.638 633.611 509.354C633.611 510.017 633.863 510.482 634.368 510.747C634.872 511.012 635.601 511.238 636.556 511.423C637.511 511.609 638.201 511.808 638.626 512.02C640.376 512.79 641.252 514.063 641.252 515.841C641.252 516.583 641.106 517.326 640.814 518.069C640.522 518.812 640.085 519.555 639.501 520.298C638.917 521.04 638.082 521.624 636.994 522.049C635.906 522.473 634.659 522.699 633.253 522.725C631.21 522.725 629.765 522.34 628.916 521.571C628.067 520.802 627.629 519.9 627.602 518.865C627.602 517.83 627.881 517.088 628.438 516.637C628.995 516.186 629.579 515.96 630.189 515.96C630.587 515.96 630.958 516.079 631.303 516.318C631.648 516.557 631.834 516.968 631.86 517.552C631.86 518.242 631.622 518.825 631.144 519.303C630.667 519.78 630.255 520.019 629.911 520.019C629.857 520.046 629.818 520.059 629.791 520.059C629.765 520.059 629.751 520.085 629.751 520.138C629.778 520.218 629.884 520.324 630.07 520.457C630.255 520.589 630.667 520.762 631.303 520.974C631.94 521.186 632.67 521.279 633.492 521.253C634.447 521.253 635.27 521.107 635.959 520.815C636.649 520.523 637.153 520.152 637.471 519.701C637.79 519.25 638.015 518.838 638.148 518.467C638.281 518.096 638.347 517.764 638.347 517.472C638.347 516.729 638.068 516.172 637.511 515.801C636.954 515.429 636.317 515.204 635.601 515.124C634.885 515.045 634.102 514.846 633.253 514.527C632.404 514.209 631.781 513.745 631.383 513.135C630.932 512.471 630.706 511.702 630.706 510.827Z" fill="black"/>
<path d="M647.898 512.379C647.898 510.548 648.03 508.81 648.296 507.165C648.561 505.521 648.866 504.101 649.211 502.907C649.556 501.714 650.046 500.546 650.683 499.406C651.32 498.265 651.824 497.376 652.195 496.739C652.567 496.103 653.124 495.413 653.867 494.67C654.61 493.927 655.047 493.476 655.18 493.317C655.313 493.158 655.644 492.879 656.175 492.481H656.692H656.851C657.223 492.481 657.408 492.601 657.408 492.84C657.408 492.919 657.183 493.198 656.732 493.675C656.281 494.153 655.737 494.856 655.1 495.784C654.464 496.713 653.814 497.854 653.15 499.207C652.487 500.56 651.93 502.39 651.479 504.698C651.028 507.006 650.803 509.566 650.803 512.379C650.803 515.191 651.028 517.737 651.479 520.019C651.93 522.301 652.474 524.144 653.111 525.55C653.747 526.957 654.397 528.097 655.061 528.973C655.724 529.848 656.281 530.551 656.732 531.082C657.183 531.612 657.408 531.891 657.408 531.918C657.408 532.156 657.209 532.276 656.812 532.276H656.692H656.175L655.061 531.321C652.567 529.066 650.75 526.253 649.609 522.884C648.468 519.515 647.898 516.013 647.898 512.379Z" fill="black"/>
<path d="M661.03 514.368C661.03 511.662 661.547 508.81 662.582 505.812C663.616 502.815 665.022 500.228 666.8 498.053C668.577 495.877 670.421 494.63 672.331 494.312C672.358 494.312 672.464 494.312 672.65 494.312C672.835 494.312 672.995 494.299 673.127 494.272C674.56 494.378 675.674 495.028 676.47 496.222C677.505 497.814 678.022 499.949 678.022 502.629C678.022 505.68 677.425 508.784 676.231 511.941C675.037 515.098 673.512 517.684 671.655 519.701C669.798 521.717 668.02 522.725 666.322 522.725H666.044C665.089 522.725 664.266 522.46 663.577 521.929C662.887 521.399 662.369 520.696 662.025 519.82C661.68 518.945 661.428 518.056 661.268 517.154C661.109 516.252 661.03 515.323 661.03 514.368ZM674.878 499.804C674.878 497.097 674.175 495.744 672.769 495.744C671.814 495.744 670.885 496.341 669.983 497.535C669.081 498.729 668.339 500.082 667.755 501.594C667.171 503.106 666.72 504.433 666.402 505.574C666.084 506.714 665.911 507.378 665.885 507.563C667.185 507.59 668.471 507.603 669.745 507.603L673.605 507.563C673.631 507.537 673.737 507.099 673.923 506.25C674.109 505.401 674.321 504.34 674.56 503.067C674.799 501.793 674.905 500.706 674.878 499.804ZM664.134 517.074C664.134 519.886 664.837 521.292 666.243 521.292C666.641 521.292 667.065 521.16 667.516 520.895C667.967 520.629 668.511 520.125 669.148 519.382C669.784 518.64 670.421 517.485 671.058 515.92C671.695 514.355 672.331 512.418 672.968 510.11L673.167 509.434H665.407C665.407 509.513 665.288 510.017 665.049 510.946C664.81 511.874 664.598 512.909 664.412 514.05C664.227 515.191 664.134 516.199 664.134 517.074Z" fill="black"/>
<path d="M680.688 492.521L680.847 492.481C680.98 492.481 681.113 492.481 681.245 492.481H681.723L682.837 493.436C685.331 495.691 687.148 498.504 688.289 501.873C689.43 505.242 690 508.744 690 512.379C690 514.183 689.867 515.92 689.602 517.592C689.337 519.263 689.032 520.682 688.687 521.85C688.342 523.017 687.851 524.184 687.214 525.351C686.578 526.519 686.074 527.408 685.702 528.018C685.331 528.628 684.787 529.304 684.071 530.047C683.354 530.79 682.93 531.228 682.797 531.36C682.665 531.493 682.359 531.745 681.882 532.117C681.802 532.196 681.749 532.249 681.723 532.276H681.245C681.033 532.276 680.887 532.276 680.807 532.276C680.728 532.276 680.662 532.236 680.609 532.156C680.555 532.077 680.516 531.957 680.489 531.798C680.516 531.772 680.662 531.599 680.927 531.281C685.039 527.01 687.095 520.709 687.095 512.379C687.095 504.048 685.039 497.747 680.927 493.476C680.662 493.158 680.516 492.985 680.489 492.959C680.489 492.747 680.555 492.601 680.688 492.521Z" fill="black"/>
<path d="M401 466.5H701" stroke="#6C63FF" stroke-width="7"/>
<path d="M401.5 470V199" stroke="#6C63FF" stroke-width="7"/>
<path d="M374.472 456.32C374.472 456.773 374.339 457 374.072 457C374.019 457 373.832 456.96 373.512 456.88C373.086 456.773 372.846 456.667 372.793 456.56C372.739 456.453 372.699 456.147 372.673 455.64C372.673 454.92 372.633 454.121 372.553 453.241C372.473 452.868 372.313 452.614 372.073 452.481C371.939 452.428 368.193 451.481 360.835 449.642C353.477 447.802 349.744 446.869 349.637 446.842C349.451 446.842 349.357 446.895 349.357 447.002C349.277 447.215 349.211 447.922 349.157 449.122V450.361C348.997 450.521 348.891 450.601 348.838 450.601C348.784 450.601 348.558 450.575 348.158 450.521C347.704 450.415 347.424 450.281 347.318 450.121V428.566C347.424 428.379 347.571 428.286 347.758 428.286C347.891 428.286 349.384 428.459 352.237 428.806C355.09 429.152 356.556 429.339 356.636 429.366C356.823 429.419 356.916 429.686 356.916 430.166V430.645C356.783 430.832 356.609 430.925 356.396 430.925C356.369 430.925 356.049 430.885 355.436 430.805C354.823 430.725 354.116 430.685 353.317 430.685C352.517 430.685 351.864 430.779 351.357 430.965C350.85 431.152 350.437 431.405 350.117 431.725C349.797 432.045 349.584 432.538 349.477 433.205C349.371 433.871 349.277 434.551 349.197 435.245C349.117 435.938 349.104 436.898 349.157 438.124V439.044C349.184 441.23 349.224 442.39 349.277 442.523C349.331 442.656 349.437 442.75 349.597 442.803C349.624 442.83 351.37 443.283 354.836 444.163L359.995 445.442V443.243C359.995 443.163 359.995 442.856 359.995 442.323C359.995 441.79 359.982 441.417 359.955 441.203C359.929 440.99 359.889 440.697 359.835 440.323C359.782 439.95 359.689 439.63 359.555 439.364C359.422 439.097 359.262 438.87 359.075 438.684C358.755 438.337 358.316 438.044 357.756 437.804C357.196 437.564 356.689 437.391 356.236 437.284C355.783 437.177 355.543 437.111 355.516 437.084C355.383 437.004 355.316 436.751 355.316 436.324V435.844C355.449 435.658 355.583 435.564 355.716 435.564C355.796 435.564 357.542 435.978 360.955 436.804C364.368 437.631 366.127 438.084 366.234 438.164C366.421 438.217 366.514 438.484 366.514 438.964V439.444C366.354 439.63 366.194 439.724 366.034 439.724C365.954 439.724 365.661 439.657 365.154 439.524C364.648 439.39 364.114 439.324 363.554 439.324C362.781 439.324 362.301 439.59 362.115 440.124C361.928 440.657 361.835 441.843 361.835 443.683V445.882L366.914 447.162C370.22 448.015 371.953 448.442 372.113 448.442C372.486 448.442 372.673 447.255 372.673 444.883V443.883C372.833 443.723 372.926 443.643 372.953 443.643C372.979 443.643 373.246 443.669 373.752 443.723C374.099 443.829 374.352 443.963 374.512 444.123V444.803C374.459 445.896 374.432 447.909 374.432 450.841C374.432 452.574 374.432 453.894 374.432 454.8C374.432 455.707 374.446 456.213 374.472 456.32Z" fill="black"/>
<path d="M372.396 431.931C372.132 431.931 371.68 431.79 371.039 431.507C370.398 431.224 369.729 430.772 369.032 430.15C368.334 429.528 367.995 428.831 368.014 428.058C368.014 427.285 368.231 426.663 368.664 426.192C369.098 425.72 369.701 425.475 370.474 425.457C370.832 425.494 371.03 425.523 371.067 425.541C371.124 425.541 371.557 425.692 372.368 425.994C373.179 426.295 374.093 426.606 375.111 426.927C376.128 427.247 376.939 427.398 377.542 427.379C378.353 427.379 378.918 427.247 379.239 426.983C379.559 426.719 379.729 426.324 379.748 425.796C379.748 425.362 379.644 424.957 379.437 424.58C379.229 424.203 379.012 423.911 378.786 423.704C378.56 423.496 378.249 423.242 377.853 422.94C377.834 422.94 377.646 422.893 377.288 422.799C376.93 422.705 376.373 422.573 375.62 422.403C374.866 422.233 374.168 422.054 373.527 421.866C370.7 421.149 369.22 420.754 369.088 420.678C368.579 420.433 368.325 420.028 368.325 419.462C368.325 419.217 368.391 419.019 368.523 418.869C368.655 418.718 368.768 418.614 368.862 418.558C368.956 418.501 369.041 418.482 369.116 418.501C369.362 418.501 371.341 418.963 375.054 419.887C378.767 420.81 380.803 421.338 381.161 421.47C382.726 421.998 383.97 422.912 384.893 424.213C385.817 425.513 386.288 426.814 386.307 428.114C386.307 428.963 386.1 429.707 385.685 430.348C385.27 430.989 384.648 431.309 383.819 431.309C383.404 431.309 383.056 431.243 382.773 431.111C382.49 430.979 382.283 430.8 382.151 430.574C382.019 430.348 381.925 430.159 381.868 430.009C381.812 429.858 381.783 429.698 381.783 429.528C381.783 428.699 382.179 428.284 382.971 428.284C383.348 428.284 383.678 428.397 383.96 428.623C384.243 428.849 384.432 429.066 384.526 429.274C384.62 429.481 384.667 429.603 384.667 429.641L384.696 429.726C384.79 429.688 384.903 429.509 385.035 429.189C385.167 428.868 385.233 428.548 385.233 428.227V428.001C385.233 427.681 385.214 427.436 385.176 427.266C385.007 426.644 384.648 426.069 384.102 425.541C383.555 425.014 382.971 424.608 382.349 424.326C381.727 424.043 381.199 423.826 380.765 423.675C380.332 423.524 380.049 423.449 379.917 423.449L380.03 423.619C380.106 423.732 380.209 423.911 380.341 424.156C380.473 424.401 380.586 424.646 380.681 424.891C380.775 425.268 380.822 425.636 380.822 425.994C380.822 426.861 380.615 427.624 380.2 428.284C379.785 428.944 379.116 429.377 378.192 429.585C378.061 429.603 377.768 429.613 377.316 429.613C376.242 429.613 374.837 429.283 373.103 428.623C371.369 427.964 370.266 427.634 369.795 427.634C369.776 427.634 369.757 427.634 369.738 427.634C369.569 427.634 369.456 427.634 369.399 427.634C369.343 427.634 369.277 427.671 369.201 427.747C369.126 427.822 369.088 427.926 369.088 428.058V428.171C369.088 428.604 369.267 429 369.625 429.358C369.984 429.717 370.37 429.999 370.785 430.207C371.199 430.414 371.595 430.574 371.972 430.687C372.349 430.8 372.556 430.876 372.594 430.913C372.632 430.951 372.651 431.102 372.651 431.366V431.762C372.538 431.875 372.453 431.931 372.396 431.931Z" fill="black"/>
<path d="M360.635 403.319C360.288 403.319 360.022 403.133 359.835 402.759V377.285C360.049 376.885 360.315 376.685 360.635 376.685C360.928 376.685 361.182 376.871 361.395 377.245L361.435 389.962V402.679C361.302 403.106 361.035 403.319 360.635 403.319ZM368.393 403.319C367.994 403.319 367.727 403.106 367.594 402.679V377.245C367.86 376.871 368.127 376.685 368.393 376.685C368.74 376.685 369.007 376.885 369.193 377.285V402.759C369.007 403.133 368.74 403.319 368.393 403.319Z" fill="black"/>
<path d="M384.47 357.781V357.861C384.47 358.181 384.283 358.421 383.91 358.58H364.474L345.038 358.54C344.692 358.274 344.518 358.021 344.518 357.781C344.518 357.434 344.718 357.167 345.118 356.981H383.91C384.283 357.194 384.47 357.434 384.47 357.701V357.781Z" fill="black"/>
<path d="M374.472 350.302C374.472 350.755 374.339 350.982 374.072 350.982C374.019 350.982 373.832 350.942 373.512 350.862C373.086 350.755 372.846 350.649 372.793 350.542C372.739 350.436 372.699 350.129 372.673 349.622C372.673 348.902 372.633 348.103 372.553 347.223C372.473 346.85 372.313 346.596 372.073 346.463C371.939 346.41 368.193 345.463 360.835 343.624C353.477 341.784 349.744 340.851 349.637 340.824C349.451 340.824 349.357 340.877 349.357 340.984C349.277 341.197 349.211 341.904 349.157 343.104V344.343C348.997 344.503 348.891 344.583 348.838 344.583C348.784 344.583 348.558 344.557 348.158 344.503C347.704 344.397 347.424 344.263 347.318 344.103V322.548C347.424 322.361 347.571 322.268 347.758 322.268C347.891 322.268 349.384 322.441 352.237 322.788C355.09 323.135 356.556 323.321 356.636 323.348C356.823 323.401 356.916 323.668 356.916 324.148V324.628C356.783 324.814 356.609 324.907 356.396 324.907C356.369 324.907 356.049 324.867 355.436 324.788C354.823 324.708 354.116 324.668 353.317 324.668C352.517 324.668 351.864 324.761 351.357 324.947C350.85 325.134 350.437 325.387 350.117 325.707C349.797 326.027 349.584 326.52 349.477 327.187C349.371 327.854 349.277 328.533 349.197 329.227C349.117 329.92 349.104 330.88 349.157 332.106V333.026C349.184 335.212 349.224 336.372 349.277 336.505C349.331 336.638 349.437 336.732 349.597 336.785C349.624 336.812 351.37 337.265 354.836 338.145L359.995 339.424V337.225C359.995 337.145 359.995 336.838 359.995 336.305C359.995 335.772 359.982 335.399 359.955 335.185C359.929 334.972 359.889 334.679 359.835 334.306C359.782 333.932 359.689 333.612 359.555 333.346C359.422 333.079 359.262 332.852 359.075 332.666C358.755 332.319 358.316 332.026 357.756 331.786C357.196 331.546 356.689 331.373 356.236 331.266C355.783 331.16 355.543 331.093 355.516 331.066C355.383 330.986 355.316 330.733 355.316 330.306V329.826C355.449 329.64 355.583 329.547 355.716 329.547C355.796 329.547 357.542 329.96 360.955 330.786C364.368 331.613 366.127 332.066 366.234 332.146C366.421 332.199 366.514 332.466 366.514 332.946V333.426C366.354 333.612 366.194 333.706 366.034 333.706C365.954 333.706 365.661 333.639 365.154 333.506C364.648 333.372 364.114 333.306 363.554 333.306C362.781 333.306 362.301 333.572 362.115 334.106C361.928 334.639 361.835 335.825 361.835 337.665V339.864L366.914 341.144C370.22 341.997 371.953 342.424 372.113 342.424C372.486 342.424 372.673 341.237 372.673 338.865V337.865C372.833 337.705 372.926 337.625 372.953 337.625C372.979 337.625 373.246 337.651 373.752 337.705C374.099 337.811 374.352 337.945 374.512 338.105V338.785C374.459 339.878 374.432 341.891 374.432 344.823C374.432 346.556 374.432 347.876 374.432 348.783C374.432 349.689 374.446 350.196 374.472 350.302Z" fill="black"/>
<path d="M337.8 325.655C337.587 325.655 337.4 325.589 337.24 325.455C337.08 325.322 337 325.122 337 324.855C337 324.669 337.067 324.509 337.2 324.376C337.307 324.242 337.56 324.109 337.96 323.976C338.946 323.709 339.706 323.162 340.239 322.336C340.426 322.043 340.666 321.896 340.959 321.896C341.199 321.896 341.359 321.936 341.439 322.016C341.519 322.096 341.639 322.283 341.799 322.576C342.386 323.722 343.225 324.722 344.318 325.575C344.372 325.629 344.452 325.695 344.558 325.775C344.665 325.855 344.745 325.922 344.798 325.975C344.852 326.029 344.878 326.095 344.878 326.175C344.878 326.255 344.892 326.348 344.918 326.455C344.918 326.642 344.852 326.815 344.718 326.975C344.585 327.135 344.385 327.228 344.118 327.255C343.612 327.255 342.825 326.628 341.759 325.375V332.214L341.719 339.053C341.479 339.399 341.226 339.572 340.959 339.572C340.773 339.572 340.506 339.399 340.159 339.053V324.695C339.146 325.335 338.36 325.655 337.8 325.655Z" fill="black"/>
<path d="M384.47 315.177V315.257C384.47 315.577 384.283 315.817 383.91 315.977H364.474L345.038 315.937C344.692 315.671 344.518 315.417 344.518 315.177C344.518 314.831 344.718 314.564 345.118 314.378H383.91C384.283 314.591 384.47 314.831 384.47 315.098V315.177Z" fill="black"/>
<path d="M362.955 304.38C362.101 304.38 361.235 304.166 360.355 303.74C359.475 303.313 358.662 302.567 357.916 301.5C357.169 300.434 356.809 299.141 356.836 297.621C356.836 295.968 357.196 294.768 357.916 294.022C358.635 293.275 359.435 292.889 360.315 292.862C361.168 292.862 361.795 293.089 362.195 293.542C362.595 293.995 362.808 294.502 362.835 295.062C362.835 295.408 362.728 295.728 362.515 296.021C362.301 296.315 361.955 296.475 361.475 296.501C361.048 296.501 360.675 296.381 360.355 296.141C360.035 295.901 359.795 295.675 359.635 295.462C359.475 295.248 359.395 295.075 359.395 294.942C359.395 294.915 359.382 294.902 359.355 294.902C359.275 294.902 359.155 294.995 358.995 295.182C358.835 295.368 358.689 295.702 358.555 296.181C358.422 296.661 358.342 297.181 358.316 297.741C358.316 299.021 358.662 299.954 359.355 300.541C360.049 301.127 360.755 301.434 361.475 301.46C362.141 301.46 362.608 301.207 362.875 300.7C363.141 300.194 363.368 299.461 363.554 298.501C363.741 297.541 363.941 296.848 364.154 296.421C364.928 294.662 366.207 293.782 367.994 293.782C368.74 293.782 369.487 293.929 370.233 294.222C370.98 294.515 371.726 294.955 372.473 295.542C373.219 296.128 373.806 296.968 374.232 298.061C374.659 299.154 374.885 300.407 374.912 301.82C374.912 303.873 374.526 305.326 373.752 306.179C372.979 307.033 372.073 307.472 371.033 307.499C369.993 307.499 369.247 307.219 368.793 306.659C368.34 306.099 368.114 305.513 368.114 304.9C368.114 304.5 368.233 304.126 368.473 303.78C368.713 303.433 369.127 303.247 369.713 303.22C370.406 303.22 370.993 303.46 371.473 303.94C371.953 304.42 372.193 304.833 372.193 305.18C372.219 305.233 372.233 305.273 372.233 305.3C372.233 305.326 372.259 305.34 372.313 305.34C372.393 305.313 372.499 305.206 372.633 305.02C372.766 304.833 372.939 304.42 373.152 303.78C373.366 303.14 373.459 302.407 373.432 301.58C373.432 300.621 373.286 299.794 372.992 299.101C372.699 298.408 372.326 297.901 371.873 297.581C371.419 297.261 371.006 297.035 370.633 296.901C370.26 296.768 369.926 296.701 369.633 296.701C368.887 296.701 368.327 296.981 367.954 297.541C367.58 298.101 367.354 298.741 367.274 299.461C367.194 300.181 366.994 300.967 366.674 301.82C366.354 302.673 365.887 303.3 365.274 303.7C364.608 304.153 363.834 304.38 362.955 304.38Z" fill="black"/>
<path d="M350.517 283.504C349.877 283.504 349.317 283.251 348.838 282.744C348.358 282.238 348.104 281.651 348.078 280.985C348.078 280.505 348.238 280.105 348.558 279.785C348.878 279.465 349.277 279.292 349.757 279.265C350.371 279.265 350.93 279.532 351.437 280.065C351.944 280.598 352.21 281.185 352.237 281.824C352.237 282.224 352.104 282.598 351.837 282.944C351.57 283.291 351.13 283.477 350.517 283.504ZM363.035 290.023C362.821 290.023 362.408 289.903 361.795 289.663C361.182 289.423 360.502 289.103 359.755 288.703C359.009 288.303 358.329 287.717 357.716 286.943C357.102 286.17 356.809 285.37 356.836 284.544C356.836 283.504 357.142 282.638 357.756 281.944C358.369 281.251 359.195 280.891 360.235 280.865C360.688 280.865 361.435 281.051 362.475 281.425C363.514 281.798 364.914 282.331 366.674 283.024C368.433 283.717 369.94 284.277 371.193 284.704C371.779 284.837 372.206 284.904 372.473 284.904C373.139 284.904 373.472 284.677 373.472 284.224C373.472 283.984 373.432 283.731 373.352 283.464C373.272 283.197 373.086 282.891 372.793 282.544C372.499 282.198 372.033 281.838 371.393 281.465C370.753 281.091 369.966 280.758 369.033 280.465C368.713 280.385 368.527 280.318 368.473 280.265C368.42 280.211 368.393 279.985 368.393 279.585C368.393 279.052 368.527 278.785 368.793 278.785C369.007 278.785 369.42 278.905 370.033 279.145C370.646 279.385 371.326 279.718 372.073 280.145C372.819 280.571 373.486 281.171 374.072 281.944C374.659 282.718 374.952 283.544 374.952 284.424C374.952 285.277 374.672 286.064 374.112 286.783C373.552 287.503 372.699 287.877 371.553 287.903C371.1 287.903 370.673 287.837 370.273 287.703C369.873 287.57 368.353 286.997 365.714 285.984C363.021 284.97 361.408 284.384 360.875 284.224C360.342 284.064 359.822 283.971 359.315 283.944C358.675 283.944 358.356 284.171 358.356 284.624V284.704C358.356 285.504 358.795 286.237 359.675 286.903C360.555 287.57 361.675 288.076 363.035 288.423C363.061 288.45 363.101 288.476 363.155 288.503C363.208 288.53 363.248 288.543 363.275 288.543C363.301 288.543 363.328 288.57 363.355 288.623C363.381 288.676 363.394 288.716 363.394 288.743C363.394 288.77 363.394 288.823 363.394 288.903C363.394 288.983 363.394 289.09 363.394 289.223V289.783C363.235 289.943 363.115 290.023 363.035 290.023Z" fill="black"/>
<path d="M363.035 276.226C362.875 276.199 362.661 276.159 362.395 276.106C362.128 276.052 361.622 275.892 360.875 275.626C360.129 275.359 359.502 275.093 358.995 274.826C358.489 274.559 357.996 274.119 357.516 273.506C357.036 272.893 356.809 272.28 356.836 271.667C356.836 270.707 357.076 269.907 357.556 269.267C358.036 268.627 358.489 268.227 358.915 268.067C359.342 267.907 359.622 267.827 359.755 267.827C359.809 267.827 359.835 267.814 359.835 267.787L359.395 267.347C357.689 265.721 356.836 263.868 356.836 261.789C356.836 260.349 357.196 259.189 357.916 258.309C358.635 257.43 359.689 256.976 361.075 256.95C362.461 256.923 364.554 257.43 367.354 258.469C370.153 259.509 371.846 260.016 372.433 259.989C373.126 259.989 373.472 259.762 373.472 259.309C373.472 259.149 373.459 259.029 373.432 258.949C373.299 258.176 372.793 257.483 371.913 256.87C371.033 256.256 369.966 255.79 368.713 255.47C368.5 255.417 368.393 255.15 368.393 254.67C368.393 254.137 368.5 253.87 368.713 253.87C368.74 253.87 368.94 253.924 369.313 254.03C370.086 254.244 370.846 254.537 371.593 254.91C372.339 255.283 373.086 255.897 373.832 256.75C374.579 257.603 374.939 258.523 374.912 259.509C374.912 260.762 374.552 261.669 373.832 262.229C373.112 262.788 372.366 263.068 371.593 263.068C371.086 263.068 369.487 262.588 366.794 261.629C364.101 260.669 362.075 260.176 360.715 260.149C359.142 260.149 358.356 260.736 358.356 261.909V262.109C358.356 264.401 359.702 266.334 362.395 267.907L362.875 268.187L368.233 269.507C371.726 270.387 373.606 270.893 373.872 271.027C374.592 271.373 374.952 271.947 374.952 272.746C374.952 273.093 374.872 273.373 374.712 273.586C374.552 273.799 374.392 273.946 374.232 274.026C374.072 274.106 373.939 274.133 373.832 274.106C373.486 274.106 371.313 273.599 367.314 272.586C363.315 271.573 361.142 271.04 360.795 270.987C360.662 270.96 360.355 270.947 359.875 270.947C358.835 270.947 358.316 271.267 358.316 271.907C358.316 272.92 359.649 273.759 362.315 274.426C362.848 274.586 363.128 274.666 363.155 274.666C363.315 274.719 363.394 274.973 363.394 275.426V275.986C363.235 276.146 363.115 276.226 363.035 276.226Z" fill="black"/>
<path d="M364.514 249.311C362.675 249.311 360.928 249.178 359.275 248.911C357.622 248.645 356.196 248.338 354.996 247.991C353.796 247.645 352.623 247.152 351.477 246.512C350.331 245.872 349.437 245.365 348.798 244.992C348.158 244.619 347.464 244.059 346.718 243.312C345.971 242.566 345.518 242.126 345.358 241.993C345.198 241.859 344.918 241.526 344.518 240.993V240.473V240.313C344.518 239.94 344.638 239.753 344.878 239.753C344.958 239.753 345.238 239.98 345.718 240.433C346.198 240.886 346.905 241.433 347.838 242.073C348.771 242.713 349.917 243.366 351.277 244.032C352.637 244.699 354.476 245.259 356.796 245.712C359.115 246.165 361.688 246.392 364.514 246.392C367.34 246.392 369.9 246.165 372.193 245.712C374.486 245.259 376.338 244.712 377.752 244.072C379.165 243.432 380.311 242.779 381.191 242.113C382.071 241.446 382.777 240.886 383.31 240.433C383.844 239.98 384.124 239.753 384.15 239.753C384.39 239.753 384.51 239.953 384.51 240.353V240.473V240.993L383.55 242.113C381.284 244.619 378.458 246.445 375.072 247.592C371.686 248.738 368.167 249.311 364.514 249.311Z" fill="black"/>
<path d="M366.514 236.114C363.794 236.114 360.928 235.594 357.916 234.554C354.903 233.514 352.303 232.101 350.117 230.315C347.931 228.529 346.678 226.676 346.358 224.756C346.358 224.73 346.358 224.623 346.358 224.436C346.358 224.25 346.345 224.09 346.318 223.956C346.425 222.517 347.078 221.397 348.278 220.597C349.877 219.557 352.024 219.037 354.716 219.037C357.782 219.037 360.902 219.637 364.074 220.837C367.247 222.037 369.846 223.57 371.873 225.436C373.899 227.302 374.912 229.089 374.912 230.795V231.075C374.912 232.035 374.645 232.861 374.112 233.554C373.579 234.248 372.873 234.768 371.993 235.114C371.113 235.461 370.22 235.714 369.313 235.874C368.407 236.034 367.474 236.114 366.514 236.114ZM351.877 222.197C349.157 222.197 347.798 222.903 347.798 224.316C347.798 225.276 348.398 226.209 349.597 227.116C350.797 228.022 352.157 228.769 353.677 229.355C355.196 229.942 356.529 230.395 357.676 230.715C358.822 231.035 359.489 231.208 359.675 231.235C359.702 229.929 359.715 228.635 359.715 227.356L359.675 223.477C359.649 223.45 359.209 223.343 358.356 223.157C357.502 222.97 356.436 222.757 355.156 222.517C353.876 222.277 352.783 222.17 351.877 222.197ZM369.233 232.995C372.059 232.995 373.472 232.288 373.472 230.875C373.472 230.475 373.339 230.049 373.072 229.595C372.806 229.142 372.299 228.595 371.553 227.956C370.806 227.316 369.647 226.676 368.074 226.036C366.501 225.396 364.554 224.756 362.235 224.116L361.555 223.916V231.715C361.635 231.715 362.141 231.835 363.075 232.075C364.008 232.315 365.047 232.528 366.194 232.715C367.34 232.901 368.353 232.995 369.233 232.995Z" fill="black"/>
<path d="M344.558 216.358L344.518 216.198C344.518 216.065 344.518 215.932 344.518 215.798V215.318L345.478 214.199C347.744 211.692 350.57 209.866 353.956 208.72C357.342 207.573 360.862 207 364.514 207C366.327 207 368.074 207.133 369.753 207.4C371.433 207.667 372.859 207.973 374.032 208.32C375.205 208.666 376.378 209.16 377.552 209.799C378.725 210.439 379.618 210.946 380.231 211.319C380.844 211.692 381.524 212.239 382.271 212.959C383.017 213.679 383.457 214.105 383.59 214.239C383.724 214.372 383.977 214.678 384.35 215.158C384.43 215.238 384.483 215.292 384.51 215.318V215.798C384.51 216.011 384.51 216.158 384.51 216.238C384.51 216.318 384.47 216.385 384.39 216.438C384.31 216.491 384.19 216.531 384.03 216.558C384.004 216.531 383.83 216.385 383.51 216.118C379.218 211.986 372.886 209.919 364.514 209.919C356.143 209.919 349.811 211.986 345.518 216.118C345.198 216.385 345.025 216.531 344.998 216.558C344.785 216.558 344.638 216.491 344.558 216.358Z" fill="black"/>
</svg>
