<svg width="858" height="867" viewBox="0 0 858 867" fill="none" xmlns="http://www.w3.org/2000/svg">
<path d="M802.049 467.561C802.635 466.975 802.635 466.025 802.049 465.439L792.503 455.893C791.918 455.308 790.968 455.308 790.382 455.893C789.796 456.479 789.796 457.429 790.382 458.015L798.867 466.5L790.382 474.985C789.796 475.571 789.796 476.521 790.382 477.107C790.968 477.692 791.918 477.692 792.503 477.107L802.049 467.561ZM0.98877 468H800.989V465H0.98877V468Z" fill="black"/>
<path d="M402.049 65.4393C401.464 64.8536 400.514 64.8536 399.928 65.4393L390.382 74.9853C389.796 75.5711 389.796 76.5208 390.382 77.1066C390.968 77.6924 391.918 77.6924 392.503 77.1066L400.989 68.6213L409.474 77.1066C410.06 77.6924 411.01 77.6924 411.595 77.1066C412.181 76.5208 412.181 75.5711 411.595 74.9853L402.049 65.4393ZM402.489 866.5L402.489 66.5H399.489L399.489 866.5H402.489Z" fill="black"/>
<path d="M818.42 459.778C818.81 457.44 820.313 454.739 822.93 451.677C825.547 448.615 828.776 447.056 832.618 447C834.567 447 836.348 447.501 837.963 448.503C839.578 449.506 840.775 450.758 841.554 452.262C843.893 448.754 846.705 447 849.99 447C852.05 447 853.831 447.612 855.335 448.837C856.838 450.062 857.618 451.705 857.673 453.765C857.673 455.38 857.284 456.688 856.504 457.69C855.725 458.693 854.973 459.305 854.249 459.528C853.525 459.75 852.885 459.862 852.328 459.862C851.27 459.862 850.407 459.556 849.739 458.943C849.071 458.331 848.737 457.523 848.737 456.521C848.737 453.96 850.129 452.206 852.913 451.259C852.3 450.536 851.187 450.174 849.572 450.174C848.848 450.174 848.319 450.229 847.985 450.341C845.869 451.232 844.31 453.069 843.308 455.853C839.967 468.158 838.297 475.34 838.297 477.401C838.297 478.96 838.743 480.073 839.633 480.741C840.524 481.409 841.499 481.744 842.557 481.744C844.617 481.744 846.649 480.825 848.653 478.987C850.658 477.15 852.022 474.895 852.746 472.222C852.913 471.666 853.08 471.359 853.247 471.304C853.414 471.248 853.859 471.192 854.583 471.137H854.917C855.752 471.137 856.17 471.359 856.17 471.805C856.17 471.861 856.114 472.167 856.003 472.724C855.112 475.897 853.386 478.709 850.825 481.159C848.264 483.609 845.285 484.834 841.888 484.834C837.991 484.834 835.04 483.08 833.035 479.572C830.753 483.024 828.136 484.75 825.185 484.75H824.684C821.955 484.75 820.007 484.026 818.837 482.579C817.668 481.131 817.056 479.6 817 477.985C817 476.203 817.529 474.756 818.587 473.642C819.645 472.529 820.898 471.972 822.345 471.972C824.739 471.972 825.936 473.141 825.936 475.48C825.936 476.593 825.602 477.568 824.934 478.403C824.266 479.238 823.626 479.795 823.013 480.073C822.401 480.352 822.039 480.491 821.928 480.491L821.677 480.574C821.677 480.63 821.844 480.741 822.178 480.908C822.512 481.075 822.958 481.27 823.514 481.493C824.071 481.716 824.6 481.799 825.101 481.744C827.106 481.744 828.832 480.491 830.279 477.985C830.78 477.094 831.421 475.201 832.2 472.306C832.98 469.411 833.759 466.404 834.539 463.286C835.318 460.168 835.764 458.331 835.875 457.774C836.153 456.271 836.293 455.185 836.293 454.517C836.293 452.958 835.875 451.844 835.04 451.176C834.205 450.508 833.258 450.174 832.2 450.174C829.973 450.174 827.885 451.065 825.936 452.846C823.988 454.628 822.624 456.911 821.844 459.695C821.733 460.196 821.593 460.474 821.426 460.53C821.259 460.586 820.814 460.641 820.09 460.697H818.921C818.587 460.363 818.42 460.057 818.42 459.778Z" fill="black"/>
<path d="M381 13.0581C381 12.2719 381.421 10.9242 382.263 9.01499C383.106 7.10574 384.453 5.11226 386.307 3.03455C388.16 0.956841 390.237 -0.053937 392.54 0.00221736C394.842 0.00221736 396.695 0.647992 398.099 1.93954C399.503 3.23109 400.233 5.02803 400.289 7.33036C400.177 8.39729 400.092 8.98691 400.036 9.09922C400.036 9.26768 399.587 10.5592 398.689 12.9739C397.79 15.3885 396.864 18.112 395.909 21.1443C394.954 24.1767 394.505 26.5913 394.561 28.3882C394.561 30.8029 394.954 32.4875 395.741 33.4421C396.527 34.3967 397.706 34.9021 399.278 34.9583C400.57 34.9583 401.777 34.6494 402.9 34.0317C404.023 33.414 404.894 32.7683 405.511 32.0944C406.129 31.4206 406.887 30.494 407.786 29.3148C407.786 29.2586 407.926 28.6971 408.207 27.6302C408.488 26.5632 408.881 24.9067 409.386 22.6605C409.891 20.4143 410.425 18.3366 410.986 16.4274C413.12 8.00421 414.3 3.59609 414.524 3.20301C415.254 1.68685 416.461 0.928764 418.146 0.928764C418.876 0.928764 419.466 1.1253 419.915 1.51838C420.364 1.91146 420.673 2.24839 420.842 2.52916C421.01 2.80993 421.066 3.06263 421.01 3.28725C421.01 4.01725 419.634 9.91346 416.883 20.9759C414.131 32.0383 412.559 38.1029 412.166 39.1699C410.593 43.8307 407.87 47.5369 403.995 50.2884C400.121 53.04 396.246 54.4438 392.371 54.5C389.844 54.5 387.626 53.8823 385.717 52.6469C383.808 51.4115 382.853 49.5584 382.853 47.0876C382.853 45.8522 383.05 44.8134 383.443 43.9711C383.836 43.1287 384.369 42.511 385.043 42.118C385.717 41.7249 386.279 41.4441 386.728 41.2757C387.177 41.1072 387.654 41.023 388.16 41.023C390.63 41.023 391.866 42.2022 391.866 44.5607C391.866 45.6838 391.529 46.6665 390.855 47.5088C390.181 48.3511 389.535 48.9126 388.918 49.1934C388.3 49.4742 387.935 49.6146 387.823 49.6146L387.57 49.6988C387.682 49.9796 388.216 50.3165 389.17 50.7096C390.125 51.1027 391.08 51.2992 392.034 51.2992H392.708C393.663 51.2992 394.393 51.243 394.898 51.1307C396.751 50.6254 398.464 49.5584 400.036 47.9299C401.609 46.3015 402.816 44.5607 403.658 42.7076C404.501 40.8545 405.146 39.2822 405.596 37.9906C406.045 36.6991 406.269 35.8568 406.269 35.4637L405.764 35.8006C405.427 36.0252 404.894 36.3341 404.164 36.7272C403.434 37.1202 402.704 37.4572 401.974 37.7379C400.851 38.0187 399.756 38.1591 398.689 38.1591C396.106 38.1591 393.831 37.5414 391.866 36.306C389.9 35.0706 388.609 33.0771 387.991 30.3256C387.935 29.9325 387.907 29.0621 387.907 27.7144C387.907 24.5136 388.89 20.3301 390.855 15.1639C392.82 9.99769 393.803 6.71266 393.803 5.3088C393.803 5.25265 393.803 5.19649 393.803 5.14034C393.803 4.63495 393.803 4.29802 393.803 4.12956C393.803 3.9611 393.691 3.76456 393.466 3.53994C393.242 3.31532 392.933 3.20301 392.54 3.20301H392.203C390.911 3.20301 389.732 3.73648 388.665 4.80341C387.598 5.87035 386.756 7.02151 386.138 8.2569C385.52 9.4923 385.043 10.6715 384.706 11.7946C384.369 12.9177 384.145 13.5354 384.032 13.6477C383.92 13.76 383.471 13.8162 382.685 13.8162H381.505C381.168 13.4793 381 13.2266 381 13.0581Z" fill="black"/>
<path d="M701 199L661.421 207.174L688.289 237.364L701 199ZM403.327 468.614L679.797 222.557L675.143 217.328L398.673 463.386L403.327 468.614Z" fill="#6C63FF"/>
<path d="M544 413.094C544 404.868 545.309 396.198 547.927 387.084C550.546 377.97 554.104 370.107 558.602 363.493C563.1 356.879 567.766 353.089 572.6 352.121C572.667 352.121 572.935 352.121 573.405 352.121C573.875 352.121 574.278 352.081 574.614 352C578.239 352.323 581.059 354.299 583.073 357.928C585.691 362.767 587 369.26 587 377.406C587 386.681 585.489 396.117 582.468 405.715C579.447 415.312 575.587 423.176 570.888 429.306C566.188 435.435 561.69 438.5 557.393 438.5H556.689C554.272 438.5 552.19 437.693 550.445 436.08C548.699 434.467 547.39 432.33 546.518 429.669C545.645 427.007 545.007 424.305 544.604 421.563C544.201 418.821 544 415.998 544 413.094ZM579.044 368.816C579.044 360.59 577.265 356.476 573.707 356.476C571.29 356.476 568.941 358.291 566.658 361.92C564.375 365.55 562.496 369.663 561.019 374.26C559.542 378.857 558.4 382.89 557.595 386.358C556.789 389.826 556.353 391.842 556.286 392.407C559.575 392.488 562.831 392.528 566.054 392.528L575.822 392.407C575.889 392.326 576.158 390.996 576.628 388.415C577.098 385.834 577.635 382.608 578.239 378.736C578.843 374.865 579.112 371.558 579.044 368.816ZM551.855 421.321C551.855 429.87 553.634 434.145 557.192 434.145C558.199 434.145 559.273 433.741 560.415 432.935C561.556 432.128 562.932 430.596 564.543 428.338C566.155 426.079 567.766 422.571 569.377 417.813C570.988 413.054 572.6 407.166 574.211 400.15L574.714 398.093H555.077C555.077 398.335 554.775 399.867 554.171 402.69C553.567 405.513 553.03 408.659 552.56 412.127C552.09 415.595 551.855 418.659 551.855 421.321Z" fill="black"/>
<path d="M709.87 191.066C708.623 191.066 708 190.699 708 189.966C708 189.82 708.11 189.306 708.33 188.426C708.623 187.253 708.917 186.593 709.21 186.446C709.503 186.3 710.347 186.19 711.74 186.116C713.72 186.116 715.92 186.006 718.34 185.786C719.366 185.566 720.063 185.126 720.43 184.466C720.576 184.1 723.179 173.797 728.239 153.558C733.299 133.318 735.866 123.052 735.939 122.759C735.939 122.245 735.792 121.989 735.499 121.989C734.912 121.769 732.969 121.585 729.669 121.439H726.259C725.819 120.999 725.599 120.705 725.599 120.559C725.599 120.412 725.673 119.789 725.819 118.689C726.113 117.442 726.479 116.672 726.919 116.379H786.207C786.72 116.672 786.977 117.076 786.977 117.589C786.977 117.956 786.5 122.062 785.547 129.908C784.594 137.755 784.08 141.788 784.007 142.008C783.86 142.521 783.127 142.778 781.807 142.778H780.487C779.974 142.411 779.717 141.935 779.717 141.348C779.717 141.275 779.827 140.395 780.047 138.708C780.267 137.021 780.377 135.078 780.377 132.878C780.377 130.678 780.121 128.882 779.607 127.489C779.094 126.095 778.397 124.959 777.517 124.079C776.637 123.199 775.281 122.612 773.448 122.319C771.614 122.025 769.744 121.769 767.838 121.549C765.931 121.329 763.291 121.292 759.918 121.439H757.388C751.375 121.512 748.185 121.622 747.819 121.769C747.452 121.915 747.195 122.209 747.049 122.649C746.975 122.722 745.729 127.525 743.309 137.058L739.789 151.248H745.839C746.059 151.248 746.902 151.248 748.368 151.248C749.835 151.248 750.862 151.211 751.448 151.138C752.035 151.064 752.842 150.954 753.868 150.808C754.895 150.661 755.775 150.404 756.508 150.038C757.241 149.671 757.865 149.231 758.378 148.718C759.331 147.838 760.138 146.628 760.798 145.088C761.458 143.548 761.935 142.155 762.228 140.908C762.521 139.661 762.705 139.001 762.778 138.928C762.998 138.561 763.695 138.378 764.868 138.378H766.188C766.701 138.745 766.958 139.111 766.958 139.478C766.958 139.698 765.821 144.501 763.548 153.888C761.275 163.274 760.028 168.114 759.808 168.407C759.661 168.92 758.928 169.177 757.608 169.177H756.288C755.775 168.737 755.518 168.297 755.518 167.857C755.518 167.637 755.702 166.83 756.068 165.437C756.435 164.044 756.618 162.577 756.618 161.037C756.618 158.911 755.885 157.591 754.418 157.077C752.952 156.564 749.688 156.307 744.629 156.307H738.579L735.059 170.277C732.712 179.37 731.539 184.136 731.539 184.576C731.539 185.603 734.802 186.116 741.329 186.116H744.079C744.519 186.556 744.739 186.813 744.739 186.886C744.739 186.96 744.665 187.693 744.519 189.086C744.225 190.04 743.859 190.736 743.419 191.176H741.549C738.542 191.029 733.006 190.956 724.939 190.956C720.173 190.956 716.543 190.956 714.05 190.956C711.557 190.956 710.163 190.993 709.87 191.066Z" fill="#6C63FF"/>
<path d="M777.66 90.1999C777.66 89.6133 777.844 89.1 778.21 88.66C778.577 88.22 779.127 88 779.86 88C780.374 88 780.814 88.1833 781.18 88.55C781.547 88.8433 781.914 89.54 782.28 90.6399C783.014 93.3532 784.517 95.4431 786.79 96.9097C787.597 97.423 788 98.083 788 98.8896C788 99.5496 787.89 99.9896 787.67 100.21C787.45 100.43 786.937 100.76 786.13 101.2C782.977 102.813 780.227 105.123 777.88 108.129C777.734 108.276 777.55 108.496 777.33 108.789C777.11 109.083 776.927 109.303 776.78 109.449C776.634 109.596 776.45 109.669 776.23 109.669C776.01 109.669 775.754 109.706 775.46 109.779C774.947 109.779 774.471 109.596 774.031 109.229C773.591 108.863 773.334 108.313 773.261 107.579C773.261 106.186 774.984 104.023 778.43 101.09H759.621L740.812 100.98C739.858 100.32 739.382 99.6229 739.382 98.8896C739.382 98.3763 739.858 97.643 740.812 96.6897H780.3C778.54 93.9031 777.66 91.7399 777.66 90.1999Z" fill="#6C63FF"/>
</svg>
