<svg width="858" height="867" viewBox="0 0 858 867" fill="none" xmlns="http://www.w3.org/2000/svg">
<path d="M802.049 467.561C802.635 466.975 802.635 466.025 802.049 465.439L792.503 455.893C791.918 455.308 790.968 455.308 790.382 455.893C789.796 456.479 789.796 457.429 790.382 458.015L798.867 466.5L790.382 474.985C789.796 475.571 789.796 476.521 790.382 477.107C790.968 477.692 791.918 477.692 792.503 477.107L802.049 467.561ZM0.98877 468H800.989V465H0.98877V468Z" fill="black"/>
<path d="M402.049 65.4393C401.464 64.8536 400.514 64.8536 399.928 65.4393L390.382 74.9853C389.796 75.5711 389.796 76.5208 390.382 77.1066C390.968 77.6924 391.918 77.6924 392.503 77.1066L400.989 68.6213L409.474 77.1066C410.06 77.6924 411.01 77.6924 411.595 77.1066C412.181 76.5208 412.181 75.5711 411.595 74.9853L402.049 65.4393ZM402.489 866.5L402.489 66.5H399.489L399.489 866.5H402.489Z" fill="black"/>
<path d="M818.42 459.778C818.81 457.44 820.313 454.739 822.93 451.677C825.547 448.615 828.776 447.056 832.618 447C834.567 447 836.348 447.501 837.963 448.503C839.578 449.506 840.775 450.758 841.554 452.262C843.893 448.754 846.705 447 849.99 447C852.05 447 853.831 447.612 855.335 448.837C856.838 450.062 857.618 451.705 857.673 453.765C857.673 455.38 857.284 456.688 856.504 457.69C855.725 458.693 854.973 459.305 854.249 459.528C853.525 459.75 852.885 459.862 852.328 459.862C851.27 459.862 850.407 459.556 849.739 458.943C849.071 458.331 848.737 457.523 848.737 456.521C848.737 453.96 850.129 452.206 852.913 451.259C852.3 450.536 851.187 450.174 849.572 450.174C848.848 450.174 848.319 450.229 847.985 450.341C845.869 451.232 844.31 453.069 843.308 455.853C839.967 468.158 838.297 475.34 838.297 477.401C838.297 478.96 838.743 480.073 839.633 480.741C840.524 481.409 841.499 481.744 842.557 481.744C844.617 481.744 846.649 480.825 848.653 478.987C850.658 477.15 852.022 474.895 852.746 472.222C852.913 471.666 853.08 471.359 853.247 471.304C853.414 471.248 853.859 471.192 854.583 471.137H854.917C855.752 471.137 856.17 471.359 856.17 471.805C856.17 471.861 856.114 472.167 856.003 472.724C855.112 475.897 853.386 478.709 850.825 481.159C848.264 483.609 845.285 484.834 841.888 484.834C837.991 484.834 835.04 483.08 833.035 479.572C830.753 483.024 828.136 484.75 825.185 484.75H824.684C821.955 484.75 820.007 484.026 818.837 482.579C817.668 481.131 817.056 479.6 817 477.985C817 476.203 817.529 474.756 818.587 473.642C819.645 472.529 820.898 471.972 822.345 471.972C824.739 471.972 825.936 473.141 825.936 475.48C825.936 476.593 825.602 477.568 824.934 478.403C824.266 479.238 823.626 479.795 823.013 480.073C822.401 480.352 822.039 480.491 821.928 480.491L821.677 480.574C821.677 480.63 821.844 480.741 822.178 480.908C822.512 481.075 822.958 481.27 823.514 481.493C824.071 481.716 824.6 481.799 825.101 481.744C827.106 481.744 828.832 480.491 830.279 477.985C830.78 477.094 831.421 475.201 832.2 472.306C832.98 469.411 833.759 466.404 834.539 463.286C835.318 460.168 835.764 458.331 835.875 457.774C836.153 456.271 836.293 455.185 836.293 454.517C836.293 452.958 835.875 451.844 835.04 451.176C834.205 450.508 833.258 450.174 832.2 450.174C829.973 450.174 827.885 451.065 825.936 452.846C823.988 454.628 822.624 456.911 821.844 459.695C821.733 460.196 821.593 460.474 821.426 460.53C821.259 460.586 820.814 460.641 820.09 460.697H818.921C818.587 460.363 818.42 460.057 818.42 459.778Z" fill="black"/>
<path d="M381 13.0581C381 12.2719 381.421 10.9242 382.263 9.01499C383.106 7.10574 384.453 5.11226 386.307 3.03455C388.16 0.956841 390.237 -0.053937 392.54 0.00221736C394.842 0.00221736 396.695 0.647992 398.099 1.93954C399.503 3.23109 400.233 5.02803 400.289 7.33036C400.177 8.39729 400.092 8.98691 400.036 9.09922C400.036 9.26768 399.587 10.5592 398.689 12.9739C397.79 15.3885 396.864 18.112 395.909 21.1443C394.954 24.1767 394.505 26.5913 394.561 28.3882C394.561 30.8029 394.954 32.4875 395.741 33.4421C396.527 34.3967 397.706 34.9021 399.278 34.9583C400.57 34.9583 401.777 34.6494 402.9 34.0317C404.023 33.414 404.894 32.7683 405.511 32.0944C406.129 31.4206 406.887 30.494 407.786 29.3148C407.786 29.2586 407.926 28.6971 408.207 27.6302C408.488 26.5632 408.881 24.9067 409.386 22.6605C409.891 20.4143 410.425 18.3366 410.986 16.4274C413.12 8.00421 414.3 3.59609 414.524 3.20301C415.254 1.68685 416.461 0.928764 418.146 0.928764C418.876 0.928764 419.466 1.1253 419.915 1.51838C420.364 1.91146 420.673 2.24839 420.842 2.52916C421.01 2.80993 421.066 3.06263 421.01 3.28725C421.01 4.01725 419.634 9.91346 416.883 20.9759C414.131 32.0383 412.559 38.1029 412.166 39.1699C410.593 43.8307 407.87 47.5369 403.995 50.2884C400.121 53.04 396.246 54.4438 392.371 54.5C389.844 54.5 387.626 53.8823 385.717 52.6469C383.808 51.4115 382.853 49.5584 382.853 47.0876C382.853 45.8522 383.05 44.8134 383.443 43.9711C383.836 43.1287 384.369 42.511 385.043 42.118C385.717 41.7249 386.279 41.4441 386.728 41.2757C387.177 41.1072 387.654 41.023 388.16 41.023C390.63 41.023 391.866 42.2022 391.866 44.5607C391.866 45.6838 391.529 46.6665 390.855 47.5088C390.181 48.3511 389.535 48.9126 388.918 49.1934C388.3 49.4742 387.935 49.6146 387.823 49.6146L387.57 49.6988C387.682 49.9796 388.216 50.3165 389.17 50.7096C390.125 51.1027 391.08 51.2992 392.034 51.2992H392.708C393.663 51.2992 394.393 51.243 394.898 51.1307C396.751 50.6254 398.464 49.5584 400.036 47.9299C401.609 46.3015 402.816 44.5607 403.658 42.7076C404.501 40.8545 405.146 39.2822 405.596 37.9906C406.045 36.6991 406.269 35.8568 406.269 35.4637L405.764 35.8006C405.427 36.0252 404.894 36.3341 404.164 36.7272C403.434 37.1202 402.704 37.4572 401.974 37.7379C400.851 38.0187 399.756 38.1591 398.689 38.1591C396.106 38.1591 393.831 37.5414 391.866 36.306C389.9 35.0706 388.609 33.0771 387.991 30.3256C387.935 29.9325 387.907 29.0621 387.907 27.7144C387.907 24.5136 388.89 20.3301 390.855 15.1639C392.82 9.99769 393.803 6.71266 393.803 5.3088C393.803 5.25265 393.803 5.19649 393.803 5.14034C393.803 4.63495 393.803 4.29802 393.803 4.12956C393.803 3.9611 393.691 3.76456 393.466 3.53994C393.242 3.31532 392.933 3.20301 392.54 3.20301H392.203C390.911 3.20301 389.732 3.73648 388.665 4.80341C387.598 5.87035 386.756 7.02151 386.138 8.2569C385.52 9.4923 385.043 10.6715 384.706 11.7946C384.369 12.9177 384.145 13.5354 384.032 13.6477C383.92 13.76 383.471 13.8162 382.685 13.8162H381.505C381.168 13.4793 381 13.2266 381 13.0581Z" fill="black"/>
<path d="M701 199L661.421 207.174L688.289 237.364L701 199ZM403.327 468.614L679.797 222.557L675.143 217.328L398.673 463.386L403.327 468.614Z" fill="#6C63FF"/>
<path d="M436 345.094C436 336.868 437.309 328.198 439.927 319.084C442.546 309.97 446.104 302.107 450.602 295.493C455.1 288.879 459.766 285.089 464.6 284.121C464.667 284.121 464.935 284.121 465.405 284.121C465.875 284.121 466.278 284.081 466.614 284C470.239 284.323 473.059 286.299 475.073 289.928C477.691 294.767 479 301.26 479 309.406C479 318.681 477.489 328.117 474.468 337.715C471.447 347.312 467.587 355.176 462.888 361.306C458.188 367.435 453.69 370.5 449.393 370.5H448.689C446.272 370.5 444.19 369.693 442.445 368.08C440.699 366.467 439.39 364.33 438.518 361.669C437.645 359.007 437.007 356.305 436.604 353.563C436.201 350.821 436 347.998 436 345.094ZM471.044 300.816C471.044 292.59 469.265 288.476 465.707 288.476C463.29 288.476 460.941 290.291 458.658 293.92C456.375 297.55 454.496 301.663 453.019 306.26C451.542 310.857 450.4 314.89 449.595 318.358C448.789 321.826 448.353 323.842 448.286 324.407C451.575 324.488 454.831 324.528 458.054 324.528L467.822 324.407C467.889 324.326 468.158 322.996 468.628 320.415C469.098 317.834 469.635 314.608 470.239 310.736C470.843 306.865 471.112 303.558 471.044 300.816ZM443.855 353.321C443.855 361.87 445.634 366.145 449.192 366.145C450.199 366.145 451.273 365.741 452.415 364.935C453.556 364.128 454.932 362.596 456.543 360.338C458.155 358.079 459.766 354.571 461.377 349.813C462.988 345.054 464.6 339.166 466.211 332.15L466.714 330.093H447.077C447.077 330.335 446.775 331.867 446.171 334.69C445.567 337.513 445.03 340.659 444.56 344.127C444.09 347.595 443.855 350.659 443.855 353.321Z" fill="black"/>
<line x1="702.5" y1="199" x2="702.5" y2="466" stroke="black" stroke-width="3" stroke-dasharray="2 2"/>
<path d="M401 197.5H702" stroke="black" stroke-width="3" stroke-dasharray="2 2"/>
<line x1="401" y1="466.5" x2="701" y2="466.5" stroke="#6C63FF" stroke-width="7"/>
<path d="M401.5 470L401.5 199" stroke="#6C63FF" stroke-width="7"/>
<path d="M440.674 522.128C440.225 522.128 440 521.996 440 521.731C440 521.679 440.04 521.494 440.119 521.177C440.225 520.754 440.33 520.516 440.436 520.464C440.542 520.411 440.845 520.371 441.347 520.345C442.06 520.345 442.853 520.305 443.725 520.226C444.094 520.147 444.345 519.988 444.478 519.75C444.53 519.618 445.468 515.907 447.291 508.616C449.114 501.325 450.038 497.627 450.065 497.521C450.065 497.336 450.012 497.244 449.906 497.244C449.695 497.165 448.995 497.099 447.806 497.046H446.578C446.419 496.887 446.34 496.782 446.34 496.729C446.34 496.676 446.366 496.451 446.419 496.055C446.525 495.606 446.657 495.329 446.815 495.223H468.173C468.358 495.329 468.45 495.474 468.45 495.659C468.45 495.791 468.278 497.27 467.935 500.097C467.592 502.923 467.407 504.376 467.38 504.455C467.327 504.64 467.063 504.733 466.588 504.733H466.112C465.927 504.601 465.835 504.429 465.835 504.218C465.835 504.191 465.875 503.874 465.954 503.267C466.033 502.659 466.073 501.959 466.073 501.167C466.073 500.374 465.98 499.727 465.795 499.225C465.61 498.723 465.359 498.314 465.042 497.997C464.725 497.68 464.237 497.468 463.576 497.363C462.916 497.257 462.242 497.165 461.555 497.085C460.869 497.006 459.918 496.993 458.703 497.046H457.791C455.625 497.072 454.476 497.112 454.344 497.165C454.212 497.217 454.119 497.323 454.067 497.482C454.04 497.508 453.591 499.238 452.719 502.672L451.451 507.784H453.631C453.71 507.784 454.014 507.784 454.542 507.784C455.07 507.784 455.44 507.771 455.651 507.744C455.863 507.718 456.153 507.678 456.523 507.625C456.893 507.573 457.21 507.48 457.474 507.348C457.738 507.216 457.963 507.057 458.148 506.872C458.491 506.555 458.782 506.12 459.02 505.565C459.257 505.01 459.429 504.508 459.535 504.059C459.64 503.61 459.706 503.372 459.733 503.346C459.812 503.214 460.063 503.148 460.486 503.148H460.961C461.146 503.28 461.238 503.412 461.238 503.544C461.238 503.623 460.829 505.354 460.01 508.735C459.191 512.116 458.742 513.86 458.663 513.965C458.61 514.15 458.346 514.243 457.87 514.243H457.395C457.21 514.084 457.118 513.926 457.118 513.767C457.118 513.688 457.184 513.397 457.316 512.895C457.448 512.393 457.514 511.865 457.514 511.31C457.514 510.544 457.25 510.069 456.721 509.884C456.193 509.699 455.018 509.607 453.195 509.607H451.015L449.748 514.639C448.902 517.914 448.48 519.631 448.48 519.79C448.48 520.16 449.655 520.345 452.006 520.345H452.997C453.155 520.503 453.234 520.596 453.234 520.622C453.234 520.648 453.208 520.913 453.155 521.415C453.05 521.758 452.917 522.009 452.759 522.167H452.085C451.002 522.115 449.008 522.088 446.102 522.088C444.385 522.088 443.077 522.088 442.179 522.088C441.281 522.088 440.779 522.101 440.674 522.128Z" fill="black"/>
<path d="M465.707 520.015C465.837 519.23 466.342 518.325 467.219 517.297C468.097 516.27 469.18 515.747 470.469 515.729C471.123 515.729 471.72 515.897 472.262 516.233C472.804 516.569 473.205 516.989 473.467 517.494C474.251 516.317 475.194 515.729 476.296 515.729C476.987 515.729 477.585 515.934 478.089 516.345C478.593 516.756 478.855 517.307 478.873 517.998C478.873 518.539 478.743 518.978 478.481 519.314C478.22 519.651 477.968 519.856 477.725 519.931C477.482 520.006 477.267 520.043 477.08 520.043C476.726 520.043 476.436 519.94 476.212 519.735C475.988 519.529 475.876 519.258 475.876 518.922C475.876 518.063 476.343 517.475 477.277 517.157C477.071 516.915 476.698 516.793 476.156 516.793C475.913 516.793 475.736 516.812 475.624 516.849C474.914 517.148 474.391 517.764 474.055 518.698C472.934 522.826 472.374 525.235 472.374 525.926C472.374 526.449 472.523 526.822 472.822 527.046C473.121 527.271 473.448 527.383 473.803 527.383C474.494 527.383 475.175 527.074 475.848 526.458C476.52 525.842 476.978 525.085 477.22 524.189C477.277 524.002 477.333 523.899 477.389 523.881C477.445 523.862 477.594 523.843 477.837 523.825H477.949C478.229 523.825 478.369 523.899 478.369 524.049C478.369 524.068 478.35 524.17 478.313 524.357C478.014 525.422 477.435 526.365 476.576 527.186C475.717 528.008 474.718 528.419 473.579 528.419C472.271 528.419 471.281 527.831 470.609 526.654C469.843 527.812 468.966 528.391 467.976 528.391H467.808C466.893 528.391 466.239 528.148 465.847 527.663C465.455 527.177 465.249 526.664 465.23 526.122C465.23 525.524 465.408 525.039 465.763 524.665C466.118 524.292 466.538 524.105 467.023 524.105C467.826 524.105 468.228 524.497 468.228 525.282C468.228 525.655 468.116 525.982 467.892 526.262C467.668 526.542 467.453 526.729 467.247 526.822C467.042 526.916 466.921 526.962 466.883 526.962L466.799 526.99C466.799 527.009 466.855 527.046 466.967 527.102C467.079 527.158 467.229 527.224 467.416 527.299C467.602 527.373 467.78 527.401 467.948 527.383C468.62 527.383 469.199 526.962 469.685 526.122C469.853 525.823 470.068 525.188 470.329 524.217C470.59 523.246 470.852 522.237 471.113 521.191C471.375 520.146 471.524 519.529 471.562 519.343C471.655 518.838 471.702 518.474 471.702 518.25C471.702 517.727 471.562 517.354 471.281 517.129C471.001 516.905 470.684 516.793 470.329 516.793C469.582 516.793 468.882 517.092 468.228 517.69C467.574 518.287 467.117 519.053 466.855 519.987C466.818 520.155 466.771 520.248 466.715 520.267C466.659 520.286 466.51 520.304 466.267 520.323H465.875C465.763 520.211 465.707 520.108 465.707 520.015Z" fill="black"/>
<path d="M495.482 508.418C495.482 508.074 495.667 507.81 496.036 507.625H521.277C521.673 507.837 521.871 508.101 521.871 508.418C521.871 508.708 521.686 508.959 521.316 509.171L508.716 509.21H496.116C495.693 509.078 495.482 508.814 495.482 508.418ZM495.482 516.105C495.482 515.709 495.693 515.444 496.116 515.312H521.316C521.686 515.577 521.871 515.841 521.871 516.105C521.871 516.448 521.673 516.712 521.277 516.897H496.036C495.667 516.712 495.482 516.448 495.482 516.105Z" fill="black"/>
<path d="M540.605 532.034H540.526C540.209 532.034 539.971 531.849 539.813 531.479V512.222L539.853 492.964C540.117 492.621 540.368 492.449 540.605 492.449C540.949 492.449 541.213 492.647 541.398 493.044V531.479C541.187 531.849 540.949 532.034 540.685 532.034H540.605Z" fill="black"/>
<path d="M548.015 522.128C547.566 522.128 547.342 521.996 547.342 521.731C547.342 521.679 547.381 521.494 547.46 521.177C547.566 520.754 547.672 520.516 547.777 520.464C547.883 520.411 548.187 520.371 548.689 520.345C549.402 520.345 550.194 520.305 551.066 520.226C551.436 520.147 551.687 519.988 551.819 519.75C551.872 519.618 552.81 515.907 554.632 508.616C556.455 501.325 557.38 497.627 557.406 497.521C557.406 497.336 557.353 497.244 557.248 497.244C557.036 497.165 556.336 497.099 555.147 497.046H553.919C553.761 496.887 553.681 496.782 553.681 496.729C553.681 496.676 553.708 496.451 553.761 496.055C553.866 495.606 553.998 495.329 554.157 495.223H575.514C575.699 495.329 575.792 495.474 575.792 495.659C575.792 495.791 575.62 497.27 575.277 500.097C574.933 502.923 574.748 504.376 574.722 504.455C574.669 504.64 574.405 504.733 573.929 504.733H573.454C573.269 504.601 573.176 504.429 573.176 504.218C573.176 504.191 573.216 503.874 573.295 503.267C573.375 502.659 573.414 501.959 573.414 501.167C573.414 500.374 573.322 499.727 573.137 499.225C572.952 498.723 572.701 498.314 572.384 497.997C572.067 497.68 571.578 497.468 570.918 497.363C570.257 497.257 569.584 497.165 568.897 497.085C568.21 497.006 567.259 496.993 566.044 497.046H565.133C562.967 497.072 561.818 497.112 561.685 497.165C561.553 497.217 561.461 497.323 561.408 497.482C561.382 497.508 560.933 499.238 560.061 502.672L558.793 507.784H560.972C561.051 507.784 561.355 507.784 561.884 507.784C562.412 507.784 562.782 507.771 562.993 507.744C563.204 507.718 563.495 507.678 563.865 507.625C564.235 507.573 564.552 507.48 564.816 507.348C565.08 507.216 565.304 507.057 565.489 506.872C565.833 506.555 566.123 506.12 566.361 505.565C566.599 505.01 566.771 504.508 566.876 504.059C566.982 503.61 567.048 503.372 567.074 503.346C567.154 503.214 567.405 503.148 567.827 503.148H568.303C568.488 503.28 568.58 503.412 568.58 503.544C568.58 503.623 568.171 505.354 567.352 508.735C566.533 512.116 566.084 513.86 566.004 513.965C565.952 514.15 565.687 514.243 565.212 514.243H564.737C564.552 514.084 564.459 513.926 564.459 513.767C564.459 513.688 564.525 513.397 564.657 512.895C564.789 512.393 564.855 511.865 564.855 511.31C564.855 510.544 564.591 510.069 564.063 509.884C563.535 509.699 562.359 509.607 560.536 509.607H558.357L557.089 514.639C556.244 517.914 555.821 519.631 555.821 519.79C555.821 520.16 556.997 520.345 559.348 520.345H560.338C560.497 520.503 560.576 520.596 560.576 520.622C560.576 520.648 560.55 520.913 560.497 521.415C560.391 521.758 560.259 522.009 560.1 522.167H559.427C558.344 522.115 556.349 522.088 553.444 522.088C551.727 522.088 550.419 522.088 549.521 522.088C548.623 522.088 548.121 522.101 548.015 522.128Z" fill="black"/>
<path d="M572.435 485.792C572.435 485.581 572.501 485.396 572.634 485.238C572.766 485.079 572.964 485 573.228 485C573.413 485 573.571 485.066 573.703 485.198C573.835 485.304 573.968 485.555 574.1 485.951C574.364 486.928 574.905 487.681 575.724 488.21C576.015 488.394 576.16 488.632 576.16 488.923C576.16 489.161 576.12 489.319 576.041 489.398C575.962 489.478 575.777 489.596 575.486 489.755C574.351 490.336 573.36 491.168 572.515 492.251C572.462 492.304 572.396 492.383 572.317 492.489C572.237 492.595 572.171 492.674 572.118 492.727C572.066 492.78 572 492.806 571.92 492.806C571.841 492.806 571.749 492.819 571.643 492.846C571.458 492.846 571.286 492.78 571.128 492.647C570.969 492.515 570.877 492.317 570.85 492.053C570.85 491.551 571.471 490.772 572.713 489.715H565.937L559.161 489.676C558.818 489.438 558.646 489.187 558.646 488.923C558.646 488.738 558.818 488.474 559.161 488.13H573.386C572.752 487.127 572.435 486.347 572.435 485.792Z" fill="black"/>
<path d="M582.817 532.034H582.738C582.421 532.034 582.183 531.849 582.024 531.479V512.222L582.064 492.964C582.328 492.621 582.579 492.449 582.817 492.449C583.16 492.449 583.425 492.647 583.609 493.044V531.479C583.398 531.849 583.16 532.034 582.896 532.034H582.817Z" fill="black"/>
<path d="M593.515 510.716C593.515 509.871 593.727 509.012 594.149 508.14C594.572 507.269 595.312 506.463 596.368 505.723C597.425 504.984 598.706 504.627 600.212 504.654C601.85 504.654 603.038 505.01 603.778 505.723C604.518 506.437 604.901 507.229 604.927 508.101C604.927 508.946 604.703 509.567 604.254 509.963C603.804 510.359 603.303 510.571 602.748 510.597C602.404 510.597 602.087 510.491 601.797 510.28C601.506 510.069 601.348 509.725 601.321 509.25C601.321 508.827 601.44 508.457 601.678 508.14C601.916 507.823 602.14 507.586 602.352 507.427C602.563 507.269 602.735 507.189 602.867 507.189C602.893 507.189 602.906 507.176 602.906 507.15C602.906 507.071 602.814 506.952 602.629 506.793C602.444 506.635 602.114 506.489 601.638 506.357C601.163 506.225 600.648 506.146 600.093 506.12C598.825 506.12 597.901 506.463 597.319 507.15C596.738 507.837 596.434 508.537 596.408 509.25C596.408 509.91 596.659 510.373 597.161 510.637C597.663 510.901 598.389 511.125 599.34 511.31C600.291 511.495 600.978 511.693 601.401 511.905C603.144 512.671 604.016 513.939 604.016 515.709C604.016 516.448 603.871 517.188 603.58 517.928C603.289 518.667 602.854 519.407 602.272 520.147C601.691 520.886 600.859 521.467 599.776 521.89C598.693 522.313 597.451 522.537 596.051 522.564C594.017 522.564 592.578 522.181 591.732 521.414C590.887 520.648 590.451 519.75 590.425 518.72C590.425 517.69 590.702 516.95 591.257 516.501C591.812 516.052 592.393 515.828 593 515.828C593.397 515.828 593.766 515.946 594.11 516.184C594.453 516.422 594.638 516.831 594.665 517.412C594.665 518.099 594.427 518.68 593.951 519.156C593.476 519.631 593.066 519.869 592.723 519.869C592.67 519.896 592.631 519.909 592.604 519.909C592.578 519.909 592.564 519.935 592.564 519.988C592.591 520.067 592.697 520.173 592.881 520.305C593.066 520.437 593.476 520.609 594.11 520.82C594.744 521.031 595.47 521.124 596.289 521.098C597.24 521.098 598.059 520.952 598.746 520.662C599.433 520.371 599.935 520.001 600.252 519.552C600.569 519.103 600.793 518.694 600.925 518.324C601.057 517.954 601.123 517.624 601.123 517.333C601.123 516.594 600.846 516.039 600.291 515.669C599.736 515.299 599.102 515.075 598.389 514.995C597.676 514.916 596.897 514.718 596.051 514.401C595.206 514.084 594.585 513.622 594.189 513.014C593.74 512.354 593.515 511.588 593.515 510.716Z" fill="black"/>
<path d="M614.199 498.393C614.199 497.759 614.45 497.204 614.952 496.729C615.454 496.253 616.035 496.002 616.696 495.976C617.171 495.976 617.567 496.134 617.884 496.451C618.201 496.768 618.373 497.165 618.399 497.64C618.399 498.248 618.135 498.802 617.607 499.304C617.079 499.806 616.497 500.07 615.863 500.097C615.467 500.097 615.097 499.965 614.754 499.701C614.411 499.436 614.226 499.001 614.199 498.393ZM607.74 510.795C607.74 510.584 607.859 510.174 608.097 509.567C608.335 508.959 608.652 508.286 609.048 507.546C609.444 506.806 610.025 506.133 610.792 505.525C611.558 504.918 612.35 504.627 613.169 504.654C614.199 504.654 615.058 504.957 615.745 505.565C616.431 506.172 616.788 506.991 616.814 508.022C616.814 508.471 616.629 509.21 616.26 510.241C615.89 511.271 615.362 512.658 614.675 514.401C613.988 516.145 613.433 517.637 613.01 518.879C612.878 519.46 612.812 519.882 612.812 520.147C612.812 520.807 613.037 521.137 613.486 521.137C613.724 521.137 613.975 521.098 614.239 521.018C614.503 520.939 614.807 520.754 615.15 520.464C615.494 520.173 615.85 519.711 616.22 519.077C616.59 518.443 616.92 517.663 617.211 516.739C617.29 516.422 617.356 516.237 617.409 516.184C617.462 516.131 617.686 516.105 618.082 516.105C618.611 516.105 618.875 516.237 618.875 516.501C618.875 516.712 618.756 517.122 618.518 517.729C618.28 518.337 617.95 519.011 617.528 519.75C617.105 520.49 616.511 521.15 615.745 521.731C614.978 522.313 614.16 522.603 613.288 522.603C612.443 522.603 611.663 522.326 610.95 521.771C610.237 521.216 609.867 520.371 609.841 519.235C609.841 518.786 609.907 518.363 610.039 517.967C610.171 517.571 610.739 516.065 611.743 513.45C612.746 510.782 613.327 509.184 613.486 508.656C613.644 508.127 613.737 507.612 613.763 507.11C613.763 506.476 613.539 506.159 613.09 506.159H613.01C612.218 506.159 611.492 506.595 610.831 507.467C610.171 508.339 609.669 509.448 609.325 510.795C609.299 510.822 609.273 510.861 609.246 510.914C609.22 510.967 609.207 511.007 609.207 511.033C609.207 511.059 609.18 511.086 609.127 511.112C609.074 511.139 609.035 511.152 609.008 511.152C608.982 511.152 608.929 511.152 608.85 511.152C608.771 511.152 608.665 511.152 608.533 511.152H607.978C607.82 510.993 607.74 510.875 607.74 510.795Z" fill="black"/>
<path d="M621.411 510.795C621.437 510.637 621.477 510.425 621.53 510.161C621.582 509.897 621.741 509.395 622.005 508.656C622.269 507.916 622.533 507.295 622.798 506.793C623.062 506.291 623.498 505.803 624.105 505.327C624.713 504.852 625.32 504.627 625.928 504.654C626.879 504.654 627.671 504.891 628.305 505.367C628.939 505.842 629.336 506.291 629.494 506.714C629.653 507.137 629.732 507.414 629.732 507.546C629.732 507.599 629.745 507.625 629.771 507.625L630.207 507.189C631.819 505.499 633.655 504.654 635.715 504.654C637.142 504.654 638.291 505.01 639.162 505.723C640.034 506.437 640.483 507.48 640.51 508.854C640.536 510.227 640.034 512.301 639.004 515.075C637.974 517.848 637.472 519.526 637.498 520.107C637.498 520.794 637.723 521.137 638.172 521.137C638.33 521.137 638.449 521.124 638.528 521.098C639.294 520.965 639.981 520.464 640.589 519.592C641.196 518.72 641.659 517.663 641.976 516.422C642.028 516.211 642.293 516.105 642.768 516.105C643.296 516.105 643.561 516.211 643.561 516.422C643.561 516.448 643.508 516.646 643.402 517.016C643.191 517.782 642.9 518.535 642.53 519.275C642.161 520.014 641.553 520.754 640.708 521.494C639.862 522.233 638.951 522.59 637.974 522.564C636.732 522.564 635.834 522.207 635.279 521.494C634.724 520.781 634.447 520.041 634.447 519.275C634.447 518.773 634.923 517.188 635.874 514.52C636.825 511.852 637.313 509.844 637.34 508.497C637.34 506.939 636.758 506.159 635.596 506.159H635.398C633.126 506.159 631.211 507.493 629.653 510.161L629.375 510.637L628.068 515.946C627.196 519.407 626.694 521.269 626.562 521.533C626.218 522.247 625.651 522.603 624.858 522.603C624.515 522.603 624.237 522.524 624.026 522.365C623.815 522.207 623.669 522.048 623.59 521.89C623.511 521.731 623.484 521.599 623.511 521.494C623.511 521.15 624.013 518.997 625.017 515.035C626.02 511.073 626.549 508.92 626.602 508.576C626.628 508.444 626.641 508.14 626.641 507.665C626.641 506.635 626.324 506.12 625.69 506.12C624.686 506.12 623.854 507.44 623.194 510.082C623.035 510.61 622.956 510.888 622.956 510.914C622.903 511.073 622.652 511.152 622.203 511.152H621.649C621.49 510.993 621.411 510.875 621.411 510.795Z" fill="black"/>
<path d="M648.078 512.261C648.078 510.439 648.21 508.708 648.474 507.071C648.738 505.433 649.042 504.02 649.385 502.831C649.729 501.642 650.217 500.48 650.851 499.344C651.485 498.208 651.987 497.323 652.357 496.689C652.727 496.055 653.282 495.368 654.021 494.629C654.761 493.889 655.197 493.44 655.329 493.281C655.461 493.123 655.791 492.846 656.32 492.449H656.835H656.993C657.363 492.449 657.548 492.568 657.548 492.806C657.548 492.885 657.323 493.163 656.874 493.638C656.425 494.114 655.884 494.814 655.25 495.738C654.616 496.663 653.969 497.799 653.308 499.146C652.648 500.493 652.093 502.316 651.644 504.614C651.195 506.912 650.97 509.461 650.97 512.261C650.97 515.061 651.195 517.597 651.644 519.869C652.093 522.141 652.635 523.977 653.269 525.377C653.902 526.777 654.55 527.913 655.21 528.785C655.87 529.656 656.425 530.356 656.874 530.885C657.323 531.413 657.548 531.69 657.548 531.717C657.548 531.954 657.35 532.073 656.954 532.073H656.835H656.32L655.21 531.122C652.727 528.877 650.917 526.077 649.782 522.722C648.646 519.367 648.078 515.88 648.078 512.261Z" fill="black"/>
<path d="M661.154 514.243C661.154 511.548 661.669 508.708 662.699 505.723C663.729 502.738 665.129 500.163 666.899 497.997C668.669 495.831 670.505 494.589 672.407 494.272C672.433 494.272 672.539 494.272 672.724 494.272C672.909 494.272 673.067 494.259 673.199 494.232C674.626 494.338 675.735 494.985 676.528 496.174C677.558 497.759 678.073 499.885 678.073 502.553C678.073 505.591 677.479 508.682 676.29 511.825C675.101 514.969 673.582 517.545 671.733 519.552C669.884 521.56 668.114 522.564 666.424 522.564H666.146C665.195 522.564 664.376 522.299 663.69 521.771C663.003 521.243 662.488 520.543 662.144 519.671C661.801 518.799 661.55 517.914 661.391 517.016C661.233 516.118 661.154 515.194 661.154 514.243ZM674.943 499.74C674.943 497.046 674.243 495.698 672.843 495.698C671.892 495.698 670.967 496.293 670.069 497.482C669.171 498.67 668.431 500.018 667.85 501.523C667.269 503.029 666.82 504.35 666.503 505.486C666.186 506.622 666.014 507.282 665.988 507.467C667.282 507.493 668.563 507.506 669.831 507.506L673.675 507.467C673.701 507.44 673.807 507.005 673.992 506.159C674.177 505.314 674.388 504.257 674.626 502.989C674.864 501.721 674.969 500.638 674.943 499.74ZM664.244 516.937C664.244 519.737 664.944 521.137 666.344 521.137C666.741 521.137 667.163 521.005 667.612 520.741C668.062 520.477 668.603 519.975 669.237 519.235C669.871 518.496 670.505 517.346 671.139 515.788C671.773 514.229 672.407 512.301 673.041 510.003L673.239 509.329H665.512C665.512 509.408 665.393 509.91 665.156 510.835C664.918 511.759 664.707 512.79 664.522 513.926C664.337 515.061 664.244 516.065 664.244 516.937Z" fill="black"/>
<path d="M680.728 492.489L680.886 492.449C681.019 492.449 681.151 492.449 681.283 492.449H681.758L682.868 493.4C685.351 495.646 687.16 498.446 688.296 501.801C689.432 505.155 690 508.642 690 512.261C690 514.058 689.868 515.788 689.604 517.452C689.34 519.116 689.036 520.53 688.692 521.692C688.349 522.854 687.86 524.016 687.226 525.179C686.592 526.341 686.09 527.226 685.721 527.834C685.351 528.441 684.809 529.115 684.096 529.854C683.383 530.594 682.96 531.03 682.828 531.162C682.696 531.294 682.392 531.545 681.917 531.915C681.837 531.994 681.785 532.047 681.758 532.073H681.283C681.071 532.073 680.926 532.073 680.847 532.073C680.768 532.073 680.702 532.034 680.649 531.954C680.596 531.875 680.556 531.756 680.53 531.598C680.556 531.571 680.702 531.4 680.966 531.083C685.06 526.83 687.107 520.556 687.107 512.261C687.107 503.967 685.06 497.693 680.966 493.44C680.702 493.123 680.556 492.951 680.53 492.925C680.53 492.713 680.596 492.568 680.728 492.489Z" fill="black"/>
<path d="M374.635 457.317C374.635 457.772 374.501 458 374.233 458C374.18 458 373.992 457.96 373.671 457.88C373.242 457.772 373.001 457.665 372.948 457.558C372.894 457.451 372.854 457.143 372.827 456.634C372.827 455.911 372.787 455.108 372.707 454.224C372.627 453.85 372.466 453.595 372.225 453.461C372.091 453.408 368.329 452.457 360.938 450.61C353.548 448.762 349.799 447.825 349.692 447.798C349.505 447.798 349.411 447.852 349.411 447.959C349.331 448.173 349.264 448.883 349.21 450.087V451.333C349.05 451.493 348.942 451.574 348.889 451.574C348.835 451.574 348.608 451.547 348.206 451.493C347.751 451.386 347.47 451.252 347.363 451.092V429.443C347.47 429.255 347.617 429.161 347.804 429.161C347.938 429.161 349.438 429.335 352.303 429.684C355.168 430.032 356.641 430.219 356.721 430.246C356.909 430.299 357.002 430.567 357.002 431.049V431.531C356.868 431.719 356.694 431.812 356.48 431.812C356.453 431.812 356.132 431.772 355.516 431.692C354.9 431.611 354.191 431.571 353.387 431.571C352.584 431.571 351.928 431.665 351.419 431.852C350.911 432.04 350.496 432.294 350.174 432.616C349.853 432.937 349.639 433.432 349.532 434.102C349.424 434.771 349.331 435.454 349.25 436.15C349.17 436.846 349.157 437.81 349.21 439.042V439.966C349.237 442.162 349.277 443.326 349.331 443.46C349.384 443.594 349.491 443.688 349.652 443.741C349.679 443.768 351.433 444.223 354.914 445.107L360.095 446.392V444.183C360.095 444.103 360.095 443.795 360.095 443.259C360.095 442.724 360.082 442.349 360.055 442.135C360.028 441.921 359.988 441.626 359.934 441.251C359.881 440.876 359.787 440.555 359.653 440.287C359.519 440.019 359.359 439.792 359.171 439.604C358.85 439.256 358.408 438.962 357.846 438.721C357.283 438.48 356.775 438.306 356.319 438.199C355.864 438.091 355.623 438.025 355.596 437.998C355.463 437.917 355.396 437.663 355.396 437.235V436.753C355.53 436.565 355.663 436.471 355.797 436.471C355.878 436.471 357.632 436.887 361.059 437.717C364.486 438.547 366.254 439.002 366.361 439.082C366.548 439.136 366.642 439.404 366.642 439.886V440.367C366.481 440.555 366.321 440.649 366.16 440.649C366.08 440.649 365.785 440.582 365.276 440.448C364.768 440.314 364.232 440.247 363.67 440.247C362.893 440.247 362.411 440.515 362.224 441.05C362.036 441.586 361.943 442.777 361.943 444.625V446.834L367.044 448.119C370.364 448.976 372.104 449.405 372.265 449.405C372.64 449.405 372.827 448.213 372.827 445.83V444.826C372.988 444.665 373.082 444.585 373.108 444.585C373.135 444.585 373.403 444.612 373.912 444.665C374.26 444.772 374.514 444.906 374.675 445.067V445.75C374.621 446.847 374.595 448.869 374.595 451.815C374.595 453.555 374.595 454.881 374.595 455.791C374.595 456.701 374.608 457.21 374.635 457.317Z" fill="black"/>
<path d="M372.55 432.823C372.285 432.823 371.83 432.681 371.187 432.397C370.543 432.113 369.871 431.658 369.171 431.034C368.47 430.409 368.129 429.708 368.148 428.932C368.148 428.156 368.366 427.531 368.801 427.058C369.237 426.585 369.843 426.339 370.619 426.32C370.979 426.358 371.177 426.386 371.215 426.405C371.272 426.405 371.707 426.556 372.521 426.859C373.335 427.162 374.254 427.475 375.276 427.796C376.298 428.118 377.112 428.27 377.718 428.251C378.532 428.251 379.1 428.118 379.422 427.853C379.744 427.588 379.914 427.191 379.933 426.66C379.933 426.225 379.829 425.818 379.621 425.439C379.412 425.061 379.195 424.767 378.967 424.559C378.74 424.351 378.428 424.095 378.03 423.792C378.011 423.792 377.822 423.745 377.462 423.65C377.103 423.556 376.544 423.423 375.787 423.253C375.03 423.082 374.329 422.903 373.686 422.713C370.846 421.994 369.36 421.596 369.227 421.521C368.716 421.275 368.461 420.868 368.461 420.3C368.461 420.053 368.527 419.855 368.659 419.703C368.792 419.552 368.906 419.448 369 419.391C369.095 419.334 369.18 419.315 369.256 419.334C369.502 419.334 371.49 419.798 375.219 420.726C378.949 421.653 380.993 422.183 381.353 422.316C382.924 422.846 384.174 423.764 385.101 425.07C386.029 426.377 386.502 427.683 386.521 428.989C386.521 429.841 386.313 430.589 385.896 431.232C385.48 431.876 384.855 432.198 384.022 432.198C383.606 432.198 383.255 432.132 382.971 431.999C382.687 431.867 382.479 431.687 382.347 431.46C382.214 431.232 382.12 431.043 382.063 430.892C382.006 430.74 381.978 430.579 381.978 430.409C381.978 429.576 382.375 429.159 383.17 429.159C383.549 429.159 383.88 429.273 384.164 429.5C384.448 429.727 384.637 429.945 384.732 430.153C384.827 430.362 384.874 430.485 384.874 430.522L384.902 430.608C384.997 430.57 385.111 430.39 385.243 430.068C385.376 429.746 385.442 429.424 385.442 429.103V428.875C385.442 428.554 385.423 428.307 385.385 428.137C385.215 427.512 384.855 426.935 384.306 426.405C383.757 425.875 383.17 425.468 382.545 425.184C381.921 424.9 381.391 424.682 380.955 424.531C380.52 424.379 380.236 424.304 380.103 424.304L380.217 424.474C380.293 424.588 380.397 424.767 380.529 425.013C380.662 425.26 380.775 425.506 380.87 425.752C380.965 426.13 381.012 426.5 381.012 426.859C381.012 427.73 380.804 428.497 380.387 429.159C379.971 429.822 379.299 430.257 378.371 430.466C378.239 430.485 377.945 430.494 377.491 430.494C376.412 430.494 375.001 430.163 373.26 429.5C371.518 428.838 370.411 428.506 369.937 428.506C369.918 428.506 369.899 428.506 369.881 428.506C369.71 428.506 369.597 428.506 369.54 428.506C369.483 428.506 369.417 428.544 369.341 428.62C369.265 428.696 369.227 428.8 369.227 428.932V429.046C369.227 429.481 369.407 429.879 369.767 430.238C370.127 430.598 370.515 430.882 370.931 431.09C371.348 431.299 371.745 431.46 372.124 431.573C372.502 431.687 372.711 431.762 372.749 431.8C372.786 431.838 372.805 431.99 372.805 432.255V432.652C372.692 432.766 372.607 432.823 372.55 432.823Z" fill="black"/>
<path d="M360.738 404.086C360.39 404.086 360.122 403.899 359.934 403.524V377.939C360.149 377.537 360.416 377.336 360.738 377.336C361.032 377.336 361.287 377.524 361.501 377.899L361.541 390.671V403.444C361.407 403.872 361.139 404.086 360.738 404.086ZM368.53 404.086C368.128 404.086 367.86 403.872 367.726 403.444V377.899C367.994 377.524 368.262 377.336 368.53 377.336C368.878 377.336 369.146 377.537 369.333 377.939V403.524C369.146 403.899 368.878 404.086 368.53 404.086Z" fill="black"/>
<path d="M384.676 358.35V358.431C384.676 358.752 384.489 358.993 384.114 359.154H364.593L345.073 359.113C344.725 358.846 344.551 358.591 344.551 358.35C344.551 358.002 344.752 357.734 345.154 357.547H384.114C384.489 357.761 384.676 358.002 384.676 358.27V358.35Z" fill="black"/>
<path d="M374.635 350.839C374.635 351.295 374.501 351.522 374.233 351.522C374.18 351.522 373.992 351.482 373.671 351.402C373.242 351.295 373.001 351.187 372.948 351.08C372.894 350.973 372.854 350.665 372.827 350.157C372.827 349.434 372.787 348.63 372.707 347.747C372.627 347.372 372.466 347.117 372.225 346.984C372.091 346.93 368.329 345.979 360.938 344.132C353.548 342.284 349.799 341.347 349.692 341.32C349.505 341.32 349.411 341.374 349.411 341.481C349.331 341.695 349.264 342.405 349.21 343.61V344.855C349.05 345.015 348.942 345.096 348.889 345.096C348.835 345.096 348.608 345.069 348.206 345.015C347.751 344.908 347.47 344.774 347.363 344.614V322.965C347.47 322.777 347.617 322.684 347.804 322.684C347.938 322.684 349.438 322.858 352.303 323.206C355.168 323.554 356.641 323.741 356.721 323.768C356.909 323.822 357.002 324.089 357.002 324.571V325.053C356.868 325.241 356.694 325.335 356.48 325.335C356.453 325.335 356.132 325.294 355.516 325.214C354.9 325.134 354.191 325.094 353.387 325.094C352.584 325.094 351.928 325.187 351.419 325.375C350.911 325.562 350.496 325.816 350.174 326.138C349.853 326.459 349.639 326.954 349.532 327.624C349.424 328.293 349.331 328.976 349.25 329.672C349.17 330.369 349.157 331.332 349.21 332.564V333.488C349.237 335.684 349.277 336.849 349.331 336.982C349.384 337.116 349.491 337.21 349.652 337.264C349.679 337.29 351.433 337.746 354.914 338.629L360.095 339.914V337.705C360.095 337.625 360.095 337.317 360.095 336.782C360.095 336.246 360.082 335.871 360.055 335.657C360.028 335.443 359.988 335.148 359.934 334.773C359.881 334.398 359.787 334.077 359.653 333.809C359.519 333.542 359.359 333.314 359.171 333.127C358.85 332.778 358.408 332.484 357.846 332.243C357.283 332.002 356.775 331.828 356.319 331.721C355.864 331.614 355.623 331.547 355.596 331.52C355.463 331.44 355.396 331.185 355.396 330.757V330.275C355.53 330.087 355.663 329.994 355.797 329.994C355.878 329.994 357.632 330.409 361.059 331.239C364.486 332.069 366.254 332.524 366.361 332.604C366.548 332.658 366.642 332.926 366.642 333.408V333.89C366.481 334.077 366.321 334.171 366.16 334.171C366.08 334.171 365.785 334.104 365.276 333.97C364.768 333.836 364.232 333.769 363.67 333.769C362.893 333.769 362.411 334.037 362.224 334.572C362.036 335.108 361.943 336.3 361.943 338.147V340.356L367.044 341.642C370.364 342.498 372.104 342.927 372.265 342.927C372.64 342.927 372.827 341.735 372.827 339.352V338.348C372.988 338.187 373.082 338.107 373.108 338.107C373.135 338.107 373.403 338.134 373.912 338.187C374.26 338.294 374.514 338.428 374.675 338.589V339.272C374.621 340.37 374.595 342.391 374.595 345.337C374.595 347.077 374.595 348.403 374.595 349.313C374.595 350.224 374.608 350.732 374.635 350.839Z" fill="black"/>
<path d="M337.803 326.086C337.589 326.086 337.402 326.019 337.241 325.885C337.08 325.751 337 325.55 337 325.282C337 325.095 337.067 324.934 337.201 324.8C337.308 324.666 337.562 324.533 337.964 324.399C338.955 324.131 339.718 323.582 340.253 322.752C340.441 322.457 340.682 322.31 340.976 322.31C341.217 322.31 341.378 322.35 341.458 322.431C341.539 322.511 341.659 322.698 341.82 322.993C342.409 324.144 343.252 325.148 344.35 326.005C344.404 326.059 344.484 326.126 344.591 326.206C344.698 326.286 344.779 326.353 344.832 326.407C344.886 326.46 344.913 326.527 344.913 326.608C344.913 326.688 344.926 326.782 344.953 326.889C344.953 327.076 344.886 327.25 344.752 327.411C344.618 327.572 344.417 327.665 344.149 327.692C343.641 327.692 342.851 327.063 341.78 325.804V332.673L341.739 339.541C341.499 339.889 341.244 340.063 340.976 340.063C340.789 340.063 340.521 339.889 340.173 339.541V325.122C339.156 325.764 338.366 326.086 337.803 326.086Z" fill="black"/>
<path d="M384.676 315.562V315.643C384.676 315.964 384.489 316.205 384.114 316.366H364.593L345.073 316.325C344.725 316.058 344.551 315.803 344.551 315.562C344.551 315.214 344.752 314.946 345.154 314.759H384.114C384.489 314.973 384.676 315.214 384.676 315.482V315.562Z" fill="black"/>
<path d="M368.289 308.614C365.37 308.614 362.746 307.462 360.416 305.16C358.087 302.857 356.922 300.366 356.922 297.689C356.922 296.189 357.243 295.011 357.886 294.154C358.529 293.297 359.372 292.856 360.416 292.829C361.193 292.829 361.849 293.083 362.384 293.592C362.92 294.101 363.201 294.743 363.228 295.52C363.228 296.029 363.094 296.43 362.826 296.725C362.558 297.019 362.157 297.167 361.621 297.167C361.086 297.167 360.63 297.019 360.256 296.725C359.881 296.43 359.6 296.136 359.412 295.841C359.225 295.547 359.144 295.359 359.171 295.279V295.239C359.118 295.239 359.037 295.319 358.93 295.48C358.823 295.64 358.716 295.922 358.609 296.323C358.502 296.725 358.448 297.18 358.448 297.689C358.448 298.492 358.636 299.255 359.011 299.978C359.251 300.541 359.667 301.116 360.256 301.705C361.434 302.883 363.094 303.74 365.236 304.276C367.378 304.811 368.931 305.093 369.895 305.119C371.127 305.119 372.051 304.771 372.667 304.075C373.309 303.486 373.631 302.709 373.631 301.745V301.585C373.631 298.586 372.493 296.109 370.217 294.154C369.949 293.913 369.815 293.753 369.815 293.672C369.815 293.565 369.935 293.391 370.176 293.15C370.417 292.909 370.605 292.775 370.739 292.748C370.873 292.722 371.073 292.842 371.341 293.11C371.609 293.378 371.984 293.766 372.466 294.275C372.948 294.784 373.349 295.386 373.671 296.082C373.992 296.778 374.327 297.635 374.675 298.653C375.023 299.67 375.17 300.741 375.117 301.866C375.117 303.874 374.474 305.494 373.189 306.726C371.904 307.958 370.27 308.587 368.289 308.614Z" fill="black"/>
<path d="M375.117 284.515C375.117 286.523 374.461 288.143 373.149 289.375C371.837 290.606 370.257 291.222 368.409 291.222C366.669 291.222 365.022 290.821 363.469 290.017C361.916 289.214 360.564 288.116 359.412 286.724C357.779 284.689 356.962 282.613 356.962 280.498C356.962 279.641 356.975 279.106 357.002 278.891C357.083 278.543 357.176 278.195 357.283 277.847C357.391 277.499 357.605 277.031 357.926 276.441C358.247 275.852 358.649 275.37 359.131 274.995C359.613 274.621 360.269 274.273 361.099 273.951C361.929 273.63 362.866 273.469 363.911 273.469C366.776 273.469 369.36 274.621 371.663 276.923C373.965 279.226 375.117 281.757 375.117 284.515ZM369.855 287.728C371.194 287.728 372.158 287.38 372.747 286.684C373.336 285.987 373.631 285.197 373.631 284.314C373.631 283.136 373.202 282.024 372.345 280.98C371.488 279.936 370.364 279.106 368.971 278.49C368.409 278.249 367.418 277.941 365.999 277.566C364.58 277.191 363.348 277.004 362.304 277.004C361.126 277.004 360.229 277.245 359.613 277.727C358.81 278.369 358.408 279.226 358.408 280.297C358.408 281.984 359.185 283.47 360.738 284.756C361.916 285.746 363.482 286.483 365.437 286.965C367.392 287.447 368.864 287.701 369.855 287.728Z" fill="black"/>
<path d="M363.067 267.846C362.21 267.846 361.34 267.632 360.456 267.203C359.573 266.775 358.756 266.025 358.006 264.954C357.257 263.883 356.895 262.584 356.922 261.058C356.922 259.398 357.283 258.193 358.006 257.443C358.729 256.694 359.533 256.305 360.416 256.279C361.273 256.279 361.902 256.506 362.304 256.961C362.706 257.417 362.92 257.925 362.947 258.488C362.947 258.836 362.84 259.157 362.625 259.452C362.411 259.746 362.063 259.907 361.581 259.934C361.153 259.934 360.778 259.813 360.456 259.572C360.135 259.331 359.894 259.103 359.733 258.889C359.573 258.675 359.492 258.501 359.492 258.367C359.492 258.34 359.479 258.327 359.452 258.327C359.372 258.327 359.252 258.421 359.091 258.608C358.93 258.796 358.783 259.13 358.649 259.612C358.515 260.094 358.435 260.616 358.408 261.179C358.408 262.464 358.756 263.401 359.452 263.99C360.149 264.579 360.858 264.887 361.581 264.914C362.251 264.914 362.719 264.66 362.987 264.151C363.255 263.642 363.482 262.906 363.67 261.942C363.857 260.978 364.058 260.282 364.272 259.853C365.049 258.086 366.334 257.202 368.128 257.202C368.878 257.202 369.628 257.35 370.377 257.644C371.127 257.939 371.877 258.381 372.627 258.97C373.376 259.559 373.965 260.402 374.394 261.5C374.822 262.598 375.05 263.856 375.077 265.276C375.077 267.337 374.688 268.797 373.912 269.654C373.135 270.51 372.225 270.952 371.181 270.979C370.136 270.979 369.387 270.698 368.931 270.136C368.476 269.573 368.248 268.984 368.248 268.368C368.248 267.967 368.369 267.592 368.61 267.244C368.851 266.896 369.266 266.708 369.855 266.681C370.551 266.681 371.14 266.922 371.622 267.404C372.104 267.886 372.345 268.301 372.345 268.649C372.372 268.703 372.386 268.743 372.386 268.77C372.386 268.797 372.412 268.81 372.466 268.81C372.546 268.783 372.653 268.676 372.787 268.489C372.921 268.301 373.095 267.886 373.309 267.244C373.524 266.601 373.617 265.865 373.59 265.035C373.59 264.071 373.443 263.24 373.149 262.544C372.854 261.848 372.479 261.339 372.024 261.018C371.569 260.697 371.154 260.469 370.779 260.335C370.404 260.201 370.069 260.134 369.775 260.134C369.025 260.134 368.463 260.416 368.088 260.978C367.713 261.54 367.485 262.183 367.405 262.906C367.325 263.629 367.124 264.419 366.803 265.276C366.481 266.132 366.013 266.762 365.397 267.163C364.727 267.618 363.951 267.846 363.067 267.846Z" fill="black"/>
<path d="M364.634 250.495C362.786 250.495 361.032 250.361 359.372 250.093C357.712 249.825 356.279 249.517 355.074 249.169C353.869 248.821 352.691 248.326 351.54 247.683C350.388 247.041 349.491 246.532 348.849 246.157C348.206 245.782 347.51 245.22 346.76 244.47C346.01 243.72 345.555 243.278 345.395 243.145C345.234 243.011 344.953 242.676 344.551 242.14V241.618V241.458C344.551 241.083 344.672 240.895 344.913 240.895C344.993 240.895 345.274 241.123 345.756 241.578C346.238 242.033 346.948 242.582 347.885 243.225C348.822 243.867 349.973 244.524 351.339 245.193C352.705 245.862 354.552 246.425 356.882 246.88C359.211 247.335 361.795 247.563 364.634 247.563C367.472 247.563 370.043 247.335 372.345 246.88C374.648 246.425 376.509 245.876 377.928 245.233C379.347 244.59 380.499 243.934 381.382 243.265C382.266 242.596 382.976 242.033 383.511 241.578C384.047 241.123 384.328 240.895 384.355 240.895C384.596 240.895 384.716 241.096 384.716 241.498V241.618V242.14L383.752 243.265C381.476 245.782 378.638 247.616 375.237 248.768C371.837 249.919 368.302 250.495 364.634 250.495Z" fill="black"/>
<path d="M366.642 237.24C363.911 237.24 361.032 236.718 358.006 235.674C354.981 234.63 352.37 233.21 350.174 231.416C347.978 229.622 346.72 227.761 346.399 225.833C346.399 225.807 346.399 225.699 346.399 225.512C346.399 225.325 346.385 225.164 346.358 225.03C346.466 223.584 347.122 222.459 348.327 221.656C349.933 220.612 352.089 220.09 354.793 220.09C357.872 220.09 361.005 220.692 364.192 221.897C367.378 223.102 369.989 224.642 372.024 226.516C374.059 228.391 375.077 230.185 375.077 231.898V232.179C375.077 233.143 374.809 233.973 374.273 234.67C373.738 235.366 373.028 235.888 372.145 236.236C371.261 236.584 370.364 236.839 369.453 236.999C368.543 237.16 367.606 237.24 366.642 237.24ZM351.941 223.263C349.21 223.263 347.845 223.972 347.845 225.392C347.845 226.356 348.447 227.293 349.652 228.203C350.857 229.114 352.223 229.863 353.749 230.452C355.275 231.041 356.614 231.497 357.765 231.818C358.917 232.139 359.586 232.313 359.774 232.34C359.8 231.028 359.814 229.729 359.814 228.444L359.774 224.548C359.747 224.521 359.305 224.414 358.448 224.227C357.591 224.039 356.52 223.825 355.235 223.584C353.95 223.343 352.852 223.236 351.941 223.263ZM369.373 234.107C372.211 234.107 373.631 233.398 373.631 231.979C373.631 231.577 373.497 231.149 373.229 230.693C372.961 230.238 372.452 229.689 371.703 229.047C370.953 228.404 369.788 227.761 368.208 227.119C366.629 226.476 364.674 225.833 362.344 225.191L361.661 224.99V232.822C361.742 232.822 362.251 232.943 363.188 233.184C364.125 233.425 365.169 233.639 366.321 233.826C367.472 234.014 368.489 234.107 369.373 234.107Z" fill="black"/>
<path d="M344.591 217.399L344.551 217.238C344.551 217.104 344.551 216.97 344.551 216.836V216.354L345.515 215.23C347.791 212.713 350.629 210.878 354.03 209.727C357.431 208.576 360.965 208 364.634 208C366.454 208 368.208 208.134 369.895 208.402C371.582 208.669 373.015 208.977 374.193 209.325C375.371 209.674 376.549 210.169 377.727 210.812C378.906 211.454 379.803 211.963 380.419 212.338C381.034 212.713 381.717 213.262 382.467 213.985C383.217 214.708 383.659 215.136 383.792 215.27C383.926 215.404 384.181 215.712 384.556 216.194C384.636 216.274 384.689 216.328 384.716 216.354V216.836C384.716 217.051 384.716 217.198 384.716 217.278C384.716 217.358 384.676 217.425 384.596 217.479C384.515 217.533 384.395 217.573 384.234 217.599C384.207 217.573 384.033 217.425 383.712 217.158C379.401 213.007 373.042 210.932 364.634 210.932C356.226 210.932 349.866 213.007 345.555 217.158C345.234 217.425 345.06 217.573 345.033 217.599C344.819 217.599 344.672 217.533 344.591 217.399Z" fill="black"/>
<path d="M709.87 191.066C708.623 191.066 708 190.699 708 189.966C708 189.82 708.11 189.306 708.33 188.426C708.623 187.253 708.917 186.593 709.21 186.446C709.503 186.3 710.347 186.19 711.74 186.116C713.72 186.116 715.92 186.006 718.34 185.786C719.366 185.566 720.063 185.126 720.43 184.466C720.576 184.1 723.179 173.797 728.239 153.558C733.299 133.318 735.866 123.052 735.939 122.759C735.939 122.245 735.792 121.989 735.499 121.989C734.912 121.769 732.969 121.585 729.669 121.439H726.259C725.819 120.999 725.599 120.705 725.599 120.559C725.599 120.412 725.673 119.789 725.819 118.689C726.113 117.442 726.479 116.672 726.919 116.379H786.207C786.72 116.672 786.977 117.076 786.977 117.589C786.977 117.956 786.5 122.062 785.547 129.908C784.594 137.755 784.08 141.788 784.007 142.008C783.86 142.521 783.127 142.778 781.807 142.778H780.487C779.974 142.411 779.717 141.935 779.717 141.348C779.717 141.275 779.827 140.395 780.047 138.708C780.267 137.021 780.377 135.078 780.377 132.878C780.377 130.678 780.121 128.882 779.607 127.489C779.094 126.095 778.397 124.959 777.517 124.079C776.637 123.199 775.281 122.612 773.448 122.319C771.614 122.025 769.744 121.769 767.838 121.549C765.931 121.329 763.291 121.292 759.918 121.439H757.388C751.375 121.512 748.185 121.622 747.819 121.769C747.452 121.915 747.195 122.209 747.049 122.649C746.975 122.722 745.729 127.525 743.309 137.058L739.789 151.248H745.839C746.059 151.248 746.902 151.248 748.368 151.248C749.835 151.248 750.862 151.211 751.448 151.138C752.035 151.064 752.842 150.954 753.868 150.808C754.895 150.661 755.775 150.404 756.508 150.038C757.241 149.671 757.865 149.231 758.378 148.718C759.331 147.838 760.138 146.628 760.798 145.088C761.458 143.548 761.935 142.155 762.228 140.908C762.521 139.661 762.705 139.001 762.778 138.928C762.998 138.561 763.695 138.378 764.868 138.378H766.188C766.701 138.745 766.958 139.111 766.958 139.478C766.958 139.698 765.821 144.501 763.548 153.888C761.275 163.274 760.028 168.114 759.808 168.407C759.661 168.92 758.928 169.177 757.608 169.177H756.288C755.775 168.737 755.518 168.297 755.518 167.857C755.518 167.637 755.702 166.83 756.068 165.437C756.435 164.044 756.618 162.577 756.618 161.037C756.618 158.911 755.885 157.591 754.418 157.077C752.952 156.564 749.688 156.307 744.629 156.307H738.579L735.059 170.277C732.712 179.37 731.539 184.136 731.539 184.576C731.539 185.603 734.802 186.116 741.329 186.116H744.079C744.519 186.556 744.739 186.813 744.739 186.886C744.739 186.96 744.665 187.693 744.519 189.086C744.225 190.04 743.859 190.736 743.419 191.176H741.549C738.542 191.029 733.006 190.956 724.939 190.956C720.173 190.956 716.543 190.956 714.05 190.956C711.557 190.956 710.163 190.993 709.87 191.066Z" fill="#6C63FF"/>
<path d="M777.66 90.1999C777.66 89.6133 777.844 89.1 778.21 88.66C778.577 88.22 779.127 88 779.86 88C780.374 88 780.814 88.1833 781.18 88.55C781.547 88.8433 781.914 89.54 782.28 90.6399C783.014 93.3532 784.517 95.4431 786.79 96.9097C787.597 97.423 788 98.083 788 98.8896C788 99.5496 787.89 99.9896 787.67 100.21C787.45 100.43 786.937 100.76 786.13 101.2C782.977 102.813 780.227 105.123 777.88 108.129C777.734 108.276 777.55 108.496 777.33 108.789C777.11 109.083 776.927 109.303 776.78 109.449C776.634 109.596 776.45 109.669 776.23 109.669C776.01 109.669 775.754 109.706 775.46 109.779C774.947 109.779 774.471 109.596 774.031 109.229C773.591 108.863 773.334 108.313 773.261 107.579C773.261 106.186 774.984 104.023 778.43 101.09H759.621L740.812 100.98C739.858 100.32 739.382 99.6229 739.382 98.8896C739.382 98.3763 739.858 97.643 740.812 96.6897H780.3C778.54 93.9031 777.66 91.7399 777.66 90.1999Z" fill="#6C63FF"/>
</svg>
