<svg width="972" height="41" viewBox="0 0 972 41" fill="none" xmlns="http://www.w3.org/2000/svg">
<path d="M85.9381 18.9393C85.3523 19.5251 85.3523 20.4749 85.9381 21.0607L95.4841 30.6066C96.0698 31.1924 97.0196 31.1924 97.6054 30.6066C98.1912 30.0208 98.1912 29.0711 97.6054 28.4853L89.1201 20L97.6054 11.5147C98.1912 10.9289 98.1912 9.97918 97.6054 9.3934C97.0196 8.80761 96.0698 8.80761 95.4841 9.3934L85.9381 18.9393ZM888.059 21.0607C888.645 20.4749 888.645 19.5251 888.059 18.9393L878.513 9.3934C877.928 8.80761 876.978 8.80761 876.392 9.3934C875.806 9.97918 875.806 10.9289 876.392 11.5147L884.877 20L876.392 28.4853C875.806 29.0711 875.806 30.0208 876.392 30.6066C876.978 31.1924 877.928 31.1924 878.513 30.6066L888.059 21.0607ZM86.9988 21.5H886.999V18.5H86.9988V21.5Z" fill="black"/>
<path d="M897 20.8601C897 20.8601 897 20.5988 897 20.0763C897 19.5538 897.281 19.1519 897.844 18.8705H915.871V9.82713L915.931 0.783725C916.333 0.261217 916.715 -3.73796e-05 917.076 -3.73796e-05C917.599 -3.73796e-05 918.001 0.30141 918.282 0.904303V18.8705H936.248C936.851 19.1921 937.153 19.594 937.153 20.0763C937.153 20.5586 936.851 20.9606 936.248 21.2821H918.282V39.2484C917.961 39.8111 917.599 40.0924 917.197 40.0924H917.076H916.956C916.473 40.0924 916.112 39.8111 915.871 39.2484V21.2821H897.844C897.281 21.0008 897 20.5988 897 20.0763V20.8601Z" fill="black"/>
<path d="M943.664 17.7251C943.945 16.037 945.031 14.0876 946.92 11.877C948.809 9.66639 951.14 8.54099 953.913 8.5008C955.32 8.5008 956.606 8.86253 957.772 9.58601C958.937 10.3095 959.801 11.2138 960.364 12.299C962.052 9.76687 964.082 8.5008 966.453 8.5008C967.941 8.5008 969.227 8.94292 970.312 9.82716C971.397 10.7114 971.96 11.8971 972 13.3842C972 14.5498 971.719 15.4944 971.156 16.2178C970.593 16.9413 970.051 17.3834 969.528 17.5442C969.006 17.705 968.543 17.7854 968.141 17.7854C967.378 17.7854 966.755 17.5643 966.273 17.1222C965.79 16.6801 965.549 16.0973 965.549 15.3738C965.549 13.5249 966.554 12.2588 968.564 11.5756C968.121 11.053 967.318 10.7918 966.152 10.7918C965.629 10.7918 965.248 10.832 965.006 10.9124C963.479 11.5555 962.354 12.8818 961.63 14.8915C959.219 23.7741 958.013 28.959 958.013 30.4461C958.013 31.5715 958.334 32.3754 958.977 32.8577C959.621 33.34 960.324 33.5812 961.088 33.5812C962.575 33.5812 964.042 32.918 965.489 31.5916C966.936 30.2653 967.92 28.6375 968.443 26.7082C968.564 26.3063 968.684 26.0852 968.805 26.045C968.925 26.0048 969.247 25.9646 969.769 25.9244H970.01C970.613 25.9244 970.915 26.0852 970.915 26.4067C970.915 26.4469 970.875 26.668 970.794 27.0699C970.151 29.3609 968.905 31.3907 967.056 33.1592C965.207 34.9276 963.057 35.8119 960.605 35.8119C957.792 35.8119 955.662 34.5458 954.215 32.0137C952.567 34.5056 950.678 35.7516 948.547 35.7516H948.186C946.216 35.7516 944.809 35.2291 943.965 34.1841C943.121 33.1391 942.679 32.0338 942.639 30.8682C942.639 29.582 943.021 28.537 943.785 27.7331C944.548 26.9293 945.453 26.5273 946.498 26.5273C948.226 26.5273 949.09 27.3714 949.09 29.0595C949.09 29.8633 948.849 30.5667 948.367 31.1696C947.884 31.7725 947.422 32.1744 946.98 32.3754C946.538 32.5764 946.277 32.6768 946.196 32.6768L946.015 32.7371C946.015 32.7773 946.136 32.8577 946.377 32.9783C946.618 33.0989 946.94 33.2395 947.342 33.4003C947.744 33.5611 948.125 33.6214 948.487 33.5812C949.934 33.5812 951.18 32.6768 952.225 30.8682C952.587 30.2251 953.049 28.8585 953.612 26.7685C954.174 24.6784 954.737 22.508 955.3 20.2572C955.863 18.0064 956.184 16.6801 956.264 16.2781C956.465 15.1929 956.566 14.4092 956.566 13.9268C956.566 12.8014 956.264 11.9976 955.662 11.5153C955.059 11.033 954.375 10.7918 953.612 10.7918C952.004 10.7918 950.497 11.4349 949.09 12.7211C947.683 14.0072 946.699 15.6551 946.136 17.6648C946.055 18.0265 945.955 18.2275 945.834 18.2677C945.714 18.3079 945.392 18.3481 944.87 18.3883H944.026C943.785 18.1471 943.664 17.926 943.664 17.7251Z" fill="black"/>
<path d="M0 19.3182C0 19.3182 0 19.0367 0 18.4736C0 17.9106 0.30318 17.4774 0.90954 17.1743H38.6554C39.3051 17.5208 39.6299 17.9539 39.6299 18.4736C39.6299 18.9933 39.3051 19.4265 38.6554 19.7729H0.90954C0.30318 19.4698 0 19.0367 0 18.4736V19.3182Z" fill="black"/>
<path d="M48.4654 15.94C48.7686 14.1209 49.938 12.0203 51.9736 9.63817C54.0092 7.25605 56.5213 6.04333 59.5098 6.00002C61.0257 6.00002 62.4116 6.38982 63.6677 7.16942C64.9237 7.94903 65.8549 8.92354 66.4613 10.0929C68.2803 7.36433 70.4676 6.00002 73.0229 6.00002C74.6255 6.00002 76.0114 6.47644 77.1808 7.42929C78.3502 8.38214 78.9566 9.65983 78.9999 11.2624C78.9999 12.5184 78.6967 13.5362 78.0904 14.3158C77.484 15.0954 76.8993 15.5718 76.3363 15.7451C75.7732 15.9183 75.2751 16.005 74.842 16.005C74.0191 16.005 73.3478 15.7667 72.828 15.2903C72.3083 14.8139 72.0484 14.1859 72.0484 13.4063C72.0484 11.4139 73.1312 10.0496 75.2968 9.31334C74.8204 8.75029 73.9541 8.46877 72.6981 8.46877C72.1351 8.46877 71.7236 8.51208 71.4637 8.5987C69.8179 9.29168 68.6052 10.721 67.8256 12.8865C65.2269 22.4583 63.9275 28.0455 63.9275 29.648C63.9275 30.8608 64.274 31.727 64.967 32.2467C65.66 32.7665 66.4179 33.0263 67.2409 33.0263C68.8434 33.0263 70.4243 32.3117 71.9835 30.8824C73.5427 29.4531 74.6038 27.699 75.1668 25.6201C75.2968 25.187 75.4267 24.9488 75.5567 24.9054C75.6866 24.8621 76.0331 24.8188 76.5961 24.7755H76.856C77.5057 24.7755 77.8305 24.9488 77.8305 25.2952C77.8305 25.3386 77.7872 25.5768 77.7006 26.0099C77.0076 28.4786 75.6649 30.6659 73.6726 32.5716C71.6803 34.4773 69.3631 35.4301 66.7211 35.4301C63.6893 35.4301 61.3938 34.0658 59.8346 31.3372C58.0588 34.0225 56.0232 35.3651 53.7277 35.3651H53.3379C51.2156 35.3651 49.6997 34.8021 48.7902 33.676C47.8807 32.5499 47.4042 31.3588 47.3609 30.1028C47.3609 28.7168 47.7724 27.5908 48.5953 26.7245C49.4182 25.8583 50.3927 25.4252 51.5188 25.4252C53.3812 25.4252 54.3124 26.3347 54.3124 28.1538C54.3124 29.02 54.0525 29.778 53.5328 30.4276C53.0131 31.0773 52.515 31.5104 52.0386 31.727C51.5621 31.9435 51.2806 32.0518 51.194 32.0518L50.9991 32.1168C50.9991 32.1601 51.129 32.2467 51.3889 32.3767C51.6488 32.5066 51.9953 32.6582 52.4284 32.8314C52.8615 33.0047 53.2729 33.0696 53.6627 33.0263C55.2219 33.0263 56.5646 32.0518 57.6907 30.1028C58.0805 29.4098 58.5786 27.9372 59.1849 25.685C59.7913 23.4329 60.3977 21.094 61.004 18.6686C61.6104 16.2432 61.9569 14.8139 62.0435 14.3808C62.2601 13.2114 62.3683 12.3668 62.3683 11.8471C62.3683 10.6343 62.0435 9.76811 61.3938 9.24837C60.7442 8.72864 60.0079 8.46877 59.1849 8.46877C57.4525 8.46877 55.8283 9.16175 54.3124 10.5477C52.7965 11.9337 51.7354 13.7094 51.129 15.875C51.0424 16.2648 50.9341 16.4814 50.8042 16.5247C50.6743 16.568 50.3278 16.6113 49.7647 16.6546H48.8552C48.5953 16.3948 48.4654 16.1565 48.4654 15.94Z" fill="black"/>
</svg>
