<svg width="400" height="43" viewBox="0 0 400 43" fill="none" xmlns="http://www.w3.org/2000/svg">
<path d="M0.766538 30.6164C0.255513 30.6164 0 30.4661 0 30.1655C0 30.1054 0.0450905 29.895 0.135271 29.5343C0.255513 29.0533 0.375754 28.7828 0.495995 28.7226C0.616236 28.6625 0.96193 28.6174 1.53308 28.5874C2.3447 28.5874 3.24651 28.5423 4.2385 28.4521C4.65935 28.3619 4.94492 28.1816 5.09522 27.911C5.15534 27.7607 6.22248 23.5372 8.29665 15.2406C10.3708 6.94394 11.4229 2.7355 11.453 2.61526C11.453 2.40483 11.3929 2.29962 11.2726 2.29962C11.0321 2.20944 10.2355 2.13429 8.88282 2.07417H7.48502C7.30466 1.89381 7.21448 1.77357 7.21448 1.71345C7.21448 1.65333 7.24454 1.39781 7.30466 0.94691C7.4249 0.435884 7.5752 0.120251 7.75556 9.62615e-06H32.0593C32.2697 0.120251 32.375 0.285583 32.375 0.496005C32.375 0.646306 32.1796 2.32968 31.7888 5.54614C31.398 8.76259 31.1876 10.4159 31.1575 10.5061C31.0974 10.7165 30.7968 10.8217 30.2557 10.8217H29.7146C29.5042 10.6714 29.399 10.476 29.399 10.2355C29.399 10.2055 29.4441 9.84476 29.5343 9.15338C29.6244 8.46199 29.6695 7.66539 29.6695 6.76358C29.6695 5.86177 29.5643 5.12529 29.3539 4.55415C29.1435 3.983 28.8579 3.51707 28.4972 3.15634C28.1365 2.79562 27.5803 2.55514 26.8288 2.4349C26.0773 2.31465 25.3108 2.20944 24.5292 2.11926C23.7476 2.02908 22.6655 2.01405 21.2827 2.07417H20.2456C17.7807 2.10423 16.4731 2.14932 16.3228 2.20944C16.1724 2.26956 16.0672 2.3898 16.0071 2.57017C15.9771 2.60023 15.466 4.56918 14.474 8.47702L13.0311 14.2937H15.5111C15.6013 14.2937 15.947 14.2937 16.5482 14.2937C17.1494 14.2937 17.5703 14.2787 17.8107 14.2486C18.0512 14.2185 18.3819 14.1734 18.8027 14.1133C19.2236 14.0532 19.5843 13.948 19.8849 13.7977C20.1855 13.6474 20.441 13.467 20.6514 13.2566C21.0422 12.8959 21.3729 12.3999 21.6434 11.7686C21.914 11.1374 22.1094 10.5662 22.2296 10.0552C22.3498 9.54416 22.425 9.27362 22.4551 9.24356C22.5452 9.09325 22.8308 9.0181 23.3118 9.0181H23.8529C24.0633 9.16841 24.1685 9.31871 24.1685 9.46901C24.1685 9.55919 23.7026 11.5281 22.7707 15.3759C21.8388 19.2236 21.3278 21.2076 21.2376 21.3278C21.1775 21.5382 20.8769 21.6434 20.3358 21.6434H19.7947C19.5843 21.4631 19.4791 21.2827 19.4791 21.1023C19.4791 21.0122 19.5542 20.6815 19.7045 20.1104C19.8548 19.5392 19.93 18.938 19.93 18.3067C19.93 17.435 19.6294 16.8939 19.0282 16.6835C18.427 16.4731 17.0893 16.3679 15.0151 16.3679H12.5352L11.0923 22.0943C10.1303 25.8218 9.64936 27.7757 9.64936 27.9561C9.64936 28.3769 10.987 28.5874 13.6624 28.5874H14.7897C14.97 28.7677 15.0602 28.8729 15.0602 28.903C15.0602 28.9331 15.0302 29.2337 14.97 29.8048C14.8498 30.1956 14.6995 30.4812 14.5191 30.6615H13.7526C12.5201 30.6014 10.2506 30.5713 6.94393 30.5713C4.99001 30.5713 3.50203 30.5713 2.47998 30.5713C1.45793 30.5713 0.886779 30.5864 0.766538 30.6164Z" fill="black"/>
<path d="M34.3856 18.9991L33.9712 19.1584C33.6736 19.2647 33.2486 19.371 32.696 19.4772C32.1434 19.5835 31.5271 19.6579 30.847 19.7004H30.2413V18.234H30.847C31.8459 18.1915 32.7704 18.0321 33.6205 17.7558C34.4706 17.4795 35.0657 17.2245 35.4057 16.9907C35.7458 16.7569 36.0433 16.5231 36.2983 16.2893C36.3408 16.2256 36.4684 16.1937 36.6809 16.1937C36.8722 16.1937 37.0528 16.2575 37.2228 16.385V25.9168L37.2547 35.4805C37.4035 35.6292 37.531 35.7249 37.6373 35.7674C37.7435 35.8099 37.9985 35.8524 38.4023 35.8949C38.8061 35.9374 39.465 35.9587 40.3788 35.9587H41.2077V37.4251H40.857C40.4107 37.3613 38.7211 37.3295 35.7883 37.3295C32.8979 37.3295 31.2296 37.3613 30.7833 37.4251H30.4007V35.9587H31.2296C31.6971 35.9587 32.1009 35.9587 32.441 35.9587C32.781 35.9587 33.0467 35.948 33.238 35.9268C33.4292 35.9055 33.5993 35.8737 33.748 35.8311C33.8968 35.7886 33.9818 35.7674 34.0031 35.7674C34.0243 35.7674 34.0881 35.7143 34.1943 35.608C34.3006 35.5017 34.3643 35.4592 34.3856 35.4805V18.9991Z" fill="black"/>
<path d="M44.7069 35.6933C44.8121 35.0623 45.2178 34.3335 45.924 33.5071C46.6302 32.6807 47.5016 32.26 48.5384 32.245C49.0643 32.245 49.5451 32.3802 49.9809 32.6506C50.4166 32.9211 50.7397 33.2592 50.95 33.6649C51.5811 32.7183 52.3399 32.245 53.2264 32.245C53.7824 32.245 54.2632 32.4102 54.6689 32.7408C55.0746 33.0714 55.2849 33.5146 55.2999 34.0706C55.2999 34.5063 55.1948 34.8594 54.9844 35.1299C54.774 35.4003 54.5712 35.5656 54.3759 35.6257C54.1805 35.6858 54.0077 35.7159 53.8575 35.7159C53.572 35.7159 53.3391 35.6332 53.1588 35.468C52.9785 35.3027 52.8883 35.0848 52.8883 34.8143C52.8883 34.1232 53.264 33.6499 54.0153 33.3944C53.85 33.1991 53.5495 33.1014 53.1137 33.1014C52.9184 33.1014 52.7756 33.1164 52.6855 33.1465C52.1145 33.3869 51.6938 33.8827 51.4233 34.634C50.5218 37.9547 50.071 39.893 50.071 40.4489C50.071 40.8697 50.1912 41.1702 50.4316 41.3505C50.6721 41.5308 50.935 41.6209 51.2205 41.6209C51.7764 41.6209 52.3249 41.373 52.8658 40.8772C53.4067 40.3813 53.7748 39.7728 53.9702 39.0516C54.0153 38.9013 54.0603 38.8187 54.1054 38.8036C54.1505 38.7886 54.2707 38.7736 54.466 38.7586H54.5562C54.7816 38.7586 54.8943 38.8187 54.8943 38.9389C54.8943 38.9539 54.8792 39.0365 54.8492 39.1868C54.6088 40.0433 54.143 40.802 53.4518 41.4632C52.7606 42.1243 51.9567 42.4549 51.0402 42.4549C49.9884 42.4549 49.192 41.9816 48.6511 41.0349C48.0351 41.9665 47.3289 42.4323 46.5325 42.4323H46.3973C45.661 42.4323 45.1351 42.237 44.8196 41.8463C44.504 41.4557 44.3388 41.0425 44.3237 40.6067C44.3237 40.1259 44.4665 39.7352 44.752 39.4347C45.0374 39.1342 45.3755 38.9839 45.7662 38.9839C46.4123 38.9839 46.7353 39.2995 46.7353 39.9306C46.7353 40.2311 46.6452 40.494 46.4649 40.7194C46.2846 40.9448 46.1118 41.095 45.9465 41.1702C45.7812 41.2453 45.6835 41.2829 45.6535 41.2829L45.5859 41.3054C45.5859 41.3204 45.631 41.3505 45.7211 41.3956C45.8113 41.4406 45.9315 41.4932 46.0817 41.5533C46.232 41.6134 46.3747 41.636 46.51 41.6209C47.0509 41.6209 47.5167 41.2829 47.9073 40.6067C48.0426 40.3663 48.2154 39.8554 48.4257 39.0741C48.6361 38.2928 48.8464 37.4814 49.0568 36.64C49.2672 35.7985 49.3874 35.3027 49.4174 35.1524C49.4925 34.7467 49.5301 34.4537 49.5301 34.2734C49.5301 33.8527 49.4174 33.5522 49.192 33.3719C48.9666 33.1916 48.7112 33.1014 48.4257 33.1014C47.8247 33.1014 47.2612 33.3418 46.7353 33.8226C46.2094 34.3035 45.8413 34.9195 45.631 35.6708C45.6009 35.806 45.5633 35.8812 45.5183 35.8962C45.4732 35.9112 45.353 35.9262 45.1577 35.9413H44.8421C44.752 35.8511 44.7069 35.7685 44.7069 35.6933Z" fill="black"/>
<path d="M72.8257 19.9751C72.8257 19.9751 72.8257 19.7797 72.8257 19.3889C72.8257 18.9981 73.0361 18.6975 73.457 18.4871H86.939V11.7235L86.9841 4.95996C87.2847 4.56918 87.5703 4.37378 87.8408 4.37378C88.2316 4.37378 88.5322 4.59924 88.7426 5.05014V18.4871H102.18C102.63 18.7276 102.856 19.0282 102.856 19.3889C102.856 19.7496 102.63 20.0502 102.18 20.2907H88.7426V33.7277C88.5021 34.1485 88.2316 34.3589 87.931 34.3589H87.8408H87.7506C87.3899 34.3589 87.1194 34.1485 86.939 33.7277V20.2907H73.457C73.0361 20.0803 72.8257 19.7797 72.8257 19.3889V19.9751Z" fill="black"/>
<path d="M117.569 30.6164C117.058 30.6164 116.802 30.4661 116.802 30.1655C116.802 30.1054 116.847 29.895 116.938 29.5343C117.058 29.0533 117.178 28.7828 117.298 28.7226C117.419 28.6625 117.764 28.6174 118.335 28.5874C119.147 28.5874 120.049 28.5423 121.041 28.4521C121.462 28.3619 121.747 28.1816 121.898 27.911C121.958 27.7607 123.025 23.5372 125.099 15.2406C127.173 6.94394 128.225 2.7355 128.255 2.61526C128.255 2.40483 128.195 2.29962 128.075 2.29962C127.835 2.20944 127.038 2.13429 125.685 2.07417H124.287C124.107 1.89381 124.017 1.77357 124.017 1.71345C124.017 1.65333 124.047 1.39781 124.107 0.94691C124.227 0.435884 124.378 0.120251 124.558 9.62615e-06H148.862C149.072 0.120251 149.177 0.285583 149.177 0.496005C149.177 0.646306 148.982 2.32968 148.591 5.54614C148.2 8.76259 147.99 10.4159 147.96 10.5061C147.9 10.7165 147.599 10.8217 147.058 10.8217H146.517C146.307 10.6714 146.201 10.476 146.201 10.2355C146.201 10.2055 146.246 9.84476 146.337 9.15338C146.427 8.46199 146.472 7.66539 146.472 6.76358C146.472 5.86177 146.367 5.12529 146.156 4.55415C145.946 3.983 145.66 3.51707 145.3 3.15634C144.939 2.79562 144.383 2.55514 143.631 2.4349C142.88 2.31465 142.113 2.20944 141.332 2.11926C140.55 2.02908 139.468 2.01405 138.085 2.07417H137.048C134.583 2.10423 133.275 2.14932 133.125 2.20944C132.975 2.26956 132.87 2.3898 132.809 2.57017C132.779 2.60023 132.268 4.56918 131.276 8.47702L129.834 14.2937H132.313C132.404 14.2937 132.749 14.2937 133.351 14.2937C133.952 14.2937 134.373 14.2787 134.613 14.2486C134.854 14.2185 135.184 14.1734 135.605 14.1133C136.026 14.0532 136.387 13.948 136.687 13.7977C136.988 13.6474 137.243 13.467 137.454 13.2566C137.845 12.8959 138.175 12.3999 138.446 11.7686C138.716 11.1374 138.912 10.5662 139.032 10.0552C139.152 9.54416 139.227 9.27362 139.257 9.24356C139.348 9.09325 139.633 9.0181 140.114 9.0181H140.655C140.866 9.16841 140.971 9.31871 140.971 9.46901C140.971 9.55919 140.505 11.5281 139.573 15.3759C138.641 19.2236 138.13 21.2076 138.04 21.3278C137.98 21.5382 137.679 21.6434 137.138 21.6434H136.597C136.387 21.4631 136.281 21.2827 136.281 21.1023C136.281 21.0122 136.357 20.6815 136.507 20.1104C136.657 19.5392 136.732 18.938 136.732 18.3067C136.732 17.435 136.432 16.8939 135.831 16.6835C135.229 16.4731 133.892 16.3679 131.817 16.3679H129.338L127.895 22.0943C126.933 25.8218 126.452 27.7757 126.452 27.9561C126.452 28.3769 127.789 28.5874 130.465 28.5874H131.592C131.772 28.7677 131.863 28.8729 131.863 28.903C131.863 28.9331 131.833 29.2337 131.772 29.8048C131.652 30.1956 131.502 30.4812 131.321 30.6615H130.555C129.322 30.6014 127.053 30.5713 123.746 30.5713C121.792 30.5713 120.304 30.5713 119.282 30.5713C118.26 30.5713 117.689 30.5864 117.569 30.6164Z" fill="black"/>
<path d="M147.873 23.749C147.299 23.749 146.842 23.5577 146.502 23.1752C146.162 22.7927 145.992 22.3251 145.992 21.7725C145.992 20.2636 146.555 18.9565 147.681 17.8514C148.808 16.7463 150.21 16.1937 151.889 16.1937C153.823 16.1937 155.438 16.7888 156.735 17.9789C158.031 19.1691 158.69 20.7099 158.711 22.6014C158.711 23.5152 158.499 24.3866 158.074 25.2155C157.649 26.0443 157.139 26.7669 156.544 27.3832C155.949 27.9995 155.098 28.7859 153.993 29.7423C153.228 30.4011 152.166 31.3787 150.805 32.6751L148.925 34.4604L151.347 34.4922C154.684 34.4922 156.459 34.4391 156.671 34.3328C156.82 34.2903 157.075 33.3446 157.436 31.4956V31.4H158.711V31.4956C158.69 31.5594 158.552 32.5264 158.297 34.3966C158.042 36.2668 157.883 37.2444 157.819 37.3295V37.4251H145.992V36.8194V36.4368C145.992 36.2881 146.055 36.1287 146.183 35.9587C146.31 35.7886 146.629 35.4167 147.139 34.8429C147.756 34.1628 148.287 33.5677 148.733 33.0577C148.925 32.8452 149.286 32.452 149.817 31.8782C150.348 31.3043 150.71 30.9112 150.901 30.6986C151.092 30.4861 151.4 30.1354 151.826 29.6466C152.251 29.1578 152.548 28.7965 152.718 28.5627C152.888 28.329 153.133 28.0102 153.451 27.6064C153.77 27.2026 153.993 26.8625 154.121 26.5862C154.248 26.31 154.408 26.0018 154.599 25.6618C154.79 25.3217 154.928 24.9817 155.013 24.6416C155.098 24.3016 155.173 23.9828 155.237 23.6853C155.3 23.3877 155.332 23.0371 155.332 22.6333C155.332 21.2943 154.971 20.1361 154.248 19.1584C153.526 18.1808 152.495 17.692 151.156 17.692C150.455 17.692 149.838 17.8727 149.307 18.234C148.776 18.5953 148.404 18.9459 148.191 19.286C147.979 19.626 147.873 19.8279 147.873 19.8917C147.873 19.9129 147.926 19.9235 148.032 19.9235C148.415 19.9235 148.808 20.0723 149.211 20.3698C149.615 20.6674 149.817 21.1562 149.817 21.8363C149.817 22.3676 149.647 22.8139 149.307 23.1752C148.967 23.5365 148.489 23.7278 147.873 23.749Z" fill="black"/>
<path d="M161.509 35.6933C161.614 35.0623 162.02 34.3335 162.726 33.5071C163.433 32.6807 164.304 32.26 165.341 32.245C165.867 32.245 166.348 32.3802 166.783 32.6506C167.219 32.9211 167.542 33.2592 167.752 33.6649C168.383 32.7183 169.142 32.245 170.029 32.245C170.585 32.245 171.066 32.4102 171.471 32.7408C171.877 33.0714 172.087 33.5146 172.102 34.0706C172.102 34.5063 171.997 34.8594 171.787 35.1299C171.576 35.4003 171.374 35.5656 171.178 35.6257C170.983 35.6858 170.81 35.7159 170.66 35.7159C170.374 35.7159 170.141 35.6332 169.961 35.468C169.781 35.3027 169.691 35.0848 169.691 34.8143C169.691 34.1232 170.066 33.6499 170.818 33.3944C170.652 33.1991 170.352 33.1014 169.916 33.1014C169.721 33.1014 169.578 33.1164 169.488 33.1465C168.917 33.3869 168.496 33.8827 168.226 34.634C167.324 37.9547 166.873 39.893 166.873 40.4489C166.873 40.8697 166.994 41.1702 167.234 41.3505C167.474 41.5308 167.737 41.6209 168.023 41.6209C168.579 41.6209 169.127 41.373 169.668 40.8772C170.209 40.3813 170.577 39.7728 170.773 39.0516C170.818 38.9013 170.863 38.8187 170.908 38.8036C170.953 38.7886 171.073 38.7736 171.268 38.7586H171.359C171.584 38.7586 171.697 38.8187 171.697 38.9389C171.697 38.9539 171.682 39.0365 171.652 39.1868C171.411 40.0433 170.945 40.802 170.254 41.4632C169.563 42.1243 168.759 42.4549 167.843 42.4549C166.791 42.4549 165.994 41.9816 165.453 41.0349C164.837 41.9665 164.131 42.4323 163.335 42.4323H163.2C162.463 42.4323 161.937 42.237 161.622 41.8463C161.306 41.4557 161.141 41.0425 161.126 40.6067C161.126 40.1259 161.269 39.7352 161.554 39.4347C161.84 39.1342 162.178 38.9839 162.569 38.9839C163.215 38.9839 163.538 39.2995 163.538 39.9306C163.538 40.2311 163.448 40.494 163.267 40.7194C163.087 40.9448 162.914 41.095 162.749 41.1702C162.584 41.2453 162.486 41.2829 162.456 41.2829L162.388 41.3054C162.388 41.3204 162.433 41.3505 162.523 41.3956C162.614 41.4406 162.734 41.4932 162.884 41.5533C163.034 41.6134 163.177 41.636 163.312 41.6209C163.853 41.6209 164.319 41.2829 164.71 40.6067C164.845 40.3663 165.018 39.8554 165.228 39.0741C165.438 38.2928 165.649 37.4814 165.859 36.64C166.07 35.7985 166.19 35.3027 166.22 35.1524C166.295 34.7467 166.332 34.4537 166.332 34.2734C166.332 33.8527 166.22 33.5522 165.994 33.3719C165.769 33.1916 165.514 33.1014 165.228 33.1014C164.627 33.1014 164.064 33.3418 163.538 33.8226C163.012 34.3035 162.644 34.9195 162.433 35.6708C162.403 35.806 162.366 35.8812 162.321 35.8962C162.276 35.9112 162.155 35.9262 161.96 35.9413H161.644C161.554 35.8511 161.509 35.7685 161.509 35.6933Z" fill="black"/>
<path d="M179.609 19.9751C179.609 19.9751 179.609 19.7797 179.609 19.3889C179.609 18.9981 179.819 18.6975 180.24 18.4871H193.722V11.7235L193.767 4.95996C194.068 4.56918 194.353 4.37378 194.624 4.37378C195.015 4.37378 195.315 4.59924 195.526 5.05014V18.4871H208.963C209.414 18.7276 209.639 19.0282 209.639 19.3889C209.639 19.7496 209.414 20.0502 208.963 20.2907H195.526V33.7277C195.285 34.1485 195.015 34.3589 194.714 34.3589H194.624H194.534C194.173 34.3589 193.903 34.1485 193.722 33.7277V20.2907H180.24C179.819 20.0803 179.609 19.7797 179.609 19.3889V19.9751Z" fill="black"/>
<path d="M215.681 27.9561C215.681 27.2347 215.937 26.6034 216.448 26.0623C216.959 25.5212 217.605 25.2507 218.387 25.2507C219.108 25.2507 219.739 25.4912 220.28 25.9721C220.821 26.4531 221.107 27.0994 221.137 27.911C221.137 28.6625 220.882 29.3088 220.371 29.8499C219.86 30.391 219.213 30.6615 218.432 30.6615C217.65 30.6615 217.004 30.406 216.493 29.895C215.982 29.384 215.711 28.7377 215.681 27.9561Z" fill="black"/>
<path d="M235.729 27.9561C235.729 27.2347 235.984 26.6034 236.495 26.0623C237.006 25.5212 237.652 25.2507 238.434 25.2507C239.155 25.2507 239.787 25.4912 240.328 25.9721C240.869 26.4531 241.154 27.0994 241.184 27.911C241.184 28.6625 240.929 29.3088 240.418 29.8499C239.907 30.391 239.261 30.6615 238.479 30.6615C237.697 30.6615 237.051 30.406 236.54 29.895C236.029 29.384 235.759 28.7377 235.729 27.9561Z" fill="black"/>
<path d="M255.78 27.9561C255.78 27.2347 256.036 26.6034 256.547 26.0623C257.058 25.5212 257.704 25.2507 258.486 25.2507C259.207 25.2507 259.838 25.4912 260.38 25.9721C260.921 26.4531 261.206 27.0994 261.236 27.911C261.236 28.6625 260.981 29.3088 260.47 29.8499C259.959 30.391 259.312 30.6615 258.531 30.6615C257.749 30.6615 257.103 30.406 256.592 29.895C256.081 29.384 255.81 28.7377 255.78 27.9561Z" fill="black"/>
<path d="M274.84 15.0151C274.84 14.6243 275.05 14.3237 275.471 14.1133H304.194C304.645 14.3538 304.87 14.6544 304.87 15.0151C304.87 15.3458 304.66 15.6314 304.239 15.8718L289.9 15.9169H275.561C275.08 15.7666 274.84 15.466 274.84 15.0151ZM274.84 23.7627C274.84 23.3118 275.08 23.0112 275.561 22.8609H304.239C304.66 23.1615 304.87 23.4621 304.87 23.7627C304.87 24.1535 304.645 24.4541 304.194 24.6645H275.471C275.05 24.4541 274.84 24.1535 274.84 23.7627Z" fill="black"/>
<path d="M320.864 17.7206C320.894 17.5402 320.939 17.2997 320.999 16.9991C321.059 16.6985 321.24 16.1274 321.54 15.2857C321.841 14.444 322.141 13.7376 322.442 13.1664C322.743 12.5953 323.224 12.0392 323.885 11.4981C324.546 10.957 325.207 10.7015 325.869 10.7315C326.53 10.7616 327.176 10.8668 327.808 11.0472C328.439 11.2275 328.89 11.4981 329.16 11.8588C329.431 12.2195 329.671 12.5502 329.882 12.8508C330.092 13.1514 330.213 13.437 330.243 13.7075L330.333 14.0231C330.333 14.0833 330.348 14.1133 330.378 14.1133L330.874 13.6173C332.677 11.6935 334.797 10.7315 337.232 10.7315C337.743 10.7315 338.209 10.7616 338.629 10.8217C339.05 10.8818 339.441 10.987 339.802 11.1373C340.162 11.2876 340.448 11.4379 340.658 11.5883C340.869 11.7386 341.094 11.9189 341.335 12.1293C341.575 12.3398 341.726 12.5352 341.786 12.7155C341.846 12.8959 341.966 13.0913 342.146 13.3017C342.327 13.5121 342.387 13.6925 342.327 13.8428C342.267 13.9931 342.312 14.1283 342.462 14.2486C342.612 14.3688 342.642 14.474 342.552 14.5642L342.913 14.1133C344.807 11.8588 347.046 10.7315 349.631 10.7315C351.255 10.7315 352.562 11.1373 353.554 11.949C354.546 12.7606 355.057 13.948 355.087 15.5111C355.087 17.0442 354.516 19.419 353.374 22.6354C352.232 25.8519 351.661 27.7757 351.661 28.407C351.691 28.8278 351.766 29.1134 351.886 29.2637C352.006 29.414 352.232 29.4892 352.562 29.4892C353.404 29.4892 354.186 29.0383 354.907 28.1365C355.629 27.2346 356.215 26.0022 356.666 24.439C356.756 24.1084 356.846 23.913 356.936 23.8529C357.026 23.7927 357.267 23.7627 357.658 23.7627C358.259 23.7627 358.559 23.8829 358.559 24.1234C358.559 24.1535 358.499 24.3789 358.379 24.7998C358.139 25.6715 357.808 26.5282 357.387 27.3699C356.966 28.2116 356.275 29.0533 355.313 29.895C354.351 30.7367 353.314 31.1425 352.202 31.1124C350.789 31.1124 349.767 30.7066 349.135 29.895C348.504 29.0834 348.189 28.2417 348.189 27.3699C348.189 26.7988 348.73 24.9952 349.812 21.9591C350.894 18.923 351.45 16.6384 351.48 15.1053C351.48 13.3317 350.819 12.445 349.496 12.445H349.271C346.686 12.445 344.506 13.963 342.733 16.9991L342.417 17.5402L340.929 23.5823C339.937 27.5202 339.366 29.6395 339.216 29.9401C338.825 30.7517 338.179 31.1575 337.277 31.1575C336.886 31.1575 336.57 31.0523 336.33 30.8419C336.089 30.6315 335.924 30.4511 335.834 30.3008C335.744 30.1505 335.699 30.0002 335.699 29.8499C335.699 29.5192 336.21 27.3699 337.232 23.402L338.855 16.8187C338.945 16.3678 338.99 15.7967 338.99 15.1053C338.99 13.3317 338.329 12.445 337.006 12.445H336.781C334.196 12.445 332.016 13.963 330.243 16.9991L329.927 17.5402L328.439 23.5823C327.447 27.5202 326.876 29.6395 326.726 29.9401C326.335 30.7517 325.688 31.1575 324.787 31.1575C324.396 31.1575 324.08 31.0673 323.84 30.887C323.599 30.7066 323.434 30.5262 323.344 30.3459C323.254 30.1655 323.224 30.0152 323.254 29.895C323.254 29.5042 323.825 27.0393 324.967 22.5001C326.139 17.8709 326.726 15.451 326.726 15.2406C326.816 14.7897 326.861 14.3839 326.861 14.0231C326.861 12.941 326.485 12.3999 325.734 12.3999C325.072 12.3999 324.516 12.8207 324.065 13.6624C323.614 14.5041 323.269 15.4209 323.028 16.4129C322.788 17.4049 322.607 17.946 322.487 18.0362C322.427 18.0963 322.186 18.1264 321.766 18.1264H321.134C320.954 17.946 320.864 17.8107 320.864 17.7206Z" fill="black"/>
<path d="M360.994 23.5823C360.994 20.5462 362.137 17.6605 364.421 14.925C366.706 12.1895 369.276 10.8067 372.132 10.7766C373.665 10.7766 375.018 11.5131 376.19 12.9861C376.671 12.0843 377.362 11.6334 378.264 11.6334C378.655 11.6334 379.001 11.7536 379.301 11.9941C379.602 12.2346 379.752 12.5352 379.752 12.8959C379.752 13.2867 379.196 15.6915 378.084 20.1104C376.971 24.5292 376.4 27.0242 376.37 27.5954C376.37 28.3469 376.475 28.8429 376.686 29.0834C376.896 29.3239 377.212 29.4591 377.633 29.4892C377.903 29.4591 378.204 29.3239 378.535 29.0834C379.166 28.4822 379.782 27.0393 380.383 24.7547C380.564 24.1535 380.714 23.8378 380.834 23.8078C380.894 23.7777 381.045 23.7627 381.285 23.7627H381.465C382.037 23.7627 382.322 23.898 382.322 24.1685C382.322 24.3489 382.247 24.7547 382.097 25.386C381.946 26.0172 381.646 26.8288 381.195 27.8208C380.744 28.8128 380.263 29.5643 379.752 30.0754C379.361 30.4661 378.88 30.7818 378.309 31.0223C378.069 31.0824 377.708 31.1124 377.227 31.1124C376.205 31.1124 375.348 30.887 374.657 30.4361C373.965 29.9852 373.515 29.5192 373.304 29.0383L373.034 28.3619C373.003 28.3319 372.943 28.3469 372.853 28.407C372.793 28.4671 372.733 28.5273 372.673 28.5874C370.899 30.2708 369.096 31.1124 367.262 31.1124C365.609 31.1124 364.151 30.5112 362.888 29.3088C361.626 28.1064 360.994 26.1976 360.994 23.5823ZM375.333 15.8719C375.333 15.6915 375.258 15.3608 375.108 14.8799C374.957 14.3989 374.612 13.8729 374.071 13.3017C373.53 12.7306 372.838 12.43 371.996 12.3999C370.944 12.3999 369.937 12.8658 368.975 13.7977C368.013 14.7296 367.262 15.947 366.721 17.45C365.849 19.8248 365.233 22.2897 364.872 24.8449C364.872 24.935 364.872 25.1004 364.872 25.3409C364.872 25.5813 364.857 25.7617 364.827 25.8819C364.827 27.2347 365.098 28.1665 365.639 28.6776C366.18 29.1886 366.826 29.4591 367.578 29.4892C368.72 29.4892 369.847 28.9932 370.959 28.0012C372.072 27.0092 372.733 26.2427 372.943 25.7016C373.003 25.5813 373.409 23.9731 374.161 20.8769C374.912 17.7807 375.303 16.1123 375.333 15.8719Z" fill="black"/>
<path d="M385.017 28.2121C385.166 27.3195 385.74 26.2887 386.739 25.1198C387.737 23.9509 388.97 23.3559 390.436 23.3346C391.18 23.3346 391.86 23.5259 392.477 23.9084C393.093 24.291 393.55 24.7692 393.848 25.343C394.74 24.0041 395.813 23.3346 397.067 23.3346C397.854 23.3346 398.534 23.5684 399.108 24.0359C399.681 24.5035 399.979 25.1305 400 25.9168C400 26.5331 399.851 27.0326 399.554 27.4151C399.256 27.7977 398.969 28.0314 398.693 28.1164C398.417 28.2015 398.172 28.244 397.96 28.244C397.556 28.244 397.227 28.1271 396.972 27.8933C396.717 27.6595 396.589 27.3514 396.589 26.9688C396.589 25.9912 397.12 25.3217 398.183 24.9604C397.949 24.6841 397.524 24.546 396.908 24.546C396.632 24.546 396.43 24.5673 396.302 24.6098C395.495 24.9498 394.9 25.6511 394.517 26.7138C393.242 31.4106 392.604 34.1522 392.604 34.9385C392.604 35.5336 392.774 35.9587 393.114 36.2137C393.454 36.4687 393.826 36.5963 394.23 36.5963C395.016 36.5963 395.792 36.2456 396.557 35.5442C397.322 34.8429 397.843 33.9822 398.119 32.962C398.183 32.7495 398.247 32.6326 398.311 32.6114C398.374 32.5901 398.544 32.5689 398.821 32.5476H398.948C399.267 32.5476 399.426 32.6326 399.426 32.8027C399.426 32.8239 399.405 32.9408 399.363 33.1533C399.023 34.3647 398.364 35.438 397.386 36.3731C396.408 37.3082 395.271 37.7758 393.975 37.7758C392.487 37.7758 391.361 37.1063 390.596 35.7674C389.724 37.0851 388.726 37.7439 387.599 37.7439H387.408C386.367 37.7439 385.623 37.4676 385.176 36.915C384.73 36.3625 384.496 35.778 384.475 35.1617C384.475 34.4816 384.677 33.929 385.081 33.504C385.485 33.0789 385.963 32.8664 386.515 32.8664C387.429 32.8664 387.886 33.3127 387.886 34.2053C387.886 34.6304 387.759 35.0023 387.504 35.3211C387.249 35.6399 387.004 35.8524 386.77 35.9587C386.537 36.0649 386.398 36.1181 386.356 36.1181L386.26 36.1499C386.26 36.1712 386.324 36.2137 386.452 36.2775C386.579 36.3412 386.749 36.4156 386.962 36.5006C387.174 36.5856 387.376 36.6175 387.567 36.5963C388.332 36.5963 388.991 36.1181 389.544 35.1617C389.735 34.8217 389.98 34.0991 390.277 32.9939C390.575 31.8888 390.872 30.7411 391.17 29.551C391.467 28.3609 391.637 27.6595 391.68 27.447C391.786 26.8732 391.839 26.4587 391.839 26.2037C391.839 25.6086 391.68 25.1836 391.361 24.9285C391.042 24.6735 390.681 24.546 390.277 24.546C389.427 24.546 388.63 24.886 387.886 25.5661C387.142 26.2462 386.622 27.1176 386.324 28.1802C386.282 28.3715 386.228 28.4777 386.165 28.499C386.101 28.5202 385.931 28.5415 385.655 28.5628H385.208C385.081 28.4352 385.017 28.3183 385.017 28.2121Z" fill="black"/>
</svg>
