<svg width="80" height="926" viewBox="0 0 80 926" fill="none" xmlns="http://www.w3.org/2000/svg">
<path d="M62.9381 867.061C63.5239 867.646 64.4737 867.646 65.0595 867.061L74.6054 857.515C75.1912 856.929 75.1912 855.979 74.6054 855.393C74.0196 854.808 73.0699 854.808 72.4841 855.393L63.9988 863.879L55.5135 855.393C54.9277 854.808 53.978 854.808 53.3922 855.393C52.8064 855.979 52.8064 856.929 53.3922 857.515L62.9381 867.061ZM65.0595 64.9393C64.4737 64.3536 63.5239 64.3536 62.9381 64.9393L53.3922 74.4853C52.8064 75.0711 52.8064 76.0208 53.3922 76.6066C53.978 77.1924 54.9277 77.1924 55.5135 76.6066L63.9988 68.1213L72.4841 76.6066C73.0699 77.1924 74.0196 77.1924 74.6054 76.6066C75.1912 76.0208 75.1912 75.0711 74.6054 74.4853L65.0595 64.9393ZM65.4988 866L65.4988 66H62.4988L62.4988 866H65.4988Z" fill="black"/>
<path d="M2 21.869C2 21.869 2 21.5951 2 21.0474C2 20.4996 2.29496 20.0782 2.88488 19.7832H21.7833V10.3024L21.8465 0.821626C22.2679 0.273845 22.6682 -4.48152e-05 23.0474 -4.48152e-05C23.5952 -4.48152e-05 24.0166 0.315982 24.3115 0.948036V19.7832H43.1467C43.7788 20.1203 44.0948 20.5417 44.0948 21.0474C44.0948 21.553 43.7788 21.9744 43.1467 22.3115H24.3115V41.1467C23.9744 41.7366 23.5952 42.0316 23.1738 42.0316H23.0474H22.921C22.4154 42.0316 22.0361 41.7366 21.7833 41.1467V22.3115H2.88488C2.29496 22.0165 2 21.5951 2 21.0474V21.869Z" fill="black"/>
<path d="M48.9616 18.7088C48.9616 18.1189 49.2777 17.1076 49.9097 15.6749C50.5418 14.2423 51.5531 12.7464 52.9436 11.1873C54.3341 9.62827 55.8932 8.8698 57.6208 8.91194C59.3484 8.91194 60.7389 9.39651 61.7923 10.3657C62.8458 11.3348 63.3935 12.6832 63.4357 14.4108C63.3514 15.2114 63.2882 15.6539 63.2461 15.7381C63.2461 15.8645 62.909 16.8337 62.2348 18.6456C61.5606 20.4575 60.8653 22.5011 60.149 24.7765C59.4327 27.0519 59.0956 28.8638 59.1377 30.2122C59.1377 32.0241 59.4327 33.2882 60.0226 34.0045C60.6125 34.7208 61.4974 35.1001 62.6772 35.1422C63.6464 35.1422 64.5523 34.9104 65.3951 34.4469C66.2378 33.9834 66.8909 33.4988 67.3544 32.9932C67.8179 32.4876 68.3868 31.7923 69.061 30.9074C69.061 30.8653 69.1663 30.4439 69.377 29.6433C69.5877 28.8427 69.8826 27.5997 70.2619 25.9142C70.6411 24.2287 71.0414 22.6697 71.4628 21.237C73.064 14.9165 73.9489 11.6087 74.1174 11.3137C74.6652 10.176 75.5711 9.6072 76.8352 9.6072C77.383 9.6072 77.8255 9.75468 78.1625 10.0496C78.4996 10.3446 78.7314 10.5974 78.8578 10.8081C78.9842 11.0188 79.0264 11.2084 78.9842 11.377C78.9842 11.9247 77.9519 16.3491 75.8872 24.6501C73.8224 32.9511 72.6426 37.5019 72.3476 38.3025C71.1678 41.7998 69.1242 44.5809 66.2167 46.6456C63.3093 48.7103 60.4018 49.7637 57.4944 49.8058C55.5982 49.8058 53.9338 49.3423 52.5011 48.4153C51.0685 47.4883 50.3522 46.0978 50.3522 44.2438C50.3522 43.3168 50.4996 42.5372 50.7946 41.9052C51.0896 41.2731 51.4899 40.8096 51.9955 40.5147C52.5011 40.2197 52.9225 40.009 53.2596 39.8826C53.5967 39.7562 53.9549 39.693 54.3341 39.693C56.1881 39.693 57.1151 40.5779 57.1151 42.3476C57.1151 43.1903 56.8623 43.9277 56.3567 44.5598C55.851 45.1919 55.3665 45.6132 54.903 45.8239C54.4394 46.0346 54.1656 46.1399 54.0813 46.1399L53.8917 46.2031C53.9759 46.4138 54.3762 46.6666 55.0926 46.9616C55.8089 47.2566 56.5252 47.404 57.2416 47.404H57.7472C58.4635 47.404 59.0113 47.3619 59.3905 47.2776C60.7811 46.8984 62.0662 46.0978 63.2461 44.8758C64.4259 43.6539 65.3318 42.3476 65.9639 40.9571C66.596 39.5666 67.0805 38.3867 67.4176 37.4176C67.7547 36.4484 67.9233 35.8164 67.9233 35.5214L67.544 35.7742C67.2912 35.9428 66.8909 36.1745 66.3431 36.4695C65.7954 36.7645 65.2476 37.0173 64.6998 37.228C63.8571 37.4387 63.0354 37.544 62.2348 37.544C60.2965 37.544 58.5899 37.0805 57.1151 36.1535C55.6403 35.2265 54.6712 33.7306 54.2077 31.6659C54.1656 31.3709 54.1445 30.7178 54.1445 29.7065C54.1445 27.3047 54.8819 24.1655 56.3567 20.2889C57.8315 16.4123 58.5689 13.9473 58.5689 12.8939C58.5689 12.8517 58.5689 12.8096 58.5689 12.7675C58.5689 12.3882 58.5689 12.1354 58.5689 12.009C58.5689 11.8826 58.4846 11.7351 58.316 11.5666C58.1475 11.398 57.9157 11.3137 57.6208 11.3137H57.368C56.3988 11.3137 55.5139 11.714 54.7133 12.5146C53.9127 13.3153 53.2807 14.1791 52.8172 15.1061C52.3537 16.0331 51.9955 16.918 51.7427 17.7607C51.4899 18.6034 51.3213 19.0669 51.237 19.1512C51.1528 19.2355 50.8157 19.2776 50.2258 19.2776H49.3409C49.0881 19.0248 48.9616 18.8352 48.9616 18.7088Z" fill="black"/>
<path d="M0 895.78C0 895.78 0 895.489 0 894.907C0 894.324 0.31366 893.876 0.940979 893.562H39.9916C40.6637 893.921 40.9998 894.369 40.9998 894.907C40.9998 895.444 40.6637 895.892 39.9916 896.251H0.940979C0.31366 895.937 0 895.489 0 894.907V895.78Z" fill="black"/>
<path d="M48.0571 892.42C48.0571 891.792 48.3932 890.717 49.0653 889.194C49.7374 887.67 50.8129 886.079 52.2915 884.421C53.7702 882.763 55.4281 881.957 57.2653 882.002C59.1024 882.002 60.5811 882.517 61.7013 883.548C62.8215 884.578 63.404 886.012 63.4489 887.849C63.3592 888.701 63.292 889.171 63.2472 889.261C63.2472 889.395 62.8887 890.426 62.1718 892.353C61.4549 894.279 60.7155 896.452 59.9538 898.872C59.192 901.292 58.8336 903.219 58.8784 904.652C58.8784 906.579 59.192 907.923 59.8194 908.685C60.4467 909.447 61.3877 909.85 62.6423 909.895C63.6729 909.895 64.6363 909.649 65.5324 909.156C66.4286 908.663 67.1232 908.148 67.616 907.61C68.1089 907.072 68.7139 906.333 69.4308 905.392C69.4308 905.347 69.5428 904.899 69.7669 904.048C69.9909 903.196 70.3046 901.874 70.7078 900.082C71.1111 898.29 71.5368 896.632 71.9849 895.108C73.6876 888.387 74.6286 884.869 74.8078 884.556C75.3903 883.346 76.3537 882.741 77.698 882.741C78.2805 882.741 78.751 882.898 79.1094 883.212C79.4679 883.525 79.7143 883.794 79.8488 884.018C79.9832 884.242 80.028 884.444 79.9832 884.623C79.9832 885.206 78.8854 889.91 76.6898 898.738C74.4942 907.565 73.2395 912.404 72.9259 913.256C71.6712 916.975 69.498 919.932 66.4062 922.128C63.3144 924.323 60.2226 925.444 57.1309 925.488C55.1145 925.488 53.3445 924.996 51.821 924.01C50.2976 923.024 49.5358 921.545 49.5358 919.574C49.5358 918.588 49.6926 917.759 50.0063 917.087C50.32 916.415 50.7456 915.922 51.2833 915.608C51.821 915.294 52.2691 915.07 52.6276 914.936C52.9861 914.802 53.3669 914.734 53.7702 914.734C55.7418 914.734 56.7276 915.675 56.7276 917.557C56.7276 918.453 56.4587 919.238 55.921 919.91C55.3833 920.582 54.868 921.03 54.3751 921.254C53.8822 921.478 53.591 921.59 53.5014 921.59L53.2997 921.657C53.3893 921.881 53.815 922.15 54.5768 922.464C55.3385 922.777 56.1003 922.934 56.862 922.934H57.3997C58.1614 922.934 58.744 922.89 59.1472 922.8C60.6259 922.397 61.9926 921.545 63.2472 920.246C64.5019 918.946 65.4652 917.557 66.1374 916.079C66.8095 914.6 67.3248 913.345 67.6833 912.315C68.0417 911.284 68.221 910.612 68.221 910.298L67.8177 910.567C67.5488 910.746 67.1232 910.993 66.5406 911.307C65.9581 911.62 65.3756 911.889 64.7931 912.113C63.8969 912.337 63.0232 912.449 62.1718 912.449C60.1106 912.449 58.2959 911.956 56.7276 910.97C55.1593 909.985 54.1287 908.394 53.6358 906.198C53.591 905.885 53.5686 905.19 53.5686 904.115C53.5686 901.561 54.3527 898.222 55.921 894.1C57.4893 889.978 58.2735 887.356 58.2735 886.236C58.2735 886.191 58.2735 886.147 58.2735 886.102C58.2735 885.698 58.2735 885.43 58.2735 885.295C58.2735 885.161 58.1839 885.004 58.0046 884.825C57.8254 884.645 57.5789 884.556 57.2653 884.556H56.9964C55.9658 884.556 55.0249 884.982 54.1735 885.833C53.3221 886.684 52.65 887.603 52.1571 888.589C51.6642 889.574 51.2833 890.515 51.0145 891.412C50.7456 892.308 50.5664 892.801 50.4768 892.89C50.3872 892.98 50.0287 893.025 49.4014 893.025H48.4604C48.1916 892.756 48.0571 892.554 48.0571 892.42Z" fill="black"/>
</svg>
