<svg width="400" height="48" viewBox="0 0 400 48" fill="none" xmlns="http://www.w3.org/2000/svg">
<path d="M0.775296 30.9662C0.258432 30.9662 0 30.8142 0 30.5102C0 30.4494 0.0456056 30.2365 0.136817 29.8717C0.258432 29.3852 0.380047 29.1116 0.501662 29.0508C0.623277 28.99 0.97292 28.9444 1.55059 28.914C2.37149 28.914 3.2836 28.8684 4.28693 28.7772C4.71258 28.6859 5.00142 28.5035 5.15343 28.2299C5.21424 28.0779 6.29358 23.8061 8.39143 15.4147C10.4893 7.02327 11.5534 2.76675 11.5838 2.64513C11.5838 2.4323 11.523 2.32589 11.4014 2.32589C11.1582 2.23468 10.3525 2.15867 8.98431 2.09786H7.57053C7.38811 1.91544 7.2969 1.79383 7.2969 1.73302C7.2969 1.67221 7.3273 1.41378 7.38811 0.957723C7.50973 0.440859 7.66174 0.12162 7.84417 4.97699e-06H32.4256C32.6384 0.12162 32.7448 0.288841 32.7448 0.501667C32.7448 0.653686 32.5472 2.3563 32.152 5.6095C31.7567 8.8627 31.5439 10.5349 31.5135 10.6261C31.4527 10.8389 31.1486 10.9454 30.6014 10.9454H30.0541C29.8413 10.7933 29.7349 10.5957 29.7349 10.3525C29.7349 10.3221 29.7805 9.95723 29.8717 9.25795C29.9629 8.55866 30.0085 7.75296 30.0085 6.84085C30.0085 5.92874 29.9021 5.18384 29.6893 4.60617C29.4764 4.0285 29.1876 3.55724 28.8228 3.1924C28.4579 2.82755 27.8954 2.58432 27.1353 2.46271C26.3752 2.34109 25.6 2.23468 24.8095 2.14347C24.019 2.05226 22.9244 2.03706 21.5259 2.09786H20.4769C17.9838 2.12827 16.6613 2.17387 16.5092 2.23468C16.3572 2.29549 16.2508 2.4171 16.19 2.59953C16.1596 2.62993 15.6427 4.62137 14.6394 8.57386L13.18 14.457H15.6883C15.7795 14.457 16.1292 14.457 16.7373 14.457C17.3453 14.457 17.771 14.4418 18.0142 14.4114C18.2574 14.381 18.5919 14.3354 19.0175 14.2746C19.4432 14.2138 19.808 14.1073 20.1121 13.9553C20.4161 13.8033 20.6745 13.6209 20.8874 13.4081C21.2826 13.0432 21.6171 12.5416 21.8907 11.9031C22.1643 11.2646 22.362 10.6869 22.4836 10.1701C22.6052 9.65319 22.6812 9.37956 22.7116 9.34916C22.8028 9.19714 23.0916 9.12113 23.5781 9.12113H24.1254C24.3382 9.27315 24.4446 9.42517 24.4446 9.57718C24.4446 9.6684 23.9734 11.6598 23.0308 15.5515C22.0883 19.4432 21.5715 21.4498 21.4802 21.5715C21.4194 21.7843 21.1154 21.8907 20.5681 21.8907H20.0209C19.808 21.7083 19.7016 21.5259 19.7016 21.3434C19.7016 21.2522 19.7776 20.9178 19.9297 20.3401C20.0817 19.7624 20.1577 19.1544 20.1577 18.5159C20.1577 17.6342 19.8536 17.0869 19.2456 16.8741C18.6375 16.6613 17.2845 16.5548 15.1867 16.5548H12.6784L11.219 22.3468C10.2461 26.1168 9.7596 28.0931 9.7596 28.2755C9.7596 28.7011 11.1126 28.914 13.8185 28.914H14.9586C15.1411 29.0964 15.2323 29.2028 15.2323 29.2332C15.2323 29.2636 15.2019 29.5676 15.1411 30.1453C15.0195 30.5406 14.8674 30.8294 14.685 31.0118H13.9097C12.6632 30.951 10.3677 30.9206 7.02327 30.9206C5.04702 30.9206 3.54204 30.9206 2.50831 30.9206C1.47458 30.9206 0.896911 30.9358 0.775296 30.9662Z" fill="black"/>
<path d="M34.7785 19.2161L34.3594 19.3773C34.0584 19.4848 33.6285 19.5923 33.0696 19.6998C32.5108 19.8072 31.8874 19.8825 31.1995 19.9255H30.5869V18.4423H31.1995C32.2098 18.3993 33.1449 18.2381 34.0047 17.9586C34.8645 17.6792 35.4664 17.4212 35.8103 17.1848C36.1542 16.9483 36.4552 16.7119 36.7131 16.4754C36.7561 16.411 36.8851 16.3787 37.1 16.3787C37.2935 16.3787 37.4762 16.4432 37.6482 16.5722V26.2129L37.6804 35.8858C37.8309 36.0363 37.9599 36.133 38.0673 36.176C38.1748 36.219 38.4328 36.262 38.8412 36.305C39.2496 36.348 39.9159 36.3695 40.8402 36.3695H41.6786V37.8527H41.3239C40.8725 37.7882 39.1636 37.7559 36.1972 37.7559C33.2738 37.7559 31.5865 37.7882 31.135 37.8527H30.7481V36.3695H31.5865C32.0594 36.3695 32.4678 36.3695 32.8117 36.3695C33.1556 36.3695 33.4243 36.3587 33.6178 36.3372C33.8112 36.3157 33.9832 36.2835 34.1337 36.2405C34.2841 36.1975 34.3701 36.176 34.3916 36.176C34.4131 36.176 34.4776 36.1223 34.5851 36.0148C34.6925 35.9073 34.757 35.8643 34.7785 35.8858V19.2161Z" fill="black"/>
<path d="M44.511 36.1467C44.511 35.9339 44.625 35.5692 44.8529 35.0525C45.0809 34.5358 45.4456 33.9963 45.9471 33.434C46.4486 32.8717 47.0109 32.5981 47.634 32.6133C48.2571 32.6133 48.7586 32.7881 49.1386 33.1376C49.5185 33.4872 49.7161 33.9735 49.7313 34.5966C49.7009 34.8853 49.6781 35.0449 49.6629 35.0753C49.6629 35.1209 49.5413 35.4704 49.2981 36.1239C49.055 36.7774 48.8042 37.5145 48.5459 38.3351C48.2875 39.1558 48.1659 39.8093 48.1811 40.2956C48.1811 40.9491 48.2875 41.405 48.5003 41.6633C48.713 41.9217 49.0322 42.0585 49.4577 42.0737C49.8072 42.0737 50.134 41.9901 50.4379 41.8229C50.7419 41.6557 50.9774 41.481 51.1446 41.2986C51.3118 41.1162 51.5169 40.8655 51.7601 40.5463C51.7601 40.5311 51.7981 40.3792 51.8741 40.0904C51.9501 39.8017 52.0564 39.3533 52.1932 38.7454C52.33 38.1376 52.4744 37.5753 52.6263 37.0585C53.2038 34.779 53.523 33.586 53.5838 33.4796C53.7813 33.0693 54.1081 32.8641 54.564 32.8641C54.7616 32.8641 54.9211 32.9173 55.0427 33.0237C55.1643 33.13 55.2479 33.2212 55.2935 33.2972C55.339 33.3732 55.3542 33.4416 55.339 33.5024C55.339 33.6999 54.9667 35.2957 54.222 38.2895C53.4774 41.2834 53.0519 42.9247 52.9455 43.2134C52.52 44.4748 51.7829 45.4778 50.7343 46.2225C49.6857 46.9672 48.637 47.3471 47.5884 47.3623C46.9046 47.3623 46.3043 47.1951 45.7876 46.8608C45.2709 46.5265 45.0125 46.0249 45.0125 45.3563C45.0125 45.0219 45.0657 44.7408 45.1721 44.5128C45.2784 44.2849 45.4228 44.1177 45.6052 44.0113C45.7876 43.9049 45.9395 43.8289 46.0611 43.7833C46.1827 43.7378 46.3119 43.715 46.4486 43.715C47.1173 43.715 47.4517 44.0341 47.4517 44.6724C47.4517 44.9763 47.3605 45.2423 47.1781 45.4702C46.9957 45.6982 46.821 45.8502 46.6538 45.9262C46.4866 46.0021 46.3879 46.0401 46.3575 46.0401L46.2891 46.0629C46.3195 46.1389 46.4638 46.2301 46.7222 46.3365C46.9805 46.4429 47.2389 46.4961 47.4973 46.4961H47.6796C47.938 46.4961 48.1355 46.4809 48.2723 46.4505C48.7738 46.3137 49.2373 46.0249 49.6629 45.5842C50.0884 45.1435 50.4151 44.6724 50.6431 44.1709C50.871 43.6694 51.0458 43.2438 51.1674 42.8943C51.289 42.5448 51.3498 42.3168 51.3498 42.2104L51.213 42.3016C51.1218 42.3624 50.9774 42.446 50.7799 42.5524C50.5823 42.6587 50.3847 42.7499 50.1872 42.8259C49.8832 42.9019 49.5869 42.9399 49.2981 42.9399C48.5991 42.9399 47.9836 42.7727 47.4517 42.4384C46.9198 42.104 46.5702 41.5645 46.403 40.8199C46.3879 40.7135 46.3803 40.4779 46.3803 40.1132C46.3803 39.247 46.6462 38.1148 47.1781 36.7166C47.71 35.3185 47.976 34.4294 47.976 34.0495C47.976 34.0343 47.976 34.0191 47.976 34.0039C47.976 33.8671 47.976 33.7759 47.976 33.7303C47.976 33.6847 47.9456 33.6316 47.8848 33.5708C47.824 33.51 47.7404 33.4796 47.634 33.4796H47.5428C47.1933 33.4796 46.8742 33.624 46.5854 33.9127C46.2967 34.2015 46.0687 34.513 45.9015 34.8473C45.7344 35.1817 45.6052 35.5008 45.514 35.8048C45.4228 36.1087 45.362 36.2759 45.3316 36.3063C45.3012 36.3367 45.1797 36.3519 44.9669 36.3519H44.6478C44.5566 36.2607 44.511 36.1923 44.511 36.1467Z" fill="black"/>
<path d="M71.7878 20.2033C71.7878 20.2033 71.7878 20.0057 71.7878 19.6104C71.7878 19.2152 72.0007 18.9111 72.4263 18.6983H86.0624V11.8575L86.108 5.01661C86.412 4.62137 86.7009 4.42374 86.9745 4.42374C87.3698 4.42374 87.6738 4.65177 87.8866 5.10783V18.6983H101.477C101.933 18.9415 102.161 19.2456 102.161 19.6104C102.161 19.9753 101.933 20.2793 101.477 20.5225H87.8866V34.113C87.6434 34.5387 87.3698 34.7515 87.0657 34.7515H86.9745H86.8833C86.5185 34.7515 86.2448 34.5387 86.0624 34.113V20.5225H72.4263C72.0007 20.3097 71.7878 20.0057 71.7878 19.6104V20.2033Z" fill="black"/>
<path d="M117.042 30.9662C116.525 30.9662 116.267 30.8142 116.267 30.5102C116.267 30.4494 116.312 30.2365 116.404 29.8717C116.525 29.3852 116.647 29.1116 116.769 29.0508C116.89 28.99 117.24 28.9444 117.817 28.914C118.638 28.914 119.55 28.8684 120.554 28.7772C120.979 28.6859 121.268 28.5035 121.42 28.2299C121.481 28.0779 122.56 23.8061 124.658 15.4147C126.756 7.02327 127.82 2.76675 127.851 2.64513C127.851 2.4323 127.79 2.32589 127.668 2.32589C127.425 2.23468 126.619 2.15867 125.251 2.09786H123.837C123.655 1.91544 123.564 1.79383 123.564 1.73302C123.564 1.67221 123.594 1.41378 123.655 0.957723C123.777 0.440859 123.929 0.12162 124.111 4.97699e-06H148.692C148.905 0.12162 149.012 0.288841 149.012 0.501667C149.012 0.653686 148.814 2.3563 148.419 5.6095C148.024 8.8627 147.811 10.5349 147.78 10.6261C147.72 10.8389 147.415 10.9454 146.868 10.9454H146.321C146.108 10.7933 146.002 10.5957 146.002 10.3525C146.002 10.3221 146.047 9.95723 146.139 9.25795C146.23 8.55866 146.275 7.75296 146.275 6.84085C146.275 5.92874 146.169 5.18384 145.956 4.60617C145.743 4.0285 145.454 3.55724 145.09 3.1924C144.725 2.82755 144.162 2.58432 143.402 2.46271C142.642 2.34109 141.867 2.23468 141.076 2.14347C140.286 2.05226 139.191 2.03706 137.793 2.09786H136.744C134.251 2.12827 132.928 2.17387 132.776 2.23468C132.624 2.29549 132.518 2.4171 132.457 2.59953C132.426 2.62993 131.91 4.62137 130.906 8.57386L129.447 14.457H131.955C132.046 14.457 132.396 14.457 133.004 14.457C133.612 14.457 134.038 14.4418 134.281 14.4114C134.524 14.381 134.859 14.3354 135.284 14.2746C135.71 14.2138 136.075 14.1073 136.379 13.9553C136.683 13.8033 136.941 13.6209 137.154 13.4081C137.549 13.0432 137.884 12.5416 138.158 11.9031C138.431 11.2646 138.629 10.6869 138.75 10.1701C138.872 9.65319 138.948 9.37956 138.978 9.34916C139.07 9.19714 139.358 9.12113 139.845 9.12113H140.392C140.605 9.27315 140.711 9.42517 140.711 9.57718C140.711 9.6684 140.24 11.6598 139.298 15.5515C138.355 19.4432 137.838 21.4498 137.747 21.5715C137.686 21.7843 137.382 21.8907 136.835 21.8907H136.288C136.075 21.7083 135.968 21.5259 135.968 21.3434C135.968 21.2522 136.044 20.9178 136.197 20.3401C136.349 19.7624 136.425 19.1544 136.425 18.5159C136.425 17.6342 136.12 17.0869 135.512 16.8741C134.904 16.6613 133.551 16.5548 131.454 16.5548H128.945L127.486 22.3468C126.513 26.1168 126.026 28.0931 126.026 28.2755C126.026 28.7011 127.379 28.914 130.085 28.914H131.225C131.408 29.0964 131.499 29.2028 131.499 29.2332C131.499 29.2636 131.469 29.5676 131.408 30.1453C131.286 30.5406 131.134 30.8294 130.952 31.0118H130.177C128.93 30.951 126.635 30.9206 123.29 30.9206C121.314 30.9206 119.809 30.9206 118.775 30.9206C117.741 30.9206 117.164 30.9358 117.042 30.9662Z" fill="black"/>
<path d="M147.692 24.0203C147.112 24.0203 146.649 23.8269 146.305 23.44C145.962 23.053 145.79 22.5801 145.79 22.0213C145.79 20.4951 146.359 19.1731 147.498 18.0554C148.638 16.9376 150.056 16.3787 151.755 16.3787C153.711 16.3787 155.344 16.9806 156.656 18.1843C157.967 19.3881 158.633 20.9465 158.655 22.8596C158.655 23.7839 158.44 24.6652 158.01 25.5035C157.58 26.3418 157.064 27.0727 156.462 27.6961C155.86 28.3194 155 29.1148 153.883 30.0821C153.109 30.7484 152.034 31.7372 150.658 33.0484L148.756 34.854L151.206 34.8863C154.581 34.8863 156.376 34.8326 156.591 34.7251C156.741 34.6821 156.999 33.7255 157.365 31.8554V31.7587H158.655V31.8554C158.633 31.9199 158.493 32.898 158.235 34.7896C157.977 36.6812 157.816 37.6699 157.752 37.7559V37.8527H145.79V37.24V36.8531C145.79 36.7027 145.854 36.5414 145.983 36.3695C146.112 36.1975 146.434 35.8213 146.95 35.241C147.574 34.5531 148.111 33.9512 148.562 33.4353C148.756 33.2204 149.121 32.8227 149.659 32.2423C150.196 31.662 150.562 31.2643 150.755 31.0494C150.948 30.8344 151.26 30.4797 151.69 29.9853C152.12 29.4909 152.421 29.1255 152.593 28.8891C152.765 28.6526 153.012 28.3302 153.334 27.9218C153.657 27.5134 153.883 27.1694 154.012 26.89C154.141 26.6105 154.302 26.2989 154.495 25.9549C154.689 25.611 154.828 25.2671 154.914 24.9231C155 24.5792 155.076 24.2568 155.14 23.9559C155.205 23.6549 155.237 23.3002 155.237 22.8918C155.237 21.5376 154.871 20.3661 154.141 19.3773C153.41 18.3885 152.367 17.8941 151.013 17.8941C150.304 17.8941 149.68 18.0768 149.143 18.4423C148.605 18.8077 148.229 19.1624 148.014 19.5063C147.799 19.8502 147.692 20.0544 147.692 20.1189C147.692 20.1404 147.746 20.1512 147.853 20.1512C148.24 20.1512 148.638 20.3016 149.046 20.6026C149.455 20.9035 149.659 21.3979 149.659 22.0857C149.659 22.6231 149.487 23.0745 149.143 23.44C148.799 23.8054 148.315 23.9988 147.692 24.0203Z" fill="black"/>
<path d="M160.778 36.1467C160.778 35.9339 160.892 35.5692 161.12 35.0525C161.347 34.5358 161.712 33.9963 162.214 33.434C162.715 32.8717 163.278 32.5981 163.901 32.6133C164.524 32.6133 165.025 32.7881 165.405 33.1376C165.785 33.4872 165.983 33.9735 165.998 34.5966C165.967 34.8853 165.945 35.0449 165.929 35.0753C165.929 35.1209 165.808 35.4704 165.565 36.1239C165.322 36.7774 165.071 37.5145 164.812 38.3351C164.554 39.1558 164.433 39.8093 164.448 40.2956C164.448 40.9491 164.554 41.405 164.767 41.6633C164.98 41.9217 165.299 42.0585 165.724 42.0737C166.074 42.0737 166.401 41.9901 166.705 41.8229C167.008 41.6557 167.244 41.481 167.411 41.2986C167.578 41.1162 167.784 40.8655 168.027 40.5463C168.027 40.5311 168.065 40.3792 168.141 40.0904C168.217 39.8017 168.323 39.3533 168.46 38.7454C168.597 38.1376 168.741 37.5753 168.893 37.0585C169.47 34.779 169.79 33.586 169.85 33.4796C170.048 33.0693 170.375 32.8641 170.831 32.8641C171.028 32.8641 171.188 32.9173 171.309 33.0237C171.431 33.13 171.514 33.2212 171.56 33.2972C171.606 33.3732 171.621 33.4416 171.606 33.5024C171.606 33.6999 171.233 35.2957 170.489 38.2895C169.744 41.2834 169.318 42.9247 169.212 43.2134C168.787 44.4748 168.049 45.4778 167.001 46.2225C165.952 46.9672 164.904 47.3471 163.855 47.3623C163.171 47.3623 162.571 47.1951 162.054 46.8608C161.537 46.5265 161.279 46.0249 161.279 45.3563C161.279 45.0219 161.332 44.7408 161.439 44.5128C161.545 44.2849 161.689 44.1177 161.872 44.0113C162.054 43.9049 162.206 43.8289 162.328 43.7833C162.449 43.7378 162.578 43.715 162.715 43.715C163.384 43.715 163.718 44.0341 163.718 44.6724C163.718 44.9763 163.627 45.2423 163.445 45.4702C163.262 45.6982 163.088 45.8502 162.92 45.9262C162.753 46.0021 162.654 46.0401 162.624 46.0401L162.556 46.0629C162.586 46.1389 162.73 46.2301 162.989 46.3365C163.247 46.4429 163.506 46.4961 163.764 46.4961H163.946C164.205 46.4961 164.402 46.4809 164.539 46.4505C165.04 46.3137 165.504 46.0249 165.929 45.5842C166.355 45.1435 166.682 44.6724 166.91 44.1709C167.138 43.6694 167.312 43.2438 167.434 42.8943C167.556 42.5448 167.616 42.3168 167.616 42.2104L167.48 42.3016C167.388 42.3624 167.244 42.446 167.046 42.5524C166.849 42.6587 166.651 42.7499 166.454 42.8259C166.15 42.9019 165.853 42.9399 165.565 42.9399C164.866 42.9399 164.25 42.7727 163.718 42.4384C163.186 42.104 162.837 41.5645 162.67 40.8199C162.654 40.7135 162.647 40.4779 162.647 40.1132C162.647 39.247 162.913 38.1148 163.445 36.7166C163.977 35.3185 164.243 34.4294 164.243 34.0495C164.243 34.0343 164.243 34.0191 164.243 34.0039C164.243 33.8671 164.243 33.7759 164.243 33.7303C164.243 33.6847 164.212 33.6316 164.151 33.5708C164.091 33.51 164.007 33.4796 163.901 33.4796H163.809C163.46 33.4796 163.141 33.624 162.852 33.9127C162.563 34.2015 162.335 34.513 162.168 34.8473C162.001 35.1817 161.872 35.5008 161.781 35.8048C161.689 36.1087 161.629 36.2759 161.598 36.3063C161.568 36.3367 161.446 36.3519 161.234 36.3519H160.914C160.823 36.2607 160.778 36.1923 160.778 36.1467Z" fill="black"/>
<path d="M177.921 20.2033C177.921 20.2033 177.921 20.0057 177.921 19.6104C177.921 19.2152 178.134 18.9111 178.56 18.6983H192.196V11.8575L192.241 5.01661C192.545 4.62137 192.834 4.42374 193.108 4.42374C193.503 4.42374 193.807 4.65177 194.02 5.10783V18.6983H207.61C208.066 18.9415 208.294 19.2456 208.294 19.6104C208.294 19.9753 208.066 20.2793 207.61 20.5225H194.02V34.113C193.777 34.5387 193.503 34.7515 193.199 34.7515H193.108H193.017C192.652 34.7515 192.378 34.5387 192.196 34.113V20.5225H178.56C178.134 20.3097 177.921 20.0057 177.921 19.6104V20.2033Z" fill="black"/>
<path d="M214.406 28.2755C214.406 27.5458 214.664 26.9073 215.181 26.3601C215.698 25.8128 216.352 25.5392 217.142 25.5392C217.872 25.5392 218.51 25.7824 219.058 26.2688C219.605 26.7553 219.894 27.409 219.924 28.2299C219.924 28.99 219.666 29.6437 219.149 30.1909C218.632 30.7382 217.978 31.0118 217.188 31.0118C216.397 31.0118 215.744 30.7534 215.227 30.2365C214.71 29.7197 214.436 29.066 214.406 28.2755Z" fill="black"/>
<path d="M234.682 28.2755C234.682 27.5458 234.94 26.9073 235.457 26.3601C235.974 25.8128 236.628 25.5392 237.418 25.5392C238.148 25.5392 238.786 25.7824 239.334 26.2688C239.881 26.7553 240.17 27.409 240.2 28.2299C240.2 28.99 239.942 29.6437 239.425 30.1909C238.908 30.7382 238.254 31.0118 237.464 31.0118C236.673 31.0118 236.02 30.7534 235.503 30.2365C234.986 29.7197 234.712 29.066 234.682 28.2755Z" fill="black"/>
<path d="M254.963 28.2755C254.963 27.5458 255.221 26.9073 255.738 26.3601C256.255 25.8128 256.909 25.5392 257.699 25.5392C258.429 25.5392 259.067 25.7824 259.615 26.2688C260.162 26.7553 260.451 27.409 260.481 28.2299C260.481 28.99 260.223 29.6437 259.706 30.1909C259.189 30.7382 258.535 31.0118 257.745 31.0118C256.954 31.0118 256.301 30.7534 255.784 30.2365C255.267 29.7197 254.993 29.066 254.963 28.2755Z" fill="black"/>
<path d="M274.24 15.1867C274.24 14.7914 274.453 14.4874 274.879 14.2746H303.929C304.386 14.5178 304.614 14.8218 304.614 15.1867C304.614 15.5211 304.401 15.8099 303.975 16.0532L289.473 16.0988H274.97C274.483 15.9468 274.24 15.6427 274.24 15.1867ZM274.24 24.0342C274.24 23.5781 274.483 23.2741 274.97 23.122H303.975C304.401 23.4261 304.614 23.7301 304.614 24.0342C304.614 24.4294 304.386 24.7334 303.929 24.9463H274.879C274.453 24.7334 274.24 24.4294 274.24 24.0342Z" fill="black"/>
<path d="M320.79 17.923C320.82 17.7406 320.866 17.4974 320.927 17.1933C320.988 16.8893 321.17 16.3116 321.474 15.4603C321.778 14.609 322.082 13.8945 322.386 13.3168C322.69 12.7392 323.177 12.1767 323.846 11.6294C324.514 11.0822 325.183 10.8237 325.852 10.8541C326.521 10.8845 327.175 10.991 327.813 11.1734C328.452 11.3558 328.908 11.6294 329.181 11.9943C329.455 12.3591 329.698 12.6936 329.911 12.9976C330.124 13.3016 330.246 13.5905 330.276 13.8641L330.367 14.1834C330.367 14.2442 330.382 14.2746 330.413 14.2746L330.914 13.7729C332.739 11.8271 334.882 10.8541 337.345 10.8541C337.862 10.8541 338.333 10.8845 338.759 10.9454C339.184 11.0062 339.58 11.1126 339.944 11.2646C340.309 11.4166 340.598 11.5686 340.811 11.7206C341.024 11.8727 341.252 12.0551 341.495 12.2679C341.738 12.4807 341.89 12.6784 341.951 12.8608C342.012 13.0432 342.133 13.2408 342.316 13.4537C342.498 13.6665 342.559 13.8489 342.498 14.0009C342.438 14.1529 342.483 14.2898 342.635 14.4114C342.787 14.533 342.818 14.6394 342.726 14.7306L343.091 14.2746C345.007 11.9943 347.272 10.8541 349.886 10.8541C351.528 10.8541 352.851 11.2646 353.854 12.0855C354.857 12.9064 355.374 14.1073 355.405 15.6883C355.405 17.2389 354.827 19.6408 353.672 22.894C352.516 26.1472 351.939 28.0931 351.939 28.7315C351.969 29.1572 352.045 29.446 352.167 29.5981C352.288 29.7501 352.516 29.8261 352.851 29.8261C353.702 29.8261 354.493 29.37 355.222 28.4579C355.952 27.5458 356.545 26.2992 357.001 24.7183C357.092 24.3838 357.183 24.1862 357.275 24.1254C357.366 24.0646 357.609 24.0342 358.004 24.0342C358.612 24.0342 358.916 24.1558 358.916 24.399C358.916 24.4294 358.856 24.6574 358.734 25.0831C358.491 25.9648 358.156 26.8313 357.731 27.6826C357.305 28.5339 356.606 29.3852 355.633 30.2365C354.66 31.0878 353.611 31.4983 352.486 31.4679C351.057 31.4679 350.023 31.0574 349.385 30.2365C348.746 29.4156 348.427 28.5643 348.427 27.6826C348.427 27.1049 348.974 25.2807 350.069 22.2099C351.163 19.1392 351.726 16.8285 351.756 15.2779C351.756 13.4841 351.087 12.5872 349.75 12.5872H349.522C346.907 12.5872 344.703 14.1225 342.909 17.1933L342.59 17.7406L341.085 23.8517C340.081 27.8346 339.504 29.9781 339.352 30.2821C338.956 31.103 338.303 31.5135 337.39 31.5135C336.995 31.5135 336.676 31.4071 336.433 31.1942C336.19 30.9814 336.022 30.799 335.931 30.647C335.84 30.495 335.794 30.3429 335.794 30.1909C335.794 29.8565 336.311 27.6826 337.345 23.6693L338.987 17.0109C339.078 16.5548 339.123 15.9772 339.123 15.2779C339.123 13.4841 338.455 12.5872 337.117 12.5872H336.889C334.274 12.5872 332.07 14.1225 330.276 17.1933L329.957 17.7406L328.452 23.8517C327.448 27.8346 326.871 29.9781 326.719 30.2821C326.324 31.103 325.67 31.5135 324.758 31.5135C324.362 31.5135 324.043 31.4223 323.8 31.2399C323.557 31.0574 323.39 30.875 323.298 30.6926C323.207 30.5102 323.177 30.3581 323.207 30.2365C323.207 29.8413 323.785 27.3482 324.94 22.7572C326.126 18.075 326.719 15.6275 326.719 15.4147C326.81 14.9586 326.856 14.5482 326.856 14.1834C326.856 13.0888 326.476 12.5415 325.715 12.5415C325.047 12.5415 324.484 12.9672 324.028 13.8185C323.572 14.6698 323.222 15.5971 322.979 16.6005C322.736 17.6038 322.553 18.151 322.432 18.2423C322.371 18.3031 322.128 18.3335 321.702 18.3335H321.064C320.881 18.151 320.79 18.0142 320.79 17.923Z" fill="black"/>
<path d="M361.379 23.8518C361.379 20.781 362.534 17.8622 364.845 15.0955C367.156 12.3287 369.755 10.9302 372.643 10.8998C374.194 10.8998 375.562 11.6447 376.748 13.1344C377.234 12.2223 377.934 11.7663 378.846 11.7663C379.241 11.7663 379.591 11.8879 379.895 12.1311C380.199 12.3743 380.351 12.6784 380.351 13.0432C380.351 13.4385 379.788 15.8708 378.663 20.3401C377.538 24.8095 376.961 27.333 376.93 27.9107C376.93 28.6708 377.037 29.1724 377.25 29.4156C377.462 29.6589 377.782 29.7957 378.207 29.8261C378.481 29.7957 378.785 29.6589 379.119 29.4156C379.758 28.8076 380.381 27.3482 380.989 25.0375C381.172 24.4294 381.324 24.1102 381.445 24.0798C381.506 24.0494 381.658 24.0342 381.901 24.0342H382.084C382.662 24.0342 382.95 24.171 382.95 24.4446C382.95 24.6271 382.874 25.0375 382.722 25.676C382.57 26.3145 382.266 27.1354 381.81 28.1387C381.354 29.142 380.868 29.9021 380.351 30.419C379.956 30.8142 379.469 31.1335 378.891 31.3767C378.648 31.4375 378.283 31.4679 377.797 31.4679C376.763 31.4679 375.897 31.2399 375.197 30.7838C374.498 30.3278 374.042 29.8565 373.829 29.37L373.556 28.686C373.525 28.6555 373.464 28.6708 373.373 28.7316C373.312 28.7924 373.252 28.8532 373.191 28.914C371.397 30.6166 369.573 31.4679 367.718 31.4679C366.046 31.4679 364.571 30.8598 363.294 29.6437C362.017 28.4275 361.379 26.4969 361.379 23.8518ZM375.881 16.0532C375.881 15.8708 375.805 15.5363 375.653 15.0499C375.501 14.5634 375.152 14.0313 374.605 13.4537C374.057 12.876 373.358 12.572 372.507 12.5416C371.443 12.5416 370.424 13.0128 369.451 13.9553C368.478 14.8979 367.718 16.1292 367.171 17.6494C366.289 20.0513 365.666 22.5444 365.301 25.1287C365.301 25.2199 365.301 25.3871 365.301 25.6304C365.301 25.8736 365.286 26.056 365.255 26.1776C365.255 27.5458 365.529 28.4883 366.076 29.0052C366.624 29.5221 367.277 29.7957 368.037 29.8261C369.193 29.8261 370.333 29.3244 371.458 28.3211C372.583 27.3178 373.252 26.5425 373.464 25.9952C373.525 25.8736 373.936 24.247 374.696 21.1154C375.456 17.9838 375.851 16.2964 375.881 16.0532Z" fill="black"/>
<path d="M384.676 28.5989C384.676 28.2979 384.837 27.7821 385.16 27.0512C385.482 26.3204 385.998 25.5573 386.708 24.7619C387.417 23.9666 388.212 23.5797 389.094 23.6012C389.975 23.6012 390.684 23.8484 391.222 24.3428C391.759 24.8372 392.038 25.525 392.06 26.4063C392.017 26.8148 391.985 27.0405 391.963 27.0835C391.963 27.1479 391.791 27.6423 391.447 28.5666C391.103 29.4909 390.749 30.5335 390.383 31.6942C390.018 32.855 389.846 33.7793 389.867 34.4671C389.867 35.3914 390.018 36.0363 390.319 36.4017C390.62 36.7672 391.071 36.9606 391.673 36.9821C392.167 36.9821 392.63 36.8639 393.059 36.6274C393.489 36.391 393.823 36.1438 394.059 35.8858C394.295 35.6279 394.586 35.2732 394.93 34.8218C394.93 34.8003 394.983 34.5854 395.091 34.177C395.198 33.7685 395.349 33.1344 395.542 32.2746C395.736 31.4148 395.94 30.6195 396.155 29.8886C396.972 26.6643 397.423 24.9769 397.509 24.8264C397.788 24.2461 398.251 23.9559 398.896 23.9559C399.175 23.9559 399.401 24.0311 399.573 24.1816C399.745 24.332 399.863 24.461 399.927 24.5685C399.992 24.676 400.013 24.7727 399.992 24.8587C399.992 25.1381 399.465 27.3951 398.412 31.6297C397.359 35.8643 396.757 38.1859 396.606 38.5943C396.004 40.3784 394.962 41.7971 393.479 42.8504C391.995 43.9036 390.512 44.441 389.029 44.4625C388.062 44.4625 387.213 44.2261 386.482 43.7532C385.751 43.2803 385.386 42.5709 385.386 41.6251C385.386 41.1522 385.461 40.7546 385.611 40.4321C385.762 40.1097 385.966 39.8732 386.224 39.7228C386.482 39.5723 386.697 39.4648 386.869 39.4003C387.041 39.3359 387.223 39.3036 387.417 39.3036C388.363 39.3036 388.836 39.755 388.836 40.6578C388.836 41.0877 388.707 41.4639 388.449 41.7863C388.191 42.1088 387.944 42.3237 387.707 42.4312C387.471 42.5387 387.331 42.5924 387.288 42.5924L387.191 42.6247C387.234 42.7321 387.438 42.8611 387.804 43.0116C388.169 43.162 388.535 43.2373 388.9 43.2373H389.158C389.523 43.2373 389.803 43.2158 389.996 43.1728C390.706 42.9793 391.361 42.5709 391.963 41.9476C392.565 41.3242 393.027 40.6578 393.35 39.9485C393.672 39.2391 393.919 38.6373 394.091 38.1429C394.263 37.6485 394.349 37.326 394.349 37.1756L394.156 37.3045C394.027 37.3905 393.823 37.5087 393.543 37.6592C393.264 37.8097 392.984 37.9387 392.705 38.0461C392.275 38.1536 391.856 38.2073 391.447 38.2073C390.459 38.2073 389.588 37.9709 388.836 37.498C388.083 37.0251 387.589 36.262 387.352 35.2087C387.331 35.0583 387.32 34.7251 387.32 34.2092C387.32 32.984 387.696 31.3825 388.449 29.405C389.201 27.4274 389.577 26.1699 389.577 25.6325C389.577 25.611 389.577 25.5895 389.577 25.568C389.577 25.3746 389.577 25.2456 389.577 25.1811C389.577 25.1166 389.534 25.0414 389.448 24.9554C389.362 24.8694 389.244 24.8264 389.094 24.8264H388.965C388.47 24.8264 388.019 25.0306 387.61 25.4391C387.202 25.8475 386.88 26.2881 386.643 26.761C386.407 27.2339 386.224 27.6853 386.095 28.1152C385.966 28.5451 385.88 28.7816 385.837 28.8246C385.794 28.8676 385.622 28.8891 385.321 28.8891H384.87C384.741 28.7601 384.676 28.6634 384.676 28.5989Z" fill="black"/>
</svg>
