<svg width="201" height="328" viewBox="0 0 201 328" fill="none" xmlns="http://www.w3.org/2000/svg">
<path d="M28.0656 39.3331C45.8011 13.6799 70.0292 0.853333 100.75 0.853333C115.952 0.853333 131.153 4.97051 146.355 13.2049C161.557 21.4392 173.909 36.0077 183.41 56.9103C195.128 83.197 200.987 119.301 200.987 165.224C200.987 214.313 194.178 251.843 180.56 277.813C174.226 291.115 165.516 301.724 154.431 309.642C143.347 317.56 133.687 322.469 125.453 324.369C117.218 326.269 109.142 327.378 101.225 327.694C92.9904 327.694 84.756 326.744 76.5217 324.844C68.2873 322.944 58.6278 317.876 47.543 309.642C36.4583 301.408 27.7489 290.798 21.4148 277.813C7.7964 251.843 0.987213 214.313 0.987213 165.224C0.987213 110.117 10.0133 68.1534 28.0656 39.3331ZM134.954 33.6324C125.453 23.4978 114.21 18.4305 101.225 18.4305C87.9231 18.4305 76.5217 23.4978 67.0205 33.6324C59.1028 41.8668 53.8772 53.2682 51.3435 67.8367C48.8099 82.4052 47.543 112.809 47.543 159.048C47.543 209.088 48.8099 242.025 51.3435 257.86C53.8772 273.696 59.5779 286.206 68.4456 295.39C77.3134 304.891 88.2398 309.642 101.225 309.642C113.893 309.642 124.661 304.891 133.529 295.39C142.713 285.889 148.414 272.587 150.631 255.485C152.848 238.383 154.115 206.237 154.431 159.048C154.431 113.126 153.165 82.8803 150.631 68.3118C148.097 53.7433 142.872 42.1835 134.954 33.6324Z" fill="black"/>
</svg>
