<svg width="1128" height="756" viewBox="0 0 1128 756" fill="none" xmlns="http://www.w3.org/2000/svg">
<g filter="url(#filter0_d_6_19)">
<path d="M1032.47 596.475C1033.84 595.108 1033.84 592.892 1032.47 591.525L1010.2 569.251C1008.83 567.884 1006.62 567.884 1005.25 569.251C1003.88 570.618 1003.88 572.834 1005.25 574.201L1025.05 594L1005.25 613.799C1003.88 615.166 1003.88 617.382 1005.25 618.749C1006.62 620.116 1008.83 620.116 1010.2 618.749L1032.47 596.475ZM30 597.5H1030V590.5H30V597.5Z" fill="black"/>
</g>
<g filter="url(#filter1_d_6_19)">
<path d="M532.475 91.5251C531.108 90.1583 528.892 90.1583 527.525 91.5251L505.251 113.799C503.884 115.166 503.884 117.382 505.251 118.749C506.618 120.116 508.834 120.116 510.201 118.749L530 98.9497L549.799 118.749C551.166 120.116 553.382 120.116 554.749 118.749C556.116 117.382 556.116 115.166 554.749 113.799L532.475 91.5251ZM533.5 748V94H526.5V748H533.5Z" fill="black"/>
</g>
<path d="M116 322L149.718 389.055L190.931 326.327L116 322ZM533.569 588.568L168.461 348.69L161.323 359.555L526.431 599.432L533.569 588.568Z" fill="#6C63FF"/>
<path d="M415 425.395C415 417.935 416.426 410.074 419.278 401.811C422.13 393.547 426.006 386.417 430.905 380.421C435.805 374.424 440.887 370.987 446.153 370.11C446.226 370.11 446.518 370.11 447.03 370.11C447.542 370.11 447.981 370.073 448.346 370C452.295 370.293 455.367 372.084 457.561 375.375C460.413 379.763 461.839 385.649 461.839 393.035C461.839 401.445 460.193 410.001 456.902 418.703C453.612 427.406 449.407 434.536 444.288 440.093C439.169 445.651 434.269 448.43 429.589 448.43H428.821C426.189 448.43 423.922 447.699 422.02 446.236C420.119 444.773 418.693 442.836 417.742 440.422C416.792 438.009 416.097 435.559 415.658 433.073C415.219 430.587 415 428.027 415 425.395ZM453.173 385.247C453.173 377.788 451.235 374.059 447.359 374.059C444.727 374.059 442.167 375.704 439.681 378.995C437.194 382.286 435.147 386.015 433.538 390.183C431.929 394.352 430.686 398.008 429.808 401.153C428.931 404.297 428.456 406.125 428.382 406.637C431.966 406.71 435.512 406.747 439.023 406.747L449.663 406.637C449.736 406.564 450.028 405.357 450.54 403.017C451.052 400.677 451.637 397.752 452.295 394.242C452.953 390.732 453.246 387.734 453.173 385.247ZM423.556 432.854C423.556 440.605 425.494 444.481 429.37 444.481C430.467 444.481 431.637 444.115 432.88 443.384C434.123 442.653 435.622 441.263 437.377 439.216C439.132 437.168 440.887 433.987 442.642 429.673C444.397 425.358 446.153 420.02 447.908 413.657L448.456 411.793H427.066C427.066 412.012 426.737 413.402 426.079 415.961C425.421 418.52 424.836 421.372 424.324 424.517C423.812 427.661 423.556 430.44 423.556 432.854Z" fill="black"/>
<path d="M1079.75 586.924C1080.22 583.834 1082.07 580.265 1085.29 576.218C1088.51 572.171 1092.48 570.111 1097.2 570.037C1099.59 570.037 1101.79 570.699 1103.77 572.024C1105.75 573.348 1107.23 575.004 1108.18 576.991C1111.06 572.355 1114.52 570.037 1118.55 570.037C1121.09 570.037 1123.28 570.846 1125.13 572.465C1126.97 574.084 1127.93 576.255 1128 578.977C1128 581.111 1127.52 582.841 1126.56 584.165C1125.6 585.49 1124.68 586.299 1123.79 586.593C1122.9 586.888 1122.11 587.035 1121.43 587.035C1120.13 587.035 1119.07 586.63 1118.25 585.821C1117.43 585.011 1117.01 583.944 1117.01 582.62C1117.01 579.235 1118.73 576.917 1122.15 575.666C1121.39 574.71 1120.03 574.231 1118.04 574.231C1117.15 574.231 1116.5 574.305 1116.09 574.452C1113.49 575.629 1111.57 578.058 1110.34 581.737C1106.23 597.999 1104.18 607.491 1104.18 610.214C1104.18 612.274 1104.73 613.746 1105.82 614.629C1106.92 615.512 1108.12 615.953 1109.42 615.953C1111.95 615.953 1114.45 614.739 1116.91 612.311C1119.38 609.882 1121.05 606.902 1121.94 603.37C1122.15 602.634 1122.35 602.23 1122.56 602.156C1122.76 602.083 1123.31 602.009 1124.2 601.935H1124.61C1125.64 601.935 1126.15 602.23 1126.15 602.818C1126.15 602.892 1126.08 603.297 1125.95 604.033C1124.85 608.227 1122.73 611.943 1119.58 615.18C1116.43 618.418 1112.77 620.037 1108.6 620.037C1103.8 620.037 1100.18 617.719 1097.71 613.083C1094.91 617.646 1091.69 619.927 1088.06 619.927H1087.45C1084.09 619.927 1081.7 618.97 1080.26 617.057C1078.82 615.144 1078.07 613.12 1078 610.986C1078 608.632 1078.65 606.718 1079.95 605.247C1081.25 603.775 1082.79 603.039 1084.57 603.039C1087.51 603.039 1088.99 604.584 1088.99 607.675C1088.99 609.147 1088.57 610.434 1087.75 611.538C1086.93 612.642 1086.15 613.378 1085.39 613.746C1084.64 614.114 1084.19 614.297 1084.06 614.297L1083.75 614.408C1083.75 614.481 1083.95 614.629 1084.37 614.849C1084.78 615.07 1085.32 615.328 1086.01 615.622C1086.69 615.916 1087.34 616.027 1087.96 615.953C1090.42 615.953 1092.54 614.297 1094.32 610.986C1094.94 609.809 1095.73 607.307 1096.69 603.481C1097.64 599.654 1098.6 595.681 1099.56 591.56C1100.52 587.439 1101.07 585.011 1101.2 584.275C1101.55 582.289 1101.72 580.854 1101.72 579.971C1101.72 577.91 1101.2 576.439 1100.18 575.556C1099.15 574.673 1097.99 574.231 1096.69 574.231C1093.95 574.231 1091.38 575.409 1088.99 577.763C1086.59 580.118 1084.91 583.135 1083.95 586.814C1083.82 587.476 1083.65 587.844 1083.44 587.918C1083.24 587.991 1082.69 588.065 1081.8 588.139H1080.36C1079.95 587.697 1079.75 587.292 1079.75 586.924Z" fill="black"/>
<path d="M505 17.9699C505 16.888 505.526 15.0333 506.578 12.4059C507.63 9.77854 509.314 7.03522 511.628 4.17598C513.943 1.31675 516.538 -0.0742289 519.413 0.00304774C522.289 0.00304774 524.604 0.891729 526.357 2.66909C528.111 4.44645 529.022 6.9193 529.093 10.0876C528.952 11.5559 528.847 12.3673 528.777 12.5219C528.777 12.7537 528.216 14.5311 527.094 17.8539C525.971 21.1768 524.814 24.9248 523.622 29.0977C522.429 33.2706 521.868 36.5935 521.938 39.0664C521.938 42.3893 522.429 44.7076 523.411 46.0213C524.393 47.335 525.866 48.0305 527.83 48.1077C529.443 48.1077 530.951 47.6827 532.354 46.8327C533.757 45.9826 534.844 45.094 535.615 44.1666C536.387 43.2393 537.334 41.9642 538.456 40.3414C538.456 40.2642 538.631 39.4914 538.982 38.0231C539.333 36.5549 539.824 34.2752 540.455 31.1842C541.086 28.0931 541.753 25.2339 542.454 22.6065C545.119 11.015 546.592 4.94875 546.873 4.40781C547.784 2.32135 549.292 1.27811 551.397 1.27811C552.308 1.27811 553.045 1.54858 553.606 2.08952C554.167 2.63045 554.553 3.09411 554.763 3.4805C554.974 3.86688 555.044 4.21462 554.974 4.52373C554.974 5.52833 553.255 13.6424 549.819 28.8659C546.382 44.0894 544.418 52.4352 543.927 53.9035C541.963 60.3174 538.561 65.4177 533.722 69.2043C528.882 72.9908 524.043 74.9227 519.203 75C516.047 75 513.276 74.15 510.892 72.4499C508.507 70.7498 507.315 68.1997 507.315 64.7995C507.315 63.0994 507.56 61.6698 508.051 60.5106C508.542 59.3515 509.208 58.5014 510.05 57.9605C510.892 57.4196 511.593 57.0332 512.154 56.8014C512.715 56.5695 513.311 56.4536 513.943 56.4536C517.029 56.4536 518.572 58.0764 518.572 61.322C518.572 62.8676 518.151 64.2199 517.309 65.3791C516.468 66.5382 515.661 67.311 514.89 67.6974C514.118 68.0837 513.662 68.2769 513.522 68.2769L513.206 68.3928C513.346 68.7792 514.013 69.2429 515.205 69.7838C516.398 70.3248 517.59 70.5952 518.782 70.5952H519.624C520.816 70.5952 521.728 70.518 522.359 70.3634C524.674 69.6679 526.813 68.1997 528.777 65.9586C530.741 63.7176 532.249 61.322 533.301 58.7719C534.353 56.2218 535.16 54.058 535.721 52.2807C536.282 50.5033 536.562 49.3442 536.562 48.8032L535.931 49.2669C535.51 49.576 534.844 50.001 533.932 50.542C533.02 51.0829 532.109 51.5465 531.197 51.9329C529.794 52.3193 528.426 52.5125 527.094 52.5125C523.867 52.5125 521.027 51.6625 518.572 49.9624C516.117 48.2623 514.504 45.519 513.732 41.7324C513.662 41.1915 513.627 39.9937 513.627 38.1391C513.627 33.7343 514.854 27.9772 517.309 20.8677C519.764 13.7583 520.992 9.2376 520.992 7.30569C520.992 7.22841 520.992 7.15113 520.992 7.07386C520.992 6.37837 520.992 5.91471 520.992 5.68288C520.992 5.45105 520.851 5.18058 520.571 4.87147C520.29 4.56237 519.904 4.40781 519.413 4.40781H518.993C517.379 4.40781 515.907 5.14194 514.574 6.6102C513.241 8.07845 512.189 9.66262 511.418 11.3627C510.646 13.0628 510.05 14.6856 509.629 16.2311C509.208 17.7767 508.928 18.6267 508.787 18.7813C508.647 18.9358 508.086 19.0131 507.104 19.0131H505.631C505.21 18.5494 505 18.2017 505 17.9699Z" fill="black"/>
<path d="M19.3604 336.719C19.3604 338.509 21.0763 339.554 24.5082 339.852C25.8511 339.852 26.5226 340.262 26.5226 341.083C26.5226 341.158 26.448 341.643 26.2988 342.538C26.0749 343.582 25.8511 344.254 25.6273 344.552C25.4035 344.851 24.9185 345 24.1725 345C24.0233 345 23.5756 345 22.8296 345C22.0835 345 20.8152 344.963 19.0246 344.888C17.2341 344.813 14.8467 344.776 11.8624 344.776C6.56537 344.776 3.17077 344.851 1.67864 345H0.783368C0.261123 344.478 0 344.067 0 343.769C0.149213 341.755 0.634155 340.449 1.45483 339.852H3.02156C8.24401 339.628 12.0489 337.763 14.4363 334.257C14.884 333.809 21.6359 322.432 34.692 300.124C47.7481 277.817 54.3881 266.514 54.6119 266.216C55.1342 265.32 56.0294 264.873 57.2977 264.873H58.193H60.0955C60.5431 265.544 60.7669 265.917 60.7669 265.992L63.9004 302.139C65.9894 326.236 67.1085 338.397 67.2577 338.621C67.6307 339.442 70.0554 339.852 74.5318 339.852C76.397 339.852 77.3296 340.225 77.3296 340.971C77.3296 341.12 77.2177 341.643 76.9938 342.538C76.77 343.657 76.5835 344.329 76.4343 344.552C76.2851 344.776 75.7628 344.925 74.8676 345C74.6437 345 74.1215 345 73.3008 345C72.4802 345 71.0253 344.963 68.9363 344.888C66.8474 344.813 64.1242 344.776 60.7669 344.776C53.7539 344.776 49.1656 344.851 47.0021 345H45.6591C45.2115 344.552 44.9877 344.217 44.9877 343.993C44.9877 343.769 45.0623 343.098 45.2115 341.978C45.5099 341.009 45.7337 340.412 45.883 340.188L46.3306 339.852H48.5688C52.5975 339.628 54.9849 338.994 55.731 337.95L54.3881 321.163H27.7536L23.9487 327.654C20.8898 332.802 19.3604 335.823 19.3604 336.719ZM53.8285 315.903C53.8285 315.083 53.3809 309.264 52.4856 298.446C51.5903 287.628 51.0681 282.181 50.9189 282.107L47.8973 286.919C46.7036 288.933 44.3535 292.925 40.847 298.893L30.7752 315.903L42.3018 316.015C49.9863 316.015 53.8285 315.978 53.8285 315.903Z" fill="black"/>
<path d="M67.8172 238.238C67.8172 237.641 68.0038 237.119 68.3768 236.671C68.7498 236.224 69.3094 236 70.0554 236C70.5777 236 71.0253 236.187 71.3984 236.56C71.7714 236.858 72.1444 237.567 72.5175 238.686C73.2635 241.446 74.7929 243.573 77.1057 245.065C77.9264 245.587 78.3368 246.258 78.3368 247.079C78.3368 247.751 78.2248 248.198 78.001 248.422C77.7772 248.646 77.255 248.982 76.4343 249.429C73.2262 251.071 70.4285 253.421 68.0411 256.479C67.8919 256.629 67.7053 256.852 67.4815 257.151C67.2577 257.449 67.0712 257.673 66.922 257.822C66.7728 257.972 66.5862 258.046 66.3624 258.046C66.1386 258.046 65.8775 258.084 65.5791 258.158C65.0568 258.158 64.5719 257.972 64.1242 257.599C63.6766 257.226 63.4155 256.666 63.3409 255.92C63.3409 254.502 65.0941 252.302 68.6006 249.317H49.4641L30.3275 249.205C29.3576 248.534 28.8727 247.825 28.8727 247.079C28.8727 246.557 29.3576 245.811 30.3275 244.841H70.5031C68.7125 242.006 67.8172 239.805 67.8172 238.238Z" fill="black"/>
<defs>
<filter id="filter0_d_6_19" x="26" y="568.226" width="1011.5" height="59.5477" filterUnits="userSpaceOnUse" color-interpolation-filters="sRGB">
<feFlood flood-opacity="0" result="BackgroundImageFix"/>
<feColorMatrix in="SourceAlpha" type="matrix" values="0 0 0 0 0 0 0 0 0 0 0 0 0 0 0 0 0 0 127 0" result="hardAlpha"/>
<feOffset dy="4"/>
<feGaussianBlur stdDeviation="2"/>
<feComposite in2="hardAlpha" operator="out"/>
<feColorMatrix type="matrix" values="0 0 0 0 0 0 0 0 0 0 0 0 0 0 0 0 0 0 0.25 0"/>
<feBlend mode="normal" in2="BackgroundImageFix" result="effect1_dropShadow_6_19"/>
<feBlend mode="normal" in="SourceGraphic" in2="effect1_dropShadow_6_19" result="shape"/>
</filter>
<filter id="filter1_d_6_19" x="500.226" y="90.5" width="59.5477" height="665.5" filterUnits="userSpaceOnUse" color-interpolation-filters="sRGB">
<feFlood flood-opacity="0" result="BackgroundImageFix"/>
<feColorMatrix in="SourceAlpha" type="matrix" values="0 0 0 0 0 0 0 0 0 0 0 0 0 0 0 0 0 0 127 0" result="hardAlpha"/>
<feOffset dy="4"/>
<feGaussianBlur stdDeviation="2"/>
<feComposite in2="hardAlpha" operator="out"/>
<feColorMatrix type="matrix" values="0 0 0 0 0 0 0 0 0 0 0 0 0 0 0 0 0 0 0.25 0"/>
<feBlend mode="normal" in2="BackgroundImageFix" result="effect1_dropShadow_6_19"/>
<feBlend mode="normal" in="SourceGraphic" in2="effect1_dropShadow_6_19" result="shape"/>
</filter>
</defs>
</svg>
