<svg width="1080" height="1077" viewBox="0 0 1080 1077" fill="none" xmlns="http://www.w3.org/2000/svg">
<path d="M1002.12 584.121C1003.29 582.95 1003.29 581.05 1002.12 579.879L983.029 560.787C981.858 559.615 979.958 559.615 978.787 560.787C977.615 561.958 977.615 563.858 978.787 565.029L995.757 582L978.787 598.971C977.615 600.142 977.615 602.042 978.787 603.213C979.958 604.385 981.858 604.385 983.029 603.213L1002.12 584.121ZM0 585H1000V579H0V585Z" fill="black"/>
<path d="M502.121 79.8787C500.95 78.7071 499.05 78.7071 497.879 79.8787L478.787 98.9706C477.615 100.142 477.615 102.042 478.787 103.213C479.958 104.385 481.858 104.385 483.029 103.213L500 86.2426L516.971 103.213C518.142 104.385 520.042 104.385 521.213 103.213C522.385 102.042 522.385 100.142 521.213 98.9706L502.121 79.8787ZM503 1077L503 82H497L497 1077H503Z" fill="black"/>
<path d="M125 582L185 616.641L185 547.359L125 582ZM500 576L179 576L179 588L500 588L500 576Z" fill="#6C63FF"/>
<path d="M500 173L534.641 233H465.359L500 173ZM494 583V227H506V583H494Z" fill="#20861E"/>
<path d="M391.122 818.467C390.374 818.467 390 818.246 390 817.807C390 817.719 390.066 817.411 390.198 816.883C390.374 816.179 390.551 815.783 390.726 815.695C390.902 815.607 391.408 815.54 392.245 815.497C393.433 815.497 394.753 815.43 396.204 815.299C396.821 815.166 397.239 814.903 397.458 814.507C397.547 814.286 399.109 808.104 402.145 795.959C405.182 783.814 406.721 777.654 406.766 777.477C406.766 777.17 406.678 777.015 406.501 777.015C406.15 776.883 404.983 776.773 403.003 776.685H400.957C400.693 776.421 400.56 776.246 400.56 776.158C400.56 776.07 400.605 775.695 400.693 775.035C400.868 774.287 401.089 773.825 401.353 773.648H436.929C437.237 773.825 437.392 774.068 437.392 774.375C437.392 774.595 437.106 777.06 436.533 781.767C435.962 786.477 435.654 788.896 435.61 789.028C435.521 789.336 435.082 789.49 434.29 789.49H433.498C433.19 789.271 433.035 788.985 433.035 788.632C433.035 788.589 433.102 788.06 433.233 787.048C433.365 786.036 433.431 784.869 433.431 783.55C433.431 782.23 433.278 781.152 432.97 780.316C432.661 779.479 432.243 778.797 431.716 778.27C431.188 777.742 430.373 777.389 429.273 777.213C428.173 777.038 427.051 776.883 425.906 776.752C424.763 776.619 423.179 776.597 421.155 776.685H419.636C416.028 776.729 414.114 776.795 413.895 776.883C413.674 776.971 413.52 777.148 413.432 777.411C413.387 777.456 412.64 780.338 411.187 786.058L409.076 794.573H412.706C412.838 794.573 413.344 794.573 414.224 794.573C415.104 794.573 415.72 794.551 416.072 794.506C416.424 794.463 416.908 794.396 417.524 794.308C418.14 794.221 418.669 794.067 419.108 793.847C419.548 793.627 419.922 793.363 420.23 793.055C420.802 792.526 421.287 791.8 421.683 790.877C422.079 789.953 422.365 789.116 422.541 788.369C422.716 787.62 422.826 787.224 422.871 787.181C423.002 786.96 423.42 786.85 424.124 786.85H424.916C425.225 787.071 425.379 787.291 425.379 787.51C425.379 787.642 424.696 790.524 423.333 796.157C421.969 801.79 421.22 804.694 421.089 804.87C421 805.178 420.561 805.331 419.769 805.331H418.977C418.669 805.068 418.514 804.804 418.514 804.539C418.514 804.408 418.624 803.923 418.844 803.088C419.065 802.251 419.175 801.371 419.175 800.447C419.175 799.171 418.734 798.379 417.854 798.071C416.975 797.763 415.016 797.61 411.979 797.61H408.35L406.237 805.992C404.829 811.448 404.125 814.309 404.125 814.572C404.125 815.189 406.083 815.497 409.999 815.497H411.65C411.914 815.76 412.046 815.915 412.046 815.958C412.046 816.003 412.001 816.442 411.914 817.279C411.738 817.85 411.518 818.269 411.254 818.532H410.132C408.327 818.444 405.005 818.401 400.164 818.401C397.305 818.401 395.127 818.401 393.631 818.401C392.134 818.401 391.298 818.423 391.122 818.467Z" fill="#D46FA0"/>
<path d="M431.801 757.939C431.801 757.588 431.911 757.28 432.131 757.016C432.352 756.751 432.681 756.62 433.121 756.62C433.43 756.62 433.693 756.73 433.913 756.949C434.134 757.126 434.354 757.543 434.573 758.204C435.013 759.831 435.916 761.086 437.279 761.966C437.763 762.274 438.006 762.67 438.006 763.154C438.006 763.551 437.94 763.814 437.808 763.947C437.675 764.078 437.367 764.276 436.883 764.541C434.991 765.509 433.342 766.894 431.933 768.699C431.846 768.787 431.735 768.919 431.603 769.095C431.471 769.27 431.362 769.403 431.273 769.491C431.185 769.578 431.075 769.623 430.944 769.623C430.811 769.623 430.658 769.645 430.481 769.689C430.173 769.689 429.887 769.578 429.623 769.358C429.36 769.139 429.205 768.809 429.162 768.368C429.162 767.533 430.195 766.235 432.264 764.474H420.976L409.69 764.408C409.118 764.012 408.831 763.594 408.831 763.154C408.831 762.847 409.118 762.406 409.69 761.835H433.385C432.329 760.162 431.801 758.864 431.801 757.939Z" fill="#D46FA0"/>
<path d="M454.433 826.426C453.966 826.832 453.281 827.267 452.379 827.734C451.477 828.2 450.528 828.434 449.532 828.434C447.573 828.434 446.002 827.734 444.819 826.334C443.638 824.933 443.031 823.145 443 820.967C443 817.701 444.198 814.698 446.593 811.961C448.989 809.223 451.648 807.838 454.573 807.808C456.035 807.808 457.388 808.554 458.633 810.047L458.773 809.86C458.836 809.768 458.913 809.674 459.006 809.581C459.1 809.487 459.24 809.362 459.426 809.208C459.613 809.052 459.815 808.943 460.033 808.881C460.25 808.818 460.5 808.772 460.779 808.741C461.215 808.741 461.573 808.881 461.853 809.16C462.133 809.441 462.289 809.737 462.32 810.047C462.32 810.514 461.433 814.278 459.659 821.34C457.886 828.402 456.953 832.012 456.859 832.166C456.299 833.847 455.102 835.232 453.266 836.319C451.431 837.409 449.33 837.969 446.966 838C442.58 838 440.387 836.942 440.387 834.826C440.387 834.018 440.666 833.303 441.226 832.68C441.786 832.058 442.503 831.747 443.373 831.747C443.84 831.747 444.275 831.887 444.679 832.166C445.084 832.447 445.302 832.929 445.333 833.614C445.333 833.924 445.302 834.22 445.24 834.501C445.177 834.78 445.069 834.998 444.913 835.153C444.758 835.309 444.633 835.465 444.54 835.62C444.446 835.776 444.338 835.9 444.213 835.994L444.119 836.086H444.167C444.477 836.18 445.411 836.227 446.966 836.227C448.149 836.227 449.082 836.04 449.766 835.667C450.482 835.324 451.151 834.811 451.773 834.126C452.396 833.443 452.831 832.712 453.079 831.933C453.266 831.342 453.515 830.377 453.827 829.04C454.231 827.547 454.433 826.676 454.433 826.426ZM457.84 813.127L457.653 812.613C457.559 812.272 457.482 812.038 457.42 811.914C457.357 811.789 457.264 811.572 457.14 811.261C457.015 810.949 456.859 810.732 456.674 810.607C456.486 810.483 456.284 810.312 456.066 810.093C455.849 809.876 455.568 809.737 455.226 809.674C454.885 809.612 454.541 809.564 454.2 809.534C452.831 809.534 451.509 810.358 450.234 812.007C449.299 813.221 448.522 815.071 447.899 817.56C447.278 820.049 446.966 821.854 446.966 822.973C446.966 825.431 447.931 826.66 449.859 826.66C451.602 826.66 453.313 825.572 454.993 823.394L455.366 822.927L457.84 813.127Z" fill="#D46FA0"/>
<path d="M635.278 506.476C634.427 506.476 634 506.226 634 505.725C634 505.625 634.076 505.273 634.225 504.672C634.427 503.869 634.627 503.417 634.828 503.318C635.028 503.217 635.604 503.142 636.557 503.091C637.911 503.091 639.416 503.017 641.07 502.866C641.773 502.717 642.248 502.415 642.5 501.964C642.599 501.714 644.38 494.668 647.84 480.828C651.299 466.988 653.055 459.968 653.105 459.768C653.105 459.417 653.004 459.242 652.804 459.242C652.403 459.091 651.074 458.965 648.818 458.866H646.486C646.185 458.565 646.034 458.364 646.034 458.263C646.034 458.164 646.085 457.737 646.185 456.985C646.385 456.133 646.636 455.606 646.937 455.406H687.478C687.829 455.606 688.005 455.883 688.005 456.234C688.005 456.484 687.678 459.291 687.026 464.657C686.374 470.022 686.023 472.78 685.974 472.931C685.874 473.282 685.371 473.457 684.469 473.457H683.567C683.216 473.207 683.04 472.881 683.04 472.48C683.04 472.429 683.115 471.828 683.266 470.674C683.416 469.521 683.492 468.192 683.492 466.688C683.492 465.184 683.317 463.954 682.966 463.002C682.615 462.049 682.138 461.272 681.536 460.67C680.935 460.069 680.006 459.667 678.753 459.467C677.5 459.266 676.221 459.091 674.918 458.94C673.614 458.79 671.808 458.765 669.502 458.866H667.772C663.659 458.915 661.479 458.99 661.228 459.091C660.977 459.192 660.802 459.392 660.701 459.693C660.651 459.743 659.799 463.027 658.144 469.546L655.737 479.249H659.875C660.024 479.249 660.601 479.249 661.603 479.249C662.606 479.249 663.308 479.224 663.71 479.174C664.111 479.123 664.662 479.048 665.364 478.948C666.067 478.848 666.668 478.672 667.17 478.421C667.671 478.171 668.098 477.87 668.449 477.519C669.1 476.918 669.651 476.09 670.103 475.036C670.555 473.983 670.881 473.031 671.081 472.179C671.282 471.326 671.407 470.875 671.457 470.825C671.608 470.574 672.084 470.449 672.887 470.449H673.789C674.14 470.699 674.315 470.949 674.315 471.201C674.315 471.351 673.538 474.635 671.983 481.054C670.429 487.472 669.577 490.781 669.426 490.983C669.326 491.334 668.825 491.509 667.923 491.509H667.019C666.668 491.208 666.493 490.907 666.493 490.607C666.493 490.456 666.618 489.904 666.869 488.952C667.12 487.999 667.246 486.997 667.246 485.943C667.246 484.489 666.744 483.587 665.741 483.235C664.738 482.884 662.507 482.708 659.047 482.708H654.909L652.503 492.261C650.898 498.479 650.096 501.738 650.096 502.04C650.096 502.74 652.327 503.091 656.79 503.091H658.67C658.971 503.392 659.122 503.568 659.122 503.619C659.122 503.669 659.072 504.17 658.971 505.122C658.771 505.774 658.521 506.251 658.22 506.552H656.94C654.885 506.451 651.099 506.401 645.583 506.401C642.324 506.401 639.842 506.401 638.137 506.401C636.432 506.401 635.48 506.426 635.278 506.476Z" fill="#EF224B"/>
<path d="M686.307 526.449C686.377 526.449 686.484 526.485 686.626 526.555C686.768 526.626 686.963 526.679 687.21 526.715C687.459 526.75 687.671 526.768 687.849 526.768C688.31 526.768 688.735 526.538 689.125 526.077C689.515 525.616 689.799 525.102 689.976 524.535C690.33 523.577 690.933 520.865 691.783 516.399C692.635 511.932 693.45 507.678 694.23 503.636C695.009 499.594 695.4 497.556 695.4 497.521V497.36H692.9C691.235 497.36 690.349 497.326 690.241 497.254C690.1 497.148 690.029 496.971 690.029 496.723L690.402 495.234C690.472 495.057 690.614 494.968 690.827 494.968C691.039 494.968 691.872 494.951 693.326 494.915C695.028 494.915 695.878 494.898 695.878 494.862C695.878 494.79 696.037 493.904 696.357 492.203C696.676 490.501 696.889 489.473 696.995 489.119C698.307 483.269 700.895 480.345 704.758 480.345C706.071 480.415 707.152 480.804 708.003 481.515C708.853 482.223 709.279 483.163 709.279 484.332C709.279 485.608 708.906 486.53 708.162 487.097C707.417 487.666 706.673 487.966 705.93 488.002C704.369 488.002 703.589 487.258 703.589 485.768C703.589 485.094 703.785 484.51 704.174 484.013C704.564 483.518 704.989 483.145 705.45 482.896L705.93 482.631C705.361 482.418 704.83 482.312 704.333 482.312C703.908 482.312 703.5 482.49 703.11 482.843C702.721 483.198 702.455 483.694 702.313 484.332C702.065 485.36 701.782 486.744 701.462 488.48C701.143 490.217 700.86 491.689 700.612 492.895C700.363 494.099 700.24 494.737 700.24 494.809C700.24 494.879 701.213 494.915 703.163 494.915C704.758 494.915 705.681 494.932 705.93 494.968C706.177 495.004 706.372 495.11 706.514 495.287C706.55 495.429 706.514 495.73 706.408 496.191C706.302 496.652 706.213 496.935 706.142 497.042C706.071 497.219 705.911 497.307 705.663 497.307C705.416 497.307 704.458 497.326 702.791 497.36H699.813L698.59 503.848C696.889 512.641 695.701 518.136 695.028 520.334C694.07 523.346 692.83 525.58 691.305 527.034C689.994 528.168 688.699 528.735 687.424 528.735C686.288 528.735 685.26 528.399 684.339 527.725C683.417 527.052 682.956 526.094 682.956 524.854C682.956 523.542 683.329 522.584 684.073 521.982C684.818 521.379 685.562 521.078 686.307 521.078C687.866 521.078 688.646 521.823 688.646 523.312C688.646 523.985 688.452 524.57 688.061 525.066C687.671 525.563 687.246 525.935 686.785 526.183L686.307 526.449Z" fill="#EF224B"/>
<path d="M710.638 501.486C710.638 501.235 710.688 500.947 710.788 500.621C710.888 500.295 711.039 500.132 711.239 500.132C711.265 500.132 712.167 500.07 713.946 499.945C715.725 499.819 716.641 499.744 716.691 499.719C716.992 499.719 717.141 499.819 717.141 500.019C717.141 500.195 716.515 502.815 715.261 507.878C714.008 512.841 713.382 515.409 713.382 515.584C713.858 515.334 714.221 515.095 714.472 514.87C715.075 514.418 715.938 513.63 717.067 512.501C718.195 511.374 719.072 510.61 719.698 510.208C720.701 509.531 721.654 509.193 722.556 509.193C723.308 509.193 723.896 509.432 724.323 509.908C724.748 510.383 724.975 511.06 725 511.937C725 512.564 724.911 513.091 724.736 513.516C724.56 513.943 724.323 514.255 724.022 514.457C723.722 514.657 723.458 514.795 723.233 514.87C723.006 514.946 722.781 514.983 722.556 514.983C722.055 514.983 721.654 514.845 721.353 514.569C721.052 514.294 720.901 513.931 720.901 513.479C720.901 512.853 721.102 512.339 721.503 511.937C721.904 511.537 722.305 511.273 722.705 511.149L723.308 511.035C723.006 510.734 722.705 510.585 722.405 510.585H722.255C721.452 510.66 720.664 510.973 719.886 511.524C719.11 512.076 718.195 512.878 717.141 513.931C716.089 514.983 715.261 515.747 714.66 516.224C714.71 516.249 714.898 516.286 715.224 516.337C715.55 516.387 715.851 516.461 716.127 516.562C716.402 516.663 716.728 516.762 717.104 516.863C717.48 516.963 717.818 517.138 718.119 517.389C718.42 517.64 718.695 517.866 718.947 518.066C719.197 518.267 719.411 518.593 719.586 519.043C719.76 519.495 719.836 519.908 719.811 520.285C719.811 520.71 719.749 521.224 719.623 521.825C719.498 522.427 719.423 522.929 719.397 523.329C719.397 524.332 719.737 524.833 720.412 524.833C721.615 524.833 722.593 523.342 723.345 520.359C723.396 520.159 723.646 520.058 724.096 520.058H724.248C724.649 520.058 724.849 520.171 724.849 520.397C724.849 520.522 724.812 520.698 724.736 520.923C723.708 524.458 722.23 526.224 720.3 526.224C719.172 526.224 718.257 525.899 717.556 525.247C716.854 524.596 716.503 523.655 716.503 522.427C716.503 521.976 716.54 521.587 716.615 521.261C716.691 520.935 716.728 520.634 716.728 520.359C716.728 519.808 716.553 519.332 716.202 518.931C715.851 518.529 715.412 518.242 714.887 518.066C714.359 517.891 713.934 517.753 713.608 517.652C713.282 517.552 713.057 517.515 712.931 517.54H712.856C712.555 518.593 712.291 519.608 712.066 520.585C711.841 521.562 711.666 522.289 711.54 522.766C711.414 523.242 711.302 523.705 711.201 524.157C711.102 524.607 711.014 524.908 710.939 525.059C710.863 525.209 710.776 525.372 710.675 525.548C710.576 525.723 710.437 525.836 710.262 525.886C709.936 526.111 709.585 526.224 709.208 526.224C708.783 526.224 708.457 526.099 708.232 525.849C708.006 525.597 707.893 525.385 707.893 525.209C707.893 524.959 708.357 522.953 709.284 519.194C710.211 515.435 711.127 511.737 712.029 508.103L713.42 502.652C713.445 502.326 713.358 502.126 713.156 502.05C712.956 501.975 712.467 501.912 711.69 501.862H711.503C711.251 501.862 711.088 501.862 711.014 501.862C710.939 501.862 710.851 501.825 710.751 501.749C710.65 501.674 710.613 501.587 710.638 501.486Z" fill="#EF224B"/>
<path d="M681.81 437.504C681.81 437.104 681.935 436.752 682.185 436.452C682.437 436.151 682.813 436 683.314 436C683.665 436 683.966 436.126 684.216 436.376C684.468 436.576 684.718 437.053 684.969 437.806C685.471 439.66 686.498 441.09 688.053 442.093C688.604 442.444 688.88 442.894 688.88 443.447C688.88 443.897 688.805 444.198 688.654 444.349C688.503 444.5 688.154 444.725 687.601 445.026C685.446 446.129 683.564 447.709 681.96 449.765C681.859 449.865 681.735 450.015 681.584 450.215C681.434 450.416 681.308 450.566 681.208 450.667C681.108 450.767 680.982 450.818 680.831 450.818C680.682 450.818 680.506 450.843 680.305 450.892C679.954 450.892 679.629 450.767 679.328 450.517C679.027 450.265 678.851 449.889 678.802 449.388C678.802 448.436 679.98 446.956 682.336 444.95H669.474L656.613 444.875C655.961 444.424 655.635 443.947 655.635 443.447C655.635 443.096 655.961 442.593 656.613 441.942H683.615C682.412 440.037 681.81 438.557 681.81 437.504Z" fill="#EF224B"/>
<path d="M368.154 236.635C367.384 236.635 367 236.408 367 235.956C367 235.865 367.069 235.548 367.204 235.004C367.384 234.28 367.566 233.873 367.747 233.783C367.928 233.692 368.448 233.625 369.309 233.579C370.532 233.579 371.89 233.51 373.384 233.375C374.018 233.239 374.448 232.968 374.674 232.561C374.765 232.334 376.372 225.972 379.495 213.477C382.62 200.98 384.204 194.642 384.25 194.461C384.25 194.144 384.16 193.985 383.979 193.985C383.616 193.849 382.416 193.736 380.379 193.646H378.274C378.002 193.374 377.866 193.193 377.866 193.102C377.866 193.012 377.912 192.627 378.002 191.948C378.183 191.178 378.41 190.703 378.681 190.522H415.286C415.603 190.703 415.762 190.952 415.762 191.269C415.762 191.495 415.468 194.031 414.879 198.875C414.291 203.719 413.974 206.21 413.928 206.346C413.838 206.663 413.385 206.821 412.57 206.821H411.754C411.439 206.594 411.28 206.3 411.28 205.937C411.28 205.893 411.347 205.349 411.483 204.308C411.619 203.267 411.687 202.067 411.687 200.709C411.687 199.35 411.529 198.241 411.212 197.381C410.895 196.521 410.465 195.819 409.922 195.276C409.378 194.732 408.541 194.37 407.408 194.189C406.277 194.008 405.122 193.849 403.945 193.714C402.768 193.578 401.138 193.555 399.055 193.646H397.494C393.78 193.691 391.811 193.759 391.585 193.849C391.358 193.94 391.2 194.121 391.11 194.393C391.064 194.438 390.294 197.404 388.8 203.289L386.627 212.05H390.363C390.498 212.05 391.018 212.05 391.924 212.05C392.829 212.05 393.463 212.027 393.826 211.983C394.187 211.937 394.686 211.869 395.32 211.779C395.954 211.687 396.497 211.53 396.95 211.303C397.402 211.077 397.788 210.805 398.105 210.488C398.693 209.945 399.19 209.198 399.599 208.247C400.006 207.296 400.3 206.436 400.482 205.666C400.663 204.896 400.776 204.489 400.821 204.443C400.957 204.218 401.387 204.105 402.111 204.105H402.927C403.244 204.331 403.402 204.558 403.402 204.783C403.402 204.919 402.7 207.885 401.296 213.68C399.893 219.475 399.123 222.463 398.988 222.645C398.896 222.962 398.444 223.12 397.629 223.12H396.814C396.497 222.849 396.338 222.577 396.338 222.305C396.338 222.169 396.451 221.672 396.678 220.811C396.904 219.951 397.018 219.045 397.018 218.094C397.018 216.782 396.565 215.966 395.66 215.649C394.754 215.332 392.739 215.174 389.616 215.174H385.88L383.707 223.8C382.258 229.413 381.533 232.356 381.533 232.628C381.533 233.262 383.549 233.579 387.578 233.579H389.276C389.547 233.85 389.683 234.009 389.683 234.055C389.683 234.099 389.637 234.552 389.547 235.413C389.366 236.001 389.14 236.431 388.869 236.702H387.713C385.857 236.612 382.439 236.567 377.459 236.567C374.515 236.567 372.274 236.567 370.735 236.567C369.195 236.567 368.335 236.59 368.154 236.635Z" fill="#20861E"/>
<path d="M410.009 174.358C410.009 173.996 410.122 173.679 410.349 173.407C410.576 173.136 410.915 173 411.368 173C411.685 173 411.956 173.113 412.183 173.34C412.409 173.521 412.636 173.951 412.861 174.63C413.314 176.305 414.242 177.595 415.646 178.501C416.145 178.818 416.393 179.225 416.393 179.723C416.393 180.131 416.326 180.403 416.189 180.538C416.053 180.674 415.736 180.878 415.239 181.15C413.293 182.146 411.595 183.572 410.145 185.428C410.055 185.519 409.942 185.655 409.806 185.836C409.669 186.017 409.557 186.153 409.467 186.243C409.375 186.334 409.262 186.379 409.127 186.379C408.991 186.379 408.832 186.402 408.651 186.447C408.334 186.447 408.04 186.334 407.768 186.107C407.497 185.881 407.339 185.541 407.293 185.089C407.293 184.228 408.357 182.893 410.485 181.082H398.872L387.259 181.014C386.669 180.606 386.375 180.176 386.375 179.723C386.375 179.407 386.669 178.954 387.259 178.365H411.639C410.553 176.645 410.009 175.309 410.009 174.358Z" fill="#20861E"/>
<path d="M429.598 216.305C429.503 216.305 429.374 216.305 429.214 216.305C428.415 216.305 427.934 216.289 427.774 216.256C427.614 216.224 427.533 216.048 427.533 215.728C427.533 214.863 427.709 214.335 428.063 214.143C428.126 214.112 429.679 214.096 432.719 214.096C435.184 214.096 436.592 214.096 436.944 214.096C437.297 214.096 437.52 214.192 437.617 214.384C444.371 230.261 447.813 238.407 447.94 238.824L450.533 228.596C452.23 221.843 453.078 218.241 453.078 217.793C453.078 216.928 452.054 216.432 450.005 216.305C449.237 216.305 448.853 216.129 448.853 215.777C448.853 215.712 448.885 215.52 448.948 215.2C449.077 214.687 449.172 214.384 449.237 214.288C449.3 214.192 449.461 214.127 449.716 214.096C449.813 214.096 450.309 214.112 451.205 214.143C452.101 214.175 453.43 214.208 455.191 214.24C456.791 214.24 458.007 214.224 458.84 214.192C459.671 214.159 460.152 214.143 460.28 214.143C460.76 214.143 461 214.304 461 214.624C461 215.328 460.872 215.808 460.616 216.064C460.553 216.224 460.199 216.305 459.56 216.305C457.287 216.432 455.863 217.073 455.286 218.225L448.132 246.554C448.068 246.778 447.732 246.89 447.124 246.89C446.676 246.89 446.403 246.858 446.308 246.794C446.211 246.698 444.146 241.848 440.113 232.245L434.015 217.889L430.895 230.372C428.814 238.567 427.774 242.808 427.774 243.097C427.934 244.153 429.086 244.681 431.23 244.681H431.711C431.904 244.841 431.999 244.969 431.999 245.065C431.999 245.161 431.967 245.466 431.904 245.978C431.775 246.394 431.615 246.698 431.423 246.89H430.799C429.806 246.825 428.077 246.794 425.613 246.794C424.717 246.794 423.901 246.794 423.164 246.794C422.428 246.794 421.836 246.794 421.388 246.794C420.94 246.794 420.668 246.809 420.572 246.841C420.092 246.841 419.851 246.698 419.851 246.41C419.851 246.281 419.9 246.026 419.995 245.642C420.092 245.258 420.171 245.033 420.236 244.969C420.3 244.777 420.668 244.681 421.34 244.681C423.516 244.584 424.926 243.961 425.565 242.808C425.693 242.616 426.829 238.183 428.975 229.508L432.239 216.449C432.175 216.416 431.295 216.368 429.598 216.305Z" fill="#20861E"/>
<path d="M145.262 515.57C144.421 515.57 144 515.322 144 514.827C144 514.729 144.074 514.382 144.223 513.788C144.421 512.995 144.618 512.55 144.817 512.451C145.015 512.353 145.584 512.278 146.524 512.228C147.861 512.228 149.346 512.154 150.979 512.006C151.672 511.857 152.142 511.56 152.39 511.115C152.489 510.868 154.246 503.912 157.662 490.252C161.077 476.59 162.81 469.66 162.858 469.462C162.858 469.116 162.76 468.942 162.561 468.942C162.166 468.793 160.855 468.671 158.627 468.571H156.326C156.029 468.274 155.88 468.077 155.88 467.977C155.88 467.878 155.929 467.457 156.028 466.714C156.226 465.873 156.474 465.354 156.771 465.155H196.79C197.136 465.354 197.31 465.626 197.31 465.972C197.31 466.22 196.987 468.992 196.345 474.288C195.701 479.584 195.354 482.307 195.305 482.455C195.206 482.802 194.711 482.975 193.82 482.975H192.929C192.582 482.728 192.41 482.405 192.41 482.01C192.41 481.96 192.484 481.366 192.632 480.228C192.781 479.09 192.855 477.778 192.855 476.293C192.855 474.808 192.681 473.595 192.335 472.654C191.988 471.715 191.519 470.947 190.925 470.353C190.331 469.759 189.414 469.363 188.177 469.165C186.939 468.968 185.677 468.793 184.391 468.645C183.104 468.496 181.322 468.472 179.045 468.571H177.337C173.279 468.621 171.126 468.695 170.877 468.793C170.63 468.893 170.457 469.09 170.357 469.387C170.309 469.437 169.466 472.68 167.833 479.114L165.457 488.692H169.541C169.689 488.692 170.259 488.692 171.248 488.692C172.239 488.692 172.932 488.667 173.327 488.618C173.724 488.568 174.268 488.494 174.961 488.395C175.653 488.296 176.247 488.123 176.743 487.876C177.238 487.627 177.658 487.33 178.005 486.985C178.649 486.391 179.193 485.574 179.639 484.534C180.084 483.495 180.405 482.554 180.604 481.713C180.802 480.872 180.925 480.426 180.975 480.376C181.124 480.129 181.593 480.005 182.386 480.005H183.277C183.624 480.252 183.797 480.501 183.797 480.748C183.797 480.896 183.03 484.139 181.495 490.474C179.96 496.81 179.119 500.077 178.97 500.274C178.872 500.621 178.376 500.794 177.485 500.794H176.594C176.247 500.497 176.075 500.2 176.075 499.903C176.075 499.754 176.199 499.21 176.446 498.269C176.693 497.33 176.817 496.34 176.817 495.301C176.817 493.864 176.322 492.973 175.332 492.628C174.343 492.281 172.139 492.108 168.724 492.108H164.64L162.264 501.536C160.681 507.675 159.89 510.892 159.89 511.189C159.89 511.881 162.091 512.228 166.496 512.228H168.353C168.65 512.525 168.798 512.698 168.798 512.748C168.798 512.798 168.75 513.292 168.65 514.233C168.453 514.877 168.204 515.347 167.907 515.644H166.645C164.616 515.545 160.879 515.495 155.434 515.495C152.216 515.495 149.767 515.495 148.084 515.495C146.4 515.495 145.461 515.52 145.262 515.57Z" fill="#6C63FF"/>
<path d="M191.021 447.485C191.021 447.089 191.145 446.743 191.392 446.446C191.64 446.149 192.011 446 192.505 446C192.852 446 193.149 446.124 193.397 446.371C193.644 446.57 193.892 447.04 194.139 447.782C194.634 449.614 195.648 451.023 197.183 452.014C197.727 452.36 198 452.805 198 453.351C198 453.796 197.926 454.093 197.777 454.242C197.629 454.39 197.282 454.613 196.738 454.91C194.609 455.998 192.753 457.557 191.169 459.588C191.07 459.686 190.946 459.835 190.798 460.033C190.649 460.23 190.526 460.379 190.427 460.479C190.328 460.577 190.204 460.627 190.055 460.627C189.907 460.627 189.734 460.652 189.535 460.702C189.19 460.702 188.867 460.577 188.57 460.33C188.273 460.082 188.1 459.711 188.05 459.217C188.05 458.276 189.214 456.815 191.54 454.836H178.845L166.148 454.762C165.504 454.316 165.183 453.845 165.183 453.351C165.183 453.004 165.504 452.508 166.148 451.866H192.803C191.615 449.984 191.021 448.525 191.021 447.485Z" fill="#6C63FF"/>
<path d="M731 582L671 547.359V616.641L731 582ZM500 588H677V576H500V588Z" fill="#EF224B"/>
<path d="M500 985L534.641 925H465.359L500 985ZM494 587V931H506V587H494Z" fill="#DF46FA"/>
<circle cx="500" cy="582" r="8.5" fill="black" stroke="black"/>
<path d="M1027.89 572.29C1028.4 569.308 1030.4 565.866 1033.87 561.962C1037.35 558.058 1041.63 556.071 1046.74 556C1049.32 556 1051.69 556.639 1053.83 557.916C1055.98 559.194 1057.56 560.791 1058.6 562.707C1061.7 558.236 1065.44 556 1069.8 556C1072.53 556 1074.9 556.781 1076.9 558.342C1078.89 559.904 1079.93 561.998 1080 564.624C1080 566.682 1079.48 568.35 1078.45 569.628C1077.41 570.906 1076.41 571.686 1075.45 571.97C1074.49 572.254 1073.64 572.396 1072.9 572.396C1071.5 572.396 1070.35 572.006 1069.47 571.225C1068.58 570.444 1068.14 569.415 1068.14 568.137C1068.14 564.872 1069.98 562.637 1073.68 561.43C1072.87 560.507 1071.39 560.046 1069.24 560.046C1068.28 560.046 1067.58 560.117 1067.14 560.259C1064.33 561.394 1062.26 563.737 1060.93 567.286C1056.49 582.972 1054.28 592.128 1054.28 594.754C1054.28 596.742 1054.87 598.161 1056.05 599.013C1057.23 599.865 1058.53 600.291 1059.93 600.291C1062.67 600.291 1065.36 599.12 1068.02 596.777C1070.69 594.435 1072.5 591.56 1073.46 588.153C1073.68 587.444 1073.9 587.053 1074.12 586.982C1074.34 586.911 1074.94 586.84 1075.9 586.769H1076.34C1077.45 586.769 1078 587.053 1078 587.621C1078 587.692 1077.93 588.082 1077.78 588.792C1076.6 592.838 1074.31 596.422 1070.91 599.545C1067.51 602.668 1063.55 604.23 1059.04 604.23C1053.87 604.23 1049.95 601.994 1047.29 597.522C1044.26 601.923 1040.78 604.124 1036.87 604.124H1036.2C1032.58 604.124 1029.99 603.201 1028.44 601.355C1026.89 599.51 1026.07 597.558 1026 595.5C1026 593.228 1026.7 591.383 1028.11 589.963C1029.51 588.544 1031.17 587.834 1033.1 587.834C1036.28 587.834 1037.86 589.324 1037.86 592.306C1037.86 593.725 1037.42 594.967 1036.53 596.032C1035.65 597.097 1034.8 597.806 1033.98 598.161C1033.17 598.516 1032.69 598.694 1032.54 598.694L1032.21 598.8C1032.21 598.871 1032.43 599.013 1032.87 599.226C1033.32 599.439 1033.91 599.687 1034.65 599.971C1035.39 600.255 1036.09 600.362 1036.76 600.291C1039.42 600.291 1041.71 598.694 1043.63 595.5C1044.3 594.364 1045.15 591.951 1046.18 588.26C1047.22 584.569 1048.25 580.736 1049.29 576.761C1050.32 572.786 1050.91 570.444 1051.06 569.734C1051.43 567.818 1051.61 566.434 1051.61 565.582C1051.61 563.595 1051.06 562.175 1049.95 561.323C1048.84 560.472 1047.59 560.046 1046.18 560.046C1043.22 560.046 1040.45 561.181 1037.86 563.453C1035.28 565.724 1033.47 568.634 1032.43 572.183C1032.28 572.822 1032.1 573.177 1031.88 573.248C1031.66 573.319 1031.06 573.39 1030.1 573.461H1028.55C1028.11 573.035 1027.89 572.644 1027.89 572.29Z" fill="black"/>
<path d="M477 14.7353C477 13.8482 477.473 12.3273 478.42 10.1729C479.367 8.0184 480.882 5.76888 482.965 3.42431C485.048 1.07974 487.384 -0.0608673 489.972 0.00250244C492.56 0.00250244 494.643 0.73122 496.221 2.18866C497.8 3.64609 498.62 5.67383 498.683 8.27187C498.557 9.47584 498.462 10.1412 498.399 10.2679C498.399 10.458 497.894 11.9155 496.884 14.6402C495.874 17.365 494.833 20.4383 493.76 23.8601C492.686 27.2819 492.181 30.0067 492.245 32.0344C492.245 34.7592 492.686 36.6602 493.57 37.7374C494.454 38.8147 495.78 39.385 497.547 39.4483C498.999 39.4483 500.356 39.0998 501.619 38.4028C502.881 37.7058 503.86 36.977 504.554 36.2166C505.248 35.4562 506.1 34.4107 507.11 33.08C507.11 33.0166 507.268 32.3829 507.584 31.179C507.9 29.975 508.341 28.1057 508.91 25.571C509.478 23.0363 510.077 20.6918 510.709 18.5373C513.107 9.03227 514.433 4.05798 514.685 3.61441C515.506 1.90351 516.863 1.04805 518.757 1.04805C519.578 1.04805 520.24 1.26984 520.745 1.71341C521.25 2.15697 521.598 2.53717 521.787 2.85401C521.976 3.17084 522.039 3.45599 521.976 3.70946C521.976 4.53323 520.43 11.1867 517.337 23.67C514.244 36.1533 512.476 42.9969 512.034 44.2009C510.267 49.4603 507.205 53.6425 502.85 56.7475C498.494 59.8525 494.138 61.4366 489.783 61.5C486.942 61.5 484.449 60.803 482.302 59.4089C480.156 58.0148 479.083 55.9237 479.083 53.1356C479.083 51.7415 479.304 50.5692 479.746 49.6187C480.188 48.6682 480.787 47.9712 481.545 47.5276C482.302 47.084 482.934 46.7672 483.439 46.5771C483.944 46.387 484.48 46.292 485.048 46.292C487.826 46.292 489.215 47.6227 489.215 50.2841C489.215 51.5514 488.836 52.6603 488.078 53.6108C487.321 54.5613 486.595 55.195 485.901 55.5118C485.206 55.8287 484.796 55.9871 484.67 55.9871L484.386 56.0821C484.512 56.399 485.112 56.7792 486.185 57.2227C487.258 57.6663 488.331 57.8881 489.404 57.8881H490.161C491.235 57.8881 492.055 57.8247 492.623 57.698C494.706 57.1277 496.632 55.9237 498.399 54.0861C500.167 52.2484 501.524 50.2841 502.471 48.193C503.418 46.1019 504.144 44.3276 504.649 42.8702C505.154 41.4127 505.406 40.4622 505.406 40.0186L504.838 40.3988C504.459 40.6523 503.86 41.0008 503.039 41.4444C502.218 41.888 501.398 42.2682 500.577 42.585C499.315 42.9018 498.084 43.0603 496.884 43.0603C493.981 43.0603 491.424 42.3632 489.215 40.9692C487.005 39.5751 485.553 37.3256 484.859 34.2206C484.796 33.777 484.764 32.7948 484.764 31.274C484.764 27.6621 485.869 22.9413 488.078 17.1115C490.288 11.2818 491.392 7.57484 491.392 5.99067C491.392 5.9273 491.392 5.86393 491.392 5.80056C491.392 5.23026 491.392 4.85006 491.392 4.65996C491.392 4.46986 491.266 4.24808 491.014 3.99461C490.761 3.74114 490.414 3.61441 489.972 3.61441H489.593C488.142 3.61441 486.816 4.21639 485.617 5.42036C484.417 6.62433 483.47 7.92336 482.776 9.31742C482.082 10.7115 481.545 12.0422 481.166 13.3095C480.787 14.5769 480.535 15.2739 480.409 15.4006C480.282 15.5274 479.777 15.5907 478.894 15.5907H477.568C477.189 15.2105 477 14.9254 477 14.7353Z" fill="black"/>
</svg>
