<svg width="120" height="97" viewBox="0 0 120 97" fill="none" xmlns="http://www.w3.org/2000/svg">
<path d="M19.1503 71.0666C19.1503 72.8377 20.8477 73.8709 24.2423 74.1661C25.5707 74.1661 26.2349 74.5719 26.2349 75.3837C26.2349 75.4575 26.1611 75.9372 26.0135 76.8228C25.7921 77.8559 25.5707 78.5201 25.3493 78.8153C25.1279 79.1105 24.6482 79.2581 23.9102 79.2581C23.7627 79.2581 23.3199 79.2581 22.5819 79.2581C21.8439 79.2581 20.5894 79.2212 18.8183 79.1474C17.0471 79.0736 14.6856 79.0367 11.7337 79.0367C6.49414 79.0367 3.13638 79.1105 1.66043 79.2581H0.774869C0.25829 78.7415 0 78.3356 0 78.0404C0.147594 76.0479 0.627275 74.7564 1.43904 74.1661H2.98878C8.15458 73.9447 11.9182 72.0997 14.2797 68.6313C14.7225 68.1885 21.4011 56.9344 34.3156 34.8691C47.2301 12.8038 53.7981 1.62354 54.0194 1.32835C54.536 0.442789 55.4216 6.67572e-06 56.6761 6.67572e-06H57.5617H59.4435C59.8863 0.66418 60.1077 1.03317 60.1077 1.10696L63.2072 36.8616C65.2735 60.6981 66.3805 72.727 66.5281 72.9484C66.897 73.7602 69.2954 74.1661 73.7233 74.1661C75.5682 74.1661 76.4907 74.535 76.4907 75.273C76.4907 75.4206 76.38 75.9372 76.1586 76.8228C75.9372 77.9297 75.7527 78.5939 75.6051 78.8153C75.4575 79.0367 74.9409 79.1843 74.0554 79.2581C73.834 79.2581 73.3174 79.2581 72.5056 79.2581C71.6938 79.2581 70.2548 79.2212 68.1885 79.1474C66.1222 79.0736 63.4286 79.0367 60.1077 79.0367C53.1708 79.0367 48.6323 79.1105 46.4921 79.2581H45.1638C44.721 78.8153 44.4996 78.4832 44.4996 78.2618C44.4996 78.0404 44.5734 77.3762 44.721 76.2693C45.0162 75.3099 45.2376 74.7195 45.3852 74.4981L45.828 74.1661H48.0419C52.0269 73.9447 54.3884 73.3174 55.1264 72.2842L53.7981 55.6799H27.4525L23.6889 62.1002C20.6632 67.1922 19.1503 70.181 19.1503 71.0666ZM53.2446 50.4772C53.2446 49.6654 52.8018 43.9093 51.9162 33.2087C51.0307 22.5081 50.5141 17.1209 50.3665 17.0471L47.3777 21.807C46.197 23.7996 43.8724 27.7477 40.4039 33.6515L30.4413 50.4772L41.8429 50.5879C49.444 50.5879 53.2446 50.551 53.2446 50.4772Z" fill="black"/>
<path d="M83.2169 73.2447C83.5821 71.0534 84.9909 68.5229 87.4431 65.6533C89.8953 62.7837 92.9214 61.3228 96.5214 61.2707C98.3475 61.2707 100.017 61.7402 101.53 62.6794C103.043 63.6185 104.165 64.7925 104.895 66.2012C107.087 62.9142 109.722 61.2707 112.8 61.2707C114.73 61.2707 116.4 61.8446 117.809 62.9924C119.217 64.1403 119.948 65.6794 120 67.6099C120 69.1229 119.635 70.349 118.904 71.2882C118.174 72.2273 117.469 72.8012 116.791 73.0099C116.113 73.2186 115.513 73.323 114.991 73.323C114 73.323 113.191 73.036 112.565 72.4621C111.939 71.8882 111.626 71.1317 111.626 70.1925C111.626 67.7925 112.93 66.149 115.539 65.262C114.965 64.5838 113.922 64.2446 112.409 64.2446C111.73 64.2446 111.235 64.2968 110.922 64.4011C108.939 65.2359 107.478 66.9577 106.539 69.5664C103.408 81.097 101.843 87.8275 101.843 89.758C101.843 91.2189 102.261 92.2623 103.095 92.8884C103.93 93.5145 104.843 93.8276 105.835 93.8276C107.765 93.8276 109.669 92.9667 111.548 91.2449C113.426 89.5232 114.704 87.4101 115.383 84.9057C115.539 84.384 115.696 84.097 115.852 84.0449C116.009 83.9927 116.426 83.9405 117.104 83.8883H117.417C118.2 83.8883 118.591 84.097 118.591 84.5144C118.591 84.5666 118.539 84.8536 118.435 85.3753C117.6 88.3493 115.983 90.9841 113.582 93.2797C111.182 95.5754 108.391 96.7233 105.208 96.7233C101.556 96.7233 98.791 95.0798 96.9127 91.7928C94.7736 95.0276 92.3214 96.645 89.5561 96.645H89.0866C86.53 96.645 84.7039 95.9667 83.6082 94.6102C82.5126 93.2537 81.9386 91.8189 81.8865 90.3058C81.8865 88.6362 82.3821 87.2797 83.3734 86.2362C84.3648 85.1927 85.5387 84.671 86.8952 84.671C89.1387 84.671 90.2605 85.7666 90.2605 87.9579C90.2605 89.0014 89.9474 89.9145 89.3213 90.6971C88.6952 91.4797 88.0952 92.0015 87.5213 92.2623C86.9474 92.5232 86.6083 92.6537 86.5039 92.6537L86.2691 92.7319C86.2691 92.7841 86.4257 92.8884 86.7387 93.045C87.0518 93.2015 87.4691 93.3841 87.9909 93.5928C88.5126 93.8015 89.0083 93.8798 89.4779 93.8276C91.3561 93.8276 92.9736 92.6537 94.3301 90.3058C94.7997 89.471 95.3997 87.6971 96.1301 84.984C96.8606 82.2709 97.591 79.4535 98.3214 76.5317C99.0519 73.61 99.4693 71.8882 99.5736 71.3664C99.8345 69.9577 99.9649 68.9403 99.9649 68.3142C99.9649 66.8533 99.5736 65.8099 98.791 65.1838C98.0084 64.5577 97.1214 64.2446 96.1301 64.2446C94.0431 64.2446 92.0866 65.0794 90.2605 66.749C88.4344 68.4186 87.1561 70.5577 86.4257 73.1665C86.3213 73.636 86.1909 73.8969 86.0343 73.9491C85.8778 74.0013 85.4604 74.0534 84.7822 74.1056H83.6865C83.3734 73.7926 83.2169 73.5056 83.2169 73.2447Z" fill="black"/>
</svg>
