<svg width="200" height="78" viewBox="0 0 200 78" fill="none" xmlns="http://www.w3.org/2000/svg">
<path d="M0 41.5965C0 39.1005 0.984669 36.8564 2.95401 34.8641C4.92334 32.8719 7.05298 31.8758 9.34291 31.8758C10.6253 31.8758 11.6328 32.1506 12.3656 32.7002C13.0984 33.2497 13.4762 33.9711 13.4991 34.8641C13.4991 35.5282 13.2816 36.0893 12.8465 36.5472C12.4114 37.0052 11.8618 37.2457 11.1977 37.2686C10.7627 37.2686 10.4192 37.1541 10.1673 36.9251C9.91539 36.6961 9.78944 36.3526 9.78944 35.8946C9.78944 35.4366 9.91539 35.0473 10.1673 34.7268C10.4192 34.4062 10.6711 34.1657 10.923 34.0054C11.1748 33.8451 11.3351 33.7764 11.4038 33.7993H11.4382C11.4382 33.7535 11.3695 33.6848 11.2321 33.5932C11.0947 33.5016 10.8543 33.41 10.5108 33.3184C10.1673 33.2268 9.77799 33.181 9.34291 33.181C8.65593 33.181 8.0033 33.3413 7.38502 33.6619C6.90413 33.868 6.4118 34.223 5.90801 34.7268C4.90045 35.7343 4.16767 37.1541 3.70968 38.986C3.2517 40.818 3.01126 42.1461 2.98836 42.9705C2.98836 44.0239 3.28605 44.8139 3.88143 45.3406C4.38521 45.8901 5.04929 46.1649 5.87366 46.1649H6.01106C8.57578 46.1649 10.694 45.1917 12.3656 43.2453C12.5717 43.0163 12.7091 42.9018 12.7778 42.9018C12.8694 42.9018 13.0182 43.0048 13.2243 43.2109C13.4304 43.417 13.5449 43.5773 13.5678 43.6918C13.5907 43.8063 13.4877 43.9781 13.2587 44.207C13.0297 44.436 12.6976 44.7566 12.2626 45.1688C11.8275 45.581 11.3122 45.9245 10.7169 46.1993C10.1215 46.4741 9.3887 46.7603 8.51853 47.058C7.64836 47.3557 6.73239 47.4816 5.77062 47.4358C4.05317 47.4358 2.66777 46.8863 1.6144 45.7871C0.561032 44.6879 0.0228993 43.2911 0 41.5965Z" fill="black"/>
<path d="M20.6094 47.4359C18.8919 47.4359 17.5065 46.8748 16.4532 45.7528C15.3998 44.6307 14.8731 43.2796 14.8731 41.6996C14.8731 40.2111 15.2166 38.8028 15.9036 37.4747C16.5906 36.1465 17.5294 34.9901 18.7202 34.0054C20.4605 32.6086 22.2352 31.9101 24.0443 31.9101C24.777 31.9101 25.235 31.9216 25.4182 31.9445C25.7159 32.0132 26.0136 32.0933 26.3113 32.1849C26.609 32.2765 27.0097 32.4597 27.5135 32.7345C28.0173 33.0093 28.4295 33.3528 28.7501 33.765C29.0707 34.1772 29.3684 34.7382 29.6431 35.4481C29.9179 36.158 30.0553 36.9594 30.0553 37.8525C30.0553 40.3027 29.0707 42.5125 27.1013 44.4818C25.132 46.4512 22.968 47.4359 20.6094 47.4359ZM17.8615 42.9361C17.8615 44.0811 18.1592 44.9055 18.7545 45.4093C19.3499 45.913 20.0254 46.1649 20.7811 46.1649C21.7887 46.1649 22.739 45.7986 23.6321 45.0658C24.5252 44.333 25.235 43.3712 25.7617 42.1805C25.9678 41.6996 26.2311 40.8523 26.5517 39.6386C26.8723 38.425 27.0326 37.3716 27.0326 36.4785C27.0326 35.471 26.8265 34.7039 26.4143 34.1772C25.8648 33.4902 25.132 33.1467 24.216 33.1467C22.7734 33.1467 21.5024 33.8108 20.4033 35.1389C19.556 36.1465 18.9263 37.4861 18.5141 39.1578C18.1019 40.8294 17.8844 42.0889 17.8615 42.9361Z" fill="black"/>
<path d="M34.8642 37.1312C34.8642 36.3984 35.0473 35.6542 35.4137 34.8985C35.7801 34.1428 36.4213 33.4444 37.3373 32.8032C38.2532 32.1621 39.3639 31.8529 40.6691 31.8758C42.0889 31.8758 43.1193 32.1849 43.7605 32.8032C44.4017 33.4215 44.7337 34.1085 44.7566 34.8642C44.7566 35.5969 44.562 36.1351 44.1727 36.4786C43.7834 36.8221 43.3483 37.0052 42.8674 37.0281C42.5698 37.0281 42.295 36.9366 42.0431 36.7534C41.7912 36.5702 41.6538 36.2725 41.6309 35.8603C41.6309 35.4939 41.7339 35.1733 41.94 34.8985C42.1461 34.6237 42.3408 34.4176 42.524 34.2802C42.7072 34.1428 42.856 34.0741 42.9705 34.0741C42.9934 34.0741 43.0048 34.0627 43.0048 34.0398C43.0048 33.9711 42.9247 33.868 42.7644 33.7307C42.6041 33.5933 42.3179 33.4673 41.9057 33.3528C41.4935 33.2383 41.047 33.1696 40.5661 33.1467C39.4669 33.1467 38.6654 33.4444 38.1616 34.0398C37.6579 34.6352 37.3945 35.242 37.3716 35.8603C37.3716 36.4328 37.5892 36.8335 38.0243 37.0625C38.4593 37.2915 39.0891 37.4861 39.9134 37.6464C40.7378 37.8067 41.3332 37.9785 41.6996 38.1617C43.2109 38.8257 43.9666 39.9249 43.9666 41.4592C43.9666 42.1003 43.8407 42.7415 43.5888 43.3827C43.3369 44.0239 42.959 44.6651 42.4553 45.3062C41.9515 45.9474 41.2302 46.4512 40.2913 46.8176C39.3524 47.184 38.2761 47.3786 37.0625 47.4015C35.2992 47.4015 34.0512 47.0695 33.3185 46.4054C32.5857 45.7413 32.2078 44.9627 32.1849 44.0697C32.1849 43.1766 32.4254 42.5354 32.9063 42.1461C33.3871 41.7568 33.8909 41.5622 34.4176 41.5622C34.7611 41.5622 35.0817 41.6653 35.3794 41.8713C35.6771 42.0774 35.8374 42.4324 35.8603 42.9362C35.8603 43.5315 35.6542 44.0353 35.242 44.4475C34.8298 44.8597 34.4749 45.0658 34.1772 45.0658C34.1314 45.0887 34.097 45.1001 34.0741 45.1001C34.0512 45.1001 34.0398 45.123 34.0398 45.1688C34.0627 45.2375 34.1543 45.3291 34.3146 45.4436C34.4749 45.5581 34.8298 45.707 35.3794 45.8902C35.929 46.0734 36.5587 46.1535 37.2686 46.1306C38.093 46.1306 38.8028 46.0047 39.3982 45.7528C39.9936 45.5009 40.4287 45.1803 40.7035 44.791C40.9783 44.4017 41.1729 44.0468 41.2874 43.7262C41.4019 43.4056 41.4591 43.1194 41.4591 42.8675C41.4591 42.2263 41.2187 41.7454 40.7378 41.4248C40.2569 41.1042 39.7073 40.9096 39.0891 40.8409C38.4708 40.7722 37.7953 40.6004 37.0625 40.3256C36.3297 40.0509 35.7916 39.6501 35.4481 39.1234C35.0588 38.5509 34.8642 37.8869 34.8642 37.1312Z" fill="black"/>
<path d="M49.7029 38.4708C49.7029 36.8908 49.8174 35.3909 50.0464 33.9711C50.2754 32.5513 50.5387 31.3262 50.8364 30.2958C51.1341 29.2653 51.5577 28.2577 52.1073 27.2731C52.6569 26.2884 53.092 25.5213 53.4126 24.9717C53.7332 24.4221 54.214 23.8267 54.8552 23.1855C55.4964 22.5444 55.8742 22.1551 55.9887 22.0177C56.1032 21.8803 56.3895 21.6398 56.8475 21.2963H57.294H57.4314C57.752 21.2963 57.9123 21.3994 57.9123 21.6055C57.9123 21.6742 57.7176 21.9146 57.3283 22.3268C56.9391 22.739 56.4696 23.3458 55.92 24.1473C55.3705 24.9488 54.8094 25.9335 54.2369 27.1013C53.6645 28.2692 53.1836 29.8492 52.7943 31.8415C52.405 33.8337 52.2104 36.0435 52.2104 38.4708C52.2104 40.8981 52.405 43.0965 52.7943 45.0658C53.1836 47.0351 53.653 48.6266 54.2026 49.8403C54.7522 51.054 55.3132 52.0386 55.8857 52.7943C56.4582 53.55 56.9391 54.1568 57.3283 54.6148C57.7176 55.0728 57.9123 55.3132 57.9123 55.3361C57.9123 55.5422 57.7405 55.6453 57.397 55.6453H57.294H56.8475L55.8857 54.8209C53.7332 52.8745 52.1646 50.4471 51.1799 47.5389C50.1952 44.6307 49.7029 41.608 49.7029 38.4708Z" fill="black"/>
<path d="M61.038 40.1882C61.038 37.8525 61.4846 35.3908 62.3776 32.8032C63.2707 30.2156 64.4844 27.9829 66.0186 26.1052C67.5529 24.2275 69.1444 23.1512 70.7931 22.8764C70.816 22.8764 70.9076 22.8764 71.0679 22.8764C71.2282 22.8764 71.3656 22.8649 71.4801 22.842C72.7167 22.9336 73.6784 23.4947 74.3654 24.5251C75.2585 25.8991 75.705 27.7425 75.705 30.0553C75.705 32.6887 75.1898 35.3679 74.1593 38.093C73.1288 40.818 71.8121 43.0507 70.2092 44.791C68.6062 46.5313 67.072 47.4015 65.6064 47.4015H65.366C64.5416 47.4015 63.8317 47.1725 63.2364 46.7145C62.641 46.2566 62.1944 45.6497 61.8967 44.894C61.5991 44.1384 61.3815 43.3712 61.2441 42.5927C61.1067 41.8141 61.038 41.0126 61.038 40.1882ZM72.9914 27.6165C72.9914 25.2808 72.3846 24.113 71.171 24.113C70.3466 24.113 69.5451 24.6282 68.7665 25.6587C67.988 26.6891 67.3468 27.857 66.843 29.1622C66.3392 30.4675 65.9499 31.6125 65.6751 32.5971C65.4003 33.5818 65.2515 34.1543 65.2286 34.3146C66.3507 34.3375 67.4613 34.3489 68.5604 34.3489L71.8923 34.3146C71.9152 34.2917 72.0068 33.9138 72.1671 33.1811C72.3274 32.4483 72.5106 31.5323 72.7167 30.4332C72.9227 29.334 73.0143 28.3951 72.9914 27.6165ZM63.7172 42.524C63.7172 44.9513 64.3241 46.165 65.5377 46.165C65.8812 46.165 66.2476 46.0505 66.6369 45.8215C67.0262 45.5925 67.4956 45.1574 68.0452 44.5162C68.5948 43.875 69.1444 42.8789 69.694 41.5279C70.2435 40.1768 70.7931 38.5052 71.3427 36.5129L71.5144 35.929H64.8164C64.8164 35.9977 64.7134 36.4328 64.5073 37.2342C64.3012 38.0357 64.118 38.9288 63.9577 39.9135C63.7974 40.8981 63.7172 41.7683 63.7172 42.524Z" fill="black"/>
<path d="M78.0064 21.3307L78.1438 21.2963C78.2583 21.2963 78.3728 21.2963 78.4873 21.2963H78.8995L79.8612 22.1207C82.0138 24.0672 83.5824 26.4945 84.567 29.4027C85.5517 32.3109 86.044 35.3336 86.044 38.4708C86.044 40.028 85.9296 41.5279 85.7006 42.9705C85.4716 44.4132 85.2082 45.6383 84.9105 46.6458C84.6128 47.6534 84.1892 48.661 83.6396 49.6686C83.09 50.6761 82.655 51.4432 82.3344 51.9699C82.0138 52.4966 81.5443 53.0805 80.9261 53.7217C80.3078 54.3629 79.9414 54.7407 79.8269 54.8552C79.7124 54.9697 79.4491 55.1873 79.0369 55.5079C78.9682 55.5766 78.9224 55.6224 78.8995 55.6453H78.4873C78.3041 55.6453 78.1781 55.6453 78.1094 55.6453C78.0407 55.6453 77.9835 55.6109 77.9377 55.5422C77.8919 55.4735 77.8576 55.3705 77.8347 55.2331C77.8576 55.2102 77.9835 55.0613 78.2125 54.7865C81.7619 51.0998 83.5366 45.6612 83.5366 38.4708C83.5366 31.2804 81.7619 25.8419 78.2125 22.1551C77.9835 21.8803 77.8576 21.7314 77.8347 21.7085C77.8347 21.5253 77.8919 21.3994 78.0064 21.3307Z" fill="black"/>
<path d="M100.773 35.139C100.773 34.8413 100.933 34.6123 101.254 34.452H123.134C123.477 34.6352 123.649 34.8642 123.649 35.139C123.649 35.3908 123.489 35.6084 123.168 35.7916L112.245 35.8259H101.322C100.956 35.7114 100.773 35.4824 100.773 35.139ZM100.773 41.8026C100.773 41.4592 100.956 41.2302 101.322 41.1157H123.168C123.489 41.3447 123.649 41.5737 123.649 41.8026C123.649 42.1003 123.477 42.3293 123.134 42.4896H101.254C100.933 42.3293 100.773 42.1003 100.773 41.8026Z" fill="black"/>
<path d="M145.66 18.4454C145.66 16.1325 146.53 13.9342 148.271 11.8504C150.011 9.76655 151.969 8.71318 154.144 8.69028C155.312 8.69028 156.343 9.25131 157.236 10.3734C157.602 9.6864 158.129 9.34291 158.816 9.34291C159.113 9.34291 159.377 9.43451 159.606 9.6177C159.835 9.80089 159.949 10.0299 159.949 10.3047C159.949 10.6024 159.526 12.4343 158.678 15.8005C157.831 19.1667 157.396 21.0673 157.373 21.5024C157.373 22.0749 157.453 22.4527 157.613 22.6359C157.774 22.8191 158.014 22.9222 158.335 22.9451C158.541 22.9222 158.77 22.8191 159.022 22.6359C159.503 22.178 159.972 21.0788 160.43 19.3384C160.567 18.8805 160.682 18.64 160.774 18.6171C160.819 18.5942 160.934 18.5828 161.117 18.5828H161.254C161.69 18.5828 161.907 18.6858 161.907 18.8919C161.907 19.0293 161.85 19.3384 161.735 19.8193C161.621 20.3002 161.392 20.9185 161.048 21.6742C160.705 22.4298 160.338 23.0023 159.949 23.3916C159.651 23.6893 159.285 23.9297 158.85 24.1129C158.667 24.1587 158.392 24.1816 158.026 24.1816C157.247 24.1816 156.594 24.0099 156.068 23.6664C155.541 23.3229 155.198 22.968 155.037 22.6016L154.831 22.0864C154.808 22.0635 154.762 22.0749 154.694 22.1207C154.648 22.1665 154.602 22.2123 154.556 22.2581C153.205 23.5405 151.831 24.1816 150.435 24.1816C149.175 24.1816 148.064 23.7237 147.103 22.8077C146.141 21.8917 145.66 20.4376 145.66 18.4454ZM156.583 12.5717C156.583 12.4343 156.526 12.1824 156.411 11.816C156.297 11.4496 156.033 11.0489 155.621 10.6138C155.209 10.1787 154.682 9.94974 154.041 9.92684C153.24 9.92684 152.473 10.2818 151.74 10.9917C151.007 11.7015 150.435 12.629 150.022 13.7739C149.358 15.583 148.889 17.4607 148.614 19.4071C148.614 19.4758 148.614 19.6018 148.614 19.785C148.614 19.9682 148.603 20.1056 148.58 20.1972C148.58 21.2276 148.786 21.9375 149.198 22.3268C149.61 22.7161 150.102 22.9222 150.675 22.9451C151.545 22.9451 152.404 22.5672 153.251 21.8116C154.098 21.0559 154.602 20.472 154.762 20.0598C154.808 19.9682 155.117 18.7431 155.69 16.3844C156.262 14.0258 156.56 12.7549 156.583 12.5717Z" fill="black"/>
<path d="M175.269 0.377842C175.292 0.377842 176.116 0.320593 177.742 0.206097C179.368 0.0916004 180.204 0.0229034 180.249 3.8147e-06C180.524 3.8147e-06 180.662 0.0916004 180.662 0.274796C180.662 0.435089 179.826 3.89288 178.154 10.6482C176.482 17.4035 175.624 20.8498 175.578 20.9872C175.532 21.1246 175.521 21.2963 175.544 21.5024C175.544 22.4642 175.864 22.9451 176.505 22.9451C176.711 22.9222 176.94 22.8191 177.192 22.6359C177.673 22.178 178.143 21.0788 178.601 19.3384C178.738 18.8805 178.853 18.64 178.944 18.6171C178.99 18.5942 179.104 18.5828 179.288 18.5828H179.425H179.562C179.906 18.5828 180.078 18.6744 180.078 18.8576C180.078 18.9721 180.043 19.1552 179.975 19.4071C179.677 20.5521 179.333 21.4795 178.944 22.1894C178.555 22.8993 178.234 23.3573 177.982 23.5634C177.73 23.7695 177.41 23.9526 177.021 24.1129C176.837 24.1587 176.563 24.1816 176.196 24.1816C175.418 24.1816 174.765 24.0099 174.238 23.6664C173.712 23.3229 173.368 22.968 173.208 22.6016L173.002 22.0864C172.979 22.0635 172.933 22.0749 172.864 22.1207C172.819 22.1665 172.773 22.2123 172.727 22.2581C171.376 23.5405 170.002 24.1816 168.605 24.1816C167.346 24.1816 166.235 23.7237 165.273 22.8077C164.312 21.8917 163.831 20.4376 163.831 18.4454C163.831 17.3462 164.06 16.2241 164.518 15.0792C164.976 13.9342 165.525 12.9495 166.166 12.1252C167.243 10.8199 168.319 9.91539 169.395 9.41161C170.471 8.90782 171.445 8.65593 172.315 8.65593C173.597 8.65593 174.559 9.13682 175.2 10.0986C175.315 10.236 175.372 10.2818 175.372 10.236C175.395 10.1444 175.704 8.89637 176.299 6.49195C176.895 4.08752 177.215 2.81661 177.261 2.67922C177.261 2.38153 177.181 2.19833 177.021 2.12964C176.86 2.06094 176.414 2.00369 175.681 1.95789H174.96C174.822 1.8205 174.754 1.7289 174.754 1.6831C174.754 1.6373 174.776 1.41976 174.822 1.03047C174.937 0.595385 175.086 0.377842 175.269 0.377842ZM174.788 12.6404C174.261 10.8314 173.403 9.92684 172.212 9.92684C171.41 9.92684 170.643 10.2818 169.91 10.9917C169.178 11.7015 168.605 12.629 168.193 13.7739C167.529 15.583 167.059 17.4607 166.785 19.4071C166.785 19.4758 166.785 19.6018 166.785 19.785C166.785 19.9682 166.773 20.1056 166.75 20.1972C166.75 21.2276 166.956 21.9375 167.369 22.3268C167.781 22.7161 168.273 22.9222 168.846 22.9451C170.082 22.9451 171.353 22.1207 172.658 20.472L172.933 20.0941L174.788 12.6404Z" fill="black"/>
<path d="M190.76 3.3662C190.76 2.65633 191.001 2.10674 191.482 1.71746C191.962 1.32817 192.455 1.13352 192.959 1.13352C193.348 1.13352 193.668 1.24802 193.92 1.47701C194.172 1.70601 194.332 2.0266 194.401 2.43878C194.401 3.07996 194.184 3.6181 193.749 4.05318C193.313 4.48827 192.81 4.70581 192.237 4.70581C191.825 4.70581 191.482 4.59131 191.207 4.36232C190.932 4.13333 190.783 3.80129 190.76 3.3662ZM190.451 10.923C190.451 10.2589 190.153 9.92685 189.558 9.92685C189.054 9.92685 188.573 10.0642 188.115 10.339C187.657 10.6138 187.257 10.9688 186.913 11.4039C186.57 11.8389 186.295 12.2626 186.089 12.6748C185.883 13.0869 185.688 13.4533 185.505 13.7739L185.264 14.2548C185.219 14.2777 185.035 14.2892 184.715 14.2892H184.234C184.096 14.1518 184.028 14.0602 184.028 14.0144C184.028 13.9686 184.074 13.8197 184.165 13.5678C184.646 12.4458 185.322 11.3924 186.192 10.4077C187.062 9.42306 188.07 8.85058 189.214 8.69029C189.237 8.69029 189.329 8.69029 189.489 8.69029C189.65 8.69029 189.787 8.67884 189.901 8.65594C190.451 8.67884 190.955 8.79333 191.413 8.99943C191.985 9.32002 192.42 9.67496 192.718 10.0642C193.016 10.4535 193.165 11.0604 193.165 11.8847V12.4343L191.482 19.2698C190.314 23.8496 189.695 26.2311 189.627 26.4143C189.214 27.5593 188.413 28.5783 187.222 29.4714C186.031 30.3645 184.669 30.8224 183.135 30.8453C181.99 30.8453 181.211 30.6049 180.799 30.124C180.387 29.6431 180.169 29.1164 180.146 28.544C180.146 27.9257 180.364 27.399 180.799 26.9639C181.234 26.5288 181.761 26.2998 182.379 26.2769C182.768 26.2769 183.1 26.3914 183.375 26.6204C183.65 26.8494 183.799 27.2044 183.822 27.6852C183.822 28.5096 183.455 29.1393 182.723 29.5744C182.86 29.5973 183.02 29.6088 183.203 29.6088C183.982 29.6088 184.692 29.2882 185.333 28.647C185.974 28.0058 186.467 27.2502 186.81 26.38L187.188 24.9373C187.44 23.9527 187.737 22.7619 188.081 21.365C188.424 19.9682 188.791 18.537 189.18 17.0714C189.569 15.6059 189.879 14.335 190.108 13.2587C190.337 12.1824 190.462 11.5298 190.485 11.3008C190.485 11.1405 190.474 11.0146 190.451 10.923Z" fill="black"/>
<path d="M147.377 47.1611C147.4 47.1611 148.225 47.1038 149.851 46.9893C151.476 46.8748 152.312 46.8061 152.358 46.7832C152.633 46.7832 152.77 46.8863 152.77 47.0924C152.77 47.3443 152.358 49.0731 151.534 52.279C150.663 55.6681 150.228 57.397 150.228 57.4657C150.228 57.5115 150.309 57.4543 150.469 57.294C151.866 56.0574 153.354 55.4391 154.934 55.4391C156.171 55.4391 157.167 55.7483 157.923 56.3666C158.678 56.9848 159.068 57.8894 159.09 59.0801C159.09 60.248 158.655 62.057 157.785 64.5073C156.915 66.9575 156.48 68.423 156.48 68.9039C156.503 69.2245 156.56 69.4421 156.652 69.5566C156.743 69.671 156.915 69.7283 157.167 69.7283C157.808 69.7283 158.403 69.3848 158.953 68.6978C159.503 68.0109 159.949 67.072 160.293 65.8812C160.361 65.6293 160.43 65.4805 160.499 65.4347C160.567 65.3889 160.751 65.366 161.048 65.366C161.506 65.366 161.735 65.4576 161.735 65.6408C161.735 65.6637 161.689 65.8354 161.598 66.156C161.231 67.5071 160.648 68.6177 159.846 69.4879C159.068 70.4725 158.14 70.9649 157.064 70.9649H156.892C155.816 70.9649 155.037 70.6557 154.556 70.0374C154.075 69.4192 153.835 68.7665 153.835 68.0795C153.835 67.7132 154.247 66.3621 155.072 64.0264C155.896 61.6906 156.32 59.9389 156.342 58.771C156.342 57.4199 155.839 56.7444 154.831 56.7444H154.659C152.759 56.7444 151.11 57.8665 149.713 60.1106L149.473 60.5571L148.305 65.1942C147.572 68.1711 147.148 69.797 147.034 70.0718C146.736 70.6901 146.232 70.9992 145.523 70.9992C145.202 70.9992 144.927 70.8962 144.698 70.6901C144.469 70.484 144.343 70.2779 144.32 70.0718C144.32 69.7512 145.156 66.2705 146.828 59.6297L149.37 49.4624C149.37 49.1647 149.29 48.9816 149.129 48.9129C148.969 48.8442 148.522 48.7869 147.79 48.7411H147.068C146.931 48.6037 146.862 48.5121 146.862 48.4663C146.862 48.4205 146.885 48.203 146.931 47.8137C147.045 47.3786 147.194 47.1611 147.377 47.1611Z" fill="black"/>
<path d="M163.178 60.7632C163.178 60.4426 163.35 59.8931 163.693 59.1145C164.037 58.3359 164.586 57.523 165.342 56.6757C166.098 55.8284 166.945 55.4163 167.884 55.4392C168.823 55.4392 169.578 55.7025 170.151 56.2292C170.723 56.7559 171.021 57.4886 171.044 58.4275C170.998 58.8626 170.964 59.103 170.941 59.1488C170.941 59.2175 170.758 59.7442 170.391 60.7289C170.025 61.7136 169.647 62.8242 169.258 64.0607C168.868 65.2973 168.685 66.282 168.708 67.0147C168.708 67.9994 168.868 68.6864 169.189 69.0757C169.51 69.465 169.99 69.6711 170.632 69.694C171.158 69.694 171.651 69.568 172.109 69.3161C172.567 69.0642 172.922 68.8009 173.173 68.5261C173.425 68.2513 173.734 67.8735 174.101 67.3926C174.101 67.3697 174.158 67.1407 174.273 66.7056C174.387 66.2705 174.547 65.595 174.754 64.679C174.96 63.763 175.177 62.9158 175.406 62.1372C176.276 58.7023 176.757 56.9047 176.849 56.7444C177.146 56.1261 177.639 55.817 178.326 55.817C178.623 55.817 178.864 55.8971 179.047 56.0574C179.23 56.2177 179.356 56.3551 179.425 56.4696C179.494 56.5841 179.517 56.6872 179.494 56.7788C179.494 57.0765 178.933 59.4809 177.811 63.992C176.688 68.5032 176.047 70.9763 175.887 71.4114C175.246 73.312 174.135 74.8234 172.555 75.9455C170.975 77.0675 169.395 77.64 167.815 77.6629C166.785 77.6629 165.88 77.411 165.101 76.9072C164.323 76.4034 163.934 75.6478 163.934 74.6402C163.934 74.1364 164.014 73.7128 164.174 73.3693C164.334 73.0258 164.552 72.7739 164.827 72.6136C165.101 72.4533 165.33 72.3388 165.514 72.2701C165.697 72.2014 165.891 72.1671 166.098 72.1671C167.105 72.1671 167.609 72.648 167.609 73.6097C167.609 74.0677 167.472 74.4685 167.197 74.8119C166.922 75.1554 166.659 75.3844 166.407 75.4989C166.155 75.6134 166.006 75.6707 165.96 75.6707L165.857 75.705C165.903 75.8195 166.12 75.9569 166.51 76.1172C166.899 76.2775 167.288 76.3576 167.678 76.3576H167.952C168.342 76.3576 168.639 76.3347 168.845 76.2889C169.601 76.0829 170.3 75.6478 170.941 74.9837C171.582 74.3196 172.074 73.6097 172.418 72.8541C172.761 72.0984 173.025 71.4572 173.208 70.9305C173.391 70.4038 173.483 70.0603 173.483 69.9L173.276 70.0374C173.139 70.129 172.922 70.255 172.624 70.4153C172.326 70.5756 172.028 70.713 171.731 70.8275C171.273 70.942 170.826 70.9992 170.391 70.9992C169.338 70.9992 168.41 70.7473 167.609 70.2435C166.807 69.7398 166.281 68.9268 166.029 67.8048C166.006 67.6445 165.995 67.2895 165.995 66.7399C165.995 65.4347 166.395 63.7287 167.197 61.622C167.998 59.5152 168.399 58.1756 168.399 57.6031C168.399 57.5802 168.399 57.5573 168.399 57.5344C168.399 57.3283 168.399 57.1909 168.399 57.1223C168.399 57.0536 168.353 56.9734 168.262 56.8818C168.17 56.7902 168.044 56.7444 167.884 56.7444H167.746C167.22 56.7444 166.739 56.962 166.304 57.397C165.869 57.8321 165.525 58.3016 165.273 58.8053C165.021 59.3091 164.827 59.79 164.689 60.248C164.552 60.706 164.46 60.9579 164.414 61.0037C164.369 61.0495 164.185 61.0724 163.865 61.0724H163.384C163.247 60.935 163.178 60.8319 163.178 60.7632Z" fill="black"/>
<path d="M180.078 60.7632C180.1 60.6945 180.123 60.6029 180.146 60.4884C180.169 60.3739 180.226 60.1221 180.318 59.7328C180.41 59.3435 180.524 58.9885 180.662 58.668C180.799 58.3474 180.971 57.9695 181.177 57.5344C181.383 57.0994 181.612 56.7559 181.864 56.504C182.116 56.2521 182.413 56.0002 182.757 55.7483C183.1 55.4964 183.478 55.3934 183.89 55.4392C185.608 55.4392 186.707 56.1719 187.188 57.6375L187.531 57.3283C188.951 56.0689 190.302 55.4392 191.584 55.4392C193.073 55.4392 194.241 55.9773 195.088 57.0536C195.935 58.1298 196.359 59.4351 196.359 60.9693C196.359 63.4425 195.489 65.7209 193.748 67.8048C192.008 69.8886 190.039 70.942 187.84 70.9649C187.337 70.9649 186.89 70.8962 186.501 70.7588C186.249 70.6443 185.986 70.4725 185.711 70.2435C185.436 70.0145 185.218 69.8199 185.058 69.6596L184.818 69.3848C184.795 69.4077 184.543 70.4038 184.062 72.3732C183.581 74.3425 183.341 75.3386 183.341 75.3615C183.341 75.4989 183.432 75.5791 183.616 75.602C183.799 75.6249 184.222 75.6592 184.886 75.705H185.745C185.883 75.8653 185.951 75.9684 185.951 76.0142C185.951 76.06 185.917 76.266 185.848 76.6324C185.779 76.9072 185.711 77.079 185.642 77.1477C185.573 77.2164 185.425 77.2622 185.196 77.2851C185.15 77.2851 185.024 77.2851 184.818 77.2851C184.612 77.2851 184.222 77.2736 183.65 77.2507C183.077 77.2278 182.367 77.2164 181.52 77.2164C179.917 77.2164 178.898 77.2393 178.463 77.2851H178.188C178.028 77.1248 177.948 76.9988 177.948 76.9072C177.994 76.2889 178.143 75.8882 178.394 75.705H179.081C179.86 75.6821 180.307 75.5447 180.421 75.2928C180.49 75.1554 181.188 72.419 182.516 67.0834C183.845 61.7479 184.543 58.9198 184.612 58.5993C184.635 58.4848 184.646 58.3245 184.646 58.1184C184.646 57.1795 184.36 56.7101 183.787 56.7101C183.283 56.7101 182.86 57.0307 182.516 57.6718C182.173 58.313 181.91 59.0114 181.726 59.7671C181.543 60.5228 181.406 60.935 181.314 61.0037C181.268 61.0495 181.085 61.0724 180.765 61.0724H180.284C180.146 60.935 180.078 60.8319 180.078 60.7632ZM185.402 67.1178C185.905 68.8581 186.753 69.7283 187.943 69.7283C188.63 69.7283 189.295 69.465 189.936 68.9383C190.577 68.4116 191.104 67.7475 191.516 66.946C191.928 66.1675 192.34 64.9309 192.752 63.2364C193.165 61.5418 193.382 60.2824 193.405 59.458V59.2519C193.405 57.5573 192.707 56.7101 191.31 56.7101C191.058 56.7101 190.806 56.7444 190.554 56.8131C190.302 56.8818 190.05 56.9849 189.798 57.1223C189.546 57.2596 189.317 57.4085 189.111 57.5688C188.905 57.7291 188.711 57.9008 188.527 58.084C188.344 58.2672 188.172 58.439 188.012 58.5993C187.852 58.7596 187.726 58.9198 187.634 59.0801C187.543 59.2404 187.451 59.3549 187.36 59.4236L187.256 59.561C187.256 59.5839 187.222 59.7442 187.153 60.0419C187.085 60.3396 186.959 60.8434 186.776 61.5533C186.592 62.2631 186.432 62.8585 186.295 63.3394C185.699 65.7667 185.402 67.0262 185.402 67.1178Z" fill="black"/>
<path d="M200 39.5013H139.237V37.4403H200V39.5013Z" fill="black"/>
</svg>
