<svg width="200" height="30" viewBox="0 0 200 30" fill="none" xmlns="http://www.w3.org/2000/svg">
<path d="M4.81492 18.8144C4.81492 19.2597 5.24167 19.5194 6.09518 19.5936C6.42917 19.5936 6.59616 19.6957 6.59616 19.8998C6.59616 19.9184 6.5776 20.039 6.54049 20.2616C6.48483 20.5214 6.42917 20.6884 6.3735 20.7626C6.31784 20.8368 6.19723 20.8739 6.01169 20.8739C5.97458 20.8739 5.86325 20.8739 5.67771 20.8739C5.49216 20.8739 5.17673 20.8646 4.73142 20.8461C4.28611 20.8275 3.69236 20.8183 2.95018 20.8183C1.6328 20.8183 0.78857 20.8368 0.417478 20.8739H0.194823C0.0649411 20.744 0 20.642 0 20.5678C0.0371092 20.0668 0.157714 19.7421 0.361815 19.5936H0.751461C2.05028 19.538 2.99657 19.0741 3.59031 18.2021C3.70164 18.0907 5.38083 15.2612 8.62789 9.71333C11.8749 4.1655 13.5263 1.35448 13.582 1.28026C13.7118 1.05761 13.9345 0.94628 14.2499 0.94628H14.4726H14.9457C15.0571 1.11327 15.1127 1.20604 15.1127 1.2246L15.892 10.2143C16.4115 16.2074 16.6899 19.2318 16.727 19.2875C16.8197 19.4916 17.4228 19.5936 18.536 19.5936C18.9999 19.5936 19.2318 19.6864 19.2318 19.872C19.2318 19.9091 19.204 20.039 19.1483 20.2616C19.0927 20.5399 19.0463 20.7069 19.0092 20.7626C18.9721 20.8183 18.8422 20.8554 18.6195 20.8739C18.5639 20.8739 18.434 20.8739 18.2299 20.8739C18.0258 20.8739 17.664 20.8646 17.1444 20.8461C16.6249 20.8275 15.9477 20.8183 15.1127 20.8183C13.3686 20.8183 12.2275 20.8368 11.6894 20.8739H11.3554C11.2441 20.7626 11.1884 20.6791 11.1884 20.6234C11.1884 20.5678 11.207 20.4008 11.2441 20.1225C11.3183 19.8812 11.374 19.7328 11.4111 19.6771L11.5224 19.5936H12.079C13.081 19.538 13.6747 19.3803 13.8603 19.1205L13.5263 14.9457H6.90231L5.95603 16.56C5.19529 17.8402 4.81492 18.5917 4.81492 18.8144ZM13.3871 13.6376C13.3871 13.4335 13.2758 11.9863 13.0532 9.29585C12.8305 6.60543 12.7006 5.25095 12.6635 5.23239L11.9121 6.42916C11.6152 6.93014 11.0307 7.92281 10.1586 9.40718L7.65377 13.6376L10.5205 13.6655C12.4316 13.6655 13.3871 13.6562 13.3871 13.6376Z" fill="black"/>
<path d="M20.313 19.4014C20.313 19.2177 20.4114 18.9029 20.6082 18.4569C20.805 18.0108 21.1198 17.5451 21.5527 17.0598C21.9856 16.5744 22.471 16.3383 23.0088 16.3514C23.5467 16.3514 23.9796 16.5023 24.3075 16.804C24.6355 17.1057 24.806 17.5255 24.8191 18.0633C24.7929 18.3126 24.7732 18.4503 24.7601 18.4765C24.7601 18.5159 24.6551 18.8176 24.4453 19.3817C24.2354 19.9458 24.0189 20.582 23.7959 21.2904C23.5729 21.9987 23.468 22.5628 23.4811 22.9826C23.4811 23.5467 23.5729 23.9402 23.7566 24.1632C23.9402 24.3862 24.2157 24.5043 24.583 24.5174C24.8847 24.5174 25.1667 24.4453 25.4291 24.301C25.6915 24.1567 25.8948 24.0058 26.0391 23.8484C26.1834 23.691 26.3605 23.4745 26.5704 23.1991C26.5704 23.1859 26.6032 23.0548 26.6688 22.8055C26.7344 22.5563 26.8262 22.1693 26.9442 21.6446C27.0623 21.1198 27.1869 20.6345 27.3181 20.1884C27.8166 18.2207 28.0921 17.191 28.1446 17.0991C28.3151 16.7449 28.5971 16.5679 28.9907 16.5679C29.1612 16.5679 29.2989 16.6138 29.4039 16.7056C29.5088 16.7974 29.581 16.8761 29.6203 16.9417C29.6597 17.0073 29.6728 17.0663 29.6597 17.1188C29.6597 17.2893 29.3383 18.6667 28.6955 21.251C28.0527 23.8353 27.6854 25.252 27.5936 25.5013C27.2263 26.5901 26.5901 27.4559 25.6849 28.0987C24.7798 28.7414 23.8746 29.0694 22.9695 29.0825C22.3791 29.0825 21.861 28.9382 21.415 28.6496C20.969 28.361 20.7459 27.9281 20.7459 27.3509C20.7459 27.0623 20.7919 26.8196 20.8837 26.6229C20.9755 26.4261 21.1001 26.2818 21.2576 26.19C21.415 26.0982 21.5462 26.0326 21.6511 25.9932C21.756 25.9539 21.8675 25.9342 21.9856 25.9342C22.5628 25.9342 22.8514 26.2097 22.8514 26.7606C22.8514 27.023 22.7727 27.2525 22.6153 27.4493C22.4579 27.6461 22.307 27.7773 22.1627 27.8429C22.0184 27.9084 21.9331 27.9412 21.9069 27.9412L21.8479 27.9609C21.8741 28.0265 21.9987 28.1052 22.2217 28.197C22.4447 28.2889 22.6677 28.3348 22.8908 28.3348H23.0482C23.2712 28.3348 23.4417 28.3217 23.5598 28.2954C23.9927 28.1774 24.3928 27.9281 24.7601 27.5477C25.1274 27.1673 25.4094 26.7606 25.6062 26.3277C25.803 25.8948 25.9538 25.5275 26.0588 25.2258C26.1637 24.9241 26.2162 24.7273 26.2162 24.6355L26.0981 24.7142C26.0194 24.7667 25.8948 24.8388 25.7243 24.9306C25.5537 25.0225 25.3832 25.1012 25.2127 25.1668C24.9503 25.2324 24.6945 25.2652 24.4453 25.2652C23.8418 25.2652 23.3105 25.1209 22.8514 24.8323C22.3923 24.5437 22.0906 24.078 21.9463 23.4352C21.9331 23.3434 21.9266 23.14 21.9266 22.8252C21.9266 22.0775 22.1561 21.1002 22.6153 19.8933C23.0744 18.6864 23.304 17.919 23.304 17.5911C23.304 17.5779 23.304 17.5648 23.304 17.5517C23.304 17.4336 23.304 17.3549 23.304 17.3156C23.304 17.2762 23.2777 17.2303 23.2253 17.1778C23.1728 17.1254 23.1006 17.0991 23.0088 17.0991H22.9301C22.6284 17.0991 22.3529 17.2238 22.1037 17.473C21.8544 17.7222 21.6577 17.9912 21.5134 18.2798C21.3691 18.5684 21.2576 18.8438 21.1788 19.1062C21.1001 19.3686 21.0477 19.5129 21.0214 19.5391C20.9952 19.5653 20.8902 19.5785 20.7066 19.5785H20.4311C20.3524 19.4997 20.313 19.4407 20.313 19.4014Z" fill="black"/>
<path d="M40.2255 11.2162C40.2255 10.975 40.3553 10.7895 40.6151 10.6596H58.344C58.6223 10.808 58.7615 10.9936 58.7615 11.2162C58.7615 11.4203 58.6316 11.5966 58.3719 11.7451L49.5213 11.7729H40.6708C40.3739 11.6801 40.2255 11.4946 40.2255 11.2162ZM40.2255 16.6156C40.2255 16.3373 40.3739 16.1518 40.6708 16.059H58.3719C58.6316 16.2445 58.7615 16.4301 58.7615 16.6156C58.7615 16.8568 58.6223 17.0424 58.344 17.1723H40.6151C40.3553 17.0424 40.2255 16.8568 40.2255 16.6156Z" fill="black"/>
<path d="M70.6652 13.9159C70.6652 12.6357 70.7579 11.4204 70.9435 10.27C71.129 9.11958 71.3424 8.12691 71.5836 7.29196C71.8248 6.457 72.1681 5.6406 72.6134 4.84275C73.0587 4.0449 73.4112 3.42332 73.671 2.97801C73.9308 2.5327 74.3204 2.05028 74.8399 1.53075C75.3595 1.01123 75.6656 0.695798 75.7584 0.58447C75.8512 0.473143 76.0831 0.278319 76.4542 5.06639e-07H76.816H76.9273C77.1871 5.06639e-07 77.317 0.0834962 77.317 0.250488C77.317 0.306151 77.1593 0.500975 76.8438 0.834957C76.5284 1.16894 76.148 1.66064 75.7027 2.31005C75.2574 2.95946 74.8028 3.75731 74.339 4.70359C73.8751 5.64987 73.4855 6.93014 73.17 8.54439C72.8546 10.1586 72.6969 11.9492 72.6969 13.9159C72.6969 15.8827 72.8546 17.664 73.17 19.2597C73.4855 20.8554 73.8658 22.1449 74.3111 23.1283C74.7564 24.1117 75.211 24.9095 75.6749 25.5218C76.1388 26.1341 76.5284 26.6258 76.8438 26.9969C77.1593 27.368 77.317 27.5629 77.317 27.5814C77.317 27.7484 77.1778 27.8319 76.8995 27.8319H76.816H76.4542L75.6749 27.1639C73.9308 25.5868 72.6598 23.62 71.8619 21.2636C71.0641 18.9071 70.6652 16.4579 70.6652 13.9159Z" fill="black"/>
<path d="M83.44 16.5043C83.44 16.9496 83.2916 17.3207 82.9947 17.6176C82.6979 17.9145 82.336 18.0629 81.9093 18.0629H81.7145C82.568 19.5287 83.6998 20.2616 85.11 20.2616C86.4088 20.2616 87.3551 19.705 87.9488 18.5917C88.3014 17.9794 88.4776 16.7919 88.4776 15.0292C88.4776 13.1181 88.2271 11.8286 87.7262 11.1606C87.2437 10.5483 86.7057 10.2421 86.1119 10.2421H85.9449C84.4977 10.2421 83.4029 10.873 82.6608 12.1347C82.5865 12.2646 82.5216 12.3388 82.4659 12.3574C82.4103 12.3759 82.2711 12.3945 82.0485 12.413C81.733 12.413 81.5568 12.3574 81.5196 12.246C81.4825 12.1718 81.464 10.5483 81.464 7.37545V3.78514C81.464 2.85741 81.5104 2.39354 81.6031 2.39354C81.6403 2.35643 81.6774 2.33788 81.7145 2.33788C81.733 2.33788 81.9278 2.4121 82.2989 2.56053C82.67 2.70897 83.1803 2.85741 83.8297 3.00584C84.4791 3.15428 85.1749 3.2285 85.9171 3.2285C87.2345 3.2285 88.4962 2.96873 89.7022 2.4492C89.8507 2.37499 89.9713 2.33788 90.064 2.33788C90.2125 2.33788 90.2867 2.50487 90.2867 2.83885V3.20067C88.7652 5.00046 86.8634 5.90036 84.5812 5.90036C84.006 5.90036 83.4864 5.8447 83.0226 5.73337L82.7443 5.6777V10.4648C83.0968 10.205 83.3751 10.0009 83.5792 9.85249C83.7833 9.70405 84.1173 9.55562 84.5812 9.40718C85.045 9.25874 85.5182 9.18452 86.0006 9.18452C87.5035 9.18452 88.7745 9.78755 89.8136 10.9936C90.8526 12.1996 91.3721 13.6283 91.3721 15.2797C91.3721 16.9867 90.7784 18.4433 89.5909 19.6493C88.4034 20.8554 86.9561 21.4677 85.2491 21.4862C83.7462 21.4862 82.5402 20.9852 81.631 19.9833C80.7218 18.9814 80.2672 17.8495 80.2672 16.5878C80.2672 16.1425 80.3693 15.79 80.5734 15.5302C80.7775 15.2704 80.9908 15.1034 81.2135 15.0292C81.4362 14.955 81.6495 14.9179 81.8536 14.9179C82.3175 14.9179 82.6979 15.0756 82.9947 15.391C83.2916 15.7065 83.44 16.0776 83.44 16.5043Z" fill="black"/>
<path d="M94.4614 0.0278324L94.5728 5.06639e-07C94.6655 5.06639e-07 94.7583 5.06639e-07 94.8511 5.06639e-07H95.1851L95.9643 0.667966C97.7085 2.24511 98.9795 4.21189 99.7773 6.56833C100.575 8.92476 100.974 11.374 100.974 13.9159C100.974 15.1777 100.881 16.393 100.696 17.5619C100.51 18.7309 100.297 19.7235 100.056 20.5399C99.8144 21.3563 99.4712 22.1727 99.0259 22.9891C98.5805 23.8055 98.228 24.4271 97.9682 24.8539C97.7085 25.2806 97.3281 25.7538 96.8271 26.2733C96.3262 26.7928 96.0293 27.099 95.9365 27.1918C95.8437 27.2845 95.6304 27.4608 95.2964 27.7206C95.2407 27.7762 95.2036 27.8133 95.1851 27.8319H94.8511C94.7026 27.8319 94.6006 27.8319 94.5449 27.8319C94.4893 27.8319 94.4429 27.8041 94.4058 27.7484C94.3687 27.6927 94.3408 27.6092 94.3223 27.4979C94.3408 27.4794 94.4429 27.3588 94.6284 27.1361C97.5044 24.1488 98.9424 19.7421 98.9424 13.9159C98.9424 8.0898 97.5044 3.68309 94.6284 0.695798C94.4429 0.473143 94.3408 0.352538 94.3223 0.333983C94.3223 0.185546 94.3687 0.0834962 94.4614 0.0278324Z" fill="black"/>
<path d="M104.564 16.4487C104.564 14.4262 105.362 12.6079 106.958 10.9936C108.554 9.37935 110.279 8.57223 112.135 8.57223C113.174 8.57223 113.99 8.79488 114.584 9.2402C115.178 9.68551 115.484 10.27 115.502 10.9936C115.502 11.5317 115.326 11.9863 114.974 12.3574C114.621 12.7285 114.176 12.9233 113.638 12.9418C113.285 12.9418 113.007 12.8491 112.803 12.6635C112.599 12.478 112.497 12.1997 112.497 11.8286C112.497 11.4575 112.599 11.142 112.803 10.8823C113.007 10.6225 113.211 10.4277 113.415 10.2978C113.619 10.1679 113.749 10.1123 113.805 10.1308H113.832C113.832 10.0937 113.777 10.038 113.665 9.96382C113.554 9.88961 113.359 9.81539 113.081 9.74117C112.803 9.66695 112.487 9.62984 112.135 9.62984C111.578 9.62984 111.049 9.75972 110.548 10.0195C110.159 10.1865 109.76 10.4741 109.352 10.8823C108.535 11.6987 107.941 12.8491 107.57 14.3334C107.199 15.8178 107.004 16.894 106.986 17.5619C106.986 18.4154 107.227 19.0556 107.709 19.4823C108.118 19.9276 108.656 20.1503 109.324 20.1503H109.435C111.513 20.1503 113.229 19.3617 114.584 17.7846C114.751 17.599 114.862 17.5063 114.918 17.5063C114.992 17.5063 115.113 17.5898 115.28 17.7568C115.447 17.9237 115.539 18.0536 115.558 18.1464C115.577 18.2392 115.493 18.3783 115.308 18.5639C115.122 18.7494 114.853 19.0092 114.5 19.3432C114.148 19.6772 113.73 19.9555 113.248 20.1781C112.766 20.4008 112.172 20.6327 111.467 20.8739C110.762 21.1151 110.02 21.2172 109.24 21.1801C107.849 21.1801 106.726 20.7348 105.873 19.8441C105.019 18.9535 104.583 17.8217 104.564 16.4487Z" fill="black"/>
<path d="M121.264 21.1801C119.872 21.1801 118.749 20.7255 117.896 19.8163C117.042 18.9071 116.616 17.8124 116.616 16.5321C116.616 15.3261 116.894 14.185 117.451 13.1088C118.007 12.0327 118.768 11.0956 119.733 10.2978C121.143 9.16597 122.581 8.60005 124.047 8.60005C124.641 8.60005 125.012 8.60933 125.16 8.62788C125.401 8.68355 125.642 8.74849 125.884 8.82271C126.125 8.89693 126.45 9.04536 126.858 9.26802C127.266 9.49067 127.6 9.76899 127.86 10.103C128.12 10.437 128.361 10.8915 128.583 11.4667C128.806 12.0419 128.917 12.6913 128.917 13.415C128.917 15.4003 128.12 17.1908 126.524 18.7865C124.928 20.3822 123.175 21.1801 121.264 21.1801ZM119.037 17.5341C119.037 18.4618 119.278 19.1298 119.761 19.538C120.243 19.9462 120.79 20.1503 121.403 20.1503C122.219 20.1503 122.989 19.8534 123.713 19.2597C124.436 18.6659 125.012 17.8866 125.438 16.9218C125.605 16.5321 125.819 15.8456 126.079 14.8622C126.338 13.8788 126.468 13.0253 126.468 12.3017C126.468 11.4853 126.301 10.8637 125.967 10.437C125.522 9.88032 124.928 9.602 124.186 9.602C123.017 9.602 121.987 10.1401 121.097 11.2162C120.41 12.0327 119.9 13.1181 119.566 14.4726C119.232 15.8271 119.056 16.8476 119.037 17.5341Z" fill="black"/>
<path d="M132.814 12.8305C132.814 12.2368 132.962 11.6337 133.259 11.0214C133.556 10.4091 134.076 9.84321 134.818 9.32368C135.56 8.80415 136.46 8.55367 137.517 8.57222C138.668 8.57222 139.503 8.82271 140.022 9.32368C140.542 9.82466 140.811 10.3813 140.829 10.9936C140.829 11.5873 140.672 12.0234 140.356 12.3017C140.041 12.58 139.688 12.7285 139.299 12.747C139.057 12.747 138.835 12.6728 138.631 12.5243C138.427 12.3759 138.315 12.1347 138.297 11.8007C138.297 11.5038 138.38 11.2441 138.547 11.0214C138.714 10.7988 138.872 10.6318 139.02 10.5205C139.169 10.4091 139.289 10.3535 139.382 10.3535C139.401 10.3535 139.41 10.3442 139.41 10.3256C139.41 10.27 139.345 10.1865 139.215 10.0751C139.085 9.96382 138.853 9.86177 138.519 9.76899C138.185 9.67622 137.824 9.62056 137.434 9.602C136.543 9.602 135.894 9.84321 135.486 10.3256C135.077 10.808 134.864 11.2997 134.846 11.8007C134.846 12.2646 135.022 12.5893 135.374 12.7748C135.727 12.9604 136.237 13.1181 136.905 13.248C137.573 13.3779 138.056 13.517 138.352 13.6655C139.577 14.2035 140.189 15.0942 140.189 16.3373C140.189 16.8568 140.087 17.3764 139.883 17.8959C139.679 18.4154 139.373 18.935 138.965 19.4545C138.556 19.974 137.972 20.3822 137.211 20.6791C136.451 20.976 135.578 21.1337 134.595 21.1522C133.166 21.1522 132.155 20.8832 131.561 20.3451C130.968 19.807 130.661 19.1762 130.643 18.4525C130.643 17.7289 130.838 17.2094 131.227 16.894C131.617 16.5785 132.025 16.4208 132.452 16.4208C132.73 16.4208 132.99 16.5043 133.231 16.6713C133.473 16.8383 133.602 17.1259 133.621 17.5341C133.621 18.0165 133.454 18.4247 133.12 18.7587C132.786 19.0927 132.498 19.2597 132.257 19.2597C132.22 19.2782 132.192 19.2875 132.174 19.2875C132.155 19.2875 132.146 19.3061 132.146 19.3432C132.164 19.3988 132.239 19.473 132.369 19.5658C132.498 19.6586 132.786 19.7792 133.231 19.9276C133.677 20.0761 134.187 20.141 134.762 20.1225C135.43 20.1225 136.005 20.0204 136.488 19.8163C136.97 19.6122 137.323 19.3524 137.545 19.037C137.768 18.7216 137.926 18.434 138.018 18.1742C138.111 17.9145 138.158 17.6825 138.158 17.4784C138.158 16.9589 137.963 16.5693 137.573 16.3095C137.183 16.0497 136.738 15.892 136.237 15.8363C135.736 15.7807 135.189 15.6415 134.595 15.4189C134.001 15.1962 133.565 14.8715 133.287 14.4448C132.972 13.9809 132.814 13.4428 132.814 12.8305Z" fill="black"/>
<path d="M144.837 13.9159C144.837 12.6357 144.93 11.4204 145.115 10.27C145.301 9.11958 145.514 8.12691 145.756 7.29196C145.997 6.457 146.34 5.6406 146.785 4.84275C147.231 4.0449 147.583 3.42332 147.843 2.97801C148.103 2.5327 148.492 2.05028 149.012 1.53075C149.531 1.01123 149.838 0.695798 149.93 0.58447C150.023 0.473143 150.255 0.278319 150.626 5.06639e-07H150.988H151.099C151.359 5.06639e-07 151.489 0.0834962 151.489 0.250488C151.489 0.306151 151.331 0.500975 151.016 0.834957C150.7 1.16894 150.32 1.66064 149.875 2.31005C149.429 2.95946 148.975 3.75731 148.511 4.70359C148.047 5.64987 147.657 6.93014 147.342 8.54439C147.027 10.1586 146.869 11.9492 146.869 13.9159C146.869 15.8827 147.027 17.664 147.342 19.2597C147.657 20.8554 148.038 22.1449 148.483 23.1283C148.928 24.1117 149.383 24.9095 149.847 25.5218C150.311 26.1341 150.7 26.6258 151.016 26.9969C151.331 27.368 151.489 27.5629 151.489 27.5814C151.489 27.7484 151.35 27.8319 151.072 27.8319H150.988H150.626L149.847 27.1639C148.103 25.5868 146.832 23.62 146.034 21.2636C145.236 18.9071 144.837 16.4579 144.837 13.9159Z" fill="black"/>
<path d="M156.582 7.98775C156.081 7.98775 155.692 7.83004 155.413 7.51461C155.135 7.19918 154.987 6.79098 154.968 6.29001C154.968 5.2695 155.413 4.36033 156.304 3.56248C157.195 2.76463 158.271 2.36571 159.532 2.36571C160.182 2.36571 160.59 2.37499 160.757 2.39354C162.13 2.6162 163.178 3.10789 163.902 3.86863C164.626 4.62937 164.997 5.45505 165.015 6.34567C165.015 7.31051 164.7 8.24752 164.069 9.15669C163.438 10.0659 162.566 10.7246 161.453 11.1328L161.369 11.1884C161.369 11.207 161.453 11.2348 161.62 11.2719C161.787 11.309 162.056 11.3925 162.427 11.5224C162.798 11.6523 163.151 11.8471 163.485 12.1069C165.006 13.0903 165.767 14.3891 165.767 16.0033C165.767 17.4692 165.192 18.7494 164.041 19.8441C162.891 20.9389 161.434 21.4862 159.672 21.4862C158.187 21.4862 156.907 21.0873 155.831 20.2894C154.755 19.4916 154.217 18.4804 154.217 17.2558C154.217 16.7362 154.384 16.3188 154.718 16.0033C155.052 15.6879 155.469 15.5209 155.97 15.5024C156.489 15.5024 156.916 15.6694 157.25 16.0033C157.584 16.3373 157.751 16.7548 157.751 17.2558C157.751 17.4599 157.723 17.6454 157.668 17.8124C157.612 17.9794 157.547 18.1278 157.473 18.2577C157.399 18.3876 157.297 18.4989 157.167 18.5917C157.037 18.6845 156.926 18.7587 156.833 18.8144C156.74 18.87 156.647 18.9071 156.554 18.9257C156.462 18.9442 156.387 18.9721 156.332 19.0092L156.22 19.037C157.167 19.872 158.317 20.2894 159.672 20.2894C160.692 20.2894 161.462 19.7978 161.982 18.8144C162.297 18.2021 162.455 17.2651 162.455 16.0033V15.4467C162.455 13.684 161.861 12.5058 160.674 11.912C160.395 11.8007 159.829 11.7358 158.976 11.7172L157.807 11.6894L157.723 11.6337C157.686 11.5781 157.668 11.4296 157.668 11.1884C157.668 10.8544 157.742 10.6874 157.89 10.6874C158.41 10.6874 158.948 10.6411 159.505 10.5483C160.135 10.4555 160.711 10.0659 161.23 9.37935C161.75 8.69283 162.009 7.65377 162.009 6.26217V6.03952C162.009 4.98191 161.685 4.249 161.035 3.8408C160.627 3.58104 160.191 3.45115 159.727 3.45115C159.134 3.45115 158.586 3.5532 158.085 3.7573C157.584 3.9614 157.232 4.17478 157.028 4.39744C156.823 4.62009 156.721 4.73142 156.721 4.73142H156.805C156.861 4.74997 156.935 4.76853 157.028 4.78708C157.12 4.80564 157.213 4.85203 157.306 4.92624C157.399 5.00046 157.51 5.0654 157.64 5.12107C157.77 5.17673 157.863 5.27878 157.918 5.42722C157.974 5.57565 158.048 5.71481 158.141 5.8447C158.234 5.97458 158.261 6.16012 158.224 6.40133C158.224 6.80954 158.094 7.17135 157.835 7.48678C157.575 7.80221 157.157 7.9692 156.582 7.98775Z" fill="black"/>
<path d="M171.528 16.5043C171.528 16.9496 171.38 17.3207 171.083 17.6176C170.786 17.9145 170.424 18.0629 169.997 18.0629H169.802C170.656 19.5287 171.788 20.2616 173.198 20.2616C174.497 20.2616 175.443 19.705 176.037 18.5917C176.389 17.9794 176.566 16.7919 176.566 15.0292C176.566 13.1181 176.315 11.8286 175.814 11.1606C175.332 10.5483 174.794 10.2421 174.2 10.2421H174.033C172.586 10.2421 171.491 10.873 170.749 12.1347C170.674 12.2646 170.61 12.3388 170.554 12.3574C170.498 12.3759 170.359 12.3945 170.136 12.413C169.821 12.413 169.645 12.3574 169.608 12.246C169.57 12.1718 169.552 10.5483 169.552 7.37545V3.78514C169.552 2.85741 169.598 2.39354 169.691 2.39354C169.728 2.35643 169.765 2.33788 169.802 2.33788C169.821 2.33788 170.016 2.4121 170.387 2.56053C170.758 2.70897 171.268 2.85741 171.918 3.00584C172.567 3.15428 173.263 3.2285 174.005 3.2285C175.322 3.2285 176.584 2.96873 177.79 2.4492C177.939 2.37499 178.059 2.33788 178.152 2.33788C178.3 2.33788 178.375 2.50487 178.375 2.83885V3.20067C176.853 5.00046 174.951 5.90036 172.669 5.90036C172.094 5.90036 171.574 5.8447 171.111 5.73337L170.832 5.6777V10.4648C171.185 10.205 171.463 10.0009 171.667 9.85249C171.871 9.70405 172.205 9.55562 172.669 9.40718C173.133 9.25874 173.606 9.18452 174.089 9.18452C175.591 9.18452 176.862 9.78755 177.902 10.9936C178.941 12.1996 179.46 13.6283 179.46 15.2797C179.46 16.9867 178.866 18.4433 177.679 19.6493C176.491 20.8554 175.044 21.4677 173.337 21.4862C171.834 21.4862 170.628 20.9852 169.719 19.9833C168.81 18.9814 168.355 17.8495 168.355 16.5878C168.355 16.1425 168.457 15.79 168.661 15.5302C168.865 15.2704 169.079 15.1034 169.301 15.0292C169.524 14.955 169.737 14.9179 169.942 14.9179C170.405 14.9179 170.786 15.0756 171.083 15.391C171.38 15.7065 171.528 16.0776 171.528 16.5043Z" fill="black"/>
<path d="M184.835 9.59579C183.851 9.59579 183.057 9.2744 182.454 8.63161C181.85 7.98883 181.549 7.21486 181.549 6.30971C181.549 5.45703 181.745 4.65027 182.139 3.88942C182.532 3.12857 183.07 2.46611 183.752 1.90203C184.749 1.10183 185.766 0.701723 186.802 0.701723C187.222 0.701723 187.484 0.708282 187.589 0.7214C187.76 0.760755 187.93 0.806668 188.101 0.85914C188.272 0.911613 188.501 1.01656 188.79 1.17397C189.078 1.33139 189.314 1.52816 189.498 1.76429C189.682 2.00042 189.852 2.32181 190.01 2.72847C190.167 3.13513 190.246 3.59426 190.246 4.10587C190.246 5.50951 189.682 6.7754 188.554 7.90356C187.425 9.03172 186.186 9.59579 184.835 9.59579ZM183.26 7.01809C183.26 7.67399 183.431 8.14624 183.772 8.43484C184.113 8.72344 184.5 8.86774 184.933 8.86774C185.51 8.86774 186.055 8.65785 186.566 8.23807C187.078 7.81829 187.484 7.26733 187.786 6.58519C187.904 6.30971 188.055 5.82434 188.239 5.12908C188.422 4.43382 188.514 3.83039 188.514 3.31878C188.514 2.74159 188.396 2.30213 188.16 2.00042C187.845 1.60687 187.425 1.4101 186.901 1.4101C186.074 1.4101 185.346 1.79053 184.717 2.55138C184.231 3.12857 183.87 3.89598 183.634 4.8536C183.398 5.81122 183.274 6.53272 183.26 7.01809Z" fill="black"/>
<path d="M193.487 0.0278324L193.599 5.06639e-07C193.691 5.06639e-07 193.784 5.06639e-07 193.877 5.06639e-07H194.211L194.99 0.667966C196.734 2.24511 198.005 4.21189 198.803 6.56833C199.601 8.92476 200 11.374 200 13.9159C200 15.1777 199.907 16.393 199.722 17.5619C199.536 18.7309 199.323 19.7235 199.082 20.5399C198.84 21.3563 198.497 22.1727 198.052 22.9891C197.606 23.8055 197.254 24.4271 196.994 24.8539C196.734 25.2806 196.354 25.7538 195.853 26.2733C195.352 26.7928 195.055 27.099 194.962 27.1918C194.87 27.2845 194.656 27.4608 194.322 27.7206C194.267 27.7762 194.229 27.8133 194.211 27.8319H193.877C193.729 27.8319 193.626 27.8319 193.571 27.8319C193.515 27.8319 193.469 27.8041 193.432 27.7484C193.395 27.6927 193.367 27.6092 193.348 27.4979C193.367 27.4794 193.469 27.3588 193.654 27.1361C196.53 24.1488 197.968 19.7421 197.968 13.9159C197.968 8.0898 196.53 3.68309 193.654 0.695798C193.469 0.473143 193.367 0.352538 193.348 0.333983C193.348 0.185546 193.395 0.0834962 193.487 0.0278324Z" fill="black"/>
</svg>
