<svg width="200" height="26" viewBox="0 0 200 26" fill="none" xmlns="http://www.w3.org/2000/svg">
<path d="M4.24396 19.3393C2.97332 19.3393 1.94833 18.9242 1.169 18.094C0.389665 17.2639 0 16.2643 0 15.0953C0 13.9941 0.25413 12.9521 0.762389 11.9695C1.27065 10.9869 1.96527 10.1313 2.84625 9.4028C4.13384 8.36934 5.44684 7.85261 6.78526 7.85261C7.3274 7.85261 7.66624 7.86108 7.80178 7.87802C8.02202 7.92885 8.24227 7.98814 8.46252 8.05591C8.68276 8.12368 8.97925 8.25922 9.35197 8.46252C9.72469 8.66582 10.0296 8.91995 10.2668 9.22491C10.504 9.52986 10.7243 9.94494 10.9276 10.4701C11.1309 10.9953 11.2325 11.5883 11.2325 12.2491C11.2325 14.0618 10.504 15.6967 9.04701 17.1538C7.59 18.6108 5.98899 19.3393 4.24396 19.3393ZM2.21093 16.0102C2.21093 16.8573 2.43117 17.4672 2.87166 17.8399C3.31216 18.2126 3.81194 18.399 4.37103 18.399C5.11648 18.399 5.81957 18.1279 6.4803 17.5858C7.14104 17.0436 7.66624 16.3321 8.05591 15.4511C8.20839 15.0953 8.40322 14.4684 8.64041 13.5705C8.87759 12.6726 8.99619 11.8933 8.99619 11.2325C8.99619 10.4871 8.84371 9.91953 8.53875 9.52986C8.13215 9.0216 7.59 8.76748 6.91232 8.76748C5.84498 8.76748 4.9047 9.25879 4.09149 10.2414C3.46463 10.9869 2.99873 11.978 2.69377 13.2147C2.38882 14.4515 2.22787 15.3833 2.21093 16.0102Z" fill="black"/>
<path d="M12.0458 11.7662C12.0627 11.7154 12.0796 11.6476 12.0966 11.5629C12.1135 11.4782 12.1559 11.2918 12.2236 11.0038C12.2914 10.7158 12.3761 10.4532 12.4778 10.216C12.5794 9.97883 12.7065 9.69928 12.859 9.37739C13.0114 9.05549 13.1809 8.80136 13.3672 8.615C13.5536 8.42864 13.7738 8.24227 14.028 8.05591C14.2821 7.86955 14.5616 7.79331 14.8666 7.82719C16.1372 7.82719 16.9505 8.36934 17.3062 9.45362L17.5604 9.22491C18.6108 8.2931 19.6103 7.82719 20.5591 7.82719C21.6603 7.82719 22.5244 8.22533 23.1512 9.0216C23.7781 9.81788 24.0915 10.7836 24.0915 11.9187C24.0915 13.7484 23.4477 15.4341 22.1601 16.9759C20.8725 18.5176 19.4155 19.2969 17.7891 19.3139C17.4164 19.3139 17.086 19.263 16.798 19.1614C16.6116 19.0767 16.4168 18.9496 16.2135 18.7802C16.0102 18.6108 15.8492 18.4668 15.7306 18.3482L15.5527 18.1449C15.5358 18.1618 15.3494 18.8988 14.9937 20.3558C14.6379 21.8128 14.46 22.5498 14.46 22.5667C14.46 22.6684 14.5278 22.7277 14.6633 22.7446C14.7988 22.7615 15.1123 22.787 15.6036 22.8208H16.2389C16.3405 22.9394 16.3914 23.0157 16.3914 23.0496C16.3914 23.0834 16.366 23.2359 16.3151 23.507C16.2643 23.7103 16.2135 23.8374 16.1627 23.8882C16.1118 23.939 16.0017 23.9729 15.8323 23.9898C15.7984 23.9898 15.7052 23.9898 15.5527 23.9898C15.4003 23.9898 15.1123 23.9814 14.6887 23.9644C14.2652 23.9475 13.74 23.939 13.1131 23.939C11.9272 23.939 11.1732 23.956 10.8513 23.9898H10.648C10.5295 23.8712 10.4702 23.7781 10.4702 23.7103C10.504 23.2529 10.6142 22.9564 10.8005 22.8208H11.3088C11.8848 22.8039 12.2152 22.7022 12.2999 22.5159C12.3507 22.4142 12.8674 20.3897 13.8501 16.4422C14.8327 12.4947 15.3494 10.4024 15.4003 10.1652C15.4172 10.0805 15.4257 9.96188 15.4257 9.80941C15.4257 9.11479 15.2139 8.76747 14.7904 8.76747C14.4176 8.76747 14.1042 9.00466 13.8501 9.47904C13.5959 9.95341 13.4011 10.4701 13.2656 11.0292C13.13 11.5883 13.0284 11.8933 12.9606 11.9441C12.9267 11.978 12.7912 11.9949 12.554 11.9949H12.1982C12.0966 11.8933 12.0458 11.817 12.0458 11.7662ZM15.9848 16.4676C16.3575 17.7552 16.9843 18.399 17.8653 18.399C18.3736 18.399 18.8649 18.2042 19.3393 17.8145C19.8137 17.4248 20.2033 16.9335 20.5083 16.3405C20.8132 15.7645 21.1182 14.8496 21.4231 13.5959C21.7281 12.3422 21.889 11.4104 21.906 10.8005V10.648C21.906 9.39433 21.3893 8.76747 20.3558 8.76747C20.1694 8.76747 19.9831 8.79289 19.7967 8.84371C19.6103 8.89454 19.424 8.97078 19.2376 9.07243C19.0513 9.17408 18.8818 9.2842 18.7294 9.4028C18.5769 9.52139 18.4329 9.64846 18.2973 9.78399C18.1618 9.91953 18.0347 10.0466 17.9162 10.1652C17.7976 10.2838 17.7044 10.4024 17.6366 10.521C17.5688 10.6396 17.5011 10.7243 17.4333 10.7751L17.3571 10.8767C17.3571 10.8937 17.3317 11.0123 17.2808 11.2325C17.23 11.4528 17.1368 11.8255 17.0013 12.3507C16.8657 12.8759 16.7472 13.3164 16.6455 13.6722C16.205 15.468 15.9848 16.3998 15.9848 16.4676Z" fill="black"/>
<path d="M24.8285 11.7662C24.8454 11.7154 24.8624 11.6476 24.8793 11.5629C24.8962 11.4782 24.9386 11.2918 25.0064 11.0038C25.0741 10.7158 25.1588 10.4532 25.2605 10.216C25.3621 9.97883 25.4892 9.69928 25.6417 9.37739C25.7942 9.05549 25.9636 8.80136 26.1499 8.615C26.3363 8.42864 26.5566 8.24227 26.8107 8.05591C27.0648 7.86955 27.3444 7.79331 27.6493 7.82719C28.92 7.82719 29.7332 8.36934 30.089 9.45362L30.3431 9.22491C31.3935 8.2931 32.3931 7.82719 33.3418 7.82719C34.443 7.82719 35.3071 8.22533 35.9339 9.0216C36.5608 9.81788 36.8742 10.7836 36.8742 11.9187C36.8742 13.7484 36.2304 15.4341 34.9428 16.9759C33.6552 18.5176 32.1982 19.2969 30.5718 19.3139C30.1991 19.3139 29.8687 19.263 29.5807 19.1614C29.3943 19.0767 29.1995 18.9496 28.9962 18.7802C28.7929 18.6108 28.6319 18.4668 28.5134 18.3482L28.3355 18.1449C28.3185 18.1618 28.1322 18.8988 27.7764 20.3558C27.4206 21.8128 27.2427 22.5498 27.2427 22.5667C27.2427 22.6684 27.3105 22.7277 27.446 22.7446C27.5815 22.7615 27.895 22.787 28.3863 22.8208H29.0216C29.1233 22.9394 29.1741 23.0157 29.1741 23.0496C29.1741 23.0834 29.1487 23.2359 29.0978 23.507C29.047 23.7103 28.9962 23.8374 28.9454 23.8882C28.8945 23.939 28.7844 23.9729 28.615 23.9898C28.5811 23.9898 28.4879 23.9898 28.3355 23.9898C28.183 23.9898 27.895 23.9814 27.4714 23.9644C27.0479 23.9475 26.5227 23.939 25.8958 23.939C24.7099 23.939 23.956 23.956 23.6341 23.9898H23.4308C23.3122 23.8712 23.2529 23.7781 23.2529 23.7103C23.2868 23.2529 23.3969 22.9564 23.5832 22.8208H24.0915C24.6675 22.8039 24.9979 22.7022 25.0826 22.5159C25.1334 22.4142 25.6502 20.3897 26.6328 16.4422C27.6154 12.4947 28.1322 10.4024 28.183 10.1652C28.1999 10.0805 28.2084 9.96188 28.2084 9.80941C28.2084 9.11479 27.9966 8.76747 27.5731 8.76747C27.2003 8.76747 26.8869 9.00466 26.6328 9.47904C26.3787 9.95341 26.1838 10.4701 26.0483 11.0292C25.9128 11.5883 25.8111 11.8933 25.7433 11.9441C25.7095 11.978 25.5739 11.9949 25.3367 11.9949H24.9809C24.8793 11.8933 24.8285 11.817 24.8285 11.7662ZM28.7675 16.4676C29.1402 17.7552 29.7671 18.399 30.648 18.399C31.1563 18.399 31.6476 18.2042 32.122 17.8145C32.5964 17.4248 32.986 16.9335 33.291 16.3405C33.5959 15.7645 33.9009 14.8496 34.2059 13.5959C34.5108 12.3422 34.6718 11.4104 34.6887 10.8005V10.648C34.6887 9.39433 34.172 8.76747 33.1385 8.76747C32.9521 8.76747 32.7658 8.79289 32.5794 8.84371C32.3931 8.89454 32.2067 8.97078 32.0203 9.07243C31.834 9.17408 31.6646 9.2842 31.5121 9.4028C31.3596 9.52139 31.2156 9.64846 31.0801 9.78399C30.9445 9.91953 30.8175 10.0466 30.6989 10.1652C30.5803 10.2838 30.4871 10.4024 30.4193 10.521C30.3516 10.6396 30.2838 10.7243 30.216 10.7751L30.1398 10.8767C30.1398 10.8937 30.1144 11.0123 30.0635 11.2325C30.0127 11.4528 29.9195 11.8255 29.784 12.3507C29.6485 12.8759 29.5299 13.3164 29.4282 13.6722C28.9877 15.468 28.7675 16.3998 28.7675 16.4676Z" fill="black"/>
<path d="M45.5095 10.2414C45.5095 10.0212 45.6281 9.85176 45.8653 9.73317H62.0534C62.3075 9.8687 62.4346 10.0381 62.4346 10.2414C62.4346 10.4278 62.316 10.5887 62.0788 10.7243L53.9974 10.7497H45.9161C45.6451 10.665 45.5095 10.4956 45.5095 10.2414ZM45.5095 15.1715C45.5095 14.9174 45.6451 14.748 45.9161 14.6633H62.0788C62.316 14.8327 62.4346 15.0021 62.4346 15.1715C62.4346 15.3918 62.3075 15.5612 62.0534 15.6798H45.8653C45.6281 15.5612 45.5095 15.3918 45.5095 15.1715Z" fill="black"/>
<path d="M74.399 1.70267C74.4159 1.70267 75.0258 1.66032 76.2287 1.57561C77.4316 1.4909 78.05 1.44007 78.0838 1.42313C78.2871 1.42313 78.3888 1.49937 78.3888 1.65185C78.3888 1.83821 78.0838 3.11733 77.4739 5.4892C76.8301 7.99662 76.5082 9.27573 76.5082 9.32656C76.5082 9.36044 76.5675 9.31809 76.6861 9.1995C77.7196 8.28463 78.8208 7.8272 79.9898 7.8272C80.9047 7.8272 81.6417 8.05591 82.2007 8.51335C82.7598 8.97078 83.0478 9.63999 83.0648 10.521C83.0648 11.385 82.7429 12.7234 82.0991 14.5362C81.4553 16.349 81.1334 17.4333 81.1334 17.7891C81.1503 18.0263 81.1927 18.1872 81.2605 18.2719C81.3282 18.3566 81.4553 18.399 81.6417 18.399C82.116 18.399 82.5565 18.1449 82.9631 17.6366C83.3697 17.1283 83.7001 16.4337 83.9542 15.5527C84.0051 15.3664 84.0559 15.2563 84.1067 15.2224C84.1575 15.1885 84.2931 15.1715 84.5133 15.1715C84.8522 15.1715 85.0216 15.2393 85.0216 15.3748C85.0216 15.3918 84.9877 15.5189 84.9199 15.756C84.6489 16.7556 84.2168 17.5773 83.6239 18.2211C83.0478 18.9496 82.3617 19.3139 81.5654 19.3139H81.4384C80.6421 19.3139 80.0661 19.0851 79.7103 18.6277C79.3545 18.1703 79.1766 17.6874 79.1766 17.1792C79.1766 16.9081 79.4816 15.9085 80.0915 14.1804C80.7014 12.4524 81.0148 11.1563 81.0317 10.2923C81.0317 9.29268 80.659 8.79289 79.9136 8.79289H79.7865C78.3803 8.79289 77.1605 9.62304 76.127 11.2834L75.9492 11.6137L75.0851 15.0445C74.543 17.2469 74.2295 18.4498 74.1448 18.6531C73.9246 19.1105 73.5519 19.3393 73.0267 19.3393C72.7895 19.3393 72.5862 19.263 72.4167 19.1105C72.2473 18.9581 72.1541 18.8056 72.1372 18.6531C72.1372 18.4159 72.7556 15.8407 73.9924 10.9276L75.8729 3.40534C75.8729 3.18509 75.8136 3.04956 75.695 2.99873C75.5764 2.94791 75.2461 2.90555 74.7039 2.87167H74.1702C74.0686 2.77002 74.0178 2.70225 74.0178 2.66837C74.0178 2.63448 74.0347 2.47353 74.0686 2.18552C74.1533 1.86362 74.2634 1.70267 74.399 1.70267Z" fill="black"/>
<path d="M86.0889 11.7662C86.0889 11.529 86.216 11.1224 86.4701 10.5464C86.7243 9.97036 87.1309 9.36892 87.6899 8.74206C88.249 8.11521 88.8759 7.81026 89.5705 7.8272C90.2651 7.8272 90.8242 8.02203 91.2478 8.41169C91.6713 8.80136 91.8916 9.3435 91.9085 10.0381C91.8746 10.36 91.8492 10.5379 91.8323 10.5718C91.8323 10.6226 91.6967 11.0123 91.4257 11.7408C91.1546 12.4693 90.875 13.291 90.587 14.2058C90.299 15.1207 90.1635 15.8492 90.1804 16.3914C90.1804 17.1199 90.299 17.6281 90.5362 17.9161C90.7734 18.2042 91.1292 18.3566 91.6035 18.3736C91.9932 18.3736 92.3575 18.2804 92.6963 18.094C93.0351 17.9077 93.2977 17.7128 93.4841 17.5095C93.6705 17.3062 93.8992 17.0267 94.1702 16.6709C94.1702 16.654 94.2126 16.4845 94.2973 16.1626C94.382 15.8407 94.5006 15.341 94.6531 14.6633C94.8056 13.9856 94.9665 13.3588 95.1359 12.7827C95.7797 10.2414 96.1355 8.91148 96.2033 8.79289C96.4235 8.33546 96.7878 8.10674 97.296 8.10674C97.5163 8.10674 97.6942 8.16604 97.8297 8.28463C97.9653 8.40322 98.0584 8.50488 98.1093 8.58959C98.1601 8.6743 98.177 8.75053 98.1601 8.8183C98.1601 9.03855 97.745 10.8175 96.9149 14.155C96.0847 17.4926 95.6103 19.3223 95.4917 19.6442C95.0173 21.0504 94.1957 22.1686 93.0267 22.9987C91.8577 23.8289 90.6887 24.2524 89.5197 24.2694C88.7573 24.2694 88.0881 24.083 87.5121 23.7103C86.936 23.3376 86.648 22.7785 86.648 22.033C86.648 21.6603 86.7073 21.3469 86.8259 21.0928C86.9445 20.8386 87.1054 20.6523 87.3088 20.5337C87.5121 20.4151 87.6815 20.3304 87.817 20.2795C87.9525 20.2287 88.0966 20.2033 88.249 20.2033C88.9945 20.2033 89.3672 20.5591 89.3672 21.2707C89.3672 21.6095 89.2655 21.906 89.0622 22.1601C88.8589 22.4142 88.6641 22.5837 88.4777 22.6684C88.2914 22.7531 88.1813 22.7954 88.1474 22.7954L88.0711 22.8208C88.105 22.9056 88.266 23.0072 88.554 23.1258C88.842 23.2444 89.13 23.3037 89.418 23.3037H89.6213C89.9093 23.3037 90.1296 23.2867 90.2821 23.2529C90.8412 23.1004 91.3579 22.7785 91.8323 22.2872C92.3066 21.7959 92.6709 21.2707 92.925 20.7116C93.1791 20.1525 93.374 19.6781 93.5095 19.2884C93.645 18.8988 93.7128 18.6446 93.7128 18.5261L93.5603 18.6277C93.4587 18.6955 93.2977 18.7887 93.0775 18.9072C92.8572 19.0258 92.637 19.1275 92.4168 19.2122C92.0779 19.2969 91.7475 19.3393 91.4257 19.3393C90.6463 19.3393 89.9602 19.1529 89.3672 18.7802C88.7742 18.4075 88.3846 17.806 88.1982 16.9759C88.1813 16.8573 88.1728 16.5947 88.1728 16.1881C88.1728 15.2224 88.4693 13.9602 89.0622 12.4015C89.6552 10.8429 89.9517 9.85176 89.9517 9.42821C89.9517 9.41127 89.9517 9.39433 89.9517 9.37739C89.9517 9.22491 89.9517 9.12326 89.9517 9.07243C89.9517 9.02161 89.9178 8.96231 89.85 8.89454C89.7823 8.82677 89.6891 8.79289 89.5705 8.79289H89.4689C89.0792 8.79289 88.7234 8.95384 88.4015 9.27573C88.0796 9.59763 87.8255 9.94494 87.6391 10.3177C87.4528 10.6904 87.3088 11.0462 87.2071 11.385C87.1054 11.7239 87.0377 11.9102 87.0038 11.9441C86.9699 11.978 86.8344 11.9949 86.5972 11.9949H86.2414C86.1398 11.8933 86.0889 11.817 86.0889 11.7662Z" fill="black"/>
<path d="M98.5921 11.7662C98.609 11.7154 98.626 11.6476 98.6429 11.5629C98.6599 11.4782 98.7022 11.2918 98.77 11.0038C98.8377 10.7158 98.9225 10.4532 99.0241 10.216C99.1258 9.97883 99.2528 9.69928 99.4053 9.37739C99.5578 9.05549 99.7272 8.80136 99.9136 8.615C100.1 8.42864 100.32 8.24227 100.574 8.05591C100.828 7.86955 101.108 7.79331 101.413 7.82719C102.684 7.82719 103.497 8.36934 103.853 9.45362L104.107 9.22491C105.157 8.2931 106.157 7.82719 107.105 7.82719C108.207 7.82719 109.071 8.22533 109.698 9.0216C110.324 9.81788 110.638 10.7836 110.638 11.9187C110.638 13.7484 109.994 15.4341 108.706 16.9759C107.419 18.5176 105.962 19.2969 104.335 19.3139C103.963 19.3139 103.632 19.263 103.344 19.1614C103.158 19.0767 102.963 18.9496 102.76 18.7802C102.557 18.6108 102.396 18.4668 102.277 18.3482L102.099 18.1449C102.082 18.1618 101.896 18.8988 101.54 20.3558C101.184 21.8128 101.006 22.5498 101.006 22.5667C101.006 22.6684 101.074 22.7277 101.21 22.7446C101.345 22.7615 101.659 22.787 102.15 22.8208H102.785C102.887 22.9394 102.938 23.0157 102.938 23.0496C102.938 23.0834 102.912 23.2359 102.861 23.507C102.811 23.7103 102.76 23.8374 102.709 23.8882C102.658 23.939 102.548 23.9729 102.379 23.9898C102.345 23.9898 102.252 23.9898 102.099 23.9898C101.947 23.9898 101.659 23.9814 101.235 23.9644C100.811 23.9475 100.286 23.939 99.6594 23.939C98.4735 23.939 97.7196 23.956 97.3977 23.9898H97.1944C97.0758 23.8712 97.0165 23.7781 97.0165 23.7103C97.0504 23.2529 97.1605 22.9564 97.3468 22.8208H97.8551C98.4311 22.8039 98.7615 22.7022 98.8462 22.5159C98.897 22.4142 99.4138 20.3897 100.396 16.4422C101.379 12.4947 101.896 10.4024 101.947 10.1652C101.964 10.0805 101.972 9.96188 101.972 9.80941C101.972 9.11479 101.76 8.76747 101.337 8.76747C100.964 8.76747 100.651 9.00466 100.396 9.47904C100.142 9.95341 99.9474 10.4701 99.8119 11.0292C99.6764 11.5883 99.5747 11.8933 99.5069 11.9441C99.4731 11.978 99.3375 11.9949 99.1003 11.9949H98.7446C98.6429 11.8933 98.5921 11.817 98.5921 11.7662ZM102.531 16.4676C102.904 17.7552 103.531 18.399 104.412 18.399C104.92 18.399 105.411 18.2042 105.886 17.8145C106.36 17.4248 106.75 16.9335 107.055 16.3405C107.36 15.7645 107.665 14.8496 107.969 13.5959C108.274 12.3422 108.435 11.4104 108.452 10.8005V10.648C108.452 9.39433 107.936 8.76747 106.902 8.76747C106.716 8.76747 106.529 8.79289 106.343 8.84371C106.157 8.89454 105.97 8.97078 105.784 9.07243C105.598 9.17408 105.428 9.2842 105.276 9.4028C105.123 9.52139 104.979 9.64846 104.844 9.78399C104.708 9.91953 104.581 10.0466 104.462 10.1652C104.344 10.2838 104.251 10.4024 104.183 10.521C104.115 10.6396 104.047 10.7243 103.98 10.7751L103.903 10.8767C103.903 10.8937 103.878 11.0123 103.827 11.2325C103.776 11.4528 103.683 11.8255 103.548 12.3507C103.412 12.8759 103.293 13.3164 103.192 13.6722C102.751 15.468 102.531 16.3998 102.531 16.4676Z" fill="black"/>
<path d="M122.257 11.7916C122.036 9.52139 121.926 8.25075 121.926 7.97967C121.926 7.67472 122.13 7.43753 122.536 7.26811C122.553 7.26811 122.596 7.26811 122.663 7.26811C122.731 7.26811 122.782 7.25964 122.816 7.2427C123.019 7.25964 123.205 7.33588 123.375 7.47142C123.544 7.60695 123.629 7.77637 123.629 7.97967C123.629 8.26769 123.578 8.94537 123.476 10.0127C123.375 11.0801 123.316 11.673 123.299 11.7916L124.773 10.7243C125.721 10.0297 126.238 9.65693 126.323 9.6061C126.407 9.55528 126.492 9.52987 126.577 9.52987C126.797 9.52987 127 9.61458 127.187 9.78399C127.373 9.95341 127.475 10.1821 127.492 10.4701C127.492 10.6904 127.407 10.8852 127.238 11.0546C127.153 11.1055 126.577 11.385 125.51 11.8933C124.442 12.4015 123.866 12.6726 123.781 12.7065L125.459 13.4943L127.238 14.3837C127.39 14.5362 127.466 14.7311 127.466 14.9682C127.466 15.2224 127.39 15.4341 127.238 15.6036C127.085 15.773 126.882 15.8662 126.628 15.8831C126.492 15.8831 126.34 15.8323 126.17 15.7306C126.001 15.629 125.535 15.2901 124.773 14.7141L123.299 13.6468C123.519 15.917 123.629 17.1876 123.629 17.4587C123.629 17.6281 123.57 17.7891 123.451 17.9416C123.332 18.094 123.112 18.1703 122.79 18.1703C122.468 18.1703 122.248 18.094 122.13 17.9416C122.011 17.7891 121.943 17.6281 121.926 17.4587C121.926 17.1707 121.977 16.493 122.079 15.4257C122.18 14.3583 122.24 13.7654 122.257 13.6468L120.783 14.7141C119.834 15.4087 119.317 15.7815 119.233 15.8323C119.165 15.8831 119.08 15.9085 118.978 15.9085C118.758 15.9085 118.555 15.8238 118.368 15.6544C118.182 15.485 118.08 15.2563 118.064 14.9682C118.064 14.8835 118.064 14.8158 118.064 14.7649C118.064 14.7141 118.089 14.6633 118.14 14.6125C118.191 14.5616 118.233 14.5108 118.267 14.46C118.301 14.4092 118.377 14.3499 118.496 14.2821C118.614 14.2143 118.724 14.155 118.826 14.1042C118.928 14.0534 119.089 13.9771 119.309 13.8755C119.529 13.7738 119.741 13.6806 119.944 13.5959C120.147 13.5112 120.418 13.3842 120.757 13.2147C121.096 13.0453 121.435 12.8759 121.774 12.7065L118.318 11.0546C118.165 10.9022 118.089 10.7073 118.089 10.4701C118.089 10.216 118.165 10.0042 118.318 9.83482C118.47 9.6654 118.673 9.57222 118.928 9.55528C119.063 9.55528 119.216 9.6061 119.385 9.70776C119.554 9.80941 120.02 10.1482 120.783 10.7243L122.257 11.7916Z" fill="black"/>
<path d="M138.119 11.7154C138.119 11.1732 138.255 10.6226 138.526 10.0635C138.797 9.50445 139.271 8.98772 139.949 8.51335C140.627 8.03897 141.449 7.81026 142.414 7.8272C143.465 7.8272 144.227 8.05591 144.701 8.51335C145.176 8.97078 145.421 9.47904 145.438 10.0381C145.438 10.5803 145.294 10.9784 145.006 11.2325C144.718 11.4867 144.396 11.6222 144.041 11.6391C143.82 11.6391 143.617 11.5714 143.431 11.4358C143.244 11.3003 143.143 11.0801 143.126 10.7751C143.126 10.504 143.202 10.2668 143.354 10.0635C143.507 9.86023 143.651 9.70776 143.787 9.6061C143.922 9.50445 144.032 9.45363 144.117 9.45363C144.134 9.45363 144.142 9.44516 144.142 9.42821C144.142 9.37739 144.083 9.30115 143.964 9.1995C143.846 9.09785 143.634 9.00466 143.329 8.91995C143.024 8.83524 142.694 8.78442 142.338 8.76748C141.525 8.76748 140.932 8.98772 140.559 9.42821C140.186 9.8687 139.992 10.3177 139.975 10.7751C139.975 11.1986 140.136 11.4951 140.457 11.6646C140.779 11.834 141.245 11.978 141.855 12.0966C142.465 12.2152 142.906 12.3422 143.177 12.4778C144.295 12.9691 144.854 13.7823 144.854 14.9174C144.854 15.3918 144.761 15.8662 144.574 16.3405C144.388 16.8149 144.108 17.2893 143.736 17.7637C143.363 18.238 142.829 18.6108 142.135 18.8818C141.44 19.1529 140.644 19.2969 139.746 19.3139C138.441 19.3139 137.518 19.0682 136.976 18.5769C136.434 18.0856 136.154 17.5095 136.137 16.8488C136.137 16.1881 136.315 15.7137 136.671 15.4257C137.027 15.1377 137.399 14.9937 137.789 14.9937C138.043 14.9937 138.28 15.0699 138.501 15.2224C138.721 15.3748 138.839 15.6374 138.856 16.0102C138.856 16.4507 138.704 16.8234 138.399 17.1283C138.094 17.4333 137.831 17.5858 137.611 17.5858C137.577 17.6027 137.552 17.6112 137.535 17.6112C137.518 17.6112 137.51 17.6281 137.51 17.662C137.526 17.7128 137.594 17.7806 137.713 17.8653C137.831 17.95 138.094 18.0601 138.501 18.1957C138.907 18.3312 139.373 18.3905 139.898 18.3736C140.508 18.3736 141.033 18.2804 141.474 18.094C141.914 17.9077 142.236 17.6705 142.44 17.3825C142.643 17.0945 142.787 16.8319 142.872 16.5947C142.956 16.3575 142.999 16.1457 142.999 15.9593C142.999 15.485 142.821 15.1292 142.465 14.892C142.109 14.6548 141.703 14.5108 141.245 14.46C140.788 14.4092 140.288 14.2821 139.746 14.0788C139.204 13.8755 138.806 13.579 138.551 13.1893C138.263 12.7658 138.119 12.2745 138.119 11.7154Z" fill="black"/>
<path d="M151.385 3.81195C151.385 3.40534 151.546 3.04956 151.868 2.7446C152.19 2.43965 152.562 2.2787 152.986 2.26176C153.291 2.26176 153.545 2.36341 153.748 2.56671C153.952 2.77002 154.062 3.02415 154.079 3.3291C154.079 3.71877 153.909 4.07455 153.571 4.39645C153.232 4.71834 152.859 4.88776 152.452 4.9047C152.198 4.9047 151.961 4.81999 151.741 4.65057C151.521 4.48116 151.402 4.20161 151.385 3.81195ZM147.243 11.7662C147.243 11.6307 147.319 11.3681 147.471 10.9784C147.624 10.5887 147.827 10.1567 148.081 9.68234C148.335 9.20797 148.708 8.77595 149.199 8.38628C149.691 7.99661 150.199 7.81025 150.724 7.8272C151.385 7.8272 151.936 8.02203 152.376 8.41169C152.817 8.80136 153.045 9.32656 153.062 9.9873C153.062 10.2753 152.944 10.7497 152.706 11.4104C152.469 12.0712 152.13 12.9606 151.69 14.0788C151.249 15.197 150.894 16.1542 150.623 16.9504C150.538 17.3232 150.496 17.5942 150.496 17.7637C150.496 18.1872 150.64 18.399 150.928 18.399C151.08 18.399 151.241 18.3736 151.41 18.3227C151.58 18.2719 151.775 18.1533 151.995 17.967C152.215 17.7806 152.444 17.4841 152.681 17.0775C152.918 16.6709 153.13 16.1711 153.316 15.5781C153.367 15.3748 153.41 15.2563 153.443 15.2224C153.477 15.1885 153.621 15.1715 153.875 15.1715C154.214 15.1715 154.384 15.2563 154.384 15.4257C154.384 15.5612 154.307 15.8238 154.155 16.2135C154.003 16.6031 153.791 17.0352 153.52 17.5095C153.249 17.9839 152.867 18.4075 152.376 18.7802C151.885 19.1529 151.36 19.3393 150.8 19.3393C150.258 19.3393 149.759 19.1614 149.301 18.8056C148.844 18.4498 148.607 17.9077 148.59 17.1792C148.59 16.8912 148.632 16.6201 148.717 16.3659C148.801 16.1118 149.166 15.1461 149.809 13.4689C150.453 11.7577 150.826 10.7327 150.928 10.3939C151.029 10.0551 151.089 9.7247 151.105 9.4028C151.105 8.99619 150.961 8.79289 150.673 8.79289H150.623C150.114 8.79289 149.648 9.07243 149.225 9.63152C148.801 10.1906 148.479 10.9022 148.259 11.7662C148.242 11.7831 148.225 11.8086 148.208 11.8424C148.191 11.8763 148.183 11.9017 148.183 11.9187C148.183 11.9356 148.166 11.9526 148.132 11.9695C148.098 11.9864 148.073 11.9949 148.056 11.9949C148.039 11.9949 148.005 11.9949 147.954 11.9949C147.903 11.9949 147.836 11.9949 147.751 11.9949H147.395C147.294 11.8933 147.243 11.817 147.243 11.7662Z" fill="black"/>
<path d="M156.01 11.7662C156.027 11.6646 156.052 11.529 156.086 11.3596C156.12 11.1902 156.222 10.8683 156.391 10.3939C156.561 9.91953 156.73 9.52139 156.9 9.19949C157.069 8.8776 157.349 8.56417 157.738 8.25922C158.128 7.95426 158.518 7.81025 158.907 7.8272C159.517 7.8272 160.025 7.97967 160.432 8.28463C160.839 8.58958 161.093 8.8776 161.194 9.14867C161.296 9.41974 161.347 9.59763 161.347 9.68234C161.347 9.71622 161.355 9.73317 161.372 9.73317L161.652 9.45362C162.685 8.36934 163.863 7.8272 165.184 7.8272C166.099 7.8272 166.836 8.05591 167.395 8.51334C167.954 8.97078 168.242 9.63999 168.259 10.521C168.276 11.402 167.954 12.7319 167.293 14.5108C166.633 16.2897 166.311 17.3655 166.328 17.7382C166.328 18.1787 166.472 18.399 166.76 18.399C166.861 18.399 166.938 18.3905 166.989 18.3736C167.48 18.2889 167.92 17.967 168.31 17.4079C168.7 16.8488 168.996 16.1711 169.199 15.3748C169.233 15.2393 169.403 15.1715 169.708 15.1715C170.047 15.1715 170.216 15.2393 170.216 15.3748C170.216 15.3918 170.182 15.5189 170.114 15.756C169.979 16.2474 169.792 16.7302 169.555 17.2046C169.318 17.679 168.928 18.1533 168.386 18.6277C167.844 19.1021 167.26 19.3308 166.633 19.3139C165.836 19.3139 165.26 19.0851 164.905 18.6277C164.549 18.1703 164.371 17.6959 164.371 17.2046C164.371 16.8827 164.676 15.8662 165.286 14.155C165.896 12.4439 166.209 11.1563 166.226 10.2923C166.226 9.29268 165.853 8.79289 165.108 8.79289H164.981C163.524 8.79289 162.296 9.64846 161.296 11.3596L161.118 11.6646L160.28 15.0699C159.72 17.2893 159.399 18.4837 159.314 18.6531C159.094 19.1105 158.729 19.3393 158.221 19.3393C158.001 19.3393 157.823 19.2884 157.687 19.1868C157.552 19.0851 157.459 18.9835 157.408 18.8818C157.357 18.7802 157.34 18.6955 157.357 18.6277C157.357 18.4075 157.679 17.0267 158.323 14.4854C158.967 11.9441 159.305 10.5633 159.339 10.3431C159.356 10.2584 159.365 10.0635 159.365 9.75858C159.365 9.09784 159.161 8.76747 158.755 8.76747C158.111 8.76747 157.577 9.61457 157.154 11.3088C157.052 11.6476 157.001 11.8255 157.001 11.8424C156.967 11.9441 156.806 11.9949 156.518 11.9949H156.163C156.061 11.8933 156.01 11.817 156.01 11.7662Z" fill="black"/>
<path d="M173.113 12.7065C173.113 11.5375 173.198 10.4278 173.367 9.37739C173.537 8.32698 173.731 7.42059 173.952 6.6582C174.172 5.89581 174.485 5.15036 174.892 4.42186C175.299 3.69335 175.621 3.1258 175.858 2.71919C176.095 2.31258 176.451 1.87209 176.925 1.39772C177.399 0.923342 177.679 0.635328 177.764 0.533676C177.848 0.432024 178.06 0.254133 178.399 3.8147e-06H178.729H178.831C179.068 3.8147e-06 179.187 0.0762424 179.187 0.22872C179.187 0.279547 179.043 0.457438 178.755 0.762392C178.467 1.06735 178.119 1.51631 177.713 2.10928C177.306 2.70225 176.891 3.43075 176.468 4.29479C176.044 5.15883 175.688 6.32783 175.4 7.80178C175.112 9.27573 174.968 10.9106 174.968 12.7065C174.968 14.5023 175.112 16.1288 175.4 17.5858C175.688 19.0428 176.036 20.2202 176.442 21.1182C176.849 22.0161 177.264 22.7446 177.687 23.3037C178.111 23.8628 178.467 24.3117 178.755 24.6506C179.043 24.9894 179.187 25.1673 179.187 25.1842C179.187 25.3367 179.06 25.413 178.806 25.413H178.729H178.399L177.687 24.8031C176.095 23.363 174.934 21.5671 174.206 19.4155C173.477 17.2639 173.113 15.0275 173.113 12.7065Z" fill="black"/>
<path d="M181.499 13.9771C181.499 12.2491 181.83 10.4278 182.49 8.51335C183.151 6.5989 184.049 4.94706 185.184 3.55782C186.319 2.16858 187.497 1.3723 188.717 1.169C188.734 1.169 188.801 1.169 188.92 1.169C189.039 1.169 189.14 1.16053 189.225 1.14359C190.14 1.21136 190.851 1.62644 191.36 2.38882C192.02 3.40534 192.351 4.76917 192.351 6.48031C192.351 8.42864 191.97 10.4108 191.207 12.4269C190.445 14.443 189.471 16.0949 188.285 17.3825C187.099 18.6701 185.964 19.3139 184.879 19.3139H184.701C184.092 19.3139 183.566 19.1444 183.126 18.8056C182.685 18.4668 182.355 18.0178 182.135 17.4587C181.914 16.8996 181.754 16.3321 181.652 15.756C181.55 15.18 181.499 14.587 181.499 13.9771ZM190.343 4.67599C190.343 2.94791 189.894 2.08387 188.996 2.08387C188.386 2.08387 187.793 2.46506 187.217 3.22745C186.641 3.98984 186.167 4.85388 185.794 5.81957C185.421 6.78527 185.133 7.63236 184.93 8.36087C184.727 9.08937 184.617 9.51292 184.6 9.63152C185.43 9.64846 186.252 9.65693 187.065 9.65693L189.53 9.63152C189.547 9.61458 189.615 9.33503 189.733 8.79289C189.852 8.25075 189.987 7.57307 190.14 6.75985C190.292 5.94664 190.36 5.25202 190.343 4.67599ZM183.482 15.7052C183.482 17.5011 183.931 18.399 184.828 18.399C185.083 18.399 185.354 18.3143 185.642 18.1449C185.93 17.9754 186.277 17.6535 186.684 17.1792C187.09 16.7048 187.497 15.9678 187.903 14.9682C188.31 13.9687 188.717 12.7319 189.123 11.2579L189.25 10.8259H184.295C184.295 10.8768 184.219 11.1986 184.066 11.7916C183.914 12.3846 183.778 13.0453 183.659 13.7738C183.541 14.5023 183.482 15.1461 183.482 15.7052Z" fill="black"/>
<path d="M194.053 0.0254173L194.155 3.8147e-06C194.24 3.8147e-06 194.324 3.8147e-06 194.409 3.8147e-06H194.714L195.426 0.609915C197.018 2.04998 198.179 3.84583 198.907 5.99746C199.636 8.14909 200 10.3854 200 12.7065C200 13.8585 199.915 14.9682 199.746 16.0356C199.576 17.1029 199.382 18.0093 199.161 18.7548C198.941 19.5002 198.628 20.2457 198.221 20.9911C197.814 21.7366 197.493 22.3041 197.255 22.6938C197.018 23.0834 196.671 23.5155 196.213 23.9898C195.756 24.4642 195.485 24.7438 195.4 24.8285C195.316 24.9132 195.121 25.0741 194.816 25.3113C194.765 25.3621 194.731 25.396 194.714 25.413H194.409C194.274 25.413 194.18 25.413 194.13 25.413C194.079 25.413 194.036 25.3876 194.003 25.3367C193.969 25.2859 193.943 25.2097 193.926 25.108C193.943 25.0911 194.036 24.9809 194.206 24.7776C196.832 22.05 198.145 18.0263 198.145 12.7065C198.145 7.3867 196.832 3.36299 194.206 0.635328C194.036 0.432024 193.943 0.321901 193.926 0.30496C193.926 0.169424 193.969 0.0762424 194.053 0.0254173Z" fill="black"/>
</svg>
