<svg width="200" height="28" viewBox="0 0 200 28" fill="none" xmlns="http://www.w3.org/2000/svg">
<path d="M4.75863 18.5944C4.75863 19.0345 5.1804 19.2912 6.02393 19.3646C6.35401 19.3646 6.51905 19.4654 6.51905 19.6672C6.51905 19.6855 6.50071 19.8047 6.46404 20.0247C6.40902 20.2815 6.35401 20.4465 6.299 20.5199C6.24398 20.5932 6.12479 20.6299 5.94141 20.6299C5.90474 20.6299 5.79471 20.6299 5.61133 20.6299C5.42796 20.6299 5.11621 20.6207 4.67611 20.6024C4.23601 20.584 3.6492 20.5749 2.91569 20.5749C1.61372 20.5749 0.779352 20.5932 0.412598 20.6299H0.192546C0.0641819 20.5015 0 20.4007 0 20.3273C0.0366754 19.8322 0.15587 19.5113 0.357585 19.3646H0.742676C2.02631 19.3096 2.96154 18.8511 3.54834 17.9893C3.65837 17.8792 5.31793 15.0827 8.52702 9.59976C11.7361 4.1168 13.3682 1.33864 13.4232 1.26529C13.5516 1.04523 13.7716 0.935207 14.0833 0.935207H14.3034H14.771C14.881 1.10025 14.936 1.19193 14.936 1.21027L15.7062 10.0949C16.2197 16.018 16.4948 19.007 16.5314 19.062C16.6231 19.2637 17.2191 19.3646 18.3194 19.3646C18.7778 19.3646 19.007 19.4563 19.007 19.6396C19.007 19.6763 18.9795 19.8047 18.9245 20.0247C18.8695 20.2998 18.8236 20.4648 18.787 20.5199C18.7503 20.5749 18.6219 20.6115 18.4019 20.6299C18.3469 20.6299 18.2185 20.6299 18.0168 20.6299C17.8151 20.6299 17.4575 20.6207 16.944 20.6024C16.4306 20.584 15.7612 20.5749 14.936 20.5749C13.2123 20.5749 12.0845 20.5932 11.5527 20.6299H11.2227C11.1126 20.5199 11.0576 20.4373 11.0576 20.3823C11.0576 20.3273 11.076 20.1623 11.1126 19.8872C11.186 19.6488 11.241 19.5021 11.2777 19.4471L11.3877 19.3646H11.9378C12.9281 19.3096 13.5149 19.1537 13.6983 18.897L13.3682 14.771H6.82162L5.8864 16.3664C5.13455 17.6317 4.75863 18.3743 4.75863 18.5944ZM13.2306 13.4782C13.2306 13.2765 13.1206 11.8461 12.9006 9.18717C12.6805 6.5282 12.5521 5.18955 12.5155 5.17121L11.7728 6.35399C11.4794 6.84911 10.9018 7.83018 10.0399 9.29719L7.5643 13.4782L10.3975 13.5057C12.2863 13.5057 13.2306 13.4965 13.2306 13.4782Z" fill="black"/>
<path d="M20.6784 19.1357C20.7692 18.5911 21.1192 17.9623 21.7286 17.2493C22.3379 16.5362 23.0899 16.1732 23.9845 16.1602C24.4382 16.1602 24.8531 16.2769 25.2291 16.5103C25.605 16.7437 25.8838 17.0354 26.0653 17.3854C26.6098 16.5686 27.2645 16.1602 28.0295 16.1602C28.5091 16.1602 28.924 16.3029 29.2741 16.5881C29.6241 16.8733 29.8056 17.2558 29.8186 17.7355C29.8186 18.1114 29.7278 18.4161 29.5463 18.6495C29.3648 18.8828 29.1898 19.0255 29.0213 19.0773C28.8527 19.1292 28.7036 19.1551 28.574 19.1551C28.3276 19.1551 28.1267 19.0838 27.9711 18.9412C27.8155 18.7986 27.7377 18.6106 27.7377 18.3772C27.7377 17.7808 28.0619 17.3724 28.7101 17.152C28.5675 16.9835 28.3082 16.8992 27.9322 16.8992C27.7637 16.8992 27.6405 16.9122 27.5627 16.9381C27.0701 17.1456 26.707 17.5734 26.4737 18.2216C25.6958 21.0868 25.3069 22.7593 25.3069 23.239C25.3069 23.602 25.4106 23.8613 25.618 24.0169C25.8254 24.1725 26.0523 24.2502 26.2987 24.2502C26.7784 24.2502 27.2516 24.0363 27.7183 23.6085C28.185 23.1807 28.5027 22.6556 28.6712 22.0333C28.7101 21.9036 28.749 21.8323 28.7879 21.8194C28.8268 21.8064 28.9305 21.7934 29.099 21.7805H29.1768C29.3713 21.7805 29.4685 21.8323 29.4685 21.936C29.4685 21.949 29.4556 22.0203 29.4296 22.15C29.2222 22.8889 28.8203 23.5437 28.2239 24.1141C27.6275 24.6846 26.9339 24.9698 26.1431 24.9698C25.2355 24.9698 24.5484 24.5614 24.0817 23.7446C23.5501 24.5484 22.9408 24.9503 22.2537 24.9503H22.137C21.5017 24.9503 21.0479 24.7818 20.7757 24.4447C20.5034 24.1076 20.3608 23.7511 20.3478 23.3751C20.3478 22.9603 20.471 22.6232 20.7173 22.3639C20.9637 22.1046 21.2554 21.9749 21.5925 21.9749C22.1499 21.9749 22.4287 22.2472 22.4287 22.7917C22.4287 23.051 22.3509 23.2779 22.1953 23.4724C22.0397 23.6668 21.8906 23.7965 21.748 23.8613C21.6054 23.9261 21.5211 23.9585 21.4952 23.9585L21.4369 23.978C21.4369 23.9909 21.4758 24.0169 21.5536 24.0558C21.6313 24.0947 21.7351 24.14 21.8647 24.1919C21.9944 24.2438 22.1175 24.2632 22.2342 24.2502C22.7009 24.2502 23.1028 23.9585 23.4399 23.3751C23.5566 23.1677 23.7057 22.7269 23.8872 22.0527C24.0687 21.3786 24.2502 20.6785 24.4317 19.9524C24.6132 19.2264 24.717 18.7986 24.7429 18.6689C24.8077 18.3189 24.8401 18.0661 24.8401 17.9105C24.8401 17.5475 24.7429 17.2882 24.5484 17.1326C24.3539 16.977 24.1335 16.8992 23.8872 16.8992C23.3686 16.8992 22.8824 17.1067 22.4287 17.5215C21.9749 17.9364 21.6573 18.468 21.4758 19.1162C21.4498 19.2329 21.4174 19.2977 21.3785 19.3107C21.3396 19.3236 21.2359 19.3366 21.0674 19.3496H20.7951C20.7173 19.2718 20.6784 19.2005 20.6784 19.1357Z" fill="black"/>
<path d="M41.3478 11.0851C41.3478 10.8467 41.4762 10.6634 41.7329 10.535H59.2546C59.5297 10.6817 59.6672 10.8651 59.6672 11.0851C59.6672 11.2868 59.5388 11.4611 59.2821 11.6078L50.535 11.6353H41.7879C41.4945 11.5436 41.3478 11.3602 41.3478 11.0851ZM41.3478 16.4214C41.3478 16.1463 41.4945 15.963 41.7879 15.8713H59.2821C59.5388 16.0546 59.6672 16.238 59.6672 16.4214C59.6672 16.6598 59.5297 16.8432 59.2546 16.9715H41.7329C41.4762 16.8432 41.3478 16.6598 41.3478 16.4214Z" fill="black"/>
<path d="M71.4344 13.7533C71.4344 12.488 71.5261 11.2868 71.7095 10.1499C71.8929 9.01297 72.1038 8.03191 72.3422 7.20671C72.5806 6.38151 72.9198 5.57466 73.3599 4.78614C73.8 3.99761 74.1484 3.3833 74.4052 2.9432C74.6619 2.50309 75.047 2.02631 75.5604 1.51286C76.0739 0.999403 76.3765 0.687662 76.4681 0.577636C76.5598 0.46761 76.7891 0.275064 77.1558 -1.38581e-06H77.5134H77.6234C77.8801 -1.38581e-06 78.0085 0.0825182 78.0085 0.247557C78.0085 0.30257 77.8526 0.495116 77.5409 0.825195C77.2292 1.15527 76.8532 1.64122 76.4131 2.28304C75.973 2.92486 75.5238 3.71338 75.0653 4.6486C74.6069 5.58382 74.2218 6.84913 73.91 8.4445C73.5983 10.0399 73.4424 11.8095 73.4424 13.7533C73.4424 15.6971 73.5983 17.4575 73.91 19.0345C74.2218 20.6116 74.5977 21.886 75.0378 22.8579C75.4779 23.8298 75.9272 24.6183 76.3856 25.2235C76.8441 25.8286 77.2292 26.3146 77.5409 26.6813C77.8526 27.0481 78.0085 27.2406 78.0085 27.259C78.0085 27.424 77.871 27.5065 77.5959 27.5065H77.5134H77.1558L76.3856 26.8464C74.6619 25.2877 73.4057 23.3439 72.6172 21.015C71.8287 18.6861 71.4344 16.2655 71.4344 13.7533Z" fill="black"/>
<path d="M84.0599 16.3114C84.0599 16.7515 83.9132 17.1182 83.6198 17.4116C83.3264 17.705 82.9688 17.8517 82.5471 17.8517H82.3545C83.1981 19.3004 84.3167 20.0248 85.7103 20.0248C86.994 20.0248 87.9292 19.4746 88.516 18.3744C88.8644 17.7692 89.0386 16.5956 89.0386 14.8535C89.0386 12.9647 88.7911 11.6903 88.2959 11.0301C87.8192 10.425 87.2874 10.1224 86.7006 10.1224H86.5355C85.1052 10.1224 84.0233 10.7459 83.2898 11.9929C83.2164 12.1212 83.1522 12.1946 83.0972 12.2129C83.0422 12.2312 82.9047 12.2496 82.6846 12.2679C82.3729 12.2679 82.1987 12.2129 82.162 12.1029C82.1253 12.0295 82.107 10.425 82.107 7.28923V3.74089C82.107 2.82401 82.1528 2.36557 82.2445 2.36557C82.2812 2.32889 82.3179 2.31055 82.3545 2.31055C82.3729 2.31055 82.5654 2.3839 82.9322 2.5306C83.2989 2.67731 83.8032 2.82401 84.445 2.97071C85.0868 3.11741 85.7745 3.19076 86.508 3.19076C87.81 3.19076 89.057 2.93403 90.2489 2.42058C90.3956 2.34723 90.5148 2.31055 90.6065 2.31055C90.7532 2.31055 90.8265 2.47559 90.8265 2.80567V3.16325C89.3229 4.94201 87.4432 5.83139 85.1877 5.83139C84.6192 5.83139 84.1058 5.77638 83.6473 5.66635L83.3723 5.61134V10.3425C83.7207 10.0857 83.9958 9.88402 84.1975 9.73732C84.3992 9.59061 84.7293 9.44391 85.1877 9.29721C85.6461 9.15051 86.1138 9.07716 86.5905 9.07716C88.0759 9.07716 89.332 9.67313 90.3589 10.8651C91.3858 12.057 91.8993 13.469 91.8993 15.1011C91.8993 16.7882 91.3125 18.2277 90.1389 19.4196C88.9653 20.6116 87.5349 21.2167 85.8479 21.235C84.3625 21.235 83.1706 20.7399 82.272 19.7497C81.3735 18.7595 80.9242 17.6409 80.9242 16.3939C80.9242 15.9538 81.0251 15.6054 81.2268 15.3486C81.4285 15.0919 81.6394 14.9269 81.8594 14.8535C82.0795 14.7802 82.2904 14.7435 82.4921 14.7435C82.9505 14.7435 83.3264 14.8994 83.6198 15.2111C83.9132 15.5229 84.0599 15.8896 84.0599 16.3114Z" fill="black"/>
<path d="M94.9525 0.0275051L95.0626 -1.38581e-06C95.1542 -1.38581e-06 95.2459 -1.38581e-06 95.3376 -1.38581e-06H95.6677L96.4379 0.660155C98.1616 2.21886 99.4178 4.16265 100.206 6.49154C100.995 8.82043 101.389 11.241 101.389 13.7533C101.389 15.0002 101.297 16.2013 101.114 17.3566C100.931 18.5119 100.72 19.493 100.481 20.2998C100.243 21.1067 99.9037 21.9135 99.4636 22.7204C99.0235 23.5273 98.6751 24.1416 98.4184 24.5633C98.1616 24.9851 97.7857 25.4527 97.2906 25.9662C96.7955 26.4796 96.5021 26.7822 96.4104 26.8739C96.3187 26.9656 96.1078 27.1398 95.7777 27.3965C95.7227 27.4515 95.686 27.4882 95.6677 27.5065H95.3376C95.1909 27.5065 95.0901 27.5065 95.0351 27.5065C94.98 27.5065 94.9342 27.479 94.8975 27.424C94.8608 27.369 94.8333 27.2865 94.815 27.1765C94.8333 27.1581 94.9342 27.0389 95.1176 26.8189C97.9599 23.8665 99.3811 19.5113 99.3811 13.7533C99.3811 7.99523 97.9599 3.64003 95.1176 0.687662C94.9342 0.46761 94.8333 0.348415 94.815 0.330077C94.815 0.183375 94.8608 0.0825182 94.9525 0.0275051Z" fill="black"/>
<path d="M107.606 12.6805C107.606 12.0937 107.752 11.4977 108.046 10.8926C108.339 10.2874 108.852 9.72815 109.586 9.21469C110.32 8.70124 111.209 8.45368 112.254 8.47202C113.391 8.47202 114.216 8.71958 114.73 9.21469C115.243 9.70981 115.509 10.2599 115.527 10.8651C115.527 11.4519 115.372 11.8828 115.06 12.1579C114.748 12.433 114.4 12.5797 114.015 12.598C113.776 12.598 113.556 12.5246 113.354 12.3779C113.153 12.2312 113.043 11.9929 113.024 11.6628C113.024 11.3694 113.107 11.1126 113.272 10.8926C113.437 10.6725 113.593 10.5075 113.739 10.3975C113.886 10.2874 114.005 10.2324 114.097 10.2324C114.115 10.2324 114.125 10.2233 114.125 10.2049C114.125 10.1499 114.06 10.0674 113.932 9.95737C113.804 9.84734 113.574 9.74649 113.244 9.6548C112.914 9.56311 112.557 9.5081 112.172 9.48976C111.291 9.48976 110.65 9.72815 110.246 10.2049C109.843 10.6817 109.632 11.1677 109.614 11.6628C109.614 12.1212 109.788 12.4421 110.136 12.6255C110.485 12.8089 110.989 12.9647 111.649 13.0931C112.309 13.2215 112.786 13.359 113.079 13.5057C114.29 14.0375 114.895 14.9177 114.895 16.1463C114.895 16.6598 114.794 17.1732 114.592 17.6867C114.39 18.2002 114.088 18.7136 113.684 19.2271C113.281 19.7405 112.703 20.144 111.952 20.4374C111.2 20.7308 110.338 20.8866 109.366 20.905C107.954 20.905 106.955 20.6391 106.368 20.1073C105.781 19.5755 105.478 18.952 105.46 18.2368C105.46 17.5217 105.653 17.0082 106.038 16.6965C106.423 16.3847 106.826 16.2289 107.248 16.2289C107.523 16.2289 107.78 16.3114 108.018 16.4764C108.257 16.6415 108.385 16.9257 108.403 17.3291C108.403 17.8059 108.238 18.2093 107.908 18.5394C107.578 18.8695 107.294 19.0345 107.055 19.0345C107.019 19.0529 106.991 19.062 106.973 19.062C106.955 19.062 106.945 19.0804 106.945 19.117C106.964 19.1721 107.037 19.2454 107.165 19.3371C107.294 19.4288 107.578 19.548 108.018 19.6947C108.458 19.8414 108.963 19.9056 109.531 19.8872C110.191 19.8872 110.76 19.7864 111.236 19.5847C111.713 19.3829 112.062 19.1262 112.282 18.8145C112.502 18.5027 112.658 18.2185 112.749 17.9618C112.841 17.705 112.887 17.4758 112.887 17.2741C112.887 16.7607 112.694 16.3756 112.309 16.1188C111.924 15.8621 111.484 15.7062 110.989 15.6512C110.494 15.5962 109.953 15.4587 109.366 15.2386C108.779 15.0186 108.348 14.6977 108.073 14.2759C107.761 13.8175 107.606 13.2857 107.606 12.6805Z" fill="black"/>
<path d="M121.964 4.12597C121.964 3.68587 122.138 3.30078 122.487 2.9707C122.835 2.64062 123.238 2.46641 123.697 2.44808C124.027 2.44808 124.302 2.5581 124.522 2.77815C124.742 2.99821 124.861 3.27327 124.88 3.60335C124.88 4.02512 124.696 4.41021 124.33 4.75862C123.963 5.10704 123.559 5.29042 123.119 5.30876C122.844 5.30876 122.587 5.21707 122.349 5.03369C122.111 4.85031 121.982 4.54774 121.964 4.12597ZM117.48 12.7355C117.48 12.5888 117.563 12.3046 117.728 11.8828C117.893 11.461 118.113 10.9934 118.388 10.48C118.663 9.96653 119.067 9.49892 119.598 9.07715C120.13 8.65538 120.68 8.45367 121.249 8.47201C121.964 8.47201 122.56 8.68289 123.037 9.10466C123.514 9.52642 123.761 10.0949 123.779 10.8101C123.779 11.1218 123.651 11.6353 123.394 12.3504C123.138 13.0656 122.771 14.0283 122.294 15.2386C121.817 16.4489 121.432 17.485 121.139 18.3469C121.047 18.7503 121.001 19.0437 121.001 19.2271C121.001 19.6855 121.157 19.9147 121.469 19.9147C121.634 19.9147 121.808 19.8872 121.991 19.8322C122.175 19.7772 122.386 19.6488 122.624 19.4471C122.863 19.2454 123.11 18.9245 123.367 18.4844C123.624 18.0443 123.853 17.5033 124.054 16.8615C124.109 16.6414 124.155 16.5131 124.192 16.4764C124.229 16.4397 124.385 16.4214 124.66 16.4214C125.026 16.4214 125.21 16.5131 125.21 16.6965C125.21 16.8432 125.127 17.1274 124.962 17.5492C124.797 17.9709 124.568 18.4385 124.275 18.952C123.981 19.4654 123.569 19.9239 123.037 20.3273C122.505 20.7308 121.936 20.9325 121.331 20.9325C120.745 20.9325 120.204 20.7399 119.708 20.3548C119.213 19.9697 118.957 19.3829 118.938 18.5944C118.938 18.2827 118.984 17.9893 119.076 17.7142C119.167 17.4391 119.562 16.3939 120.259 14.5785C120.955 12.7263 121.359 11.6169 121.469 11.2502C121.579 10.8834 121.643 10.5258 121.661 10.1774C121.661 9.73731 121.506 9.51725 121.194 9.51725H121.139C120.589 9.51725 120.084 9.81983 119.626 10.425C119.167 11.0301 118.819 11.8003 118.581 12.7355C118.562 12.7539 118.544 12.7814 118.526 12.818C118.507 12.8547 118.498 12.8822 118.498 12.9006C118.498 12.9189 118.48 12.9372 118.443 12.9556C118.406 12.9739 118.379 12.9831 118.361 12.9831C118.342 12.9831 118.306 12.9831 118.251 12.9831C118.196 12.9831 118.122 12.9831 118.031 12.9831H117.645C117.535 12.8731 117.48 12.7905 117.48 12.7355Z" fill="black"/>
<path d="M126.97 12.7355C126.988 12.6255 127.016 12.4788 127.053 12.2954C127.089 12.112 127.199 11.7636 127.383 11.2502C127.566 10.7367 127.75 10.3058 127.933 9.95736C128.116 9.60894 128.419 9.2697 128.841 8.93962C129.262 8.60954 129.684 8.45367 130.106 8.47201C130.766 8.47201 131.316 8.63705 131.756 8.96712C132.196 9.2972 132.471 9.60894 132.581 9.90235C132.692 10.1957 132.747 10.3883 132.747 10.48C132.747 10.5167 132.756 10.535 132.774 10.535L133.077 10.2324C134.195 9.05881 135.47 8.47201 136.9 8.47201C137.89 8.47201 138.688 8.71957 139.293 9.21468C139.898 9.7098 140.21 10.4341 140.228 11.3877C140.247 12.3413 139.898 13.7808 139.183 15.7062C138.468 17.6317 138.119 18.7961 138.138 19.1996C138.138 19.6763 138.294 19.9147 138.605 19.9147C138.715 19.9147 138.798 19.9056 138.853 19.8872C139.385 19.7955 139.862 19.4471 140.283 18.842C140.705 18.2368 141.026 17.5033 141.246 16.6414C141.283 16.4947 141.466 16.4214 141.796 16.4214C142.163 16.4214 142.346 16.4947 142.346 16.6414C142.346 16.6598 142.31 16.7973 142.236 17.054C142.09 17.5858 141.888 18.1085 141.631 18.6219C141.374 19.1354 140.953 19.6488 140.366 20.1623C139.779 20.6757 139.146 20.9233 138.468 20.905C137.606 20.905 136.983 20.6574 136.597 20.1623C136.212 19.6672 136.02 19.1537 136.02 18.6219C136.02 18.2735 136.35 17.1732 137.01 15.3211C137.67 13.469 138.009 12.0754 138.028 11.1401C138.028 10.0582 137.624 9.51725 136.817 9.51725H136.68C135.103 9.51725 133.773 10.4433 132.692 12.2954L132.499 12.6255L131.591 16.3114C130.986 18.7136 130.638 20.0064 130.546 20.1898C130.308 20.6849 129.913 20.9325 129.363 20.9325C129.125 20.9325 128.932 20.8775 128.786 20.7674C128.639 20.6574 128.538 20.5474 128.483 20.4373C128.428 20.3273 128.41 20.2356 128.428 20.1623C128.428 19.9239 128.776 18.4294 129.473 15.6787C130.17 12.9281 130.537 11.4335 130.574 11.1952C130.592 11.1035 130.601 10.8926 130.601 10.5625C130.601 9.84733 130.381 9.48975 129.941 9.48975C129.244 9.48975 128.666 10.4066 128.208 12.2404C128.098 12.6072 128.043 12.7997 128.043 12.818C128.006 12.9281 127.832 12.9831 127.52 12.9831H127.135C127.025 12.8731 126.97 12.7905 126.97 12.7355Z" fill="black"/>
<path d="M145.482 13.7533C145.482 12.488 145.574 11.2868 145.757 10.1499C145.94 9.01297 146.151 8.03191 146.39 7.20671C146.628 6.38151 146.967 5.57466 147.408 4.78614C147.848 3.99761 148.196 3.3833 148.453 2.9432C148.709 2.50309 149.095 2.02631 149.608 1.51286C150.121 0.999403 150.424 0.687662 150.516 0.577636C150.607 0.46761 150.837 0.275064 151.203 -1.38581e-06H151.561H151.671C151.928 -1.38581e-06 152.056 0.0825182 152.056 0.247557C152.056 0.30257 151.9 0.495116 151.589 0.825195C151.277 1.15527 150.901 1.64122 150.461 2.28304C150.021 2.92486 149.571 3.71338 149.113 4.6486C148.654 5.58382 148.269 6.84913 147.958 8.4445C147.646 10.0399 147.49 11.8095 147.49 13.7533C147.49 15.6971 147.646 17.4575 147.958 19.0345C148.269 20.6116 148.645 21.886 149.085 22.8579C149.526 23.8298 149.975 24.6183 150.433 25.2235C150.892 25.8286 151.277 26.3146 151.589 26.6813C151.9 27.0481 152.056 27.2406 152.056 27.259C152.056 27.424 151.919 27.5065 151.644 27.5065H151.561H151.203L150.433 26.8464C148.709 25.2877 147.453 23.3439 146.665 21.015C145.876 18.6861 145.482 16.2655 145.482 13.7533Z" fill="black"/>
<path d="M157.09 7.89438C156.595 7.89438 156.21 7.73851 155.935 7.42677C155.659 7.11503 155.513 6.7116 155.494 6.21648C155.494 5.20791 155.935 4.30936 156.815 3.52084C157.695 2.73232 158.759 2.33806 160.006 2.33806C160.647 2.33806 161.051 2.34723 161.216 2.36557C162.573 2.58562 163.609 3.07157 164.324 3.82341C165.039 4.57526 165.406 5.39128 165.424 6.27149C165.424 7.22505 165.113 8.15111 164.489 9.04965C163.866 9.9482 163.004 10.5992 161.903 11.0026L161.821 11.0576C161.821 11.076 161.903 11.1035 162.069 11.1401C162.234 11.1768 162.499 11.2593 162.866 11.3877C163.233 11.5161 163.581 11.7086 163.911 11.9653C165.415 12.9372 166.167 14.2209 166.167 15.8163C166.167 17.2649 165.599 18.5302 164.462 19.6122C163.325 20.6941 161.885 21.235 160.143 21.235C158.676 21.235 157.411 20.8408 156.347 20.0523C155.284 19.2637 154.752 18.2643 154.752 17.0541C154.752 16.5406 154.917 16.128 155.247 15.8163C155.577 15.5045 155.99 15.3395 156.485 15.3211C156.998 15.3211 157.42 15.4862 157.75 15.8163C158.08 16.1463 158.245 16.5589 158.245 17.0541C158.245 17.2558 158.218 17.4391 158.163 17.6042C158.108 17.7692 158.043 17.9159 157.97 18.0443C157.897 18.1727 157.796 18.2827 157.667 18.3744C157.539 18.4661 157.429 18.5394 157.337 18.5944C157.246 18.6494 157.154 18.6861 157.062 18.7044C156.971 18.7228 156.897 18.7503 156.842 18.787L156.732 18.8145C157.667 19.6397 158.804 20.0523 160.143 20.0523C161.152 20.0523 161.913 19.5663 162.426 18.5944C162.738 17.9893 162.894 17.0632 162.894 15.8163V15.2661C162.894 13.524 162.307 12.3596 161.133 11.7728C160.858 11.6628 160.299 11.5986 159.455 11.5803L158.3 11.5527L158.218 11.4977C158.181 11.4427 158.163 11.296 158.163 11.0576C158.163 10.7276 158.236 10.5625 158.383 10.5625C158.896 10.5625 159.428 10.5167 159.978 10.425C160.601 10.3333 161.17 9.9482 161.683 9.26971C162.197 8.59121 162.454 7.5643 162.454 6.18897V5.96892C162.454 4.92367 162.133 4.19934 161.491 3.79591C161.087 3.53918 160.657 3.41081 160.198 3.41081C159.611 3.41081 159.07 3.51167 158.575 3.71339C158.08 3.9151 157.732 4.12598 157.53 4.34604C157.328 4.56609 157.227 4.67612 157.227 4.67612H157.31C157.365 4.69445 157.438 4.71279 157.53 4.73113C157.622 4.74947 157.713 4.79531 157.805 4.86866C157.897 4.94201 158.007 5.00619 158.135 5.06121C158.263 5.11622 158.355 5.21708 158.41 5.36378C158.465 5.51048 158.539 5.64801 158.63 5.77638C158.722 5.90474 158.749 6.08812 158.713 6.32651C158.713 6.72994 158.584 7.08752 158.328 7.39926C158.071 7.711 157.658 7.87604 157.09 7.89438Z" fill="black"/>
<path d="M171.861 16.3114C171.861 16.7515 171.714 17.1182 171.421 17.4116C171.127 17.705 170.77 17.8517 170.348 17.8517H170.155C170.999 19.3004 172.118 20.0248 173.511 20.0248C174.795 20.0248 175.73 19.4746 176.317 18.3744C176.665 17.7692 176.84 16.5956 176.84 14.8535C176.84 12.9647 176.592 11.6903 176.097 11.0301C175.62 10.425 175.088 10.1224 174.501 10.1224H174.336C172.906 10.1224 171.824 10.7459 171.091 11.9929C171.017 12.1212 170.953 12.1946 170.898 12.2129C170.843 12.2312 170.706 12.2496 170.486 12.2679C170.174 12.2679 170 12.2129 169.963 12.1029C169.926 12.0295 169.908 10.425 169.908 7.28923V3.74089C169.908 2.82401 169.954 2.36557 170.045 2.36557C170.082 2.32889 170.119 2.31055 170.155 2.31055C170.174 2.31055 170.366 2.3839 170.733 2.5306C171.1 2.67731 171.604 2.82401 172.246 2.97071C172.888 3.11741 173.575 3.19076 174.309 3.19076C175.611 3.19076 176.858 2.93403 178.05 2.42058C178.197 2.34723 178.316 2.31055 178.407 2.31055C178.554 2.31055 178.627 2.47559 178.627 2.80567V3.16325C177.124 4.94201 175.244 5.83139 172.989 5.83139C172.42 5.83139 171.907 5.77638 171.448 5.66635L171.173 5.61134V10.3425C171.522 10.0857 171.797 9.88402 171.998 9.73732C172.2 9.59061 172.53 9.44391 172.989 9.29721C173.447 9.15051 173.915 9.07716 174.391 9.07716C175.877 9.07716 177.133 9.67313 178.16 10.8651C179.187 12.057 179.7 13.469 179.7 15.1011C179.7 16.7882 179.113 18.2277 177.94 19.4196C176.766 20.6116 175.336 21.2167 173.649 21.235C172.163 21.235 170.971 20.7399 170.073 19.7497C169.174 18.7595 168.725 17.6409 168.725 16.3939C168.725 15.9538 168.826 15.6054 169.028 15.3486C169.229 15.0919 169.44 14.9269 169.66 14.8535C169.88 14.7802 170.091 14.7435 170.293 14.7435C170.751 14.7435 171.127 14.8994 171.421 15.2111C171.714 15.5229 171.861 15.8896 171.861 16.3114Z" fill="black"/>
<path d="M185.012 9.48363C184.04 9.48363 183.255 9.16599 182.659 8.53072C182.062 7.89545 181.764 7.13053 181.764 6.23596C181.764 5.39325 181.959 4.59592 182.348 3.84396C182.737 3.09201 183.268 2.43729 183.942 1.8798C184.928 1.08895 185.932 0.69353 186.957 0.69353C187.371 0.69353 187.631 0.700012 187.734 0.712977C187.903 0.751871 188.072 0.797248 188.24 0.849107C188.409 0.900966 188.636 1.00468 188.921 1.16026C189.206 1.31584 189.439 1.51031 189.621 1.74367C189.802 1.97704 189.971 2.29468 190.126 2.69658C190.282 3.09849 190.36 3.55226 190.36 4.05788C190.36 5.44511 189.802 6.69621 188.687 7.81118C187.572 8.92614 186.347 9.48363 185.012 9.48363ZM183.456 6.93605C183.456 7.58429 183.625 8.05102 183.962 8.33625C184.299 8.62147 184.681 8.76408 185.109 8.76408C185.68 8.76408 186.218 8.55665 186.723 8.14178C187.229 7.7269 187.631 7.18239 187.929 6.50822C188.046 6.23596 188.195 5.75626 188.376 5.06913C188.558 4.382 188.649 3.78562 188.649 3.28C188.649 2.70955 188.532 2.27523 188.298 1.97704C187.987 1.5881 187.572 1.39363 187.054 1.39363C186.237 1.39363 185.518 1.7696 184.895 2.52156C184.416 3.09201 184.059 3.85045 183.826 4.79687C183.592 5.7433 183.469 6.45636 183.456 6.93605Z" fill="black"/>
<path d="M193.563 0.0275051L193.673 -1.38581e-06C193.765 -1.38581e-06 193.857 -1.38581e-06 193.949 -1.38581e-06H194.279L195.049 0.660155C196.773 2.21886 198.029 4.16265 198.817 6.49154C199.606 8.82043 200 11.241 200 13.7533C200 15.0002 199.908 16.2013 199.725 17.3566C199.542 18.5119 199.331 19.493 199.092 20.2998C198.854 21.1067 198.515 21.9135 198.075 22.7204C197.634 23.5273 197.286 24.1416 197.029 24.5633C196.773 24.9851 196.397 25.4527 195.901 25.9662C195.406 26.4796 195.113 26.7822 195.021 26.8739C194.93 26.9656 194.719 27.1398 194.389 27.3965C194.334 27.4515 194.297 27.4882 194.279 27.5065H193.949C193.802 27.5065 193.701 27.5065 193.646 27.5065C193.591 27.5065 193.545 27.479 193.508 27.424C193.472 27.369 193.444 27.2865 193.426 27.1765C193.444 27.1581 193.545 27.0389 193.728 26.8189C196.571 23.8665 197.992 19.5113 197.992 13.7533C197.992 7.99523 196.571 3.64003 193.728 0.687662C193.545 0.46761 193.444 0.348415 193.426 0.330077C193.426 0.183375 193.472 0.0825182 193.563 0.0275051Z" fill="black"/>
</svg>
