<svg width="130" height="147" viewBox="0 0 130 147" fill="none" xmlns="http://www.w3.org/2000/svg">
<path d="M2.40296 146.941H2.16266C1.20148 146.941 0.480591 146.38 0 145.259V86.8669L0.120148 28.4751C0.921134 27.4338 1.68207 26.9131 2.40296 26.9131C3.44424 26.9131 4.24522 27.5139 4.80591 28.7153V145.259C4.16513 146.38 3.44424 146.941 2.64325 146.941H2.40296Z" fill="black"/>
<path d="M44.0943 108.133C44.0943 110.055 45.9366 111.177 49.6211 111.497C51.0629 111.497 51.7838 111.938 51.7838 112.819C51.7838 112.899 51.7037 113.42 51.5435 114.381C51.3032 115.502 51.0629 116.223 50.8226 116.543C50.5823 116.864 50.0616 117.024 49.2607 117.024C49.1005 117.024 48.6199 117.024 47.8189 117.024C47.0179 117.024 45.6562 116.984 43.7339 116.904C41.8115 116.824 39.2483 116.784 36.0444 116.784C30.3574 116.784 26.7129 116.864 25.1109 117.024H24.1498C23.5891 116.463 23.3087 116.023 23.3087 115.702C23.4689 113.54 23.9896 112.138 24.8706 111.497H26.5527C32.1596 111.257 36.2446 109.254 38.8078 105.49C39.2884 105.009 46.5373 92.7942 60.5546 68.8447C74.5718 44.8952 81.7006 32.7603 81.9409 32.4399C82.5016 31.4787 83.4628 30.9981 84.8244 30.9981H85.7856H87.8281C88.3087 31.719 88.549 32.1195 88.549 32.1996L91.9132 71.0074C94.1559 96.8792 95.3574 109.935 95.5176 110.176C95.9181 111.057 98.5213 111.497 103.327 111.497C105.33 111.497 106.331 111.898 106.331 112.699C106.331 112.859 106.211 113.42 105.97 114.381C105.73 115.582 105.53 116.303 105.37 116.543C105.21 116.784 104.649 116.944 103.688 117.024C103.447 117.024 102.887 117.024 102.006 117.024C101.124 117.024 99.5626 116.984 97.3198 116.904C95.0771 116.824 92.1535 116.784 88.549 116.784C81.0197 116.784 76.0937 116.864 73.7708 117.024H72.3291C71.8485 116.543 71.6082 116.183 71.6082 115.943C71.6082 115.702 71.6883 114.982 71.8485 113.78C72.1689 112.739 72.4092 112.098 72.5693 111.858L73.0499 111.497H75.4529C79.7782 111.257 82.3414 110.576 83.1424 109.455L81.7006 91.4325H53.1054L49.0204 98.4011C45.7363 103.928 44.0943 107.172 44.0943 108.133ZM81.0998 85.7856C81.0998 84.9045 80.6193 78.6568 79.6581 67.0425C78.6969 55.4282 78.1362 49.581 77.976 49.5009L74.732 54.6673C73.4504 56.8299 70.9273 61.1152 67.1627 67.5231L56.3494 85.7856L68.7246 85.9057C76.9748 85.9057 81.0998 85.8657 81.0998 85.7856Z" fill="black"/>
<path d="M96.1183 2.40294C96.1183 1.76215 96.3185 1.20146 96.719 0.720869C97.1195 0.240277 97.7203 -1.86712e-05 98.5212 -1.86712e-05C99.0819 -1.86712e-05 99.5625 0.200228 99.963 0.600721C100.364 0.921115 100.764 1.68205 101.164 2.88353C101.965 5.84718 103.607 8.12999 106.091 9.73196C106.972 10.2926 107.412 11.0135 107.412 11.8946C107.412 12.6155 107.292 13.0961 107.052 13.3364C106.811 13.5767 106.251 13.9371 105.37 14.4177C101.925 16.1799 98.9217 18.703 96.3586 21.987C96.1984 22.1472 95.9981 22.3875 95.7578 22.7079C95.5175 23.0283 95.3173 23.2686 95.1571 23.4288C94.9969 23.589 94.7967 23.6691 94.5564 23.6691C94.3161 23.6691 94.0357 23.7092 93.7153 23.7893C93.1546 23.7893 92.634 23.589 92.1534 23.1885C91.6728 22.788 91.3925 22.1873 91.3124 21.3863C91.3124 19.8644 93.1947 17.5015 96.9593 14.2976H76.414L55.8687 14.1774C54.8275 13.4565 54.3068 12.6956 54.3068 11.8946C54.3068 11.3339 54.8275 10.5329 55.8687 9.49166H99.0018C97.0795 6.44792 96.1183 4.08501 96.1183 2.40294Z" fill="black"/>
<path d="M127.597 146.941H127.357C126.396 146.941 125.675 146.38 125.194 145.259V86.8669L125.314 28.4751C126.115 27.4338 126.876 26.9131 127.597 26.9131C128.638 26.9131 129.439 27.5139 130 28.7153V145.259C129.359 146.38 128.638 146.941 127.837 146.941H127.597Z" fill="black"/>
</svg>
