<svg width="200" height="39" viewBox="0 0 200 39" fill="none" xmlns="http://www.w3.org/2000/svg">
<path d="M5.41556 28.1734C5.41556 28.6743 5.89555 28.9665 6.85553 29.0499C7.23118 29.0499 7.419 29.1647 7.419 29.3943C7.419 29.4151 7.39813 29.5508 7.35639 29.8012C7.29379 30.0934 7.23118 30.2812 7.16857 30.3647C7.10596 30.4482 6.97031 30.4899 6.76162 30.4899C6.71988 30.4899 6.59467 30.4899 6.38598 30.4899C6.17728 30.4899 5.82251 30.4795 5.32165 30.4586C4.82079 30.4377 4.15297 30.4273 3.3182 30.4273C1.83649 30.4273 0.886941 30.4482 0.469557 30.4899H0.219127C0.0730422 30.3438 0 30.229 0 30.1456C0.0417384 29.5821 0.177388 29.2169 0.406949 29.0499H0.845203C2.30605 28.9873 3.37038 28.4656 4.03819 27.4847C4.16341 27.3595 6.05207 24.177 9.70418 17.9371C13.3563 11.6972 15.2136 8.53551 15.2763 8.45204C15.4223 8.20161 15.6728 8.07639 16.0275 8.07639H16.278H16.8101C16.9354 8.26421 16.998 8.36856 16.998 8.38943L17.8745 18.5006C18.4588 25.2413 18.7718 28.643 18.8136 28.7056C18.9179 28.9352 19.5962 29.0499 20.8483 29.0499C21.3701 29.0499 21.6309 29.1543 21.6309 29.363C21.6309 29.4047 21.5996 29.5508 21.537 29.8012C21.4744 30.1143 21.4222 30.3021 21.3805 30.3647C21.3388 30.4273 21.1927 30.469 20.9422 30.4899C20.8796 30.4899 20.7336 30.4899 20.504 30.4899C20.2744 30.4899 19.8675 30.4795 19.2831 30.4586C18.6988 30.4377 17.9371 30.4273 16.998 30.4273C15.0363 30.4273 13.7528 30.4482 13.1476 30.4899H12.772C12.6467 30.3647 12.5841 30.2708 12.5841 30.2082C12.5841 30.1456 12.605 29.9577 12.6467 29.6447C12.7302 29.3734 12.7928 29.2065 12.8346 29.1439L12.9598 29.0499H13.5859C14.7128 28.9873 15.3806 28.8099 15.5893 28.5178L15.2136 23.8222H7.76334L6.69901 25.6378C5.84338 27.0778 5.41556 27.923 5.41556 28.1734ZM15.0571 22.3509C15.0571 22.1214 14.9319 20.4936 14.6815 17.4675C14.4311 14.4415 14.285 12.918 14.2432 12.8972L13.398 14.2432C13.0641 14.8067 12.4067 15.9232 11.4259 17.5927L8.60855 22.3509L11.8328 22.3822C13.9824 22.3822 15.0571 22.3718 15.0571 22.3509Z" fill="black"/>
<path d="M23.5331 28.7894C23.6364 28.1697 24.0348 27.4541 24.7282 26.6426C25.4217 25.8311 26.2774 25.418 27.2955 25.4032C27.8119 25.4032 28.2841 25.536 28.7119 25.8016C29.1398 26.0672 29.457 26.3992 29.6636 26.7975C30.2833 25.868 31.0284 25.4032 31.8989 25.4032C32.4448 25.4032 32.917 25.5655 33.3154 25.8901C33.7137 26.2147 33.9203 26.65 33.935 27.1959C33.935 27.6238 33.8318 27.9705 33.6252 28.2361C33.4186 28.5017 33.2194 28.664 33.0276 28.723C32.8358 28.782 32.6662 28.8115 32.5186 28.8115C32.2383 28.8115 32.0096 28.7304 31.8325 28.5681C31.6555 28.4058 31.5669 28.1918 31.5669 27.9263C31.5669 27.2475 31.9358 26.7828 32.6735 26.532C32.5112 26.3401 32.2161 26.2442 31.7883 26.2442C31.5964 26.2442 31.4563 26.259 31.3678 26.2885C30.8071 26.5246 30.394 27.0115 30.1284 27.7492C29.2431 31.01 28.8005 32.9133 28.8005 33.4592C28.8005 33.8723 28.9185 34.1674 29.1546 34.3445C29.3906 34.5215 29.6489 34.6101 29.9292 34.6101C30.4751 34.6101 31.0136 34.3666 31.5448 33.8797C32.076 33.3928 32.4375 32.7952 32.6293 32.087C32.6735 31.9395 32.7178 31.8583 32.7621 31.8436C32.8063 31.8288 32.9244 31.8141 33.1162 31.7993H33.2047C33.426 31.7993 33.5367 31.8583 33.5367 31.9764C33.5367 31.9911 33.5219 32.0723 33.4924 32.2198C33.2563 33.0608 32.7989 33.8059 32.1202 34.4551C31.4415 35.1043 30.6522 35.4289 29.7521 35.4289C28.7193 35.4289 27.9373 34.9642 27.4062 34.0346C26.8012 34.9494 26.1078 35.4068 25.3258 35.4068H25.193C24.47 35.4068 23.9536 35.215 23.6438 34.8314C23.3339 34.4478 23.1716 34.042 23.1569 33.6141C23.1569 33.142 23.297 32.7584 23.5774 32.4633C23.8577 32.1682 24.1897 32.0206 24.5733 32.0206C25.2077 32.0206 25.525 32.3305 25.525 32.9502C25.525 33.2453 25.4364 33.5035 25.2594 33.7248C25.0823 33.9461 24.9126 34.0936 24.7503 34.1674C24.588 34.2412 24.4921 34.2781 24.4626 34.2781L24.3962 34.3002C24.3962 34.315 24.4405 34.3445 24.529 34.3887C24.6176 34.433 24.7356 34.4846 24.8831 34.5437C25.0307 34.6027 25.1709 34.6248 25.3036 34.6101C25.8348 34.6101 26.2922 34.2781 26.6758 33.6141C26.8086 33.3781 26.9783 32.8764 27.1848 32.1092C27.3914 31.3419 27.598 30.5452 27.8045 29.7189C28.0111 28.8927 28.1291 28.4058 28.1586 28.2582C28.2324 27.8599 28.2693 27.5721 28.2693 27.3951C28.2693 26.982 28.1586 26.6869 27.9373 26.5098C27.716 26.3328 27.4652 26.2442 27.1848 26.2442C26.5947 26.2442 26.0414 26.4803 25.525 26.9525C25.0086 27.4246 24.6471 28.0295 24.4405 28.7673C24.411 28.9001 24.3741 28.9738 24.3298 28.9886C24.2856 29.0033 24.1675 29.0181 23.9757 29.0328H23.6659C23.5774 28.9443 23.5331 28.8632 23.5331 28.7894Z" fill="black"/>
<path d="M47.0559 19.6275C47.0559 19.3562 47.202 19.1475 47.4942 19.0014H67.4347C67.7477 19.1684 67.9042 19.3771 67.9042 19.6275C67.9042 19.857 67.7582 20.0553 67.466 20.2223L57.5114 20.2536H47.5568C47.2229 20.1492 47.0559 19.9405 47.0559 19.6275ZM47.0559 25.7004C47.0559 25.3874 47.2229 25.1787 47.5568 25.0743H67.466C67.7582 25.283 67.9042 25.4917 67.9042 25.7004C67.9042 25.9717 67.7477 26.1804 67.4347 26.3265H47.4942C47.202 26.1804 47.0559 25.9717 47.0559 25.7004Z" fill="black"/>
<path d="M82.7046 38.2846H82.642C82.3916 38.2846 82.2038 38.1385 82.0786 37.8463V22.6327L82.1099 7.419C82.3185 7.1477 82.5168 7.01205 82.7046 7.01205C82.9759 7.01205 83.1846 7.16857 83.3307 7.48161V37.8463C83.1638 38.1385 82.9759 38.2846 82.7672 38.2846H82.7046Z" fill="black"/>
<path d="M93.567 28.1734C93.567 28.6743 94.047 28.9665 95.007 29.0499C95.3827 29.0499 95.5705 29.1647 95.5705 29.3943C95.5705 29.4151 95.5496 29.5508 95.5079 29.8012C95.4453 30.0934 95.3827 30.2812 95.3201 30.3647C95.2575 30.4482 95.1218 30.4899 94.9131 30.4899C94.8714 30.4899 94.7462 30.4899 94.5375 30.4899C94.3288 30.4899 93.974 30.4795 93.4731 30.4586C92.9723 30.4377 92.3045 30.4273 91.4697 30.4273C89.988 30.4273 89.0384 30.4482 88.621 30.4899H88.3706C88.2245 30.3438 88.1515 30.229 88.1515 30.1456C88.1932 29.5821 88.3289 29.2169 88.5584 29.0499H88.9967C90.4575 28.9873 91.5219 28.4656 92.1897 27.4847C92.3149 27.3595 94.2036 24.177 97.8557 17.9371C101.508 11.6972 103.365 8.5355 103.428 8.45203C103.574 8.2016 103.824 8.07638 104.179 8.07638H104.429H104.962C105.087 8.26421 105.149 8.36855 105.149 8.38942L106.026 18.5005C106.61 25.2413 106.923 28.643 106.965 28.7056C107.069 28.9352 107.748 29.0499 109 29.0499C109.522 29.0499 109.782 29.1543 109.782 29.363C109.782 29.4047 109.751 29.5508 109.689 29.8012C109.626 30.1143 109.574 30.3021 109.532 30.3647C109.49 30.4273 109.344 30.469 109.094 30.4899C109.031 30.4899 108.885 30.4899 108.655 30.4899C108.426 30.4899 108.019 30.4795 107.435 30.4586C106.85 30.4377 106.089 30.4273 105.149 30.4273C103.188 30.4273 101.904 30.4482 101.299 30.4899H100.923C100.798 30.3647 100.736 30.2708 100.736 30.2082C100.736 30.1456 100.756 29.9577 100.798 29.6447C100.882 29.3734 100.944 29.2065 100.986 29.1438L101.111 29.0499H101.737C102.864 28.9873 103.532 28.8099 103.741 28.5178L103.365 23.8222H95.9148L94.8505 25.6378C93.9949 27.0778 93.567 27.923 93.567 28.1734ZM103.209 22.3509C103.209 22.1214 103.083 20.4936 102.833 17.4675C102.583 14.4415 102.436 12.918 102.395 12.8972L101.55 14.2432C101.216 14.8067 100.558 15.9232 99.5774 17.5927L96.76 22.3509L99.9843 22.3822C102.134 22.3822 103.209 22.3718 103.209 22.3509Z" fill="black"/>
<path d="M107.122 0.626073C107.122 0.45912 107.174 0.313035 107.278 0.18782C107.382 0.062605 107.539 -2.63005e-06 107.748 -2.63005e-06C107.894 -2.63005e-06 108.019 0.0521704 108.123 0.156516C108.228 0.239993 108.332 0.438251 108.436 0.751289C108.645 1.52345 109.073 2.11822 109.72 2.53561C109.949 2.68169 110.064 2.86951 110.064 3.09907C110.064 3.2869 110.033 3.41211 109.97 3.47472C109.908 3.53733 109.762 3.63124 109.532 3.75645C108.635 4.21558 107.852 4.87296 107.184 5.72859C107.142 5.77033 107.09 5.83294 107.028 5.91642C106.965 5.99989 106.913 6.0625 106.871 6.10424C106.829 6.14598 106.777 6.16685 106.715 6.16685C106.652 6.16685 106.579 6.17728 106.495 6.19815C106.349 6.19815 106.214 6.14598 106.089 6.04163C105.963 5.93729 105.89 5.78077 105.869 5.57207C105.869 5.17556 106.36 4.55992 107.341 3.72515H101.988L96.6348 3.69385C96.3635 3.50602 96.2278 3.30777 96.2278 3.09907C96.2278 2.95299 96.3635 2.7443 96.6348 2.473H107.873C107.372 1.67997 107.122 1.06433 107.122 0.626073Z" fill="black"/>
<path d="M115.323 38.2846H115.261C115.01 38.2846 114.822 38.1385 114.697 37.8463V22.6327L114.728 7.419C114.937 7.1477 115.135 7.01205 115.323 7.01205C115.595 7.01205 115.803 7.16857 115.949 7.48161V37.8463C115.782 38.1385 115.595 38.2846 115.386 38.2846H115.323Z" fill="black"/>
<path d="M123.775 21.4431C123.775 20.7753 123.942 20.097 124.276 19.4084C124.61 18.7197 125.194 18.0832 126.029 17.4988C126.864 16.9145 127.876 16.6328 129.066 16.6536C130.359 16.6536 131.299 16.9354 131.883 17.4988C132.467 18.0623 132.77 18.6884 132.791 19.3771C132.791 20.0449 132.613 20.5353 132.259 20.8483C131.904 21.1614 131.507 21.3283 131.069 21.3492C130.798 21.3492 130.547 21.2657 130.318 21.0988C130.088 20.9318 129.963 20.6605 129.942 20.2849C129.942 19.951 130.036 19.6588 130.224 19.4084C130.412 19.1579 130.589 18.9701 130.756 18.8449C130.923 18.7197 131.059 18.6571 131.163 18.6571C131.184 18.6571 131.194 18.6466 131.194 18.6258C131.194 18.5632 131.121 18.4692 130.975 18.344C130.829 18.2188 130.568 18.104 130.193 17.9997C129.817 17.8953 129.41 17.8327 128.972 17.8119C127.97 17.8119 127.24 18.0832 126.78 18.6258C126.321 19.1684 126.081 19.7214 126.06 20.2849C126.06 20.8066 126.259 21.1718 126.655 21.3805C127.052 21.5892 127.626 21.7666 128.377 21.9127C129.128 22.0587 129.671 22.2153 130.005 22.3822C131.382 22.9874 132.071 23.9891 132.071 25.3874C132.071 25.9717 131.956 26.5561 131.726 27.1404C131.497 27.7247 131.153 28.3091 130.693 28.8934C130.234 29.4777 129.577 29.9369 128.721 30.2708C127.866 30.6047 126.885 30.7821 125.779 30.8029C124.172 30.8029 123.034 30.5003 122.367 29.8951C121.699 29.2899 121.354 28.5804 121.334 27.7665C121.334 26.9526 121.553 26.3682 121.991 26.0135C122.429 25.6587 122.888 25.4813 123.368 25.4813C123.681 25.4813 123.974 25.5752 124.245 25.763C124.516 25.9509 124.662 26.2743 124.683 26.7334C124.683 27.276 124.495 27.7352 124.12 28.1108C123.744 28.4865 123.42 28.6743 123.149 28.6743C123.107 28.6952 123.076 28.7056 123.055 28.7056C123.034 28.7056 123.024 28.7265 123.024 28.7682C123.045 28.8308 123.128 28.9143 123.274 29.0186C123.42 29.123 123.744 29.2586 124.245 29.4256C124.746 29.5925 125.32 29.6656 125.967 29.6447C126.718 29.6447 127.365 29.5299 127.907 29.3004C128.45 29.0708 128.846 28.7786 129.097 28.4239C129.347 28.0691 129.525 27.7456 129.629 27.4534C129.733 27.1613 129.786 26.9004 129.786 26.6708C129.786 26.0865 129.566 25.6482 129.128 25.3561C128.69 25.0639 128.189 24.8865 127.626 24.8239C127.062 24.7613 126.447 24.6048 125.779 24.3544C125.111 24.1039 124.62 23.7387 124.307 23.2587C123.953 22.737 123.775 22.1318 123.775 21.4431Z" fill="black"/>
<path d="M140.116 11.7076C140.116 11.2068 140.314 10.7685 140.711 10.3929C141.107 10.0172 141.566 9.81896 142.088 9.79809C142.464 9.79809 142.777 9.9233 143.027 10.1737C143.278 10.4242 143.413 10.7372 143.434 11.1128C143.434 11.5928 143.225 12.0311 142.808 12.4276C142.391 12.8241 141.931 13.0328 141.431 13.0537C141.118 13.0537 140.825 12.9493 140.554 12.7406C140.283 12.532 140.137 12.1876 140.116 11.7076ZM135.013 21.5057C135.013 21.3388 135.107 21.0153 135.295 20.5353C135.483 20.0553 135.733 19.5231 136.046 18.9388C136.359 18.3545 136.818 17.8223 137.424 17.3423C138.029 16.8623 138.655 16.6328 139.302 16.6536C140.116 16.6536 140.794 16.8936 141.337 17.3736C141.879 17.8536 142.161 18.5005 142.182 19.3144C142.182 19.6692 142.036 20.2536 141.744 21.0675C141.451 21.8814 141.034 22.977 140.491 24.3544C139.949 25.7317 139.511 26.9108 139.177 27.8917C139.072 28.3508 139.02 28.6847 139.02 28.8934C139.02 29.4151 139.198 29.676 139.552 29.676C139.74 29.676 139.938 29.6447 140.147 29.5821C140.356 29.5195 140.596 29.3734 140.867 29.1438C141.138 28.9143 141.42 28.5491 141.712 28.0482C142.004 27.5473 142.265 26.9317 142.495 26.2013C142.558 25.9509 142.61 25.8048 142.651 25.763C142.693 25.7213 142.871 25.7004 143.184 25.7004C143.601 25.7004 143.81 25.8048 143.81 26.0135C143.81 26.1804 143.716 26.5039 143.528 26.9839C143.34 27.4639 143.079 27.996 142.745 28.5804C142.411 29.1647 141.942 29.6864 141.337 30.1456C140.731 30.6047 140.085 30.8342 139.396 30.8342C138.728 30.8342 138.112 30.6151 137.549 30.1769C136.985 29.7386 136.693 29.0708 136.672 28.1734C136.672 27.8186 136.725 27.4847 136.829 27.1717C136.933 26.8587 137.382 25.6691 138.175 23.6031C138.968 21.4953 139.427 20.2327 139.552 19.8153C139.678 19.3979 139.751 18.991 139.771 18.5945C139.771 18.0936 139.594 17.8432 139.239 17.8432H139.177C138.551 17.8432 137.977 18.1875 137.455 18.8762C136.933 19.5649 136.537 20.4414 136.265 21.5057C136.245 21.5266 136.224 21.5579 136.203 21.5996C136.182 21.6414 136.172 21.6727 136.172 21.6935C136.172 21.7144 136.151 21.7353 136.109 21.7561C136.067 21.777 136.036 21.7874 136.015 21.7874C135.994 21.7874 135.952 21.7874 135.89 21.7874C135.827 21.7874 135.744 21.7874 135.639 21.7874H135.201C135.076 21.6622 135.013 21.5683 135.013 21.5057Z" fill="black"/>
<path d="M145.813 21.5057C145.834 21.3805 145.865 21.2135 145.907 21.0048C145.949 20.7962 146.074 20.3996 146.283 19.8153C146.491 19.231 146.7 18.7405 146.909 18.344C147.117 17.9475 147.462 17.5614 147.942 17.1858C148.422 16.8101 148.902 16.6328 149.382 16.6536C150.133 16.6536 150.759 16.8414 151.26 17.2171C151.761 17.5927 152.074 17.9475 152.199 18.2814C152.324 18.6153 152.387 18.8345 152.387 18.9388C152.387 18.9805 152.397 19.0014 152.418 19.0014L152.763 18.6571C154.036 17.3214 155.486 16.6536 157.114 16.6536C158.241 16.6536 159.149 16.9354 159.837 17.4988C160.526 18.0623 160.881 18.8866 160.902 19.9718C160.922 21.057 160.526 22.6953 159.712 24.8865C158.898 27.0778 158.502 28.403 158.522 28.8621C158.522 29.4047 158.7 29.676 159.055 29.676C159.18 29.676 159.274 29.6656 159.336 29.6447C159.942 29.5404 160.484 29.1438 160.964 28.4552C161.444 27.7665 161.809 26.9317 162.06 25.9509C162.102 25.7839 162.31 25.7004 162.686 25.7004C163.103 25.7004 163.312 25.7839 163.312 25.9509C163.312 25.9717 163.27 26.1282 163.187 26.4204C163.02 27.0256 162.79 27.6204 162.498 28.2047C162.206 28.7891 161.726 29.3734 161.058 29.9577C160.39 30.5421 159.67 30.8238 158.898 30.8029C157.917 30.8029 157.208 30.5212 156.769 29.9577C156.331 29.3943 156.112 28.8099 156.112 28.2047C156.112 27.8082 156.488 26.5561 157.239 24.4483C157.99 22.3405 158.376 20.7544 158.397 19.6901C158.397 18.4588 157.938 17.8432 157.02 17.8432H156.863C155.069 17.8432 153.556 18.8971 152.324 21.0048L152.105 21.3805L151.072 25.5752C150.383 28.3091 149.987 29.7803 149.883 29.989C149.611 30.5525 149.163 30.8342 148.537 30.8342C148.265 30.8342 148.046 30.7716 147.879 30.6464C147.712 30.5212 147.597 30.396 147.535 30.2708C147.472 30.1456 147.451 30.0412 147.472 29.9577C147.472 29.6864 147.869 27.9856 148.662 24.8552C149.455 21.7248 149.872 20.024 149.914 19.7527C149.935 19.6484 149.945 19.4084 149.945 19.0327C149.945 18.2188 149.695 17.8119 149.194 17.8119C148.401 17.8119 147.744 18.8553 147.222 20.9422C147.097 21.3596 147.034 21.5788 147.034 21.5996C146.992 21.7248 146.794 21.7874 146.439 21.7874H146.001C145.876 21.6622 145.813 21.5683 145.813 21.5057Z" fill="black"/>
<path d="M166.881 22.664C166.881 21.224 166.985 19.857 167.194 18.5632C167.402 17.2693 167.642 16.1528 167.914 15.2136C168.185 14.2745 168.571 13.3563 169.072 12.4589C169.573 11.5615 169.969 10.8624 170.261 10.3616C170.554 9.8607 170.992 9.3181 171.576 8.73376C172.16 8.14942 172.505 7.79465 172.609 7.66943C172.713 7.54422 172.974 7.32509 173.392 7.01205H173.799H173.924C174.216 7.01205 174.362 7.10596 174.362 7.29379C174.362 7.35639 174.185 7.57552 173.83 7.95117C173.475 8.32681 173.047 8.87985 172.547 9.61027C172.046 10.3407 171.534 11.2381 171.013 12.3024C170.491 13.3667 170.053 14.8067 169.698 16.6223C169.343 18.4379 169.166 20.4518 169.166 22.664C169.166 24.8761 169.343 26.8795 169.698 28.6743C170.053 30.469 170.48 31.9194 170.981 33.0255C171.482 34.1316 171.994 35.029 172.515 35.7176C173.037 36.4063 173.475 36.9594 173.83 37.3767C174.185 37.7941 174.362 38.0133 174.362 38.0341C174.362 38.2219 174.206 38.3159 173.893 38.3159H173.799H173.392L172.515 37.5646C170.554 35.7907 169.124 33.5785 168.227 30.9282C167.329 28.2778 166.881 25.523 166.881 22.664Z" fill="black"/>
<path d="M177.211 24.2291C177.211 22.1005 177.618 19.857 178.432 17.4988C179.246 15.1406 180.352 13.1059 181.75 11.3946C183.148 9.68331 184.599 8.70245 186.101 8.45202C186.122 8.45202 186.205 8.45202 186.352 8.45202C186.498 8.45202 186.623 8.44159 186.727 8.42072C187.854 8.5042 188.731 9.01549 189.357 9.95461C190.171 11.2068 190.578 12.8867 190.578 14.9945C190.578 17.3945 190.108 19.8362 189.169 22.3196C188.23 24.803 187.03 26.8378 185.569 28.4239C184.108 30.0099 182.71 30.8029 181.374 30.8029H181.155C180.404 30.8029 179.757 30.5942 179.214 30.1769C178.672 29.7595 178.265 29.2064 177.993 28.5178C177.722 27.8291 177.524 27.13 177.399 26.4204C177.273 25.7109 177.211 24.9804 177.211 24.2291ZM188.105 12.7719C188.105 10.6433 187.552 9.57896 186.445 9.57896C185.694 9.57896 184.964 10.0485 184.254 10.9876C183.545 11.9267 182.96 12.9911 182.501 14.1806C182.042 15.3702 181.687 16.4136 181.437 17.311C181.186 18.2084 181.051 18.7301 181.03 18.8762C182.052 18.8971 183.065 18.9075 184.066 18.9075L187.103 18.8762C187.124 18.8553 187.207 18.511 187.353 17.8432C187.499 17.1754 187.666 16.3406 187.854 15.3389C188.042 14.3371 188.125 13.4815 188.105 12.7719ZM179.653 26.3578C179.653 28.5699 180.206 29.676 181.312 29.676C181.625 29.676 181.959 29.5717 182.313 29.363C182.668 29.1543 183.096 28.7578 183.597 28.1734C184.098 27.5891 184.599 26.6813 185.099 25.45C185.6 24.2187 186.101 22.6953 186.602 20.8796L186.758 20.3475H180.654C180.654 20.4101 180.56 20.8066 180.372 21.537C180.185 22.2674 180.018 23.0813 179.872 23.9787C179.726 24.8761 179.653 25.6691 179.653 26.3578Z" fill="black"/>
<path d="M192.675 7.04336L192.8 7.01205C192.904 7.01205 193.009 7.01205 193.113 7.01205H193.489L194.365 7.76334C196.327 9.53723 197.757 11.7494 198.654 14.3998C199.551 17.0501 200 19.8049 200 22.664C200 24.0831 199.896 25.45 199.687 26.7648C199.478 28.0795 199.238 29.196 198.967 30.1143C198.696 31.0325 198.31 31.9508 197.809 32.869C197.308 33.7872 196.911 34.4864 196.619 34.9663C196.327 35.4463 195.899 35.9785 195.336 36.5628C194.772 37.1472 194.438 37.4915 194.334 37.5959C194.23 37.7002 193.99 37.8985 193.614 38.1906C193.551 38.2532 193.51 38.295 193.489 38.3159H193.113C192.946 38.3159 192.831 38.3159 192.769 38.3159C192.706 38.3159 192.654 38.2846 192.612 38.2219C192.571 38.1593 192.539 38.0654 192.518 37.9402C192.539 37.9193 192.654 37.7837 192.863 37.5333C196.097 34.1733 197.715 29.2169 197.715 22.664C197.715 16.111 196.097 11.1546 192.863 7.79465C192.654 7.54422 192.539 7.40857 192.518 7.3877C192.518 7.22074 192.571 7.10596 192.675 7.04336Z" fill="black"/>
</svg>
