<svg width="1102" height="756" viewBox="0 0 1102 756" fill="none" xmlns="http://www.w3.org/2000/svg">
<g filter="url(#filter0_d_6_20)">
<path d="M1006.47 596.475C1007.84 595.108 1007.84 592.892 1006.47 591.525L984.201 569.251C982.834 567.884 980.618 567.884 979.251 569.251C977.884 570.618 977.884 572.834 979.251 574.201L999.05 594L979.251 613.799C977.884 615.166 977.884 617.382 979.251 618.749C980.618 620.116 982.834 620.116 984.201 618.749L1006.47 596.475ZM4 597.5H1004V590.5H4V597.5Z" fill="black"/>
</g>
<g filter="url(#filter1_d_6_20)">
<path d="M506.475 91.5251C505.108 90.1583 502.892 90.1583 501.525 91.5251L479.251 113.799C477.884 115.166 477.884 117.382 479.251 118.749C480.618 120.116 482.834 120.116 484.201 118.749L504 98.9497L523.799 118.749C525.166 120.116 527.382 120.116 528.749 118.749C530.116 117.382 530.116 115.166 528.749 113.799L506.475 91.5251ZM507.5 748L507.5 94H500.5L500.5 748H507.5Z" fill="black"/>
</g>
<path d="M970 424L896.075 411.021L921.798 481.531L970 424ZM506.228 600.106L917.27 450.155L912.815 437.942L501.772 587.894L506.228 600.106Z" fill="#6C63FF"/>
<path d="M857 547.395C857 539.935 858.426 532.074 861.278 523.811C864.13 515.547 868.006 508.417 872.905 502.421C877.805 496.424 882.887 492.987 888.153 492.11C888.226 492.11 888.518 492.11 889.03 492.11C889.542 492.11 889.981 492.073 890.346 492C894.295 492.293 897.367 494.084 899.561 497.375C902.413 501.763 903.839 507.649 903.839 515.035C903.839 523.445 902.193 532.001 898.902 540.703C895.612 549.406 891.407 556.536 886.288 562.093C881.169 567.651 876.269 570.43 871.589 570.43H870.821C868.189 570.43 865.922 569.699 864.02 568.236C862.119 566.773 860.693 564.836 859.742 562.422C858.792 560.009 858.097 557.559 857.658 555.073C857.219 552.587 857 550.027 857 547.395ZM895.173 507.247C895.173 499.788 893.235 496.059 889.359 496.059C886.727 496.059 884.167 497.704 881.681 500.995C879.194 504.286 877.147 508.015 875.538 512.183C873.929 516.352 872.686 520.008 871.808 523.153C870.931 526.297 870.456 528.125 870.382 528.637C873.966 528.71 877.512 528.747 881.023 528.747L891.663 528.637C891.736 528.564 892.028 527.357 892.54 525.017C893.052 522.677 893.637 519.752 894.295 516.242C894.953 512.732 895.246 509.734 895.173 507.247ZM865.556 554.854C865.556 562.605 867.494 566.481 871.37 566.481C872.467 566.481 873.637 566.115 874.88 565.384C876.123 564.653 877.622 563.263 879.377 561.216C881.132 559.168 882.887 555.987 884.642 551.673C886.397 547.358 888.153 542.02 889.908 535.657L890.456 533.793H869.066C869.066 534.012 868.737 535.402 868.079 537.961C867.421 540.52 866.836 543.372 866.324 546.517C865.812 549.661 865.556 552.44 865.556 554.854Z" fill="black"/>
<path d="M1053.75 586.924C1054.22 583.834 1056.07 580.265 1059.29 576.218C1062.51 572.171 1066.48 570.111 1071.2 570.037C1073.59 570.037 1075.79 570.699 1077.77 572.024C1079.75 573.348 1081.23 575.004 1082.18 576.991C1085.06 572.355 1088.52 570.037 1092.55 570.037C1095.09 570.037 1097.28 570.846 1099.13 572.465C1100.97 574.084 1101.93 576.255 1102 578.977C1102 581.111 1101.52 582.841 1100.56 584.165C1099.6 585.49 1098.68 586.299 1097.79 586.593C1096.9 586.888 1096.11 587.035 1095.43 587.035C1094.13 587.035 1093.07 586.63 1092.25 585.821C1091.43 585.011 1091.01 583.944 1091.01 582.62C1091.01 579.235 1092.73 576.917 1096.15 575.666C1095.39 574.71 1094.03 574.231 1092.04 574.231C1091.15 574.231 1090.5 574.305 1090.09 574.452C1087.49 575.629 1085.57 578.058 1084.34 581.737C1080.23 597.999 1078.18 607.491 1078.18 610.214C1078.18 612.274 1078.73 613.746 1079.82 614.629C1080.92 615.512 1082.12 615.953 1083.42 615.953C1085.95 615.953 1088.45 614.739 1090.91 612.311C1093.38 609.882 1095.05 606.902 1095.94 603.37C1096.15 602.634 1096.35 602.23 1096.56 602.156C1096.76 602.083 1097.31 602.009 1098.2 601.935H1098.61C1099.64 601.935 1100.15 602.23 1100.15 602.818C1100.15 602.892 1100.08 603.297 1099.95 604.033C1098.85 608.227 1096.73 611.943 1093.58 615.18C1090.43 618.418 1086.77 620.037 1082.6 620.037C1077.8 620.037 1074.18 617.719 1071.71 613.083C1068.91 617.646 1065.69 619.927 1062.06 619.927H1061.45C1058.09 619.927 1055.7 618.97 1054.26 617.057C1052.82 615.144 1052.07 613.12 1052 610.986C1052 608.632 1052.65 606.718 1053.95 605.247C1055.25 603.775 1056.79 603.039 1058.57 603.039C1061.51 603.039 1062.99 604.584 1062.99 607.675C1062.99 609.147 1062.57 610.434 1061.75 611.538C1060.93 612.642 1060.15 613.378 1059.39 613.746C1058.64 614.114 1058.19 614.297 1058.06 614.297L1057.75 614.408C1057.75 614.481 1057.95 614.629 1058.37 614.849C1058.78 615.07 1059.32 615.328 1060.01 615.622C1060.69 615.916 1061.34 616.027 1061.96 615.953C1064.42 615.953 1066.54 614.297 1068.32 610.986C1068.94 609.809 1069.73 607.307 1070.69 603.481C1071.64 599.654 1072.6 595.681 1073.56 591.56C1074.52 587.439 1075.07 585.011 1075.2 584.275C1075.55 582.289 1075.72 580.854 1075.72 579.971C1075.72 577.91 1075.2 576.439 1074.18 575.556C1073.15 574.673 1071.99 574.231 1070.69 574.231C1067.95 574.231 1065.38 575.409 1062.99 577.763C1060.59 580.118 1058.91 583.135 1057.95 586.814C1057.82 587.476 1057.65 587.844 1057.44 587.918C1057.24 587.991 1056.69 588.065 1055.8 588.139H1054.36C1053.95 587.697 1053.75 587.292 1053.75 586.924Z" fill="black"/>
<path d="M479 17.9699C479 16.888 479.526 15.0333 480.578 12.4059C481.63 9.77854 483.314 7.03522 485.628 4.17598C487.943 1.31675 490.538 -0.0742289 493.413 0.00304774C496.289 0.00304774 498.604 0.891729 500.357 2.66909C502.111 4.44645 503.022 6.9193 503.093 10.0876C502.952 11.5559 502.847 12.3673 502.777 12.5219C502.777 12.7537 502.216 14.5311 501.094 17.8539C499.971 21.1768 498.814 24.9248 497.622 29.0977C496.429 33.2706 495.868 36.5935 495.938 39.0664C495.938 42.3893 496.429 44.7076 497.411 46.0213C498.393 47.335 499.866 48.0305 501.83 48.1077C503.443 48.1077 504.951 47.6827 506.354 46.8327C507.757 45.9826 508.844 45.094 509.615 44.1666C510.387 43.2393 511.334 41.9642 512.456 40.3414C512.456 40.2642 512.631 39.4914 512.982 38.0231C513.333 36.5549 513.824 34.2752 514.455 31.1842C515.086 28.0931 515.753 25.2339 516.454 22.6065C519.119 11.015 520.592 4.94875 520.873 4.40781C521.784 2.32135 523.292 1.27811 525.397 1.27811C526.308 1.27811 527.045 1.54858 527.606 2.08952C528.167 2.63045 528.553 3.09411 528.763 3.4805C528.974 3.86688 529.044 4.21462 528.974 4.52373C528.974 5.52833 527.255 13.6424 523.819 28.8659C520.382 44.0894 518.418 52.4352 517.927 53.9035C515.963 60.3174 512.561 65.4177 507.722 69.2043C502.882 72.9908 498.043 74.9227 493.203 75C490.047 75 487.276 74.15 484.892 72.4499C482.507 70.7498 481.315 68.1997 481.315 64.7995C481.315 63.0994 481.56 61.6698 482.051 60.5106C482.542 59.3515 483.208 58.5014 484.05 57.9605C484.892 57.4196 485.593 57.0332 486.154 56.8014C486.715 56.5695 487.311 56.4536 487.943 56.4536C491.029 56.4536 492.572 58.0764 492.572 61.322C492.572 62.8676 492.151 64.2199 491.309 65.3791C490.468 66.5382 489.661 67.311 488.89 67.6974C488.118 68.0837 487.662 68.2769 487.522 68.2769L487.206 68.3928C487.346 68.7792 488.013 69.2429 489.205 69.7838C490.398 70.3248 491.59 70.5952 492.782 70.5952H493.624C494.816 70.5952 495.728 70.518 496.359 70.3634C498.674 69.6679 500.813 68.1997 502.777 65.9586C504.741 63.7176 506.249 61.322 507.301 58.7719C508.353 56.2218 509.16 54.058 509.721 52.2807C510.282 50.5033 510.562 49.3442 510.562 48.8032L509.931 49.2669C509.51 49.576 508.844 50.001 507.932 50.542C507.02 51.0829 506.109 51.5465 505.197 51.9329C503.794 52.3193 502.426 52.5125 501.094 52.5125C497.867 52.5125 495.027 51.6625 492.572 49.9624C490.117 48.2623 488.504 45.519 487.732 41.7324C487.662 41.1915 487.627 39.9937 487.627 38.1391C487.627 33.7343 488.854 27.9772 491.309 20.8677C493.764 13.7583 494.992 9.2376 494.992 7.30569C494.992 7.22841 494.992 7.15113 494.992 7.07386C494.992 6.37837 494.992 5.91471 494.992 5.68288C494.992 5.45105 494.851 5.18058 494.571 4.87147C494.29 4.56237 493.904 4.40781 493.413 4.40781H492.993C491.379 4.40781 489.907 5.14194 488.574 6.6102C487.241 8.07845 486.189 9.66262 485.418 11.3627C484.646 13.0628 484.05 14.6856 483.629 16.2311C483.208 17.7767 482.928 18.6267 482.787 18.7813C482.647 18.9358 482.086 19.0131 481.104 19.0131H479.631C479.21 18.5494 479 18.2017 479 17.9699Z" fill="black"/>
<path d="M993.36 374.719C993.36 376.509 995.076 377.554 998.508 377.852C999.851 377.852 1000.52 378.262 1000.52 379.083C1000.52 379.158 1000.45 379.643 1000.3 380.538C1000.07 381.582 999.851 382.254 999.627 382.552C999.403 382.851 998.919 383 998.172 383C998.023 383 997.576 383 996.83 383C996.084 383 994.815 382.963 993.025 382.888C991.234 382.813 988.847 382.776 985.862 382.776C980.565 382.776 977.171 382.851 975.679 383H974.783C974.261 382.478 974 382.067 974 381.769C974.149 379.755 974.634 378.449 975.455 377.852H977.022C982.244 377.628 986.049 375.763 988.436 372.257C988.884 371.809 995.636 360.432 1008.69 338.124C1021.75 315.817 1028.39 304.514 1028.61 304.216C1029.13 303.32 1030.03 302.873 1031.3 302.873H1032.19H1034.1C1034.54 303.544 1034.77 303.917 1034.77 303.992L1037.9 340.139C1039.99 364.236 1041.11 376.397 1041.26 376.621C1041.63 377.442 1044.06 377.852 1048.53 377.852C1050.4 377.852 1051.33 378.225 1051.33 378.971C1051.33 379.12 1051.22 379.643 1050.99 380.538C1050.77 381.657 1050.58 382.329 1050.43 382.552C1050.29 382.776 1049.76 382.925 1048.87 383C1048.64 383 1048.12 383 1047.3 383C1046.48 383 1045.03 382.963 1042.94 382.888C1040.85 382.813 1038.12 382.776 1034.77 382.776C1027.75 382.776 1023.17 382.851 1021 383H1019.66C1019.21 382.552 1018.99 382.217 1018.99 381.993C1018.99 381.769 1019.06 381.098 1019.21 379.978C1019.51 379.009 1019.73 378.412 1019.88 378.188L1020.33 377.852H1022.57C1026.6 377.628 1028.98 376.994 1029.73 375.95L1028.39 359.163H1001.75L997.949 365.654C994.89 370.802 993.36 373.823 993.36 374.719ZM1027.83 353.903C1027.83 353.083 1027.38 347.264 1026.49 336.446C1025.59 325.628 1025.07 320.181 1024.92 320.107L1021.9 324.919C1020.7 326.933 1018.35 330.925 1014.85 336.893L1004.78 353.903L1016.3 354.015C1023.99 354.015 1027.83 353.978 1027.83 353.903Z" fill="black"/>
<path d="M1041.82 276.238C1041.82 275.641 1042 275.119 1042.38 274.671C1042.75 274.224 1043.31 274 1044.06 274C1044.58 274 1045.03 274.187 1045.4 274.56C1045.77 274.858 1046.14 275.567 1046.52 276.686C1047.26 279.446 1048.79 281.573 1051.11 283.065C1051.93 283.587 1052.34 284.258 1052.34 285.079C1052.34 285.751 1052.22 286.198 1052 286.422C1051.78 286.646 1051.25 286.982 1050.43 287.429C1047.23 289.071 1044.43 291.421 1042.04 294.479C1041.89 294.629 1041.71 294.852 1041.48 295.151C1041.26 295.449 1041.07 295.673 1040.92 295.822C1040.77 295.972 1040.59 296.046 1040.36 296.046C1040.14 296.046 1039.88 296.084 1039.58 296.158C1039.06 296.158 1038.57 295.972 1038.12 295.599C1037.68 295.226 1037.42 294.666 1037.34 293.92C1037.34 292.502 1039.09 290.302 1042.6 287.317H1023.46L1004.33 287.205C1003.36 286.534 1002.87 285.825 1002.87 285.079C1002.87 284.557 1003.36 283.811 1004.33 282.841H1044.5C1042.71 280.006 1041.82 277.805 1041.82 276.238Z" fill="black"/>
<defs>
<filter id="filter0_d_6_20" x="0" y="568.226" width="1011.5" height="59.5477" filterUnits="userSpaceOnUse" color-interpolation-filters="sRGB">
<feFlood flood-opacity="0" result="BackgroundImageFix"/>
<feColorMatrix in="SourceAlpha" type="matrix" values="0 0 0 0 0 0 0 0 0 0 0 0 0 0 0 0 0 0 127 0" result="hardAlpha"/>
<feOffset dy="4"/>
<feGaussianBlur stdDeviation="2"/>
<feComposite in2="hardAlpha" operator="out"/>
<feColorMatrix type="matrix" values="0 0 0 0 0 0 0 0 0 0 0 0 0 0 0 0 0 0 0.25 0"/>
<feBlend mode="normal" in2="BackgroundImageFix" result="effect1_dropShadow_6_20"/>
<feBlend mode="normal" in="SourceGraphic" in2="effect1_dropShadow_6_20" result="shape"/>
</filter>
<filter id="filter1_d_6_20" x="474.226" y="90.5" width="59.5477" height="665.5" filterUnits="userSpaceOnUse" color-interpolation-filters="sRGB">
<feFlood flood-opacity="0" result="BackgroundImageFix"/>
<feColorMatrix in="SourceAlpha" type="matrix" values="0 0 0 0 0 0 0 0 0 0 0 0 0 0 0 0 0 0 127 0" result="hardAlpha"/>
<feOffset dy="4"/>
<feGaussianBlur stdDeviation="2"/>
<feComposite in2="hardAlpha" operator="out"/>
<feColorMatrix type="matrix" values="0 0 0 0 0 0 0 0 0 0 0 0 0 0 0 0 0 0 0.25 0"/>
<feBlend mode="normal" in2="BackgroundImageFix" result="effect1_dropShadow_6_20"/>
<feBlend mode="normal" in="SourceGraphic" in2="effect1_dropShadow_6_20" result="shape"/>
</filter>
</defs>
</svg>
